let freedomOfChoice = {
  "ticksPerQuarter": 480,
  "timeSignatures": [
    {
      "time": 0,
      "numerator": 4,
      "denominator": 4
    }
  ],
  "tempos": [
    {
      "time": 0,
      "qpm": 154.000154000154
    }
  ],
  "notes": [
    {
      "pitch": 41,
      "velocity": 80,
      "startTime": 13.441545,
      "endTime": 13.6355383125,
      "instrument": 0,
      "program": 30,
      "isDrum": false
    },
    {
      "pitch": 48,
      "velocity": 80,
      "startTime": 13.441545,
      "endTime": 13.6355383125,
      "instrument": 0,
      "program": 30,
      "isDrum": false
    },
    {
      "pitch": 53,
      "velocity": 80,
      "startTime": 13.441545,
      "endTime": 13.6355383125,
      "instrument": 0,
      "program": 30,
      "isDrum": false
    },
    {
      "pitch": 41,
      "velocity": 80,
      "startTime": 13.63635,
      "endTime": 13.8303433125,
      "instrument": 0,
      "program": 30,
      "isDrum": false
    },
    {
      "pitch": 48,
      "velocity": 80,
      "startTime": 13.63635,
      "endTime": 13.8303433125,
      "instrument": 0,
      "program": 30,
      "isDrum": false
    },
    {
      "pitch": 53,
      "velocity": 80,
      "startTime": 13.63635,
      "endTime": 13.8303433125,
      "instrument": 0,
      "program": 30,
      "isDrum": false
    },
    {
      "pitch": 41,
      "velocity": 80,
      "startTime": 13.831155,
      "endTime": 14.0251483125,
      "instrument": 0,
      "program": 30,
      "isDrum": false
    },
    {
      "pitch": 48,
      "velocity": 80,
      "startTime": 13.831155,
      "endTime": 14.0251483125,
      "instrument": 0,
      "program": 30,
      "isDrum": false
    },
    {
      "pitch": 53,
      "velocity": 80,
      "startTime": 13.831155,
      "endTime": 14.0251483125,
      "instrument": 0,
      "program": 30,
      "isDrum": false
    },
    {
      "pitch": 43,
      "velocity": 80,
      "startTime": 14.025960000000001,
      "endTime": 14.219953312500001,
      "instrument": 0,
      "program": 30,
      "isDrum": false
    },
    {
      "pitch": 50,
      "velocity": 80,
      "startTime": 14.025960000000001,
      "endTime": 14.219953312500001,
      "instrument": 0,
      "program": 30,
      "isDrum": false
    },
    {
      "pitch": 55,
      "velocity": 80,
      "startTime": 14.025960000000001,
      "endTime": 14.219953312500001,
      "instrument": 0,
      "program": 30,
      "isDrum": false
    },
    {
      "pitch": 41,
      "velocity": 80,
      "startTime": 16.558425,
      "endTime": 16.7524183125,
      "instrument": 0,
      "program": 30,
      "isDrum": false
    },
    {
      "pitch": 48,
      "velocity": 80,
      "startTime": 16.558425,
      "endTime": 16.7524183125,
      "instrument": 0,
      "program": 30,
      "isDrum": false
    },
    {
      "pitch": 53,
      "velocity": 80,
      "startTime": 16.558425,
      "endTime": 16.7524183125,
      "instrument": 0,
      "program": 30,
      "isDrum": false
    },
    {
      "pitch": 41,
      "velocity": 80,
      "startTime": 16.753230000000002,
      "endTime": 16.947223312500004,
      "instrument": 0,
      "program": 30,
      "isDrum": false
    },
    {
      "pitch": 48,
      "velocity": 80,
      "startTime": 16.753230000000002,
      "endTime": 16.947223312500004,
      "instrument": 0,
      "program": 30,
      "isDrum": false
    },
    {
      "pitch": 53,
      "velocity": 80,
      "startTime": 16.753230000000002,
      "endTime": 16.947223312500004,
      "instrument": 0,
      "program": 30,
      "isDrum": false
    },
    {
      "pitch": 41,
      "velocity": 80,
      "startTime": 16.948035000000004,
      "endTime": 17.142028312500006,
      "instrument": 0,
      "program": 30,
      "isDrum": false
    },
    {
      "pitch": 48,
      "velocity": 80,
      "startTime": 16.948035000000004,
      "endTime": 17.142028312500006,
      "instrument": 0,
      "program": 30,
      "isDrum": false
    },
    {
      "pitch": 53,
      "velocity": 80,
      "startTime": 16.948035000000004,
      "endTime": 17.142028312500006,
      "instrument": 0,
      "program": 30,
      "isDrum": false
    },
    {
      "pitch": 43,
      "velocity": 80,
      "startTime": 17.142840000000007,
      "endTime": 17.33683331250001,
      "instrument": 0,
      "program": 30,
      "isDrum": false
    },
    {
      "pitch": 50,
      "velocity": 80,
      "startTime": 17.142840000000007,
      "endTime": 17.33683331250001,
      "instrument": 0,
      "program": 30,
      "isDrum": false
    },
    {
      "pitch": 55,
      "velocity": 80,
      "startTime": 17.142840000000007,
      "endTime": 17.33683331250001,
      "instrument": 0,
      "program": 30,
      "isDrum": false
    },
    {
      "pitch": 41,
      "velocity": 80,
      "startTime": 19.67530500000001,
      "endTime": 19.86929831250001,
      "instrument": 0,
      "program": 30,
      "isDrum": false
    },
    {
      "pitch": 48,
      "velocity": 80,
      "startTime": 19.67530500000001,
      "endTime": 19.86929831250001,
      "instrument": 0,
      "program": 30,
      "isDrum": false
    },
    {
      "pitch": 53,
      "velocity": 80,
      "startTime": 19.67530500000001,
      "endTime": 19.86929831250001,
      "instrument": 0,
      "program": 30,
      "isDrum": false
    },
    {
      "pitch": 41,
      "velocity": 80,
      "startTime": 19.87011000000001,
      "endTime": 20.064103312500013,
      "instrument": 0,
      "program": 30,
      "isDrum": false
    },
    {
      "pitch": 48,
      "velocity": 80,
      "startTime": 19.87011000000001,
      "endTime": 20.064103312500013,
      "instrument": 0,
      "program": 30,
      "isDrum": false
    },
    {
      "pitch": 53,
      "velocity": 80,
      "startTime": 19.87011000000001,
      "endTime": 20.064103312500013,
      "instrument": 0,
      "program": 30,
      "isDrum": false
    },
    {
      "pitch": 41,
      "velocity": 80,
      "startTime": 20.064915000000013,
      "endTime": 20.258908312500015,
      "instrument": 0,
      "program": 30,
      "isDrum": false
    },
    {
      "pitch": 48,
      "velocity": 80,
      "startTime": 20.064915000000013,
      "endTime": 20.258908312500015,
      "instrument": 0,
      "program": 30,
      "isDrum": false
    },
    {
      "pitch": 53,
      "velocity": 80,
      "startTime": 20.064915000000013,
      "endTime": 20.258908312500015,
      "instrument": 0,
      "program": 30,
      "isDrum": false
    },
    {
      "pitch": 43,
      "velocity": 80,
      "startTime": 20.259720000000016,
      "endTime": 20.453713312500017,
      "instrument": 0,
      "program": 30,
      "isDrum": false
    },
    {
      "pitch": 50,
      "velocity": 80,
      "startTime": 20.259720000000016,
      "endTime": 20.453713312500017,
      "instrument": 0,
      "program": 30,
      "isDrum": false
    },
    {
      "pitch": 55,
      "velocity": 80,
      "startTime": 20.259720000000016,
      "endTime": 20.453713312500017,
      "instrument": 0,
      "program": 30,
      "isDrum": false
    },
    {
      "pitch": 41,
      "velocity": 80,
      "startTime": 22.792185000000018,
      "endTime": 22.98617831250002,
      "instrument": 0,
      "program": 30,
      "isDrum": false
    },
    {
      "pitch": 48,
      "velocity": 80,
      "startTime": 22.792185000000018,
      "endTime": 22.98617831250002,
      "instrument": 0,
      "program": 30,
      "isDrum": false
    },
    {
      "pitch": 53,
      "velocity": 80,
      "startTime": 22.792185000000018,
      "endTime": 22.98617831250002,
      "instrument": 0,
      "program": 30,
      "isDrum": false
    },
    {
      "pitch": 41,
      "velocity": 80,
      "startTime": 22.98699000000002,
      "endTime": 23.18098331250002,
      "instrument": 0,
      "program": 30,
      "isDrum": false
    },
    {
      "pitch": 48,
      "velocity": 80,
      "startTime": 22.98699000000002,
      "endTime": 23.18098331250002,
      "instrument": 0,
      "program": 30,
      "isDrum": false
    },
    {
      "pitch": 53,
      "velocity": 80,
      "startTime": 22.98699000000002,
      "endTime": 23.18098331250002,
      "instrument": 0,
      "program": 30,
      "isDrum": false
    },
    {
      "pitch": 41,
      "velocity": 80,
      "startTime": 23.181795000000022,
      "endTime": 23.375788312500024,
      "instrument": 0,
      "program": 30,
      "isDrum": false
    },
    {
      "pitch": 48,
      "velocity": 80,
      "startTime": 23.181795000000022,
      "endTime": 23.375788312500024,
      "instrument": 0,
      "program": 30,
      "isDrum": false
    },
    {
      "pitch": 53,
      "velocity": 80,
      "startTime": 23.181795000000022,
      "endTime": 23.375788312500024,
      "instrument": 0,
      "program": 30,
      "isDrum": false
    },
    {
      "pitch": 43,
      "velocity": 80,
      "startTime": 23.376600000000025,
      "endTime": 23.570593312500026,
      "instrument": 0,
      "program": 30,
      "isDrum": false
    },
    {
      "pitch": 50,
      "velocity": 80,
      "startTime": 23.376600000000025,
      "endTime": 23.570593312500026,
      "instrument": 0,
      "program": 30,
      "isDrum": false
    },
    {
      "pitch": 55,
      "velocity": 80,
      "startTime": 23.376600000000025,
      "endTime": 23.570593312500026,
      "instrument": 0,
      "program": 30,
      "isDrum": false
    },
    {
      "pitch": 43,
      "velocity": 80,
      "startTime": 23.571405000000027,
      "endTime": 23.76539831250003,
      "instrument": 0,
      "program": 30,
      "isDrum": false
    },
    {
      "pitch": 50,
      "velocity": 80,
      "startTime": 23.571405000000027,
      "endTime": 23.76539831250003,
      "instrument": 0,
      "program": 30,
      "isDrum": false
    },
    {
      "pitch": 55,
      "velocity": 80,
      "startTime": 23.571405000000027,
      "endTime": 23.76539831250003,
      "instrument": 0,
      "program": 30,
      "isDrum": false
    },
    {
      "pitch": 43,
      "velocity": 80,
      "startTime": 23.76621000000003,
      "endTime": 23.96020331250003,
      "instrument": 0,
      "program": 30,
      "isDrum": false
    },
    {
      "pitch": 50,
      "velocity": 80,
      "startTime": 23.76621000000003,
      "endTime": 23.96020331250003,
      "instrument": 0,
      "program": 30,
      "isDrum": false
    },
    {
      "pitch": 55,
      "velocity": 80,
      "startTime": 23.76621000000003,
      "endTime": 23.96020331250003,
      "instrument": 0,
      "program": 30,
      "isDrum": false
    },
    {
      "pitch": 43,
      "velocity": 80,
      "startTime": 23.96101500000003,
      "endTime": 24.155008312500033,
      "instrument": 0,
      "program": 30,
      "isDrum": false
    },
    {
      "pitch": 50,
      "velocity": 80,
      "startTime": 23.96101500000003,
      "endTime": 24.155008312500033,
      "instrument": 0,
      "program": 30,
      "isDrum": false
    },
    {
      "pitch": 55,
      "velocity": 80,
      "startTime": 23.96101500000003,
      "endTime": 24.155008312500033,
      "instrument": 0,
      "program": 30,
      "isDrum": false
    },
    {
      "pitch": 41,
      "velocity": 80,
      "startTime": 24.935040000000033,
      "endTime": 25.129033312500034,
      "instrument": 0,
      "program": 30,
      "isDrum": false
    },
    {
      "pitch": 48,
      "velocity": 80,
      "startTime": 24.935040000000033,
      "endTime": 25.129033312500034,
      "instrument": 0,
      "program": 30,
      "isDrum": false
    },
    {
      "pitch": 53,
      "velocity": 80,
      "startTime": 24.935040000000033,
      "endTime": 25.129033312500034,
      "instrument": 0,
      "program": 30,
      "isDrum": false
    },
    {
      "pitch": 41,
      "velocity": 80,
      "startTime": 25.129845000000035,
      "endTime": 25.323838312500037,
      "instrument": 0,
      "program": 30,
      "isDrum": false
    },
    {
      "pitch": 48,
      "velocity": 80,
      "startTime": 25.129845000000035,
      "endTime": 25.323838312500037,
      "instrument": 0,
      "program": 30,
      "isDrum": false
    },
    {
      "pitch": 53,
      "velocity": 80,
      "startTime": 25.129845000000035,
      "endTime": 25.323838312500037,
      "instrument": 0,
      "program": 30,
      "isDrum": false
    },
    {
      "pitch": 41,
      "velocity": 80,
      "startTime": 25.324650000000037,
      "endTime": 25.51864331250004,
      "instrument": 0,
      "program": 30,
      "isDrum": false
    },
    {
      "pitch": 48,
      "velocity": 80,
      "startTime": 25.324650000000037,
      "endTime": 25.51864331250004,
      "instrument": 0,
      "program": 30,
      "isDrum": false
    },
    {
      "pitch": 53,
      "velocity": 80,
      "startTime": 25.324650000000037,
      "endTime": 25.51864331250004,
      "instrument": 0,
      "program": 30,
      "isDrum": false
    },
    {
      "pitch": 41,
      "velocity": 80,
      "startTime": 25.51945500000004,
      "endTime": 25.71344831250004,
      "instrument": 0,
      "program": 30,
      "isDrum": false
    },
    {
      "pitch": 48,
      "velocity": 80,
      "startTime": 25.51945500000004,
      "endTime": 25.71344831250004,
      "instrument": 0,
      "program": 30,
      "isDrum": false
    },
    {
      "pitch": 53,
      "velocity": 80,
      "startTime": 25.51945500000004,
      "endTime": 25.71344831250004,
      "instrument": 0,
      "program": 30,
      "isDrum": false
    },
    {
      "pitch": 43,
      "velocity": 80,
      "startTime": 26.49348000000004,
      "endTime": 26.687473312500043,
      "instrument": 0,
      "program": 30,
      "isDrum": false
    },
    {
      "pitch": 50,
      "velocity": 80,
      "startTime": 26.49348000000004,
      "endTime": 26.687473312500043,
      "instrument": 0,
      "program": 30,
      "isDrum": false
    },
    {
      "pitch": 55,
      "velocity": 80,
      "startTime": 26.49348000000004,
      "endTime": 26.687473312500043,
      "instrument": 0,
      "program": 30,
      "isDrum": false
    },
    {
      "pitch": 43,
      "velocity": 80,
      "startTime": 26.688285000000043,
      "endTime": 26.882278312500045,
      "instrument": 0,
      "program": 30,
      "isDrum": false
    },
    {
      "pitch": 50,
      "velocity": 80,
      "startTime": 26.688285000000043,
      "endTime": 26.882278312500045,
      "instrument": 0,
      "program": 30,
      "isDrum": false
    },
    {
      "pitch": 55,
      "velocity": 80,
      "startTime": 26.688285000000043,
      "endTime": 26.882278312500045,
      "instrument": 0,
      "program": 30,
      "isDrum": false
    },
    {
      "pitch": 43,
      "velocity": 80,
      "startTime": 26.883090000000045,
      "endTime": 27.077083312500047,
      "instrument": 0,
      "program": 30,
      "isDrum": false
    },
    {
      "pitch": 50,
      "velocity": 80,
      "startTime": 26.883090000000045,
      "endTime": 27.077083312500047,
      "instrument": 0,
      "program": 30,
      "isDrum": false
    },
    {
      "pitch": 55,
      "velocity": 80,
      "startTime": 26.883090000000045,
      "endTime": 27.077083312500047,
      "instrument": 0,
      "program": 30,
      "isDrum": false
    },
    {
      "pitch": 43,
      "velocity": 80,
      "startTime": 27.077895000000048,
      "endTime": 27.27188831250005,
      "instrument": 0,
      "program": 30,
      "isDrum": false
    },
    {
      "pitch": 50,
      "velocity": 80,
      "startTime": 27.077895000000048,
      "endTime": 27.27188831250005,
      "instrument": 0,
      "program": 30,
      "isDrum": false
    },
    {
      "pitch": 55,
      "velocity": 80,
      "startTime": 27.077895000000048,
      "endTime": 27.27188831250005,
      "instrument": 0,
      "program": 30,
      "isDrum": false
    },
    {
      "pitch": 46,
      "velocity": 80,
      "startTime": 28.05192000000005,
      "endTime": 28.24591331250005,
      "instrument": 0,
      "program": 30,
      "isDrum": false
    },
    {
      "pitch": 53,
      "velocity": 80,
      "startTime": 28.05192000000005,
      "endTime": 28.24591331250005,
      "instrument": 0,
      "program": 30,
      "isDrum": false
    },
    {
      "pitch": 58,
      "velocity": 80,
      "startTime": 28.05192000000005,
      "endTime": 28.24591331250005,
      "instrument": 0,
      "program": 30,
      "isDrum": false
    },
    {
      "pitch": 46,
      "velocity": 80,
      "startTime": 28.24672500000005,
      "endTime": 28.440718312500053,
      "instrument": 0,
      "program": 30,
      "isDrum": false
    },
    {
      "pitch": 53,
      "velocity": 80,
      "startTime": 28.24672500000005,
      "endTime": 28.440718312500053,
      "instrument": 0,
      "program": 30,
      "isDrum": false
    },
    {
      "pitch": 58,
      "velocity": 80,
      "startTime": 28.24672500000005,
      "endTime": 28.440718312500053,
      "instrument": 0,
      "program": 30,
      "isDrum": false
    },
    {
      "pitch": 46,
      "velocity": 80,
      "startTime": 28.441530000000053,
      "endTime": 28.635523312500055,
      "instrument": 0,
      "program": 30,
      "isDrum": false
    },
    {
      "pitch": 53,
      "velocity": 80,
      "startTime": 28.441530000000053,
      "endTime": 28.635523312500055,
      "instrument": 0,
      "program": 30,
      "isDrum": false
    },
    {
      "pitch": 58,
      "velocity": 80,
      "startTime": 28.441530000000053,
      "endTime": 28.635523312500055,
      "instrument": 0,
      "program": 30,
      "isDrum": false
    },
    {
      "pitch": 46,
      "velocity": 80,
      "startTime": 28.636335000000056,
      "endTime": 28.830328312500058,
      "instrument": 0,
      "program": 30,
      "isDrum": false
    },
    {
      "pitch": 53,
      "velocity": 80,
      "startTime": 28.636335000000056,
      "endTime": 28.830328312500058,
      "instrument": 0,
      "program": 30,
      "isDrum": false
    },
    {
      "pitch": 58,
      "velocity": 80,
      "startTime": 28.636335000000056,
      "endTime": 28.830328312500058,
      "instrument": 0,
      "program": 30,
      "isDrum": false
    },
    {
      "pitch": 48,
      "velocity": 80,
      "startTime": 29.610360000000057,
      "endTime": 29.80435331250006,
      "instrument": 0,
      "program": 30,
      "isDrum": false
    },
    {
      "pitch": 55,
      "velocity": 80,
      "startTime": 29.610360000000057,
      "endTime": 29.80435331250006,
      "instrument": 0,
      "program": 30,
      "isDrum": false
    },
    {
      "pitch": 60,
      "velocity": 80,
      "startTime": 29.610360000000057,
      "endTime": 29.80435331250006,
      "instrument": 0,
      "program": 30,
      "isDrum": false
    },
    {
      "pitch": 48,
      "velocity": 80,
      "startTime": 29.80516500000006,
      "endTime": 29.99915831250006,
      "instrument": 0,
      "program": 30,
      "isDrum": false
    },
    {
      "pitch": 55,
      "velocity": 80,
      "startTime": 29.80516500000006,
      "endTime": 29.99915831250006,
      "instrument": 0,
      "program": 30,
      "isDrum": false
    },
    {
      "pitch": 60,
      "velocity": 80,
      "startTime": 29.80516500000006,
      "endTime": 29.99915831250006,
      "instrument": 0,
      "program": 30,
      "isDrum": false
    },
    {
      "pitch": 48,
      "velocity": 80,
      "startTime": 29.99997000000006,
      "endTime": 30.193963312500063,
      "instrument": 0,
      "program": 30,
      "isDrum": false
    },
    {
      "pitch": 55,
      "velocity": 80,
      "startTime": 29.99997000000006,
      "endTime": 30.193963312500063,
      "instrument": 0,
      "program": 30,
      "isDrum": false
    },
    {
      "pitch": 60,
      "velocity": 80,
      "startTime": 29.99997000000006,
      "endTime": 30.193963312500063,
      "instrument": 0,
      "program": 30,
      "isDrum": false
    },
    {
      "pitch": 48,
      "velocity": 80,
      "startTime": 30.194775000000064,
      "endTime": 30.388768312500066,
      "instrument": 0,
      "program": 30,
      "isDrum": false
    },
    {
      "pitch": 55,
      "velocity": 80,
      "startTime": 30.194775000000064,
      "endTime": 30.388768312500066,
      "instrument": 0,
      "program": 30,
      "isDrum": false
    },
    {
      "pitch": 60,
      "velocity": 80,
      "startTime": 30.194775000000064,
      "endTime": 30.388768312500066,
      "instrument": 0,
      "program": 30,
      "isDrum": false
    },
    {
      "pitch": 50,
      "velocity": 80,
      "startTime": 31.168800000000065,
      "endTime": 31.362793312500067,
      "instrument": 0,
      "program": 30,
      "isDrum": false
    },
    {
      "pitch": 57,
      "velocity": 80,
      "startTime": 31.168800000000065,
      "endTime": 31.362793312500067,
      "instrument": 0,
      "program": 30,
      "isDrum": false
    },
    {
      "pitch": 62,
      "velocity": 80,
      "startTime": 31.168800000000065,
      "endTime": 31.362793312500067,
      "instrument": 0,
      "program": 30,
      "isDrum": false
    },
    {
      "pitch": 50,
      "velocity": 80,
      "startTime": 31.363605000000067,
      "endTime": 31.55759831250007,
      "instrument": 0,
      "program": 30,
      "isDrum": false
    },
    {
      "pitch": 57,
      "velocity": 80,
      "startTime": 31.363605000000067,
      "endTime": 31.55759831250007,
      "instrument": 0,
      "program": 30,
      "isDrum": false
    },
    {
      "pitch": 62,
      "velocity": 80,
      "startTime": 31.363605000000067,
      "endTime": 31.55759831250007,
      "instrument": 0,
      "program": 30,
      "isDrum": false
    },
    {
      "pitch": 50,
      "velocity": 80,
      "startTime": 31.55841000000007,
      "endTime": 31.75240331250007,
      "instrument": 0,
      "program": 30,
      "isDrum": false
    },
    {
      "pitch": 57,
      "velocity": 80,
      "startTime": 31.55841000000007,
      "endTime": 31.75240331250007,
      "instrument": 0,
      "program": 30,
      "isDrum": false
    },
    {
      "pitch": 62,
      "velocity": 80,
      "startTime": 31.55841000000007,
      "endTime": 31.75240331250007,
      "instrument": 0,
      "program": 30,
      "isDrum": false
    },
    {
      "pitch": 50,
      "velocity": 80,
      "startTime": 31.753215000000072,
      "endTime": 31.947208312500074,
      "instrument": 0,
      "program": 30,
      "isDrum": false
    },
    {
      "pitch": 57,
      "velocity": 80,
      "startTime": 31.753215000000072,
      "endTime": 31.947208312500074,
      "instrument": 0,
      "program": 30,
      "isDrum": false
    },
    {
      "pitch": 62,
      "velocity": 80,
      "startTime": 31.753215000000072,
      "endTime": 31.947208312500074,
      "instrument": 0,
      "program": 30,
      "isDrum": false
    },
    {
      "pitch": 50,
      "velocity": 80,
      "startTime": 31.948020000000074,
      "endTime": 32.142013312500076,
      "instrument": 0,
      "program": 30,
      "isDrum": false
    },
    {
      "pitch": 57,
      "velocity": 80,
      "startTime": 31.948020000000074,
      "endTime": 32.142013312500076,
      "instrument": 0,
      "program": 30,
      "isDrum": false
    },
    {
      "pitch": 62,
      "velocity": 80,
      "startTime": 31.948020000000074,
      "endTime": 32.142013312500076,
      "instrument": 0,
      "program": 30,
      "isDrum": false
    },
    {
      "pitch": 45,
      "velocity": 80,
      "startTime": 32.14282500000007,
      "endTime": 32.33681831250007,
      "instrument": 0,
      "program": 30,
      "isDrum": false
    },
    {
      "pitch": 50,
      "velocity": 80,
      "startTime": 32.14282500000007,
      "endTime": 32.33681831250007,
      "instrument": 0,
      "program": 30,
      "isDrum": false
    },
    {
      "pitch": 55,
      "velocity": 80,
      "startTime": 32.14282500000007,
      "endTime": 32.33681831250007,
      "instrument": 0,
      "program": 30,
      "isDrum": false
    },
    {
      "pitch": 50,
      "velocity": 80,
      "startTime": 32.33763000000007,
      "endTime": 32.531623312500066,
      "instrument": 0,
      "program": 30,
      "isDrum": false
    },
    {
      "pitch": 57,
      "velocity": 80,
      "startTime": 32.33763000000007,
      "endTime": 32.531623312500066,
      "instrument": 0,
      "program": 30,
      "isDrum": false
    },
    {
      "pitch": 62,
      "velocity": 80,
      "startTime": 32.33763000000007,
      "endTime": 32.531623312500066,
      "instrument": 0,
      "program": 30,
      "isDrum": false
    },
    {
      "pitch": 45,
      "velocity": 80,
      "startTime": 32.53243500000006,
      "endTime": 32.72642831250006,
      "instrument": 0,
      "program": 30,
      "isDrum": false
    },
    {
      "pitch": 50,
      "velocity": 80,
      "startTime": 32.53243500000006,
      "endTime": 32.72642831250006,
      "instrument": 0,
      "program": 30,
      "isDrum": false
    },
    {
      "pitch": 55,
      "velocity": 80,
      "startTime": 32.53243500000006,
      "endTime": 32.72642831250006,
      "instrument": 0,
      "program": 30,
      "isDrum": false
    },
    {
      "pitch": 48,
      "velocity": 80,
      "startTime": 32.72724000000006,
      "endTime": 32.92123331250006,
      "instrument": 0,
      "program": 30,
      "isDrum": false
    },
    {
      "pitch": 55,
      "velocity": 80,
      "startTime": 32.72724000000006,
      "endTime": 32.92123331250006,
      "instrument": 0,
      "program": 30,
      "isDrum": false
    },
    {
      "pitch": 60,
      "velocity": 80,
      "startTime": 32.72724000000006,
      "endTime": 32.92123331250006,
      "instrument": 0,
      "program": 30,
      "isDrum": false
    },
    {
      "pitch": 41,
      "velocity": 80,
      "startTime": 35.259705000000054,
      "endTime": 35.45369831250005,
      "instrument": 0,
      "program": 30,
      "isDrum": false
    },
    {
      "pitch": 48,
      "velocity": 80,
      "startTime": 35.259705000000054,
      "endTime": 35.45369831250005,
      "instrument": 0,
      "program": 30,
      "isDrum": false
    },
    {
      "pitch": 53,
      "velocity": 80,
      "startTime": 35.259705000000054,
      "endTime": 35.45369831250005,
      "instrument": 0,
      "program": 30,
      "isDrum": false
    },
    {
      "pitch": 41,
      "velocity": 80,
      "startTime": 35.45451000000005,
      "endTime": 35.64850331250005,
      "instrument": 0,
      "program": 30,
      "isDrum": false
    },
    {
      "pitch": 48,
      "velocity": 80,
      "startTime": 35.45451000000005,
      "endTime": 35.64850331250005,
      "instrument": 0,
      "program": 30,
      "isDrum": false
    },
    {
      "pitch": 53,
      "velocity": 80,
      "startTime": 35.45451000000005,
      "endTime": 35.64850331250005,
      "instrument": 0,
      "program": 30,
      "isDrum": false
    },
    {
      "pitch": 41,
      "velocity": 80,
      "startTime": 35.649315000000044,
      "endTime": 35.84330831250004,
      "instrument": 0,
      "program": 30,
      "isDrum": false
    },
    {
      "pitch": 48,
      "velocity": 80,
      "startTime": 35.649315000000044,
      "endTime": 35.84330831250004,
      "instrument": 0,
      "program": 30,
      "isDrum": false
    },
    {
      "pitch": 53,
      "velocity": 80,
      "startTime": 35.649315000000044,
      "endTime": 35.84330831250004,
      "instrument": 0,
      "program": 30,
      "isDrum": false
    },
    {
      "pitch": 43,
      "velocity": 80,
      "startTime": 35.84412000000004,
      "endTime": 36.03811331250004,
      "instrument": 0,
      "program": 30,
      "isDrum": false
    },
    {
      "pitch": 50,
      "velocity": 80,
      "startTime": 35.84412000000004,
      "endTime": 36.03811331250004,
      "instrument": 0,
      "program": 30,
      "isDrum": false
    },
    {
      "pitch": 55,
      "velocity": 80,
      "startTime": 35.84412000000004,
      "endTime": 36.03811331250004,
      "instrument": 0,
      "program": 30,
      "isDrum": false
    },
    {
      "pitch": 41,
      "velocity": 80,
      "startTime": 38.376585000000034,
      "endTime": 38.57057831250003,
      "instrument": 0,
      "program": 30,
      "isDrum": false
    },
    {
      "pitch": 48,
      "velocity": 80,
      "startTime": 38.376585000000034,
      "endTime": 38.57057831250003,
      "instrument": 0,
      "program": 30,
      "isDrum": false
    },
    {
      "pitch": 53,
      "velocity": 80,
      "startTime": 38.376585000000034,
      "endTime": 38.57057831250003,
      "instrument": 0,
      "program": 30,
      "isDrum": false
    },
    {
      "pitch": 41,
      "velocity": 80,
      "startTime": 38.57139000000003,
      "endTime": 38.76538331250003,
      "instrument": 0,
      "program": 30,
      "isDrum": false
    },
    {
      "pitch": 48,
      "velocity": 80,
      "startTime": 38.57139000000003,
      "endTime": 38.76538331250003,
      "instrument": 0,
      "program": 30,
      "isDrum": false
    },
    {
      "pitch": 53,
      "velocity": 80,
      "startTime": 38.57139000000003,
      "endTime": 38.76538331250003,
      "instrument": 0,
      "program": 30,
      "isDrum": false
    },
    {
      "pitch": 41,
      "velocity": 80,
      "startTime": 38.766195000000025,
      "endTime": 38.96018831250002,
      "instrument": 0,
      "program": 30,
      "isDrum": false
    },
    {
      "pitch": 48,
      "velocity": 80,
      "startTime": 38.766195000000025,
      "endTime": 38.96018831250002,
      "instrument": 0,
      "program": 30,
      "isDrum": false
    },
    {
      "pitch": 53,
      "velocity": 80,
      "startTime": 38.766195000000025,
      "endTime": 38.96018831250002,
      "instrument": 0,
      "program": 30,
      "isDrum": false
    },
    {
      "pitch": 43,
      "velocity": 80,
      "startTime": 38.96100000000002,
      "endTime": 39.15499331250002,
      "instrument": 0,
      "program": 30,
      "isDrum": false
    },
    {
      "pitch": 50,
      "velocity": 80,
      "startTime": 38.96100000000002,
      "endTime": 39.15499331250002,
      "instrument": 0,
      "program": 30,
      "isDrum": false
    },
    {
      "pitch": 55,
      "velocity": 80,
      "startTime": 38.96100000000002,
      "endTime": 39.15499331250002,
      "instrument": 0,
      "program": 30,
      "isDrum": false
    },
    {
      "pitch": 41,
      "velocity": 80,
      "startTime": 41.493465000000015,
      "endTime": 41.68745831250001,
      "instrument": 0,
      "program": 30,
      "isDrum": false
    },
    {
      "pitch": 48,
      "velocity": 80,
      "startTime": 41.493465000000015,
      "endTime": 41.68745831250001,
      "instrument": 0,
      "program": 30,
      "isDrum": false
    },
    {
      "pitch": 53,
      "velocity": 80,
      "startTime": 41.493465000000015,
      "endTime": 41.68745831250001,
      "instrument": 0,
      "program": 30,
      "isDrum": false
    },
    {
      "pitch": 41,
      "velocity": 80,
      "startTime": 41.68827000000001,
      "endTime": 41.88226331250001,
      "instrument": 0,
      "program": 30,
      "isDrum": false
    },
    {
      "pitch": 48,
      "velocity": 80,
      "startTime": 41.68827000000001,
      "endTime": 41.88226331250001,
      "instrument": 0,
      "program": 30,
      "isDrum": false
    },
    {
      "pitch": 53,
      "velocity": 80,
      "startTime": 41.68827000000001,
      "endTime": 41.88226331250001,
      "instrument": 0,
      "program": 30,
      "isDrum": false
    },
    {
      "pitch": 41,
      "velocity": 80,
      "startTime": 41.883075000000005,
      "endTime": 42.0770683125,
      "instrument": 0,
      "program": 30,
      "isDrum": false
    },
    {
      "pitch": 48,
      "velocity": 80,
      "startTime": 41.883075000000005,
      "endTime": 42.0770683125,
      "instrument": 0,
      "program": 30,
      "isDrum": false
    },
    {
      "pitch": 53,
      "velocity": 80,
      "startTime": 41.883075000000005,
      "endTime": 42.0770683125,
      "instrument": 0,
      "program": 30,
      "isDrum": false
    },
    {
      "pitch": 43,
      "velocity": 80,
      "startTime": 42.07788,
      "endTime": 42.2718733125,
      "instrument": 0,
      "program": 30,
      "isDrum": false
    },
    {
      "pitch": 50,
      "velocity": 80,
      "startTime": 42.07788,
      "endTime": 42.2718733125,
      "instrument": 0,
      "program": 30,
      "isDrum": false
    },
    {
      "pitch": 55,
      "velocity": 80,
      "startTime": 42.07788,
      "endTime": 42.2718733125,
      "instrument": 0,
      "program": 30,
      "isDrum": false
    },
    {
      "pitch": 41,
      "velocity": 80,
      "startTime": 44.610344999999995,
      "endTime": 44.80433831249999,
      "instrument": 0,
      "program": 30,
      "isDrum": false
    },
    {
      "pitch": 48,
      "velocity": 80,
      "startTime": 44.610344999999995,
      "endTime": 44.80433831249999,
      "instrument": 0,
      "program": 30,
      "isDrum": false
    },
    {
      "pitch": 53,
      "velocity": 80,
      "startTime": 44.610344999999995,
      "endTime": 44.80433831249999,
      "instrument": 0,
      "program": 30,
      "isDrum": false
    },
    {
      "pitch": 41,
      "velocity": 80,
      "startTime": 44.80514999999999,
      "endTime": 44.99914331249999,
      "instrument": 0,
      "program": 30,
      "isDrum": false
    },
    {
      "pitch": 48,
      "velocity": 80,
      "startTime": 44.80514999999999,
      "endTime": 44.99914331249999,
      "instrument": 0,
      "program": 30,
      "isDrum": false
    },
    {
      "pitch": 53,
      "velocity": 80,
      "startTime": 44.80514999999999,
      "endTime": 44.99914331249999,
      "instrument": 0,
      "program": 30,
      "isDrum": false
    },
    {
      "pitch": 41,
      "velocity": 80,
      "startTime": 44.999954999999986,
      "endTime": 45.193948312499984,
      "instrument": 0,
      "program": 30,
      "isDrum": false
    },
    {
      "pitch": 48,
      "velocity": 80,
      "startTime": 44.999954999999986,
      "endTime": 45.193948312499984,
      "instrument": 0,
      "program": 30,
      "isDrum": false
    },
    {
      "pitch": 53,
      "velocity": 80,
      "startTime": 44.999954999999986,
      "endTime": 45.193948312499984,
      "instrument": 0,
      "program": 30,
      "isDrum": false
    },
    {
      "pitch": 43,
      "velocity": 80,
      "startTime": 45.19475999999998,
      "endTime": 45.38875331249998,
      "instrument": 0,
      "program": 30,
      "isDrum": false
    },
    {
      "pitch": 50,
      "velocity": 80,
      "startTime": 45.19475999999998,
      "endTime": 45.38875331249998,
      "instrument": 0,
      "program": 30,
      "isDrum": false
    },
    {
      "pitch": 55,
      "velocity": 80,
      "startTime": 45.19475999999998,
      "endTime": 45.38875331249998,
      "instrument": 0,
      "program": 30,
      "isDrum": false
    },
    {
      "pitch": 43,
      "velocity": 80,
      "startTime": 45.389564999999976,
      "endTime": 45.583558312499974,
      "instrument": 0,
      "program": 30,
      "isDrum": false
    },
    {
      "pitch": 50,
      "velocity": 80,
      "startTime": 45.389564999999976,
      "endTime": 45.583558312499974,
      "instrument": 0,
      "program": 30,
      "isDrum": false
    },
    {
      "pitch": 55,
      "velocity": 80,
      "startTime": 45.389564999999976,
      "endTime": 45.583558312499974,
      "instrument": 0,
      "program": 30,
      "isDrum": false
    },
    {
      "pitch": 43,
      "velocity": 80,
      "startTime": 45.58436999999997,
      "endTime": 45.77836331249997,
      "instrument": 0,
      "program": 30,
      "isDrum": false
    },
    {
      "pitch": 50,
      "velocity": 80,
      "startTime": 45.58436999999997,
      "endTime": 45.77836331249997,
      "instrument": 0,
      "program": 30,
      "isDrum": false
    },
    {
      "pitch": 55,
      "velocity": 80,
      "startTime": 45.58436999999997,
      "endTime": 45.77836331249997,
      "instrument": 0,
      "program": 30,
      "isDrum": false
    },
    {
      "pitch": 43,
      "velocity": 80,
      "startTime": 45.77917499999997,
      "endTime": 45.973168312499965,
      "instrument": 0,
      "program": 30,
      "isDrum": false
    },
    {
      "pitch": 50,
      "velocity": 80,
      "startTime": 45.77917499999997,
      "endTime": 45.973168312499965,
      "instrument": 0,
      "program": 30,
      "isDrum": false
    },
    {
      "pitch": 55,
      "velocity": 80,
      "startTime": 45.77917499999997,
      "endTime": 45.973168312499965,
      "instrument": 0,
      "program": 30,
      "isDrum": false
    },
    {
      "pitch": 41,
      "velocity": 80,
      "startTime": 46.753199999999964,
      "endTime": 46.94719331249996,
      "instrument": 0,
      "program": 30,
      "isDrum": false
    },
    {
      "pitch": 48,
      "velocity": 80,
      "startTime": 46.753199999999964,
      "endTime": 46.94719331249996,
      "instrument": 0,
      "program": 30,
      "isDrum": false
    },
    {
      "pitch": 53,
      "velocity": 80,
      "startTime": 46.753199999999964,
      "endTime": 46.94719331249996,
      "instrument": 0,
      "program": 30,
      "isDrum": false
    },
    {
      "pitch": 41,
      "velocity": 80,
      "startTime": 46.94800499999996,
      "endTime": 47.14199831249996,
      "instrument": 0,
      "program": 30,
      "isDrum": false
    },
    {
      "pitch": 48,
      "velocity": 80,
      "startTime": 46.94800499999996,
      "endTime": 47.14199831249996,
      "instrument": 0,
      "program": 30,
      "isDrum": false
    },
    {
      "pitch": 53,
      "velocity": 80,
      "startTime": 46.94800499999996,
      "endTime": 47.14199831249996,
      "instrument": 0,
      "program": 30,
      "isDrum": false
    },
    {
      "pitch": 41,
      "velocity": 80,
      "startTime": 47.142809999999955,
      "endTime": 47.33680331249995,
      "instrument": 0,
      "program": 30,
      "isDrum": false
    },
    {
      "pitch": 48,
      "velocity": 80,
      "startTime": 47.142809999999955,
      "endTime": 47.33680331249995,
      "instrument": 0,
      "program": 30,
      "isDrum": false
    },
    {
      "pitch": 53,
      "velocity": 80,
      "startTime": 47.142809999999955,
      "endTime": 47.33680331249995,
      "instrument": 0,
      "program": 30,
      "isDrum": false
    },
    {
      "pitch": 41,
      "velocity": 80,
      "startTime": 47.33761499999995,
      "endTime": 47.53160831249995,
      "instrument": 0,
      "program": 30,
      "isDrum": false
    },
    {
      "pitch": 48,
      "velocity": 80,
      "startTime": 47.33761499999995,
      "endTime": 47.53160831249995,
      "instrument": 0,
      "program": 30,
      "isDrum": false
    },
    {
      "pitch": 53,
      "velocity": 80,
      "startTime": 47.33761499999995,
      "endTime": 47.53160831249995,
      "instrument": 0,
      "program": 30,
      "isDrum": false
    },
    {
      "pitch": 43,
      "velocity": 80,
      "startTime": 48.31163999999995,
      "endTime": 48.505633312499945,
      "instrument": 0,
      "program": 30,
      "isDrum": false
    },
    {
      "pitch": 50,
      "velocity": 80,
      "startTime": 48.31163999999995,
      "endTime": 48.505633312499945,
      "instrument": 0,
      "program": 30,
      "isDrum": false
    },
    {
      "pitch": 55,
      "velocity": 80,
      "startTime": 48.31163999999995,
      "endTime": 48.505633312499945,
      "instrument": 0,
      "program": 30,
      "isDrum": false
    },
    {
      "pitch": 43,
      "velocity": 80,
      "startTime": 48.50644499999994,
      "endTime": 48.70043831249994,
      "instrument": 0,
      "program": 30,
      "isDrum": false
    },
    {
      "pitch": 50,
      "velocity": 80,
      "startTime": 48.50644499999994,
      "endTime": 48.70043831249994,
      "instrument": 0,
      "program": 30,
      "isDrum": false
    },
    {
      "pitch": 55,
      "velocity": 80,
      "startTime": 48.50644499999994,
      "endTime": 48.70043831249994,
      "instrument": 0,
      "program": 30,
      "isDrum": false
    },
    {
      "pitch": 43,
      "velocity": 80,
      "startTime": 48.70124999999994,
      "endTime": 48.895243312499936,
      "instrument": 0,
      "program": 30,
      "isDrum": false
    },
    {
      "pitch": 50,
      "velocity": 80,
      "startTime": 48.70124999999994,
      "endTime": 48.895243312499936,
      "instrument": 0,
      "program": 30,
      "isDrum": false
    },
    {
      "pitch": 55,
      "velocity": 80,
      "startTime": 48.70124999999994,
      "endTime": 48.895243312499936,
      "instrument": 0,
      "program": 30,
      "isDrum": false
    },
    {
      "pitch": 43,
      "velocity": 80,
      "startTime": 48.89605499999993,
      "endTime": 49.09004831249993,
      "instrument": 0,
      "program": 30,
      "isDrum": false
    },
    {
      "pitch": 50,
      "velocity": 80,
      "startTime": 48.89605499999993,
      "endTime": 49.09004831249993,
      "instrument": 0,
      "program": 30,
      "isDrum": false
    },
    {
      "pitch": 55,
      "velocity": 80,
      "startTime": 48.89605499999993,
      "endTime": 49.09004831249993,
      "instrument": 0,
      "program": 30,
      "isDrum": false
    },
    {
      "pitch": 46,
      "velocity": 80,
      "startTime": 49.87007999999993,
      "endTime": 50.06407331249993,
      "instrument": 0,
      "program": 30,
      "isDrum": false
    },
    {
      "pitch": 53,
      "velocity": 80,
      "startTime": 49.87007999999993,
      "endTime": 50.06407331249993,
      "instrument": 0,
      "program": 30,
      "isDrum": false
    },
    {
      "pitch": 58,
      "velocity": 80,
      "startTime": 49.87007999999993,
      "endTime": 50.06407331249993,
      "instrument": 0,
      "program": 30,
      "isDrum": false
    },
    {
      "pitch": 46,
      "velocity": 80,
      "startTime": 50.064884999999926,
      "endTime": 50.258878312499924,
      "instrument": 0,
      "program": 30,
      "isDrum": false
    },
    {
      "pitch": 53,
      "velocity": 80,
      "startTime": 50.064884999999926,
      "endTime": 50.258878312499924,
      "instrument": 0,
      "program": 30,
      "isDrum": false
    },
    {
      "pitch": 58,
      "velocity": 80,
      "startTime": 50.064884999999926,
      "endTime": 50.258878312499924,
      "instrument": 0,
      "program": 30,
      "isDrum": false
    },
    {
      "pitch": 46,
      "velocity": 80,
      "startTime": 50.25968999999992,
      "endTime": 50.45368331249992,
      "instrument": 0,
      "program": 30,
      "isDrum": false
    },
    {
      "pitch": 53,
      "velocity": 80,
      "startTime": 50.25968999999992,
      "endTime": 50.45368331249992,
      "instrument": 0,
      "program": 30,
      "isDrum": false
    },
    {
      "pitch": 58,
      "velocity": 80,
      "startTime": 50.25968999999992,
      "endTime": 50.45368331249992,
      "instrument": 0,
      "program": 30,
      "isDrum": false
    },
    {
      "pitch": 46,
      "velocity": 80,
      "startTime": 50.454494999999916,
      "endTime": 50.648488312499914,
      "instrument": 0,
      "program": 30,
      "isDrum": false
    },
    {
      "pitch": 53,
      "velocity": 80,
      "startTime": 50.454494999999916,
      "endTime": 50.648488312499914,
      "instrument": 0,
      "program": 30,
      "isDrum": false
    },
    {
      "pitch": 58,
      "velocity": 80,
      "startTime": 50.454494999999916,
      "endTime": 50.648488312499914,
      "instrument": 0,
      "program": 30,
      "isDrum": false
    },
    {
      "pitch": 48,
      "velocity": 80,
      "startTime": 51.428519999999914,
      "endTime": 51.62251331249991,
      "instrument": 0,
      "program": 30,
      "isDrum": false
    },
    {
      "pitch": 55,
      "velocity": 80,
      "startTime": 51.428519999999914,
      "endTime": 51.62251331249991,
      "instrument": 0,
      "program": 30,
      "isDrum": false
    },
    {
      "pitch": 60,
      "velocity": 80,
      "startTime": 51.428519999999914,
      "endTime": 51.62251331249991,
      "instrument": 0,
      "program": 30,
      "isDrum": false
    },
    {
      "pitch": 48,
      "velocity": 80,
      "startTime": 51.62332499999991,
      "endTime": 51.81731831249991,
      "instrument": 0,
      "program": 30,
      "isDrum": false
    },
    {
      "pitch": 55,
      "velocity": 80,
      "startTime": 51.62332499999991,
      "endTime": 51.81731831249991,
      "instrument": 0,
      "program": 30,
      "isDrum": false
    },
    {
      "pitch": 60,
      "velocity": 80,
      "startTime": 51.62332499999991,
      "endTime": 51.81731831249991,
      "instrument": 0,
      "program": 30,
      "isDrum": false
    },
    {
      "pitch": 48,
      "velocity": 80,
      "startTime": 51.818129999999904,
      "endTime": 52.0121233124999,
      "instrument": 0,
      "program": 30,
      "isDrum": false
    },
    {
      "pitch": 55,
      "velocity": 80,
      "startTime": 51.818129999999904,
      "endTime": 52.0121233124999,
      "instrument": 0,
      "program": 30,
      "isDrum": false
    },
    {
      "pitch": 60,
      "velocity": 80,
      "startTime": 51.818129999999904,
      "endTime": 52.0121233124999,
      "instrument": 0,
      "program": 30,
      "isDrum": false
    },
    {
      "pitch": 48,
      "velocity": 80,
      "startTime": 52.0129349999999,
      "endTime": 52.2069283124999,
      "instrument": 0,
      "program": 30,
      "isDrum": false
    },
    {
      "pitch": 55,
      "velocity": 80,
      "startTime": 52.0129349999999,
      "endTime": 52.2069283124999,
      "instrument": 0,
      "program": 30,
      "isDrum": false
    },
    {
      "pitch": 60,
      "velocity": 80,
      "startTime": 52.0129349999999,
      "endTime": 52.2069283124999,
      "instrument": 0,
      "program": 30,
      "isDrum": false
    },
    {
      "pitch": 50,
      "velocity": 80,
      "startTime": 52.9869599999999,
      "endTime": 53.180953312499895,
      "instrument": 0,
      "program": 30,
      "isDrum": false
    },
    {
      "pitch": 57,
      "velocity": 80,
      "startTime": 52.9869599999999,
      "endTime": 53.180953312499895,
      "instrument": 0,
      "program": 30,
      "isDrum": false
    },
    {
      "pitch": 62,
      "velocity": 80,
      "startTime": 52.9869599999999,
      "endTime": 53.180953312499895,
      "instrument": 0,
      "program": 30,
      "isDrum": false
    },
    {
      "pitch": 50,
      "velocity": 80,
      "startTime": 53.18176499999989,
      "endTime": 53.37575831249989,
      "instrument": 0,
      "program": 30,
      "isDrum": false
    },
    {
      "pitch": 57,
      "velocity": 80,
      "startTime": 53.18176499999989,
      "endTime": 53.37575831249989,
      "instrument": 0,
      "program": 30,
      "isDrum": false
    },
    {
      "pitch": 62,
      "velocity": 80,
      "startTime": 53.18176499999989,
      "endTime": 53.37575831249989,
      "instrument": 0,
      "program": 30,
      "isDrum": false
    },
    {
      "pitch": 50,
      "velocity": 80,
      "startTime": 53.37656999999989,
      "endTime": 53.570563312499885,
      "instrument": 0,
      "program": 30,
      "isDrum": false
    },
    {
      "pitch": 57,
      "velocity": 80,
      "startTime": 53.37656999999989,
      "endTime": 53.570563312499885,
      "instrument": 0,
      "program": 30,
      "isDrum": false
    },
    {
      "pitch": 62,
      "velocity": 80,
      "startTime": 53.37656999999989,
      "endTime": 53.570563312499885,
      "instrument": 0,
      "program": 30,
      "isDrum": false
    },
    {
      "pitch": 50,
      "velocity": 80,
      "startTime": 53.57137499999988,
      "endTime": 53.76536831249988,
      "instrument": 0,
      "program": 30,
      "isDrum": false
    },
    {
      "pitch": 57,
      "velocity": 80,
      "startTime": 53.57137499999988,
      "endTime": 53.76536831249988,
      "instrument": 0,
      "program": 30,
      "isDrum": false
    },
    {
      "pitch": 62,
      "velocity": 80,
      "startTime": 53.57137499999988,
      "endTime": 53.76536831249988,
      "instrument": 0,
      "program": 30,
      "isDrum": false
    },
    {
      "pitch": 50,
      "velocity": 80,
      "startTime": 53.76617999999988,
      "endTime": 53.960173312499876,
      "instrument": 0,
      "program": 30,
      "isDrum": false
    },
    {
      "pitch": 57,
      "velocity": 80,
      "startTime": 53.76617999999988,
      "endTime": 53.960173312499876,
      "instrument": 0,
      "program": 30,
      "isDrum": false
    },
    {
      "pitch": 62,
      "velocity": 80,
      "startTime": 53.76617999999988,
      "endTime": 53.960173312499876,
      "instrument": 0,
      "program": 30,
      "isDrum": false
    },
    {
      "pitch": 45,
      "velocity": 80,
      "startTime": 53.96098499999987,
      "endTime": 54.15497831249987,
      "instrument": 0,
      "program": 30,
      "isDrum": false
    },
    {
      "pitch": 50,
      "velocity": 80,
      "startTime": 53.96098499999987,
      "endTime": 54.15497831249987,
      "instrument": 0,
      "program": 30,
      "isDrum": false
    },
    {
      "pitch": 55,
      "velocity": 80,
      "startTime": 53.96098499999987,
      "endTime": 54.15497831249987,
      "instrument": 0,
      "program": 30,
      "isDrum": false
    },
    {
      "pitch": 50,
      "velocity": 80,
      "startTime": 54.15578999999987,
      "endTime": 54.349783312499866,
      "instrument": 0,
      "program": 30,
      "isDrum": false
    },
    {
      "pitch": 57,
      "velocity": 80,
      "startTime": 54.15578999999987,
      "endTime": 54.349783312499866,
      "instrument": 0,
      "program": 30,
      "isDrum": false
    },
    {
      "pitch": 62,
      "velocity": 80,
      "startTime": 54.15578999999987,
      "endTime": 54.349783312499866,
      "instrument": 0,
      "program": 30,
      "isDrum": false
    },
    {
      "pitch": 45,
      "velocity": 80,
      "startTime": 54.35059499999986,
      "endTime": 54.54458831249986,
      "instrument": 0,
      "program": 30,
      "isDrum": false
    },
    {
      "pitch": 50,
      "velocity": 80,
      "startTime": 54.35059499999986,
      "endTime": 54.54458831249986,
      "instrument": 0,
      "program": 30,
      "isDrum": false
    },
    {
      "pitch": 55,
      "velocity": 80,
      "startTime": 54.35059499999986,
      "endTime": 54.54458831249986,
      "instrument": 0,
      "program": 30,
      "isDrum": false
    },
    {
      "pitch": 48,
      "velocity": 80,
      "startTime": 54.54539999999986,
      "endTime": 54.73939331249986,
      "instrument": 0,
      "program": 30,
      "isDrum": false
    },
    {
      "pitch": 55,
      "velocity": 80,
      "startTime": 54.54539999999986,
      "endTime": 54.73939331249986,
      "instrument": 0,
      "program": 30,
      "isDrum": false
    },
    {
      "pitch": 60,
      "velocity": 80,
      "startTime": 54.54539999999986,
      "endTime": 54.73939331249986,
      "instrument": 0,
      "program": 30,
      "isDrum": false
    },
    {
      "pitch": 43,
      "velocity": 80,
      "startTime": 56.103839999999856,
      "endTime": 56.297833312499854,
      "instrument": 0,
      "program": 30,
      "isDrum": false
    },
    {
      "pitch": 50,
      "velocity": 80,
      "startTime": 56.103839999999856,
      "endTime": 56.297833312499854,
      "instrument": 0,
      "program": 30,
      "isDrum": false
    },
    {
      "pitch": 55,
      "velocity": 80,
      "startTime": 56.103839999999856,
      "endTime": 56.297833312499854,
      "instrument": 0,
      "program": 30,
      "isDrum": false
    },
    {
      "pitch": 43,
      "velocity": 80,
      "startTime": 56.29864499999985,
      "endTime": 56.49263831249985,
      "instrument": 0,
      "program": 30,
      "isDrum": false
    },
    {
      "pitch": 50,
      "velocity": 80,
      "startTime": 56.29864499999985,
      "endTime": 56.49263831249985,
      "instrument": 0,
      "program": 30,
      "isDrum": false
    },
    {
      "pitch": 55,
      "velocity": 80,
      "startTime": 56.29864499999985,
      "endTime": 56.49263831249985,
      "instrument": 0,
      "program": 30,
      "isDrum": false
    },
    {
      "pitch": 43,
      "velocity": 80,
      "startTime": 56.49344999999985,
      "endTime": 56.687443312499845,
      "instrument": 0,
      "program": 30,
      "isDrum": false
    },
    {
      "pitch": 50,
      "velocity": 80,
      "startTime": 56.49344999999985,
      "endTime": 56.687443312499845,
      "instrument": 0,
      "program": 30,
      "isDrum": false
    },
    {
      "pitch": 55,
      "velocity": 80,
      "startTime": 56.49344999999985,
      "endTime": 56.687443312499845,
      "instrument": 0,
      "program": 30,
      "isDrum": false
    },
    {
      "pitch": 43,
      "velocity": 80,
      "startTime": 56.68825499999984,
      "endTime": 56.88224831249984,
      "instrument": 0,
      "program": 30,
      "isDrum": false
    },
    {
      "pitch": 50,
      "velocity": 80,
      "startTime": 56.68825499999984,
      "endTime": 56.88224831249984,
      "instrument": 0,
      "program": 30,
      "isDrum": false
    },
    {
      "pitch": 55,
      "velocity": 80,
      "startTime": 56.68825499999984,
      "endTime": 56.88224831249984,
      "instrument": 0,
      "program": 30,
      "isDrum": false
    },
    {
      "pitch": 46,
      "velocity": 80,
      "startTime": 57.07786499999984,
      "endTime": 57.27185831249984,
      "instrument": 0,
      "program": 30,
      "isDrum": false
    },
    {
      "pitch": 53,
      "velocity": 80,
      "startTime": 57.07786499999984,
      "endTime": 57.27185831249984,
      "instrument": 0,
      "program": 30,
      "isDrum": false
    },
    {
      "pitch": 58,
      "velocity": 80,
      "startTime": 57.07786499999984,
      "endTime": 57.27185831249984,
      "instrument": 0,
      "program": 30,
      "isDrum": false
    },
    {
      "pitch": 46,
      "velocity": 80,
      "startTime": 57.272669999999835,
      "endTime": 57.46666331249983,
      "instrument": 0,
      "program": 30,
      "isDrum": false
    },
    {
      "pitch": 53,
      "velocity": 80,
      "startTime": 57.272669999999835,
      "endTime": 57.46666331249983,
      "instrument": 0,
      "program": 30,
      "isDrum": false
    },
    {
      "pitch": 58,
      "velocity": 80,
      "startTime": 57.272669999999835,
      "endTime": 57.46666331249983,
      "instrument": 0,
      "program": 30,
      "isDrum": false
    },
    {
      "pitch": 51,
      "velocity": 80,
      "startTime": 57.66227999999983,
      "endTime": 57.85627331249983,
      "instrument": 0,
      "program": 30,
      "isDrum": false
    },
    {
      "pitch": 58,
      "velocity": 80,
      "startTime": 57.66227999999983,
      "endTime": 57.85627331249983,
      "instrument": 0,
      "program": 30,
      "isDrum": false
    },
    {
      "pitch": 63,
      "velocity": 80,
      "startTime": 57.66227999999983,
      "endTime": 57.85627331249983,
      "instrument": 0,
      "program": 30,
      "isDrum": false
    },
    {
      "pitch": 51,
      "velocity": 80,
      "startTime": 57.85708499999983,
      "endTime": 58.051078312499826,
      "instrument": 0,
      "program": 30,
      "isDrum": false
    },
    {
      "pitch": 58,
      "velocity": 80,
      "startTime": 57.85708499999983,
      "endTime": 58.051078312499826,
      "instrument": 0,
      "program": 30,
      "isDrum": false
    },
    {
      "pitch": 63,
      "velocity": 80,
      "startTime": 57.85708499999983,
      "endTime": 58.051078312499826,
      "instrument": 0,
      "program": 30,
      "isDrum": false
    },
    {
      "pitch": 51,
      "velocity": 80,
      "startTime": 58.05188999999982,
      "endTime": 58.24588331249982,
      "instrument": 0,
      "program": 30,
      "isDrum": false
    },
    {
      "pitch": 58,
      "velocity": 80,
      "startTime": 58.05188999999982,
      "endTime": 58.24588331249982,
      "instrument": 0,
      "program": 30,
      "isDrum": false
    },
    {
      "pitch": 63,
      "velocity": 80,
      "startTime": 58.05188999999982,
      "endTime": 58.24588331249982,
      "instrument": 0,
      "program": 30,
      "isDrum": false
    },
    {
      "pitch": 51,
      "velocity": 80,
      "startTime": 58.24669499999982,
      "endTime": 58.440688312499816,
      "instrument": 0,
      "program": 30,
      "isDrum": false
    },
    {
      "pitch": 58,
      "velocity": 80,
      "startTime": 58.24669499999982,
      "endTime": 58.440688312499816,
      "instrument": 0,
      "program": 30,
      "isDrum": false
    },
    {
      "pitch": 63,
      "velocity": 80,
      "startTime": 58.24669499999982,
      "endTime": 58.440688312499816,
      "instrument": 0,
      "program": 30,
      "isDrum": false
    },
    {
      "pitch": 48,
      "velocity": 80,
      "startTime": 58.636304999999815,
      "endTime": 58.830298312499814,
      "instrument": 0,
      "program": 30,
      "isDrum": false
    },
    {
      "pitch": 55,
      "velocity": 80,
      "startTime": 58.636304999999815,
      "endTime": 58.830298312499814,
      "instrument": 0,
      "program": 30,
      "isDrum": false
    },
    {
      "pitch": 60,
      "velocity": 80,
      "startTime": 58.636304999999815,
      "endTime": 58.830298312499814,
      "instrument": 0,
      "program": 30,
      "isDrum": false
    },
    {
      "pitch": 48,
      "velocity": 80,
      "startTime": 58.83110999999981,
      "endTime": 59.02510331249981,
      "instrument": 0,
      "program": 30,
      "isDrum": false
    },
    {
      "pitch": 55,
      "velocity": 80,
      "startTime": 58.83110999999981,
      "endTime": 59.02510331249981,
      "instrument": 0,
      "program": 30,
      "isDrum": false
    },
    {
      "pitch": 60,
      "velocity": 80,
      "startTime": 58.83110999999981,
      "endTime": 59.02510331249981,
      "instrument": 0,
      "program": 30,
      "isDrum": false
    },
    {
      "pitch": 43,
      "velocity": 80,
      "startTime": 59.22071999999981,
      "endTime": 59.414713312499806,
      "instrument": 0,
      "program": 30,
      "isDrum": false
    },
    {
      "pitch": 50,
      "velocity": 80,
      "startTime": 59.22071999999981,
      "endTime": 59.414713312499806,
      "instrument": 0,
      "program": 30,
      "isDrum": false
    },
    {
      "pitch": 55,
      "velocity": 80,
      "startTime": 59.22071999999981,
      "endTime": 59.414713312499806,
      "instrument": 0,
      "program": 30,
      "isDrum": false
    },
    {
      "pitch": 43,
      "velocity": 80,
      "startTime": 59.4155249999998,
      "endTime": 59.6095183124998,
      "instrument": 0,
      "program": 30,
      "isDrum": false
    },
    {
      "pitch": 50,
      "velocity": 80,
      "startTime": 59.4155249999998,
      "endTime": 59.6095183124998,
      "instrument": 0,
      "program": 30,
      "isDrum": false
    },
    {
      "pitch": 55,
      "velocity": 80,
      "startTime": 59.4155249999998,
      "endTime": 59.6095183124998,
      "instrument": 0,
      "program": 30,
      "isDrum": false
    },
    {
      "pitch": 43,
      "velocity": 80,
      "startTime": 59.6103299999998,
      "endTime": 59.8043233124998,
      "instrument": 0,
      "program": 30,
      "isDrum": false
    },
    {
      "pitch": 50,
      "velocity": 80,
      "startTime": 59.6103299999998,
      "endTime": 59.8043233124998,
      "instrument": 0,
      "program": 30,
      "isDrum": false
    },
    {
      "pitch": 55,
      "velocity": 80,
      "startTime": 59.6103299999998,
      "endTime": 59.8043233124998,
      "instrument": 0,
      "program": 30,
      "isDrum": false
    },
    {
      "pitch": 43,
      "velocity": 80,
      "startTime": 59.805134999999794,
      "endTime": 59.99912831249979,
      "instrument": 0,
      "program": 30,
      "isDrum": false
    },
    {
      "pitch": 50,
      "velocity": 80,
      "startTime": 59.805134999999794,
      "endTime": 59.99912831249979,
      "instrument": 0,
      "program": 30,
      "isDrum": false
    },
    {
      "pitch": 55,
      "velocity": 80,
      "startTime": 59.805134999999794,
      "endTime": 59.99912831249979,
      "instrument": 0,
      "program": 30,
      "isDrum": false
    },
    {
      "pitch": 46,
      "velocity": 80,
      "startTime": 60.19474499999979,
      "endTime": 60.38873831249979,
      "instrument": 0,
      "program": 30,
      "isDrum": false
    },
    {
      "pitch": 53,
      "velocity": 80,
      "startTime": 60.19474499999979,
      "endTime": 60.38873831249979,
      "instrument": 0,
      "program": 30,
      "isDrum": false
    },
    {
      "pitch": 58,
      "velocity": 80,
      "startTime": 60.19474499999979,
      "endTime": 60.38873831249979,
      "instrument": 0,
      "program": 30,
      "isDrum": false
    },
    {
      "pitch": 46,
      "velocity": 80,
      "startTime": 60.38954999999979,
      "endTime": 60.583543312499785,
      "instrument": 0,
      "program": 30,
      "isDrum": false
    },
    {
      "pitch": 53,
      "velocity": 80,
      "startTime": 60.38954999999979,
      "endTime": 60.583543312499785,
      "instrument": 0,
      "program": 30,
      "isDrum": false
    },
    {
      "pitch": 58,
      "velocity": 80,
      "startTime": 60.38954999999979,
      "endTime": 60.583543312499785,
      "instrument": 0,
      "program": 30,
      "isDrum": false
    },
    {
      "pitch": 51,
      "velocity": 80,
      "startTime": 60.779159999999784,
      "endTime": 60.97315331249978,
      "instrument": 0,
      "program": 30,
      "isDrum": false
    },
    {
      "pitch": 58,
      "velocity": 80,
      "startTime": 60.779159999999784,
      "endTime": 60.97315331249978,
      "instrument": 0,
      "program": 30,
      "isDrum": false
    },
    {
      "pitch": 63,
      "velocity": 80,
      "startTime": 60.779159999999784,
      "endTime": 60.97315331249978,
      "instrument": 0,
      "program": 30,
      "isDrum": false
    },
    {
      "pitch": 51,
      "velocity": 80,
      "startTime": 60.97396499999978,
      "endTime": 61.16795831249978,
      "instrument": 0,
      "program": 30,
      "isDrum": false
    },
    {
      "pitch": 58,
      "velocity": 80,
      "startTime": 60.97396499999978,
      "endTime": 61.16795831249978,
      "instrument": 0,
      "program": 30,
      "isDrum": false
    },
    {
      "pitch": 63,
      "velocity": 80,
      "startTime": 60.97396499999978,
      "endTime": 61.16795831249978,
      "instrument": 0,
      "program": 30,
      "isDrum": false
    },
    {
      "pitch": 51,
      "velocity": 80,
      "startTime": 61.168769999999775,
      "endTime": 61.36276331249977,
      "instrument": 0,
      "program": 30,
      "isDrum": false
    },
    {
      "pitch": 58,
      "velocity": 80,
      "startTime": 61.168769999999775,
      "endTime": 61.36276331249977,
      "instrument": 0,
      "program": 30,
      "isDrum": false
    },
    {
      "pitch": 63,
      "velocity": 80,
      "startTime": 61.168769999999775,
      "endTime": 61.36276331249977,
      "instrument": 0,
      "program": 30,
      "isDrum": false
    },
    {
      "pitch": 51,
      "velocity": 80,
      "startTime": 61.36357499999977,
      "endTime": 61.55756831249977,
      "instrument": 0,
      "program": 30,
      "isDrum": false
    },
    {
      "pitch": 58,
      "velocity": 80,
      "startTime": 61.36357499999977,
      "endTime": 61.55756831249977,
      "instrument": 0,
      "program": 30,
      "isDrum": false
    },
    {
      "pitch": 63,
      "velocity": 80,
      "startTime": 61.36357499999977,
      "endTime": 61.55756831249977,
      "instrument": 0,
      "program": 30,
      "isDrum": false
    },
    {
      "pitch": 48,
      "velocity": 80,
      "startTime": 61.75318499999977,
      "endTime": 61.947178312499766,
      "instrument": 0,
      "program": 30,
      "isDrum": false
    },
    {
      "pitch": 55,
      "velocity": 80,
      "startTime": 61.75318499999977,
      "endTime": 61.947178312499766,
      "instrument": 0,
      "program": 30,
      "isDrum": false
    },
    {
      "pitch": 60,
      "velocity": 80,
      "startTime": 61.75318499999977,
      "endTime": 61.947178312499766,
      "instrument": 0,
      "program": 30,
      "isDrum": false
    },
    {
      "pitch": 48,
      "velocity": 80,
      "startTime": 61.94798999999976,
      "endTime": 62.14198331249976,
      "instrument": 0,
      "program": 30,
      "isDrum": false
    },
    {
      "pitch": 55,
      "velocity": 80,
      "startTime": 61.94798999999976,
      "endTime": 62.14198331249976,
      "instrument": 0,
      "program": 30,
      "isDrum": false
    },
    {
      "pitch": 60,
      "velocity": 80,
      "startTime": 61.94798999999976,
      "endTime": 62.14198331249976,
      "instrument": 0,
      "program": 30,
      "isDrum": false
    },
    {
      "pitch": 43,
      "velocity": 80,
      "startTime": 62.33759999999976,
      "endTime": 62.53159331249976,
      "instrument": 0,
      "program": 30,
      "isDrum": false
    },
    {
      "pitch": 50,
      "velocity": 80,
      "startTime": 62.33759999999976,
      "endTime": 62.53159331249976,
      "instrument": 0,
      "program": 30,
      "isDrum": false
    },
    {
      "pitch": 55,
      "velocity": 80,
      "startTime": 62.33759999999976,
      "endTime": 62.53159331249976,
      "instrument": 0,
      "program": 30,
      "isDrum": false
    },
    {
      "pitch": 43,
      "velocity": 80,
      "startTime": 62.532404999999756,
      "endTime": 62.726398312499754,
      "instrument": 0,
      "program": 30,
      "isDrum": false
    },
    {
      "pitch": 50,
      "velocity": 80,
      "startTime": 62.532404999999756,
      "endTime": 62.726398312499754,
      "instrument": 0,
      "program": 30,
      "isDrum": false
    },
    {
      "pitch": 55,
      "velocity": 80,
      "startTime": 62.532404999999756,
      "endTime": 62.726398312499754,
      "instrument": 0,
      "program": 30,
      "isDrum": false
    },
    {
      "pitch": 43,
      "velocity": 80,
      "startTime": 62.72720999999975,
      "endTime": 62.92120331249975,
      "instrument": 0,
      "program": 30,
      "isDrum": false
    },
    {
      "pitch": 50,
      "velocity": 80,
      "startTime": 62.72720999999975,
      "endTime": 62.92120331249975,
      "instrument": 0,
      "program": 30,
      "isDrum": false
    },
    {
      "pitch": 55,
      "velocity": 80,
      "startTime": 62.72720999999975,
      "endTime": 62.92120331249975,
      "instrument": 0,
      "program": 30,
      "isDrum": false
    },
    {
      "pitch": 43,
      "velocity": 80,
      "startTime": 62.922014999999746,
      "endTime": 63.116008312499744,
      "instrument": 0,
      "program": 30,
      "isDrum": false
    },
    {
      "pitch": 50,
      "velocity": 80,
      "startTime": 62.922014999999746,
      "endTime": 63.116008312499744,
      "instrument": 0,
      "program": 30,
      "isDrum": false
    },
    {
      "pitch": 55,
      "velocity": 80,
      "startTime": 62.922014999999746,
      "endTime": 63.116008312499744,
      "instrument": 0,
      "program": 30,
      "isDrum": false
    },
    {
      "pitch": 46,
      "velocity": 80,
      "startTime": 63.311624999999744,
      "endTime": 63.50561831249974,
      "instrument": 0,
      "program": 30,
      "isDrum": false
    },
    {
      "pitch": 53,
      "velocity": 80,
      "startTime": 63.311624999999744,
      "endTime": 63.50561831249974,
      "instrument": 0,
      "program": 30,
      "isDrum": false
    },
    {
      "pitch": 58,
      "velocity": 80,
      "startTime": 63.311624999999744,
      "endTime": 63.50561831249974,
      "instrument": 0,
      "program": 30,
      "isDrum": false
    },
    {
      "pitch": 46,
      "velocity": 80,
      "startTime": 63.50642999999974,
      "endTime": 63.70042331249974,
      "instrument": 0,
      "program": 30,
      "isDrum": false
    },
    {
      "pitch": 53,
      "velocity": 80,
      "startTime": 63.50642999999974,
      "endTime": 63.70042331249974,
      "instrument": 0,
      "program": 30,
      "isDrum": false
    },
    {
      "pitch": 58,
      "velocity": 80,
      "startTime": 63.50642999999974,
      "endTime": 63.70042331249974,
      "instrument": 0,
      "program": 30,
      "isDrum": false
    },
    {
      "pitch": 51,
      "velocity": 80,
      "startTime": 63.896039999999736,
      "endTime": 64.09003331249974,
      "instrument": 0,
      "program": 30,
      "isDrum": false
    },
    {
      "pitch": 58,
      "velocity": 80,
      "startTime": 63.896039999999736,
      "endTime": 64.09003331249974,
      "instrument": 0,
      "program": 30,
      "isDrum": false
    },
    {
      "pitch": 63,
      "velocity": 80,
      "startTime": 63.896039999999736,
      "endTime": 64.09003331249974,
      "instrument": 0,
      "program": 30,
      "isDrum": false
    },
    {
      "pitch": 51,
      "velocity": 80,
      "startTime": 64.09084499999975,
      "endTime": 64.28483831249974,
      "instrument": 0,
      "program": 30,
      "isDrum": false
    },
    {
      "pitch": 58,
      "velocity": 80,
      "startTime": 64.09084499999975,
      "endTime": 64.28483831249974,
      "instrument": 0,
      "program": 30,
      "isDrum": false
    },
    {
      "pitch": 63,
      "velocity": 80,
      "startTime": 64.09084499999975,
      "endTime": 64.28483831249974,
      "instrument": 0,
      "program": 30,
      "isDrum": false
    },
    {
      "pitch": 51,
      "velocity": 80,
      "startTime": 64.28564999999975,
      "endTime": 64.47964331249975,
      "instrument": 0,
      "program": 30,
      "isDrum": false
    },
    {
      "pitch": 58,
      "velocity": 80,
      "startTime": 64.28564999999975,
      "endTime": 64.47964331249975,
      "instrument": 0,
      "program": 30,
      "isDrum": false
    },
    {
      "pitch": 63,
      "velocity": 80,
      "startTime": 64.28564999999975,
      "endTime": 64.47964331249975,
      "instrument": 0,
      "program": 30,
      "isDrum": false
    },
    {
      "pitch": 51,
      "velocity": 80,
      "startTime": 64.48045499999975,
      "endTime": 64.67444831249975,
      "instrument": 0,
      "program": 30,
      "isDrum": false
    },
    {
      "pitch": 58,
      "velocity": 80,
      "startTime": 64.48045499999975,
      "endTime": 64.67444831249975,
      "instrument": 0,
      "program": 30,
      "isDrum": false
    },
    {
      "pitch": 63,
      "velocity": 80,
      "startTime": 64.48045499999975,
      "endTime": 64.67444831249975,
      "instrument": 0,
      "program": 30,
      "isDrum": false
    },
    {
      "pitch": 48,
      "velocity": 80,
      "startTime": 64.87006499999976,
      "endTime": 65.06405831249975,
      "instrument": 0,
      "program": 30,
      "isDrum": false
    },
    {
      "pitch": 55,
      "velocity": 80,
      "startTime": 64.87006499999976,
      "endTime": 65.06405831249975,
      "instrument": 0,
      "program": 30,
      "isDrum": false
    },
    {
      "pitch": 60,
      "velocity": 80,
      "startTime": 64.87006499999976,
      "endTime": 65.06405831249975,
      "instrument": 0,
      "program": 30,
      "isDrum": false
    },
    {
      "pitch": 48,
      "velocity": 80,
      "startTime": 65.06486999999976,
      "endTime": 65.25886331249976,
      "instrument": 0,
      "program": 30,
      "isDrum": false
    },
    {
      "pitch": 55,
      "velocity": 80,
      "startTime": 65.06486999999976,
      "endTime": 65.25886331249976,
      "instrument": 0,
      "program": 30,
      "isDrum": false
    },
    {
      "pitch": 60,
      "velocity": 80,
      "startTime": 65.06486999999976,
      "endTime": 65.25886331249976,
      "instrument": 0,
      "program": 30,
      "isDrum": false
    },
    {
      "pitch": 43,
      "velocity": 80,
      "startTime": 65.45447999999976,
      "endTime": 65.64847331249976,
      "instrument": 0,
      "program": 30,
      "isDrum": false
    },
    {
      "pitch": 50,
      "velocity": 80,
      "startTime": 65.45447999999976,
      "endTime": 65.64847331249976,
      "instrument": 0,
      "program": 30,
      "isDrum": false
    },
    {
      "pitch": 55,
      "velocity": 80,
      "startTime": 65.45447999999976,
      "endTime": 65.64847331249976,
      "instrument": 0,
      "program": 30,
      "isDrum": false
    },
    {
      "pitch": 43,
      "velocity": 80,
      "startTime": 65.64928499999976,
      "endTime": 65.84327831249976,
      "instrument": 0,
      "program": 30,
      "isDrum": false
    },
    {
      "pitch": 50,
      "velocity": 80,
      "startTime": 65.64928499999976,
      "endTime": 65.84327831249976,
      "instrument": 0,
      "program": 30,
      "isDrum": false
    },
    {
      "pitch": 55,
      "velocity": 80,
      "startTime": 65.64928499999976,
      "endTime": 65.84327831249976,
      "instrument": 0,
      "program": 30,
      "isDrum": false
    },
    {
      "pitch": 43,
      "velocity": 80,
      "startTime": 65.84408999999977,
      "endTime": 66.03808331249977,
      "instrument": 0,
      "program": 30,
      "isDrum": false
    },
    {
      "pitch": 50,
      "velocity": 80,
      "startTime": 65.84408999999977,
      "endTime": 66.03808331249977,
      "instrument": 0,
      "program": 30,
      "isDrum": false
    },
    {
      "pitch": 55,
      "velocity": 80,
      "startTime": 65.84408999999977,
      "endTime": 66.03808331249977,
      "instrument": 0,
      "program": 30,
      "isDrum": false
    },
    {
      "pitch": 43,
      "velocity": 80,
      "startTime": 66.03889499999977,
      "endTime": 66.23288831249977,
      "instrument": 0,
      "program": 30,
      "isDrum": false
    },
    {
      "pitch": 50,
      "velocity": 80,
      "startTime": 66.03889499999977,
      "endTime": 66.23288831249977,
      "instrument": 0,
      "program": 30,
      "isDrum": false
    },
    {
      "pitch": 55,
      "velocity": 80,
      "startTime": 66.03889499999977,
      "endTime": 66.23288831249977,
      "instrument": 0,
      "program": 30,
      "isDrum": false
    },
    {
      "pitch": 46,
      "velocity": 80,
      "startTime": 66.42850499999977,
      "endTime": 66.62249831249977,
      "instrument": 0,
      "program": 30,
      "isDrum": false
    },
    {
      "pitch": 53,
      "velocity": 80,
      "startTime": 66.42850499999977,
      "endTime": 66.62249831249977,
      "instrument": 0,
      "program": 30,
      "isDrum": false
    },
    {
      "pitch": 58,
      "velocity": 80,
      "startTime": 66.42850499999977,
      "endTime": 66.62249831249977,
      "instrument": 0,
      "program": 30,
      "isDrum": false
    },
    {
      "pitch": 46,
      "velocity": 80,
      "startTime": 66.62330999999978,
      "endTime": 66.81730331249977,
      "instrument": 0,
      "program": 30,
      "isDrum": false
    },
    {
      "pitch": 53,
      "velocity": 80,
      "startTime": 66.62330999999978,
      "endTime": 66.81730331249977,
      "instrument": 0,
      "program": 30,
      "isDrum": false
    },
    {
      "pitch": 58,
      "velocity": 80,
      "startTime": 66.62330999999978,
      "endTime": 66.81730331249977,
      "instrument": 0,
      "program": 30,
      "isDrum": false
    },
    {
      "pitch": 51,
      "velocity": 80,
      "startTime": 67.01291999999978,
      "endTime": 67.20691331249978,
      "instrument": 0,
      "program": 30,
      "isDrum": false
    },
    {
      "pitch": 58,
      "velocity": 80,
      "startTime": 67.01291999999978,
      "endTime": 67.20691331249978,
      "instrument": 0,
      "program": 30,
      "isDrum": false
    },
    {
      "pitch": 63,
      "velocity": 80,
      "startTime": 67.01291999999978,
      "endTime": 67.20691331249978,
      "instrument": 0,
      "program": 30,
      "isDrum": false
    },
    {
      "pitch": 51,
      "velocity": 80,
      "startTime": 67.20772499999978,
      "endTime": 67.40171831249978,
      "instrument": 0,
      "program": 30,
      "isDrum": false
    },
    {
      "pitch": 58,
      "velocity": 80,
      "startTime": 67.20772499999978,
      "endTime": 67.40171831249978,
      "instrument": 0,
      "program": 30,
      "isDrum": false
    },
    {
      "pitch": 63,
      "velocity": 80,
      "startTime": 67.20772499999978,
      "endTime": 67.40171831249978,
      "instrument": 0,
      "program": 30,
      "isDrum": false
    },
    {
      "pitch": 51,
      "velocity": 80,
      "startTime": 67.40252999999979,
      "endTime": 67.59652331249978,
      "instrument": 0,
      "program": 30,
      "isDrum": false
    },
    {
      "pitch": 58,
      "velocity": 80,
      "startTime": 67.40252999999979,
      "endTime": 67.59652331249978,
      "instrument": 0,
      "program": 30,
      "isDrum": false
    },
    {
      "pitch": 63,
      "velocity": 80,
      "startTime": 67.40252999999979,
      "endTime": 67.59652331249978,
      "instrument": 0,
      "program": 30,
      "isDrum": false
    },
    {
      "pitch": 51,
      "velocity": 80,
      "startTime": 67.59733499999979,
      "endTime": 67.79132831249979,
      "instrument": 0,
      "program": 30,
      "isDrum": false
    },
    {
      "pitch": 58,
      "velocity": 80,
      "startTime": 67.59733499999979,
      "endTime": 67.79132831249979,
      "instrument": 0,
      "program": 30,
      "isDrum": false
    },
    {
      "pitch": 63,
      "velocity": 80,
      "startTime": 67.59733499999979,
      "endTime": 67.79132831249979,
      "instrument": 0,
      "program": 30,
      "isDrum": false
    },
    {
      "pitch": 48,
      "velocity": 80,
      "startTime": 67.98694499999979,
      "endTime": 68.18093831249979,
      "instrument": 0,
      "program": 30,
      "isDrum": false
    },
    {
      "pitch": 55,
      "velocity": 80,
      "startTime": 67.98694499999979,
      "endTime": 68.18093831249979,
      "instrument": 0,
      "program": 30,
      "isDrum": false
    },
    {
      "pitch": 60,
      "velocity": 80,
      "startTime": 67.98694499999979,
      "endTime": 68.18093831249979,
      "instrument": 0,
      "program": 30,
      "isDrum": false
    },
    {
      "pitch": 48,
      "velocity": 80,
      "startTime": 68.1817499999998,
      "endTime": 68.3757433124998,
      "instrument": 0,
      "program": 30,
      "isDrum": false
    },
    {
      "pitch": 55,
      "velocity": 80,
      "startTime": 68.1817499999998,
      "endTime": 68.3757433124998,
      "instrument": 0,
      "program": 30,
      "isDrum": false
    },
    {
      "pitch": 60,
      "velocity": 80,
      "startTime": 68.1817499999998,
      "endTime": 68.3757433124998,
      "instrument": 0,
      "program": 30,
      "isDrum": false
    },
    {
      "pitch": 50,
      "velocity": 80,
      "startTime": 68.5713599999998,
      "endTime": 69.7393783124998,
      "instrument": 0,
      "program": 30,
      "isDrum": false
    },
    {
      "pitch": 57,
      "velocity": 80,
      "startTime": 68.5713599999998,
      "endTime": 69.7393783124998,
      "instrument": 0,
      "program": 30,
      "isDrum": false
    },
    {
      "pitch": 62,
      "velocity": 80,
      "startTime": 68.5713599999998,
      "endTime": 69.7393783124998,
      "instrument": 0,
      "program": 30,
      "isDrum": false
    },
    {
      "pitch": 48,
      "velocity": 80,
      "startTime": 71.1038249999998,
      "endTime": 71.2978183124998,
      "instrument": 0,
      "program": 30,
      "isDrum": false
    },
    {
      "pitch": 55,
      "velocity": 80,
      "startTime": 71.1038249999998,
      "endTime": 71.2978183124998,
      "instrument": 0,
      "program": 30,
      "isDrum": false
    },
    {
      "pitch": 60,
      "velocity": 80,
      "startTime": 71.1038249999998,
      "endTime": 71.2978183124998,
      "instrument": 0,
      "program": 30,
      "isDrum": false
    },
    {
      "pitch": 48,
      "velocity": 80,
      "startTime": 71.2986299999998,
      "endTime": 71.4926233124998,
      "instrument": 0,
      "program": 30,
      "isDrum": false
    },
    {
      "pitch": 55,
      "velocity": 80,
      "startTime": 71.2986299999998,
      "endTime": 71.4926233124998,
      "instrument": 0,
      "program": 30,
      "isDrum": false
    },
    {
      "pitch": 60,
      "velocity": 80,
      "startTime": 71.2986299999998,
      "endTime": 71.4926233124998,
      "instrument": 0,
      "program": 30,
      "isDrum": false
    },
    {
      "pitch": 48,
      "velocity": 80,
      "startTime": 71.4934349999998,
      "endTime": 71.6874283124998,
      "instrument": 0,
      "program": 30,
      "isDrum": false
    },
    {
      "pitch": 55,
      "velocity": 80,
      "startTime": 71.4934349999998,
      "endTime": 71.6874283124998,
      "instrument": 0,
      "program": 30,
      "isDrum": false
    },
    {
      "pitch": 60,
      "velocity": 80,
      "startTime": 71.4934349999998,
      "endTime": 71.6874283124998,
      "instrument": 0,
      "program": 30,
      "isDrum": false
    },
    {
      "pitch": 50,
      "velocity": 80,
      "startTime": 71.68823999999981,
      "endTime": 71.8822333124998,
      "instrument": 0,
      "program": 30,
      "isDrum": false
    },
    {
      "pitch": 57,
      "velocity": 80,
      "startTime": 71.68823999999981,
      "endTime": 71.8822333124998,
      "instrument": 0,
      "program": 30,
      "isDrum": false
    },
    {
      "pitch": 62,
      "velocity": 80,
      "startTime": 71.68823999999981,
      "endTime": 71.8822333124998,
      "instrument": 0,
      "program": 30,
      "isDrum": false
    },
    {
      "pitch": 48,
      "velocity": 80,
      "startTime": 74.22070499999981,
      "endTime": 74.41469831249981,
      "instrument": 0,
      "program": 30,
      "isDrum": false
    },
    {
      "pitch": 55,
      "velocity": 80,
      "startTime": 74.22070499999981,
      "endTime": 74.41469831249981,
      "instrument": 0,
      "program": 30,
      "isDrum": false
    },
    {
      "pitch": 60,
      "velocity": 80,
      "startTime": 74.22070499999981,
      "endTime": 74.41469831249981,
      "instrument": 0,
      "program": 30,
      "isDrum": false
    },
    {
      "pitch": 48,
      "velocity": 80,
      "startTime": 74.41550999999981,
      "endTime": 74.60950331249981,
      "instrument": 0,
      "program": 30,
      "isDrum": false
    },
    {
      "pitch": 55,
      "velocity": 80,
      "startTime": 74.41550999999981,
      "endTime": 74.60950331249981,
      "instrument": 0,
      "program": 30,
      "isDrum": false
    },
    {
      "pitch": 60,
      "velocity": 80,
      "startTime": 74.41550999999981,
      "endTime": 74.60950331249981,
      "instrument": 0,
      "program": 30,
      "isDrum": false
    },
    {
      "pitch": 48,
      "velocity": 80,
      "startTime": 74.61031499999982,
      "endTime": 74.80430831249981,
      "instrument": 0,
      "program": 30,
      "isDrum": false
    },
    {
      "pitch": 55,
      "velocity": 80,
      "startTime": 74.61031499999982,
      "endTime": 74.80430831249981,
      "instrument": 0,
      "program": 30,
      "isDrum": false
    },
    {
      "pitch": 60,
      "velocity": 80,
      "startTime": 74.61031499999982,
      "endTime": 74.80430831249981,
      "instrument": 0,
      "program": 30,
      "isDrum": false
    },
    {
      "pitch": 50,
      "velocity": 80,
      "startTime": 74.80511999999982,
      "endTime": 74.99911331249982,
      "instrument": 0,
      "program": 30,
      "isDrum": false
    },
    {
      "pitch": 57,
      "velocity": 80,
      "startTime": 74.80511999999982,
      "endTime": 74.99911331249982,
      "instrument": 0,
      "program": 30,
      "isDrum": false
    },
    {
      "pitch": 62,
      "velocity": 80,
      "startTime": 74.80511999999982,
      "endTime": 74.99911331249982,
      "instrument": 0,
      "program": 30,
      "isDrum": false
    },
    {
      "pitch": 41,
      "velocity": 80,
      "startTime": 77.33758499999982,
      "endTime": 77.53157831249982,
      "instrument": 0,
      "program": 30,
      "isDrum": false
    },
    {
      "pitch": 48,
      "velocity": 80,
      "startTime": 77.33758499999982,
      "endTime": 77.53157831249982,
      "instrument": 0,
      "program": 30,
      "isDrum": false
    },
    {
      "pitch": 53,
      "velocity": 80,
      "startTime": 77.33758499999982,
      "endTime": 77.53157831249982,
      "instrument": 0,
      "program": 30,
      "isDrum": false
    },
    {
      "pitch": 41,
      "velocity": 80,
      "startTime": 77.53238999999982,
      "endTime": 77.72638331249982,
      "instrument": 0,
      "program": 30,
      "isDrum": false
    },
    {
      "pitch": 48,
      "velocity": 80,
      "startTime": 77.53238999999982,
      "endTime": 77.72638331249982,
      "instrument": 0,
      "program": 30,
      "isDrum": false
    },
    {
      "pitch": 53,
      "velocity": 80,
      "startTime": 77.53238999999982,
      "endTime": 77.72638331249982,
      "instrument": 0,
      "program": 30,
      "isDrum": false
    },
    {
      "pitch": 41,
      "velocity": 80,
      "startTime": 77.72719499999982,
      "endTime": 77.92118831249982,
      "instrument": 0,
      "program": 30,
      "isDrum": false
    },
    {
      "pitch": 48,
      "velocity": 80,
      "startTime": 77.72719499999982,
      "endTime": 77.92118831249982,
      "instrument": 0,
      "program": 30,
      "isDrum": false
    },
    {
      "pitch": 53,
      "velocity": 80,
      "startTime": 77.72719499999982,
      "endTime": 77.92118831249982,
      "instrument": 0,
      "program": 30,
      "isDrum": false
    },
    {
      "pitch": 43,
      "velocity": 80,
      "startTime": 77.92199999999983,
      "endTime": 78.11599331249982,
      "instrument": 0,
      "program": 30,
      "isDrum": false
    },
    {
      "pitch": 50,
      "velocity": 80,
      "startTime": 77.92199999999983,
      "endTime": 78.11599331249982,
      "instrument": 0,
      "program": 30,
      "isDrum": false
    },
    {
      "pitch": 55,
      "velocity": 80,
      "startTime": 77.92199999999983,
      "endTime": 78.11599331249982,
      "instrument": 0,
      "program": 30,
      "isDrum": false
    },
    {
      "pitch": 41,
      "velocity": 80,
      "startTime": 78.89602499999982,
      "endTime": 79.09001831249982,
      "instrument": 0,
      "program": 30,
      "isDrum": false
    },
    {
      "pitch": 48,
      "velocity": 80,
      "startTime": 78.89602499999982,
      "endTime": 79.09001831249982,
      "instrument": 0,
      "program": 30,
      "isDrum": false
    },
    {
      "pitch": 53,
      "velocity": 80,
      "startTime": 78.89602499999982,
      "endTime": 79.09001831249982,
      "instrument": 0,
      "program": 30,
      "isDrum": false
    },
    {
      "pitch": 41,
      "velocity": 80,
      "startTime": 79.09082999999983,
      "endTime": 79.28482331249982,
      "instrument": 0,
      "program": 30,
      "isDrum": false
    },
    {
      "pitch": 48,
      "velocity": 80,
      "startTime": 79.09082999999983,
      "endTime": 79.28482331249982,
      "instrument": 0,
      "program": 30,
      "isDrum": false
    },
    {
      "pitch": 53,
      "velocity": 80,
      "startTime": 79.09082999999983,
      "endTime": 79.28482331249982,
      "instrument": 0,
      "program": 30,
      "isDrum": false
    },
    {
      "pitch": 41,
      "velocity": 80,
      "startTime": 79.28563499999983,
      "endTime": 79.47962831249983,
      "instrument": 0,
      "program": 30,
      "isDrum": false
    },
    {
      "pitch": 48,
      "velocity": 80,
      "startTime": 79.28563499999983,
      "endTime": 79.47962831249983,
      "instrument": 0,
      "program": 30,
      "isDrum": false
    },
    {
      "pitch": 53,
      "velocity": 80,
      "startTime": 79.28563499999983,
      "endTime": 79.47962831249983,
      "instrument": 0,
      "program": 30,
      "isDrum": false
    },
    {
      "pitch": 43,
      "velocity": 80,
      "startTime": 79.48043999999983,
      "endTime": 79.67443331249983,
      "instrument": 0,
      "program": 30,
      "isDrum": false
    },
    {
      "pitch": 50,
      "velocity": 80,
      "startTime": 79.48043999999983,
      "endTime": 79.67443331249983,
      "instrument": 0,
      "program": 30,
      "isDrum": false
    },
    {
      "pitch": 55,
      "velocity": 80,
      "startTime": 79.48043999999983,
      "endTime": 79.67443331249983,
      "instrument": 0,
      "program": 30,
      "isDrum": false
    },
    {
      "pitch": 41,
      "velocity": 80,
      "startTime": 80.45446499999983,
      "endTime": 80.64845831249983,
      "instrument": 0,
      "program": 30,
      "isDrum": false
    },
    {
      "pitch": 48,
      "velocity": 80,
      "startTime": 80.45446499999983,
      "endTime": 80.64845831249983,
      "instrument": 0,
      "program": 30,
      "isDrum": false
    },
    {
      "pitch": 53,
      "velocity": 80,
      "startTime": 80.45446499999983,
      "endTime": 80.64845831249983,
      "instrument": 0,
      "program": 30,
      "isDrum": false
    },
    {
      "pitch": 41,
      "velocity": 80,
      "startTime": 80.64926999999983,
      "endTime": 80.84326331249983,
      "instrument": 0,
      "program": 30,
      "isDrum": false
    },
    {
      "pitch": 48,
      "velocity": 80,
      "startTime": 80.64926999999983,
      "endTime": 80.84326331249983,
      "instrument": 0,
      "program": 30,
      "isDrum": false
    },
    {
      "pitch": 53,
      "velocity": 80,
      "startTime": 80.64926999999983,
      "endTime": 80.84326331249983,
      "instrument": 0,
      "program": 30,
      "isDrum": false
    },
    {
      "pitch": 41,
      "velocity": 80,
      "startTime": 80.84407499999983,
      "endTime": 81.03806831249983,
      "instrument": 0,
      "program": 30,
      "isDrum": false
    },
    {
      "pitch": 48,
      "velocity": 80,
      "startTime": 80.84407499999983,
      "endTime": 81.03806831249983,
      "instrument": 0,
      "program": 30,
      "isDrum": false
    },
    {
      "pitch": 53,
      "velocity": 80,
      "startTime": 80.84407499999983,
      "endTime": 81.03806831249983,
      "instrument": 0,
      "program": 30,
      "isDrum": false
    },
    {
      "pitch": 43,
      "velocity": 80,
      "startTime": 81.03887999999984,
      "endTime": 81.23287331249983,
      "instrument": 0,
      "program": 30,
      "isDrum": false
    },
    {
      "pitch": 50,
      "velocity": 80,
      "startTime": 81.03887999999984,
      "endTime": 81.23287331249983,
      "instrument": 0,
      "program": 30,
      "isDrum": false
    },
    {
      "pitch": 55,
      "velocity": 80,
      "startTime": 81.03887999999984,
      "endTime": 81.23287331249983,
      "instrument": 0,
      "program": 30,
      "isDrum": false
    },
    {
      "pitch": 41,
      "velocity": 80,
      "startTime": 82.01290499999983,
      "endTime": 82.20689831249983,
      "instrument": 0,
      "program": 30,
      "isDrum": false
    },
    {
      "pitch": 48,
      "velocity": 80,
      "startTime": 82.01290499999983,
      "endTime": 82.20689831249983,
      "instrument": 0,
      "program": 30,
      "isDrum": false
    },
    {
      "pitch": 53,
      "velocity": 80,
      "startTime": 82.01290499999983,
      "endTime": 82.20689831249983,
      "instrument": 0,
      "program": 30,
      "isDrum": false
    },
    {
      "pitch": 41,
      "velocity": 80,
      "startTime": 82.20770999999984,
      "endTime": 82.40170331249983,
      "instrument": 0,
      "program": 30,
      "isDrum": false
    },
    {
      "pitch": 48,
      "velocity": 80,
      "startTime": 82.20770999999984,
      "endTime": 82.40170331249983,
      "instrument": 0,
      "program": 30,
      "isDrum": false
    },
    {
      "pitch": 53,
      "velocity": 80,
      "startTime": 82.20770999999984,
      "endTime": 82.40170331249983,
      "instrument": 0,
      "program": 30,
      "isDrum": false
    },
    {
      "pitch": 41,
      "velocity": 80,
      "startTime": 82.40251499999984,
      "endTime": 82.59650831249984,
      "instrument": 0,
      "program": 30,
      "isDrum": false
    },
    {
      "pitch": 48,
      "velocity": 80,
      "startTime": 82.40251499999984,
      "endTime": 82.59650831249984,
      "instrument": 0,
      "program": 30,
      "isDrum": false
    },
    {
      "pitch": 53,
      "velocity": 80,
      "startTime": 82.40251499999984,
      "endTime": 82.59650831249984,
      "instrument": 0,
      "program": 30,
      "isDrum": false
    },
    {
      "pitch": 43,
      "velocity": 80,
      "startTime": 82.59731999999984,
      "endTime": 82.79131331249984,
      "instrument": 0,
      "program": 30,
      "isDrum": false
    },
    {
      "pitch": 50,
      "velocity": 80,
      "startTime": 82.59731999999984,
      "endTime": 82.79131331249984,
      "instrument": 0,
      "program": 30,
      "isDrum": false
    },
    {
      "pitch": 55,
      "velocity": 80,
      "startTime": 82.59731999999984,
      "endTime": 82.79131331249984,
      "instrument": 0,
      "program": 30,
      "isDrum": false
    },
    {
      "pitch": 43,
      "velocity": 112,
      "startTime": 83.57134499999984,
      "endTime": 83.76533831249984,
      "instrument": 0,
      "program": 30,
      "isDrum": false
    },
    {
      "pitch": 46,
      "velocity": 112,
      "startTime": 83.76614999999984,
      "endTime": 83.96014331249984,
      "instrument": 0,
      "program": 30,
      "isDrum": false
    },
    {
      "pitch": 50,
      "velocity": 112,
      "startTime": 83.96095499999984,
      "endTime": 84.15494831249984,
      "instrument": 0,
      "program": 30,
      "isDrum": false
    },
    {
      "pitch": 57,
      "velocity": 112,
      "startTime": 84.15575999999984,
      "endTime": 84.34975331249984,
      "instrument": 0,
      "program": 30,
      "isDrum": false
    },
    {
      "pitch": 57,
      "velocity": 112,
      "startTime": 84.35056499999985,
      "endTime": 84.54455831249984,
      "instrument": 0,
      "program": 30,
      "isDrum": false
    },
    {
      "pitch": 57,
      "velocity": 112,
      "startTime": 84.54536999999985,
      "endTime": 84.73936331249985,
      "instrument": 0,
      "program": 30,
      "isDrum": false
    },
    {
      "pitch": 57,
      "velocity": 112,
      "startTime": 84.74017499999985,
      "endTime": 84.93416831249985,
      "instrument": 0,
      "program": 30,
      "isDrum": false
    },
    {
      "pitch": 57,
      "velocity": 112,
      "startTime": 84.93497999999985,
      "endTime": 85.12897331249985,
      "instrument": 0,
      "program": 30,
      "isDrum": false
    },
    {
      "pitch": 57,
      "velocity": 112,
      "startTime": 85.12978499999986,
      "endTime": 85.32377831249985,
      "instrument": 0,
      "program": 30,
      "isDrum": false
    },
    {
      "pitch": 53,
      "velocity": 112,
      "startTime": 85.32458999999986,
      "endTime": 85.51858331249986,
      "instrument": 0,
      "program": 30,
      "isDrum": false
    },
    {
      "pitch": 50,
      "velocity": 112,
      "startTime": 85.51939499999986,
      "endTime": 85.71338831249986,
      "instrument": 0,
      "program": 30,
      "isDrum": false
    },
    {
      "pitch": 43,
      "velocity": 112,
      "startTime": 85.71419999999986,
      "endTime": 85.90819331249986,
      "instrument": 0,
      "program": 30,
      "isDrum": false
    },
    {
      "pitch": 43,
      "velocity": 112,
      "startTime": 86.68822499999986,
      "endTime": 86.88221831249986,
      "instrument": 0,
      "program": 30,
      "isDrum": false
    },
    {
      "pitch": 46,
      "velocity": 112,
      "startTime": 86.88302999999986,
      "endTime": 87.07702331249986,
      "instrument": 0,
      "program": 30,
      "isDrum": false
    },
    {
      "pitch": 50,
      "velocity": 112,
      "startTime": 87.07783499999987,
      "endTime": 87.27182831249986,
      "instrument": 0,
      "program": 30,
      "isDrum": false
    },
    {
      "pitch": 57,
      "velocity": 112,
      "startTime": 87.27263999999987,
      "endTime": 87.46663331249987,
      "instrument": 0,
      "program": 30,
      "isDrum": false
    },
    {
      "pitch": 57,
      "velocity": 112,
      "startTime": 87.46744499999987,
      "endTime": 87.66143831249987,
      "instrument": 0,
      "program": 30,
      "isDrum": false
    },
    {
      "pitch": 57,
      "velocity": 112,
      "startTime": 87.66224999999987,
      "endTime": 87.85624331249987,
      "instrument": 0,
      "program": 30,
      "isDrum": false
    },
    {
      "pitch": 57,
      "velocity": 112,
      "startTime": 87.85705499999987,
      "endTime": 88.05104831249987,
      "instrument": 0,
      "program": 30,
      "isDrum": false
    },
    {
      "pitch": 57,
      "velocity": 112,
      "startTime": 88.05185999999988,
      "endTime": 88.24585331249988,
      "instrument": 0,
      "program": 30,
      "isDrum": false
    },
    {
      "pitch": 57,
      "velocity": 112,
      "startTime": 88.24666499999988,
      "endTime": 88.44065831249988,
      "instrument": 0,
      "program": 30,
      "isDrum": false
    },
    {
      "pitch": 55,
      "velocity": 112,
      "startTime": 88.44146999999988,
      "endTime": 88.63546331249988,
      "instrument": 0,
      "program": 30,
      "isDrum": false
    },
    {
      "pitch": 57,
      "velocity": 112,
      "startTime": 88.63627499999988,
      "endTime": 88.83026831249988,
      "instrument": 0,
      "program": 30,
      "isDrum": false
    },
    {
      "pitch": 55,
      "velocity": 80,
      "startTime": 88.83107999999989,
      "endTime": 89.21987831249989,
      "instrument": 0,
      "program": 30,
      "isDrum": false
    },
    {
      "pitch": 59,
      "velocity": 80,
      "startTime": 88.83107999999989,
      "endTime": 89.21987831249989,
      "instrument": 0,
      "program": 30,
      "isDrum": false
    },
    {
      "pitch": 41,
      "velocity": 80,
      "startTime": 91.36354499999989,
      "endTime": 91.55753831249989,
      "instrument": 0,
      "program": 30,
      "isDrum": false
    },
    {
      "pitch": 48,
      "velocity": 80,
      "startTime": 91.36354499999989,
      "endTime": 91.55753831249989,
      "instrument": 0,
      "program": 30,
      "isDrum": false
    },
    {
      "pitch": 53,
      "velocity": 80,
      "startTime": 91.36354499999989,
      "endTime": 91.55753831249989,
      "instrument": 0,
      "program": 30,
      "isDrum": false
    },
    {
      "pitch": 41,
      "velocity": 80,
      "startTime": 91.55834999999989,
      "endTime": 91.75234331249989,
      "instrument": 0,
      "program": 30,
      "isDrum": false
    },
    {
      "pitch": 48,
      "velocity": 80,
      "startTime": 91.55834999999989,
      "endTime": 91.75234331249989,
      "instrument": 0,
      "program": 30,
      "isDrum": false
    },
    {
      "pitch": 53,
      "velocity": 80,
      "startTime": 91.55834999999989,
      "endTime": 91.75234331249989,
      "instrument": 0,
      "program": 30,
      "isDrum": false
    },
    {
      "pitch": 41,
      "velocity": 80,
      "startTime": 91.7531549999999,
      "endTime": 91.94714831249989,
      "instrument": 0,
      "program": 30,
      "isDrum": false
    },
    {
      "pitch": 48,
      "velocity": 80,
      "startTime": 91.7531549999999,
      "endTime": 91.94714831249989,
      "instrument": 0,
      "program": 30,
      "isDrum": false
    },
    {
      "pitch": 53,
      "velocity": 80,
      "startTime": 91.7531549999999,
      "endTime": 91.94714831249989,
      "instrument": 0,
      "program": 30,
      "isDrum": false
    },
    {
      "pitch": 43,
      "velocity": 80,
      "startTime": 91.9479599999999,
      "endTime": 92.1419533124999,
      "instrument": 0,
      "program": 30,
      "isDrum": false
    },
    {
      "pitch": 50,
      "velocity": 80,
      "startTime": 91.9479599999999,
      "endTime": 92.1419533124999,
      "instrument": 0,
      "program": 30,
      "isDrum": false
    },
    {
      "pitch": 55,
      "velocity": 80,
      "startTime": 91.9479599999999,
      "endTime": 92.1419533124999,
      "instrument": 0,
      "program": 30,
      "isDrum": false
    },
    {
      "pitch": 41,
      "velocity": 80,
      "startTime": 94.4804249999999,
      "endTime": 94.6744183124999,
      "instrument": 0,
      "program": 30,
      "isDrum": false
    },
    {
      "pitch": 48,
      "velocity": 80,
      "startTime": 94.4804249999999,
      "endTime": 94.6744183124999,
      "instrument": 0,
      "program": 30,
      "isDrum": false
    },
    {
      "pitch": 53,
      "velocity": 80,
      "startTime": 94.4804249999999,
      "endTime": 94.6744183124999,
      "instrument": 0,
      "program": 30,
      "isDrum": false
    },
    {
      "pitch": 41,
      "velocity": 80,
      "startTime": 94.6752299999999,
      "endTime": 94.8692233124999,
      "instrument": 0,
      "program": 30,
      "isDrum": false
    },
    {
      "pitch": 48,
      "velocity": 80,
      "startTime": 94.6752299999999,
      "endTime": 94.8692233124999,
      "instrument": 0,
      "program": 30,
      "isDrum": false
    },
    {
      "pitch": 53,
      "velocity": 80,
      "startTime": 94.6752299999999,
      "endTime": 94.8692233124999,
      "instrument": 0,
      "program": 30,
      "isDrum": false
    },
    {
      "pitch": 41,
      "velocity": 80,
      "startTime": 94.8700349999999,
      "endTime": 95.0640283124999,
      "instrument": 0,
      "program": 30,
      "isDrum": false
    },
    {
      "pitch": 48,
      "velocity": 80,
      "startTime": 94.8700349999999,
      "endTime": 95.0640283124999,
      "instrument": 0,
      "program": 30,
      "isDrum": false
    },
    {
      "pitch": 53,
      "velocity": 80,
      "startTime": 94.8700349999999,
      "endTime": 95.0640283124999,
      "instrument": 0,
      "program": 30,
      "isDrum": false
    },
    {
      "pitch": 43,
      "velocity": 80,
      "startTime": 95.0648399999999,
      "endTime": 95.2588333124999,
      "instrument": 0,
      "program": 30,
      "isDrum": false
    },
    {
      "pitch": 50,
      "velocity": 80,
      "startTime": 95.0648399999999,
      "endTime": 95.2588333124999,
      "instrument": 0,
      "program": 30,
      "isDrum": false
    },
    {
      "pitch": 55,
      "velocity": 80,
      "startTime": 95.0648399999999,
      "endTime": 95.2588333124999,
      "instrument": 0,
      "program": 30,
      "isDrum": false
    },
    {
      "pitch": 41,
      "velocity": 80,
      "startTime": 97.5973049999999,
      "endTime": 97.7912983124999,
      "instrument": 0,
      "program": 30,
      "isDrum": false
    },
    {
      "pitch": 48,
      "velocity": 80,
      "startTime": 97.5973049999999,
      "endTime": 97.7912983124999,
      "instrument": 0,
      "program": 30,
      "isDrum": false
    },
    {
      "pitch": 53,
      "velocity": 80,
      "startTime": 97.5973049999999,
      "endTime": 97.7912983124999,
      "instrument": 0,
      "program": 30,
      "isDrum": false
    },
    {
      "pitch": 41,
      "velocity": 80,
      "startTime": 97.79210999999991,
      "endTime": 97.9861033124999,
      "instrument": 0,
      "program": 30,
      "isDrum": false
    },
    {
      "pitch": 48,
      "velocity": 80,
      "startTime": 97.79210999999991,
      "endTime": 97.9861033124999,
      "instrument": 0,
      "program": 30,
      "isDrum": false
    },
    {
      "pitch": 53,
      "velocity": 80,
      "startTime": 97.79210999999991,
      "endTime": 97.9861033124999,
      "instrument": 0,
      "program": 30,
      "isDrum": false
    },
    {
      "pitch": 41,
      "velocity": 80,
      "startTime": 97.98691499999991,
      "endTime": 98.18090831249991,
      "instrument": 0,
      "program": 30,
      "isDrum": false
    },
    {
      "pitch": 48,
      "velocity": 80,
      "startTime": 97.98691499999991,
      "endTime": 98.18090831249991,
      "instrument": 0,
      "program": 30,
      "isDrum": false
    },
    {
      "pitch": 53,
      "velocity": 80,
      "startTime": 97.98691499999991,
      "endTime": 98.18090831249991,
      "instrument": 0,
      "program": 30,
      "isDrum": false
    },
    {
      "pitch": 43,
      "velocity": 80,
      "startTime": 98.18171999999991,
      "endTime": 98.37571331249991,
      "instrument": 0,
      "program": 30,
      "isDrum": false
    },
    {
      "pitch": 50,
      "velocity": 80,
      "startTime": 98.18171999999991,
      "endTime": 98.37571331249991,
      "instrument": 0,
      "program": 30,
      "isDrum": false
    },
    {
      "pitch": 55,
      "velocity": 80,
      "startTime": 98.18171999999991,
      "endTime": 98.37571331249991,
      "instrument": 0,
      "program": 30,
      "isDrum": false
    },
    {
      "pitch": 41,
      "velocity": 80,
      "startTime": 100.71418499999992,
      "endTime": 100.90817831249991,
      "instrument": 0,
      "program": 30,
      "isDrum": false
    },
    {
      "pitch": 48,
      "velocity": 80,
      "startTime": 100.71418499999992,
      "endTime": 100.90817831249991,
      "instrument": 0,
      "program": 30,
      "isDrum": false
    },
    {
      "pitch": 53,
      "velocity": 80,
      "startTime": 100.71418499999992,
      "endTime": 100.90817831249991,
      "instrument": 0,
      "program": 30,
      "isDrum": false
    },
    {
      "pitch": 41,
      "velocity": 80,
      "startTime": 100.90898999999992,
      "endTime": 101.10298331249992,
      "instrument": 0,
      "program": 30,
      "isDrum": false
    },
    {
      "pitch": 48,
      "velocity": 80,
      "startTime": 100.90898999999992,
      "endTime": 101.10298331249992,
      "instrument": 0,
      "program": 30,
      "isDrum": false
    },
    {
      "pitch": 53,
      "velocity": 80,
      "startTime": 100.90898999999992,
      "endTime": 101.10298331249992,
      "instrument": 0,
      "program": 30,
      "isDrum": false
    },
    {
      "pitch": 41,
      "velocity": 80,
      "startTime": 101.10379499999992,
      "endTime": 101.29778831249992,
      "instrument": 0,
      "program": 30,
      "isDrum": false
    },
    {
      "pitch": 48,
      "velocity": 80,
      "startTime": 101.10379499999992,
      "endTime": 101.29778831249992,
      "instrument": 0,
      "program": 30,
      "isDrum": false
    },
    {
      "pitch": 53,
      "velocity": 80,
      "startTime": 101.10379499999992,
      "endTime": 101.29778831249992,
      "instrument": 0,
      "program": 30,
      "isDrum": false
    },
    {
      "pitch": 43,
      "velocity": 80,
      "startTime": 101.29859999999992,
      "endTime": 101.49259331249992,
      "instrument": 0,
      "program": 30,
      "isDrum": false
    },
    {
      "pitch": 50,
      "velocity": 80,
      "startTime": 101.29859999999992,
      "endTime": 101.49259331249992,
      "instrument": 0,
      "program": 30,
      "isDrum": false
    },
    {
      "pitch": 55,
      "velocity": 80,
      "startTime": 101.29859999999992,
      "endTime": 101.49259331249992,
      "instrument": 0,
      "program": 30,
      "isDrum": false
    },
    {
      "pitch": 43,
      "velocity": 80,
      "startTime": 101.49340499999992,
      "endTime": 101.68739831249992,
      "instrument": 0,
      "program": 30,
      "isDrum": false
    },
    {
      "pitch": 50,
      "velocity": 80,
      "startTime": 101.49340499999992,
      "endTime": 101.68739831249992,
      "instrument": 0,
      "program": 30,
      "isDrum": false
    },
    {
      "pitch": 55,
      "velocity": 80,
      "startTime": 101.49340499999992,
      "endTime": 101.68739831249992,
      "instrument": 0,
      "program": 30,
      "isDrum": false
    },
    {
      "pitch": 43,
      "velocity": 80,
      "startTime": 101.68820999999993,
      "endTime": 101.88220331249993,
      "instrument": 0,
      "program": 30,
      "isDrum": false
    },
    {
      "pitch": 50,
      "velocity": 80,
      "startTime": 101.68820999999993,
      "endTime": 101.88220331249993,
      "instrument": 0,
      "program": 30,
      "isDrum": false
    },
    {
      "pitch": 55,
      "velocity": 80,
      "startTime": 101.68820999999993,
      "endTime": 101.88220331249993,
      "instrument": 0,
      "program": 30,
      "isDrum": false
    },
    {
      "pitch": 43,
      "velocity": 80,
      "startTime": 101.88301499999993,
      "endTime": 102.07700831249993,
      "instrument": 0,
      "program": 30,
      "isDrum": false
    },
    {
      "pitch": 50,
      "velocity": 80,
      "startTime": 101.88301499999993,
      "endTime": 102.07700831249993,
      "instrument": 0,
      "program": 30,
      "isDrum": false
    },
    {
      "pitch": 55,
      "velocity": 80,
      "startTime": 101.88301499999993,
      "endTime": 102.07700831249993,
      "instrument": 0,
      "program": 30,
      "isDrum": false
    },
    {
      "pitch": 41,
      "velocity": 80,
      "startTime": 102.85703999999993,
      "endTime": 103.05103331249992,
      "instrument": 0,
      "program": 30,
      "isDrum": false
    },
    {
      "pitch": 48,
      "velocity": 80,
      "startTime": 102.85703999999993,
      "endTime": 103.05103331249992,
      "instrument": 0,
      "program": 30,
      "isDrum": false
    },
    {
      "pitch": 53,
      "velocity": 80,
      "startTime": 102.85703999999993,
      "endTime": 103.05103331249992,
      "instrument": 0,
      "program": 30,
      "isDrum": false
    },
    {
      "pitch": 41,
      "velocity": 80,
      "startTime": 103.05184499999993,
      "endTime": 103.24583831249993,
      "instrument": 0,
      "program": 30,
      "isDrum": false
    },
    {
      "pitch": 48,
      "velocity": 80,
      "startTime": 103.05184499999993,
      "endTime": 103.24583831249993,
      "instrument": 0,
      "program": 30,
      "isDrum": false
    },
    {
      "pitch": 53,
      "velocity": 80,
      "startTime": 103.05184499999993,
      "endTime": 103.24583831249993,
      "instrument": 0,
      "program": 30,
      "isDrum": false
    },
    {
      "pitch": 41,
      "velocity": 80,
      "startTime": 103.24664999999993,
      "endTime": 103.44064331249993,
      "instrument": 0,
      "program": 30,
      "isDrum": false
    },
    {
      "pitch": 48,
      "velocity": 80,
      "startTime": 103.24664999999993,
      "endTime": 103.44064331249993,
      "instrument": 0,
      "program": 30,
      "isDrum": false
    },
    {
      "pitch": 53,
      "velocity": 80,
      "startTime": 103.24664999999993,
      "endTime": 103.44064331249993,
      "instrument": 0,
      "program": 30,
      "isDrum": false
    },
    {
      "pitch": 41,
      "velocity": 80,
      "startTime": 103.44145499999993,
      "endTime": 103.63544831249993,
      "instrument": 0,
      "program": 30,
      "isDrum": false
    },
    {
      "pitch": 48,
      "velocity": 80,
      "startTime": 103.44145499999993,
      "endTime": 103.63544831249993,
      "instrument": 0,
      "program": 30,
      "isDrum": false
    },
    {
      "pitch": 53,
      "velocity": 80,
      "startTime": 103.44145499999993,
      "endTime": 103.63544831249993,
      "instrument": 0,
      "program": 30,
      "isDrum": false
    },
    {
      "pitch": 43,
      "velocity": 80,
      "startTime": 104.41547999999993,
      "endTime": 104.60947331249993,
      "instrument": 0,
      "program": 30,
      "isDrum": false
    },
    {
      "pitch": 50,
      "velocity": 80,
      "startTime": 104.41547999999993,
      "endTime": 104.60947331249993,
      "instrument": 0,
      "program": 30,
      "isDrum": false
    },
    {
      "pitch": 55,
      "velocity": 80,
      "startTime": 104.41547999999993,
      "endTime": 104.60947331249993,
      "instrument": 0,
      "program": 30,
      "isDrum": false
    },
    {
      "pitch": 43,
      "velocity": 80,
      "startTime": 104.61028499999993,
      "endTime": 104.80427831249993,
      "instrument": 0,
      "program": 30,
      "isDrum": false
    },
    {
      "pitch": 50,
      "velocity": 80,
      "startTime": 104.61028499999993,
      "endTime": 104.80427831249993,
      "instrument": 0,
      "program": 30,
      "isDrum": false
    },
    {
      "pitch": 55,
      "velocity": 80,
      "startTime": 104.61028499999993,
      "endTime": 104.80427831249993,
      "instrument": 0,
      "program": 30,
      "isDrum": false
    },
    {
      "pitch": 43,
      "velocity": 80,
      "startTime": 104.80508999999994,
      "endTime": 104.99908331249993,
      "instrument": 0,
      "program": 30,
      "isDrum": false
    },
    {
      "pitch": 50,
      "velocity": 80,
      "startTime": 104.80508999999994,
      "endTime": 104.99908331249993,
      "instrument": 0,
      "program": 30,
      "isDrum": false
    },
    {
      "pitch": 55,
      "velocity": 80,
      "startTime": 104.80508999999994,
      "endTime": 104.99908331249993,
      "instrument": 0,
      "program": 30,
      "isDrum": false
    },
    {
      "pitch": 43,
      "velocity": 80,
      "startTime": 104.99989499999994,
      "endTime": 105.19388831249994,
      "instrument": 0,
      "program": 30,
      "isDrum": false
    },
    {
      "pitch": 50,
      "velocity": 80,
      "startTime": 104.99989499999994,
      "endTime": 105.19388831249994,
      "instrument": 0,
      "program": 30,
      "isDrum": false
    },
    {
      "pitch": 55,
      "velocity": 80,
      "startTime": 104.99989499999994,
      "endTime": 105.19388831249994,
      "instrument": 0,
      "program": 30,
      "isDrum": false
    },
    {
      "pitch": 46,
      "velocity": 80,
      "startTime": 105.97391999999994,
      "endTime": 106.16791331249993,
      "instrument": 0,
      "program": 30,
      "isDrum": false
    },
    {
      "pitch": 53,
      "velocity": 80,
      "startTime": 105.97391999999994,
      "endTime": 106.16791331249993,
      "instrument": 0,
      "program": 30,
      "isDrum": false
    },
    {
      "pitch": 58,
      "velocity": 80,
      "startTime": 105.97391999999994,
      "endTime": 106.16791331249993,
      "instrument": 0,
      "program": 30,
      "isDrum": false
    },
    {
      "pitch": 46,
      "velocity": 80,
      "startTime": 106.16872499999994,
      "endTime": 106.36271831249994,
      "instrument": 0,
      "program": 30,
      "isDrum": false
    },
    {
      "pitch": 53,
      "velocity": 80,
      "startTime": 106.16872499999994,
      "endTime": 106.36271831249994,
      "instrument": 0,
      "program": 30,
      "isDrum": false
    },
    {
      "pitch": 58,
      "velocity": 80,
      "startTime": 106.16872499999994,
      "endTime": 106.36271831249994,
      "instrument": 0,
      "program": 30,
      "isDrum": false
    },
    {
      "pitch": 46,
      "velocity": 80,
      "startTime": 106.36352999999994,
      "endTime": 106.55752331249994,
      "instrument": 0,
      "program": 30,
      "isDrum": false
    },
    {
      "pitch": 53,
      "velocity": 80,
      "startTime": 106.36352999999994,
      "endTime": 106.55752331249994,
      "instrument": 0,
      "program": 30,
      "isDrum": false
    },
    {
      "pitch": 58,
      "velocity": 80,
      "startTime": 106.36352999999994,
      "endTime": 106.55752331249994,
      "instrument": 0,
      "program": 30,
      "isDrum": false
    },
    {
      "pitch": 46,
      "velocity": 80,
      "startTime": 106.55833499999994,
      "endTime": 106.75232831249994,
      "instrument": 0,
      "program": 30,
      "isDrum": false
    },
    {
      "pitch": 53,
      "velocity": 80,
      "startTime": 106.55833499999994,
      "endTime": 106.75232831249994,
      "instrument": 0,
      "program": 30,
      "isDrum": false
    },
    {
      "pitch": 58,
      "velocity": 80,
      "startTime": 106.55833499999994,
      "endTime": 106.75232831249994,
      "instrument": 0,
      "program": 30,
      "isDrum": false
    },
    {
      "pitch": 48,
      "velocity": 80,
      "startTime": 107.53235999999994,
      "endTime": 107.72635331249994,
      "instrument": 0,
      "program": 30,
      "isDrum": false
    },
    {
      "pitch": 55,
      "velocity": 80,
      "startTime": 107.53235999999994,
      "endTime": 107.72635331249994,
      "instrument": 0,
      "program": 30,
      "isDrum": false
    },
    {
      "pitch": 60,
      "velocity": 80,
      "startTime": 107.53235999999994,
      "endTime": 107.72635331249994,
      "instrument": 0,
      "program": 30,
      "isDrum": false
    },
    {
      "pitch": 48,
      "velocity": 80,
      "startTime": 107.72716499999994,
      "endTime": 107.92115831249994,
      "instrument": 0,
      "program": 30,
      "isDrum": false
    },
    {
      "pitch": 55,
      "velocity": 80,
      "startTime": 107.72716499999994,
      "endTime": 107.92115831249994,
      "instrument": 0,
      "program": 30,
      "isDrum": false
    },
    {
      "pitch": 60,
      "velocity": 80,
      "startTime": 107.72716499999994,
      "endTime": 107.92115831249994,
      "instrument": 0,
      "program": 30,
      "isDrum": false
    },
    {
      "pitch": 48,
      "velocity": 80,
      "startTime": 107.92196999999994,
      "endTime": 108.11596331249994,
      "instrument": 0,
      "program": 30,
      "isDrum": false
    },
    {
      "pitch": 55,
      "velocity": 80,
      "startTime": 107.92196999999994,
      "endTime": 108.11596331249994,
      "instrument": 0,
      "program": 30,
      "isDrum": false
    },
    {
      "pitch": 60,
      "velocity": 80,
      "startTime": 107.92196999999994,
      "endTime": 108.11596331249994,
      "instrument": 0,
      "program": 30,
      "isDrum": false
    },
    {
      "pitch": 48,
      "velocity": 80,
      "startTime": 108.11677499999995,
      "endTime": 108.31076831249995,
      "instrument": 0,
      "program": 30,
      "isDrum": false
    },
    {
      "pitch": 55,
      "velocity": 80,
      "startTime": 108.11677499999995,
      "endTime": 108.31076831249995,
      "instrument": 0,
      "program": 30,
      "isDrum": false
    },
    {
      "pitch": 60,
      "velocity": 80,
      "startTime": 108.11677499999995,
      "endTime": 108.31076831249995,
      "instrument": 0,
      "program": 30,
      "isDrum": false
    },
    {
      "pitch": 50,
      "velocity": 80,
      "startTime": 109.09079999999994,
      "endTime": 109.28479331249994,
      "instrument": 0,
      "program": 30,
      "isDrum": false
    },
    {
      "pitch": 57,
      "velocity": 80,
      "startTime": 109.09079999999994,
      "endTime": 109.28479331249994,
      "instrument": 0,
      "program": 30,
      "isDrum": false
    },
    {
      "pitch": 62,
      "velocity": 80,
      "startTime": 109.09079999999994,
      "endTime": 109.28479331249994,
      "instrument": 0,
      "program": 30,
      "isDrum": false
    },
    {
      "pitch": 50,
      "velocity": 80,
      "startTime": 109.28560499999995,
      "endTime": 109.47959831249995,
      "instrument": 0,
      "program": 30,
      "isDrum": false
    },
    {
      "pitch": 57,
      "velocity": 80,
      "startTime": 109.28560499999995,
      "endTime": 109.47959831249995,
      "instrument": 0,
      "program": 30,
      "isDrum": false
    },
    {
      "pitch": 62,
      "velocity": 80,
      "startTime": 109.28560499999995,
      "endTime": 109.47959831249995,
      "instrument": 0,
      "program": 30,
      "isDrum": false
    },
    {
      "pitch": 50,
      "velocity": 80,
      "startTime": 109.48040999999995,
      "endTime": 109.67440331249995,
      "instrument": 0,
      "program": 30,
      "isDrum": false
    },
    {
      "pitch": 57,
      "velocity": 80,
      "startTime": 109.48040999999995,
      "endTime": 109.67440331249995,
      "instrument": 0,
      "program": 30,
      "isDrum": false
    },
    {
      "pitch": 62,
      "velocity": 80,
      "startTime": 109.48040999999995,
      "endTime": 109.67440331249995,
      "instrument": 0,
      "program": 30,
      "isDrum": false
    },
    {
      "pitch": 50,
      "velocity": 80,
      "startTime": 109.67521499999995,
      "endTime": 109.86920831249995,
      "instrument": 0,
      "program": 30,
      "isDrum": false
    },
    {
      "pitch": 57,
      "velocity": 80,
      "startTime": 109.67521499999995,
      "endTime": 109.86920831249995,
      "instrument": 0,
      "program": 30,
      "isDrum": false
    },
    {
      "pitch": 62,
      "velocity": 80,
      "startTime": 109.67521499999995,
      "endTime": 109.86920831249995,
      "instrument": 0,
      "program": 30,
      "isDrum": false
    },
    {
      "pitch": 50,
      "velocity": 80,
      "startTime": 109.87001999999995,
      "endTime": 110.06401331249995,
      "instrument": 0,
      "program": 30,
      "isDrum": false
    },
    {
      "pitch": 57,
      "velocity": 80,
      "startTime": 109.87001999999995,
      "endTime": 110.06401331249995,
      "instrument": 0,
      "program": 30,
      "isDrum": false
    },
    {
      "pitch": 62,
      "velocity": 80,
      "startTime": 109.87001999999995,
      "endTime": 110.06401331249995,
      "instrument": 0,
      "program": 30,
      "isDrum": false
    },
    {
      "pitch": 45,
      "velocity": 80,
      "startTime": 110.06482499999996,
      "endTime": 110.25881831249995,
      "instrument": 0,
      "program": 30,
      "isDrum": false
    },
    {
      "pitch": 50,
      "velocity": 80,
      "startTime": 110.06482499999996,
      "endTime": 110.25881831249995,
      "instrument": 0,
      "program": 30,
      "isDrum": false
    },
    {
      "pitch": 55,
      "velocity": 80,
      "startTime": 110.06482499999996,
      "endTime": 110.25881831249995,
      "instrument": 0,
      "program": 30,
      "isDrum": false
    },
    {
      "pitch": 50,
      "velocity": 80,
      "startTime": 110.25962999999996,
      "endTime": 110.45362331249996,
      "instrument": 0,
      "program": 30,
      "isDrum": false
    },
    {
      "pitch": 57,
      "velocity": 80,
      "startTime": 110.25962999999996,
      "endTime": 110.45362331249996,
      "instrument": 0,
      "program": 30,
      "isDrum": false
    },
    {
      "pitch": 62,
      "velocity": 80,
      "startTime": 110.25962999999996,
      "endTime": 110.45362331249996,
      "instrument": 0,
      "program": 30,
      "isDrum": false
    },
    {
      "pitch": 45,
      "velocity": 80,
      "startTime": 110.45443499999996,
      "endTime": 110.64842831249996,
      "instrument": 0,
      "program": 30,
      "isDrum": false
    },
    {
      "pitch": 50,
      "velocity": 80,
      "startTime": 110.45443499999996,
      "endTime": 110.64842831249996,
      "instrument": 0,
      "program": 30,
      "isDrum": false
    },
    {
      "pitch": 55,
      "velocity": 80,
      "startTime": 110.45443499999996,
      "endTime": 110.64842831249996,
      "instrument": 0,
      "program": 30,
      "isDrum": false
    },
    {
      "pitch": 48,
      "velocity": 80,
      "startTime": 110.64923999999996,
      "endTime": 110.84323331249996,
      "instrument": 0,
      "program": 30,
      "isDrum": false
    },
    {
      "pitch": 55,
      "velocity": 80,
      "startTime": 110.64923999999996,
      "endTime": 110.84323331249996,
      "instrument": 0,
      "program": 30,
      "isDrum": false
    },
    {
      "pitch": 60,
      "velocity": 80,
      "startTime": 110.64923999999996,
      "endTime": 110.84323331249996,
      "instrument": 0,
      "program": 30,
      "isDrum": false
    },
    {
      "pitch": 43,
      "velocity": 80,
      "startTime": 112.20767999999997,
      "endTime": 112.40167331249997,
      "instrument": 0,
      "program": 30,
      "isDrum": false
    },
    {
      "pitch": 50,
      "velocity": 80,
      "startTime": 112.20767999999997,
      "endTime": 112.40167331249997,
      "instrument": 0,
      "program": 30,
      "isDrum": false
    },
    {
      "pitch": 55,
      "velocity": 80,
      "startTime": 112.20767999999997,
      "endTime": 112.40167331249997,
      "instrument": 0,
      "program": 30,
      "isDrum": false
    },
    {
      "pitch": 43,
      "velocity": 80,
      "startTime": 112.40248499999997,
      "endTime": 112.59647831249997,
      "instrument": 0,
      "program": 30,
      "isDrum": false
    },
    {
      "pitch": 50,
      "velocity": 80,
      "startTime": 112.40248499999997,
      "endTime": 112.59647831249997,
      "instrument": 0,
      "program": 30,
      "isDrum": false
    },
    {
      "pitch": 55,
      "velocity": 80,
      "startTime": 112.40248499999997,
      "endTime": 112.59647831249997,
      "instrument": 0,
      "program": 30,
      "isDrum": false
    },
    {
      "pitch": 43,
      "velocity": 80,
      "startTime": 112.59728999999997,
      "endTime": 112.79128331249997,
      "instrument": 0,
      "program": 30,
      "isDrum": false
    },
    {
      "pitch": 50,
      "velocity": 80,
      "startTime": 112.59728999999997,
      "endTime": 112.79128331249997,
      "instrument": 0,
      "program": 30,
      "isDrum": false
    },
    {
      "pitch": 55,
      "velocity": 80,
      "startTime": 112.59728999999997,
      "endTime": 112.79128331249997,
      "instrument": 0,
      "program": 30,
      "isDrum": false
    },
    {
      "pitch": 43,
      "velocity": 80,
      "startTime": 112.79209499999997,
      "endTime": 112.98608831249997,
      "instrument": 0,
      "program": 30,
      "isDrum": false
    },
    {
      "pitch": 50,
      "velocity": 80,
      "startTime": 112.79209499999997,
      "endTime": 112.98608831249997,
      "instrument": 0,
      "program": 30,
      "isDrum": false
    },
    {
      "pitch": 55,
      "velocity": 80,
      "startTime": 112.79209499999997,
      "endTime": 112.98608831249997,
      "instrument": 0,
      "program": 30,
      "isDrum": false
    },
    {
      "pitch": 46,
      "velocity": 80,
      "startTime": 113.18170499999998,
      "endTime": 113.37569831249998,
      "instrument": 0,
      "program": 30,
      "isDrum": false
    },
    {
      "pitch": 53,
      "velocity": 80,
      "startTime": 113.18170499999998,
      "endTime": 113.37569831249998,
      "instrument": 0,
      "program": 30,
      "isDrum": false
    },
    {
      "pitch": 58,
      "velocity": 80,
      "startTime": 113.18170499999998,
      "endTime": 113.37569831249998,
      "instrument": 0,
      "program": 30,
      "isDrum": false
    },
    {
      "pitch": 46,
      "velocity": 80,
      "startTime": 113.37650999999998,
      "endTime": 113.57050331249998,
      "instrument": 0,
      "program": 30,
      "isDrum": false
    },
    {
      "pitch": 53,
      "velocity": 80,
      "startTime": 113.37650999999998,
      "endTime": 113.57050331249998,
      "instrument": 0,
      "program": 30,
      "isDrum": false
    },
    {
      "pitch": 58,
      "velocity": 80,
      "startTime": 113.37650999999998,
      "endTime": 113.57050331249998,
      "instrument": 0,
      "program": 30,
      "isDrum": false
    },
    {
      "pitch": 51,
      "velocity": 80,
      "startTime": 113.76611999999999,
      "endTime": 113.96011331249998,
      "instrument": 0,
      "program": 30,
      "isDrum": false
    },
    {
      "pitch": 58,
      "velocity": 80,
      "startTime": 113.76611999999999,
      "endTime": 113.96011331249998,
      "instrument": 0,
      "program": 30,
      "isDrum": false
    },
    {
      "pitch": 63,
      "velocity": 80,
      "startTime": 113.76611999999999,
      "endTime": 113.96011331249998,
      "instrument": 0,
      "program": 30,
      "isDrum": false
    },
    {
      "pitch": 51,
      "velocity": 80,
      "startTime": 113.96092499999999,
      "endTime": 114.15491831249999,
      "instrument": 0,
      "program": 30,
      "isDrum": false
    },
    {
      "pitch": 58,
      "velocity": 80,
      "startTime": 113.96092499999999,
      "endTime": 114.15491831249999,
      "instrument": 0,
      "program": 30,
      "isDrum": false
    },
    {
      "pitch": 63,
      "velocity": 80,
      "startTime": 113.96092499999999,
      "endTime": 114.15491831249999,
      "instrument": 0,
      "program": 30,
      "isDrum": false
    },
    {
      "pitch": 51,
      "velocity": 80,
      "startTime": 114.15572999999999,
      "endTime": 114.34972331249999,
      "instrument": 0,
      "program": 30,
      "isDrum": false
    },
    {
      "pitch": 58,
      "velocity": 80,
      "startTime": 114.15572999999999,
      "endTime": 114.34972331249999,
      "instrument": 0,
      "program": 30,
      "isDrum": false
    },
    {
      "pitch": 63,
      "velocity": 80,
      "startTime": 114.15572999999999,
      "endTime": 114.34972331249999,
      "instrument": 0,
      "program": 30,
      "isDrum": false
    },
    {
      "pitch": 51,
      "velocity": 80,
      "startTime": 114.350535,
      "endTime": 114.54452831249999,
      "instrument": 0,
      "program": 30,
      "isDrum": false
    },
    {
      "pitch": 58,
      "velocity": 80,
      "startTime": 114.350535,
      "endTime": 114.54452831249999,
      "instrument": 0,
      "program": 30,
      "isDrum": false
    },
    {
      "pitch": 63,
      "velocity": 80,
      "startTime": 114.350535,
      "endTime": 114.54452831249999,
      "instrument": 0,
      "program": 30,
      "isDrum": false
    },
    {
      "pitch": 48,
      "velocity": 80,
      "startTime": 114.740145,
      "endTime": 114.9341383125,
      "instrument": 0,
      "program": 30,
      "isDrum": false
    },
    {
      "pitch": 55,
      "velocity": 80,
      "startTime": 114.740145,
      "endTime": 114.9341383125,
      "instrument": 0,
      "program": 30,
      "isDrum": false
    },
    {
      "pitch": 60,
      "velocity": 80,
      "startTime": 114.740145,
      "endTime": 114.9341383125,
      "instrument": 0,
      "program": 30,
      "isDrum": false
    },
    {
      "pitch": 48,
      "velocity": 80,
      "startTime": 114.93495,
      "endTime": 115.1289433125,
      "instrument": 0,
      "program": 30,
      "isDrum": false
    },
    {
      "pitch": 55,
      "velocity": 80,
      "startTime": 114.93495,
      "endTime": 115.1289433125,
      "instrument": 0,
      "program": 30,
      "isDrum": false
    },
    {
      "pitch": 60,
      "velocity": 80,
      "startTime": 114.93495,
      "endTime": 115.1289433125,
      "instrument": 0,
      "program": 30,
      "isDrum": false
    },
    {
      "pitch": 43,
      "velocity": 80,
      "startTime": 115.32456,
      "endTime": 115.5185533125,
      "instrument": 0,
      "program": 30,
      "isDrum": false
    },
    {
      "pitch": 50,
      "velocity": 80,
      "startTime": 115.32456,
      "endTime": 115.5185533125,
      "instrument": 0,
      "program": 30,
      "isDrum": false
    },
    {
      "pitch": 55,
      "velocity": 80,
      "startTime": 115.32456,
      "endTime": 115.5185533125,
      "instrument": 0,
      "program": 30,
      "isDrum": false
    },
    {
      "pitch": 43,
      "velocity": 80,
      "startTime": 115.51936500000001,
      "endTime": 115.7133583125,
      "instrument": 0,
      "program": 30,
      "isDrum": false
    },
    {
      "pitch": 50,
      "velocity": 80,
      "startTime": 115.51936500000001,
      "endTime": 115.7133583125,
      "instrument": 0,
      "program": 30,
      "isDrum": false
    },
    {
      "pitch": 55,
      "velocity": 80,
      "startTime": 115.51936500000001,
      "endTime": 115.7133583125,
      "instrument": 0,
      "program": 30,
      "isDrum": false
    },
    {
      "pitch": 43,
      "velocity": 80,
      "startTime": 115.71417000000001,
      "endTime": 115.90816331250001,
      "instrument": 0,
      "program": 30,
      "isDrum": false
    },
    {
      "pitch": 50,
      "velocity": 80,
      "startTime": 115.71417000000001,
      "endTime": 115.90816331250001,
      "instrument": 0,
      "program": 30,
      "isDrum": false
    },
    {
      "pitch": 55,
      "velocity": 80,
      "startTime": 115.71417000000001,
      "endTime": 115.90816331250001,
      "instrument": 0,
      "program": 30,
      "isDrum": false
    },
    {
      "pitch": 43,
      "velocity": 80,
      "startTime": 115.90897500000001,
      "endTime": 116.10296831250001,
      "instrument": 0,
      "program": 30,
      "isDrum": false
    },
    {
      "pitch": 50,
      "velocity": 80,
      "startTime": 115.90897500000001,
      "endTime": 116.10296831250001,
      "instrument": 0,
      "program": 30,
      "isDrum": false
    },
    {
      "pitch": 55,
      "velocity": 80,
      "startTime": 115.90897500000001,
      "endTime": 116.10296831250001,
      "instrument": 0,
      "program": 30,
      "isDrum": false
    },
    {
      "pitch": 46,
      "velocity": 80,
      "startTime": 116.29858500000002,
      "endTime": 116.49257831250002,
      "instrument": 0,
      "program": 30,
      "isDrum": false
    },
    {
      "pitch": 53,
      "velocity": 80,
      "startTime": 116.29858500000002,
      "endTime": 116.49257831250002,
      "instrument": 0,
      "program": 30,
      "isDrum": false
    },
    {
      "pitch": 58,
      "velocity": 80,
      "startTime": 116.29858500000002,
      "endTime": 116.49257831250002,
      "instrument": 0,
      "program": 30,
      "isDrum": false
    },
    {
      "pitch": 46,
      "velocity": 80,
      "startTime": 116.49339000000002,
      "endTime": 116.68738331250002,
      "instrument": 0,
      "program": 30,
      "isDrum": false
    },
    {
      "pitch": 53,
      "velocity": 80,
      "startTime": 116.49339000000002,
      "endTime": 116.68738331250002,
      "instrument": 0,
      "program": 30,
      "isDrum": false
    },
    {
      "pitch": 58,
      "velocity": 80,
      "startTime": 116.49339000000002,
      "endTime": 116.68738331250002,
      "instrument": 0,
      "program": 30,
      "isDrum": false
    },
    {
      "pitch": 51,
      "velocity": 80,
      "startTime": 116.88300000000002,
      "endTime": 117.07699331250002,
      "instrument": 0,
      "program": 30,
      "isDrum": false
    },
    {
      "pitch": 58,
      "velocity": 80,
      "startTime": 116.88300000000002,
      "endTime": 117.07699331250002,
      "instrument": 0,
      "program": 30,
      "isDrum": false
    },
    {
      "pitch": 63,
      "velocity": 80,
      "startTime": 116.88300000000002,
      "endTime": 117.07699331250002,
      "instrument": 0,
      "program": 30,
      "isDrum": false
    },
    {
      "pitch": 51,
      "velocity": 80,
      "startTime": 117.07780500000003,
      "endTime": 117.27179831250002,
      "instrument": 0,
      "program": 30,
      "isDrum": false
    },
    {
      "pitch": 58,
      "velocity": 80,
      "startTime": 117.07780500000003,
      "endTime": 117.27179831250002,
      "instrument": 0,
      "program": 30,
      "isDrum": false
    },
    {
      "pitch": 63,
      "velocity": 80,
      "startTime": 117.07780500000003,
      "endTime": 117.27179831250002,
      "instrument": 0,
      "program": 30,
      "isDrum": false
    },
    {
      "pitch": 51,
      "velocity": 80,
      "startTime": 117.27261000000003,
      "endTime": 117.46660331250003,
      "instrument": 0,
      "program": 30,
      "isDrum": false
    },
    {
      "pitch": 58,
      "velocity": 80,
      "startTime": 117.27261000000003,
      "endTime": 117.46660331250003,
      "instrument": 0,
      "program": 30,
      "isDrum": false
    },
    {
      "pitch": 63,
      "velocity": 80,
      "startTime": 117.27261000000003,
      "endTime": 117.46660331250003,
      "instrument": 0,
      "program": 30,
      "isDrum": false
    },
    {
      "pitch": 51,
      "velocity": 80,
      "startTime": 117.46741500000003,
      "endTime": 117.66140831250003,
      "instrument": 0,
      "program": 30,
      "isDrum": false
    },
    {
      "pitch": 58,
      "velocity": 80,
      "startTime": 117.46741500000003,
      "endTime": 117.66140831250003,
      "instrument": 0,
      "program": 30,
      "isDrum": false
    },
    {
      "pitch": 63,
      "velocity": 80,
      "startTime": 117.46741500000003,
      "endTime": 117.66140831250003,
      "instrument": 0,
      "program": 30,
      "isDrum": false
    },
    {
      "pitch": 48,
      "velocity": 80,
      "startTime": 117.85702500000004,
      "endTime": 118.05101831250003,
      "instrument": 0,
      "program": 30,
      "isDrum": false
    },
    {
      "pitch": 55,
      "velocity": 80,
      "startTime": 117.85702500000004,
      "endTime": 118.05101831250003,
      "instrument": 0,
      "program": 30,
      "isDrum": false
    },
    {
      "pitch": 60,
      "velocity": 80,
      "startTime": 117.85702500000004,
      "endTime": 118.05101831250003,
      "instrument": 0,
      "program": 30,
      "isDrum": false
    },
    {
      "pitch": 48,
      "velocity": 80,
      "startTime": 118.05183000000004,
      "endTime": 118.24582331250004,
      "instrument": 0,
      "program": 30,
      "isDrum": false
    },
    {
      "pitch": 55,
      "velocity": 80,
      "startTime": 118.05183000000004,
      "endTime": 118.24582331250004,
      "instrument": 0,
      "program": 30,
      "isDrum": false
    },
    {
      "pitch": 60,
      "velocity": 80,
      "startTime": 118.05183000000004,
      "endTime": 118.24582331250004,
      "instrument": 0,
      "program": 30,
      "isDrum": false
    },
    {
      "pitch": 43,
      "velocity": 80,
      "startTime": 118.44144000000004,
      "endTime": 118.63543331250004,
      "instrument": 0,
      "program": 30,
      "isDrum": false
    },
    {
      "pitch": 50,
      "velocity": 80,
      "startTime": 118.44144000000004,
      "endTime": 118.63543331250004,
      "instrument": 0,
      "program": 30,
      "isDrum": false
    },
    {
      "pitch": 55,
      "velocity": 80,
      "startTime": 118.44144000000004,
      "endTime": 118.63543331250004,
      "instrument": 0,
      "program": 30,
      "isDrum": false
    },
    {
      "pitch": 43,
      "velocity": 80,
      "startTime": 118.63624500000005,
      "endTime": 118.83023831250004,
      "instrument": 0,
      "program": 30,
      "isDrum": false
    },
    {
      "pitch": 50,
      "velocity": 80,
      "startTime": 118.63624500000005,
      "endTime": 118.83023831250004,
      "instrument": 0,
      "program": 30,
      "isDrum": false
    },
    {
      "pitch": 55,
      "velocity": 80,
      "startTime": 118.63624500000005,
      "endTime": 118.83023831250004,
      "instrument": 0,
      "program": 30,
      "isDrum": false
    },
    {
      "pitch": 43,
      "velocity": 80,
      "startTime": 118.83105000000005,
      "endTime": 119.02504331250005,
      "instrument": 0,
      "program": 30,
      "isDrum": false
    },
    {
      "pitch": 50,
      "velocity": 80,
      "startTime": 118.83105000000005,
      "endTime": 119.02504331250005,
      "instrument": 0,
      "program": 30,
      "isDrum": false
    },
    {
      "pitch": 55,
      "velocity": 80,
      "startTime": 118.83105000000005,
      "endTime": 119.02504331250005,
      "instrument": 0,
      "program": 30,
      "isDrum": false
    },
    {
      "pitch": 43,
      "velocity": 80,
      "startTime": 119.02585500000005,
      "endTime": 119.21984831250005,
      "instrument": 0,
      "program": 30,
      "isDrum": false
    },
    {
      "pitch": 50,
      "velocity": 80,
      "startTime": 119.02585500000005,
      "endTime": 119.21984831250005,
      "instrument": 0,
      "program": 30,
      "isDrum": false
    },
    {
      "pitch": 55,
      "velocity": 80,
      "startTime": 119.02585500000005,
      "endTime": 119.21984831250005,
      "instrument": 0,
      "program": 30,
      "isDrum": false
    },
    {
      "pitch": 46,
      "velocity": 80,
      "startTime": 119.41546500000005,
      "endTime": 119.60945831250005,
      "instrument": 0,
      "program": 30,
      "isDrum": false
    },
    {
      "pitch": 53,
      "velocity": 80,
      "startTime": 119.41546500000005,
      "endTime": 119.60945831250005,
      "instrument": 0,
      "program": 30,
      "isDrum": false
    },
    {
      "pitch": 58,
      "velocity": 80,
      "startTime": 119.41546500000005,
      "endTime": 119.60945831250005,
      "instrument": 0,
      "program": 30,
      "isDrum": false
    },
    {
      "pitch": 46,
      "velocity": 80,
      "startTime": 119.61027000000006,
      "endTime": 119.80426331250005,
      "instrument": 0,
      "program": 30,
      "isDrum": false
    },
    {
      "pitch": 53,
      "velocity": 80,
      "startTime": 119.61027000000006,
      "endTime": 119.80426331250005,
      "instrument": 0,
      "program": 30,
      "isDrum": false
    },
    {
      "pitch": 58,
      "velocity": 80,
      "startTime": 119.61027000000006,
      "endTime": 119.80426331250005,
      "instrument": 0,
      "program": 30,
      "isDrum": false
    },
    {
      "pitch": 51,
      "velocity": 80,
      "startTime": 119.99988000000006,
      "endTime": 120.19387331250006,
      "instrument": 0,
      "program": 30,
      "isDrum": false
    },
    {
      "pitch": 58,
      "velocity": 80,
      "startTime": 119.99988000000006,
      "endTime": 120.19387331250006,
      "instrument": 0,
      "program": 30,
      "isDrum": false
    },
    {
      "pitch": 63,
      "velocity": 80,
      "startTime": 119.99988000000006,
      "endTime": 120.19387331250006,
      "instrument": 0,
      "program": 30,
      "isDrum": false
    },
    {
      "pitch": 51,
      "velocity": 80,
      "startTime": 120.19468500000006,
      "endTime": 120.38867831250006,
      "instrument": 0,
      "program": 30,
      "isDrum": false
    },
    {
      "pitch": 58,
      "velocity": 80,
      "startTime": 120.19468500000006,
      "endTime": 120.38867831250006,
      "instrument": 0,
      "program": 30,
      "isDrum": false
    },
    {
      "pitch": 63,
      "velocity": 80,
      "startTime": 120.19468500000006,
      "endTime": 120.38867831250006,
      "instrument": 0,
      "program": 30,
      "isDrum": false
    },
    {
      "pitch": 51,
      "velocity": 80,
      "startTime": 120.38949000000007,
      "endTime": 120.58348331250006,
      "instrument": 0,
      "program": 30,
      "isDrum": false
    },
    {
      "pitch": 58,
      "velocity": 80,
      "startTime": 120.38949000000007,
      "endTime": 120.58348331250006,
      "instrument": 0,
      "program": 30,
      "isDrum": false
    },
    {
      "pitch": 63,
      "velocity": 80,
      "startTime": 120.38949000000007,
      "endTime": 120.58348331250006,
      "instrument": 0,
      "program": 30,
      "isDrum": false
    },
    {
      "pitch": 51,
      "velocity": 80,
      "startTime": 120.58429500000007,
      "endTime": 120.77828831250007,
      "instrument": 0,
      "program": 30,
      "isDrum": false
    },
    {
      "pitch": 58,
      "velocity": 80,
      "startTime": 120.58429500000007,
      "endTime": 120.77828831250007,
      "instrument": 0,
      "program": 30,
      "isDrum": false
    },
    {
      "pitch": 63,
      "velocity": 80,
      "startTime": 120.58429500000007,
      "endTime": 120.77828831250007,
      "instrument": 0,
      "program": 30,
      "isDrum": false
    },
    {
      "pitch": 48,
      "velocity": 80,
      "startTime": 120.97390500000007,
      "endTime": 121.16789831250007,
      "instrument": 0,
      "program": 30,
      "isDrum": false
    },
    {
      "pitch": 55,
      "velocity": 80,
      "startTime": 120.97390500000007,
      "endTime": 121.16789831250007,
      "instrument": 0,
      "program": 30,
      "isDrum": false
    },
    {
      "pitch": 60,
      "velocity": 80,
      "startTime": 120.97390500000007,
      "endTime": 121.16789831250007,
      "instrument": 0,
      "program": 30,
      "isDrum": false
    },
    {
      "pitch": 48,
      "velocity": 80,
      "startTime": 121.16871000000008,
      "endTime": 121.36270331250007,
      "instrument": 0,
      "program": 30,
      "isDrum": false
    },
    {
      "pitch": 55,
      "velocity": 80,
      "startTime": 121.16871000000008,
      "endTime": 121.36270331250007,
      "instrument": 0,
      "program": 30,
      "isDrum": false
    },
    {
      "pitch": 60,
      "velocity": 80,
      "startTime": 121.16871000000008,
      "endTime": 121.36270331250007,
      "instrument": 0,
      "program": 30,
      "isDrum": false
    },
    {
      "pitch": 43,
      "velocity": 80,
      "startTime": 121.55832000000008,
      "endTime": 121.75231331250008,
      "instrument": 0,
      "program": 30,
      "isDrum": false
    },
    {
      "pitch": 50,
      "velocity": 80,
      "startTime": 121.55832000000008,
      "endTime": 121.75231331250008,
      "instrument": 0,
      "program": 30,
      "isDrum": false
    },
    {
      "pitch": 55,
      "velocity": 80,
      "startTime": 121.55832000000008,
      "endTime": 121.75231331250008,
      "instrument": 0,
      "program": 30,
      "isDrum": false
    },
    {
      "pitch": 43,
      "velocity": 80,
      "startTime": 121.75312500000008,
      "endTime": 121.94711831250008,
      "instrument": 0,
      "program": 30,
      "isDrum": false
    },
    {
      "pitch": 50,
      "velocity": 80,
      "startTime": 121.75312500000008,
      "endTime": 121.94711831250008,
      "instrument": 0,
      "program": 30,
      "isDrum": false
    },
    {
      "pitch": 55,
      "velocity": 80,
      "startTime": 121.75312500000008,
      "endTime": 121.94711831250008,
      "instrument": 0,
      "program": 30,
      "isDrum": false
    },
    {
      "pitch": 43,
      "velocity": 80,
      "startTime": 121.94793000000008,
      "endTime": 122.14192331250008,
      "instrument": 0,
      "program": 30,
      "isDrum": false
    },
    {
      "pitch": 50,
      "velocity": 80,
      "startTime": 121.94793000000008,
      "endTime": 122.14192331250008,
      "instrument": 0,
      "program": 30,
      "isDrum": false
    },
    {
      "pitch": 55,
      "velocity": 80,
      "startTime": 121.94793000000008,
      "endTime": 122.14192331250008,
      "instrument": 0,
      "program": 30,
      "isDrum": false
    },
    {
      "pitch": 43,
      "velocity": 80,
      "startTime": 122.14273500000009,
      "endTime": 122.33672831250009,
      "instrument": 0,
      "program": 30,
      "isDrum": false
    },
    {
      "pitch": 50,
      "velocity": 80,
      "startTime": 122.14273500000009,
      "endTime": 122.33672831250009,
      "instrument": 0,
      "program": 30,
      "isDrum": false
    },
    {
      "pitch": 55,
      "velocity": 80,
      "startTime": 122.14273500000009,
      "endTime": 122.33672831250009,
      "instrument": 0,
      "program": 30,
      "isDrum": false
    },
    {
      "pitch": 46,
      "velocity": 80,
      "startTime": 122.53234500000009,
      "endTime": 122.72633831250009,
      "instrument": 0,
      "program": 30,
      "isDrum": false
    },
    {
      "pitch": 53,
      "velocity": 80,
      "startTime": 122.53234500000009,
      "endTime": 122.72633831250009,
      "instrument": 0,
      "program": 30,
      "isDrum": false
    },
    {
      "pitch": 58,
      "velocity": 80,
      "startTime": 122.53234500000009,
      "endTime": 122.72633831250009,
      "instrument": 0,
      "program": 30,
      "isDrum": false
    },
    {
      "pitch": 46,
      "velocity": 80,
      "startTime": 122.7271500000001,
      "endTime": 122.92114331250009,
      "instrument": 0,
      "program": 30,
      "isDrum": false
    },
    {
      "pitch": 53,
      "velocity": 80,
      "startTime": 122.7271500000001,
      "endTime": 122.92114331250009,
      "instrument": 0,
      "program": 30,
      "isDrum": false
    },
    {
      "pitch": 58,
      "velocity": 80,
      "startTime": 122.7271500000001,
      "endTime": 122.92114331250009,
      "instrument": 0,
      "program": 30,
      "isDrum": false
    },
    {
      "pitch": 51,
      "velocity": 80,
      "startTime": 123.1167600000001,
      "endTime": 123.3107533125001,
      "instrument": 0,
      "program": 30,
      "isDrum": false
    },
    {
      "pitch": 58,
      "velocity": 80,
      "startTime": 123.1167600000001,
      "endTime": 123.3107533125001,
      "instrument": 0,
      "program": 30,
      "isDrum": false
    },
    {
      "pitch": 63,
      "velocity": 80,
      "startTime": 123.1167600000001,
      "endTime": 123.3107533125001,
      "instrument": 0,
      "program": 30,
      "isDrum": false
    },
    {
      "pitch": 51,
      "velocity": 80,
      "startTime": 123.3115650000001,
      "endTime": 123.5055583125001,
      "instrument": 0,
      "program": 30,
      "isDrum": false
    },
    {
      "pitch": 58,
      "velocity": 80,
      "startTime": 123.3115650000001,
      "endTime": 123.5055583125001,
      "instrument": 0,
      "program": 30,
      "isDrum": false
    },
    {
      "pitch": 63,
      "velocity": 80,
      "startTime": 123.3115650000001,
      "endTime": 123.5055583125001,
      "instrument": 0,
      "program": 30,
      "isDrum": false
    },
    {
      "pitch": 51,
      "velocity": 80,
      "startTime": 123.5063700000001,
      "endTime": 123.7003633125001,
      "instrument": 0,
      "program": 30,
      "isDrum": false
    },
    {
      "pitch": 58,
      "velocity": 80,
      "startTime": 123.5063700000001,
      "endTime": 123.7003633125001,
      "instrument": 0,
      "program": 30,
      "isDrum": false
    },
    {
      "pitch": 63,
      "velocity": 80,
      "startTime": 123.5063700000001,
      "endTime": 123.7003633125001,
      "instrument": 0,
      "program": 30,
      "isDrum": false
    },
    {
      "pitch": 51,
      "velocity": 80,
      "startTime": 123.7011750000001,
      "endTime": 123.8951683125001,
      "instrument": 0,
      "program": 30,
      "isDrum": false
    },
    {
      "pitch": 58,
      "velocity": 80,
      "startTime": 123.7011750000001,
      "endTime": 123.8951683125001,
      "instrument": 0,
      "program": 30,
      "isDrum": false
    },
    {
      "pitch": 63,
      "velocity": 80,
      "startTime": 123.7011750000001,
      "endTime": 123.8951683125001,
      "instrument": 0,
      "program": 30,
      "isDrum": false
    },
    {
      "pitch": 48,
      "velocity": 80,
      "startTime": 124.09078500000011,
      "endTime": 124.28477831250011,
      "instrument": 0,
      "program": 30,
      "isDrum": false
    },
    {
      "pitch": 55,
      "velocity": 80,
      "startTime": 124.09078500000011,
      "endTime": 124.28477831250011,
      "instrument": 0,
      "program": 30,
      "isDrum": false
    },
    {
      "pitch": 60,
      "velocity": 80,
      "startTime": 124.09078500000011,
      "endTime": 124.28477831250011,
      "instrument": 0,
      "program": 30,
      "isDrum": false
    },
    {
      "pitch": 48,
      "velocity": 80,
      "startTime": 124.28559000000011,
      "endTime": 124.47958331250011,
      "instrument": 0,
      "program": 30,
      "isDrum": false
    },
    {
      "pitch": 55,
      "velocity": 80,
      "startTime": 124.28559000000011,
      "endTime": 124.47958331250011,
      "instrument": 0,
      "program": 30,
      "isDrum": false
    },
    {
      "pitch": 60,
      "velocity": 80,
      "startTime": 124.28559000000011,
      "endTime": 124.47958331250011,
      "instrument": 0,
      "program": 30,
      "isDrum": false
    },
    {
      "pitch": 43,
      "velocity": 64,
      "startTime": 124.67520000000012,
      "endTime": 124.86919331250012,
      "instrument": 0,
      "program": 30,
      "isDrum": false
    },
    {
      "pitch": 50,
      "velocity": 64,
      "startTime": 124.67520000000012,
      "endTime": 124.86919331250012,
      "instrument": 0,
      "program": 30,
      "isDrum": false
    },
    {
      "pitch": 55,
      "velocity": 64,
      "startTime": 124.67520000000012,
      "endTime": 124.86919331250012,
      "instrument": 0,
      "program": 30,
      "isDrum": false
    },
    {
      "pitch": 43,
      "velocity": 64,
      "startTime": 124.87000500000012,
      "endTime": 125.06399831250012,
      "instrument": 0,
      "program": 30,
      "isDrum": false
    },
    {
      "pitch": 50,
      "velocity": 64,
      "startTime": 124.87000500000012,
      "endTime": 125.06399831250012,
      "instrument": 0,
      "program": 30,
      "isDrum": false
    },
    {
      "pitch": 55,
      "velocity": 64,
      "startTime": 124.87000500000012,
      "endTime": 125.06399831250012,
      "instrument": 0,
      "program": 30,
      "isDrum": false
    },
    {
      "pitch": 43,
      "velocity": 64,
      "startTime": 125.06481000000012,
      "endTime": 125.25880331250012,
      "instrument": 0,
      "program": 30,
      "isDrum": false
    },
    {
      "pitch": 50,
      "velocity": 64,
      "startTime": 125.06481000000012,
      "endTime": 125.25880331250012,
      "instrument": 0,
      "program": 30,
      "isDrum": false
    },
    {
      "pitch": 55,
      "velocity": 64,
      "startTime": 125.06481000000012,
      "endTime": 125.25880331250012,
      "instrument": 0,
      "program": 30,
      "isDrum": false
    },
    {
      "pitch": 43,
      "velocity": 64,
      "startTime": 125.25961500000012,
      "endTime": 125.45360831250012,
      "instrument": 0,
      "program": 30,
      "isDrum": false
    },
    {
      "pitch": 50,
      "velocity": 64,
      "startTime": 125.25961500000012,
      "endTime": 125.45360831250012,
      "instrument": 0,
      "program": 30,
      "isDrum": false
    },
    {
      "pitch": 55,
      "velocity": 64,
      "startTime": 125.25961500000012,
      "endTime": 125.45360831250012,
      "instrument": 0,
      "program": 30,
      "isDrum": false
    },
    {
      "pitch": 46,
      "velocity": 64,
      "startTime": 125.64922500000013,
      "endTime": 125.84321831250013,
      "instrument": 0,
      "program": 30,
      "isDrum": false
    },
    {
      "pitch": 53,
      "velocity": 64,
      "startTime": 125.64922500000013,
      "endTime": 125.84321831250013,
      "instrument": 0,
      "program": 30,
      "isDrum": false
    },
    {
      "pitch": 58,
      "velocity": 64,
      "startTime": 125.64922500000013,
      "endTime": 125.84321831250013,
      "instrument": 0,
      "program": 30,
      "isDrum": false
    },
    {
      "pitch": 46,
      "velocity": 64,
      "startTime": 125.84403000000013,
      "endTime": 126.03802331250013,
      "instrument": 0,
      "program": 30,
      "isDrum": false
    },
    {
      "pitch": 53,
      "velocity": 64,
      "startTime": 125.84403000000013,
      "endTime": 126.03802331250013,
      "instrument": 0,
      "program": 30,
      "isDrum": false
    },
    {
      "pitch": 58,
      "velocity": 64,
      "startTime": 125.84403000000013,
      "endTime": 126.03802331250013,
      "instrument": 0,
      "program": 30,
      "isDrum": false
    },
    {
      "pitch": 51,
      "velocity": 49,
      "startTime": 126.23364000000014,
      "endTime": 126.42763331250013,
      "instrument": 0,
      "program": 30,
      "isDrum": false
    },
    {
      "pitch": 58,
      "velocity": 49,
      "startTime": 126.23364000000014,
      "endTime": 126.42763331250013,
      "instrument": 0,
      "program": 30,
      "isDrum": false
    },
    {
      "pitch": 63,
      "velocity": 49,
      "startTime": 126.23364000000014,
      "endTime": 126.42763331250013,
      "instrument": 0,
      "program": 30,
      "isDrum": false
    },
    {
      "pitch": 51,
      "velocity": 49,
      "startTime": 126.42844500000014,
      "endTime": 126.62243831250014,
      "instrument": 0,
      "program": 30,
      "isDrum": false
    },
    {
      "pitch": 58,
      "velocity": 49,
      "startTime": 126.42844500000014,
      "endTime": 126.62243831250014,
      "instrument": 0,
      "program": 30,
      "isDrum": false
    },
    {
      "pitch": 63,
      "velocity": 49,
      "startTime": 126.42844500000014,
      "endTime": 126.62243831250014,
      "instrument": 0,
      "program": 30,
      "isDrum": false
    },
    {
      "pitch": 51,
      "velocity": 49,
      "startTime": 126.62325000000014,
      "endTime": 126.81724331250014,
      "instrument": 0,
      "program": 30,
      "isDrum": false
    },
    {
      "pitch": 58,
      "velocity": 49,
      "startTime": 126.62325000000014,
      "endTime": 126.81724331250014,
      "instrument": 0,
      "program": 30,
      "isDrum": false
    },
    {
      "pitch": 63,
      "velocity": 49,
      "startTime": 126.62325000000014,
      "endTime": 126.81724331250014,
      "instrument": 0,
      "program": 30,
      "isDrum": false
    },
    {
      "pitch": 51,
      "velocity": 49,
      "startTime": 126.81805500000014,
      "endTime": 127.01204831250014,
      "instrument": 0,
      "program": 30,
      "isDrum": false
    },
    {
      "pitch": 58,
      "velocity": 49,
      "startTime": 126.81805500000014,
      "endTime": 127.01204831250014,
      "instrument": 0,
      "program": 30,
      "isDrum": false
    },
    {
      "pitch": 63,
      "velocity": 49,
      "startTime": 126.81805500000014,
      "endTime": 127.01204831250014,
      "instrument": 0,
      "program": 30,
      "isDrum": false
    },
    {
      "pitch": 48,
      "velocity": 49,
      "startTime": 127.20766500000015,
      "endTime": 127.40165831250015,
      "instrument": 0,
      "program": 30,
      "isDrum": false
    },
    {
      "pitch": 55,
      "velocity": 49,
      "startTime": 127.20766500000015,
      "endTime": 127.40165831250015,
      "instrument": 0,
      "program": 30,
      "isDrum": false
    },
    {
      "pitch": 60,
      "velocity": 49,
      "startTime": 127.20766500000015,
      "endTime": 127.40165831250015,
      "instrument": 0,
      "program": 30,
      "isDrum": false
    },
    {
      "pitch": 48,
      "velocity": 49,
      "startTime": 127.40247000000015,
      "endTime": 127.59646331250015,
      "instrument": 0,
      "program": 30,
      "isDrum": false
    },
    {
      "pitch": 55,
      "velocity": 49,
      "startTime": 127.40247000000015,
      "endTime": 127.59646331250015,
      "instrument": 0,
      "program": 30,
      "isDrum": false
    },
    {
      "pitch": 60,
      "velocity": 49,
      "startTime": 127.40247000000015,
      "endTime": 127.59646331250015,
      "instrument": 0,
      "program": 30,
      "isDrum": false
    },
    {
      "pitch": 43,
      "velocity": 33,
      "startTime": 127.79208000000015,
      "endTime": 127.98607331250015,
      "instrument": 0,
      "program": 30,
      "isDrum": false
    },
    {
      "pitch": 50,
      "velocity": 33,
      "startTime": 127.79208000000015,
      "endTime": 127.98607331250015,
      "instrument": 0,
      "program": 30,
      "isDrum": false
    },
    {
      "pitch": 55,
      "velocity": 33,
      "startTime": 127.79208000000015,
      "endTime": 127.98607331250015,
      "instrument": 0,
      "program": 30,
      "isDrum": false
    },
    {
      "pitch": 43,
      "velocity": 33,
      "startTime": 127.98688500000016,
      "endTime": 128.18087831250017,
      "instrument": 0,
      "program": 30,
      "isDrum": false
    },
    {
      "pitch": 50,
      "velocity": 33,
      "startTime": 127.98688500000016,
      "endTime": 128.18087831250017,
      "instrument": 0,
      "program": 30,
      "isDrum": false
    },
    {
      "pitch": 55,
      "velocity": 33,
      "startTime": 127.98688500000016,
      "endTime": 128.18087831250017,
      "instrument": 0,
      "program": 30,
      "isDrum": false
    },
    {
      "pitch": 43,
      "velocity": 33,
      "startTime": 128.18169000000017,
      "endTime": 128.37568331250017,
      "instrument": 0,
      "program": 30,
      "isDrum": false
    },
    {
      "pitch": 50,
      "velocity": 33,
      "startTime": 128.18169000000017,
      "endTime": 128.37568331250017,
      "instrument": 0,
      "program": 30,
      "isDrum": false
    },
    {
      "pitch": 55,
      "velocity": 33,
      "startTime": 128.18169000000017,
      "endTime": 128.37568331250017,
      "instrument": 0,
      "program": 30,
      "isDrum": false
    },
    {
      "pitch": 43,
      "velocity": 33,
      "startTime": 128.37649500000018,
      "endTime": 128.57048831250017,
      "instrument": 0,
      "program": 30,
      "isDrum": false
    },
    {
      "pitch": 50,
      "velocity": 33,
      "startTime": 128.37649500000018,
      "endTime": 128.57048831250017,
      "instrument": 0,
      "program": 30,
      "isDrum": false
    },
    {
      "pitch": 55,
      "velocity": 33,
      "startTime": 128.37649500000018,
      "endTime": 128.57048831250017,
      "instrument": 0,
      "program": 30,
      "isDrum": false
    },
    {
      "pitch": 46,
      "velocity": 33,
      "startTime": 128.76610500000018,
      "endTime": 128.96009831250018,
      "instrument": 0,
      "program": 30,
      "isDrum": false
    },
    {
      "pitch": 53,
      "velocity": 33,
      "startTime": 128.76610500000018,
      "endTime": 128.96009831250018,
      "instrument": 0,
      "program": 30,
      "isDrum": false
    },
    {
      "pitch": 58,
      "velocity": 33,
      "startTime": 128.76610500000018,
      "endTime": 128.96009831250018,
      "instrument": 0,
      "program": 30,
      "isDrum": false
    },
    {
      "pitch": 46,
      "velocity": 33,
      "startTime": 128.96091000000018,
      "endTime": 129.15490331250018,
      "instrument": 0,
      "program": 30,
      "isDrum": false
    },
    {
      "pitch": 53,
      "velocity": 33,
      "startTime": 128.96091000000018,
      "endTime": 129.15490331250018,
      "instrument": 0,
      "program": 30,
      "isDrum": false
    },
    {
      "pitch": 58,
      "velocity": 33,
      "startTime": 128.96091000000018,
      "endTime": 129.15490331250018,
      "instrument": 0,
      "program": 30,
      "isDrum": false
    },
    {
      "pitch": 51,
      "velocity": 16,
      "startTime": 129.3505200000002,
      "endTime": 129.5445133125002,
      "instrument": 0,
      "program": 30,
      "isDrum": false
    },
    {
      "pitch": 58,
      "velocity": 16,
      "startTime": 129.3505200000002,
      "endTime": 129.5445133125002,
      "instrument": 0,
      "program": 30,
      "isDrum": false
    },
    {
      "pitch": 63,
      "velocity": 16,
      "startTime": 129.3505200000002,
      "endTime": 129.5445133125002,
      "instrument": 0,
      "program": 30,
      "isDrum": false
    },
    {
      "pitch": 51,
      "velocity": 16,
      "startTime": 129.5453250000002,
      "endTime": 129.7393183125002,
      "instrument": 0,
      "program": 30,
      "isDrum": false
    },
    {
      "pitch": 58,
      "velocity": 16,
      "startTime": 129.5453250000002,
      "endTime": 129.7393183125002,
      "instrument": 0,
      "program": 30,
      "isDrum": false
    },
    {
      "pitch": 63,
      "velocity": 16,
      "startTime": 129.5453250000002,
      "endTime": 129.7393183125002,
      "instrument": 0,
      "program": 30,
      "isDrum": false
    },
    {
      "pitch": 51,
      "velocity": 16,
      "startTime": 129.7401300000002,
      "endTime": 129.9341233125002,
      "instrument": 0,
      "program": 30,
      "isDrum": false
    },
    {
      "pitch": 58,
      "velocity": 16,
      "startTime": 129.7401300000002,
      "endTime": 129.9341233125002,
      "instrument": 0,
      "program": 30,
      "isDrum": false
    },
    {
      "pitch": 63,
      "velocity": 16,
      "startTime": 129.7401300000002,
      "endTime": 129.9341233125002,
      "instrument": 0,
      "program": 30,
      "isDrum": false
    },
    {
      "pitch": 51,
      "velocity": 16,
      "startTime": 129.9349350000002,
      "endTime": 130.1289283125002,
      "instrument": 0,
      "program": 30,
      "isDrum": false
    },
    {
      "pitch": 58,
      "velocity": 16,
      "startTime": 129.9349350000002,
      "endTime": 130.1289283125002,
      "instrument": 0,
      "program": 30,
      "isDrum": false
    },
    {
      "pitch": 63,
      "velocity": 16,
      "startTime": 129.9349350000002,
      "endTime": 130.1289283125002,
      "instrument": 0,
      "program": 30,
      "isDrum": false
    },
    {
      "pitch": 48,
      "velocity": 16,
      "startTime": 130.3245450000002,
      "endTime": 130.5185383125002,
      "instrument": 0,
      "program": 30,
      "isDrum": false
    },
    {
      "pitch": 55,
      "velocity": 16,
      "startTime": 130.3245450000002,
      "endTime": 130.5185383125002,
      "instrument": 0,
      "program": 30,
      "isDrum": false
    },
    {
      "pitch": 60,
      "velocity": 16,
      "startTime": 130.3245450000002,
      "endTime": 130.5185383125002,
      "instrument": 0,
      "program": 30,
      "isDrum": false
    },
    {
      "pitch": 48,
      "velocity": 16,
      "startTime": 130.5193500000002,
      "endTime": 130.7133433125002,
      "instrument": 0,
      "program": 30,
      "isDrum": false
    },
    {
      "pitch": 55,
      "velocity": 16,
      "startTime": 130.5193500000002,
      "endTime": 130.7133433125002,
      "instrument": 0,
      "program": 30,
      "isDrum": false
    },
    {
      "pitch": 60,
      "velocity": 16,
      "startTime": 130.5193500000002,
      "endTime": 130.7133433125002,
      "instrument": 0,
      "program": 30,
      "isDrum": false
    },
    {
      "pitch": 31,
      "velocity": 80,
      "startTime": 11.883105,
      "endTime": 12.0770983125,
      "instrument": 1,
      "program": 37,
      "isDrum": false
    },
    {
      "pitch": 35,
      "velocity": 80,
      "startTime": 12.077910000000001,
      "endTime": 12.271903312500001,
      "instrument": 1,
      "program": 37,
      "isDrum": false
    },
    {
      "pitch": 38,
      "velocity": 80,
      "startTime": 12.272715000000002,
      "endTime": 12.466708312500002,
      "instrument": 1,
      "program": 37,
      "isDrum": false
    },
    {
      "pitch": 41,
      "velocity": 80,
      "startTime": 12.467520000000002,
      "endTime": 12.661513312500002,
      "instrument": 1,
      "program": 37,
      "isDrum": false
    },
    {
      "pitch": 41,
      "velocity": 80,
      "startTime": 12.662325000000003,
      "endTime": 12.856318312500003,
      "instrument": 1,
      "program": 37,
      "isDrum": false
    },
    {
      "pitch": 41,
      "velocity": 80,
      "startTime": 12.857130000000003,
      "endTime": 13.051123312500003,
      "instrument": 1,
      "program": 37,
      "isDrum": false
    },
    {
      "pitch": 41,
      "velocity": 80,
      "startTime": 13.051935000000004,
      "endTime": 13.245928312500004,
      "instrument": 1,
      "program": 37,
      "isDrum": false
    },
    {
      "pitch": 41,
      "velocity": 80,
      "startTime": 13.246740000000004,
      "endTime": 13.440733312500004,
      "instrument": 1,
      "program": 37,
      "isDrum": false
    },
    {
      "pitch": 41,
      "velocity": 80,
      "startTime": 13.441545000000005,
      "endTime": 13.635538312500005,
      "instrument": 1,
      "program": 37,
      "isDrum": false
    },
    {
      "pitch": 40,
      "velocity": 80,
      "startTime": 13.636350000000006,
      "endTime": 13.830343312500005,
      "instrument": 1,
      "program": 37,
      "isDrum": false
    },
    {
      "pitch": 41,
      "velocity": 80,
      "startTime": 13.831155000000006,
      "endTime": 14.025148312500006,
      "instrument": 1,
      "program": 37,
      "isDrum": false
    },
    {
      "pitch": 43,
      "velocity": 80,
      "startTime": 14.025960000000007,
      "endTime": 14.219953312500007,
      "instrument": 1,
      "program": 37,
      "isDrum": false
    },
    {
      "pitch": 31,
      "velocity": 80,
      "startTime": 14.999985000000006,
      "endTime": 15.193978312500006,
      "instrument": 1,
      "program": 37,
      "isDrum": false
    },
    {
      "pitch": 35,
      "velocity": 80,
      "startTime": 15.194790000000006,
      "endTime": 15.388783312500006,
      "instrument": 1,
      "program": 37,
      "isDrum": false
    },
    {
      "pitch": 38,
      "velocity": 80,
      "startTime": 15.389595000000007,
      "endTime": 15.583588312500007,
      "instrument": 1,
      "program": 37,
      "isDrum": false
    },
    {
      "pitch": 41,
      "velocity": 80,
      "startTime": 15.584400000000008,
      "endTime": 15.778393312500008,
      "instrument": 1,
      "program": 37,
      "isDrum": false
    },
    {
      "pitch": 41,
      "velocity": 80,
      "startTime": 15.779205000000008,
      "endTime": 15.973198312500008,
      "instrument": 1,
      "program": 37,
      "isDrum": false
    },
    {
      "pitch": 41,
      "velocity": 80,
      "startTime": 15.974010000000009,
      "endTime": 16.16800331250001,
      "instrument": 1,
      "program": 37,
      "isDrum": false
    },
    {
      "pitch": 41,
      "velocity": 80,
      "startTime": 16.16881500000001,
      "endTime": 16.36280831250001,
      "instrument": 1,
      "program": 37,
      "isDrum": false
    },
    {
      "pitch": 41,
      "velocity": 80,
      "startTime": 16.36362000000001,
      "endTime": 16.557613312500013,
      "instrument": 1,
      "program": 37,
      "isDrum": false
    },
    {
      "pitch": 41,
      "velocity": 80,
      "startTime": 16.558425000000014,
      "endTime": 16.752418312500016,
      "instrument": 1,
      "program": 37,
      "isDrum": false
    },
    {
      "pitch": 40,
      "velocity": 80,
      "startTime": 16.753230000000016,
      "endTime": 16.947223312500018,
      "instrument": 1,
      "program": 37,
      "isDrum": false
    },
    {
      "pitch": 41,
      "velocity": 80,
      "startTime": 16.94803500000002,
      "endTime": 17.14202831250002,
      "instrument": 1,
      "program": 37,
      "isDrum": false
    },
    {
      "pitch": 43,
      "velocity": 80,
      "startTime": 17.14284000000002,
      "endTime": 17.336833312500023,
      "instrument": 1,
      "program": 37,
      "isDrum": false
    },
    {
      "pitch": 31,
      "velocity": 80,
      "startTime": 18.116865000000022,
      "endTime": 18.310858312500024,
      "instrument": 1,
      "program": 37,
      "isDrum": false
    },
    {
      "pitch": 35,
      "velocity": 80,
      "startTime": 18.311670000000024,
      "endTime": 18.505663312500026,
      "instrument": 1,
      "program": 37,
      "isDrum": false
    },
    {
      "pitch": 38,
      "velocity": 80,
      "startTime": 18.506475000000027,
      "endTime": 18.70046831250003,
      "instrument": 1,
      "program": 37,
      "isDrum": false
    },
    {
      "pitch": 41,
      "velocity": 80,
      "startTime": 18.70128000000003,
      "endTime": 18.89527331250003,
      "instrument": 1,
      "program": 37,
      "isDrum": false
    },
    {
      "pitch": 41,
      "velocity": 80,
      "startTime": 18.89608500000003,
      "endTime": 19.090078312500033,
      "instrument": 1,
      "program": 37,
      "isDrum": false
    },
    {
      "pitch": 41,
      "velocity": 80,
      "startTime": 19.090890000000034,
      "endTime": 19.284883312500035,
      "instrument": 1,
      "program": 37,
      "isDrum": false
    },
    {
      "pitch": 41,
      "velocity": 80,
      "startTime": 19.285695000000036,
      "endTime": 19.479688312500038,
      "instrument": 1,
      "program": 37,
      "isDrum": false
    },
    {
      "pitch": 41,
      "velocity": 80,
      "startTime": 19.48050000000004,
      "endTime": 19.67449331250004,
      "instrument": 1,
      "program": 37,
      "isDrum": false
    },
    {
      "pitch": 41,
      "velocity": 80,
      "startTime": 19.67530500000004,
      "endTime": 19.869298312500042,
      "instrument": 1,
      "program": 37,
      "isDrum": false
    },
    {
      "pitch": 40,
      "velocity": 80,
      "startTime": 19.870110000000043,
      "endTime": 20.064103312500045,
      "instrument": 1,
      "program": 37,
      "isDrum": false
    },
    {
      "pitch": 41,
      "velocity": 80,
      "startTime": 20.064915000000045,
      "endTime": 20.258908312500047,
      "instrument": 1,
      "program": 37,
      "isDrum": false
    },
    {
      "pitch": 43,
      "velocity": 80,
      "startTime": 20.259720000000048,
      "endTime": 20.45371331250005,
      "instrument": 1,
      "program": 37,
      "isDrum": false
    },
    {
      "pitch": 31,
      "velocity": 80,
      "startTime": 21.23374500000005,
      "endTime": 21.42773831250005,
      "instrument": 1,
      "program": 37,
      "isDrum": false
    },
    {
      "pitch": 35,
      "velocity": 80,
      "startTime": 21.42855000000005,
      "endTime": 21.622543312500053,
      "instrument": 1,
      "program": 37,
      "isDrum": false
    },
    {
      "pitch": 38,
      "velocity": 80,
      "startTime": 21.623355000000053,
      "endTime": 21.817348312500055,
      "instrument": 1,
      "program": 37,
      "isDrum": false
    },
    {
      "pitch": 41,
      "velocity": 80,
      "startTime": 21.818160000000056,
      "endTime": 22.012153312500057,
      "instrument": 1,
      "program": 37,
      "isDrum": false
    },
    {
      "pitch": 41,
      "velocity": 80,
      "startTime": 22.012965000000058,
      "endTime": 22.20695831250006,
      "instrument": 1,
      "program": 37,
      "isDrum": false
    },
    {
      "pitch": 41,
      "velocity": 80,
      "startTime": 22.20777000000006,
      "endTime": 22.401763312500062,
      "instrument": 1,
      "program": 37,
      "isDrum": false
    },
    {
      "pitch": 41,
      "velocity": 80,
      "startTime": 22.402575000000063,
      "endTime": 22.596568312500064,
      "instrument": 1,
      "program": 37,
      "isDrum": false
    },
    {
      "pitch": 41,
      "velocity": 80,
      "startTime": 22.597380000000065,
      "endTime": 22.791373312500067,
      "instrument": 1,
      "program": 37,
      "isDrum": false
    },
    {
      "pitch": 41,
      "velocity": 80,
      "startTime": 22.792185000000067,
      "endTime": 22.98617831250007,
      "instrument": 1,
      "program": 37,
      "isDrum": false
    },
    {
      "pitch": 40,
      "velocity": 80,
      "startTime": 22.98699000000007,
      "endTime": 23.18098331250007,
      "instrument": 1,
      "program": 37,
      "isDrum": false
    },
    {
      "pitch": 41,
      "velocity": 80,
      "startTime": 23.181795000000072,
      "endTime": 23.375788312500074,
      "instrument": 1,
      "program": 37,
      "isDrum": false
    },
    {
      "pitch": 43,
      "velocity": 80,
      "startTime": 23.376600000000074,
      "endTime": 23.570593312500076,
      "instrument": 1,
      "program": 37,
      "isDrum": false
    },
    {
      "pitch": 43,
      "velocity": 80,
      "startTime": 23.571405000000077,
      "endTime": 23.76539831250008,
      "instrument": 1,
      "program": 37,
      "isDrum": false
    },
    {
      "pitch": 43,
      "velocity": 80,
      "startTime": 23.76621000000008,
      "endTime": 23.96020331250008,
      "instrument": 1,
      "program": 37,
      "isDrum": false
    },
    {
      "pitch": 43,
      "velocity": 80,
      "startTime": 23.96101500000008,
      "endTime": 24.155008312500083,
      "instrument": 1,
      "program": 37,
      "isDrum": false
    },
    {
      "pitch": 43,
      "velocity": 80,
      "startTime": 24.155820000000084,
      "endTime": 24.349813312500086,
      "instrument": 1,
      "program": 37,
      "isDrum": false
    },
    {
      "pitch": 43,
      "velocity": 80,
      "startTime": 24.350625000000086,
      "endTime": 24.544618312500088,
      "instrument": 1,
      "program": 37,
      "isDrum": false
    },
    {
      "pitch": 41,
      "velocity": 80,
      "startTime": 24.54543000000009,
      "endTime": 24.73942331250009,
      "instrument": 1,
      "program": 37,
      "isDrum": false
    },
    {
      "pitch": 40,
      "velocity": 80,
      "startTime": 24.74023500000009,
      "endTime": 24.934228312500093,
      "instrument": 1,
      "program": 37,
      "isDrum": false
    },
    {
      "pitch": 41,
      "velocity": 80,
      "startTime": 24.935040000000093,
      "endTime": 25.129033312500095,
      "instrument": 1,
      "program": 37,
      "isDrum": false
    },
    {
      "pitch": 41,
      "velocity": 80,
      "startTime": 25.129845000000095,
      "endTime": 25.323838312500097,
      "instrument": 1,
      "program": 37,
      "isDrum": false
    },
    {
      "pitch": 41,
      "velocity": 80,
      "startTime": 25.324650000000098,
      "endTime": 25.5186433125001,
      "instrument": 1,
      "program": 37,
      "isDrum": false
    },
    {
      "pitch": 41,
      "velocity": 80,
      "startTime": 25.5194550000001,
      "endTime": 25.713448312500102,
      "instrument": 1,
      "program": 37,
      "isDrum": false
    },
    {
      "pitch": 41,
      "velocity": 80,
      "startTime": 25.714260000000102,
      "endTime": 25.908253312500104,
      "instrument": 1,
      "program": 37,
      "isDrum": false
    },
    {
      "pitch": 41,
      "velocity": 80,
      "startTime": 25.909065000000105,
      "endTime": 26.103058312500107,
      "instrument": 1,
      "program": 37,
      "isDrum": false
    },
    {
      "pitch": 40,
      "velocity": 80,
      "startTime": 26.103870000000107,
      "endTime": 26.29786331250011,
      "instrument": 1,
      "program": 37,
      "isDrum": false
    },
    {
      "pitch": 41,
      "velocity": 80,
      "startTime": 26.29867500000011,
      "endTime": 26.49266831250011,
      "instrument": 1,
      "program": 37,
      "isDrum": false
    },
    {
      "pitch": 43,
      "velocity": 80,
      "startTime": 26.493480000000112,
      "endTime": 26.687473312500114,
      "instrument": 1,
      "program": 37,
      "isDrum": false
    },
    {
      "pitch": 43,
      "velocity": 80,
      "startTime": 26.688285000000114,
      "endTime": 26.882278312500116,
      "instrument": 1,
      "program": 37,
      "isDrum": false
    },
    {
      "pitch": 43,
      "velocity": 80,
      "startTime": 26.883090000000117,
      "endTime": 27.07708331250012,
      "instrument": 1,
      "program": 37,
      "isDrum": false
    },
    {
      "pitch": 43,
      "velocity": 80,
      "startTime": 27.07789500000012,
      "endTime": 27.27188831250012,
      "instrument": 1,
      "program": 37,
      "isDrum": false
    },
    {
      "pitch": 43,
      "velocity": 80,
      "startTime": 27.27270000000012,
      "endTime": 27.466693312500123,
      "instrument": 1,
      "program": 37,
      "isDrum": false
    },
    {
      "pitch": 43,
      "velocity": 80,
      "startTime": 27.467505000000124,
      "endTime": 27.661498312500125,
      "instrument": 1,
      "program": 37,
      "isDrum": false
    },
    {
      "pitch": 41,
      "velocity": 80,
      "startTime": 27.662310000000126,
      "endTime": 27.856303312500128,
      "instrument": 1,
      "program": 37,
      "isDrum": false
    },
    {
      "pitch": 40,
      "velocity": 80,
      "startTime": 27.857115000000128,
      "endTime": 28.05110831250013,
      "instrument": 1,
      "program": 37,
      "isDrum": false
    },
    {
      "pitch": 34,
      "velocity": 80,
      "startTime": 28.05192000000013,
      "endTime": 28.245913312500132,
      "instrument": 1,
      "program": 37,
      "isDrum": false
    },
    {
      "pitch": 34,
      "velocity": 80,
      "startTime": 28.246725000000133,
      "endTime": 28.440718312500135,
      "instrument": 1,
      "program": 37,
      "isDrum": false
    },
    {
      "pitch": 34,
      "velocity": 80,
      "startTime": 28.441530000000135,
      "endTime": 28.635523312500137,
      "instrument": 1,
      "program": 37,
      "isDrum": false
    },
    {
      "pitch": 34,
      "velocity": 80,
      "startTime": 28.636335000000138,
      "endTime": 28.83032831250014,
      "instrument": 1,
      "program": 37,
      "isDrum": false
    },
    {
      "pitch": 34,
      "velocity": 80,
      "startTime": 28.83114000000014,
      "endTime": 29.02513331250014,
      "instrument": 1,
      "program": 37,
      "isDrum": false
    },
    {
      "pitch": 34,
      "velocity": 80,
      "startTime": 29.025945000000142,
      "endTime": 29.219938312500144,
      "instrument": 1,
      "program": 37,
      "isDrum": false
    },
    {
      "pitch": 34,
      "velocity": 80,
      "startTime": 29.220750000000145,
      "endTime": 29.414743312500146,
      "instrument": 1,
      "program": 37,
      "isDrum": false
    },
    {
      "pitch": 34,
      "velocity": 80,
      "startTime": 29.415555000000147,
      "endTime": 29.60954831250015,
      "instrument": 1,
      "program": 37,
      "isDrum": false
    },
    {
      "pitch": 36,
      "velocity": 80,
      "startTime": 29.61036000000015,
      "endTime": 29.80435331250015,
      "instrument": 1,
      "program": 37,
      "isDrum": false
    },
    {
      "pitch": 36,
      "velocity": 80,
      "startTime": 29.80516500000015,
      "endTime": 29.999158312500153,
      "instrument": 1,
      "program": 37,
      "isDrum": false
    },
    {
      "pitch": 36,
      "velocity": 80,
      "startTime": 29.999970000000154,
      "endTime": 30.193963312500156,
      "instrument": 1,
      "program": 37,
      "isDrum": false
    },
    {
      "pitch": 36,
      "velocity": 80,
      "startTime": 30.194775000000156,
      "endTime": 30.388768312500158,
      "instrument": 1,
      "program": 37,
      "isDrum": false
    },
    {
      "pitch": 36,
      "velocity": 80,
      "startTime": 30.38958000000016,
      "endTime": 30.58357331250016,
      "instrument": 1,
      "program": 37,
      "isDrum": false
    },
    {
      "pitch": 36,
      "velocity": 80,
      "startTime": 30.58438500000016,
      "endTime": 30.778378312500163,
      "instrument": 1,
      "program": 37,
      "isDrum": false
    },
    {
      "pitch": 36,
      "velocity": 80,
      "startTime": 30.779190000000163,
      "endTime": 30.973183312500165,
      "instrument": 1,
      "program": 37,
      "isDrum": false
    },
    {
      "pitch": 36,
      "velocity": 80,
      "startTime": 30.973995000000166,
      "endTime": 31.167988312500167,
      "instrument": 1,
      "program": 37,
      "isDrum": false
    },
    {
      "pitch": 38,
      "velocity": 80,
      "startTime": 31.168800000000168,
      "endTime": 31.36279331250017,
      "instrument": 1,
      "program": 37,
      "isDrum": false
    },
    {
      "pitch": 38,
      "velocity": 80,
      "startTime": 31.36360500000017,
      "endTime": 31.557598312500172,
      "instrument": 1,
      "program": 37,
      "isDrum": false
    },
    {
      "pitch": 38,
      "velocity": 80,
      "startTime": 31.558410000000173,
      "endTime": 31.752403312500174,
      "instrument": 1,
      "program": 37,
      "isDrum": false
    },
    {
      "pitch": 38,
      "velocity": 80,
      "startTime": 31.753215000000175,
      "endTime": 31.947208312500177,
      "instrument": 1,
      "program": 37,
      "isDrum": false
    },
    {
      "pitch": 38,
      "velocity": 80,
      "startTime": 31.948020000000177,
      "endTime": 32.142013312500175,
      "instrument": 1,
      "program": 37,
      "isDrum": false
    },
    {
      "pitch": 33,
      "velocity": 80,
      "startTime": 32.14282500000017,
      "endTime": 32.33681831250017,
      "instrument": 1,
      "program": 37,
      "isDrum": false
    },
    {
      "pitch": 38,
      "velocity": 80,
      "startTime": 32.33763000000017,
      "endTime": 32.531623312500166,
      "instrument": 1,
      "program": 37,
      "isDrum": false
    },
    {
      "pitch": 33,
      "velocity": 80,
      "startTime": 32.53243500000016,
      "endTime": 32.72642831250016,
      "instrument": 1,
      "program": 37,
      "isDrum": false
    },
    {
      "pitch": 36,
      "velocity": 80,
      "startTime": 32.72724000000016,
      "endTime": 32.921233312500156,
      "instrument": 1,
      "program": 37,
      "isDrum": false
    },
    {
      "pitch": 31,
      "velocity": 80,
      "startTime": 33.701265000000156,
      "endTime": 33.895258312500154,
      "instrument": 1,
      "program": 37,
      "isDrum": false
    },
    {
      "pitch": 35,
      "velocity": 80,
      "startTime": 33.89607000000015,
      "endTime": 34.09006331250015,
      "instrument": 1,
      "program": 37,
      "isDrum": false
    },
    {
      "pitch": 38,
      "velocity": 80,
      "startTime": 34.090875000000146,
      "endTime": 34.284868312500144,
      "instrument": 1,
      "program": 37,
      "isDrum": false
    },
    {
      "pitch": 41,
      "velocity": 80,
      "startTime": 34.28568000000014,
      "endTime": 34.47967331250014,
      "instrument": 1,
      "program": 37,
      "isDrum": false
    },
    {
      "pitch": 41,
      "velocity": 80,
      "startTime": 34.48048500000014,
      "endTime": 34.674478312500135,
      "instrument": 1,
      "program": 37,
      "isDrum": false
    },
    {
      "pitch": 41,
      "velocity": 80,
      "startTime": 34.67529000000013,
      "endTime": 34.86928331250013,
      "instrument": 1,
      "program": 37,
      "isDrum": false
    },
    {
      "pitch": 41,
      "velocity": 80,
      "startTime": 34.87009500000013,
      "endTime": 35.064088312500125,
      "instrument": 1,
      "program": 37,
      "isDrum": false
    },
    {
      "pitch": 41,
      "velocity": 80,
      "startTime": 35.06490000000012,
      "endTime": 35.25889331250012,
      "instrument": 1,
      "program": 37,
      "isDrum": false
    },
    {
      "pitch": 41,
      "velocity": 80,
      "startTime": 35.25970500000012,
      "endTime": 35.453698312500116,
      "instrument": 1,
      "program": 37,
      "isDrum": false
    },
    {
      "pitch": 40,
      "velocity": 80,
      "startTime": 35.45451000000011,
      "endTime": 35.64850331250011,
      "instrument": 1,
      "program": 37,
      "isDrum": false
    },
    {
      "pitch": 41,
      "velocity": 80,
      "startTime": 35.64931500000011,
      "endTime": 35.843308312500106,
      "instrument": 1,
      "program": 37,
      "isDrum": false
    },
    {
      "pitch": 43,
      "velocity": 80,
      "startTime": 35.8441200000001,
      "endTime": 36.0381133125001,
      "instrument": 1,
      "program": 37,
      "isDrum": false
    },
    {
      "pitch": 31,
      "velocity": 80,
      "startTime": 36.8181450000001,
      "endTime": 37.0121383125001,
      "instrument": 1,
      "program": 37,
      "isDrum": false
    },
    {
      "pitch": 35,
      "velocity": 80,
      "startTime": 37.012950000000096,
      "endTime": 37.206943312500094,
      "instrument": 1,
      "program": 37,
      "isDrum": false
    },
    {
      "pitch": 38,
      "velocity": 80,
      "startTime": 37.20775500000009,
      "endTime": 37.40174831250009,
      "instrument": 1,
      "program": 37,
      "isDrum": false
    },
    {
      "pitch": 41,
      "velocity": 80,
      "startTime": 37.402560000000086,
      "endTime": 37.596553312500085,
      "instrument": 1,
      "program": 37,
      "isDrum": false
    },
    {
      "pitch": 41,
      "velocity": 80,
      "startTime": 37.59736500000008,
      "endTime": 37.79135831250008,
      "instrument": 1,
      "program": 37,
      "isDrum": false
    },
    {
      "pitch": 41,
      "velocity": 80,
      "startTime": 37.79217000000008,
      "endTime": 37.986163312500075,
      "instrument": 1,
      "program": 37,
      "isDrum": false
    },
    {
      "pitch": 41,
      "velocity": 80,
      "startTime": 37.98697500000007,
      "endTime": 38.18096831250007,
      "instrument": 1,
      "program": 37,
      "isDrum": false
    },
    {
      "pitch": 41,
      "velocity": 80,
      "startTime": 38.18178000000007,
      "endTime": 38.375773312500066,
      "instrument": 1,
      "program": 37,
      "isDrum": false
    },
    {
      "pitch": 41,
      "velocity": 80,
      "startTime": 38.37658500000006,
      "endTime": 38.57057831250006,
      "instrument": 1,
      "program": 37,
      "isDrum": false
    },
    {
      "pitch": 40,
      "velocity": 80,
      "startTime": 38.57139000000006,
      "endTime": 38.765383312500056,
      "instrument": 1,
      "program": 37,
      "isDrum": false
    },
    {
      "pitch": 41,
      "velocity": 80,
      "startTime": 38.76619500000005,
      "endTime": 38.96018831250005,
      "instrument": 1,
      "program": 37,
      "isDrum": false
    },
    {
      "pitch": 43,
      "velocity": 80,
      "startTime": 38.96100000000005,
      "endTime": 39.154993312500046,
      "instrument": 1,
      "program": 37,
      "isDrum": false
    },
    {
      "pitch": 31,
      "velocity": 80,
      "startTime": 39.935025000000046,
      "endTime": 40.129018312500044,
      "instrument": 1,
      "program": 37,
      "isDrum": false
    },
    {
      "pitch": 35,
      "velocity": 80,
      "startTime": 40.12983000000004,
      "endTime": 40.32382331250004,
      "instrument": 1,
      "program": 37,
      "isDrum": false
    },
    {
      "pitch": 38,
      "velocity": 80,
      "startTime": 40.324635000000036,
      "endTime": 40.518628312500034,
      "instrument": 1,
      "program": 37,
      "isDrum": false
    },
    {
      "pitch": 41,
      "velocity": 80,
      "startTime": 40.51944000000003,
      "endTime": 40.71343331250003,
      "instrument": 1,
      "program": 37,
      "isDrum": false
    },
    {
      "pitch": 41,
      "velocity": 80,
      "startTime": 40.71424500000003,
      "endTime": 40.908238312500025,
      "instrument": 1,
      "program": 37,
      "isDrum": false
    },
    {
      "pitch": 41,
      "velocity": 80,
      "startTime": 40.90905000000002,
      "endTime": 41.10304331250002,
      "instrument": 1,
      "program": 37,
      "isDrum": false
    },
    {
      "pitch": 41,
      "velocity": 80,
      "startTime": 41.10385500000002,
      "endTime": 41.297848312500015,
      "instrument": 1,
      "program": 37,
      "isDrum": false
    },
    {
      "pitch": 41,
      "velocity": 80,
      "startTime": 41.29866000000001,
      "endTime": 41.49265331250001,
      "instrument": 1,
      "program": 37,
      "isDrum": false
    },
    {
      "pitch": 41,
      "velocity": 80,
      "startTime": 41.49346500000001,
      "endTime": 41.687458312500006,
      "instrument": 1,
      "program": 37,
      "isDrum": false
    },
    {
      "pitch": 40,
      "velocity": 80,
      "startTime": 41.68827,
      "endTime": 41.8822633125,
      "instrument": 1,
      "program": 37,
      "isDrum": false
    },
    {
      "pitch": 41,
      "velocity": 80,
      "startTime": 41.883075,
      "endTime": 42.077068312499996,
      "instrument": 1,
      "program": 37,
      "isDrum": false
    },
    {
      "pitch": 43,
      "velocity": 80,
      "startTime": 42.07787999999999,
      "endTime": 42.27187331249999,
      "instrument": 1,
      "program": 37,
      "isDrum": false
    },
    {
      "pitch": 31,
      "velocity": 80,
      "startTime": 43.05190499999999,
      "endTime": 43.24589831249999,
      "instrument": 1,
      "program": 37,
      "isDrum": false
    },
    {
      "pitch": 35,
      "velocity": 80,
      "startTime": 43.246709999999986,
      "endTime": 43.440703312499984,
      "instrument": 1,
      "program": 37,
      "isDrum": false
    },
    {
      "pitch": 38,
      "velocity": 80,
      "startTime": 43.44151499999998,
      "endTime": 43.63550831249998,
      "instrument": 1,
      "program": 37,
      "isDrum": false
    },
    {
      "pitch": 41,
      "velocity": 80,
      "startTime": 43.63631999999998,
      "endTime": 43.830313312499975,
      "instrument": 1,
      "program": 37,
      "isDrum": false
    },
    {
      "pitch": 41,
      "velocity": 80,
      "startTime": 43.83112499999997,
      "endTime": 44.02511831249997,
      "instrument": 1,
      "program": 37,
      "isDrum": false
    },
    {
      "pitch": 41,
      "velocity": 80,
      "startTime": 44.02592999999997,
      "endTime": 44.219923312499965,
      "instrument": 1,
      "program": 37,
      "isDrum": false
    },
    {
      "pitch": 41,
      "velocity": 80,
      "startTime": 44.22073499999996,
      "endTime": 44.41472831249996,
      "instrument": 1,
      "program": 37,
      "isDrum": false
    },
    {
      "pitch": 41,
      "velocity": 80,
      "startTime": 44.41553999999996,
      "endTime": 44.609533312499956,
      "instrument": 1,
      "program": 37,
      "isDrum": false
    },
    {
      "pitch": 41,
      "velocity": 80,
      "startTime": 44.61034499999995,
      "endTime": 44.80433831249995,
      "instrument": 1,
      "program": 37,
      "isDrum": false
    },
    {
      "pitch": 40,
      "velocity": 80,
      "startTime": 44.80514999999995,
      "endTime": 44.999143312499946,
      "instrument": 1,
      "program": 37,
      "isDrum": false
    },
    {
      "pitch": 41,
      "velocity": 80,
      "startTime": 44.99995499999994,
      "endTime": 45.19394831249994,
      "instrument": 1,
      "program": 37,
      "isDrum": false
    },
    {
      "pitch": 43,
      "velocity": 80,
      "startTime": 45.19475999999994,
      "endTime": 45.38875331249994,
      "instrument": 1,
      "program": 37,
      "isDrum": false
    },
    {
      "pitch": 43,
      "velocity": 80,
      "startTime": 45.38956499999993,
      "endTime": 45.58355831249993,
      "instrument": 1,
      "program": 37,
      "isDrum": false
    },
    {
      "pitch": 43,
      "velocity": 80,
      "startTime": 45.58436999999993,
      "endTime": 45.77836331249993,
      "instrument": 1,
      "program": 37,
      "isDrum": false
    },
    {
      "pitch": 43,
      "velocity": 80,
      "startTime": 45.779174999999924,
      "endTime": 45.97316831249992,
      "instrument": 1,
      "program": 37,
      "isDrum": false
    },
    {
      "pitch": 43,
      "velocity": 80,
      "startTime": 45.97397999999992,
      "endTime": 46.16797331249992,
      "instrument": 1,
      "program": 37,
      "isDrum": false
    },
    {
      "pitch": 43,
      "velocity": 80,
      "startTime": 46.168784999999914,
      "endTime": 46.36277831249991,
      "instrument": 1,
      "program": 37,
      "isDrum": false
    },
    {
      "pitch": 41,
      "velocity": 80,
      "startTime": 46.36358999999991,
      "endTime": 46.55758331249991,
      "instrument": 1,
      "program": 37,
      "isDrum": false
    },
    {
      "pitch": 40,
      "velocity": 80,
      "startTime": 46.558394999999905,
      "endTime": 46.7523883124999,
      "instrument": 1,
      "program": 37,
      "isDrum": false
    },
    {
      "pitch": 41,
      "velocity": 80,
      "startTime": 46.7531999999999,
      "endTime": 46.9471933124999,
      "instrument": 1,
      "program": 37,
      "isDrum": false
    },
    {
      "pitch": 41,
      "velocity": 80,
      "startTime": 46.948004999999895,
      "endTime": 47.141998312499894,
      "instrument": 1,
      "program": 37,
      "isDrum": false
    },
    {
      "pitch": 41,
      "velocity": 80,
      "startTime": 47.14280999999989,
      "endTime": 47.33680331249989,
      "instrument": 1,
      "program": 37,
      "isDrum": false
    },
    {
      "pitch": 41,
      "velocity": 80,
      "startTime": 47.337614999999886,
      "endTime": 47.531608312499884,
      "instrument": 1,
      "program": 37,
      "isDrum": false
    },
    {
      "pitch": 41,
      "velocity": 80,
      "startTime": 47.53241999999988,
      "endTime": 47.72641331249988,
      "instrument": 1,
      "program": 37,
      "isDrum": false
    },
    {
      "pitch": 41,
      "velocity": 80,
      "startTime": 47.727224999999876,
      "endTime": 47.921218312499875,
      "instrument": 1,
      "program": 37,
      "isDrum": false
    },
    {
      "pitch": 40,
      "velocity": 80,
      "startTime": 47.92202999999987,
      "endTime": 48.11602331249987,
      "instrument": 1,
      "program": 37,
      "isDrum": false
    },
    {
      "pitch": 41,
      "velocity": 80,
      "startTime": 48.11683499999987,
      "endTime": 48.310828312499865,
      "instrument": 1,
      "program": 37,
      "isDrum": false
    },
    {
      "pitch": 43,
      "velocity": 80,
      "startTime": 48.31163999999986,
      "endTime": 48.50563331249986,
      "instrument": 1,
      "program": 37,
      "isDrum": false
    },
    {
      "pitch": 43,
      "velocity": 80,
      "startTime": 48.50644499999986,
      "endTime": 48.700438312499855,
      "instrument": 1,
      "program": 37,
      "isDrum": false
    },
    {
      "pitch": 43,
      "velocity": 80,
      "startTime": 48.70124999999985,
      "endTime": 48.89524331249985,
      "instrument": 1,
      "program": 37,
      "isDrum": false
    },
    {
      "pitch": 43,
      "velocity": 80,
      "startTime": 48.89605499999985,
      "endTime": 49.090048312499846,
      "instrument": 1,
      "program": 37,
      "isDrum": false
    },
    {
      "pitch": 43,
      "velocity": 80,
      "startTime": 49.09085999999984,
      "endTime": 49.28485331249984,
      "instrument": 1,
      "program": 37,
      "isDrum": false
    },
    {
      "pitch": 43,
      "velocity": 80,
      "startTime": 49.28566499999984,
      "endTime": 49.479658312499836,
      "instrument": 1,
      "program": 37,
      "isDrum": false
    },
    {
      "pitch": 41,
      "velocity": 80,
      "startTime": 49.48046999999983,
      "endTime": 49.67446331249983,
      "instrument": 1,
      "program": 37,
      "isDrum": false
    },
    {
      "pitch": 40,
      "velocity": 80,
      "startTime": 49.67527499999983,
      "endTime": 49.86926831249983,
      "instrument": 1,
      "program": 37,
      "isDrum": false
    },
    {
      "pitch": 34,
      "velocity": 80,
      "startTime": 49.870079999999824,
      "endTime": 50.06407331249982,
      "instrument": 1,
      "program": 37,
      "isDrum": false
    },
    {
      "pitch": 34,
      "velocity": 80,
      "startTime": 50.06488499999982,
      "endTime": 50.25887831249982,
      "instrument": 1,
      "program": 37,
      "isDrum": false
    },
    {
      "pitch": 34,
      "velocity": 80,
      "startTime": 50.259689999999814,
      "endTime": 50.45368331249981,
      "instrument": 1,
      "program": 37,
      "isDrum": false
    },
    {
      "pitch": 34,
      "velocity": 80,
      "startTime": 50.45449499999981,
      "endTime": 50.64848831249981,
      "instrument": 1,
      "program": 37,
      "isDrum": false
    },
    {
      "pitch": 34,
      "velocity": 80,
      "startTime": 50.649299999999805,
      "endTime": 50.8432933124998,
      "instrument": 1,
      "program": 37,
      "isDrum": false
    },
    {
      "pitch": 34,
      "velocity": 80,
      "startTime": 50.8441049999998,
      "endTime": 51.0380983124998,
      "instrument": 1,
      "program": 37,
      "isDrum": false
    },
    {
      "pitch": 34,
      "velocity": 80,
      "startTime": 51.038909999999795,
      "endTime": 51.23290331249979,
      "instrument": 1,
      "program": 37,
      "isDrum": false
    },
    {
      "pitch": 34,
      "velocity": 80,
      "startTime": 51.23371499999979,
      "endTime": 51.42770831249979,
      "instrument": 1,
      "program": 37,
      "isDrum": false
    },
    {
      "pitch": 36,
      "velocity": 80,
      "startTime": 51.428519999999786,
      "endTime": 51.622513312499784,
      "instrument": 1,
      "program": 37,
      "isDrum": false
    },
    {
      "pitch": 36,
      "velocity": 80,
      "startTime": 51.62332499999978,
      "endTime": 51.81731831249978,
      "instrument": 1,
      "program": 37,
      "isDrum": false
    },
    {
      "pitch": 36,
      "velocity": 80,
      "startTime": 51.818129999999776,
      "endTime": 52.012123312499774,
      "instrument": 1,
      "program": 37,
      "isDrum": false
    },
    {
      "pitch": 36,
      "velocity": 80,
      "startTime": 52.01293499999977,
      "endTime": 52.20692831249977,
      "instrument": 1,
      "program": 37,
      "isDrum": false
    },
    {
      "pitch": 36,
      "velocity": 80,
      "startTime": 52.20773999999977,
      "endTime": 52.401733312499765,
      "instrument": 1,
      "program": 37,
      "isDrum": false
    },
    {
      "pitch": 36,
      "velocity": 80,
      "startTime": 52.40254499999976,
      "endTime": 52.59653831249976,
      "instrument": 1,
      "program": 37,
      "isDrum": false
    },
    {
      "pitch": 36,
      "velocity": 80,
      "startTime": 52.59734999999976,
      "endTime": 52.791343312499755,
      "instrument": 1,
      "program": 37,
      "isDrum": false
    },
    {
      "pitch": 36,
      "velocity": 80,
      "startTime": 52.79215499999975,
      "endTime": 52.98614831249975,
      "instrument": 1,
      "program": 37,
      "isDrum": false
    },
    {
      "pitch": 38,
      "velocity": 80,
      "startTime": 52.98695999999975,
      "endTime": 53.180953312499746,
      "instrument": 1,
      "program": 37,
      "isDrum": false
    },
    {
      "pitch": 38,
      "velocity": 80,
      "startTime": 53.18176499999974,
      "endTime": 53.37575831249974,
      "instrument": 1,
      "program": 37,
      "isDrum": false
    },
    {
      "pitch": 38,
      "velocity": 80,
      "startTime": 53.37656999999974,
      "endTime": 53.570563312499736,
      "instrument": 1,
      "program": 37,
      "isDrum": false
    },
    {
      "pitch": 38,
      "velocity": 80,
      "startTime": 53.57137499999973,
      "endTime": 53.76536831249973,
      "instrument": 1,
      "program": 37,
      "isDrum": false
    },
    {
      "pitch": 38,
      "velocity": 80,
      "startTime": 53.76617999999973,
      "endTime": 53.96017331249973,
      "instrument": 1,
      "program": 37,
      "isDrum": false
    },
    {
      "pitch": 33,
      "velocity": 80,
      "startTime": 53.960984999999724,
      "endTime": 54.15497831249972,
      "instrument": 1,
      "program": 37,
      "isDrum": false
    },
    {
      "pitch": 38,
      "velocity": 80,
      "startTime": 54.15578999999972,
      "endTime": 54.34978331249972,
      "instrument": 1,
      "program": 37,
      "isDrum": false
    },
    {
      "pitch": 33,
      "velocity": 80,
      "startTime": 54.350594999999714,
      "endTime": 54.54458831249971,
      "instrument": 1,
      "program": 37,
      "isDrum": false
    },
    {
      "pitch": 36,
      "velocity": 80,
      "startTime": 54.54539999999971,
      "endTime": 54.73939331249971,
      "instrument": 1,
      "program": 37,
      "isDrum": false
    },
    {
      "pitch": 31,
      "velocity": 80,
      "startTime": 56.10383999999971,
      "endTime": 56.297833312499705,
      "instrument": 1,
      "program": 37,
      "isDrum": false
    },
    {
      "pitch": 31,
      "velocity": 80,
      "startTime": 56.2986449999997,
      "endTime": 56.4926383124997,
      "instrument": 1,
      "program": 37,
      "isDrum": false
    },
    {
      "pitch": 31,
      "velocity": 80,
      "startTime": 56.4934499999997,
      "endTime": 56.687443312499695,
      "instrument": 1,
      "program": 37,
      "isDrum": false
    },
    {
      "pitch": 31,
      "velocity": 80,
      "startTime": 56.68825499999969,
      "endTime": 56.88224831249969,
      "instrument": 1,
      "program": 37,
      "isDrum": false
    },
    {
      "pitch": 34,
      "velocity": 80,
      "startTime": 57.07786499999969,
      "endTime": 57.27185831249969,
      "instrument": 1,
      "program": 37,
      "isDrum": false
    },
    {
      "pitch": 34,
      "velocity": 80,
      "startTime": 57.272669999999685,
      "endTime": 57.46666331249968,
      "instrument": 1,
      "program": 37,
      "isDrum": false
    },
    {
      "pitch": 34,
      "velocity": 80,
      "startTime": 57.46747499999968,
      "endTime": 57.66146831249968,
      "instrument": 1,
      "program": 37,
      "isDrum": false
    },
    {
      "pitch": 39,
      "velocity": 80,
      "startTime": 57.662279999999676,
      "endTime": 57.856273312499674,
      "instrument": 1,
      "program": 37,
      "isDrum": false
    },
    {
      "pitch": 39,
      "velocity": 80,
      "startTime": 57.85708499999967,
      "endTime": 58.05107831249967,
      "instrument": 1,
      "program": 37,
      "isDrum": false
    },
    {
      "pitch": 39,
      "velocity": 80,
      "startTime": 58.051889999999666,
      "endTime": 58.245883312499664,
      "instrument": 1,
      "program": 37,
      "isDrum": false
    },
    {
      "pitch": 39,
      "velocity": 80,
      "startTime": 58.24669499999966,
      "endTime": 58.44068831249966,
      "instrument": 1,
      "program": 37,
      "isDrum": false
    },
    {
      "pitch": 36,
      "velocity": 80,
      "startTime": 58.63630499999966,
      "endTime": 58.83029831249966,
      "instrument": 1,
      "program": 37,
      "isDrum": false
    },
    {
      "pitch": 36,
      "velocity": 80,
      "startTime": 58.831109999999654,
      "endTime": 59.02510331249965,
      "instrument": 1,
      "program": 37,
      "isDrum": false
    },
    {
      "pitch": 36,
      "velocity": 80,
      "startTime": 59.02591499999965,
      "endTime": 59.21990831249965,
      "instrument": 1,
      "program": 37,
      "isDrum": false
    },
    {
      "pitch": 31,
      "velocity": 80,
      "startTime": 59.220719999999645,
      "endTime": 59.41471331249964,
      "instrument": 1,
      "program": 37,
      "isDrum": false
    },
    {
      "pitch": 31,
      "velocity": 80,
      "startTime": 59.41552499999964,
      "endTime": 59.60951831249964,
      "instrument": 1,
      "program": 37,
      "isDrum": false
    },
    {
      "pitch": 31,
      "velocity": 80,
      "startTime": 59.610329999999635,
      "endTime": 59.80432331249963,
      "instrument": 1,
      "program": 37,
      "isDrum": false
    },
    {
      "pitch": 31,
      "velocity": 80,
      "startTime": 59.80513499999963,
      "endTime": 59.99912831249963,
      "instrument": 1,
      "program": 37,
      "isDrum": false
    },
    {
      "pitch": 34,
      "velocity": 80,
      "startTime": 60.19474499999963,
      "endTime": 60.388738312499626,
      "instrument": 1,
      "program": 37,
      "isDrum": false
    },
    {
      "pitch": 34,
      "velocity": 80,
      "startTime": 60.38954999999962,
      "endTime": 60.58354331249962,
      "instrument": 1,
      "program": 37,
      "isDrum": false
    },
    {
      "pitch": 34,
      "velocity": 80,
      "startTime": 60.58435499999962,
      "endTime": 60.77834831249962,
      "instrument": 1,
      "program": 37,
      "isDrum": false
    },
    {
      "pitch": 39,
      "velocity": 80,
      "startTime": 60.779159999999614,
      "endTime": 60.97315331249961,
      "instrument": 1,
      "program": 37,
      "isDrum": false
    },
    {
      "pitch": 39,
      "velocity": 80,
      "startTime": 60.97396499999961,
      "endTime": 61.16795831249961,
      "instrument": 1,
      "program": 37,
      "isDrum": false
    },
    {
      "pitch": 39,
      "velocity": 80,
      "startTime": 61.168769999999604,
      "endTime": 61.3627633124996,
      "instrument": 1,
      "program": 37,
      "isDrum": false
    },
    {
      "pitch": 39,
      "velocity": 80,
      "startTime": 61.3635749999996,
      "endTime": 61.5575683124996,
      "instrument": 1,
      "program": 37,
      "isDrum": false
    },
    {
      "pitch": 36,
      "velocity": 80,
      "startTime": 61.7531849999996,
      "endTime": 61.947178312499595,
      "instrument": 1,
      "program": 37,
      "isDrum": false
    },
    {
      "pitch": 36,
      "velocity": 80,
      "startTime": 61.94798999999959,
      "endTime": 62.14198331249959,
      "instrument": 1,
      "program": 37,
      "isDrum": false
    },
    {
      "pitch": 36,
      "velocity": 80,
      "startTime": 62.14279499999959,
      "endTime": 62.336788312499586,
      "instrument": 1,
      "program": 37,
      "isDrum": false
    },
    {
      "pitch": 31,
      "velocity": 80,
      "startTime": 62.33759999999958,
      "endTime": 62.53159331249958,
      "instrument": 1,
      "program": 37,
      "isDrum": false
    },
    {
      "pitch": 31,
      "velocity": 80,
      "startTime": 62.53240499999958,
      "endTime": 62.726398312499576,
      "instrument": 1,
      "program": 37,
      "isDrum": false
    },
    {
      "pitch": 31,
      "velocity": 80,
      "startTime": 62.72720999999957,
      "endTime": 62.92120331249957,
      "instrument": 1,
      "program": 37,
      "isDrum": false
    },
    {
      "pitch": 31,
      "velocity": 80,
      "startTime": 62.92201499999957,
      "endTime": 63.11600831249957,
      "instrument": 1,
      "program": 37,
      "isDrum": false
    },
    {
      "pitch": 34,
      "velocity": 80,
      "startTime": 63.311624999999566,
      "endTime": 63.505618312499564,
      "instrument": 1,
      "program": 37,
      "isDrum": false
    },
    {
      "pitch": 34,
      "velocity": 80,
      "startTime": 63.50642999999956,
      "endTime": 63.70042331249956,
      "instrument": 1,
      "program": 37,
      "isDrum": false
    },
    {
      "pitch": 34,
      "velocity": 80,
      "startTime": 63.701234999999556,
      "endTime": 63.895228312499555,
      "instrument": 1,
      "program": 37,
      "isDrum": false
    },
    {
      "pitch": 39,
      "velocity": 80,
      "startTime": 63.89603999999955,
      "endTime": 64.09003331249956,
      "instrument": 1,
      "program": 37,
      "isDrum": false
    },
    {
      "pitch": 39,
      "velocity": 80,
      "startTime": 64.09084499999956,
      "endTime": 64.28483831249956,
      "instrument": 1,
      "program": 37,
      "isDrum": false
    },
    {
      "pitch": 39,
      "velocity": 80,
      "startTime": 64.28564999999956,
      "endTime": 64.47964331249956,
      "instrument": 1,
      "program": 37,
      "isDrum": false
    },
    {
      "pitch": 39,
      "velocity": 80,
      "startTime": 64.48045499999957,
      "endTime": 64.67444831249956,
      "instrument": 1,
      "program": 37,
      "isDrum": false
    },
    {
      "pitch": 36,
      "velocity": 80,
      "startTime": 64.87006499999957,
      "endTime": 65.06405831249957,
      "instrument": 1,
      "program": 37,
      "isDrum": false
    },
    {
      "pitch": 36,
      "velocity": 80,
      "startTime": 65.06486999999957,
      "endTime": 65.25886331249957,
      "instrument": 1,
      "program": 37,
      "isDrum": false
    },
    {
      "pitch": 36,
      "velocity": 80,
      "startTime": 65.25967499999958,
      "endTime": 65.45366831249957,
      "instrument": 1,
      "program": 37,
      "isDrum": false
    },
    {
      "pitch": 31,
      "velocity": 80,
      "startTime": 65.45447999999958,
      "endTime": 65.64847331249958,
      "instrument": 1,
      "program": 37,
      "isDrum": false
    },
    {
      "pitch": 31,
      "velocity": 80,
      "startTime": 65.64928499999958,
      "endTime": 65.84327831249958,
      "instrument": 1,
      "program": 37,
      "isDrum": false
    },
    {
      "pitch": 31,
      "velocity": 80,
      "startTime": 65.84408999999958,
      "endTime": 66.03808331249958,
      "instrument": 1,
      "program": 37,
      "isDrum": false
    },
    {
      "pitch": 31,
      "velocity": 80,
      "startTime": 66.03889499999958,
      "endTime": 66.23288831249958,
      "instrument": 1,
      "program": 37,
      "isDrum": false
    },
    {
      "pitch": 34,
      "velocity": 80,
      "startTime": 66.42850499999959,
      "endTime": 66.62249831249959,
      "instrument": 1,
      "program": 37,
      "isDrum": false
    },
    {
      "pitch": 34,
      "velocity": 80,
      "startTime": 66.62330999999959,
      "endTime": 66.81730331249959,
      "instrument": 1,
      "program": 37,
      "isDrum": false
    },
    {
      "pitch": 34,
      "velocity": 80,
      "startTime": 66.8181149999996,
      "endTime": 67.01210831249959,
      "instrument": 1,
      "program": 37,
      "isDrum": false
    },
    {
      "pitch": 39,
      "velocity": 80,
      "startTime": 67.0129199999996,
      "endTime": 67.2069133124996,
      "instrument": 1,
      "program": 37,
      "isDrum": false
    },
    {
      "pitch": 39,
      "velocity": 80,
      "startTime": 67.2077249999996,
      "endTime": 67.4017183124996,
      "instrument": 1,
      "program": 37,
      "isDrum": false
    },
    {
      "pitch": 39,
      "velocity": 80,
      "startTime": 67.4025299999996,
      "endTime": 67.5965233124996,
      "instrument": 1,
      "program": 37,
      "isDrum": false
    },
    {
      "pitch": 39,
      "velocity": 80,
      "startTime": 67.5973349999996,
      "endTime": 67.7913283124996,
      "instrument": 1,
      "program": 37,
      "isDrum": false
    },
    {
      "pitch": 36,
      "velocity": 80,
      "startTime": 67.98694499999961,
      "endTime": 68.1809383124996,
      "instrument": 1,
      "program": 37,
      "isDrum": false
    },
    {
      "pitch": 36,
      "velocity": 80,
      "startTime": 68.18174999999961,
      "endTime": 68.37574331249961,
      "instrument": 1,
      "program": 37,
      "isDrum": false
    },
    {
      "pitch": 38,
      "velocity": 80,
      "startTime": 68.57135999999961,
      "endTime": 69.34976831249962,
      "instrument": 1,
      "program": 37,
      "isDrum": false
    },
    {
      "pitch": 36,
      "velocity": 80,
      "startTime": 71.10382499999962,
      "endTime": 71.29781831249961,
      "instrument": 1,
      "program": 37,
      "isDrum": false
    },
    {
      "pitch": 36,
      "velocity": 80,
      "startTime": 71.29862999999962,
      "endTime": 71.49262331249962,
      "instrument": 1,
      "program": 37,
      "isDrum": false
    },
    {
      "pitch": 36,
      "velocity": 80,
      "startTime": 71.49343499999962,
      "endTime": 71.68742831249962,
      "instrument": 1,
      "program": 37,
      "isDrum": false
    },
    {
      "pitch": 38,
      "velocity": 80,
      "startTime": 71.68823999999962,
      "endTime": 71.88223331249962,
      "instrument": 1,
      "program": 37,
      "isDrum": false
    },
    {
      "pitch": 36,
      "velocity": 80,
      "startTime": 74.22070499999963,
      "endTime": 74.41469831249962,
      "instrument": 1,
      "program": 37,
      "isDrum": false
    },
    {
      "pitch": 36,
      "velocity": 80,
      "startTime": 74.41550999999963,
      "endTime": 74.60950331249963,
      "instrument": 1,
      "program": 37,
      "isDrum": false
    },
    {
      "pitch": 36,
      "velocity": 80,
      "startTime": 74.61031499999963,
      "endTime": 74.80430831249963,
      "instrument": 1,
      "program": 37,
      "isDrum": false
    },
    {
      "pitch": 38,
      "velocity": 80,
      "startTime": 74.80511999999963,
      "endTime": 74.99911331249963,
      "instrument": 1,
      "program": 37,
      "isDrum": false
    },
    {
      "pitch": 29,
      "velocity": 80,
      "startTime": 77.33758499999963,
      "endTime": 77.53157831249963,
      "instrument": 1,
      "program": 37,
      "isDrum": false
    },
    {
      "pitch": 29,
      "velocity": 80,
      "startTime": 77.53238999999964,
      "endTime": 77.72638331249964,
      "instrument": 1,
      "program": 37,
      "isDrum": false
    },
    {
      "pitch": 29,
      "velocity": 80,
      "startTime": 77.72719499999964,
      "endTime": 77.92118831249964,
      "instrument": 1,
      "program": 37,
      "isDrum": false
    },
    {
      "pitch": 31,
      "velocity": 80,
      "startTime": 77.92199999999964,
      "endTime": 78.11599331249964,
      "instrument": 1,
      "program": 37,
      "isDrum": false
    },
    {
      "pitch": 29,
      "velocity": 80,
      "startTime": 80.45446499999964,
      "endTime": 80.64845831249964,
      "instrument": 1,
      "program": 37,
      "isDrum": false
    },
    {
      "pitch": 29,
      "velocity": 80,
      "startTime": 80.64926999999965,
      "endTime": 80.84326331249964,
      "instrument": 1,
      "program": 37,
      "isDrum": false
    },
    {
      "pitch": 29,
      "velocity": 80,
      "startTime": 80.84407499999965,
      "endTime": 81.03806831249965,
      "instrument": 1,
      "program": 37,
      "isDrum": false
    },
    {
      "pitch": 31,
      "velocity": 80,
      "startTime": 81.03887999999965,
      "endTime": 81.23287331249965,
      "instrument": 1,
      "program": 37,
      "isDrum": false
    },
    {
      "pitch": 29,
      "velocity": 80,
      "startTime": 82.01290499999965,
      "endTime": 82.20689831249965,
      "instrument": 1,
      "program": 37,
      "isDrum": false
    },
    {
      "pitch": 29,
      "velocity": 80,
      "startTime": 82.20770999999965,
      "endTime": 82.40170331249965,
      "instrument": 1,
      "program": 37,
      "isDrum": false
    },
    {
      "pitch": 29,
      "velocity": 80,
      "startTime": 82.40251499999965,
      "endTime": 82.59650831249965,
      "instrument": 1,
      "program": 37,
      "isDrum": false
    },
    {
      "pitch": 31,
      "velocity": 80,
      "startTime": 82.59731999999966,
      "endTime": 82.79131331249965,
      "instrument": 1,
      "program": 37,
      "isDrum": false
    },
    {
      "pitch": 31,
      "velocity": 64,
      "startTime": 83.57134499999965,
      "endTime": 83.76533831249965,
      "instrument": 1,
      "program": 37,
      "isDrum": false
    },
    {
      "pitch": 35,
      "velocity": 64,
      "startTime": 83.76614999999966,
      "endTime": 83.96014331249965,
      "instrument": 1,
      "program": 37,
      "isDrum": false
    },
    {
      "pitch": 38,
      "velocity": 64,
      "startTime": 83.96095499999966,
      "endTime": 84.15494831249966,
      "instrument": 1,
      "program": 37,
      "isDrum": false
    },
    {
      "pitch": 41,
      "velocity": 64,
      "startTime": 84.15575999999966,
      "endTime": 84.34975331249966,
      "instrument": 1,
      "program": 37,
      "isDrum": false
    },
    {
      "pitch": 41,
      "velocity": 64,
      "startTime": 84.35056499999966,
      "endTime": 84.54455831249966,
      "instrument": 1,
      "program": 37,
      "isDrum": false
    },
    {
      "pitch": 41,
      "velocity": 64,
      "startTime": 84.54536999999966,
      "endTime": 84.73936331249966,
      "instrument": 1,
      "program": 37,
      "isDrum": false
    },
    {
      "pitch": 41,
      "velocity": 64,
      "startTime": 84.74017499999967,
      "endTime": 84.93416831249966,
      "instrument": 1,
      "program": 37,
      "isDrum": false
    },
    {
      "pitch": 41,
      "velocity": 64,
      "startTime": 84.93497999999967,
      "endTime": 85.12897331249967,
      "instrument": 1,
      "program": 37,
      "isDrum": false
    },
    {
      "pitch": 41,
      "velocity": 64,
      "startTime": 85.12978499999967,
      "endTime": 85.32377831249967,
      "instrument": 1,
      "program": 37,
      "isDrum": false
    },
    {
      "pitch": 40,
      "velocity": 64,
      "startTime": 85.32458999999967,
      "endTime": 85.51858331249967,
      "instrument": 1,
      "program": 37,
      "isDrum": false
    },
    {
      "pitch": 41,
      "velocity": 64,
      "startTime": 85.51939499999968,
      "endTime": 85.71338831249967,
      "instrument": 1,
      "program": 37,
      "isDrum": false
    },
    {
      "pitch": 31,
      "velocity": 64,
      "startTime": 85.71419999999968,
      "endTime": 85.90819331249968,
      "instrument": 1,
      "program": 37,
      "isDrum": false
    },
    {
      "pitch": 31,
      "velocity": 64,
      "startTime": 86.68822499999968,
      "endTime": 86.88221831249967,
      "instrument": 1,
      "program": 37,
      "isDrum": false
    },
    {
      "pitch": 35,
      "velocity": 64,
      "startTime": 86.88302999999968,
      "endTime": 87.07702331249968,
      "instrument": 1,
      "program": 37,
      "isDrum": false
    },
    {
      "pitch": 38,
      "velocity": 64,
      "startTime": 87.07783499999968,
      "endTime": 87.27182831249968,
      "instrument": 1,
      "program": 37,
      "isDrum": false
    },
    {
      "pitch": 41,
      "velocity": 64,
      "startTime": 87.27263999999968,
      "endTime": 87.46663331249968,
      "instrument": 1,
      "program": 37,
      "isDrum": false
    },
    {
      "pitch": 41,
      "velocity": 64,
      "startTime": 87.46744499999969,
      "endTime": 87.66143831249968,
      "instrument": 1,
      "program": 37,
      "isDrum": false
    },
    {
      "pitch": 41,
      "velocity": 64,
      "startTime": 87.66224999999969,
      "endTime": 87.85624331249969,
      "instrument": 1,
      "program": 37,
      "isDrum": false
    },
    {
      "pitch": 41,
      "velocity": 64,
      "startTime": 87.85705499999969,
      "endTime": 88.05104831249969,
      "instrument": 1,
      "program": 37,
      "isDrum": false
    },
    {
      "pitch": 41,
      "velocity": 64,
      "startTime": 88.05185999999969,
      "endTime": 88.24585331249969,
      "instrument": 1,
      "program": 37,
      "isDrum": false
    },
    {
      "pitch": 41,
      "velocity": 64,
      "startTime": 88.2466649999997,
      "endTime": 88.44065831249969,
      "instrument": 1,
      "program": 37,
      "isDrum": false
    },
    {
      "pitch": 40,
      "velocity": 64,
      "startTime": 88.4414699999997,
      "endTime": 88.6354633124997,
      "instrument": 1,
      "program": 37,
      "isDrum": false
    },
    {
      "pitch": 41,
      "velocity": 64,
      "startTime": 88.6362749999997,
      "endTime": 88.8302683124997,
      "instrument": 1,
      "program": 37,
      "isDrum": false
    },
    {
      "pitch": 43,
      "velocity": 64,
      "startTime": 88.8310799999997,
      "endTime": 89.0250733124997,
      "instrument": 1,
      "program": 37,
      "isDrum": false
    },
    {
      "pitch": 31,
      "velocity": 64,
      "startTime": 89.8051049999997,
      "endTime": 89.9990983124997,
      "instrument": 1,
      "program": 37,
      "isDrum": false
    },
    {
      "pitch": 35,
      "velocity": 64,
      "startTime": 89.9999099999997,
      "endTime": 90.1939033124997,
      "instrument": 1,
      "program": 37,
      "isDrum": false
    }
  ],
  "totalTime": 130.90814831250023,
  "sourceInfo": {
    "encodingType": "MIDI",
    "parser": "TONEJS_MIDI_CONVERT"
  }
};

freedomOfChoice.notes = freedomOfChoice.notes.map( note => {
  note.startTime = note.startTime - 10;
  note.endTime = note.endTime - 10;
  return note;
});
