beautifulWorld = {
  "ticksPerQuarter": 192,
  "timeSignatures": [
    {
      "time": 0,
      "numerator": 4,
      "denominator": 4
    }
  ],
  "tempos": [
    {
      "time": 0,
      "qpm": 151.00037750094376
    }
  ],
  "notes": [
    {
      "pitch": 62,
      "velocity": 100,
      "startTime": 0,
      "endTime": 3.1788,
      "instrument": 0,
      "program": 48,
      "isDrum": false
    },
    {
      "pitch": 64,
      "velocity": 100,
      "startTime": 3.1788,
      "endTime": 6.3576,
      "instrument": 0,
      "program": 48,
      "isDrum": false
    },
    {
      "pitch": 60,
      "velocity": 100,
      "startTime": 6.3576,
      "endTime": 9.5364,
      "instrument": 0,
      "program": 48,
      "isDrum": false
    },
    {
      "pitch": 64,
      "velocity": 100,
      "startTime": 9.5364,
      "endTime": 12.7152,
      "instrument": 0,
      "program": 48,
      "isDrum": false
    },
    {
      "pitch": 59,
      "velocity": 100,
      "startTime": 12.7152,
      "endTime": 19.0728,
      "instrument": 0,
      "program": 48,
      "isDrum": false
    },
    {
      "pitch": 64,
      "velocity": 100,
      "startTime": 12.7152,
      "endTime": 19.0728,
      "instrument": 0,
      "program": 48,
      "isDrum": false
    },
    {
      "pitch": 63,
      "velocity": 100,
      "startTime": 19.0728,
      "endTime": 19.47015,
      "instrument": 0,
      "program": 48,
      "isDrum": false
    },
    {
      "pitch": 64,
      "velocity": 100,
      "startTime": 19.47015,
      "endTime": 19.8675,
      "instrument": 0,
      "program": 48,
      "isDrum": false
    },
    {
      "pitch": 66,
      "velocity": 100,
      "startTime": 19.8675,
      "endTime": 20.26485,
      "instrument": 0,
      "program": 48,
      "isDrum": false
    },
    {
      "pitch": 69,
      "velocity": 100,
      "startTime": 20.6622,
      "endTime": 21.059549999999998,
      "instrument": 0,
      "program": 48,
      "isDrum": false
    },
    {
      "pitch": 71,
      "velocity": 100,
      "startTime": 21.059549999999998,
      "endTime": 21.258225,
      "instrument": 0,
      "program": 48,
      "isDrum": false
    },
    {
      "pitch": 69,
      "velocity": 100,
      "startTime": 21.258225,
      "endTime": 21.655575,
      "instrument": 0,
      "program": 48,
      "isDrum": false
    },
    {
      "pitch": 66,
      "velocity": 100,
      "startTime": 21.655575,
      "endTime": 21.85425,
      "instrument": 0,
      "program": 48,
      "isDrum": false
    },
    {
      "pitch": 64,
      "velocity": 100,
      "startTime": 21.85425,
      "endTime": 22.2516,
      "instrument": 0,
      "program": 48,
      "isDrum": false
    },
    {
      "pitch": 63,
      "velocity": 100,
      "startTime": 22.2516,
      "endTime": 22.64895,
      "instrument": 0,
      "program": 48,
      "isDrum": false
    },
    {
      "pitch": 64,
      "velocity": 100,
      "startTime": 22.64895,
      "endTime": 23.0463,
      "instrument": 0,
      "program": 48,
      "isDrum": false
    },
    {
      "pitch": 66,
      "velocity": 100,
      "startTime": 23.0463,
      "endTime": 23.443649999999998,
      "instrument": 0,
      "program": 48,
      "isDrum": false
    },
    {
      "pitch": 69,
      "velocity": 100,
      "startTime": 23.840999999999998,
      "endTime": 24.238349999999997,
      "instrument": 0,
      "program": 48,
      "isDrum": false
    },
    {
      "pitch": 71,
      "velocity": 100,
      "startTime": 24.238349999999997,
      "endTime": 24.437025,
      "instrument": 0,
      "program": 48,
      "isDrum": false
    },
    {
      "pitch": 69,
      "velocity": 100,
      "startTime": 24.437025,
      "endTime": 24.834374999999998,
      "instrument": 0,
      "program": 48,
      "isDrum": false
    },
    {
      "pitch": 66,
      "velocity": 100,
      "startTime": 24.834374999999998,
      "endTime": 25.03305,
      "instrument": 0,
      "program": 48,
      "isDrum": false
    },
    {
      "pitch": 64,
      "velocity": 100,
      "startTime": 25.03305,
      "endTime": 25.4304,
      "instrument": 0,
      "program": 48,
      "isDrum": false
    },
    {
      "pitch": 63,
      "velocity": 100,
      "startTime": 25.4304,
      "endTime": 25.827749999999998,
      "instrument": 0,
      "program": 48,
      "isDrum": false
    },
    {
      "pitch": 64,
      "velocity": 100,
      "startTime": 25.827749999999998,
      "endTime": 26.225099999999998,
      "instrument": 0,
      "program": 48,
      "isDrum": false
    },
    {
      "pitch": 66,
      "velocity": 100,
      "startTime": 26.225099999999998,
      "endTime": 26.622449999999997,
      "instrument": 0,
      "program": 48,
      "isDrum": false
    },
    {
      "pitch": 69,
      "velocity": 100,
      "startTime": 27.019799999999996,
      "endTime": 27.417149999999996,
      "instrument": 0,
      "program": 48,
      "isDrum": false
    },
    {
      "pitch": 71,
      "velocity": 100,
      "startTime": 27.417149999999996,
      "endTime": 27.615824999999997,
      "instrument": 0,
      "program": 48,
      "isDrum": false
    },
    {
      "pitch": 69,
      "velocity": 100,
      "startTime": 27.615824999999997,
      "endTime": 28.013174999999997,
      "instrument": 0,
      "program": 48,
      "isDrum": false
    },
    {
      "pitch": 66,
      "velocity": 100,
      "startTime": 28.013174999999997,
      "endTime": 28.21185,
      "instrument": 0,
      "program": 48,
      "isDrum": false
    },
    {
      "pitch": 64,
      "velocity": 100,
      "startTime": 28.21185,
      "endTime": 28.609199999999998,
      "instrument": 0,
      "program": 48,
      "isDrum": false
    },
    {
      "pitch": 63,
      "velocity": 100,
      "startTime": 28.609199999999998,
      "endTime": 29.006549999999997,
      "instrument": 0,
      "program": 48,
      "isDrum": false
    },
    {
      "pitch": 64,
      "velocity": 100,
      "startTime": 29.006549999999997,
      "endTime": 29.403899999999997,
      "instrument": 0,
      "program": 48,
      "isDrum": false
    },
    {
      "pitch": 66,
      "velocity": 100,
      "startTime": 29.403899999999997,
      "endTime": 29.801249999999996,
      "instrument": 0,
      "program": 48,
      "isDrum": false
    },
    {
      "pitch": 69,
      "velocity": 100,
      "startTime": 30.198599999999995,
      "endTime": 30.595949999999995,
      "instrument": 0,
      "program": 48,
      "isDrum": false
    },
    {
      "pitch": 71,
      "velocity": 100,
      "startTime": 30.595949999999995,
      "endTime": 30.794624999999996,
      "instrument": 0,
      "program": 48,
      "isDrum": false
    },
    {
      "pitch": 69,
      "velocity": 100,
      "startTime": 30.794624999999996,
      "endTime": 31.191974999999996,
      "instrument": 0,
      "program": 48,
      "isDrum": false
    },
    {
      "pitch": 66,
      "velocity": 100,
      "startTime": 31.191974999999996,
      "endTime": 31.390649999999997,
      "instrument": 0,
      "program": 48,
      "isDrum": false
    },
    {
      "pitch": 64,
      "velocity": 100,
      "startTime": 31.390649999999997,
      "endTime": 31.787999999999997,
      "instrument": 0,
      "program": 48,
      "isDrum": false
    },
    {
      "pitch": 63,
      "velocity": 100,
      "startTime": 31.787999999999997,
      "endTime": 32.18535,
      "instrument": 0,
      "program": 48,
      "isDrum": false
    },
    {
      "pitch": 64,
      "velocity": 100,
      "startTime": 32.18535,
      "endTime": 32.5827,
      "instrument": 0,
      "program": 48,
      "isDrum": false
    },
    {
      "pitch": 66,
      "velocity": 100,
      "startTime": 32.5827,
      "endTime": 32.980050000000006,
      "instrument": 0,
      "program": 48,
      "isDrum": false
    },
    {
      "pitch": 69,
      "velocity": 100,
      "startTime": 33.37740000000001,
      "endTime": 33.973425000000006,
      "instrument": 0,
      "program": 48,
      "isDrum": false
    },
    {
      "pitch": 71,
      "velocity": 100,
      "startTime": 33.973425000000006,
      "endTime": 35.36415000000001,
      "instrument": 0,
      "program": 48,
      "isDrum": false
    },
    {
      "pitch": 64,
      "velocity": 100,
      "startTime": 35.36415000000001,
      "endTime": 35.76150000000001,
      "instrument": 0,
      "program": 48,
      "isDrum": false
    },
    {
      "pitch": 66,
      "velocity": 100,
      "startTime": 35.76150000000001,
      "endTime": 36.158850000000015,
      "instrument": 0,
      "program": 48,
      "isDrum": false
    },
    {
      "pitch": 69,
      "velocity": 100,
      "startTime": 36.55620000000002,
      "endTime": 37.152225000000016,
      "instrument": 0,
      "program": 48,
      "isDrum": false
    },
    {
      "pitch": 71,
      "velocity": 100,
      "startTime": 37.152225000000016,
      "endTime": 38.145600000000016,
      "instrument": 0,
      "program": 48,
      "isDrum": false
    },
    {
      "pitch": 63,
      "velocity": 100,
      "startTime": 38.145600000000016,
      "endTime": 38.54295000000002,
      "instrument": 0,
      "program": 48,
      "isDrum": false
    },
    {
      "pitch": 64,
      "velocity": 100,
      "startTime": 38.54295000000002,
      "endTime": 38.94030000000002,
      "instrument": 0,
      "program": 48,
      "isDrum": false
    },
    {
      "pitch": 66,
      "velocity": 100,
      "startTime": 38.94030000000002,
      "endTime": 39.337650000000025,
      "instrument": 0,
      "program": 48,
      "isDrum": false
    },
    {
      "pitch": 69,
      "velocity": 100,
      "startTime": 39.73500000000003,
      "endTime": 40.13235000000003,
      "instrument": 0,
      "program": 48,
      "isDrum": false
    },
    {
      "pitch": 71,
      "velocity": 100,
      "startTime": 40.13235000000003,
      "endTime": 40.33102500000003,
      "instrument": 0,
      "program": 48,
      "isDrum": false
    },
    {
      "pitch": 69,
      "velocity": 100,
      "startTime": 40.33102500000003,
      "endTime": 40.728375000000035,
      "instrument": 0,
      "program": 48,
      "isDrum": false
    },
    {
      "pitch": 66,
      "velocity": 100,
      "startTime": 40.728375000000035,
      "endTime": 40.92705000000004,
      "instrument": 0,
      "program": 48,
      "isDrum": false
    },
    {
      "pitch": 64,
      "velocity": 100,
      "startTime": 40.92705000000004,
      "endTime": 41.32440000000004,
      "instrument": 0,
      "program": 48,
      "isDrum": false
    },
    {
      "pitch": 63,
      "velocity": 100,
      "startTime": 41.32440000000004,
      "endTime": 41.72175000000004,
      "instrument": 0,
      "program": 48,
      "isDrum": false
    },
    {
      "pitch": 64,
      "velocity": 100,
      "startTime": 41.72175000000004,
      "endTime": 42.119100000000046,
      "instrument": 0,
      "program": 48,
      "isDrum": false
    },
    {
      "pitch": 66,
      "velocity": 100,
      "startTime": 42.119100000000046,
      "endTime": 42.51645000000005,
      "instrument": 0,
      "program": 48,
      "isDrum": false
    },
    {
      "pitch": 69,
      "velocity": 100,
      "startTime": 42.91380000000005,
      "endTime": 43.311150000000055,
      "instrument": 0,
      "program": 48,
      "isDrum": false
    },
    {
      "pitch": 71,
      "velocity": 100,
      "startTime": 43.311150000000055,
      "endTime": 43.509825000000056,
      "instrument": 0,
      "program": 48,
      "isDrum": false
    },
    {
      "pitch": 69,
      "velocity": 100,
      "startTime": 43.509825000000056,
      "endTime": 43.90717500000006,
      "instrument": 0,
      "program": 48,
      "isDrum": false
    },
    {
      "pitch": 66,
      "velocity": 100,
      "startTime": 43.90717500000006,
      "endTime": 44.10585000000006,
      "instrument": 0,
      "program": 48,
      "isDrum": false
    },
    {
      "pitch": 64,
      "velocity": 100,
      "startTime": 44.10585000000006,
      "endTime": 44.503200000000064,
      "instrument": 0,
      "program": 48,
      "isDrum": false
    },
    {
      "pitch": 63,
      "velocity": 100,
      "startTime": 44.503200000000064,
      "endTime": 44.90055000000007,
      "instrument": 0,
      "program": 48,
      "isDrum": false
    },
    {
      "pitch": 64,
      "velocity": 100,
      "startTime": 44.90055000000007,
      "endTime": 45.29790000000007,
      "instrument": 0,
      "program": 48,
      "isDrum": false
    },
    {
      "pitch": 66,
      "velocity": 100,
      "startTime": 45.29790000000007,
      "endTime": 45.69525000000007,
      "instrument": 0,
      "program": 48,
      "isDrum": false
    },
    {
      "pitch": 69,
      "velocity": 100,
      "startTime": 46.092600000000076,
      "endTime": 46.68862500000007,
      "instrument": 0,
      "program": 48,
      "isDrum": false
    },
    {
      "pitch": 71,
      "velocity": 100,
      "startTime": 46.68862500000007,
      "endTime": 48.079350000000076,
      "instrument": 0,
      "program": 48,
      "isDrum": false
    },
    {
      "pitch": 64,
      "velocity": 100,
      "startTime": 48.079350000000076,
      "endTime": 48.47670000000008,
      "instrument": 0,
      "program": 48,
      "isDrum": false
    },
    {
      "pitch": 66,
      "velocity": 100,
      "startTime": 48.47670000000008,
      "endTime": 48.87405000000008,
      "instrument": 0,
      "program": 48,
      "isDrum": false
    },
    {
      "pitch": 69,
      "velocity": 100,
      "startTime": 49.271400000000085,
      "endTime": 49.86742500000008,
      "instrument": 0,
      "program": 48,
      "isDrum": false
    },
    {
      "pitch": 71,
      "velocity": 100,
      "startTime": 49.86742500000008,
      "endTime": 51.258150000000086,
      "instrument": 0,
      "program": 48,
      "isDrum": false
    },
    {
      "pitch": 64,
      "velocity": 100,
      "startTime": 51.258150000000086,
      "endTime": 51.65550000000009,
      "instrument": 0,
      "program": 48,
      "isDrum": false
    },
    {
      "pitch": 66,
      "velocity": 100,
      "startTime": 51.65550000000009,
      "endTime": 52.05285000000009,
      "instrument": 0,
      "program": 48,
      "isDrum": false
    },
    {
      "pitch": 69,
      "velocity": 100,
      "startTime": 52.450200000000095,
      "endTime": 52.8475500000001,
      "instrument": 0,
      "program": 48,
      "isDrum": false
    },
    {
      "pitch": 71,
      "velocity": 100,
      "startTime": 52.8475500000001,
      "endTime": 53.0462250000001,
      "instrument": 0,
      "program": 48,
      "isDrum": false
    },
    {
      "pitch": 69,
      "velocity": 100,
      "startTime": 53.0462250000001,
      "endTime": 53.4435750000001,
      "instrument": 0,
      "program": 48,
      "isDrum": false
    },
    {
      "pitch": 66,
      "velocity": 100,
      "startTime": 53.4435750000001,
      "endTime": 53.642250000000104,
      "instrument": 0,
      "program": 48,
      "isDrum": false
    },
    {
      "pitch": 64,
      "velocity": 100,
      "startTime": 53.642250000000104,
      "endTime": 54.03960000000011,
      "instrument": 0,
      "program": 48,
      "isDrum": false
    },
    {
      "pitch": 63,
      "velocity": 100,
      "startTime": 54.03960000000011,
      "endTime": 54.43695000000011,
      "instrument": 0,
      "program": 48,
      "isDrum": false
    },
    {
      "pitch": 64,
      "velocity": 100,
      "startTime": 54.43695000000011,
      "endTime": 54.83430000000011,
      "instrument": 0,
      "program": 48,
      "isDrum": false
    },
    {
      "pitch": 66,
      "velocity": 100,
      "startTime": 54.83430000000011,
      "endTime": 55.231650000000116,
      "instrument": 0,
      "program": 48,
      "isDrum": false
    },
    {
      "pitch": 69,
      "velocity": 100,
      "startTime": 55.62900000000012,
      "endTime": 56.02635000000012,
      "instrument": 0,
      "program": 48,
      "isDrum": false
    },
    {
      "pitch": 71,
      "velocity": 100,
      "startTime": 56.02635000000012,
      "endTime": 56.22502500000012,
      "instrument": 0,
      "program": 48,
      "isDrum": false
    },
    {
      "pitch": 69,
      "velocity": 100,
      "startTime": 56.22502500000012,
      "endTime": 56.622375000000126,
      "instrument": 0,
      "program": 48,
      "isDrum": false
    },
    {
      "pitch": 66,
      "velocity": 100,
      "startTime": 56.622375000000126,
      "endTime": 56.82105000000013,
      "instrument": 0,
      "program": 48,
      "isDrum": false
    },
    {
      "pitch": 64,
      "velocity": 100,
      "startTime": 56.82105000000013,
      "endTime": 57.21840000000013,
      "instrument": 0,
      "program": 48,
      "isDrum": false
    },
    {
      "pitch": 64,
      "velocity": 100,
      "startTime": 57.61575000000013,
      "endTime": 58.013100000000136,
      "instrument": 0,
      "program": 48,
      "isDrum": false
    },
    {
      "pitch": 66,
      "velocity": 100,
      "startTime": 58.013100000000136,
      "endTime": 58.41045000000014,
      "instrument": 0,
      "program": 48,
      "isDrum": false
    },
    {
      "pitch": 69,
      "velocity": 100,
      "startTime": 58.80780000000014,
      "endTime": 59.205150000000145,
      "instrument": 0,
      "program": 48,
      "isDrum": false
    },
    {
      "pitch": 71,
      "velocity": 100,
      "startTime": 59.205150000000145,
      "endTime": 59.40382500000015,
      "instrument": 0,
      "program": 48,
      "isDrum": false
    },
    {
      "pitch": 69,
      "velocity": 100,
      "startTime": 59.40382500000015,
      "endTime": 59.80117500000015,
      "instrument": 0,
      "program": 48,
      "isDrum": false
    },
    {
      "pitch": 66,
      "velocity": 100,
      "startTime": 59.80117500000015,
      "endTime": 59.99985000000015,
      "instrument": 0,
      "program": 48,
      "isDrum": false
    },
    {
      "pitch": 31,
      "velocity": 100,
      "startTime": 0,
      "endTime": 3.1788,
      "instrument": 1,
      "program": 49,
      "isDrum": false
    },
    {
      "pitch": 43,
      "velocity": 100,
      "startTime": 0,
      "endTime": 3.1788,
      "instrument": 1,
      "program": 49,
      "isDrum": false
    },
    {
      "pitch": 33,
      "velocity": 100,
      "startTime": 3.1788,
      "endTime": 6.3576,
      "instrument": 1,
      "program": 49,
      "isDrum": false
    },
    {
      "pitch": 45,
      "velocity": 100,
      "startTime": 3.1788,
      "endTime": 6.3576,
      "instrument": 1,
      "program": 49,
      "isDrum": false
    },
    {
      "pitch": 29,
      "velocity": 100,
      "startTime": 6.3576,
      "endTime": 9.5364,
      "instrument": 1,
      "program": 49,
      "isDrum": false
    },
    {
      "pitch": 41,
      "velocity": 100,
      "startTime": 6.3576,
      "endTime": 9.5364,
      "instrument": 1,
      "program": 49,
      "isDrum": false
    },
    {
      "pitch": 24,
      "velocity": 100,
      "startTime": 9.5364,
      "endTime": 12.7152,
      "instrument": 1,
      "program": 49,
      "isDrum": false
    },
    {
      "pitch": 36,
      "velocity": 100,
      "startTime": 9.5364,
      "endTime": 12.7152,
      "instrument": 1,
      "program": 49,
      "isDrum": false
    },
    {
      "pitch": 28,
      "velocity": 100,
      "startTime": 12.7152,
      "endTime": 19.072799999999997,
      "instrument": 1,
      "program": 49,
      "isDrum": false
    },
    {
      "pitch": 40,
      "velocity": 100,
      "startTime": 12.7152,
      "endTime": 15.893999999999998,
      "instrument": 1,
      "program": 49,
      "isDrum": false
    },
    {
      "pitch": 40,
      "velocity": 100,
      "startTime": 15.893999999999998,
      "endTime": 19.072799999999997,
      "instrument": 1,
      "program": 49,
      "isDrum": false
    },
    {
      "pitch": 35,
      "velocity": 100,
      "startTime": 19.072799999999997,
      "endTime": 34.96679999999999,
      "instrument": 1,
      "program": 49,
      "isDrum": false
    },
    {
      "pitch": 47,
      "velocity": 100,
      "startTime": 19.072799999999997,
      "endTime": 34.96679999999999,
      "instrument": 1,
      "program": 49,
      "isDrum": false
    },
    {
      "pitch": 28,
      "velocity": 100,
      "startTime": 34.96679999999999,
      "endTime": 38.145599999999995,
      "instrument": 1,
      "program": 49,
      "isDrum": false
    },
    {
      "pitch": 40,
      "velocity": 100,
      "startTime": 34.96679999999999,
      "endTime": 38.145599999999995,
      "instrument": 1,
      "program": 49,
      "isDrum": false
    },
    {
      "pitch": 35,
      "velocity": 100,
      "startTime": 38.145599999999995,
      "endTime": 47.681999999999995,
      "instrument": 1,
      "program": 49,
      "isDrum": false
    },
    {
      "pitch": 47,
      "velocity": 100,
      "startTime": 38.145599999999995,
      "endTime": 47.681999999999995,
      "instrument": 1,
      "program": 49,
      "isDrum": false
    },
    {
      "pitch": 28,
      "velocity": 100,
      "startTime": 47.681999999999995,
      "endTime": 50.8608,
      "instrument": 1,
      "program": 49,
      "isDrum": false
    },
    {
      "pitch": 40,
      "velocity": 100,
      "startTime": 47.681999999999995,
      "endTime": 50.8608,
      "instrument": 1,
      "program": 49,
      "isDrum": false
    },
    {
      "pitch": 35,
      "velocity": 100,
      "startTime": 50.8608,
      "endTime": 57.218399999999995,
      "instrument": 1,
      "program": 49,
      "isDrum": false
    },
    {
      "pitch": 47,
      "velocity": 100,
      "startTime": 50.8608,
      "endTime": 57.218399999999995,
      "instrument": 1,
      "program": 49,
      "isDrum": false
    },
    {
      "pitch": 50,
      "velocity": 100,
      "startTime": 0,
      "endTime": 3.1788,
      "instrument": 2,
      "program": 27,
      "isDrum": false
    },
    {
      "pitch": 52,
      "velocity": 100,
      "startTime": 3.1788,
      "endTime": 6.3576,
      "instrument": 2,
      "program": 27,
      "isDrum": false
    },
    {
      "pitch": 48,
      "velocity": 100,
      "startTime": 6.3576,
      "endTime": 9.5364,
      "instrument": 2,
      "program": 27,
      "isDrum": false
    },
    {
      "pitch": 52,
      "velocity": 100,
      "startTime": 9.5364,
      "endTime": 12.7152,
      "instrument": 2,
      "program": 27,
      "isDrum": false
    },
    {
      "pitch": 52,
      "velocity": 100,
      "startTime": 12.7152,
      "endTime": 15.297975,
      "instrument": 2,
      "program": 27,
      "isDrum": false
    },
    {
      "pitch": 56,
      "velocity": 100,
      "startTime": 12.7152,
      "endTime": 15.297975,
      "instrument": 2,
      "program": 27,
      "isDrum": false
    },
    {
      "pitch": 59,
      "velocity": 100,
      "startTime": 12.7152,
      "endTime": 15.297975,
      "instrument": 2,
      "program": 27,
      "isDrum": false
    },
    {
      "pitch": 52,
      "velocity": 100,
      "startTime": 15.297975,
      "endTime": 15.496649999999999,
      "instrument": 2,
      "program": 27,
      "isDrum": false
    },
    {
      "pitch": 56,
      "velocity": 100,
      "startTime": 15.297975,
      "endTime": 15.496649999999999,
      "instrument": 2,
      "program": 27,
      "isDrum": false
    },
    {
      "pitch": 59,
      "velocity": 100,
      "startTime": 15.297975,
      "endTime": 15.496649999999999,
      "instrument": 2,
      "program": 27,
      "isDrum": false
    },
    {
      "pitch": 52,
      "velocity": 100,
      "startTime": 15.496649999999999,
      "endTime": 15.893999999999998,
      "instrument": 2,
      "program": 27,
      "isDrum": false
    },
    {
      "pitch": 56,
      "velocity": 100,
      "startTime": 15.496649999999999,
      "endTime": 15.893999999999998,
      "instrument": 2,
      "program": 27,
      "isDrum": false
    },
    {
      "pitch": 59,
      "velocity": 100,
      "startTime": 15.496649999999999,
      "endTime": 15.893999999999998,
      "instrument": 2,
      "program": 27,
      "isDrum": false
    },
    {
      "pitch": 52,
      "velocity": 100,
      "startTime": 15.893999999999998,
      "endTime": 19.0728,
      "instrument": 2,
      "program": 27,
      "isDrum": false
    },
    {
      "pitch": 56,
      "velocity": 100,
      "startTime": 15.893999999999998,
      "endTime": 19.0728,
      "instrument": 2,
      "program": 27,
      "isDrum": false
    },
    {
      "pitch": 59,
      "velocity": 100,
      "startTime": 15.893999999999998,
      "endTime": 17.4834,
      "instrument": 2,
      "program": 27,
      "isDrum": false
    },
    {
      "pitch": 59,
      "velocity": 100,
      "startTime": 15.908486718749998,
      "endTime": 19.0728,
      "instrument": 2,
      "program": 27,
      "isDrum": false
    },
    {
      "pitch": 59,
      "velocity": 100,
      "startTime": 19.0728,
      "endTime": 20.641504687500003,
      "instrument": 2,
      "program": 27,
      "isDrum": false
    },
    {
      "pitch": 66,
      "velocity": 100,
      "startTime": 19.0728,
      "endTime": 20.641504687500003,
      "instrument": 2,
      "program": 27,
      "isDrum": false
    },
    {
      "pitch": 71,
      "velocity": 100,
      "startTime": 19.0728,
      "endTime": 20.5628625,
      "instrument": 2,
      "program": 27,
      "isDrum": false
    },
    {
      "pitch": 59,
      "velocity": 100,
      "startTime": 22.251600000000003,
      "endTime": 23.820304687500002,
      "instrument": 2,
      "program": 27,
      "isDrum": false
    },
    {
      "pitch": 66,
      "velocity": 100,
      "startTime": 22.251600000000003,
      "endTime": 23.820304687500002,
      "instrument": 2,
      "program": 27,
      "isDrum": false
    },
    {
      "pitch": 71,
      "velocity": 100,
      "startTime": 22.251600000000003,
      "endTime": 23.940337500000002,
      "instrument": 2,
      "program": 27,
      "isDrum": false
    },
    {
      "pitch": 59,
      "velocity": 100,
      "startTime": 25.430400000000002,
      "endTime": 26.999104687500004,
      "instrument": 2,
      "program": 27,
      "isDrum": false
    },
    {
      "pitch": 66,
      "velocity": 100,
      "startTime": 25.430400000000002,
      "endTime": 26.999104687500004,
      "instrument": 2,
      "program": 27,
      "isDrum": false
    },
    {
      "pitch": 71,
      "velocity": 100,
      "startTime": 25.430400000000002,
      "endTime": 26.920462500000003,
      "instrument": 2,
      "program": 27,
      "isDrum": false
    },
    {
      "pitch": 59,
      "velocity": 100,
      "startTime": 28.609200000000005,
      "endTime": 30.177904687500003,
      "instrument": 2,
      "program": 27,
      "isDrum": false
    },
    {
      "pitch": 66,
      "velocity": 100,
      "startTime": 28.609200000000005,
      "endTime": 30.177904687500003,
      "instrument": 2,
      "program": 27,
      "isDrum": false
    },
    {
      "pitch": 71,
      "velocity": 100,
      "startTime": 28.609200000000005,
      "endTime": 30.198600000000003,
      "instrument": 2,
      "program": 27,
      "isDrum": false
    },
    {
      "pitch": 59,
      "velocity": 100,
      "startTime": 31.788000000000004,
      "endTime": 33.356704687500006,
      "instrument": 2,
      "program": 27,
      "isDrum": false
    },
    {
      "pitch": 66,
      "velocity": 100,
      "startTime": 31.788000000000004,
      "endTime": 33.356704687500006,
      "instrument": 2,
      "program": 27,
      "isDrum": false
    },
    {
      "pitch": 71,
      "velocity": 100,
      "startTime": 31.788000000000004,
      "endTime": 33.278062500000004,
      "instrument": 2,
      "program": 27,
      "isDrum": false
    },
    {
      "pitch": 52,
      "velocity": 100,
      "startTime": 34.966800000000006,
      "endTime": 36.53550468750001,
      "instrument": 2,
      "program": 27,
      "isDrum": false
    },
    {
      "pitch": 59,
      "velocity": 100,
      "startTime": 34.966800000000006,
      "endTime": 36.53550468750001,
      "instrument": 2,
      "program": 27,
      "isDrum": false
    },
    {
      "pitch": 64,
      "velocity": 100,
      "startTime": 34.966800000000006,
      "endTime": 36.45686250000001,
      "instrument": 2,
      "program": 27,
      "isDrum": false
    },
    {
      "pitch": 59,
      "velocity": 100,
      "startTime": 38.14560000000001,
      "endTime": 39.71430468750001,
      "instrument": 2,
      "program": 27,
      "isDrum": false
    },
    {
      "pitch": 66,
      "velocity": 100,
      "startTime": 38.14560000000001,
      "endTime": 39.71430468750001,
      "instrument": 2,
      "program": 27,
      "isDrum": false
    },
    {
      "pitch": 71,
      "velocity": 100,
      "startTime": 38.14560000000001,
      "endTime": 39.63566250000001,
      "instrument": 2,
      "program": 27,
      "isDrum": false
    },
    {
      "pitch": 59,
      "velocity": 100,
      "startTime": 41.32440000000001,
      "endTime": 42.89310468750001,
      "instrument": 2,
      "program": 27,
      "isDrum": false
    },
    {
      "pitch": 66,
      "velocity": 100,
      "startTime": 41.32440000000001,
      "endTime": 42.89310468750001,
      "instrument": 2,
      "program": 27,
      "isDrum": false
    },
    {
      "pitch": 71,
      "velocity": 100,
      "startTime": 41.32440000000001,
      "endTime": 42.81446250000001,
      "instrument": 2,
      "program": 27,
      "isDrum": false
    },
    {
      "pitch": 59,
      "velocity": 100,
      "startTime": 44.503200000000014,
      "endTime": 46.071904687500016,
      "instrument": 2,
      "program": 27,
      "isDrum": false
    },
    {
      "pitch": 66,
      "velocity": 100,
      "startTime": 44.503200000000014,
      "endTime": 46.071904687500016,
      "instrument": 2,
      "program": 27,
      "isDrum": false
    },
    {
      "pitch": 71,
      "velocity": 100,
      "startTime": 44.503200000000014,
      "endTime": 45.993262500000014,
      "instrument": 2,
      "program": 27,
      "isDrum": false
    },
    {
      "pitch": 52,
      "velocity": 100,
      "startTime": 47.682000000000016,
      "endTime": 49.25070468750002,
      "instrument": 2,
      "program": 27,
      "isDrum": false
    },
    {
      "pitch": 59,
      "velocity": 100,
      "startTime": 47.682000000000016,
      "endTime": 49.25070468750002,
      "instrument": 2,
      "program": 27,
      "isDrum": false
    },
    {
      "pitch": 64,
      "velocity": 100,
      "startTime": 47.682000000000016,
      "endTime": 49.17206250000002,
      "instrument": 2,
      "program": 27,
      "isDrum": false
    },
    {
      "pitch": 59,
      "velocity": 100,
      "startTime": 50.86080000000002,
      "endTime": 52.42950468750002,
      "instrument": 2,
      "program": 27,
      "isDrum": false
    },
    {
      "pitch": 66,
      "velocity": 100,
      "startTime": 50.86080000000002,
      "endTime": 52.42950468750002,
      "instrument": 2,
      "program": 27,
      "isDrum": false
    },
    {
      "pitch": 71,
      "velocity": 100,
      "startTime": 50.86080000000002,
      "endTime": 52.35086250000002,
      "instrument": 2,
      "program": 27,
      "isDrum": false
    },
    {
      "pitch": 59,
      "velocity": 100,
      "startTime": 54.03960000000002,
      "endTime": 55.60830468750002,
      "instrument": 2,
      "program": 27,
      "isDrum": false
    },
    {
      "pitch": 66,
      "velocity": 100,
      "startTime": 54.03960000000002,
      "endTime": 55.60830468750002,
      "instrument": 2,
      "program": 27,
      "isDrum": false
    },
    {
      "pitch": 71,
      "velocity": 100,
      "startTime": 54.03960000000002,
      "endTime": 55.52966250000002,
      "instrument": 2,
      "program": 27,
      "isDrum": false
    },
    {
      "pitch": 57,
      "velocity": 100,
      "startTime": 57.218400000000024,
      "endTime": 58.787104687500026,
      "instrument": 2,
      "program": 27,
      "isDrum": false
    },
    {
      "pitch": 64,
      "velocity": 100,
      "startTime": 57.218400000000024,
      "endTime": 58.787104687500026,
      "instrument": 2,
      "program": 27,
      "isDrum": false
    },
    {
      "pitch": 69,
      "velocity": 100,
      "startTime": 57.218400000000024,
      "endTime": 58.708462500000024,
      "instrument": 2,
      "program": 27,
      "isDrum": false
    },
    {
      "pitch": 59,
      "velocity": 100,
      "startTime": 31.390649999999997,
      "endTime": 31.489987499999998,
      "instrument": 3,
      "program": 11,
      "isDrum": false
    },
    {
      "pitch": 59,
      "velocity": 100,
      "startTime": 31.589325,
      "endTime": 31.6886625,
      "instrument": 3,
      "program": 11,
      "isDrum": false
    },
    {
      "pitch": 57,
      "velocity": 100,
      "startTime": 31.788,
      "endTime": 31.8873375,
      "instrument": 3,
      "program": 11,
      "isDrum": false
    },
    {
      "pitch": 57,
      "velocity": 100,
      "startTime": 31.986675,
      "endTime": 32.0860125,
      "instrument": 3,
      "program": 11,
      "isDrum": false
    },
    {
      "pitch": 59,
      "velocity": 100,
      "startTime": 32.18535,
      "endTime": 32.384025,
      "instrument": 3,
      "program": 11,
      "isDrum": false
    },
    {
      "pitch": 59,
      "velocity": 100,
      "startTime": 32.5827,
      "endTime": 32.781375000000004,
      "instrument": 3,
      "program": 11,
      "isDrum": false
    },
    {
      "pitch": 59,
      "velocity": 100,
      "startTime": 32.98418906250001,
      "endTime": 33.17872500000001,
      "instrument": 3,
      "program": 11,
      "isDrum": false
    },
    {
      "pitch": 57,
      "velocity": 100,
      "startTime": 33.37740000000001,
      "endTime": 33.476737500000006,
      "instrument": 3,
      "program": 11,
      "isDrum": false
    },
    {
      "pitch": 59,
      "velocity": 100,
      "startTime": 33.580214062500005,
      "endTime": 34.58393671875,
      "instrument": 3,
      "program": 11,
      "isDrum": false
    },
    {
      "pitch": 56,
      "velocity": 100,
      "startTime": 34.768125000000005,
      "endTime": 34.8674625,
      "instrument": 3,
      "program": 11,
      "isDrum": false
    },
    {
      "pitch": 56,
      "velocity": 100,
      "startTime": 34.9668,
      "endTime": 35.35794140625,
      "instrument": 3,
      "program": 11,
      "isDrum": false
    },
    {
      "pitch": 59,
      "velocity": 100,
      "startTime": 35.36415,
      "endTime": 35.63111953125,
      "instrument": 3,
      "program": 11,
      "isDrum": false
    },
    {
      "pitch": 59,
      "velocity": 100,
      "startTime": 35.7615,
      "endTime": 36.15885,
      "instrument": 3,
      "program": 11,
      "isDrum": false
    },
    {
      "pitch": 62,
      "velocity": 100,
      "startTime": 36.15885,
      "endTime": 36.48790546875,
      "instrument": 3,
      "program": 11,
      "isDrum": false
    },
    {
      "pitch": 59,
      "velocity": 100,
      "startTime": 36.5562,
      "endTime": 37.955203125,
      "instrument": 3,
      "program": 11,
      "isDrum": false
    },
    {
      "pitch": 57,
      "velocity": 100,
      "startTime": 38.145599999999995,
      "endTime": 38.344274999999996,
      "instrument": 3,
      "program": 11,
      "isDrum": false
    },
    {
      "pitch": 57,
      "velocity": 100,
      "startTime": 38.344274999999996,
      "endTime": 38.54295,
      "instrument": 3,
      "program": 11,
      "isDrum": false
    },
    {
      "pitch": 59,
      "velocity": 100,
      "startTime": 38.54295,
      "endTime": 38.80164140625,
      "instrument": 3,
      "program": 11,
      "isDrum": false
    },
    {
      "pitch": 59,
      "velocity": 100,
      "startTime": 38.9403,
      "endTime": 39.130696875,
      "instrument": 3,
      "program": 11,
      "isDrum": false
    },
    {
      "pitch": 59,
      "velocity": 100,
      "startTime": 39.33765,
      "endTime": 39.5073515625,
      "instrument": 3,
      "program": 11,
      "isDrum": false
    },
    {
      "pitch": 57,
      "velocity": 100,
      "startTime": 39.735,
      "endTime": 39.863310937499996,
      "instrument": 3,
      "program": 11,
      "isDrum": false
    },
    {
      "pitch": 59,
      "velocity": 100,
      "startTime": 39.933674999999994,
      "endTime": 40.20271406249999,
      "instrument": 3,
      "program": 11,
      "isDrum": false
    },
    {
      "pitch": 59,
      "velocity": 100,
      "startTime": 40.33102499999999,
      "endTime": 41.41338984374999,
      "instrument": 3,
      "program": 11,
      "isDrum": false
    },
    {
      "pitch": 59,
      "velocity": 100,
      "startTime": 41.721749999999986,
      "endTime": 41.92042499999999,
      "instrument": 3,
      "program": 11,
      "isDrum": false
    },
    {
      "pitch": 59,
      "velocity": 100,
      "startTime": 42.11909999999999,
      "endTime": 42.28673203124999,
      "instrument": 3,
      "program": 11,
      "isDrum": false
    },
    {
      "pitch": 59,
      "velocity": 100,
      "startTime": 42.51644999999999,
      "endTime": 42.86413124999999,
      "instrument": 3,
      "program": 11,
      "isDrum": false
    },
    {
      "pitch": 63,
      "velocity": 100,
      "startTime": 42.913799999999995,
      "endTime": 43.31115,
      "instrument": 3,
      "program": 11,
      "isDrum": false
    },
    {
      "pitch": 59,
      "velocity": 100,
      "startTime": 43.31115,
      "endTime": 43.52845078125,
      "instrument": 3,
      "program": 11,
      "isDrum": false
    },
    {
      "pitch": 59,
      "velocity": 100,
      "startTime": 43.7085,
      "endTime": 44.21553515625,
      "instrument": 3,
      "program": 11,
      "isDrum": false
    },
    {
      "pitch": 59,
      "velocity": 100,
      "startTime": 44.304525,
      "endTime": 44.44318359375,
      "instrument": 3,
      "program": 11,
      "isDrum": false
    },
    {
      "pitch": 57,
      "velocity": 100,
      "startTime": 44.5032,
      "endTime": 44.81983828125,
      "instrument": 3,
      "program": 11,
      "isDrum": false
    },
    {
      "pitch": 59,
      "velocity": 100,
      "startTime": 44.90055,
      "endTime": 45.190284375000005,
      "instrument": 3,
      "program": 11,
      "isDrum": false
    },
    {
      "pitch": 59,
      "velocity": 100,
      "startTime": 45.297900000000006,
      "endTime": 45.74491875000001,
      "instrument": 3,
      "program": 11,
      "isDrum": false
    },
    {
      "pitch": 62,
      "velocity": 100,
      "startTime": 45.69525000000001,
      "endTime": 46.113295312500014,
      "instrument": 3,
      "program": 11,
      "isDrum": false
    },
    {
      "pitch": 59,
      "velocity": 100,
      "startTime": 46.09260000000001,
      "endTime": 47.11494843750001,
      "instrument": 3,
      "program": 11,
      "isDrum": false
    },
    {
      "pitch": 56,
      "velocity": 100,
      "startTime": 47.28465000000001,
      "endTime": 47.37363984375001,
      "instrument": 3,
      "program": 11,
      "isDrum": false
    },
    {
      "pitch": 56,
      "velocity": 100,
      "startTime": 47.483325000000015,
      "endTime": 47.572314843750014,
      "instrument": 3,
      "program": 11,
      "isDrum": false
    },
    {
      "pitch": 56,
      "velocity": 100,
      "startTime": 47.682000000000016,
      "endTime": 47.770989843750016,
      "instrument": 3,
      "program": 11,
      "isDrum": false
    },
    {
      "pitch": 59,
      "velocity": 100,
      "startTime": 47.88067500000002,
      "endTime": 48.008985937500015,
      "instrument": 3,
      "program": 11,
      "isDrum": false
    },
    {
      "pitch": 59,
      "velocity": 100,
      "startTime": 48.07935000000001,
      "endTime": 48.28837265625001,
      "instrument": 3,
      "program": 11,
      "isDrum": false
    },
    {
      "pitch": 59,
      "velocity": 100,
      "startTime": 48.48083906250001,
      "endTime": 49.74325312500001,
      "instrument": 3,
      "program": 11,
      "isDrum": false
    },
    {
      "pitch": 57,
      "velocity": 100,
      "startTime": 50.46345000000001,
      "endTime": 50.55243984375001,
      "instrument": 3,
      "program": 11,
      "isDrum": false
    },
    {
      "pitch": 57,
      "velocity": 100,
      "startTime": 50.66212500000001,
      "endTime": 50.75111484375001,
      "instrument": 3,
      "program": 11,
      "isDrum": false
    },
    {
      "pitch": 57,
      "velocity": 100,
      "startTime": 50.86080000000001,
      "endTime": 50.94978984375001,
      "instrument": 3,
      "program": 11,
      "isDrum": false
    },
    {
      "pitch": 59,
      "velocity": 100,
      "startTime": 51.05947500000001,
      "endTime": 51.18778593750001,
      "instrument": 3,
      "program": 11,
      "isDrum": false
    },
    {
      "pitch": 59,
      "velocity": 100,
      "startTime": 51.25815000000001,
      "endTime": 51.46717265625001,
      "instrument": 3,
      "program": 11,
      "isDrum": false
    },
    {
      "pitch": 59,
      "velocity": 100,
      "startTime": 51.659639062500005,
      "endTime": 52.922053125000005,
      "instrument": 3,
      "program": 11,
      "isDrum": false
    },
    {
      "pitch": 57,
      "velocity": 100,
      "startTime": 53.642250000000004,
      "endTime": 53.731239843750004,
      "instrument": 3,
      "program": 11,
      "isDrum": false
    },
    {
      "pitch": 57,
      "velocity": 100,
      "startTime": 53.840925000000006,
      "endTime": 53.929914843750005,
      "instrument": 3,
      "program": 11,
      "isDrum": false
    },
    {
      "pitch": 57,
      "velocity": 100,
      "startTime": 54.03960000000001,
      "endTime": 54.12858984375001,
      "instrument": 3,
      "program": 11,
      "isDrum": false
    },
    {
      "pitch": 59,
      "velocity": 100,
      "startTime": 54.23827500000001,
      "endTime": 54.366585937500005,
      "instrument": 3,
      "program": 11,
      "isDrum": false
    },
    {
      "pitch": 59,
      "velocity": 100,
      "startTime": 54.43695,
      "endTime": 54.64597265625,
      "instrument": 3,
      "program": 11,
      "isDrum": false
    },
    {
      "pitch": 59,
      "velocity": 100,
      "startTime": 54.8384390625,
      "endTime": 56.100853125,
      "instrument": 3,
      "program": 11,
      "isDrum": false
    },
    {
      "pitch": 63,
      "velocity": 100,
      "startTime": 56.82105,
      "endTime": 57.2184,
      "instrument": 3,
      "program": 11,
      "isDrum": false
    },
    {
      "pitch": 57,
      "velocity": 100,
      "startTime": 57.2184,
      "endTime": 57.913762500000004,
      "instrument": 3,
      "program": 11,
      "isDrum": false
    },
    {
      "pitch": 31,
      "velocity": 100,
      "startTime": 0,
      "endTime": 3.1788,
      "instrument": 4,
      "program": 61,
      "isDrum": false
    },
    {
      "pitch": 43,
      "velocity": 100,
      "startTime": 0,
      "endTime": 3.1788,
      "instrument": 4,
      "program": 61,
      "isDrum": false
    },
    {
      "pitch": 33,
      "velocity": 100,
      "startTime": 3.1788,
      "endTime": 6.3576,
      "instrument": 4,
      "program": 61,
      "isDrum": false
    },
    {
      "pitch": 45,
      "velocity": 100,
      "startTime": 3.1788,
      "endTime": 6.3576,
      "instrument": 4,
      "program": 61,
      "isDrum": false
    },
    {
      "pitch": 29,
      "velocity": 100,
      "startTime": 6.3576,
      "endTime": 9.5364,
      "instrument": 4,
      "program": 61,
      "isDrum": false
    },
    {
      "pitch": 41,
      "velocity": 100,
      "startTime": 6.3576,
      "endTime": 9.5364,
      "instrument": 4,
      "program": 61,
      "isDrum": false
    },
    {
      "pitch": 24,
      "velocity": 100,
      "startTime": 9.5364,
      "endTime": 12.7152,
      "instrument": 4,
      "program": 61,
      "isDrum": false
    },
    {
      "pitch": 36,
      "velocity": 100,
      "startTime": 9.5364,
      "endTime": 12.7152,
      "instrument": 4,
      "program": 61,
      "isDrum": false
    },
    {
      "pitch": 28,
      "velocity": 100,
      "startTime": 12.7152,
      "endTime": 19.072799999999997,
      "instrument": 4,
      "program": 61,
      "isDrum": false
    },
    {
      "pitch": 40,
      "velocity": 100,
      "startTime": 12.7152,
      "endTime": 15.893999999999998,
      "instrument": 4,
      "program": 61,
      "isDrum": false
    },
    {
      "pitch": 40,
      "velocity": 100,
      "startTime": 15.893999999999998,
      "endTime": 19.072799999999997,
      "instrument": 4,
      "program": 61,
      "isDrum": false
    },
    {
      "pitch": 35,
      "velocity": 100,
      "startTime": 19.072799999999997,
      "endTime": 34.96679999999999,
      "instrument": 4,
      "program": 61,
      "isDrum": false
    },
    {
      "pitch": 47,
      "velocity": 100,
      "startTime": 19.072799999999997,
      "endTime": 34.96679999999999,
      "instrument": 4,
      "program": 61,
      "isDrum": false
    },
    {
      "pitch": 28,
      "velocity": 100,
      "startTime": 34.96679999999999,
      "endTime": 38.145599999999995,
      "instrument": 4,
      "program": 61,
      "isDrum": false
    },
    {
      "pitch": 40,
      "velocity": 100,
      "startTime": 34.96679999999999,
      "endTime": 38.145599999999995,
      "instrument": 4,
      "program": 61,
      "isDrum": false
    },
    {
      "pitch": 35,
      "velocity": 100,
      "startTime": 38.145599999999995,
      "endTime": 47.681999999999995,
      "instrument": 4,
      "program": 61,
      "isDrum": false
    },
    {
      "pitch": 47,
      "velocity": 100,
      "startTime": 38.145599999999995,
      "endTime": 47.681999999999995,
      "instrument": 4,
      "program": 61,
      "isDrum": false
    },
    {
      "pitch": 28,
      "velocity": 100,
      "startTime": 47.681999999999995,
      "endTime": 50.8608,
      "instrument": 4,
      "program": 61,
      "isDrum": false
    },
    {
      "pitch": 40,
      "velocity": 100,
      "startTime": 47.681999999999995,
      "endTime": 50.8608,
      "instrument": 4,
      "program": 61,
      "isDrum": false
    },
    {
      "pitch": 35,
      "velocity": 100,
      "startTime": 50.8608,
      "endTime": 57.218399999999995,
      "instrument": 4,
      "program": 61,
      "isDrum": false
    },
    {
      "pitch": 47,
      "velocity": 100,
      "startTime": 50.8608,
      "endTime": 57.218399999999995,
      "instrument": 4,
      "program": 61,
      "isDrum": false
    },
    {
      "pitch": 50,
      "velocity": 100,
      "startTime": 0,
      "endTime": 3.1788,
      "instrument": 5,
      "program": 25,
      "isDrum": false
    },
    {
      "pitch": 52,
      "velocity": 100,
      "startTime": 3.1788,
      "endTime": 6.3576,
      "instrument": 5,
      "program": 25,
      "isDrum": false
    },
    {
      "pitch": 48,
      "velocity": 100,
      "startTime": 6.3576,
      "endTime": 9.5364,
      "instrument": 5,
      "program": 25,
      "isDrum": false
    },
    {
      "pitch": 52,
      "velocity": 100,
      "startTime": 9.5364,
      "endTime": 12.7152,
      "instrument": 5,
      "program": 25,
      "isDrum": false
    },
    {
      "pitch": 64,
      "velocity": 100,
      "startTime": 12.7152,
      "endTime": 15.297975,
      "instrument": 5,
      "program": 25,
      "isDrum": false
    },
    {
      "pitch": 68,
      "velocity": 100,
      "startTime": 12.7152,
      "endTime": 15.297975,
      "instrument": 5,
      "program": 25,
      "isDrum": false
    },
    {
      "pitch": 71,
      "velocity": 100,
      "startTime": 12.7152,
      "endTime": 15.297975,
      "instrument": 5,
      "program": 25,
      "isDrum": false
    },
    {
      "pitch": 64,
      "velocity": 100,
      "startTime": 15.297975,
      "endTime": 15.496649999999999,
      "instrument": 5,
      "program": 25,
      "isDrum": false
    },
    {
      "pitch": 68,
      "velocity": 100,
      "startTime": 15.297975,
      "endTime": 15.496649999999999,
      "instrument": 5,
      "program": 25,
      "isDrum": false
    },
    {
      "pitch": 71,
      "velocity": 100,
      "startTime": 15.297975,
      "endTime": 15.496649999999999,
      "instrument": 5,
      "program": 25,
      "isDrum": false
    },
    {
      "pitch": 64,
      "velocity": 100,
      "startTime": 15.496649999999999,
      "endTime": 15.893999999999998,
      "instrument": 5,
      "program": 25,
      "isDrum": false
    },
    {
      "pitch": 68,
      "velocity": 100,
      "startTime": 15.496649999999999,
      "endTime": 15.893999999999998,
      "instrument": 5,
      "program": 25,
      "isDrum": false
    },
    {
      "pitch": 71,
      "velocity": 100,
      "startTime": 15.496649999999999,
      "endTime": 15.893999999999998,
      "instrument": 5,
      "program": 25,
      "isDrum": false
    },
    {
      "pitch": 64,
      "velocity": 100,
      "startTime": 15.893999999999998,
      "endTime": 19.0728,
      "instrument": 5,
      "program": 25,
      "isDrum": false
    },
    {
      "pitch": 68,
      "velocity": 100,
      "startTime": 15.893999999999998,
      "endTime": 19.0728,
      "instrument": 5,
      "program": 25,
      "isDrum": false
    },
    {
      "pitch": 71,
      "velocity": 100,
      "startTime": 15.893999999999998,
      "endTime": 17.4834,
      "instrument": 5,
      "program": 25,
      "isDrum": false
    },
    {
      "pitch": 71,
      "velocity": 100,
      "startTime": 15.908486718749998,
      "endTime": 19.0728,
      "instrument": 5,
      "program": 25,
      "isDrum": false
    },
    {
      "pitch": 59,
      "velocity": 100,
      "startTime": 19.0728,
      "endTime": 20.641504687500003,
      "instrument": 5,
      "program": 25,
      "isDrum": false
    },
    {
      "pitch": 66,
      "velocity": 100,
      "startTime": 19.0728,
      "endTime": 20.641504687500003,
      "instrument": 5,
      "program": 25,
      "isDrum": false
    },
    {
      "pitch": 71,
      "velocity": 100,
      "startTime": 19.0728,
      "endTime": 20.5628625,
      "instrument": 5,
      "program": 25,
      "isDrum": false
    },
    {
      "pitch": 59,
      "velocity": 100,
      "startTime": 22.251600000000003,
      "endTime": 23.820304687500002,
      "instrument": 5,
      "program": 25,
      "isDrum": false
    },
    {
      "pitch": 66,
      "velocity": 100,
      "startTime": 22.251600000000003,
      "endTime": 23.820304687500002,
      "instrument": 5,
      "program": 25,
      "isDrum": false
    },
    {
      "pitch": 71,
      "velocity": 100,
      "startTime": 22.251600000000003,
      "endTime": 23.940337500000002,
      "instrument": 5,
      "program": 25,
      "isDrum": false
    },
    {
      "pitch": 59,
      "velocity": 100,
      "startTime": 25.430400000000002,
      "endTime": 26.999104687500004,
      "instrument": 5,
      "program": 25,
      "isDrum": false
    },
    {
      "pitch": 66,
      "velocity": 100,
      "startTime": 25.430400000000002,
      "endTime": 26.999104687500004,
      "instrument": 5,
      "program": 25,
      "isDrum": false
    },
    {
      "pitch": 71,
      "velocity": 100,
      "startTime": 25.430400000000002,
      "endTime": 26.920462500000003,
      "instrument": 5,
      "program": 25,
      "isDrum": false
    },
    {
      "pitch": 59,
      "velocity": 100,
      "startTime": 28.609200000000005,
      "endTime": 30.177904687500003,
      "instrument": 5,
      "program": 25,
      "isDrum": false
    },
    {
      "pitch": 66,
      "velocity": 100,
      "startTime": 28.609200000000005,
      "endTime": 30.177904687500003,
      "instrument": 5,
      "program": 25,
      "isDrum": false
    },
    {
      "pitch": 71,
      "velocity": 100,
      "startTime": 28.609200000000005,
      "endTime": 30.198600000000003,
      "instrument": 5,
      "program": 25,
      "isDrum": false
    },
    {
      "pitch": 59,
      "velocity": 100,
      "startTime": 31.788000000000004,
      "endTime": 33.356704687500006,
      "instrument": 5,
      "program": 25,
      "isDrum": false
    },
    {
      "pitch": 66,
      "velocity": 100,
      "startTime": 31.788000000000004,
      "endTime": 33.356704687500006,
      "instrument": 5,
      "program": 25,
      "isDrum": false
    },
    {
      "pitch": 71,
      "velocity": 100,
      "startTime": 31.788000000000004,
      "endTime": 33.278062500000004,
      "instrument": 5,
      "program": 25,
      "isDrum": false
    },
    {
      "pitch": 52,
      "velocity": 100,
      "startTime": 34.966800000000006,
      "endTime": 36.53550468750001,
      "instrument": 5,
      "program": 25,
      "isDrum": false
    },
    {
      "pitch": 59,
      "velocity": 100,
      "startTime": 34.966800000000006,
      "endTime": 36.53550468750001,
      "instrument": 5,
      "program": 25,
      "isDrum": false
    },
    {
      "pitch": 64,
      "velocity": 100,
      "startTime": 34.966800000000006,
      "endTime": 36.45686250000001,
      "instrument": 5,
      "program": 25,
      "isDrum": false
    },
    {
      "pitch": 59,
      "velocity": 100,
      "startTime": 38.14560000000001,
      "endTime": 39.71430468750001,
      "instrument": 5,
      "program": 25,
      "isDrum": false
    },
    {
      "pitch": 66,
      "velocity": 100,
      "startTime": 38.14560000000001,
      "endTime": 39.71430468750001,
      "instrument": 5,
      "program": 25,
      "isDrum": false
    },
    {
      "pitch": 71,
      "velocity": 100,
      "startTime": 38.14560000000001,
      "endTime": 39.63566250000001,
      "instrument": 5,
      "program": 25,
      "isDrum": false
    },
    {
      "pitch": 59,
      "velocity": 100,
      "startTime": 41.32440000000001,
      "endTime": 42.89310468750001,
      "instrument": 5,
      "program": 25,
      "isDrum": false
    },
    {
      "pitch": 66,
      "velocity": 100,
      "startTime": 41.32440000000001,
      "endTime": 42.89310468750001,
      "instrument": 5,
      "program": 25,
      "isDrum": false
    },
    {
      "pitch": 71,
      "velocity": 100,
      "startTime": 41.32440000000001,
      "endTime": 42.81446250000001,
      "instrument": 5,
      "program": 25,
      "isDrum": false
    },
    {
      "pitch": 59,
      "velocity": 100,
      "startTime": 44.503200000000014,
      "endTime": 46.071904687500016,
      "instrument": 5,
      "program": 25,
      "isDrum": false
    },
    {
      "pitch": 66,
      "velocity": 100,
      "startTime": 44.503200000000014,
      "endTime": 46.071904687500016,
      "instrument": 5,
      "program": 25,
      "isDrum": false
    },
    {
      "pitch": 71,
      "velocity": 100,
      "startTime": 44.503200000000014,
      "endTime": 45.993262500000014,
      "instrument": 5,
      "program": 25,
      "isDrum": false
    },
    {
      "pitch": 52,
      "velocity": 100,
      "startTime": 47.682000000000016,
      "endTime": 49.25070468750002,
      "instrument": 5,
      "program": 25,
      "isDrum": false
    },
    {
      "pitch": 59,
      "velocity": 100,
      "startTime": 47.682000000000016,
      "endTime": 49.25070468750002,
      "instrument": 5,
      "program": 25,
      "isDrum": false
    },
    {
      "pitch": 64,
      "velocity": 100,
      "startTime": 47.682000000000016,
      "endTime": 49.17206250000002,
      "instrument": 5,
      "program": 25,
      "isDrum": false
    },
    {
      "pitch": 59,
      "velocity": 100,
      "startTime": 50.86080000000002,
      "endTime": 52.42950468750002,
      "instrument": 5,
      "program": 25,
      "isDrum": false
    },
    {
      "pitch": 66,
      "velocity": 100,
      "startTime": 50.86080000000002,
      "endTime": 52.42950468750002,
      "instrument": 5,
      "program": 25,
      "isDrum": false
    },
    {
      "pitch": 71,
      "velocity": 100,
      "startTime": 50.86080000000002,
      "endTime": 52.35086250000002,
      "instrument": 5,
      "program": 25,
      "isDrum": false
    },
    {
      "pitch": 59,
      "velocity": 100,
      "startTime": 54.03960000000002,
      "endTime": 55.60830468750002,
      "instrument": 5,
      "program": 25,
      "isDrum": false
    },
    {
      "pitch": 66,
      "velocity": 100,
      "startTime": 54.03960000000002,
      "endTime": 55.60830468750002,
      "instrument": 5,
      "program": 25,
      "isDrum": false
    },
    {
      "pitch": 71,
      "velocity": 100,
      "startTime": 54.03960000000002,
      "endTime": 55.52966250000002,
      "instrument": 5,
      "program": 25,
      "isDrum": false
    },
    {
      "pitch": 57,
      "velocity": 100,
      "startTime": 57.218400000000024,
      "endTime": 58.787104687500026,
      "instrument": 5,
      "program": 25,
      "isDrum": false
    },
    {
      "pitch": 64,
      "velocity": 100,
      "startTime": 57.218400000000024,
      "endTime": 58.787104687500026,
      "instrument": 5,
      "program": 25,
      "isDrum": false
    },
    {
      "pitch": 69,
      "velocity": 100,
      "startTime": 57.218400000000024,
      "endTime": 58.708462500000024,
      "instrument": 5,
      "program": 25,
      "isDrum": false
    },
    {
      "pitch": 31,
      "velocity": 100,
      "startTime": 0,
      "endTime": 3.1788,
      "instrument": 6,
      "program": 79,
      "isDrum": false
    },
    {
      "pitch": 43,
      "velocity": 100,
      "startTime": 0,
      "endTime": 3.1788,
      "instrument": 6,
      "program": 79,
      "isDrum": false
    },
    {
      "pitch": 33,
      "velocity": 100,
      "startTime": 3.1788,
      "endTime": 6.3576,
      "instrument": 6,
      "program": 79,
      "isDrum": false
    },
    {
      "pitch": 45,
      "velocity": 100,
      "startTime": 3.1788,
      "endTime": 6.3576,
      "instrument": 6,
      "program": 79,
      "isDrum": false
    },
    {
      "pitch": 29,
      "velocity": 100,
      "startTime": 6.3576,
      "endTime": 9.5364,
      "instrument": 6,
      "program": 79,
      "isDrum": false
    },
    {
      "pitch": 41,
      "velocity": 100,
      "startTime": 6.3576,
      "endTime": 9.5364,
      "instrument": 6,
      "program": 79,
      "isDrum": false
    },
    {
      "pitch": 24,
      "velocity": 100,
      "startTime": 9.5364,
      "endTime": 12.7152,
      "instrument": 6,
      "program": 79,
      "isDrum": false
    },
    {
      "pitch": 36,
      "velocity": 100,
      "startTime": 9.5364,
      "endTime": 12.7152,
      "instrument": 6,
      "program": 79,
      "isDrum": false
    },
    {
      "pitch": 28,
      "velocity": 100,
      "startTime": 12.7152,
      "endTime": 19.072799999999997,
      "instrument": 6,
      "program": 79,
      "isDrum": false
    },
    {
      "pitch": 40,
      "velocity": 100,
      "startTime": 12.7152,
      "endTime": 15.893999999999998,
      "instrument": 6,
      "program": 79,
      "isDrum": false
    },
    {
      "pitch": 40,
      "velocity": 100,
      "startTime": 15.893999999999998,
      "endTime": 19.072799999999997,
      "instrument": 6,
      "program": 79,
      "isDrum": false
    },
    {
      "pitch": 35,
      "velocity": 100,
      "startTime": 19.072799999999997,
      "endTime": 34.96679999999999,
      "instrument": 6,
      "program": 79,
      "isDrum": false
    },
    {
      "pitch": 47,
      "velocity": 100,
      "startTime": 19.072799999999997,
      "endTime": 34.96679999999999,
      "instrument": 6,
      "program": 79,
      "isDrum": false
    },
    {
      "pitch": 28,
      "velocity": 100,
      "startTime": 34.96679999999999,
      "endTime": 38.145599999999995,
      "instrument": 6,
      "program": 79,
      "isDrum": false
    },
    {
      "pitch": 40,
      "velocity": 100,
      "startTime": 34.96679999999999,
      "endTime": 38.145599999999995,
      "instrument": 6,
      "program": 79,
      "isDrum": false
    },
    {
      "pitch": 35,
      "velocity": 100,
      "startTime": 38.145599999999995,
      "endTime": 47.681999999999995,
      "instrument": 6,
      "program": 79,
      "isDrum": false
    },
    {
      "pitch": 47,
      "velocity": 100,
      "startTime": 38.145599999999995,
      "endTime": 47.681999999999995,
      "instrument": 6,
      "program": 79,
      "isDrum": false
    },
    {
      "pitch": 28,
      "velocity": 100,
      "startTime": 47.681999999999995,
      "endTime": 50.8608,
      "instrument": 6,
      "program": 79,
      "isDrum": false
    },
    {
      "pitch": 40,
      "velocity": 100,
      "startTime": 47.681999999999995,
      "endTime": 50.8608,
      "instrument": 6,
      "program": 79,
      "isDrum": false
    },
    {
      "pitch": 35,
      "velocity": 100,
      "startTime": 50.8608,
      "endTime": 57.218399999999995,
      "instrument": 6,
      "program": 79,
      "isDrum": false
    },
    {
      "pitch": 47,
      "velocity": 100,
      "startTime": 50.8608,
      "endTime": 57.218399999999995,
      "instrument": 6,
      "program": 79,
      "isDrum": false
    },
    {
      "pitch": 35,
      "velocity": 100,
      "startTime": 0,
      "endTime": 0.0993375,
      "instrument": 7,
      "program": 0,
      "isDrum": true
    },
    {
      "pitch": 46,
      "velocity": 100,
      "startTime": 0,
      "endTime": 0.7947,
      "instrument": 7,
      "program": 0,
      "isDrum": true
    },
    {
      "pitch": 49,
      "velocity": 100,
      "startTime": 0,
      "endTime": 0.39735,
      "instrument": 7,
      "program": 0,
      "isDrum": true
    },
    {
      "pitch": 52,
      "velocity": 100,
      "startTime": 0,
      "endTime": 0.7947,
      "instrument": 7,
      "program": 0,
      "isDrum": true
    },
    {
      "pitch": 54,
      "velocity": 100,
      "startTime": 0,
      "endTime": 0.0993375,
      "instrument": 7,
      "program": 0,
      "isDrum": true
    },
    {
      "pitch": 55,
      "velocity": 100,
      "startTime": 0,
      "endTime": 0.7947,
      "instrument": 7,
      "program": 0,
      "isDrum": true
    },
    {
      "pitch": 54,
      "velocity": 100,
      "startTime": 0.198675,
      "endTime": 0.2980125,
      "instrument": 7,
      "program": 0,
      "isDrum": true
    },
    {
      "pitch": 40,
      "velocity": 100,
      "startTime": 0.39735,
      "endTime": 0.4966875,
      "instrument": 7,
      "program": 0,
      "isDrum": true
    },
    {
      "pitch": 54,
      "velocity": 100,
      "startTime": 0.39735,
      "endTime": 0.4966875,
      "instrument": 7,
      "program": 0,
      "isDrum": true
    },
    {
      "pitch": 38,
      "velocity": 100,
      "startTime": 0.405628125,
      "endTime": 0.504965625,
      "instrument": 7,
      "program": 0,
      "isDrum": true
    },
    {
      "pitch": 35,
      "velocity": 100,
      "startTime": 0.596025,
      "endTime": 0.6953625,
      "instrument": 7,
      "program": 0,
      "isDrum": true
    },
    {
      "pitch": 54,
      "velocity": 100,
      "startTime": 0.596025,
      "endTime": 0.6953625,
      "instrument": 7,
      "program": 0,
      "isDrum": true
    },
    {
      "pitch": 35,
      "velocity": 100,
      "startTime": 0.7947,
      "endTime": 0.8940374999999999,
      "instrument": 7,
      "program": 0,
      "isDrum": true
    },
    {
      "pitch": 54,
      "velocity": 100,
      "startTime": 0.7947,
      "endTime": 0.8940374999999999,
      "instrument": 7,
      "program": 0,
      "isDrum": true
    },
    {
      "pitch": 54,
      "velocity": 100,
      "startTime": 0.9933749999999999,
      "endTime": 1.0927125,
      "instrument": 7,
      "program": 0,
      "isDrum": true
    },
    {
      "pitch": 40,
      "velocity": 100,
      "startTime": 1.19205,
      "endTime": 1.2913875,
      "instrument": 7,
      "program": 0,
      "isDrum": true
    },
    {
      "pitch": 54,
      "velocity": 100,
      "startTime": 1.19205,
      "endTime": 1.2913875,
      "instrument": 7,
      "program": 0,
      "isDrum": true
    },
    {
      "pitch": 38,
      "velocity": 100,
      "startTime": 1.200328125,
      "endTime": 1.2996656249999998,
      "instrument": 7,
      "program": 0,
      "isDrum": true
    },
    {
      "pitch": 54,
      "velocity": 100,
      "startTime": 1.3907249999999998,
      "endTime": 1.4900624999999998,
      "instrument": 7,
      "program": 0,
      "isDrum": true
    },
    {
      "pitch": 35,
      "velocity": 100,
      "startTime": 1.5894,
      "endTime": 1.6887375,
      "instrument": 7,
      "program": 0,
      "isDrum": true
    },
    {
      "pitch": 54,
      "velocity": 100,
      "startTime": 1.5894,
      "endTime": 1.6887375,
      "instrument": 7,
      "program": 0,
      "isDrum": true
    },
    {
      "pitch": 54,
      "velocity": 100,
      "startTime": 1.788075,
      "endTime": 1.8874125000000002,
      "instrument": 7,
      "program": 0,
      "isDrum": true
    },
    {
      "pitch": 40,
      "velocity": 100,
      "startTime": 1.9867500000000002,
      "endTime": 2.0860875,
      "instrument": 7,
      "program": 0,
      "isDrum": true
    },
    {
      "pitch": 54,
      "velocity": 100,
      "startTime": 1.9867500000000002,
      "endTime": 2.0860875,
      "instrument": 7,
      "program": 0,
      "isDrum": true
    },
    {
      "pitch": 38,
      "velocity": 100,
      "startTime": 1.9950281250000002,
      "endTime": 2.094365625,
      "instrument": 7,
      "program": 0,
      "isDrum": true
    },
    {
      "pitch": 35,
      "velocity": 100,
      "startTime": 2.185425,
      "endTime": 2.2847625,
      "instrument": 7,
      "program": 0,
      "isDrum": true
    },
    {
      "pitch": 54,
      "velocity": 100,
      "startTime": 2.185425,
      "endTime": 2.2847625,
      "instrument": 7,
      "program": 0,
      "isDrum": true
    },
    {
      "pitch": 35,
      "velocity": 100,
      "startTime": 2.3840999999999997,
      "endTime": 2.4834374999999995,
      "instrument": 7,
      "program": 0,
      "isDrum": true
    },
    {
      "pitch": 54,
      "velocity": 100,
      "startTime": 2.3840999999999997,
      "endTime": 2.4834374999999995,
      "instrument": 7,
      "program": 0,
      "isDrum": true
    },
    {
      "pitch": 54,
      "velocity": 100,
      "startTime": 2.5827749999999994,
      "endTime": 2.6821124999999992,
      "instrument": 7,
      "program": 0,
      "isDrum": true
    },
    {
      "pitch": 40,
      "velocity": 100,
      "startTime": 2.781449999999999,
      "endTime": 2.880787499999999,
      "instrument": 7,
      "program": 0,
      "isDrum": true
    },
    {
      "pitch": 54,
      "velocity": 100,
      "startTime": 2.781449999999999,
      "endTime": 2.880787499999999,
      "instrument": 7,
      "program": 0,
      "isDrum": true
    },
    {
      "pitch": 38,
      "velocity": 100,
      "startTime": 2.789728124999999,
      "endTime": 2.889065624999999,
      "instrument": 7,
      "program": 0,
      "isDrum": true
    },
    {
      "pitch": 54,
      "velocity": 100,
      "startTime": 2.980124999999999,
      "endTime": 3.0794624999999987,
      "instrument": 7,
      "program": 0,
      "isDrum": true
    },
    {
      "pitch": 35,
      "velocity": 100,
      "startTime": 3.1787999999999985,
      "endTime": 3.2781374999999984,
      "instrument": 7,
      "program": 0,
      "isDrum": true
    },
    {
      "pitch": 54,
      "velocity": 100,
      "startTime": 3.1787999999999985,
      "endTime": 3.2781374999999984,
      "instrument": 7,
      "program": 0,
      "isDrum": true
    },
    {
      "pitch": 54,
      "velocity": 100,
      "startTime": 3.3774749999999982,
      "endTime": 3.476812499999998,
      "instrument": 7,
      "program": 0,
      "isDrum": true
    },
    {
      "pitch": 40,
      "velocity": 100,
      "startTime": 3.576149999999998,
      "endTime": 3.675487499999998,
      "instrument": 7,
      "program": 0,
      "isDrum": true
    },
    {
      "pitch": 54,
      "velocity": 100,
      "startTime": 3.576149999999998,
      "endTime": 3.675487499999998,
      "instrument": 7,
      "program": 0,
      "isDrum": true
    },
    {
      "pitch": 38,
      "velocity": 100,
      "startTime": 3.584428124999998,
      "endTime": 3.6837656249999977,
      "instrument": 7,
      "program": 0,
      "isDrum": true
    },
    {
      "pitch": 35,
      "velocity": 100,
      "startTime": 3.7748249999999977,
      "endTime": 3.8741624999999975,
      "instrument": 7,
      "program": 0,
      "isDrum": true
    },
    {
      "pitch": 54,
      "velocity": 100,
      "startTime": 3.7748249999999977,
      "endTime": 3.8741624999999975,
      "instrument": 7,
      "program": 0,
      "isDrum": true
    },
    {
      "pitch": 35,
      "velocity": 100,
      "startTime": 3.9734999999999974,
      "endTime": 4.072837499999998,
      "instrument": 7,
      "program": 0,
      "isDrum": true
    },
    {
      "pitch": 54,
      "velocity": 100,
      "startTime": 3.9734999999999974,
      "endTime": 4.072837499999998,
      "instrument": 7,
      "program": 0,
      "isDrum": true
    },
    {
      "pitch": 54,
      "velocity": 100,
      "startTime": 4.1721749999999975,
      "endTime": 4.271512499999997,
      "instrument": 7,
      "program": 0,
      "isDrum": true
    },
    {
      "pitch": 40,
      "velocity": 100,
      "startTime": 4.370849999999997,
      "endTime": 4.470187499999998,
      "instrument": 7,
      "program": 0,
      "isDrum": true
    },
    {
      "pitch": 54,
      "velocity": 100,
      "startTime": 4.370849999999997,
      "endTime": 4.470187499999998,
      "instrument": 7,
      "program": 0,
      "isDrum": true
    },
    {
      "pitch": 38,
      "velocity": 100,
      "startTime": 4.379128124999998,
      "endTime": 4.478465624999998,
      "instrument": 7,
      "program": 0,
      "isDrum": true
    },
    {
      "pitch": 54,
      "velocity": 100,
      "startTime": 4.569524999999999,
      "endTime": 4.668862499999999,
      "instrument": 7,
      "program": 0,
      "isDrum": true
    },
    {
      "pitch": 35,
      "velocity": 100,
      "startTime": 4.768199999999998,
      "endTime": 4.867537499999998,
      "instrument": 7,
      "program": 0,
      "isDrum": true
    },
    {
      "pitch": 54,
      "velocity": 100,
      "startTime": 4.768199999999998,
      "endTime": 4.867537499999998,
      "instrument": 7,
      "program": 0,
      "isDrum": true
    },
    {
      "pitch": 54,
      "velocity": 100,
      "startTime": 4.966874999999998,
      "endTime": 5.066212499999998,
      "instrument": 7,
      "program": 0,
      "isDrum": true
    },
    {
      "pitch": 40,
      "velocity": 100,
      "startTime": 5.165549999999998,
      "endTime": 5.264887499999999,
      "instrument": 7,
      "program": 0,
      "isDrum": true
    },
    {
      "pitch": 54,
      "velocity": 100,
      "startTime": 5.165549999999998,
      "endTime": 5.264887499999999,
      "instrument": 7,
      "program": 0,
      "isDrum": true
    },
    {
      "pitch": 38,
      "velocity": 100,
      "startTime": 5.173828124999998,
      "endTime": 5.273165624999999,
      "instrument": 7,
      "program": 0,
      "isDrum": true
    },
    {
      "pitch": 35,
      "velocity": 100,
      "startTime": 5.364224999999999,
      "endTime": 5.463562499999999,
      "instrument": 7,
      "program": 0,
      "isDrum": true
    },
    {
      "pitch": 54,
      "velocity": 100,
      "startTime": 5.364224999999999,
      "endTime": 5.463562499999999,
      "instrument": 7,
      "program": 0,
      "isDrum": true
    },
    {
      "pitch": 35,
      "velocity": 100,
      "startTime": 5.562899999999999,
      "endTime": 5.662237499999999,
      "instrument": 7,
      "program": 0,
      "isDrum": true
    },
    {
      "pitch": 54,
      "velocity": 100,
      "startTime": 5.562899999999999,
      "endTime": 5.662237499999999,
      "instrument": 7,
      "program": 0,
      "isDrum": true
    },
    {
      "pitch": 54,
      "velocity": 100,
      "startTime": 5.761574999999999,
      "endTime": 5.860912499999999,
      "instrument": 7,
      "program": 0,
      "isDrum": true
    },
    {
      "pitch": 40,
      "velocity": 100,
      "startTime": 5.9602499999999985,
      "endTime": 6.059587499999999,
      "instrument": 7,
      "program": 0,
      "isDrum": true
    },
    {
      "pitch": 54,
      "velocity": 100,
      "startTime": 5.9602499999999985,
      "endTime": 6.059587499999999,
      "instrument": 7,
      "program": 0,
      "isDrum": true
    },
    {
      "pitch": 38,
      "velocity": 100,
      "startTime": 5.968528124999999,
      "endTime": 6.067865625,
      "instrument": 7,
      "program": 0,
      "isDrum": true
    },
    {
      "pitch": 54,
      "velocity": 100,
      "startTime": 6.158925,
      "endTime": 6.2582625,
      "instrument": 7,
      "program": 0,
      "isDrum": true
    },
    {
      "pitch": 35,
      "velocity": 100,
      "startTime": 6.3576,
      "endTime": 6.4569374999999996,
      "instrument": 7,
      "program": 0,
      "isDrum": true
    },
    {
      "pitch": 54,
      "velocity": 100,
      "startTime": 6.3576,
      "endTime": 6.4569374999999996,
      "instrument": 7,
      "program": 0,
      "isDrum": true
    },
    {
      "pitch": 54,
      "velocity": 100,
      "startTime": 6.556274999999999,
      "endTime": 6.655612499999999,
      "instrument": 7,
      "program": 0,
      "isDrum": true
    },
    {
      "pitch": 40,
      "velocity": 100,
      "startTime": 6.754949999999999,
      "endTime": 6.8542875,
      "instrument": 7,
      "program": 0,
      "isDrum": true
    },
    {
      "pitch": 54,
      "velocity": 100,
      "startTime": 6.754949999999999,
      "endTime": 6.8542875,
      "instrument": 7,
      "program": 0,
      "isDrum": true
    },
    {
      "pitch": 38,
      "velocity": 100,
      "startTime": 6.7632281249999995,
      "endTime": 6.862565625,
      "instrument": 7,
      "program": 0,
      "isDrum": true
    },
    {
      "pitch": 35,
      "velocity": 100,
      "startTime": 6.953625000000001,
      "endTime": 7.0529625000000005,
      "instrument": 7,
      "program": 0,
      "isDrum": true
    },
    {
      "pitch": 54,
      "velocity": 100,
      "startTime": 6.953625000000001,
      "endTime": 7.0529625000000005,
      "instrument": 7,
      "program": 0,
      "isDrum": true
    },
    {
      "pitch": 35,
      "velocity": 100,
      "startTime": 7.1523,
      "endTime": 7.2516375,
      "instrument": 7,
      "program": 0,
      "isDrum": true
    },
    {
      "pitch": 54,
      "velocity": 100,
      "startTime": 7.1523,
      "endTime": 7.2516375,
      "instrument": 7,
      "program": 0,
      "isDrum": true
    },
    {
      "pitch": 54,
      "velocity": 100,
      "startTime": 7.350975,
      "endTime": 7.4503125,
      "instrument": 7,
      "program": 0,
      "isDrum": true
    },
    {
      "pitch": 40,
      "velocity": 100,
      "startTime": 7.54965,
      "endTime": 7.6489875000000005,
      "instrument": 7,
      "program": 0,
      "isDrum": true
    },
    {
      "pitch": 54,
      "velocity": 100,
      "startTime": 7.54965,
      "endTime": 7.6489875000000005,
      "instrument": 7,
      "program": 0,
      "isDrum": true
    },
    {
      "pitch": 38,
      "velocity": 100,
      "startTime": 7.557928125,
      "endTime": 7.657265625000001,
      "instrument": 7,
      "program": 0,
      "isDrum": true
    },
    {
      "pitch": 54,
      "velocity": 100,
      "startTime": 7.748325000000001,
      "endTime": 7.847662500000001,
      "instrument": 7,
      "program": 0,
      "isDrum": true
    },
    {
      "pitch": 35,
      "velocity": 100,
      "startTime": 7.947000000000001,
      "endTime": 8.046337500000002,
      "instrument": 7,
      "program": 0,
      "isDrum": true
    },
    {
      "pitch": 54,
      "velocity": 100,
      "startTime": 7.947000000000001,
      "endTime": 8.046337500000002,
      "instrument": 7,
      "program": 0,
      "isDrum": true
    },
    {
      "pitch": 54,
      "velocity": 100,
      "startTime": 8.145675000000002,
      "endTime": 8.245012500000003,
      "instrument": 7,
      "program": 0,
      "isDrum": true
    },
    {
      "pitch": 40,
      "velocity": 100,
      "startTime": 8.344350000000004,
      "endTime": 8.443687500000005,
      "instrument": 7,
      "program": 0,
      "isDrum": true
    },
    {
      "pitch": 54,
      "velocity": 100,
      "startTime": 8.344350000000004,
      "endTime": 8.443687500000005,
      "instrument": 7,
      "program": 0,
      "isDrum": true
    },
    {
      "pitch": 38,
      "velocity": 100,
      "startTime": 8.352628125000004,
      "endTime": 8.451965625000005,
      "instrument": 7,
      "program": 0,
      "isDrum": true
    },
    {
      "pitch": 35,
      "velocity": 100,
      "startTime": 8.543025000000005,
      "endTime": 8.642362500000006,
      "instrument": 7,
      "program": 0,
      "isDrum": true
    },
    {
      "pitch": 54,
      "velocity": 100,
      "startTime": 8.543025000000005,
      "endTime": 8.642362500000006,
      "instrument": 7,
      "program": 0,
      "isDrum": true
    },
    {
      "pitch": 35,
      "velocity": 100,
      "startTime": 8.741700000000007,
      "endTime": 8.841037500000008,
      "instrument": 7,
      "program": 0,
      "isDrum": true
    },
    {
      "pitch": 54,
      "velocity": 100,
      "startTime": 8.741700000000007,
      "endTime": 8.841037500000008,
      "instrument": 7,
      "program": 0,
      "isDrum": true
    },
    {
      "pitch": 54,
      "velocity": 100,
      "startTime": 8.940375000000008,
      "endTime": 9.03971250000001,
      "instrument": 7,
      "program": 0,
      "isDrum": true
    },
    {
      "pitch": 40,
      "velocity": 100,
      "startTime": 9.13905000000001,
      "endTime": 9.23838750000001,
      "instrument": 7,
      "program": 0,
      "isDrum": true
    },
    {
      "pitch": 54,
      "velocity": 100,
      "startTime": 9.13905000000001,
      "endTime": 9.23838750000001,
      "instrument": 7,
      "program": 0,
      "isDrum": true
    },
    {
      "pitch": 38,
      "velocity": 100,
      "startTime": 9.14732812500001,
      "endTime": 9.246665625000011,
      "instrument": 7,
      "program": 0,
      "isDrum": true
    },
    {
      "pitch": 54,
      "velocity": 100,
      "startTime": 9.337725000000011,
      "endTime": 9.437062500000012,
      "instrument": 7,
      "program": 0,
      "isDrum": true
    },
    {
      "pitch": 35,
      "velocity": 100,
      "startTime": 9.536400000000013,
      "endTime": 9.635737500000014,
      "instrument": 7,
      "program": 0,
      "isDrum": true
    },
    {
      "pitch": 54,
      "velocity": 100,
      "startTime": 9.536400000000013,
      "endTime": 9.635737500000014,
      "instrument": 7,
      "program": 0,
      "isDrum": true
    },
    {
      "pitch": 54,
      "velocity": 100,
      "startTime": 9.735075000000014,
      "endTime": 9.834412500000015,
      "instrument": 7,
      "program": 0,
      "isDrum": true
    },
    {
      "pitch": 40,
      "velocity": 100,
      "startTime": 9.933750000000016,
      "endTime": 10.033087500000017,
      "instrument": 7,
      "program": 0,
      "isDrum": true
    },
    {
      "pitch": 54,
      "velocity": 100,
      "startTime": 9.933750000000016,
      "endTime": 10.033087500000017,
      "instrument": 7,
      "program": 0,
      "isDrum": true
    },
    {
      "pitch": 38,
      "velocity": 100,
      "startTime": 9.942028125000016,
      "endTime": 10.041365625000017,
      "instrument": 7,
      "program": 0,
      "isDrum": true
    },
    {
      "pitch": 35,
      "velocity": 100,
      "startTime": 10.132425000000017,
      "endTime": 10.231762500000018,
      "instrument": 7,
      "program": 0,
      "isDrum": true
    },
    {
      "pitch": 54,
      "velocity": 100,
      "startTime": 10.132425000000017,
      "endTime": 10.231762500000018,
      "instrument": 7,
      "program": 0,
      "isDrum": true
    },
    {
      "pitch": 35,
      "velocity": 100,
      "startTime": 10.331100000000019,
      "endTime": 10.43043750000002,
      "instrument": 7,
      "program": 0,
      "isDrum": true
    },
    {
      "pitch": 54,
      "velocity": 100,
      "startTime": 10.331100000000019,
      "endTime": 10.43043750000002,
      "instrument": 7,
      "program": 0,
      "isDrum": true
    },
    {
      "pitch": 54,
      "velocity": 100,
      "startTime": 10.52977500000002,
      "endTime": 10.629112500000021,
      "instrument": 7,
      "program": 0,
      "isDrum": true
    },
    {
      "pitch": 40,
      "velocity": 100,
      "startTime": 10.728450000000022,
      "endTime": 10.827787500000023,
      "instrument": 7,
      "program": 0,
      "isDrum": true
    },
    {
      "pitch": 54,
      "velocity": 100,
      "startTime": 10.728450000000022,
      "endTime": 10.827787500000023,
      "instrument": 7,
      "program": 0,
      "isDrum": true
    },
    {
      "pitch": 38,
      "velocity": 100,
      "startTime": 10.736728125000022,
      "endTime": 10.836065625000023,
      "instrument": 7,
      "program": 0,
      "isDrum": true
    },
    {
      "pitch": 54,
      "velocity": 100,
      "startTime": 10.927125000000023,
      "endTime": 11.026462500000024,
      "instrument": 7,
      "program": 0,
      "isDrum": true
    },
    {
      "pitch": 35,
      "velocity": 100,
      "startTime": 11.125800000000025,
      "endTime": 11.225137500000026,
      "instrument": 7,
      "program": 0,
      "isDrum": true
    },
    {
      "pitch": 54,
      "velocity": 100,
      "startTime": 11.125800000000025,
      "endTime": 11.225137500000026,
      "instrument": 7,
      "program": 0,
      "isDrum": true
    },
    {
      "pitch": 54,
      "velocity": 100,
      "startTime": 11.324475000000026,
      "endTime": 11.423812500000027,
      "instrument": 7,
      "program": 0,
      "isDrum": true
    },
    {
      "pitch": 40,
      "velocity": 100,
      "startTime": 11.523150000000028,
      "endTime": 11.622487500000029,
      "instrument": 7,
      "program": 0,
      "isDrum": true
    },
    {
      "pitch": 54,
      "velocity": 100,
      "startTime": 11.523150000000028,
      "endTime": 11.622487500000029,
      "instrument": 7,
      "program": 0,
      "isDrum": true
    },
    {
      "pitch": 38,
      "velocity": 100,
      "startTime": 11.531428125000028,
      "endTime": 11.630765625000029,
      "instrument": 7,
      "program": 0,
      "isDrum": true
    },
    {
      "pitch": 35,
      "velocity": 100,
      "startTime": 11.72182500000003,
      "endTime": 11.82116250000003,
      "instrument": 7,
      "program": 0,
      "isDrum": true
    },
    {
      "pitch": 54,
      "velocity": 100,
      "startTime": 11.72182500000003,
      "endTime": 11.82116250000003,
      "instrument": 7,
      "program": 0,
      "isDrum": true
    },
    {
      "pitch": 35,
      "velocity": 100,
      "startTime": 11.92050000000003,
      "endTime": 12.019837500000031,
      "instrument": 7,
      "program": 0,
      "isDrum": true
    },
    {
      "pitch": 54,
      "velocity": 100,
      "startTime": 11.92050000000003,
      "endTime": 12.019837500000031,
      "instrument": 7,
      "program": 0,
      "isDrum": true
    },
    {
      "pitch": 54,
      "velocity": 100,
      "startTime": 12.119175000000032,
      "endTime": 12.218512500000033,
      "instrument": 7,
      "program": 0,
      "isDrum": true
    },
    {
      "pitch": 40,
      "velocity": 100,
      "startTime": 12.317850000000034,
      "endTime": 12.417187500000034,
      "instrument": 7,
      "program": 0,
      "isDrum": true
    },
    {
      "pitch": 54,
      "velocity": 100,
      "startTime": 12.317850000000034,
      "endTime": 12.417187500000034,
      "instrument": 7,
      "program": 0,
      "isDrum": true
    },
    {
      "pitch": 38,
      "velocity": 100,
      "startTime": 12.326128125000034,
      "endTime": 12.425465625000035,
      "instrument": 7,
      "program": 0,
      "isDrum": true
    },
    {
      "pitch": 54,
      "velocity": 100,
      "startTime": 12.516525000000035,
      "endTime": 12.615862500000036,
      "instrument": 7,
      "program": 0,
      "isDrum": true
    },
    {
      "pitch": 35,
      "velocity": 100,
      "startTime": 12.715200000000037,
      "endTime": 12.814537500000037,
      "instrument": 7,
      "program": 0,
      "isDrum": true
    },
    {
      "pitch": 46,
      "velocity": 100,
      "startTime": 12.715200000000037,
      "endTime": 13.509900000000043,
      "instrument": 7,
      "program": 0,
      "isDrum": true
    },
    {
      "pitch": 49,
      "velocity": 100,
      "startTime": 12.715200000000037,
      "endTime": 13.11255000000004,
      "instrument": 7,
      "program": 0,
      "isDrum": true
    },
    {
      "pitch": 52,
      "velocity": 100,
      "startTime": 12.715200000000037,
      "endTime": 13.509900000000043,
      "instrument": 7,
      "program": 0,
      "isDrum": true
    },
    {
      "pitch": 54,
      "velocity": 100,
      "startTime": 12.715200000000037,
      "endTime": 12.814537500000037,
      "instrument": 7,
      "program": 0,
      "isDrum": true
    },
    {
      "pitch": 55,
      "velocity": 100,
      "startTime": 12.715200000000037,
      "endTime": 13.509900000000043,
      "instrument": 7,
      "program": 0,
      "isDrum": true
    },
    {
      "pitch": 54,
      "velocity": 100,
      "startTime": 12.913875000000038,
      "endTime": 13.013212500000039,
      "instrument": 7,
      "program": 0,
      "isDrum": true
    },
    {
      "pitch": 40,
      "velocity": 100,
      "startTime": 13.11255000000004,
      "endTime": 13.21188750000004,
      "instrument": 7,
      "program": 0,
      "isDrum": true
    },
    {
      "pitch": 54,
      "velocity": 100,
      "startTime": 13.11255000000004,
      "endTime": 13.21188750000004,
      "instrument": 7,
      "program": 0,
      "isDrum": true
    },
    {
      "pitch": 38,
      "velocity": 100,
      "startTime": 13.12082812500004,
      "endTime": 13.22016562500004,
      "instrument": 7,
      "program": 0,
      "isDrum": true
    },
    {
      "pitch": 35,
      "velocity": 100,
      "startTime": 13.311225000000041,
      "endTime": 13.410562500000042,
      "instrument": 7,
      "program": 0,
      "isDrum": true
    },
    {
      "pitch": 54,
      "velocity": 100,
      "startTime": 13.311225000000041,
      "endTime": 13.410562500000042,
      "instrument": 7,
      "program": 0,
      "isDrum": true
    },
    {
      "pitch": 35,
      "velocity": 100,
      "startTime": 13.509900000000043,
      "endTime": 13.609237500000043,
      "instrument": 7,
      "program": 0,
      "isDrum": true
    },
    {
      "pitch": 54,
      "velocity": 100,
      "startTime": 13.509900000000043,
      "endTime": 13.609237500000043,
      "instrument": 7,
      "program": 0,
      "isDrum": true
    },
    {
      "pitch": 54,
      "velocity": 100,
      "startTime": 13.708575000000044,
      "endTime": 13.807912500000045,
      "instrument": 7,
      "program": 0,
      "isDrum": true
    },
    {
      "pitch": 40,
      "velocity": 100,
      "startTime": 13.907250000000046,
      "endTime": 14.006587500000046,
      "instrument": 7,
      "program": 0,
      "isDrum": true
    },
    {
      "pitch": 54,
      "velocity": 100,
      "startTime": 13.907250000000046,
      "endTime": 14.006587500000046,
      "instrument": 7,
      "program": 0,
      "isDrum": true
    },
    {
      "pitch": 38,
      "velocity": 100,
      "startTime": 13.915528125000046,
      "endTime": 14.014865625000047,
      "instrument": 7,
      "program": 0,
      "isDrum": true
    },
    {
      "pitch": 54,
      "velocity": 100,
      "startTime": 14.105925000000047,
      "endTime": 14.205262500000048,
      "instrument": 7,
      "program": 0,
      "isDrum": true
    },
    {
      "pitch": 35,
      "velocity": 100,
      "startTime": 14.304600000000049,
      "endTime": 14.40393750000005,
      "instrument": 7,
      "program": 0,
      "isDrum": true
    },
    {
      "pitch": 54,
      "velocity": 100,
      "startTime": 14.304600000000049,
      "endTime": 14.40393750000005,
      "instrument": 7,
      "program": 0,
      "isDrum": true
    },
    {
      "pitch": 54,
      "velocity": 100,
      "startTime": 14.50327500000005,
      "endTime": 14.60261250000005,
      "instrument": 7,
      "program": 0,
      "isDrum": true
    },
    {
      "pitch": 40,
      "velocity": 100,
      "startTime": 14.701950000000052,
      "endTime": 14.801287500000052,
      "instrument": 7,
      "program": 0,
      "isDrum": true
    },
    {
      "pitch": 54,
      "velocity": 100,
      "startTime": 14.701950000000052,
      "endTime": 14.801287500000052,
      "instrument": 7,
      "program": 0,
      "isDrum": true
    },
    {
      "pitch": 38,
      "velocity": 100,
      "startTime": 14.710228125000052,
      "endTime": 14.809565625000053,
      "instrument": 7,
      "program": 0,
      "isDrum": true
    },
    {
      "pitch": 35,
      "velocity": 100,
      "startTime": 14.900625000000053,
      "endTime": 14.999962500000054,
      "instrument": 7,
      "program": 0,
      "isDrum": true
    },
    {
      "pitch": 54,
      "velocity": 100,
      "startTime": 14.900625000000053,
      "endTime": 14.999962500000054,
      "instrument": 7,
      "program": 0,
      "isDrum": true
    },
    {
      "pitch": 35,
      "velocity": 100,
      "startTime": 15.099300000000055,
      "endTime": 15.198637500000055,
      "instrument": 7,
      "program": 0,
      "isDrum": true
    },
    {
      "pitch": 54,
      "velocity": 100,
      "startTime": 15.099300000000055,
      "endTime": 15.198637500000055,
      "instrument": 7,
      "program": 0,
      "isDrum": true
    },
    {
      "pitch": 54,
      "velocity": 100,
      "startTime": 15.297975000000056,
      "endTime": 15.397312500000057,
      "instrument": 7,
      "program": 0,
      "isDrum": true
    },
    {
      "pitch": 40,
      "velocity": 100,
      "startTime": 15.496650000000058,
      "endTime": 15.595987500000058,
      "instrument": 7,
      "program": 0,
      "isDrum": true
    },
    {
      "pitch": 54,
      "velocity": 100,
      "startTime": 15.496650000000058,
      "endTime": 15.595987500000058,
      "instrument": 7,
      "program": 0,
      "isDrum": true
    },
    {
      "pitch": 38,
      "velocity": 100,
      "startTime": 15.504928125000058,
      "endTime": 15.604265625000059,
      "instrument": 7,
      "program": 0,
      "isDrum": true
    },
    {
      "pitch": 54,
      "velocity": 100,
      "startTime": 15.695325000000059,
      "endTime": 15.79466250000006,
      "instrument": 7,
      "program": 0,
      "isDrum": true
    },
    {
      "pitch": 35,
      "velocity": 100,
      "startTime": 15.89400000000006,
      "endTime": 15.993337500000061,
      "instrument": 7,
      "program": 0,
      "isDrum": true
    },
    {
      "pitch": 46,
      "velocity": 100,
      "startTime": 15.89400000000006,
      "endTime": 16.688700000000065,
      "instrument": 7,
      "program": 0,
      "isDrum": true
    },
    {
      "pitch": 49,
      "velocity": 100,
      "startTime": 15.89400000000006,
      "endTime": 16.29135000000006,
      "instrument": 7,
      "program": 0,
      "isDrum": true
    },
    {
      "pitch": 52,
      "velocity": 100,
      "startTime": 15.89400000000006,
      "endTime": 16.688700000000065,
      "instrument": 7,
      "program": 0,
      "isDrum": true
    },
    {
      "pitch": 54,
      "velocity": 100,
      "startTime": 15.89400000000006,
      "endTime": 15.993337500000061,
      "instrument": 7,
      "program": 0,
      "isDrum": true
    },
    {
      "pitch": 54,
      "velocity": 100,
      "startTime": 15.89400000000006,
      "endTime": 15.993337500000061,
      "instrument": 7,
      "program": 0,
      "isDrum": true
    },
    {
      "pitch": 55,
      "velocity": 100,
      "startTime": 15.89400000000006,
      "endTime": 16.688700000000065,
      "instrument": 7,
      "program": 0,
      "isDrum": true
    },
    {
      "pitch": 54,
      "velocity": 100,
      "startTime": 16.09267500000006,
      "endTime": 16.19201250000006,
      "instrument": 7,
      "program": 0,
      "isDrum": true
    },
    {
      "pitch": 54,
      "velocity": 100,
      "startTime": 16.09267500000006,
      "endTime": 16.19201250000006,
      "instrument": 7,
      "program": 0,
      "isDrum": true
    },
    {
      "pitch": 40,
      "velocity": 100,
      "startTime": 16.29135000000006,
      "endTime": 16.390687500000062,
      "instrument": 7,
      "program": 0,
      "isDrum": true
    },
    {
      "pitch": 43,
      "velocity": 100,
      "startTime": 16.29135000000006,
      "endTime": 16.390687500000062,
      "instrument": 7,
      "program": 0,
      "isDrum": true
    },
    {
      "pitch": 54,
      "velocity": 100,
      "startTime": 16.29135000000006,
      "endTime": 16.390687500000062,
      "instrument": 7,
      "program": 0,
      "isDrum": true
    },
    {
      "pitch": 54,
      "velocity": 100,
      "startTime": 16.29135000000006,
      "endTime": 16.390687500000062,
      "instrument": 7,
      "program": 0,
      "isDrum": true
    },
    {
      "pitch": 38,
      "velocity": 100,
      "startTime": 16.299628125000062,
      "endTime": 16.398965625000063,
      "instrument": 7,
      "program": 0,
      "isDrum": true
    },
    {
      "pitch": 35,
      "velocity": 100,
      "startTime": 16.490025000000063,
      "endTime": 16.589362500000064,
      "instrument": 7,
      "program": 0,
      "isDrum": true
    },
    {
      "pitch": 43,
      "velocity": 100,
      "startTime": 16.490025000000063,
      "endTime": 16.589362500000064,
      "instrument": 7,
      "program": 0,
      "isDrum": true
    },
    {
      "pitch": 54,
      "velocity": 100,
      "startTime": 16.490025000000063,
      "endTime": 16.589362500000064,
      "instrument": 7,
      "program": 0,
      "isDrum": true
    },
    {
      "pitch": 54,
      "velocity": 100,
      "startTime": 16.490025000000063,
      "endTime": 16.589362500000064,
      "instrument": 7,
      "program": 0,
      "isDrum": true
    },
    {
      "pitch": 35,
      "velocity": 100,
      "startTime": 16.688700000000065,
      "endTime": 16.788037500000065,
      "instrument": 7,
      "program": 0,
      "isDrum": true
    },
    {
      "pitch": 54,
      "velocity": 100,
      "startTime": 16.688700000000065,
      "endTime": 16.788037500000065,
      "instrument": 7,
      "program": 0,
      "isDrum": true
    },
    {
      "pitch": 54,
      "velocity": 100,
      "startTime": 16.688700000000065,
      "endTime": 16.788037500000065,
      "instrument": 7,
      "program": 0,
      "isDrum": true
    },
    {
      "pitch": 43,
      "velocity": 100,
      "startTime": 16.887375000000066,
      "endTime": 16.986712500000067,
      "instrument": 7,
      "program": 0,
      "isDrum": true
    },
    {
      "pitch": 54,
      "velocity": 100,
      "startTime": 16.887375000000066,
      "endTime": 16.986712500000067,
      "instrument": 7,
      "program": 0,
      "isDrum": true
    },
    {
      "pitch": 40,
      "velocity": 100,
      "startTime": 17.086050000000068,
      "endTime": 17.18538750000007,
      "instrument": 7,
      "program": 0,
      "isDrum": true
    },
    {
      "pitch": 43,
      "velocity": 100,
      "startTime": 17.086050000000068,
      "endTime": 17.18538750000007,
      "instrument": 7,
      "program": 0,
      "isDrum": true
    },
    {
      "pitch": 54,
      "velocity": 100,
      "startTime": 17.086050000000068,
      "endTime": 17.18538750000007,
      "instrument": 7,
      "program": 0,
      "isDrum": true
    },
    {
      "pitch": 38,
      "velocity": 100,
      "startTime": 17.094328125000068,
      "endTime": 17.19366562500007,
      "instrument": 7,
      "program": 0,
      "isDrum": true
    },
    {
      "pitch": 54,
      "velocity": 100,
      "startTime": 17.28472500000007,
      "endTime": 17.38406250000007,
      "instrument": 7,
      "program": 0,
      "isDrum": true
    },
    {
      "pitch": 35,
      "velocity": 100,
      "startTime": 17.48340000000007,
      "endTime": 17.58273750000007,
      "instrument": 7,
      "program": 0,
      "isDrum": true
    },
    {
      "pitch": 50,
      "velocity": 100,
      "startTime": 17.48340000000007,
      "endTime": 17.58273750000007,
      "instrument": 7,
      "program": 0,
      "isDrum": true
    },
    {
      "pitch": 54,
      "velocity": 100,
      "startTime": 17.48340000000007,
      "endTime": 17.58273750000007,
      "instrument": 7,
      "program": 0,
      "isDrum": true
    },
    {
      "pitch": 50,
      "velocity": 100,
      "startTime": 17.682075000000072,
      "endTime": 17.781412500000073,
      "instrument": 7,
      "program": 0,
      "isDrum": true
    },
    {
      "pitch": 54,
      "velocity": 100,
      "startTime": 17.682075000000072,
      "endTime": 17.781412500000073,
      "instrument": 7,
      "program": 0,
      "isDrum": true
    },
    {
      "pitch": 40,
      "velocity": 100,
      "startTime": 17.880750000000074,
      "endTime": 17.980087500000074,
      "instrument": 7,
      "program": 0,
      "isDrum": true
    },
    {
      "pitch": 48,
      "velocity": 100,
      "startTime": 17.880750000000074,
      "endTime": 17.980087500000074,
      "instrument": 7,
      "program": 0,
      "isDrum": true
    },
    {
      "pitch": 54,
      "velocity": 100,
      "startTime": 17.880750000000074,
      "endTime": 17.980087500000074,
      "instrument": 7,
      "program": 0,
      "isDrum": true
    },
    {
      "pitch": 38,
      "velocity": 100,
      "startTime": 17.889028125000074,
      "endTime": 17.988365625000075,
      "instrument": 7,
      "program": 0,
      "isDrum": true
    },
    {
      "pitch": 35,
      "velocity": 100,
      "startTime": 18.079425000000075,
      "endTime": 18.178762500000076,
      "instrument": 7,
      "program": 0,
      "isDrum": true
    },
    {
      "pitch": 48,
      "velocity": 100,
      "startTime": 18.079425000000075,
      "endTime": 18.178762500000076,
      "instrument": 7,
      "program": 0,
      "isDrum": true
    },
    {
      "pitch": 54,
      "velocity": 100,
      "startTime": 18.079425000000075,
      "endTime": 18.178762500000076,
      "instrument": 7,
      "program": 0,
      "isDrum": true
    },
    {
      "pitch": 35,
      "velocity": 100,
      "startTime": 18.278100000000077,
      "endTime": 18.377437500000077,
      "instrument": 7,
      "program": 0,
      "isDrum": true
    },
    {
      "pitch": 47,
      "velocity": 100,
      "startTime": 18.278100000000077,
      "endTime": 18.377437500000077,
      "instrument": 7,
      "program": 0,
      "isDrum": true
    },
    {
      "pitch": 54,
      "velocity": 100,
      "startTime": 18.278100000000077,
      "endTime": 18.377437500000077,
      "instrument": 7,
      "program": 0,
      "isDrum": true
    },
    {
      "pitch": 47,
      "velocity": 100,
      "startTime": 18.476775000000078,
      "endTime": 18.57611250000008,
      "instrument": 7,
      "program": 0,
      "isDrum": true
    },
    {
      "pitch": 54,
      "velocity": 100,
      "startTime": 18.476775000000078,
      "endTime": 18.57611250000008,
      "instrument": 7,
      "program": 0,
      "isDrum": true
    },
    {
      "pitch": 40,
      "velocity": 100,
      "startTime": 18.67545000000008,
      "endTime": 18.77478750000008,
      "instrument": 7,
      "program": 0,
      "isDrum": true
    },
    {
      "pitch": 45,
      "velocity": 100,
      "startTime": 18.67545000000008,
      "endTime": 18.77478750000008,
      "instrument": 7,
      "program": 0,
      "isDrum": true
    },
    {
      "pitch": 54,
      "velocity": 100,
      "startTime": 18.67545000000008,
      "endTime": 18.77478750000008,
      "instrument": 7,
      "program": 0,
      "isDrum": true
    },
    {
      "pitch": 38,
      "velocity": 100,
      "startTime": 18.68372812500008,
      "endTime": 18.78306562500008,
      "instrument": 7,
      "program": 0,
      "isDrum": true
    },
    {
      "pitch": 45,
      "velocity": 100,
      "startTime": 18.87412500000008,
      "endTime": 18.973462500000082,
      "instrument": 7,
      "program": 0,
      "isDrum": true
    },
    {
      "pitch": 54,
      "velocity": 100,
      "startTime": 18.87412500000008,
      "endTime": 18.973462500000082,
      "instrument": 7,
      "program": 0,
      "isDrum": true
    },
    {
      "pitch": 35,
      "velocity": 100,
      "startTime": 19.072800000000083,
      "endTime": 19.172137500000083,
      "instrument": 7,
      "program": 0,
      "isDrum": true
    },
    {
      "pitch": 46,
      "velocity": 100,
      "startTime": 19.072800000000083,
      "endTime": 19.86750000000009,
      "instrument": 7,
      "program": 0,
      "isDrum": true
    },
    {
      "pitch": 49,
      "velocity": 100,
      "startTime": 19.072800000000083,
      "endTime": 19.470150000000086,
      "instrument": 7,
      "program": 0,
      "isDrum": true
    },
    {
      "pitch": 52,
      "velocity": 100,
      "startTime": 19.072800000000083,
      "endTime": 19.86750000000009,
      "instrument": 7,
      "program": 0,
      "isDrum": true
    },
    {
      "pitch": 54,
      "velocity": 100,
      "startTime": 19.072800000000083,
      "endTime": 19.172137500000083,
      "instrument": 7,
      "program": 0,
      "isDrum": true
    },
    {
      "pitch": 55,
      "velocity": 100,
      "startTime": 19.072800000000083,
      "endTime": 19.86750000000009,
      "instrument": 7,
      "program": 0,
      "isDrum": true
    },
    {
      "pitch": 54,
      "velocity": 100,
      "startTime": 19.271475000000084,
      "endTime": 19.370812500000085,
      "instrument": 7,
      "program": 0,
      "isDrum": true
    },
    {
      "pitch": 40,
      "velocity": 100,
      "startTime": 19.470150000000086,
      "endTime": 19.569487500000086,
      "instrument": 7,
      "program": 0,
      "isDrum": true
    },
    {
      "pitch": 54,
      "velocity": 100,
      "startTime": 19.470150000000086,
      "endTime": 19.569487500000086,
      "instrument": 7,
      "program": 0,
      "isDrum": true
    },
    {
      "pitch": 38,
      "velocity": 100,
      "startTime": 19.478428125000086,
      "endTime": 19.577765625000087,
      "instrument": 7,
      "program": 0,
      "isDrum": true
    },
    {
      "pitch": 35,
      "velocity": 100,
      "startTime": 19.668825000000087,
      "endTime": 19.768162500000088,
      "instrument": 7,
      "program": 0,
      "isDrum": true
    },
    {
      "pitch": 54,
      "velocity": 100,
      "startTime": 19.668825000000087,
      "endTime": 19.768162500000088,
      "instrument": 7,
      "program": 0,
      "isDrum": true
    },
    {
      "pitch": 35,
      "velocity": 100,
      "startTime": 19.86750000000009,
      "endTime": 19.96683750000009,
      "instrument": 7,
      "program": 0,
      "isDrum": true
    },
    {
      "pitch": 54,
      "velocity": 100,
      "startTime": 19.86750000000009,
      "endTime": 19.96683750000009,
      "instrument": 7,
      "program": 0,
      "isDrum": true
    },
    {
      "pitch": 54,
      "velocity": 100,
      "startTime": 20.06617500000009,
      "endTime": 20.16551250000009,
      "instrument": 7,
      "program": 0,
      "isDrum": true
    },
    {
      "pitch": 40,
      "velocity": 100,
      "startTime": 20.26485000000009,
      "endTime": 20.364187500000092,
      "instrument": 7,
      "program": 0,
      "isDrum": true
    },
    {
      "pitch": 54,
      "velocity": 100,
      "startTime": 20.26485000000009,
      "endTime": 20.364187500000092,
      "instrument": 7,
      "program": 0,
      "isDrum": true
    },
    {
      "pitch": 38,
      "velocity": 100,
      "startTime": 20.273128125000092,
      "endTime": 20.372465625000093,
      "instrument": 7,
      "program": 0,
      "isDrum": true
    },
    {
      "pitch": 54,
      "velocity": 100,
      "startTime": 20.463525000000093,
      "endTime": 20.562862500000094,
      "instrument": 7,
      "program": 0,
      "isDrum": true
    },
    {
      "pitch": 35,
      "velocity": 100,
      "startTime": 20.662200000000094,
      "endTime": 20.761537500000095,
      "instrument": 7,
      "program": 0,
      "isDrum": true
    },
    {
      "pitch": 54,
      "velocity": 100,
      "startTime": 20.662200000000094,
      "endTime": 20.761537500000095,
      "instrument": 7,
      "program": 0,
      "isDrum": true
    },
    {
      "pitch": 54,
      "velocity": 100,
      "startTime": 20.860875000000096,
      "endTime": 20.960212500000097,
      "instrument": 7,
      "program": 0,
      "isDrum": true
    },
    {
      "pitch": 40,
      "velocity": 100,
      "startTime": 21.059550000000097,
      "endTime": 21.158887500000098,
      "instrument": 7,
      "program": 0,
      "isDrum": true
    },
    {
      "pitch": 54,
      "velocity": 100,
      "startTime": 21.059550000000097,
      "endTime": 21.158887500000098,
      "instrument": 7,
      "program": 0,
      "isDrum": true
    },
    {
      "pitch": 38,
      "velocity": 100,
      "startTime": 21.067828125000098,
      "endTime": 21.1671656250001,
      "instrument": 7,
      "program": 0,
      "isDrum": true
    },
    {
      "pitch": 35,
      "velocity": 100,
      "startTime": 21.2582250000001,
      "endTime": 21.3575625000001,
      "instrument": 7,
      "program": 0,
      "isDrum": true
    },
    {
      "pitch": 54,
      "velocity": 100,
      "startTime": 21.2582250000001,
      "endTime": 21.3575625000001,
      "instrument": 7,
      "program": 0,
      "isDrum": true
    },
    {
      "pitch": 35,
      "velocity": 100,
      "startTime": 21.4569000000001,
      "endTime": 21.5562375000001,
      "instrument": 7,
      "program": 0,
      "isDrum": true
    },
    {
      "pitch": 54,
      "velocity": 100,
      "startTime": 21.4569000000001,
      "endTime": 21.5562375000001,
      "instrument": 7,
      "program": 0,
      "isDrum": true
    },
    {
      "pitch": 54,
      "velocity": 100,
      "startTime": 21.655575000000102,
      "endTime": 21.754912500000103,
      "instrument": 7,
      "program": 0,
      "isDrum": true
    },
    {
      "pitch": 40,
      "velocity": 100,
      "startTime": 21.854250000000103,
      "endTime": 21.953587500000104,
      "instrument": 7,
      "program": 0,
      "isDrum": true
    },
    {
      "pitch": 54,
      "velocity": 100,
      "startTime": 21.854250000000103,
      "endTime": 21.953587500000104,
      "instrument": 7,
      "program": 0,
      "isDrum": true
    },
    {
      "pitch": 38,
      "velocity": 100,
      "startTime": 21.862528125000104,
      "endTime": 21.961865625000105,
      "instrument": 7,
      "program": 0,
      "isDrum": true
    },
    {
      "pitch": 54,
      "velocity": 100,
      "startTime": 22.052925000000105,
      "endTime": 22.152262500000106,
      "instrument": 7,
      "program": 0,
      "isDrum": true
    },
    {
      "pitch": 35,
      "velocity": 100,
      "startTime": 22.251600000000106,
      "endTime": 22.350937500000107,
      "instrument": 7,
      "program": 0,
      "isDrum": true
    },
    {
      "pitch": 54,
      "velocity": 100,
      "startTime": 22.251600000000106,
      "endTime": 22.350937500000107,
      "instrument": 7,
      "program": 0,
      "isDrum": true
    },
    {
      "pitch": 54,
      "velocity": 100,
      "startTime": 22.450275000000108,
      "endTime": 22.54961250000011,
      "instrument": 7,
      "program": 0,
      "isDrum": true
    },
    {
      "pitch": 40,
      "velocity": 100,
      "startTime": 22.64895000000011,
      "endTime": 22.74828750000011,
      "instrument": 7,
      "program": 0,
      "isDrum": true
    },
    {
      "pitch": 54,
      "velocity": 100,
      "startTime": 22.64895000000011,
      "endTime": 22.74828750000011,
      "instrument": 7,
      "program": 0,
      "isDrum": true
    },
    {
      "pitch": 38,
      "velocity": 100,
      "startTime": 22.65722812500011,
      "endTime": 22.75656562500011,
      "instrument": 7,
      "program": 0,
      "isDrum": true
    },
    {
      "pitch": 35,
      "velocity": 100,
      "startTime": 22.84762500000011,
      "endTime": 22.94696250000011,
      "instrument": 7,
      "program": 0,
      "isDrum": true
    },
    {
      "pitch": 54,
      "velocity": 100,
      "startTime": 22.84762500000011,
      "endTime": 22.94696250000011,
      "instrument": 7,
      "program": 0,
      "isDrum": true
    },
    {
      "pitch": 35,
      "velocity": 100,
      "startTime": 23.046300000000112,
      "endTime": 23.145637500000113,
      "instrument": 7,
      "program": 0,
      "isDrum": true
    },
    {
      "pitch": 54,
      "velocity": 100,
      "startTime": 23.046300000000112,
      "endTime": 23.145637500000113,
      "instrument": 7,
      "program": 0,
      "isDrum": true
    },
    {
      "pitch": 54,
      "velocity": 100,
      "startTime": 23.244975000000114,
      "endTime": 23.344312500000115,
      "instrument": 7,
      "program": 0,
      "isDrum": true
    },
    {
      "pitch": 40,
      "velocity": 100,
      "startTime": 23.443650000000115,
      "endTime": 23.542987500000116,
      "instrument": 7,
      "program": 0,
      "isDrum": true
    },
    {
      "pitch": 54,
      "velocity": 100,
      "startTime": 23.443650000000115,
      "endTime": 23.542987500000116,
      "instrument": 7,
      "program": 0,
      "isDrum": true
    },
    {
      "pitch": 38,
      "velocity": 100,
      "startTime": 23.451928125000116,
      "endTime": 23.551265625000116,
      "instrument": 7,
      "program": 0,
      "isDrum": true
    },
    {
      "pitch": 54,
      "velocity": 100,
      "startTime": 23.642325000000117,
      "endTime": 23.741662500000118,
      "instrument": 7,
      "program": 0,
      "isDrum": true
    },
    {
      "pitch": 35,
      "velocity": 100,
      "startTime": 23.84100000000012,
      "endTime": 23.94033750000012,
      "instrument": 7,
      "program": 0,
      "isDrum": true
    },
    {
      "pitch": 54,
      "velocity": 100,
      "startTime": 23.84100000000012,
      "endTime": 23.94033750000012,
      "instrument": 7,
      "program": 0,
      "isDrum": true
    },
    {
      "pitch": 54,
      "velocity": 100,
      "startTime": 24.03967500000012,
      "endTime": 24.13901250000012,
      "instrument": 7,
      "program": 0,
      "isDrum": true
    },
    {
      "pitch": 40,
      "velocity": 100,
      "startTime": 24.23835000000012,
      "endTime": 24.337687500000122,
      "instrument": 7,
      "program": 0,
      "isDrum": true
    },
    {
      "pitch": 54,
      "velocity": 100,
      "startTime": 24.23835000000012,
      "endTime": 24.337687500000122,
      "instrument": 7,
      "program": 0,
      "isDrum": true
    },
    {
      "pitch": 38,
      "velocity": 100,
      "startTime": 24.24662812500012,
      "endTime": 24.345965625000122,
      "instrument": 7,
      "program": 0,
      "isDrum": true
    },
    {
      "pitch": 35,
      "velocity": 100,
      "startTime": 24.437025000000123,
      "endTime": 24.536362500000124,
      "instrument": 7,
      "program": 0,
      "isDrum": true
    },
    {
      "pitch": 54,
      "velocity": 100,
      "startTime": 24.437025000000123,
      "endTime": 24.536362500000124,
      "instrument": 7,
      "program": 0,
      "isDrum": true
    },
    {
      "pitch": 35,
      "velocity": 100,
      "startTime": 24.635700000000124,
      "endTime": 24.735037500000125,
      "instrument": 7,
      "program": 0,
      "isDrum": true
    },
    {
      "pitch": 54,
      "velocity": 100,
      "startTime": 24.635700000000124,
      "endTime": 24.735037500000125,
      "instrument": 7,
      "program": 0,
      "isDrum": true
    },
    {
      "pitch": 54,
      "velocity": 100,
      "startTime": 24.834375000000126,
      "endTime": 24.933712500000127,
      "instrument": 7,
      "program": 0,
      "isDrum": true
    },
    {
      "pitch": 40,
      "velocity": 100,
      "startTime": 25.033050000000127,
      "endTime": 25.132387500000128,
      "instrument": 7,
      "program": 0,
      "isDrum": true
    },
    {
      "pitch": 54,
      "velocity": 100,
      "startTime": 25.033050000000127,
      "endTime": 25.132387500000128,
      "instrument": 7,
      "program": 0,
      "isDrum": true
    },
    {
      "pitch": 38,
      "velocity": 100,
      "startTime": 25.041328125000128,
      "endTime": 25.14066562500013,
      "instrument": 7,
      "program": 0,
      "isDrum": true
    },
    {
      "pitch": 54,
      "velocity": 100,
      "startTime": 25.23172500000013,
      "endTime": 25.33106250000013,
      "instrument": 7,
      "program": 0,
      "isDrum": true
    },
    {
      "pitch": 35,
      "velocity": 100,
      "startTime": 25.43040000000013,
      "endTime": 25.52973750000013,
      "instrument": 7,
      "program": 0,
      "isDrum": true
    },
    {
      "pitch": 54,
      "velocity": 100,
      "startTime": 25.43040000000013,
      "endTime": 25.52973750000013,
      "instrument": 7,
      "program": 0,
      "isDrum": true
    },
    {
      "pitch": 54,
      "velocity": 100,
      "startTime": 25.62907500000013,
      "endTime": 25.728412500000132,
      "instrument": 7,
      "program": 0,
      "isDrum": true
    },
    {
      "pitch": 40,
      "velocity": 100,
      "startTime": 25.827750000000133,
      "endTime": 25.927087500000134,
      "instrument": 7,
      "program": 0,
      "isDrum": true
    },
    {
      "pitch": 54,
      "velocity": 100,
      "startTime": 25.827750000000133,
      "endTime": 25.927087500000134,
      "instrument": 7,
      "program": 0,
      "isDrum": true
    },
    {
      "pitch": 38,
      "velocity": 100,
      "startTime": 25.836028125000134,
      "endTime": 25.935365625000134,
      "instrument": 7,
      "program": 0,
      "isDrum": true
    },
    {
      "pitch": 35,
      "velocity": 100,
      "startTime": 26.026425000000135,
      "endTime": 26.125762500000135,
      "instrument": 7,
      "program": 0,
      "isDrum": true
    },
    {
      "pitch": 54,
      "velocity": 100,
      "startTime": 26.026425000000135,
      "endTime": 26.125762500000135,
      "instrument": 7,
      "program": 0,
      "isDrum": true
    },
    {
      "pitch": 35,
      "velocity": 100,
      "startTime": 26.225100000000136,
      "endTime": 26.324437500000137,
      "instrument": 7,
      "program": 0,
      "isDrum": true
    },
    {
      "pitch": 54,
      "velocity": 100,
      "startTime": 26.225100000000136,
      "endTime": 26.324437500000137,
      "instrument": 7,
      "program": 0,
      "isDrum": true
    },
    {
      "pitch": 54,
      "velocity": 100,
      "startTime": 26.423775000000138,
      "endTime": 26.52311250000014,
      "instrument": 7,
      "program": 0,
      "isDrum": true
    },
    {
      "pitch": 40,
      "velocity": 100,
      "startTime": 26.62245000000014,
      "endTime": 26.72178750000014,
      "instrument": 7,
      "program": 0,
      "isDrum": true
    },
    {
      "pitch": 54,
      "velocity": 100,
      "startTime": 26.62245000000014,
      "endTime": 26.72178750000014,
      "instrument": 7,
      "program": 0,
      "isDrum": true
    },
    {
      "pitch": 38,
      "velocity": 100,
      "startTime": 26.63072812500014,
      "endTime": 26.73006562500014,
      "instrument": 7,
      "program": 0,
      "isDrum": true
    },
    {
      "pitch": 54,
      "velocity": 100,
      "startTime": 26.82112500000014,
      "endTime": 26.92046250000014,
      "instrument": 7,
      "program": 0,
      "isDrum": true
    },
    {
      "pitch": 35,
      "velocity": 100,
      "startTime": 27.019800000000142,
      "endTime": 27.119137500000143,
      "instrument": 7,
      "program": 0,
      "isDrum": true
    },
    {
      "pitch": 54,
      "velocity": 100,
      "startTime": 27.019800000000142,
      "endTime": 27.119137500000143,
      "instrument": 7,
      "program": 0,
      "isDrum": true
    },
    {
      "pitch": 54,
      "velocity": 100,
      "startTime": 27.218475000000144,
      "endTime": 27.317812500000144,
      "instrument": 7,
      "program": 0,
      "isDrum": true
    },
    {
      "pitch": 40,
      "velocity": 100,
      "startTime": 27.417150000000145,
      "endTime": 27.516487500000146,
      "instrument": 7,
      "program": 0,
      "isDrum": true
    },
    {
      "pitch": 54,
      "velocity": 100,
      "startTime": 27.417150000000145,
      "endTime": 27.516487500000146,
      "instrument": 7,
      "program": 0,
      "isDrum": true
    },
    {
      "pitch": 38,
      "velocity": 100,
      "startTime": 27.425428125000145,
      "endTime": 27.524765625000146,
      "instrument": 7,
      "program": 0,
      "isDrum": true
    },
    {
      "pitch": 35,
      "velocity": 100,
      "startTime": 27.615825000000147,
      "endTime": 27.715162500000147,
      "instrument": 7,
      "program": 0,
      "isDrum": true
    },
    {
      "pitch": 54,
      "velocity": 100,
      "startTime": 27.615825000000147,
      "endTime": 27.715162500000147,
      "instrument": 7,
      "program": 0,
      "isDrum": true
    },
    {
      "pitch": 35,
      "velocity": 100,
      "startTime": 27.814500000000148,
      "endTime": 27.91383750000015,
      "instrument": 7,
      "program": 0,
      "isDrum": true
    },
    {
      "pitch": 54,
      "velocity": 100,
      "startTime": 27.814500000000148,
      "endTime": 27.91383750000015,
      "instrument": 7,
      "program": 0,
      "isDrum": true
    },
    {
      "pitch": 54,
      "velocity": 100,
      "startTime": 28.01317500000015,
      "endTime": 28.11251250000015,
      "instrument": 7,
      "program": 0,
      "isDrum": true
    },
    {
      "pitch": 40,
      "velocity": 100,
      "startTime": 28.21185000000015,
      "endTime": 28.311187500000152,
      "instrument": 7,
      "program": 0,
      "isDrum": true
    },
    {
      "pitch": 54,
      "velocity": 100,
      "startTime": 28.21185000000015,
      "endTime": 28.311187500000152,
      "instrument": 7,
      "program": 0,
      "isDrum": true
    },
    {
      "pitch": 38,
      "velocity": 100,
      "startTime": 28.22012812500015,
      "endTime": 28.319465625000152,
      "instrument": 7,
      "program": 0,
      "isDrum": true
    },
    {
      "pitch": 54,
      "velocity": 100,
      "startTime": 28.410525000000153,
      "endTime": 28.509862500000153,
      "instrument": 7,
      "program": 0,
      "isDrum": true
    },
    {
      "pitch": 35,
      "velocity": 100,
      "startTime": 28.609200000000154,
      "endTime": 28.708537500000155,
      "instrument": 7,
      "program": 0,
      "isDrum": true
    },
    {
      "pitch": 54,
      "velocity": 100,
      "startTime": 28.609200000000154,
      "endTime": 28.708537500000155,
      "instrument": 7,
      "program": 0,
      "isDrum": true
    },
    {
      "pitch": 54,
      "velocity": 100,
      "startTime": 28.807875000000156,
      "endTime": 28.907212500000156,
      "instrument": 7,
      "program": 0,
      "isDrum": true
    },
    {
      "pitch": 40,
      "velocity": 100,
      "startTime": 29.006550000000157,
      "endTime": 29.105887500000158,
      "instrument": 7,
      "program": 0,
      "isDrum": true
    },
    {
      "pitch": 54,
      "velocity": 100,
      "startTime": 29.006550000000157,
      "endTime": 29.105887500000158,
      "instrument": 7,
      "program": 0,
      "isDrum": true
    },
    {
      "pitch": 38,
      "velocity": 100,
      "startTime": 29.014828125000157,
      "endTime": 29.114165625000158,
      "instrument": 7,
      "program": 0,
      "isDrum": true
    },
    {
      "pitch": 35,
      "velocity": 100,
      "startTime": 29.20522500000016,
      "endTime": 29.30456250000016,
      "instrument": 7,
      "program": 0,
      "isDrum": true
    },
    {
      "pitch": 54,
      "velocity": 100,
      "startTime": 29.20522500000016,
      "endTime": 29.30456250000016,
      "instrument": 7,
      "program": 0,
      "isDrum": true
    },
    {
      "pitch": 35,
      "velocity": 100,
      "startTime": 29.40390000000016,
      "endTime": 29.50323750000016,
      "instrument": 7,
      "program": 0,
      "isDrum": true
    },
    {
      "pitch": 54,
      "velocity": 100,
      "startTime": 29.40390000000016,
      "endTime": 29.50323750000016,
      "instrument": 7,
      "program": 0,
      "isDrum": true
    },
    {
      "pitch": 54,
      "velocity": 100,
      "startTime": 29.60257500000016,
      "endTime": 29.701912500000162,
      "instrument": 7,
      "program": 0,
      "isDrum": true
    },
    {
      "pitch": 40,
      "velocity": 100,
      "startTime": 29.801250000000163,
      "endTime": 29.900587500000164,
      "instrument": 7,
      "program": 0,
      "isDrum": true
    },
    {
      "pitch": 54,
      "velocity": 100,
      "startTime": 29.801250000000163,
      "endTime": 29.900587500000164,
      "instrument": 7,
      "program": 0,
      "isDrum": true
    },
    {
      "pitch": 38,
      "velocity": 100,
      "startTime": 29.809528125000163,
      "endTime": 29.908865625000164,
      "instrument": 7,
      "program": 0,
      "isDrum": true
    },
    {
      "pitch": 54,
      "velocity": 100,
      "startTime": 29.999925000000164,
      "endTime": 30.099262500000165,
      "instrument": 7,
      "program": 0,
      "isDrum": true
    },
    {
      "pitch": 35,
      "velocity": 100,
      "startTime": 30.198600000000166,
      "endTime": 30.297937500000167,
      "instrument": 7,
      "program": 0,
      "isDrum": true
    },
    {
      "pitch": 54,
      "velocity": 100,
      "startTime": 30.198600000000166,
      "endTime": 30.297937500000167,
      "instrument": 7,
      "program": 0,
      "isDrum": true
    },
    {
      "pitch": 54,
      "velocity": 100,
      "startTime": 30.397275000000167,
      "endTime": 30.496612500000168,
      "instrument": 7,
      "program": 0,
      "isDrum": true
    },
    {
      "pitch": 40,
      "velocity": 100,
      "startTime": 30.59595000000017,
      "endTime": 30.69528750000017,
      "instrument": 7,
      "program": 0,
      "isDrum": true
    },
    {
      "pitch": 54,
      "velocity": 100,
      "startTime": 30.59595000000017,
      "endTime": 30.69528750000017,
      "instrument": 7,
      "program": 0,
      "isDrum": true
    },
    {
      "pitch": 38,
      "velocity": 100,
      "startTime": 30.60422812500017,
      "endTime": 30.70356562500017,
      "instrument": 7,
      "program": 0,
      "isDrum": true
    },
    {
      "pitch": 35,
      "velocity": 100,
      "startTime": 30.79462500000017,
      "endTime": 30.89396250000017,
      "instrument": 7,
      "program": 0,
      "isDrum": true
    },
    {
      "pitch": 54,
      "velocity": 100,
      "startTime": 30.79462500000017,
      "endTime": 30.89396250000017,
      "instrument": 7,
      "program": 0,
      "isDrum": true
    },
    {
      "pitch": 35,
      "velocity": 100,
      "startTime": 30.993300000000172,
      "endTime": 31.092637500000173,
      "instrument": 7,
      "program": 0,
      "isDrum": true
    },
    {
      "pitch": 54,
      "velocity": 100,
      "startTime": 30.993300000000172,
      "endTime": 31.092637500000173,
      "instrument": 7,
      "program": 0,
      "isDrum": true
    },
    {
      "pitch": 54,
      "velocity": 100,
      "startTime": 31.191975000000173,
      "endTime": 31.291312500000174,
      "instrument": 7,
      "program": 0,
      "isDrum": true
    },
    {
      "pitch": 40,
      "velocity": 100,
      "startTime": 31.390650000000175,
      "endTime": 31.489987500000176,
      "instrument": 7,
      "program": 0,
      "isDrum": true
    },
    {
      "pitch": 54,
      "velocity": 100,
      "startTime": 31.390650000000175,
      "endTime": 31.489987500000176,
      "instrument": 7,
      "program": 0,
      "isDrum": true
    },
    {
      "pitch": 38,
      "velocity": 100,
      "startTime": 31.398928125000175,
      "endTime": 31.498265625000176,
      "instrument": 7,
      "program": 0,
      "isDrum": true
    },
    {
      "pitch": 54,
      "velocity": 100,
      "startTime": 31.589325000000176,
      "endTime": 31.688662500000177,
      "instrument": 7,
      "program": 0,
      "isDrum": true
    },
    {
      "pitch": 35,
      "velocity": 100,
      "startTime": 31.788000000000178,
      "endTime": 31.88733750000018,
      "instrument": 7,
      "program": 0,
      "isDrum": true
    },
    {
      "pitch": 54,
      "velocity": 100,
      "startTime": 31.788000000000178,
      "endTime": 31.88733750000018,
      "instrument": 7,
      "program": 0,
      "isDrum": true
    },
    {
      "pitch": 54,
      "velocity": 100,
      "startTime": 31.98667500000018,
      "endTime": 32.08601250000018,
      "instrument": 7,
      "program": 0,
      "isDrum": true
    },
    {
      "pitch": 40,
      "velocity": 100,
      "startTime": 32.18535000000018,
      "endTime": 32.284687500000175,
      "instrument": 7,
      "program": 0,
      "isDrum": true
    },
    {
      "pitch": 54,
      "velocity": 100,
      "startTime": 32.18535000000018,
      "endTime": 32.284687500000175,
      "instrument": 7,
      "program": 0,
      "isDrum": true
    },
    {
      "pitch": 38,
      "velocity": 100,
      "startTime": 32.193628125000174,
      "endTime": 32.29296562500017,
      "instrument": 7,
      "program": 0,
      "isDrum": true
    },
    {
      "pitch": 35,
      "velocity": 100,
      "startTime": 32.38402500000017,
      "endTime": 32.48336250000017,
      "instrument": 7,
      "program": 0,
      "isDrum": true
    },
    {
      "pitch": 54,
      "velocity": 100,
      "startTime": 32.38402500000017,
      "endTime": 32.48336250000017,
      "instrument": 7,
      "program": 0,
      "isDrum": true
    },
    {
      "pitch": 35,
      "velocity": 100,
      "startTime": 32.582700000000166,
      "endTime": 32.68203750000016,
      "instrument": 7,
      "program": 0,
      "isDrum": true
    },
    {
      "pitch": 54,
      "velocity": 100,
      "startTime": 32.582700000000166,
      "endTime": 32.68203750000016,
      "instrument": 7,
      "program": 0,
      "isDrum": true
    },
    {
      "pitch": 54,
      "velocity": 100,
      "startTime": 32.78137500000016,
      "endTime": 32.88071250000016,
      "instrument": 7,
      "program": 0,
      "isDrum": true
    },
    {
      "pitch": 40,
      "velocity": 100,
      "startTime": 32.980050000000155,
      "endTime": 33.07938750000015,
      "instrument": 7,
      "program": 0,
      "isDrum": true
    },
    {
      "pitch": 54,
      "velocity": 100,
      "startTime": 32.980050000000155,
      "endTime": 33.07938750000015,
      "instrument": 7,
      "program": 0,
      "isDrum": true
    },
    {
      "pitch": 38,
      "velocity": 100,
      "startTime": 32.98832812500015,
      "endTime": 33.08766562500015,
      "instrument": 7,
      "program": 0,
      "isDrum": true
    },
    {
      "pitch": 54,
      "velocity": 100,
      "startTime": 33.17872500000015,
      "endTime": 33.278062500000146,
      "instrument": 7,
      "program": 0,
      "isDrum": true
    },
    {
      "pitch": 35,
      "velocity": 100,
      "startTime": 33.377400000000144,
      "endTime": 33.47673750000014,
      "instrument": 7,
      "program": 0,
      "isDrum": true
    },
    {
      "pitch": 54,
      "velocity": 100,
      "startTime": 33.377400000000144,
      "endTime": 33.47673750000014,
      "instrument": 7,
      "program": 0,
      "isDrum": true
    },
    {
      "pitch": 54,
      "velocity": 100,
      "startTime": 33.57607500000014,
      "endTime": 33.675412500000135,
      "instrument": 7,
      "program": 0,
      "isDrum": true
    },
    {
      "pitch": 40,
      "velocity": 100,
      "startTime": 33.77475000000013,
      "endTime": 33.87408750000013,
      "instrument": 7,
      "program": 0,
      "isDrum": true
    },
    {
      "pitch": 54,
      "velocity": 100,
      "startTime": 33.77475000000013,
      "endTime": 33.87408750000013,
      "instrument": 7,
      "program": 0,
      "isDrum": true
    },
    {
      "pitch": 38,
      "velocity": 100,
      "startTime": 33.78302812500013,
      "endTime": 33.882365625000126,
      "instrument": 7,
      "program": 0,
      "isDrum": true
    },
    {
      "pitch": 35,
      "velocity": 100,
      "startTime": 33.97342500000013,
      "endTime": 34.072762500000124,
      "instrument": 7,
      "program": 0,
      "isDrum": true
    },
    {
      "pitch": 54,
      "velocity": 100,
      "startTime": 33.97342500000013,
      "endTime": 34.072762500000124,
      "instrument": 7,
      "program": 0,
      "isDrum": true
    },
    {
      "pitch": 35,
      "velocity": 100,
      "startTime": 34.17210000000012,
      "endTime": 34.27143750000012,
      "instrument": 7,
      "program": 0,
      "isDrum": true
    },
    {
      "pitch": 54,
      "velocity": 100,
      "startTime": 34.17210000000012,
      "endTime": 34.27143750000012,
      "instrument": 7,
      "program": 0,
      "isDrum": true
    },
    {
      "pitch": 54,
      "velocity": 100,
      "startTime": 34.370775000000116,
      "endTime": 34.47011250000011,
      "instrument": 7,
      "program": 0,
      "isDrum": true
    },
    {
      "pitch": 40,
      "velocity": 100,
      "startTime": 34.56945000000011,
      "endTime": 34.66878750000011,
      "instrument": 7,
      "program": 0,
      "isDrum": true
    },
    {
      "pitch": 54,
      "velocity": 100,
      "startTime": 34.56945000000011,
      "endTime": 34.66878750000011,
      "instrument": 7,
      "program": 0,
      "isDrum": true
    },
    {
      "pitch": 38,
      "velocity": 100,
      "startTime": 34.57772812500011,
      "endTime": 34.677065625000104,
      "instrument": 7,
      "program": 0,
      "isDrum": true
    },
    {
      "pitch": 54,
      "velocity": 100,
      "startTime": 34.768125000000104,
      "endTime": 34.8674625000001,
      "instrument": 7,
      "program": 0,
      "isDrum": true
    },
    {
      "pitch": 35,
      "velocity": 100,
      "startTime": 34.9668000000001,
      "endTime": 35.066137500000096,
      "instrument": 7,
      "program": 0,
      "isDrum": true
    },
    {
      "pitch": 46,
      "velocity": 100,
      "startTime": 34.9668000000001,
      "endTime": 35.761500000000076,
      "instrument": 7,
      "program": 0,
      "isDrum": true
    },
    {
      "pitch": 49,
      "velocity": 100,
      "startTime": 34.9668000000001,
      "endTime": 35.36415000000009,
      "instrument": 7,
      "program": 0,
      "isDrum": true
    },
    {
      "pitch": 52,
      "velocity": 100,
      "startTime": 34.9668000000001,
      "endTime": 35.761500000000076,
      "instrument": 7,
      "program": 0,
      "isDrum": true
    },
    {
      "pitch": 54,
      "velocity": 100,
      "startTime": 34.9668000000001,
      "endTime": 35.066137500000096,
      "instrument": 7,
      "program": 0,
      "isDrum": true
    },
    {
      "pitch": 55,
      "velocity": 100,
      "startTime": 34.9668000000001,
      "endTime": 35.761500000000076,
      "instrument": 7,
      "program": 0,
      "isDrum": true
    },
    {
      "pitch": 54,
      "velocity": 100,
      "startTime": 35.16547500000009,
      "endTime": 35.26481250000009,
      "instrument": 7,
      "program": 0,
      "isDrum": true
    },
    {
      "pitch": 40,
      "velocity": 100,
      "startTime": 35.36415000000009,
      "endTime": 35.463487500000085,
      "instrument": 7,
      "program": 0,
      "isDrum": true
    },
    {
      "pitch": 54,
      "velocity": 100,
      "startTime": 35.36415000000009,
      "endTime": 35.463487500000085,
      "instrument": 7,
      "program": 0,
      "isDrum": true
    },
    {
      "pitch": 38,
      "velocity": 100,
      "startTime": 35.372428125000084,
      "endTime": 35.47176562500008,
      "instrument": 7,
      "program": 0,
      "isDrum": true
    },
    {
      "pitch": 35,
      "velocity": 100,
      "startTime": 35.56282500000008,
      "endTime": 35.66216250000008,
      "instrument": 7,
      "program": 0,
      "isDrum": true
    },
    {
      "pitch": 54,
      "velocity": 100,
      "startTime": 35.56282500000008,
      "endTime": 35.66216250000008,
      "instrument": 7,
      "program": 0,
      "isDrum": true
    },
    {
      "pitch": 35,
      "velocity": 100,
      "startTime": 35.761500000000076,
      "endTime": 35.86083750000007,
      "instrument": 7,
      "program": 0,
      "isDrum": true
    },
    {
      "pitch": 54,
      "velocity": 100,
      "startTime": 35.761500000000076,
      "endTime": 35.86083750000007,
      "instrument": 7,
      "program": 0,
      "isDrum": true
    },
    {
      "pitch": 54,
      "velocity": 100,
      "startTime": 35.96017500000007,
      "endTime": 36.05951250000007,
      "instrument": 7,
      "program": 0,
      "isDrum": true
    },
    {
      "pitch": 40,
      "velocity": 100,
      "startTime": 36.158850000000065,
      "endTime": 36.25818750000006,
      "instrument": 7,
      "program": 0,
      "isDrum": true
    },
    {
      "pitch": 54,
      "velocity": 100,
      "startTime": 36.158850000000065,
      "endTime": 36.25818750000006,
      "instrument": 7,
      "program": 0,
      "isDrum": true
    },
    {
      "pitch": 38,
      "velocity": 100,
      "startTime": 36.16712812500006,
      "endTime": 36.26646562500006,
      "instrument": 7,
      "program": 0,
      "isDrum": true
    },
    {
      "pitch": 54,
      "velocity": 100,
      "startTime": 36.35752500000006,
      "endTime": 36.45686250000006,
      "instrument": 7,
      "program": 0,
      "isDrum": true
    },
    {
      "pitch": 35,
      "velocity": 100,
      "startTime": 36.556200000000054,
      "endTime": 36.65553750000005,
      "instrument": 7,
      "program": 0,
      "isDrum": true
    },
    {
      "pitch": 54,
      "velocity": 100,
      "startTime": 36.556200000000054,
      "endTime": 36.65553750000005,
      "instrument": 7,
      "program": 0,
      "isDrum": true
    },
    {
      "pitch": 54,
      "velocity": 100,
      "startTime": 36.75487500000005,
      "endTime": 36.854212500000045,
      "instrument": 7,
      "program": 0,
      "isDrum": true
    },
    {
      "pitch": 40,
      "velocity": 100,
      "startTime": 36.95355000000004,
      "endTime": 37.05288750000004,
      "instrument": 7,
      "program": 0,
      "isDrum": true
    },
    {
      "pitch": 54,
      "velocity": 100,
      "startTime": 36.95355000000004,
      "endTime": 37.05288750000004,
      "instrument": 7,
      "program": 0,
      "isDrum": true
    },
    {
      "pitch": 38,
      "velocity": 100,
      "startTime": 36.96182812500004,
      "endTime": 37.06116562500004,
      "instrument": 7,
      "program": 0,
      "isDrum": true
    },
    {
      "pitch": 35,
      "velocity": 100,
      "startTime": 37.15222500000004,
      "endTime": 37.251562500000034,
      "instrument": 7,
      "program": 0,
      "isDrum": true
    },
    {
      "pitch": 54,
      "velocity": 100,
      "startTime": 37.15222500000004,
      "endTime": 37.251562500000034,
      "instrument": 7,
      "program": 0,
      "isDrum": true
    },
    {
      "pitch": 35,
      "velocity": 100,
      "startTime": 37.35090000000003,
      "endTime": 37.45023750000003,
      "instrument": 7,
      "program": 0,
      "isDrum": true
    },
    {
      "pitch": 54,
      "velocity": 100,
      "startTime": 37.35090000000003,
      "endTime": 37.45023750000003,
      "instrument": 7,
      "program": 0,
      "isDrum": true
    },
    {
      "pitch": 54,
      "velocity": 100,
      "startTime": 37.549575000000026,
      "endTime": 37.64891250000002,
      "instrument": 7,
      "program": 0,
      "isDrum": true
    },
    {
      "pitch": 40,
      "velocity": 100,
      "startTime": 37.74825000000002,
      "endTime": 37.84758750000002,
      "instrument": 7,
      "program": 0,
      "isDrum": true
    },
    {
      "pitch": 54,
      "velocity": 100,
      "startTime": 37.74825000000002,
      "endTime": 37.84758750000002,
      "instrument": 7,
      "program": 0,
      "isDrum": true
    },
    {
      "pitch": 38,
      "velocity": 100,
      "startTime": 37.75652812500002,
      "endTime": 37.855865625000014,
      "instrument": 7,
      "program": 0,
      "isDrum": true
    },
    {
      "pitch": 54,
      "velocity": 100,
      "startTime": 37.946925000000014,
      "endTime": 38.04626250000001,
      "instrument": 7,
      "program": 0,
      "isDrum": true
    },
    {
      "pitch": 35,
      "velocity": 100,
      "startTime": 38.14560000000001,
      "endTime": 38.244937500000006,
      "instrument": 7,
      "program": 0,
      "isDrum": true
    },
    {
      "pitch": 54,
      "velocity": 100,
      "startTime": 38.14560000000001,
      "endTime": 38.244937500000006,
      "instrument": 7,
      "program": 0,
      "isDrum": true
    },
    {
      "pitch": 54,
      "velocity": 100,
      "startTime": 38.344275,
      "endTime": 38.4436125,
      "instrument": 7,
      "program": 0,
      "isDrum": true
    },
    {
      "pitch": 40,
      "velocity": 100,
      "startTime": 38.54295,
      "endTime": 38.642287499999995,
      "instrument": 7,
      "program": 0,
      "isDrum": true
    },
    {
      "pitch": 54,
      "velocity": 100,
      "startTime": 38.54295,
      "endTime": 38.642287499999995,
      "instrument": 7,
      "program": 0,
      "isDrum": true
    },
    {
      "pitch": 38,
      "velocity": 100,
      "startTime": 38.551228124999994,
      "endTime": 38.65056562499999,
      "instrument": 7,
      "program": 0,
      "isDrum": true
    },
    {
      "pitch": 35,
      "velocity": 100,
      "startTime": 38.74162499999999,
      "endTime": 38.84096249999999,
      "instrument": 7,
      "program": 0,
      "isDrum": true
    },
    {
      "pitch": 54,
      "velocity": 100,
      "startTime": 38.74162499999999,
      "endTime": 38.84096249999999,
      "instrument": 7,
      "program": 0,
      "isDrum": true
    },
    {
      "pitch": 35,
      "velocity": 100,
      "startTime": 38.940299999999986,
      "endTime": 39.039637499999984,
      "instrument": 7,
      "program": 0,
      "isDrum": true
    },
    {
      "pitch": 54,
      "velocity": 100,
      "startTime": 38.940299999999986,
      "endTime": 39.039637499999984,
      "instrument": 7,
      "program": 0,
      "isDrum": true
    },
    {
      "pitch": 54,
      "velocity": 100,
      "startTime": 39.13897499999998,
      "endTime": 39.23831249999998,
      "instrument": 7,
      "program": 0,
      "isDrum": true
    },
    {
      "pitch": 40,
      "velocity": 100,
      "startTime": 39.337649999999975,
      "endTime": 39.43698749999997,
      "instrument": 7,
      "program": 0,
      "isDrum": true
    },
    {
      "pitch": 54,
      "velocity": 100,
      "startTime": 39.337649999999975,
      "endTime": 39.43698749999997,
      "instrument": 7,
      "program": 0,
      "isDrum": true
    },
    {
      "pitch": 38,
      "velocity": 100,
      "startTime": 39.34592812499997,
      "endTime": 39.44526562499997,
      "instrument": 7,
      "program": 0,
      "isDrum": true
    },
    {
      "pitch": 54,
      "velocity": 100,
      "startTime": 39.53632499999997,
      "endTime": 39.63566249999997,
      "instrument": 7,
      "program": 0,
      "isDrum": true
    },
    {
      "pitch": 35,
      "velocity": 100,
      "startTime": 39.734999999999964,
      "endTime": 39.83433749999996,
      "instrument": 7,
      "program": 0,
      "isDrum": true
    },
    {
      "pitch": 54,
      "velocity": 100,
      "startTime": 39.734999999999964,
      "endTime": 39.83433749999996,
      "instrument": 7,
      "program": 0,
      "isDrum": true
    },
    {
      "pitch": 54,
      "velocity": 100,
      "startTime": 39.93367499999996,
      "endTime": 40.033012499999955,
      "instrument": 7,
      "program": 0,
      "isDrum": true
    },
    {
      "pitch": 40,
      "velocity": 100,
      "startTime": 40.13234999999995,
      "endTime": 40.23168749999995,
      "instrument": 7,
      "program": 0,
      "isDrum": true
    },
    {
      "pitch": 54,
      "velocity": 100,
      "startTime": 40.13234999999995,
      "endTime": 40.23168749999995,
      "instrument": 7,
      "program": 0,
      "isDrum": true
    },
    {
      "pitch": 38,
      "velocity": 100,
      "startTime": 40.14062812499995,
      "endTime": 40.23996562499995,
      "instrument": 7,
      "program": 0,
      "isDrum": true
    },
    {
      "pitch": 35,
      "velocity": 100,
      "startTime": 40.33102499999995,
      "endTime": 40.430362499999944,
      "instrument": 7,
      "program": 0,
      "isDrum": true
    },
    {
      "pitch": 54,
      "velocity": 100,
      "startTime": 40.33102499999995,
      "endTime": 40.430362499999944,
      "instrument": 7,
      "program": 0,
      "isDrum": true
    },
    {
      "pitch": 35,
      "velocity": 100,
      "startTime": 40.52969999999994,
      "endTime": 40.62903749999994,
      "instrument": 7,
      "program": 0,
      "isDrum": true
    },
    {
      "pitch": 54,
      "velocity": 100,
      "startTime": 40.52969999999994,
      "endTime": 40.62903749999994,
      "instrument": 7,
      "program": 0,
      "isDrum": true
    },
    {
      "pitch": 54,
      "velocity": 100,
      "startTime": 40.728374999999936,
      "endTime": 40.82771249999993,
      "instrument": 7,
      "program": 0,
      "isDrum": true
    },
    {
      "pitch": 40,
      "velocity": 100,
      "startTime": 40.92704999999993,
      "endTime": 41.02638749999993,
      "instrument": 7,
      "program": 0,
      "isDrum": true
    },
    {
      "pitch": 54,
      "velocity": 100,
      "startTime": 40.92704999999993,
      "endTime": 41.02638749999993,
      "instrument": 7,
      "program": 0,
      "isDrum": true
    },
    {
      "pitch": 38,
      "velocity": 100,
      "startTime": 40.93532812499993,
      "endTime": 41.034665624999924,
      "instrument": 7,
      "program": 0,
      "isDrum": true
    },
    {
      "pitch": 54,
      "velocity": 100,
      "startTime": 41.125724999999925,
      "endTime": 41.22506249999992,
      "instrument": 7,
      "program": 0,
      "isDrum": true
    },
    {
      "pitch": 35,
      "velocity": 100,
      "startTime": 41.32439999999992,
      "endTime": 41.423737499999916,
      "instrument": 7,
      "program": 0,
      "isDrum": true
    },
    {
      "pitch": 54,
      "velocity": 100,
      "startTime": 41.32439999999992,
      "endTime": 41.423737499999916,
      "instrument": 7,
      "program": 0,
      "isDrum": true
    },
    {
      "pitch": 54,
      "velocity": 100,
      "startTime": 41.52307499999991,
      "endTime": 41.62241249999991,
      "instrument": 7,
      "program": 0,
      "isDrum": true
    },
    {
      "pitch": 40,
      "velocity": 100,
      "startTime": 41.72174999999991,
      "endTime": 41.821087499999905,
      "instrument": 7,
      "program": 0,
      "isDrum": true
    },
    {
      "pitch": 54,
      "velocity": 100,
      "startTime": 41.72174999999991,
      "endTime": 41.821087499999905,
      "instrument": 7,
      "program": 0,
      "isDrum": true
    },
    {
      "pitch": 38,
      "velocity": 100,
      "startTime": 41.730028124999905,
      "endTime": 41.8293656249999,
      "instrument": 7,
      "program": 0,
      "isDrum": true
    },
    {
      "pitch": 35,
      "velocity": 100,
      "startTime": 41.9204249999999,
      "endTime": 42.0197624999999,
      "instrument": 7,
      "program": 0,
      "isDrum": true
    },
    {
      "pitch": 54,
      "velocity": 100,
      "startTime": 41.9204249999999,
      "endTime": 42.0197624999999,
      "instrument": 7,
      "program": 0,
      "isDrum": true
    },
    {
      "pitch": 35,
      "velocity": 100,
      "startTime": 42.1190999999999,
      "endTime": 42.218437499999894,
      "instrument": 7,
      "program": 0,
      "isDrum": true
    },
    {
      "pitch": 54,
      "velocity": 100,
      "startTime": 42.1190999999999,
      "endTime": 42.218437499999894,
      "instrument": 7,
      "program": 0,
      "isDrum": true
    },
    {
      "pitch": 54,
      "velocity": 100,
      "startTime": 42.31777499999989,
      "endTime": 42.41711249999989,
      "instrument": 7,
      "program": 0,
      "isDrum": true
    },
    {
      "pitch": 40,
      "velocity": 100,
      "startTime": 42.516449999999885,
      "endTime": 42.61578749999988,
      "instrument": 7,
      "program": 0,
      "isDrum": true
    },
    {
      "pitch": 54,
      "velocity": 100,
      "startTime": 42.516449999999885,
      "endTime": 42.61578749999988,
      "instrument": 7,
      "program": 0,
      "isDrum": true
    },
    {
      "pitch": 38,
      "velocity": 100,
      "startTime": 42.52472812499988,
      "endTime": 42.62406562499988,
      "instrument": 7,
      "program": 0,
      "isDrum": true
    },
    {
      "pitch": 54,
      "velocity": 100,
      "startTime": 42.71512499999988,
      "endTime": 42.81446249999988,
      "instrument": 7,
      "program": 0,
      "isDrum": true
    },
    {
      "pitch": 35,
      "velocity": 100,
      "startTime": 42.913799999999874,
      "endTime": 43.01313749999987,
      "instrument": 7,
      "program": 0,
      "isDrum": true
    },
    {
      "pitch": 54,
      "velocity": 100,
      "startTime": 42.913799999999874,
      "endTime": 43.01313749999987,
      "instrument": 7,
      "program": 0,
      "isDrum": true
    },
    {
      "pitch": 54,
      "velocity": 100,
      "startTime": 43.11247499999987,
      "endTime": 43.211812499999866,
      "instrument": 7,
      "program": 0,
      "isDrum": true
    },
    {
      "pitch": 40,
      "velocity": 100,
      "startTime": 43.31114999999986,
      "endTime": 43.41048749999986,
      "instrument": 7,
      "program": 0,
      "isDrum": true
    },
    {
      "pitch": 54,
      "velocity": 100,
      "startTime": 43.31114999999986,
      "endTime": 43.41048749999986,
      "instrument": 7,
      "program": 0,
      "isDrum": true
    },
    {
      "pitch": 38,
      "velocity": 100,
      "startTime": 43.31942812499986,
      "endTime": 43.41876562499986,
      "instrument": 7,
      "program": 0,
      "isDrum": true
    },
    {
      "pitch": 35,
      "velocity": 100,
      "startTime": 43.50982499999986,
      "endTime": 43.609162499999854,
      "instrument": 7,
      "program": 0,
      "isDrum": true
    },
    {
      "pitch": 54,
      "velocity": 100,
      "startTime": 43.50982499999986,
      "endTime": 43.609162499999854,
      "instrument": 7,
      "program": 0,
      "isDrum": true
    },
    {
      "pitch": 35,
      "velocity": 100,
      "startTime": 43.70849999999985,
      "endTime": 43.80783749999985,
      "instrument": 7,
      "program": 0,
      "isDrum": true
    },
    {
      "pitch": 54,
      "velocity": 100,
      "startTime": 43.70849999999985,
      "endTime": 43.80783749999985,
      "instrument": 7,
      "program": 0,
      "isDrum": true
    },
    {
      "pitch": 54,
      "velocity": 100,
      "startTime": 43.907174999999846,
      "endTime": 44.00651249999984,
      "instrument": 7,
      "program": 0,
      "isDrum": true
    },
    {
      "pitch": 40,
      "velocity": 100,
      "startTime": 44.10584999999984,
      "endTime": 44.20518749999984,
      "instrument": 7,
      "program": 0,
      "isDrum": true
    },
    {
      "pitch": 54,
      "velocity": 100,
      "startTime": 44.10584999999984,
      "endTime": 44.20518749999984,
      "instrument": 7,
      "program": 0,
      "isDrum": true
    },
    {
      "pitch": 38,
      "velocity": 100,
      "startTime": 44.11412812499984,
      "endTime": 44.213465624999834,
      "instrument": 7,
      "program": 0,
      "isDrum": true
    },
    {
      "pitch": 54,
      "velocity": 100,
      "startTime": 44.304524999999835,
      "endTime": 44.40386249999983,
      "instrument": 7,
      "program": 0,
      "isDrum": true
    },
    {
      "pitch": 35,
      "velocity": 100,
      "startTime": 44.50319999999983,
      "endTime": 44.602537499999826,
      "instrument": 7,
      "program": 0,
      "isDrum": true
    },
    {
      "pitch": 54,
      "velocity": 100,
      "startTime": 44.50319999999983,
      "endTime": 44.602537499999826,
      "instrument": 7,
      "program": 0,
      "isDrum": true
    },
    {
      "pitch": 54,
      "velocity": 100,
      "startTime": 44.70187499999982,
      "endTime": 44.80121249999982,
      "instrument": 7,
      "program": 0,
      "isDrum": true
    },
    {
      "pitch": 40,
      "velocity": 100,
      "startTime": 44.90054999999982,
      "endTime": 44.999887499999815,
      "instrument": 7,
      "program": 0,
      "isDrum": true
    },
    {
      "pitch": 54,
      "velocity": 100,
      "startTime": 44.90054999999982,
      "endTime": 44.999887499999815,
      "instrument": 7,
      "program": 0,
      "isDrum": true
    },
    {
      "pitch": 38,
      "velocity": 100,
      "startTime": 44.908828124999815,
      "endTime": 45.00816562499981,
      "instrument": 7,
      "program": 0,
      "isDrum": true
    },
    {
      "pitch": 35,
      "velocity": 100,
      "startTime": 45.09922499999981,
      "endTime": 45.19856249999981,
      "instrument": 7,
      "program": 0,
      "isDrum": true
    },
    {
      "pitch": 54,
      "velocity": 100,
      "startTime": 45.09922499999981,
      "endTime": 45.19856249999981,
      "instrument": 7,
      "program": 0,
      "isDrum": true
    },
    {
      "pitch": 35,
      "velocity": 100,
      "startTime": 45.29789999999981,
      "endTime": 45.397237499999804,
      "instrument": 7,
      "program": 0,
      "isDrum": true
    },
    {
      "pitch": 54,
      "velocity": 100,
      "startTime": 45.29789999999981,
      "endTime": 45.397237499999804,
      "instrument": 7,
      "program": 0,
      "isDrum": true
    },
    {
      "pitch": 54,
      "velocity": 100,
      "startTime": 45.4965749999998,
      "endTime": 45.5959124999998,
      "instrument": 7,
      "program": 0,
      "isDrum": true
    },
    {
      "pitch": 40,
      "velocity": 100,
      "startTime": 45.695249999999795,
      "endTime": 45.79458749999979,
      "instrument": 7,
      "program": 0,
      "isDrum": true
    },
    {
      "pitch": 54,
      "velocity": 100,
      "startTime": 45.695249999999795,
      "endTime": 45.79458749999979,
      "instrument": 7,
      "program": 0,
      "isDrum": true
    },
    {
      "pitch": 38,
      "velocity": 100,
      "startTime": 45.70352812499979,
      "endTime": 45.80286562499979,
      "instrument": 7,
      "program": 0,
      "isDrum": true
    },
    {
      "pitch": 54,
      "velocity": 100,
      "startTime": 45.89392499999979,
      "endTime": 45.99326249999979,
      "instrument": 7,
      "program": 0,
      "isDrum": true
    },
    {
      "pitch": 35,
      "velocity": 100,
      "startTime": 46.092599999999784,
      "endTime": 46.19193749999978,
      "instrument": 7,
      "program": 0,
      "isDrum": true
    },
    {
      "pitch": 54,
      "velocity": 100,
      "startTime": 46.092599999999784,
      "endTime": 46.19193749999978,
      "instrument": 7,
      "program": 0,
      "isDrum": true
    },
    {
      "pitch": 54,
      "velocity": 100,
      "startTime": 46.29127499999978,
      "endTime": 46.390612499999776,
      "instrument": 7,
      "program": 0,
      "isDrum": true
    },
    {
      "pitch": 40,
      "velocity": 100,
      "startTime": 46.48994999999977,
      "endTime": 46.58928749999977,
      "instrument": 7,
      "program": 0,
      "isDrum": true
    },
    {
      "pitch": 54,
      "velocity": 100,
      "startTime": 46.48994999999977,
      "endTime": 46.58928749999977,
      "instrument": 7,
      "program": 0,
      "isDrum": true
    },
    {
      "pitch": 38,
      "velocity": 100,
      "startTime": 46.49822812499977,
      "endTime": 46.59756562499977,
      "instrument": 7,
      "program": 0,
      "isDrum": true
    },
    {
      "pitch": 35,
      "velocity": 100,
      "startTime": 46.68862499999977,
      "endTime": 46.787962499999765,
      "instrument": 7,
      "program": 0,
      "isDrum": true
    },
    {
      "pitch": 54,
      "velocity": 100,
      "startTime": 46.68862499999977,
      "endTime": 46.787962499999765,
      "instrument": 7,
      "program": 0,
      "isDrum": true
    },
    {
      "pitch": 35,
      "velocity": 100,
      "startTime": 46.88729999999976,
      "endTime": 46.98663749999976,
      "instrument": 7,
      "program": 0,
      "isDrum": true
    },
    {
      "pitch": 54,
      "velocity": 100,
      "startTime": 46.88729999999976,
      "endTime": 46.98663749999976,
      "instrument": 7,
      "program": 0,
      "isDrum": true
    },
    {
      "pitch": 54,
      "velocity": 100,
      "startTime": 47.085974999999756,
      "endTime": 47.18531249999975,
      "instrument": 7,
      "program": 0,
      "isDrum": true
    },
    {
      "pitch": 40,
      "velocity": 100,
      "startTime": 47.28464999999975,
      "endTime": 47.38398749999975,
      "instrument": 7,
      "program": 0,
      "isDrum": true
    },
    {
      "pitch": 54,
      "velocity": 100,
      "startTime": 47.28464999999975,
      "endTime": 47.38398749999975,
      "instrument": 7,
      "program": 0,
      "isDrum": true
    },
    {
      "pitch": 38,
      "velocity": 100,
      "startTime": 47.29292812499975,
      "endTime": 47.392265624999744,
      "instrument": 7,
      "program": 0,
      "isDrum": true
    },
    {
      "pitch": 54,
      "velocity": 100,
      "startTime": 47.483324999999745,
      "endTime": 47.58266249999974,
      "instrument": 7,
      "program": 0,
      "isDrum": true
    },
    {
      "pitch": 35,
      "velocity": 100,
      "startTime": 47.68199999999974,
      "endTime": 47.78133749999974,
      "instrument": 7,
      "program": 0,
      "isDrum": true
    },
    {
      "pitch": 46,
      "velocity": 100,
      "startTime": 47.68199999999974,
      "endTime": 48.47669999999972,
      "instrument": 7,
      "program": 0,
      "isDrum": true
    },
    {
      "pitch": 49,
      "velocity": 100,
      "startTime": 47.68199999999974,
      "endTime": 48.07934999999973,
      "instrument": 7,
      "program": 0,
      "isDrum": true
    },
    {
      "pitch": 52,
      "velocity": 100,
      "startTime": 47.68199999999974,
      "endTime": 48.47669999999972,
      "instrument": 7,
      "program": 0,
      "isDrum": true
    },
    {
      "pitch": 54,
      "velocity": 100,
      "startTime": 47.68199999999974,
      "endTime": 47.78133749999974,
      "instrument": 7,
      "program": 0,
      "isDrum": true
    },
    {
      "pitch": 55,
      "velocity": 100,
      "startTime": 47.68199999999974,
      "endTime": 48.47669999999972,
      "instrument": 7,
      "program": 0,
      "isDrum": true
    },
    {
      "pitch": 54,
      "velocity": 100,
      "startTime": 47.880674999999734,
      "endTime": 47.98001249999973,
      "instrument": 7,
      "program": 0,
      "isDrum": true
    },
    {
      "pitch": 40,
      "velocity": 100,
      "startTime": 48.07934999999973,
      "endTime": 48.178687499999725,
      "instrument": 7,
      "program": 0,
      "isDrum": true
    },
    {
      "pitch": 54,
      "velocity": 100,
      "startTime": 48.07934999999973,
      "endTime": 48.178687499999725,
      "instrument": 7,
      "program": 0,
      "isDrum": true
    },
    {
      "pitch": 38,
      "velocity": 100,
      "startTime": 48.087628124999725,
      "endTime": 48.18696562499972,
      "instrument": 7,
      "program": 0,
      "isDrum": true
    },
    {
      "pitch": 35,
      "velocity": 100,
      "startTime": 48.27802499999972,
      "endTime": 48.37736249999972,
      "instrument": 7,
      "program": 0,
      "isDrum": true
    },
    {
      "pitch": 54,
      "velocity": 100,
      "startTime": 48.27802499999972,
      "endTime": 48.37736249999972,
      "instrument": 7,
      "program": 0,
      "isDrum": true
    },
    {
      "pitch": 35,
      "velocity": 100,
      "startTime": 48.47669999999972,
      "endTime": 48.576037499999714,
      "instrument": 7,
      "program": 0,
      "isDrum": true
    },
    {
      "pitch": 54,
      "velocity": 100,
      "startTime": 48.47669999999972,
      "endTime": 48.576037499999714,
      "instrument": 7,
      "program": 0,
      "isDrum": true
    },
    {
      "pitch": 54,
      "velocity": 100,
      "startTime": 48.67537499999971,
      "endTime": 48.77471249999971,
      "instrument": 7,
      "program": 0,
      "isDrum": true
    },
    {
      "pitch": 40,
      "velocity": 100,
      "startTime": 48.874049999999706,
      "endTime": 48.9733874999997,
      "instrument": 7,
      "program": 0,
      "isDrum": true
    },
    {
      "pitch": 54,
      "velocity": 100,
      "startTime": 48.874049999999706,
      "endTime": 48.9733874999997,
      "instrument": 7,
      "program": 0,
      "isDrum": true
    },
    {
      "pitch": 38,
      "velocity": 100,
      "startTime": 48.8823281249997,
      "endTime": 48.9816656249997,
      "instrument": 7,
      "program": 0,
      "isDrum": true
    },
    {
      "pitch": 54,
      "velocity": 100,
      "startTime": 49.0727249999997,
      "endTime": 49.1720624999997,
      "instrument": 7,
      "program": 0,
      "isDrum": true
    },
    {
      "pitch": 35,
      "velocity": 100,
      "startTime": 49.271399999999694,
      "endTime": 49.37073749999969,
      "instrument": 7,
      "program": 0,
      "isDrum": true
    },
    {
      "pitch": 54,
      "velocity": 100,
      "startTime": 49.271399999999694,
      "endTime": 49.37073749999969,
      "instrument": 7,
      "program": 0,
      "isDrum": true
    },
    {
      "pitch": 54,
      "velocity": 100,
      "startTime": 49.47007499999969,
      "endTime": 49.569412499999686,
      "instrument": 7,
      "program": 0,
      "isDrum": true
    },
    {
      "pitch": 40,
      "velocity": 100,
      "startTime": 49.66874999999968,
      "endTime": 49.76808749999968,
      "instrument": 7,
      "program": 0,
      "isDrum": true
    },
    {
      "pitch": 54,
      "velocity": 100,
      "startTime": 49.66874999999968,
      "endTime": 49.76808749999968,
      "instrument": 7,
      "program": 0,
      "isDrum": true
    },
    {
      "pitch": 38,
      "velocity": 100,
      "startTime": 49.67702812499968,
      "endTime": 49.77636562499968,
      "instrument": 7,
      "program": 0,
      "isDrum": true
    },
    {
      "pitch": 35,
      "velocity": 100,
      "startTime": 49.86742499999968,
      "endTime": 49.966762499999675,
      "instrument": 7,
      "program": 0,
      "isDrum": true
    },
    {
      "pitch": 54,
      "velocity": 100,
      "startTime": 49.86742499999968,
      "endTime": 49.966762499999675,
      "instrument": 7,
      "program": 0,
      "isDrum": true
    },
    {
      "pitch": 35,
      "velocity": 100,
      "startTime": 50.06609999999967,
      "endTime": 50.16543749999967,
      "instrument": 7,
      "program": 0,
      "isDrum": true
    },
    {
      "pitch": 54,
      "velocity": 100,
      "startTime": 50.06609999999967,
      "endTime": 50.16543749999967,
      "instrument": 7,
      "program": 0,
      "isDrum": true
    },
    {
      "pitch": 54,
      "velocity": 100,
      "startTime": 50.264774999999666,
      "endTime": 50.36411249999966,
      "instrument": 7,
      "program": 0,
      "isDrum": true
    },
    {
      "pitch": 40,
      "velocity": 100,
      "startTime": 50.46344999999966,
      "endTime": 50.56278749999966,
      "instrument": 7,
      "program": 0,
      "isDrum": true
    },
    {
      "pitch": 54,
      "velocity": 100,
      "startTime": 50.46344999999966,
      "endTime": 50.56278749999966,
      "instrument": 7,
      "program": 0,
      "isDrum": true
    },
    {
      "pitch": 38,
      "velocity": 100,
      "startTime": 50.47172812499966,
      "endTime": 50.571065624999655,
      "instrument": 7,
      "program": 0,
      "isDrum": true
    },
    {
      "pitch": 54,
      "velocity": 100,
      "startTime": 50.662124999999655,
      "endTime": 50.76146249999965,
      "instrument": 7,
      "program": 0,
      "isDrum": true
    },
    {
      "pitch": 35,
      "velocity": 100,
      "startTime": 50.86079999999965,
      "endTime": 50.96013749999965,
      "instrument": 7,
      "program": 0,
      "isDrum": true
    },
    {
      "pitch": 54,
      "velocity": 100,
      "startTime": 50.86079999999965,
      "endTime": 50.96013749999965,
      "instrument": 7,
      "program": 0,
      "isDrum": true
    },
    {
      "pitch": 54,
      "velocity": 100,
      "startTime": 51.059474999999644,
      "endTime": 51.15881249999964,
      "instrument": 7,
      "program": 0,
      "isDrum": true
    },
    {
      "pitch": 40,
      "velocity": 100,
      "startTime": 51.25814999999964,
      "endTime": 51.357487499999635,
      "instrument": 7,
      "program": 0,
      "isDrum": true
    },
    {
      "pitch": 54,
      "velocity": 100,
      "startTime": 51.25814999999964,
      "endTime": 51.357487499999635,
      "instrument": 7,
      "program": 0,
      "isDrum": true
    },
    {
      "pitch": 38,
      "velocity": 100,
      "startTime": 51.266428124999635,
      "endTime": 51.36576562499963,
      "instrument": 7,
      "program": 0,
      "isDrum": true
    },
    {
      "pitch": 35,
      "velocity": 100,
      "startTime": 51.45682499999963,
      "endTime": 51.55616249999963,
      "instrument": 7,
      "program": 0,
      "isDrum": true
    },
    {
      "pitch": 54,
      "velocity": 100,
      "startTime": 51.45682499999963,
      "endTime": 51.55616249999963,
      "instrument": 7,
      "program": 0,
      "isDrum": true
    },
    {
      "pitch": 35,
      "velocity": 100,
      "startTime": 51.65549999999963,
      "endTime": 51.754837499999624,
      "instrument": 7,
      "program": 0,
      "isDrum": true
    },
    {
      "pitch": 54,
      "velocity": 100,
      "startTime": 51.65549999999963,
      "endTime": 51.754837499999624,
      "instrument": 7,
      "program": 0,
      "isDrum": true
    },
    {
      "pitch": 54,
      "velocity": 100,
      "startTime": 51.85417499999962,
      "endTime": 51.95351249999962,
      "instrument": 7,
      "program": 0,
      "isDrum": true
    },
    {
      "pitch": 40,
      "velocity": 100,
      "startTime": 52.052849999999616,
      "endTime": 52.15218749999961,
      "instrument": 7,
      "program": 0,
      "isDrum": true
    },
    {
      "pitch": 54,
      "velocity": 100,
      "startTime": 52.052849999999616,
      "endTime": 52.15218749999961,
      "instrument": 7,
      "program": 0,
      "isDrum": true
    },
    {
      "pitch": 38,
      "velocity": 100,
      "startTime": 52.06112812499961,
      "endTime": 52.16046562499961,
      "instrument": 7,
      "program": 0,
      "isDrum": true
    },
    {
      "pitch": 54,
      "velocity": 100,
      "startTime": 52.25152499999961,
      "endTime": 52.35086249999961,
      "instrument": 7,
      "program": 0,
      "isDrum": true
    },
    {
      "pitch": 35,
      "velocity": 100,
      "startTime": 52.450199999999604,
      "endTime": 52.5495374999996,
      "instrument": 7,
      "program": 0,
      "isDrum": true
    },
    {
      "pitch": 54,
      "velocity": 100,
      "startTime": 52.450199999999604,
      "endTime": 52.5495374999996,
      "instrument": 7,
      "program": 0,
      "isDrum": true
    },
    {
      "pitch": 54,
      "velocity": 100,
      "startTime": 52.6488749999996,
      "endTime": 52.748212499999596,
      "instrument": 7,
      "program": 0,
      "isDrum": true
    },
    {
      "pitch": 40,
      "velocity": 100,
      "startTime": 52.84754999999959,
      "endTime": 52.94688749999959,
      "instrument": 7,
      "program": 0,
      "isDrum": true
    },
    {
      "pitch": 54,
      "velocity": 100,
      "startTime": 52.84754999999959,
      "endTime": 52.94688749999959,
      "instrument": 7,
      "program": 0,
      "isDrum": true
    },
    {
      "pitch": 38,
      "velocity": 100,
      "startTime": 52.85582812499959,
      "endTime": 52.95516562499959,
      "instrument": 7,
      "program": 0,
      "isDrum": true
    },
    {
      "pitch": 35,
      "velocity": 100,
      "startTime": 53.04622499999959,
      "endTime": 53.145562499999585,
      "instrument": 7,
      "program": 0,
      "isDrum": true
    },
    {
      "pitch": 54,
      "velocity": 100,
      "startTime": 53.04622499999959,
      "endTime": 53.145562499999585,
      "instrument": 7,
      "program": 0,
      "isDrum": true
    },
    {
      "pitch": 35,
      "velocity": 100,
      "startTime": 53.24489999999958,
      "endTime": 53.34423749999958,
      "instrument": 7,
      "program": 0,
      "isDrum": true
    },
    {
      "pitch": 54,
      "velocity": 100,
      "startTime": 53.24489999999958,
      "endTime": 53.34423749999958,
      "instrument": 7,
      "program": 0,
      "isDrum": true
    },
    {
      "pitch": 54,
      "velocity": 100,
      "startTime": 53.443574999999576,
      "endTime": 53.542912499999574,
      "instrument": 7,
      "program": 0,
      "isDrum": true
    },
    {
      "pitch": 40,
      "velocity": 100,
      "startTime": 53.64224999999957,
      "endTime": 53.74158749999957,
      "instrument": 7,
      "program": 0,
      "isDrum": true
    },
    {
      "pitch": 54,
      "velocity": 100,
      "startTime": 53.64224999999957,
      "endTime": 53.74158749999957,
      "instrument": 7,
      "program": 0,
      "isDrum": true
    },
    {
      "pitch": 38,
      "velocity": 100,
      "startTime": 53.65052812499957,
      "endTime": 53.749865624999565,
      "instrument": 7,
      "program": 0,
      "isDrum": true
    },
    {
      "pitch": 54,
      "velocity": 100,
      "startTime": 53.840924999999565,
      "endTime": 53.94026249999956,
      "instrument": 7,
      "program": 0,
      "isDrum": true
    },
    {
      "pitch": 35,
      "velocity": 100,
      "startTime": 54.03959999999956,
      "endTime": 54.13893749999956,
      "instrument": 7,
      "program": 0,
      "isDrum": true
    },
    {
      "pitch": 54,
      "velocity": 100,
      "startTime": 54.03959999999956,
      "endTime": 54.13893749999956,
      "instrument": 7,
      "program": 0,
      "isDrum": true
    },
    {
      "pitch": 54,
      "velocity": 100,
      "startTime": 54.238274999999554,
      "endTime": 54.33761249999955,
      "instrument": 7,
      "program": 0,
      "isDrum": true
    },
    {
      "pitch": 40,
      "velocity": 100,
      "startTime": 54.43694999999955,
      "endTime": 54.536287499999546,
      "instrument": 7,
      "program": 0,
      "isDrum": true
    },
    {
      "pitch": 54,
      "velocity": 100,
      "startTime": 54.43694999999955,
      "endTime": 54.536287499999546,
      "instrument": 7,
      "program": 0,
      "isDrum": true
    },
    {
      "pitch": 38,
      "velocity": 100,
      "startTime": 54.445228124999545,
      "endTime": 54.54456562499954,
      "instrument": 7,
      "program": 0,
      "isDrum": true
    },
    {
      "pitch": 35,
      "velocity": 100,
      "startTime": 54.63562499999954,
      "endTime": 54.73496249999954,
      "instrument": 7,
      "program": 0,
      "isDrum": true
    },
    {
      "pitch": 54,
      "velocity": 100,
      "startTime": 54.63562499999954,
      "endTime": 54.73496249999954,
      "instrument": 7,
      "program": 0,
      "isDrum": true
    },
    {
      "pitch": 35,
      "velocity": 100,
      "startTime": 54.83429999999954,
      "endTime": 54.933637499999534,
      "instrument": 7,
      "program": 0,
      "isDrum": true
    },
    {
      "pitch": 54,
      "velocity": 100,
      "startTime": 54.83429999999954,
      "endTime": 54.933637499999534,
      "instrument": 7,
      "program": 0,
      "isDrum": true
    },
    {
      "pitch": 54,
      "velocity": 100,
      "startTime": 55.03297499999953,
      "endTime": 55.13231249999953,
      "instrument": 7,
      "program": 0,
      "isDrum": true
    },
    {
      "pitch": 40,
      "velocity": 100,
      "startTime": 55.231649999999526,
      "endTime": 55.33098749999952,
      "instrument": 7,
      "program": 0,
      "isDrum": true
    },
    {
      "pitch": 54,
      "velocity": 100,
      "startTime": 55.231649999999526,
      "endTime": 55.33098749999952,
      "instrument": 7,
      "program": 0,
      "isDrum": true
    },
    {
      "pitch": 38,
      "velocity": 100,
      "startTime": 55.23992812499952,
      "endTime": 55.33926562499952,
      "instrument": 7,
      "program": 0,
      "isDrum": true
    },
    {
      "pitch": 54,
      "velocity": 100,
      "startTime": 55.43032499999952,
      "endTime": 55.52966249999952,
      "instrument": 7,
      "program": 0,
      "isDrum": true
    },
    {
      "pitch": 35,
      "velocity": 100,
      "startTime": 55.628999999999515,
      "endTime": 55.72833749999951,
      "instrument": 7,
      "program": 0,
      "isDrum": true
    },
    {
      "pitch": 54,
      "velocity": 100,
      "startTime": 55.628999999999515,
      "endTime": 55.72833749999951,
      "instrument": 7,
      "program": 0,
      "isDrum": true
    },
    {
      "pitch": 54,
      "velocity": 100,
      "startTime": 55.82767499999951,
      "endTime": 55.927012499999506,
      "instrument": 7,
      "program": 0,
      "isDrum": true
    },
    {
      "pitch": 40,
      "velocity": 100,
      "startTime": 56.0263499999995,
      "endTime": 56.1256874999995,
      "instrument": 7,
      "program": 0,
      "isDrum": true
    },
    {
      "pitch": 54,
      "velocity": 100,
      "startTime": 56.0263499999995,
      "endTime": 56.1256874999995,
      "instrument": 7,
      "program": 0,
      "isDrum": true
    },
    {
      "pitch": 38,
      "velocity": 100,
      "startTime": 56.0346281249995,
      "endTime": 56.1339656249995,
      "instrument": 7,
      "program": 0,
      "isDrum": true
    },
    {
      "pitch": 35,
      "velocity": 100,
      "startTime": 56.2250249999995,
      "endTime": 56.324362499999495,
      "instrument": 7,
      "program": 0,
      "isDrum": true
    },
    {
      "pitch": 54,
      "velocity": 100,
      "startTime": 56.2250249999995,
      "endTime": 56.324362499999495,
      "instrument": 7,
      "program": 0,
      "isDrum": true
    },
    {
      "pitch": 35,
      "velocity": 100,
      "startTime": 56.42369999999949,
      "endTime": 56.52303749999949,
      "instrument": 7,
      "program": 0,
      "isDrum": true
    },
    {
      "pitch": 54,
      "velocity": 100,
      "startTime": 56.42369999999949,
      "endTime": 56.52303749999949,
      "instrument": 7,
      "program": 0,
      "isDrum": true
    },
    {
      "pitch": 45,
      "velocity": 100,
      "startTime": 56.62237499999949,
      "endTime": 56.721712499999484,
      "instrument": 7,
      "program": 0,
      "isDrum": true
    },
    {
      "pitch": 54,
      "velocity": 100,
      "startTime": 56.62237499999949,
      "endTime": 56.721712499999484,
      "instrument": 7,
      "program": 0,
      "isDrum": true
    },
    {
      "pitch": 40,
      "velocity": 100,
      "startTime": 56.82104999999948,
      "endTime": 56.92038749999948,
      "instrument": 7,
      "program": 0,
      "isDrum": true
    },
    {
      "pitch": 47,
      "velocity": 100,
      "startTime": 56.82104999999948,
      "endTime": 56.92038749999948,
      "instrument": 7,
      "program": 0,
      "isDrum": true
    },
    {
      "pitch": 54,
      "velocity": 100,
      "startTime": 56.82104999999948,
      "endTime": 56.92038749999948,
      "instrument": 7,
      "program": 0,
      "isDrum": true
    },
    {
      "pitch": 38,
      "velocity": 100,
      "startTime": 56.82932812499948,
      "endTime": 56.928665624999475,
      "instrument": 7,
      "program": 0,
      "isDrum": true
    },
    {
      "pitch": 54,
      "velocity": 100,
      "startTime": 57.019724999999475,
      "endTime": 57.11906249999947,
      "instrument": 7,
      "program": 0,
      "isDrum": true
    },
    {
      "pitch": 35,
      "velocity": 100,
      "startTime": 57.21839999999947,
      "endTime": 57.31773749999947,
      "instrument": 7,
      "program": 0,
      "isDrum": true
    },
    {
      "pitch": 46,
      "velocity": 100,
      "startTime": 57.21839999999947,
      "endTime": 58.01309999999945,
      "instrument": 7,
      "program": 0,
      "isDrum": true
    },
    {
      "pitch": 49,
      "velocity": 100,
      "startTime": 57.21839999999947,
      "endTime": 57.61574999999946,
      "instrument": 7,
      "program": 0,
      "isDrum": true
    },
    {
      "pitch": 52,
      "velocity": 100,
      "startTime": 57.21839999999947,
      "endTime": 58.01309999999945,
      "instrument": 7,
      "program": 0,
      "isDrum": true
    },
    {
      "pitch": 54,
      "velocity": 100,
      "startTime": 57.21839999999947,
      "endTime": 57.31773749999947,
      "instrument": 7,
      "program": 0,
      "isDrum": true
    },
    {
      "pitch": 54,
      "velocity": 100,
      "startTime": 57.21839999999947,
      "endTime": 57.31773749999947,
      "instrument": 7,
      "program": 0,
      "isDrum": true
    },
    {
      "pitch": 55,
      "velocity": 100,
      "startTime": 57.21839999999947,
      "endTime": 58.01309999999945,
      "instrument": 7,
      "program": 0,
      "isDrum": true
    },
    {
      "pitch": 54,
      "velocity": 100,
      "startTime": 57.417074999999464,
      "endTime": 57.51641249999946,
      "instrument": 7,
      "program": 0,
      "isDrum": true
    },
    {
      "pitch": 54,
      "velocity": 100,
      "startTime": 57.417074999999464,
      "endTime": 57.51641249999946,
      "instrument": 7,
      "program": 0,
      "isDrum": true
    },
    {
      "pitch": 40,
      "velocity": 100,
      "startTime": 57.61574999999946,
      "endTime": 57.715087499999456,
      "instrument": 7,
      "program": 0,
      "isDrum": true
    },
    {
      "pitch": 54,
      "velocity": 100,
      "startTime": 57.61574999999946,
      "endTime": 57.715087499999456,
      "instrument": 7,
      "program": 0,
      "isDrum": true
    },
    {
      "pitch": 54,
      "velocity": 100,
      "startTime": 57.61574999999946,
      "endTime": 57.715087499999456,
      "instrument": 7,
      "program": 0,
      "isDrum": true
    },
    {
      "pitch": 38,
      "velocity": 100,
      "startTime": 57.624028124999455,
      "endTime": 57.72336562499945,
      "instrument": 7,
      "program": 0,
      "isDrum": true
    },
    {
      "pitch": 35,
      "velocity": 100,
      "startTime": 57.81442499999945,
      "endTime": 57.91376249999945,
      "instrument": 7,
      "program": 0,
      "isDrum": true
    },
    {
      "pitch": 54,
      "velocity": 100,
      "startTime": 57.81442499999945,
      "endTime": 57.91376249999945,
      "instrument": 7,
      "program": 0,
      "isDrum": true
    },
    {
      "pitch": 54,
      "velocity": 100,
      "startTime": 57.81442499999945,
      "endTime": 57.91376249999945,
      "instrument": 7,
      "program": 0,
      "isDrum": true
    },
    {
      "pitch": 35,
      "velocity": 100,
      "startTime": 58.01309999999945,
      "endTime": 58.112437499999444,
      "instrument": 7,
      "program": 0,
      "isDrum": true
    },
    {
      "pitch": 54,
      "velocity": 100,
      "startTime": 58.01309999999945,
      "endTime": 58.112437499999444,
      "instrument": 7,
      "program": 0,
      "isDrum": true
    },
    {
      "pitch": 54,
      "velocity": 100,
      "startTime": 58.01309999999945,
      "endTime": 58.112437499999444,
      "instrument": 7,
      "program": 0,
      "isDrum": true
    },
    {
      "pitch": 54,
      "velocity": 100,
      "startTime": 58.21177499999944,
      "endTime": 58.31111249999944,
      "instrument": 7,
      "program": 0,
      "isDrum": true
    },
    {
      "pitch": 40,
      "velocity": 100,
      "startTime": 58.410449999999436,
      "endTime": 58.50978749999943,
      "instrument": 7,
      "program": 0,
      "isDrum": true
    },
    {
      "pitch": 54,
      "velocity": 100,
      "startTime": 58.410449999999436,
      "endTime": 58.50978749999943,
      "instrument": 7,
      "program": 0,
      "isDrum": true
    },
    {
      "pitch": 38,
      "velocity": 100,
      "startTime": 58.41872812499943,
      "endTime": 58.51806562499943,
      "instrument": 7,
      "program": 0,
      "isDrum": true
    },
    {
      "pitch": 54,
      "velocity": 100,
      "startTime": 58.60912499999943,
      "endTime": 58.70846249999943,
      "instrument": 7,
      "program": 0,
      "isDrum": true
    },
    {
      "pitch": 35,
      "velocity": 100,
      "startTime": 58.807799999999425,
      "endTime": 58.90713749999942,
      "instrument": 7,
      "program": 0,
      "isDrum": true
    },
    {
      "pitch": 54,
      "velocity": 100,
      "startTime": 58.807799999999425,
      "endTime": 58.90713749999942,
      "instrument": 7,
      "program": 0,
      "isDrum": true
    },
    {
      "pitch": 54,
      "velocity": 100,
      "startTime": 59.00647499999942,
      "endTime": 59.105812499999416,
      "instrument": 7,
      "program": 0,
      "isDrum": true
    },
    {
      "pitch": 40,
      "velocity": 100,
      "startTime": 59.20514999999941,
      "endTime": 59.30448749999941,
      "instrument": 7,
      "program": 0,
      "isDrum": true
    },
    {
      "pitch": 54,
      "velocity": 100,
      "startTime": 59.20514999999941,
      "endTime": 59.30448749999941,
      "instrument": 7,
      "program": 0,
      "isDrum": true
    },
    {
      "pitch": 38,
      "velocity": 100,
      "startTime": 59.21342812499941,
      "endTime": 59.31276562499941,
      "instrument": 7,
      "program": 0,
      "isDrum": true
    },
    {
      "pitch": 35,
      "velocity": 100,
      "startTime": 59.40382499999941,
      "endTime": 59.503162499999405,
      "instrument": 7,
      "program": 0,
      "isDrum": true
    },
    {
      "pitch": 54,
      "velocity": 100,
      "startTime": 59.40382499999941,
      "endTime": 59.503162499999405,
      "instrument": 7,
      "program": 0,
      "isDrum": true
    },
    {
      "pitch": 35,
      "velocity": 100,
      "startTime": 59.6024999999994,
      "endTime": 59.7018374999994,
      "instrument": 7,
      "program": 0,
      "isDrum": true
    },
    {
      "pitch": 54,
      "velocity": 100,
      "startTime": 59.6024999999994,
      "endTime": 59.7018374999994,
      "instrument": 7,
      "program": 0,
      "isDrum": true
    },
    {
      "pitch": 54,
      "velocity": 100,
      "startTime": 59.8011749999994,
      "endTime": 59.900512499999394,
      "instrument": 7,
      "program": 0,
      "isDrum": true
    },
    {
      "pitch": 54,
      "velocity": 100,
      "startTime": 59.8011749999994,
      "endTime": 59.900512499999394,
      "instrument": 7,
      "program": 0,
      "isDrum": true
    }
  ],
  "totalTime": 60,
  "sourceInfo": {
    "encodingType": "MIDI",
    "parser": "TONEJS_MIDI_CONVERT"
  }
}
