gutFeeling = {
  "ticksPerQuarter": 192,
  "timeSignatures": [
    {
      "time": 0,
      "numerator": 4,
      "denominator": 4
    }
  ],
  "tempos": [
    {
      "time": 0,
      "qpm": 148.000148000148
    }
  ],
  "notes": [
    {
      "pitch": 40,
      "velocity": 100,
      "startTime": 8.1081,
      "endTime": 9.72972,
      "instrument": 0,
      "program": 34,
      "isDrum": false
    },
    {
      "pitch": 43,
      "velocity": 100,
      "startTime": 9.72972,
      "endTime": 11.35134,
      "instrument": 0,
      "program": 34,
      "isDrum": false
    },
    {
      "pitch": 48,
      "velocity": 100,
      "startTime": 11.35134,
      "endTime": 12.97296,
      "instrument": 0,
      "program": 34,
      "isDrum": false
    },
    {
      "pitch": 45,
      "velocity": 100,
      "startTime": 12.97296,
      "endTime": 14.59458,
      "instrument": 0,
      "program": 34,
      "isDrum": false
    },
    {
      "pitch": 50,
      "velocity": 100,
      "startTime": 14.59458,
      "endTime": 16.2162,
      "instrument": 0,
      "program": 34,
      "isDrum": false
    },
    {
      "pitch": 52,
      "velocity": 100,
      "startTime": 16.2162,
      "endTime": 17.83782,
      "instrument": 0,
      "program": 34,
      "isDrum": false
    },
    {
      "pitch": 43,
      "velocity": 100,
      "startTime": 17.83782,
      "endTime": 19.45944,
      "instrument": 0,
      "program": 34,
      "isDrum": false
    },
    {
      "pitch": 48,
      "velocity": 100,
      "startTime": 19.45944,
      "endTime": 21.08106,
      "instrument": 0,
      "program": 34,
      "isDrum": false
    },
    {
      "pitch": 45,
      "velocity": 100,
      "startTime": 21.08106,
      "endTime": 22.70268,
      "instrument": 0,
      "program": 34,
      "isDrum": false
    },
    {
      "pitch": 50,
      "velocity": 100,
      "startTime": 22.70268,
      "endTime": 24.3243,
      "instrument": 0,
      "program": 34,
      "isDrum": false
    },
    {
      "pitch": 52,
      "velocity": 100,
      "startTime": 24.3243,
      "endTime": 25.94592,
      "instrument": 0,
      "program": 34,
      "isDrum": false
    },
    {
      "pitch": 43,
      "velocity": 100,
      "startTime": 25.94592,
      "endTime": 27.56754,
      "instrument": 0,
      "program": 34,
      "isDrum": false
    },
    {
      "pitch": 48,
      "velocity": 100,
      "startTime": 27.56754,
      "endTime": 29.18916,
      "instrument": 0,
      "program": 34,
      "isDrum": false
    },
    {
      "pitch": 45,
      "velocity": 100,
      "startTime": 29.18916,
      "endTime": 30.81078,
      "instrument": 0,
      "program": 34,
      "isDrum": false
    },
    {
      "pitch": 50,
      "velocity": 100,
      "startTime": 30.81078,
      "endTime": 32.4324,
      "instrument": 0,
      "program": 34,
      "isDrum": false
    },
    {
      "pitch": 40,
      "velocity": 100,
      "startTime": 32.4324,
      "endTime": 34.05402,
      "instrument": 0,
      "program": 34,
      "isDrum": false
    },
    {
      "pitch": 43,
      "velocity": 100,
      "startTime": 34.05402,
      "endTime": 35.67564,
      "instrument": 0,
      "program": 34,
      "isDrum": false
    },
    {
      "pitch": 48,
      "velocity": 100,
      "startTime": 35.67564,
      "endTime": 37.29726,
      "instrument": 0,
      "program": 34,
      "isDrum": false
    },
    {
      "pitch": 45,
      "velocity": 100,
      "startTime": 37.29726,
      "endTime": 38.91888,
      "instrument": 0,
      "program": 34,
      "isDrum": false
    },
    {
      "pitch": 50,
      "velocity": 100,
      "startTime": 38.91888,
      "endTime": 40.5405,
      "instrument": 0,
      "program": 34,
      "isDrum": false
    },
    {
      "pitch": 40,
      "velocity": 100,
      "startTime": 40.5405,
      "endTime": 42.16212,
      "instrument": 0,
      "program": 34,
      "isDrum": false
    },
    {
      "pitch": 43,
      "velocity": 100,
      "startTime": 42.16212,
      "endTime": 43.78374,
      "instrument": 0,
      "program": 34,
      "isDrum": false
    },
    {
      "pitch": 48,
      "velocity": 100,
      "startTime": 43.78374,
      "endTime": 45.40536,
      "instrument": 0,
      "program": 34,
      "isDrum": false
    },
    {
      "pitch": 45,
      "velocity": 100,
      "startTime": 45.40536,
      "endTime": 47.02698,
      "instrument": 0,
      "program": 34,
      "isDrum": false
    },
    {
      "pitch": 50,
      "velocity": 100,
      "startTime": 47.02698,
      "endTime": 48.6486,
      "instrument": 0,
      "program": 34,
      "isDrum": false
    },
    {
      "pitch": 40,
      "velocity": 100,
      "startTime": 48.6486,
      "endTime": 50.27022,
      "instrument": 0,
      "program": 34,
      "isDrum": false
    },
    {
      "pitch": 43,
      "velocity": 100,
      "startTime": 50.27022,
      "endTime": 51.89184,
      "instrument": 0,
      "program": 34,
      "isDrum": false
    },
    {
      "pitch": 48,
      "velocity": 100,
      "startTime": 51.89184,
      "endTime": 53.51346,
      "instrument": 0,
      "program": 34,
      "isDrum": false
    },
    {
      "pitch": 45,
      "velocity": 100,
      "startTime": 53.51346,
      "endTime": 55.13508,
      "instrument": 0,
      "program": 34,
      "isDrum": false
    },
    {
      "pitch": 50,
      "velocity": 100,
      "startTime": 55.13508,
      "endTime": 56.7567,
      "instrument": 0,
      "program": 34,
      "isDrum": false
    },
    {
      "pitch": 40,
      "velocity": 100,
      "startTime": 56.7567,
      "endTime": 58.37832,
      "instrument": 0,
      "program": 34,
      "isDrum": false
    },
    {
      "pitch": 43,
      "velocity": 100,
      "startTime": 58.37832,
      "endTime": 59.99994,
      "instrument": 0,
      "program": 34,
      "isDrum": false
    },
    {
      "pitch": 40,
      "velocity": 100,
      "startTime": 0,
      "endTime": 1.62162,
      "instrument": 1,
      "program": 34,
      "isDrum": false
    },
    {
      "pitch": 52,
      "velocity": 100,
      "startTime": 0.405405,
      "endTime": 1.11486375,
      "instrument": 1,
      "program": 34,
      "isDrum": false
    },
    {
      "pitch": 59,
      "velocity": 100,
      "startTime": 0.6081075,
      "endTime": 1.2246609375,
      "instrument": 1,
      "program": 34,
      "isDrum": false
    },
    {
      "pitch": 64,
      "velocity": 100,
      "startTime": 1.0135125,
      "endTime": 1.6300659375,
      "instrument": 1,
      "program": 34,
      "isDrum": false
    },
    {
      "pitch": 43,
      "velocity": 100,
      "startTime": 1.62162,
      "endTime": 3.24324,
      "instrument": 1,
      "program": 34,
      "isDrum": false
    },
    {
      "pitch": 55,
      "velocity": 100,
      "startTime": 2.027025,
      "endTime": 2.6351325,
      "instrument": 1,
      "program": 34,
      "isDrum": false
    },
    {
      "pitch": 59,
      "velocity": 100,
      "startTime": 2.2297275,
      "endTime": 2.8462809375,
      "instrument": 1,
      "program": 34,
      "isDrum": false
    },
    {
      "pitch": 67,
      "velocity": 100,
      "startTime": 2.6351325,
      "endTime": 3.2516859375,
      "instrument": 1,
      "program": 34,
      "isDrum": false
    },
    {
      "pitch": 48,
      "velocity": 100,
      "startTime": 3.24324,
      "endTime": 4.86486,
      "instrument": 1,
      "program": 34,
      "isDrum": false
    },
    {
      "pitch": 60,
      "velocity": 100,
      "startTime": 3.648645,
      "endTime": 4.05405,
      "instrument": 1,
      "program": 34,
      "isDrum": false
    },
    {
      "pitch": 64,
      "velocity": 100,
      "startTime": 3.8513475,
      "endTime": 4.4679009375000005,
      "instrument": 1,
      "program": 34,
      "isDrum": false
    },
    {
      "pitch": 60,
      "velocity": 100,
      "startTime": 4.2567525,
      "endTime": 4.8733059375000005,
      "instrument": 1,
      "program": 34,
      "isDrum": false
    },
    {
      "pitch": 45,
      "velocity": 100,
      "startTime": 4.86486,
      "endTime": 6.486479999999999,
      "instrument": 1,
      "program": 34,
      "isDrum": false
    },
    {
      "pitch": 57,
      "velocity": 100,
      "startTime": 5.270265,
      "endTime": 5.97972375,
      "instrument": 1,
      "program": 34,
      "isDrum": false
    },
    {
      "pitch": 61,
      "velocity": 100,
      "startTime": 5.4729675,
      "endTime": 6.0895209375,
      "instrument": 1,
      "program": 34,
      "isDrum": false
    },
    {
      "pitch": 64,
      "velocity": 100,
      "startTime": 5.8783725,
      "endTime": 6.4949259375,
      "instrument": 1,
      "program": 34,
      "isDrum": false
    },
    {
      "pitch": 50,
      "velocity": 100,
      "startTime": 6.486479999999999,
      "endTime": 8.1081,
      "instrument": 1,
      "program": 34,
      "isDrum": false
    },
    {
      "pitch": 62,
      "velocity": 100,
      "startTime": 6.891884999999999,
      "endTime": 7.297289999999999,
      "instrument": 1,
      "program": 34,
      "isDrum": false
    },
    {
      "pitch": 66,
      "velocity": 100,
      "startTime": 7.094587499999999,
      "endTime": 7.702694999999999,
      "instrument": 1,
      "program": 34,
      "isDrum": false
    },
    {
      "pitch": 62,
      "velocity": 100,
      "startTime": 7.499992499999999,
      "endTime": 8.1081,
      "instrument": 1,
      "program": 34,
      "isDrum": false
    },
    {
      "pitch": 40,
      "velocity": 100,
      "startTime": 8.1081,
      "endTime": 9.72972,
      "instrument": 1,
      "program": 34,
      "isDrum": false
    },
    {
      "pitch": 52,
      "velocity": 100,
      "startTime": 8.513505,
      "endTime": 9.1216125,
      "instrument": 1,
      "program": 34,
      "isDrum": false
    },
    {
      "pitch": 59,
      "velocity": 100,
      "startTime": 8.7162075,
      "endTime": 9.3327609375,
      "instrument": 1,
      "program": 34,
      "isDrum": false
    },
    {
      "pitch": 64,
      "velocity": 100,
      "startTime": 9.1216125,
      "endTime": 9.7381659375,
      "instrument": 1,
      "program": 34,
      "isDrum": false
    },
    {
      "pitch": 43,
      "velocity": 100,
      "startTime": 9.72972,
      "endTime": 11.35134,
      "instrument": 1,
      "program": 34,
      "isDrum": false
    },
    {
      "pitch": 55,
      "velocity": 100,
      "startTime": 10.135125,
      "endTime": 10.7432325,
      "instrument": 1,
      "program": 34,
      "isDrum": false
    },
    {
      "pitch": 59,
      "velocity": 100,
      "startTime": 10.3378275,
      "endTime": 10.9543809375,
      "instrument": 1,
      "program": 34,
      "isDrum": false
    },
    {
      "pitch": 67,
      "velocity": 100,
      "startTime": 10.7432325,
      "endTime": 11.3597859375,
      "instrument": 1,
      "program": 34,
      "isDrum": false
    },
    {
      "pitch": 48,
      "velocity": 100,
      "startTime": 11.35134,
      "endTime": 12.972960000000002,
      "instrument": 1,
      "program": 34,
      "isDrum": false
    },
    {
      "pitch": 60,
      "velocity": 100,
      "startTime": 11.756745,
      "endTime": 12.16215,
      "instrument": 1,
      "program": 34,
      "isDrum": false
    },
    {
      "pitch": 64,
      "velocity": 100,
      "startTime": 11.9594475,
      "endTime": 12.576000937500002,
      "instrument": 1,
      "program": 34,
      "isDrum": false
    },
    {
      "pitch": 60,
      "velocity": 100,
      "startTime": 12.364852500000001,
      "endTime": 12.981405937500002,
      "instrument": 1,
      "program": 34,
      "isDrum": false
    },
    {
      "pitch": 45,
      "velocity": 100,
      "startTime": 12.972960000000002,
      "endTime": 14.594580000000004,
      "instrument": 1,
      "program": 34,
      "isDrum": false
    },
    {
      "pitch": 57,
      "velocity": 100,
      "startTime": 13.378365000000002,
      "endTime": 13.986472500000003,
      "instrument": 1,
      "program": 34,
      "isDrum": false
    },
    {
      "pitch": 61,
      "velocity": 100,
      "startTime": 13.581067500000003,
      "endTime": 14.197620937500004,
      "instrument": 1,
      "program": 34,
      "isDrum": false
    },
    {
      "pitch": 64,
      "velocity": 100,
      "startTime": 13.986472500000003,
      "endTime": 14.603025937500004,
      "instrument": 1,
      "program": 34,
      "isDrum": false
    },
    {
      "pitch": 50,
      "velocity": 100,
      "startTime": 14.594580000000004,
      "endTime": 16.2162,
      "instrument": 1,
      "program": 34,
      "isDrum": false
    },
    {
      "pitch": 62,
      "velocity": 100,
      "startTime": 14.999985000000004,
      "endTime": 15.506741250000003,
      "instrument": 1,
      "program": 34,
      "isDrum": false
    },
    {
      "pitch": 66,
      "velocity": 100,
      "startTime": 15.202687500000003,
      "endTime": 15.810795000000002,
      "instrument": 1,
      "program": 34,
      "isDrum": false
    },
    {
      "pitch": 62,
      "velocity": 100,
      "startTime": 15.608092500000003,
      "endTime": 16.2162,
      "instrument": 1,
      "program": 34,
      "isDrum": false
    },
    {
      "pitch": 40,
      "velocity": 100,
      "startTime": 16.2162,
      "endTime": 17.837820000000004,
      "instrument": 1,
      "program": 34,
      "isDrum": false
    },
    {
      "pitch": 52,
      "velocity": 100,
      "startTime": 16.621605000000002,
      "endTime": 17.229712500000005,
      "instrument": 1,
      "program": 34,
      "isDrum": false
    },
    {
      "pitch": 59,
      "velocity": 100,
      "startTime": 16.824307500000003,
      "endTime": 17.440860937500005,
      "instrument": 1,
      "program": 34,
      "isDrum": false
    },
    {
      "pitch": 64,
      "velocity": 100,
      "startTime": 17.229712500000005,
      "endTime": 17.846265937500004,
      "instrument": 1,
      "program": 34,
      "isDrum": false
    },
    {
      "pitch": 43,
      "velocity": 100,
      "startTime": 17.837820000000004,
      "endTime": 19.459440000000004,
      "instrument": 1,
      "program": 34,
      "isDrum": false
    },
    {
      "pitch": 55,
      "velocity": 100,
      "startTime": 18.243225000000002,
      "endTime": 18.851332500000005,
      "instrument": 1,
      "program": 34,
      "isDrum": false
    },
    {
      "pitch": 59,
      "velocity": 100,
      "startTime": 18.445927500000003,
      "endTime": 19.062480937500005,
      "instrument": 1,
      "program": 34,
      "isDrum": false
    },
    {
      "pitch": 67,
      "velocity": 100,
      "startTime": 18.851332500000005,
      "endTime": 19.467885937500004,
      "instrument": 1,
      "program": 34,
      "isDrum": false
    },
    {
      "pitch": 48,
      "velocity": 100,
      "startTime": 19.459440000000004,
      "endTime": 21.081060000000004,
      "instrument": 1,
      "program": 34,
      "isDrum": false
    },
    {
      "pitch": 60,
      "velocity": 100,
      "startTime": 19.864845000000003,
      "endTime": 20.270250000000004,
      "instrument": 1,
      "program": 34,
      "isDrum": false
    },
    {
      "pitch": 64,
      "velocity": 100,
      "startTime": 20.067547500000003,
      "endTime": 20.684100937500006,
      "instrument": 1,
      "program": 34,
      "isDrum": false
    },
    {
      "pitch": 60,
      "velocity": 100,
      "startTime": 20.472952500000005,
      "endTime": 21.089505937500004,
      "instrument": 1,
      "program": 34,
      "isDrum": false
    },
    {
      "pitch": 45,
      "velocity": 100,
      "startTime": 21.081060000000004,
      "endTime": 22.702680000000004,
      "instrument": 1,
      "program": 34,
      "isDrum": false
    },
    {
      "pitch": 57,
      "velocity": 100,
      "startTime": 21.486465000000003,
      "endTime": 22.094572500000005,
      "instrument": 1,
      "program": 34,
      "isDrum": false
    },
    {
      "pitch": 61,
      "velocity": 100,
      "startTime": 21.689167500000003,
      "endTime": 22.305720937500006,
      "instrument": 1,
      "program": 34,
      "isDrum": false
    },
    {
      "pitch": 64,
      "velocity": 100,
      "startTime": 22.094572500000005,
      "endTime": 22.711125937500004,
      "instrument": 1,
      "program": 34,
      "isDrum": false
    },
    {
      "pitch": 50,
      "velocity": 100,
      "startTime": 22.702680000000004,
      "endTime": 24.324300000000008,
      "instrument": 1,
      "program": 34,
      "isDrum": false
    },
    {
      "pitch": 62,
      "velocity": 100,
      "startTime": 23.108085000000003,
      "endTime": 23.614841250000005,
      "instrument": 1,
      "program": 34,
      "isDrum": false
    },
    {
      "pitch": 66,
      "velocity": 100,
      "startTime": 23.310787500000004,
      "endTime": 23.918895000000006,
      "instrument": 1,
      "program": 34,
      "isDrum": false
    },
    {
      "pitch": 62,
      "velocity": 100,
      "startTime": 23.716192500000005,
      "endTime": 24.324300000000008,
      "instrument": 1,
      "program": 34,
      "isDrum": false
    },
    {
      "pitch": 40,
      "velocity": 100,
      "startTime": 24.324300000000008,
      "endTime": 25.94592000000001,
      "instrument": 1,
      "program": 34,
      "isDrum": false
    },
    {
      "pitch": 52,
      "velocity": 100,
      "startTime": 24.72970500000001,
      "endTime": 25.337812500000013,
      "instrument": 1,
      "program": 34,
      "isDrum": false
    },
    {
      "pitch": 59,
      "velocity": 100,
      "startTime": 24.93240750000001,
      "endTime": 25.548960937500013,
      "instrument": 1,
      "program": 34,
      "isDrum": false
    },
    {
      "pitch": 64,
      "velocity": 100,
      "startTime": 25.337812500000013,
      "endTime": 25.95436593750001,
      "instrument": 1,
      "program": 34,
      "isDrum": false
    },
    {
      "pitch": 43,
      "velocity": 100,
      "startTime": 25.94592000000001,
      "endTime": 27.56754000000001,
      "instrument": 1,
      "program": 34,
      "isDrum": false
    },
    {
      "pitch": 55,
      "velocity": 100,
      "startTime": 26.35132500000001,
      "endTime": 26.959432500000013,
      "instrument": 1,
      "program": 34,
      "isDrum": false
    },
    {
      "pitch": 59,
      "velocity": 100,
      "startTime": 26.55402750000001,
      "endTime": 27.170580937500013,
      "instrument": 1,
      "program": 34,
      "isDrum": false
    },
    {
      "pitch": 67,
      "velocity": 100,
      "startTime": 26.959432500000013,
      "endTime": 27.57598593750001,
      "instrument": 1,
      "program": 34,
      "isDrum": false
    },
    {
      "pitch": 48,
      "velocity": 100,
      "startTime": 27.56754000000001,
      "endTime": 29.18916000000001,
      "instrument": 1,
      "program": 34,
      "isDrum": false
    },
    {
      "pitch": 64,
      "velocity": 100,
      "startTime": 28.17564750000001,
      "endTime": 28.792200937500013,
      "instrument": 1,
      "program": 34,
      "isDrum": false
    },
    {
      "pitch": 60,
      "velocity": 100,
      "startTime": 28.581052500000013,
      "endTime": 29.19760593750001,
      "instrument": 1,
      "program": 34,
      "isDrum": false
    },
    {
      "pitch": 45,
      "velocity": 100,
      "startTime": 29.18916000000001,
      "endTime": 30.810780000000012,
      "instrument": 1,
      "program": 34,
      "isDrum": false
    },
    {
      "pitch": 57,
      "velocity": 100,
      "startTime": 29.59456500000001,
      "endTime": 30.202672500000013,
      "instrument": 1,
      "program": 34,
      "isDrum": false
    },
    {
      "pitch": 61,
      "velocity": 100,
      "startTime": 29.79726750000001,
      "endTime": 30.413820937500013,
      "instrument": 1,
      "program": 34,
      "isDrum": false
    },
    {
      "pitch": 64,
      "velocity": 100,
      "startTime": 30.202672500000013,
      "endTime": 30.81922593750001,
      "instrument": 1,
      "program": 34,
      "isDrum": false
    },
    {
      "pitch": 50,
      "velocity": 100,
      "startTime": 30.810780000000012,
      "endTime": 32.432400000000015,
      "instrument": 1,
      "program": 34,
      "isDrum": false
    },
    {
      "pitch": 62,
      "velocity": 100,
      "startTime": 31.21618500000001,
      "endTime": 31.722941250000012,
      "instrument": 1,
      "program": 34,
      "isDrum": false
    },
    {
      "pitch": 66,
      "velocity": 100,
      "startTime": 31.41888750000001,
      "endTime": 32.026995000000014,
      "instrument": 1,
      "program": 34,
      "isDrum": false
    },
    {
      "pitch": 62,
      "velocity": 100,
      "startTime": 31.824292500000013,
      "endTime": 32.432400000000015,
      "instrument": 1,
      "program": 34,
      "isDrum": false
    },
    {
      "pitch": 40,
      "velocity": 100,
      "startTime": 32.432400000000015,
      "endTime": 34.05402000000002,
      "instrument": 1,
      "program": 34,
      "isDrum": false
    },
    {
      "pitch": 52,
      "velocity": 100,
      "startTime": 32.83780500000002,
      "endTime": 33.44591250000002,
      "instrument": 1,
      "program": 34,
      "isDrum": false
    },
    {
      "pitch": 59,
      "velocity": 100,
      "startTime": 33.04050750000002,
      "endTime": 33.65706093750002,
      "instrument": 1,
      "program": 34,
      "isDrum": false
    },
    {
      "pitch": 64,
      "velocity": 100,
      "startTime": 33.44591250000002,
      "endTime": 34.06246593750002,
      "instrument": 1,
      "program": 34,
      "isDrum": false
    },
    {
      "pitch": 43,
      "velocity": 100,
      "startTime": 34.05402000000002,
      "endTime": 35.67564000000003,
      "instrument": 1,
      "program": 34,
      "isDrum": false
    },
    {
      "pitch": 55,
      "velocity": 100,
      "startTime": 34.459425000000024,
      "endTime": 35.06753250000003,
      "instrument": 1,
      "program": 34,
      "isDrum": false
    },
    {
      "pitch": 59,
      "velocity": 100,
      "startTime": 34.662127500000025,
      "endTime": 35.27868093750003,
      "instrument": 1,
      "program": 34,
      "isDrum": false
    },
    {
      "pitch": 67,
      "velocity": 100,
      "startTime": 35.06753250000003,
      "endTime": 35.68408593750003,
      "instrument": 1,
      "program": 34,
      "isDrum": false
    },
    {
      "pitch": 48,
      "velocity": 100,
      "startTime": 35.67564000000003,
      "endTime": 37.29726000000004,
      "instrument": 1,
      "program": 34,
      "isDrum": false
    },
    {
      "pitch": 64,
      "velocity": 100,
      "startTime": 36.28374750000003,
      "endTime": 36.900300937500035,
      "instrument": 1,
      "program": 34,
      "isDrum": false
    },
    {
      "pitch": 60,
      "velocity": 100,
      "startTime": 36.689152500000034,
      "endTime": 37.305705937500036,
      "instrument": 1,
      "program": 34,
      "isDrum": false
    },
    {
      "pitch": 45,
      "velocity": 100,
      "startTime": 37.29726000000004,
      "endTime": 38.918880000000044,
      "instrument": 1,
      "program": 34,
      "isDrum": false
    },
    {
      "pitch": 57,
      "velocity": 100,
      "startTime": 37.70266500000004,
      "endTime": 38.31077250000004,
      "instrument": 1,
      "program": 34,
      "isDrum": false
    },
    {
      "pitch": 61,
      "velocity": 100,
      "startTime": 37.90536750000004,
      "endTime": 38.52192093750004,
      "instrument": 1,
      "program": 34,
      "isDrum": false
    },
    {
      "pitch": 64,
      "velocity": 100,
      "startTime": 38.31077250000004,
      "endTime": 38.92732593750004,
      "instrument": 1,
      "program": 34,
      "isDrum": false
    },
    {
      "pitch": 50,
      "velocity": 100,
      "startTime": 38.918880000000044,
      "endTime": 40.54050000000005,
      "instrument": 1,
      "program": 34,
      "isDrum": false
    },
    {
      "pitch": 62,
      "velocity": 100,
      "startTime": 39.324285000000046,
      "endTime": 39.83104125000005,
      "instrument": 1,
      "program": 34,
      "isDrum": false
    },
    {
      "pitch": 66,
      "velocity": 100,
      "startTime": 39.52698750000005,
      "endTime": 40.13509500000005,
      "instrument": 1,
      "program": 34,
      "isDrum": false
    },
    {
      "pitch": 62,
      "velocity": 100,
      "startTime": 39.93239250000005,
      "endTime": 40.54050000000005,
      "instrument": 1,
      "program": 34,
      "isDrum": false
    },
    {
      "pitch": 40,
      "velocity": 100,
      "startTime": 40.54050000000005,
      "endTime": 42.16212000000006,
      "instrument": 1,
      "program": 34,
      "isDrum": false
    },
    {
      "pitch": 52,
      "velocity": 100,
      "startTime": 40.94590500000005,
      "endTime": 41.554012500000056,
      "instrument": 1,
      "program": 34,
      "isDrum": false
    },
    {
      "pitch": 59,
      "velocity": 100,
      "startTime": 41.148607500000054,
      "endTime": 41.765160937500056,
      "instrument": 1,
      "program": 34,
      "isDrum": false
    },
    {
      "pitch": 64,
      "velocity": 100,
      "startTime": 41.554012500000056,
      "endTime": 42.17056593750006,
      "instrument": 1,
      "program": 34,
      "isDrum": false
    },
    {
      "pitch": 43,
      "velocity": 100,
      "startTime": 42.16212000000006,
      "endTime": 43.783740000000066,
      "instrument": 1,
      "program": 34,
      "isDrum": false
    },
    {
      "pitch": 55,
      "velocity": 100,
      "startTime": 42.56752500000006,
      "endTime": 43.17563250000006,
      "instrument": 1,
      "program": 34,
      "isDrum": false
    },
    {
      "pitch": 59,
      "velocity": 100,
      "startTime": 42.77022750000006,
      "endTime": 43.38678093750006,
      "instrument": 1,
      "program": 34,
      "isDrum": false
    },
    {
      "pitch": 67,
      "velocity": 100,
      "startTime": 43.17563250000006,
      "endTime": 43.792185937500065,
      "instrument": 1,
      "program": 34,
      "isDrum": false
    },
    {
      "pitch": 48,
      "velocity": 100,
      "startTime": 43.783740000000066,
      "endTime": 45.40536000000007,
      "instrument": 1,
      "program": 34,
      "isDrum": false
    },
    {
      "pitch": 64,
      "velocity": 100,
      "startTime": 44.39184750000007,
      "endTime": 45.00840093750007,
      "instrument": 1,
      "program": 34,
      "isDrum": false
    },
    {
      "pitch": 60,
      "velocity": 100,
      "startTime": 44.79725250000007,
      "endTime": 45.41380593750007,
      "instrument": 1,
      "program": 34,
      "isDrum": false
    },
    {
      "pitch": 45,
      "velocity": 100,
      "startTime": 45.40536000000007,
      "endTime": 47.02698000000008,
      "instrument": 1,
      "program": 34,
      "isDrum": false
    },
    {
      "pitch": 57,
      "velocity": 100,
      "startTime": 45.810765000000075,
      "endTime": 46.41887250000008,
      "instrument": 1,
      "program": 34,
      "isDrum": false
    },
    {
      "pitch": 61,
      "velocity": 100,
      "startTime": 46.013467500000075,
      "endTime": 46.63002093750008,
      "instrument": 1,
      "program": 34,
      "isDrum": false
    },
    {
      "pitch": 64,
      "velocity": 100,
      "startTime": 46.41887250000008,
      "endTime": 47.03542593750008,
      "instrument": 1,
      "program": 34,
      "isDrum": false
    },
    {
      "pitch": 50,
      "velocity": 100,
      "startTime": 47.02698000000008,
      "endTime": 48.64860000000009,
      "instrument": 1,
      "program": 34,
      "isDrum": false
    },
    {
      "pitch": 62,
      "velocity": 100,
      "startTime": 47.43238500000008,
      "endTime": 47.939141250000084,
      "instrument": 1,
      "program": 34,
      "isDrum": false
    },
    {
      "pitch": 66,
      "velocity": 100,
      "startTime": 47.63508750000008,
      "endTime": 48.243195000000085,
      "instrument": 1,
      "program": 34,
      "isDrum": false
    },
    {
      "pitch": 62,
      "velocity": 100,
      "startTime": 48.040492500000084,
      "endTime": 48.64860000000009,
      "instrument": 1,
      "program": 34,
      "isDrum": false
    },
    {
      "pitch": 40,
      "velocity": 100,
      "startTime": 48.64860000000009,
      "endTime": 50.270220000000094,
      "instrument": 1,
      "program": 34,
      "isDrum": false
    },
    {
      "pitch": 52,
      "velocity": 100,
      "startTime": 49.05400500000009,
      "endTime": 49.66211250000009,
      "instrument": 1,
      "program": 34,
      "isDrum": false
    },
    {
      "pitch": 59,
      "velocity": 100,
      "startTime": 49.25670750000009,
      "endTime": 49.87326093750009,
      "instrument": 1,
      "program": 34,
      "isDrum": false
    },
    {
      "pitch": 64,
      "velocity": 100,
      "startTime": 49.66211250000009,
      "endTime": 50.278665937500094,
      "instrument": 1,
      "program": 34,
      "isDrum": false
    },
    {
      "pitch": 43,
      "velocity": 100,
      "startTime": 50.270220000000094,
      "endTime": 51.8918400000001,
      "instrument": 1,
      "program": 34,
      "isDrum": false
    },
    {
      "pitch": 55,
      "velocity": 100,
      "startTime": 50.675625000000096,
      "endTime": 51.2837325000001,
      "instrument": 1,
      "program": 34,
      "isDrum": false
    },
    {
      "pitch": 59,
      "velocity": 100,
      "startTime": 50.8783275000001,
      "endTime": 51.4948809375001,
      "instrument": 1,
      "program": 34,
      "isDrum": false
    },
    {
      "pitch": 67,
      "velocity": 100,
      "startTime": 51.2837325000001,
      "endTime": 51.9002859375001,
      "instrument": 1,
      "program": 34,
      "isDrum": false
    },
    {
      "pitch": 48,
      "velocity": 100,
      "startTime": 51.8918400000001,
      "endTime": 53.51346000000011,
      "instrument": 1,
      "program": 34,
      "isDrum": false
    },
    {
      "pitch": 64,
      "velocity": 100,
      "startTime": 52.499947500000104,
      "endTime": 53.116500937500106,
      "instrument": 1,
      "program": 34,
      "isDrum": false
    },
    {
      "pitch": 60,
      "velocity": 100,
      "startTime": 52.905352500000106,
      "endTime": 53.52190593750011,
      "instrument": 1,
      "program": 34,
      "isDrum": false
    },
    {
      "pitch": 45,
      "velocity": 100,
      "startTime": 53.51346000000011,
      "endTime": 55.135080000000116,
      "instrument": 1,
      "program": 34,
      "isDrum": false
    },
    {
      "pitch": 57,
      "velocity": 100,
      "startTime": 53.91886500000011,
      "endTime": 54.52697250000011,
      "instrument": 1,
      "program": 34,
      "isDrum": false
    },
    {
      "pitch": 61,
      "velocity": 100,
      "startTime": 54.12156750000011,
      "endTime": 54.73812093750011,
      "instrument": 1,
      "program": 34,
      "isDrum": false
    },
    {
      "pitch": 64,
      "velocity": 100,
      "startTime": 54.52697250000011,
      "endTime": 55.143525937500115,
      "instrument": 1,
      "program": 34,
      "isDrum": false
    },
    {
      "pitch": 50,
      "velocity": 100,
      "startTime": 55.135080000000116,
      "endTime": 56.75670000000012,
      "instrument": 1,
      "program": 34,
      "isDrum": false
    },
    {
      "pitch": 62,
      "velocity": 100,
      "startTime": 55.54048500000012,
      "endTime": 56.04724125000012,
      "instrument": 1,
      "program": 34,
      "isDrum": false
    },
    {
      "pitch": 66,
      "velocity": 100,
      "startTime": 55.74318750000012,
      "endTime": 56.35129500000012,
      "instrument": 1,
      "program": 34,
      "isDrum": false
    },
    {
      "pitch": 62,
      "velocity": 100,
      "startTime": 56.14859250000012,
      "endTime": 56.75670000000012,
      "instrument": 1,
      "program": 34,
      "isDrum": false
    },
    {
      "pitch": 40,
      "velocity": 100,
      "startTime": 56.75881148437512,
      "endTime": 58.38043148437513,
      "instrument": 1,
      "program": 34,
      "isDrum": false
    },
    {
      "pitch": 52,
      "velocity": 100,
      "startTime": 57.164216484375125,
      "endTime": 57.77232398437513,
      "instrument": 1,
      "program": 34,
      "isDrum": false
    },
    {
      "pitch": 59,
      "velocity": 100,
      "startTime": 57.366918984375125,
      "endTime": 57.98347242187513,
      "instrument": 1,
      "program": 34,
      "isDrum": false
    },
    {
      "pitch": 64,
      "velocity": 100,
      "startTime": 57.77232398437513,
      "endTime": 58.38887742187513,
      "instrument": 1,
      "program": 34,
      "isDrum": false
    },
    {
      "pitch": 55,
      "velocity": 100,
      "startTime": 58.78583648437513,
      "endTime": 59.393943984375134,
      "instrument": 1,
      "program": 34,
      "isDrum": false
    },
    {
      "pitch": 59,
      "velocity": 100,
      "startTime": 58.98853898437513,
      "endTime": 59.605092421875135,
      "instrument": 1,
      "program": 34,
      "isDrum": false
    },
    {
      "pitch": 40,
      "velocity": 100,
      "startTime": 8.1081,
      "endTime": 9.72972,
      "instrument": 2,
      "program": 32,
      "isDrum": false
    },
    {
      "pitch": 43,
      "velocity": 100,
      "startTime": 9.72972,
      "endTime": 11.35134,
      "instrument": 2,
      "program": 32,
      "isDrum": false
    },
    {
      "pitch": 48,
      "velocity": 100,
      "startTime": 11.35134,
      "endTime": 12.97296,
      "instrument": 2,
      "program": 32,
      "isDrum": false
    },
    {
      "pitch": 45,
      "velocity": 100,
      "startTime": 12.97296,
      "endTime": 14.59458,
      "instrument": 2,
      "program": 32,
      "isDrum": false
    },
    {
      "pitch": 50,
      "velocity": 100,
      "startTime": 14.59458,
      "endTime": 16.2162,
      "instrument": 2,
      "program": 32,
      "isDrum": false
    },
    {
      "pitch": 52,
      "velocity": 100,
      "startTime": 16.2162,
      "endTime": 17.83782,
      "instrument": 2,
      "program": 32,
      "isDrum": false
    },
    {
      "pitch": 43,
      "velocity": 100,
      "startTime": 17.83782,
      "endTime": 19.45944,
      "instrument": 2,
      "program": 32,
      "isDrum": false
    },
    {
      "pitch": 48,
      "velocity": 100,
      "startTime": 19.45944,
      "endTime": 21.08106,
      "instrument": 2,
      "program": 32,
      "isDrum": false
    },
    {
      "pitch": 45,
      "velocity": 100,
      "startTime": 21.08106,
      "endTime": 22.70268,
      "instrument": 2,
      "program": 32,
      "isDrum": false
    },
    {
      "pitch": 50,
      "velocity": 100,
      "startTime": 22.70268,
      "endTime": 24.3243,
      "instrument": 2,
      "program": 32,
      "isDrum": false
    },
    {
      "pitch": 52,
      "velocity": 100,
      "startTime": 24.3243,
      "endTime": 25.94592,
      "instrument": 2,
      "program": 32,
      "isDrum": false
    },
    {
      "pitch": 43,
      "velocity": 100,
      "startTime": 25.94592,
      "endTime": 27.56754,
      "instrument": 2,
      "program": 32,
      "isDrum": false
    },
    {
      "pitch": 48,
      "velocity": 100,
      "startTime": 27.56754,
      "endTime": 29.18916,
      "instrument": 2,
      "program": 32,
      "isDrum": false
    },
    {
      "pitch": 45,
      "velocity": 100,
      "startTime": 29.18916,
      "endTime": 30.81078,
      "instrument": 2,
      "program": 32,
      "isDrum": false
    },
    {
      "pitch": 50,
      "velocity": 100,
      "startTime": 30.81078,
      "endTime": 32.4324,
      "instrument": 2,
      "program": 32,
      "isDrum": false
    },
    {
      "pitch": 52,
      "velocity": 100,
      "startTime": 32.4324,
      "endTime": 34.05402,
      "instrument": 2,
      "program": 32,
      "isDrum": false
    },
    {
      "pitch": 43,
      "velocity": 100,
      "startTime": 34.05402,
      "endTime": 35.67564,
      "instrument": 2,
      "program": 32,
      "isDrum": false
    },
    {
      "pitch": 48,
      "velocity": 100,
      "startTime": 35.67564,
      "endTime": 37.29726,
      "instrument": 2,
      "program": 32,
      "isDrum": false
    },
    {
      "pitch": 45,
      "velocity": 100,
      "startTime": 37.29726,
      "endTime": 38.91888,
      "instrument": 2,
      "program": 32,
      "isDrum": false
    },
    {
      "pitch": 50,
      "velocity": 100,
      "startTime": 38.91888,
      "endTime": 40.5405,
      "instrument": 2,
      "program": 32,
      "isDrum": false
    },
    {
      "pitch": 52,
      "velocity": 100,
      "startTime": 40.5405,
      "endTime": 42.16212,
      "instrument": 2,
      "program": 32,
      "isDrum": false
    },
    {
      "pitch": 43,
      "velocity": 100,
      "startTime": 42.16212,
      "endTime": 43.78374,
      "instrument": 2,
      "program": 32,
      "isDrum": false
    },
    {
      "pitch": 48,
      "velocity": 100,
      "startTime": 43.78374,
      "endTime": 45.40536,
      "instrument": 2,
      "program": 32,
      "isDrum": false
    },
    {
      "pitch": 45,
      "velocity": 100,
      "startTime": 45.40536,
      "endTime": 47.02698,
      "instrument": 2,
      "program": 32,
      "isDrum": false
    },
    {
      "pitch": 50,
      "velocity": 100,
      "startTime": 47.02698,
      "endTime": 48.6486,
      "instrument": 2,
      "program": 32,
      "isDrum": false
    },
    {
      "pitch": 40,
      "velocity": 100,
      "startTime": 48.6486,
      "endTime": 50.27022,
      "instrument": 2,
      "program": 32,
      "isDrum": false
    },
    {
      "pitch": 43,
      "velocity": 100,
      "startTime": 50.27022,
      "endTime": 51.89184,
      "instrument": 2,
      "program": 32,
      "isDrum": false
    },
    {
      "pitch": 48,
      "velocity": 100,
      "startTime": 51.89184,
      "endTime": 53.51346,
      "instrument": 2,
      "program": 32,
      "isDrum": false
    },
    {
      "pitch": 45,
      "velocity": 100,
      "startTime": 53.51346,
      "endTime": 55.13508,
      "instrument": 2,
      "program": 32,
      "isDrum": false
    },
    {
      "pitch": 50,
      "velocity": 100,
      "startTime": 55.13508,
      "endTime": 56.7567,
      "instrument": 2,
      "program": 32,
      "isDrum": false
    },
    {
      "pitch": 40,
      "velocity": 100,
      "startTime": 56.7567,
      "endTime": 58.37832,
      "instrument": 2,
      "program": 32,
      "isDrum": false
    },
    {
      "pitch": 43,
      "velocity": 100,
      "startTime": 58.37832,
      "endTime": 59.99994,
      "instrument": 2,
      "program": 32,
      "isDrum": false
    },
    {
      "pitch": 40,
      "velocity": 100,
      "startTime": 24.527002500000002,
      "endTime": 24.729705000000003,
      "instrument": 3,
      "program": 3,
      "isDrum": false
    },
    {
      "pitch": 43,
      "velocity": 100,
      "startTime": 26.148622500000002,
      "endTime": 26.351325000000003,
      "instrument": 3,
      "program": 3,
      "isDrum": false
    },
    {
      "pitch": 48,
      "velocity": 100,
      "startTime": 27.770242500000002,
      "endTime": 27.972945000000003,
      "instrument": 3,
      "program": 3,
      "isDrum": false
    },
    {
      "pitch": 45,
      "velocity": 100,
      "startTime": 29.391862500000002,
      "endTime": 29.594565000000003,
      "instrument": 3,
      "program": 3,
      "isDrum": false
    },
    {
      "pitch": 50,
      "velocity": 100,
      "startTime": 31.013482500000002,
      "endTime": 31.216185000000003,
      "instrument": 3,
      "program": 3,
      "isDrum": false
    },
    {
      "pitch": 40,
      "velocity": 100,
      "startTime": 32.4324,
      "endTime": 32.53375125,
      "instrument": 3,
      "program": 3,
      "isDrum": false
    },
    {
      "pitch": 40,
      "velocity": 100,
      "startTime": 32.6351025,
      "endTime": 32.73645375,
      "instrument": 3,
      "program": 3,
      "isDrum": false
    },
    {
      "pitch": 40,
      "velocity": 100,
      "startTime": 32.837805,
      "endTime": 32.93915625,
      "instrument": 3,
      "program": 3,
      "isDrum": false
    },
    {
      "pitch": 40,
      "velocity": 100,
      "startTime": 33.040507500000004,
      "endTime": 33.141858750000004,
      "instrument": 3,
      "program": 3,
      "isDrum": false
    },
    {
      "pitch": 40,
      "velocity": 100,
      "startTime": 33.243210000000005,
      "endTime": 33.344561250000005,
      "instrument": 3,
      "program": 3,
      "isDrum": false
    },
    {
      "pitch": 40,
      "velocity": 100,
      "startTime": 33.445912500000006,
      "endTime": 33.547263750000006,
      "instrument": 3,
      "program": 3,
      "isDrum": false
    },
    {
      "pitch": 40,
      "velocity": 100,
      "startTime": 33.64861500000001,
      "endTime": 33.74996625000001,
      "instrument": 3,
      "program": 3,
      "isDrum": false
    },
    {
      "pitch": 40,
      "velocity": 100,
      "startTime": 33.85131750000001,
      "endTime": 33.95266875000001,
      "instrument": 3,
      "program": 3,
      "isDrum": false
    },
    {
      "pitch": 43,
      "velocity": 100,
      "startTime": 34.05402000000001,
      "endTime": 34.15537125000001,
      "instrument": 3,
      "program": 3,
      "isDrum": false
    },
    {
      "pitch": 43,
      "velocity": 100,
      "startTime": 34.25672250000001,
      "endTime": 34.35807375000001,
      "instrument": 3,
      "program": 3,
      "isDrum": false
    },
    {
      "pitch": 43,
      "velocity": 100,
      "startTime": 34.45942500000001,
      "endTime": 34.56077625000001,
      "instrument": 3,
      "program": 3,
      "isDrum": false
    },
    {
      "pitch": 43,
      "velocity": 100,
      "startTime": 34.66212750000001,
      "endTime": 34.76347875000001,
      "instrument": 3,
      "program": 3,
      "isDrum": false
    },
    {
      "pitch": 43,
      "velocity": 100,
      "startTime": 34.86483000000001,
      "endTime": 34.96618125000001,
      "instrument": 3,
      "program": 3,
      "isDrum": false
    },
    {
      "pitch": 43,
      "velocity": 100,
      "startTime": 35.06753250000001,
      "endTime": 35.16888375000001,
      "instrument": 3,
      "program": 3,
      "isDrum": false
    },
    {
      "pitch": 43,
      "velocity": 100,
      "startTime": 35.270235000000014,
      "endTime": 35.371586250000014,
      "instrument": 3,
      "program": 3,
      "isDrum": false
    },
    {
      "pitch": 43,
      "velocity": 100,
      "startTime": 35.472937500000015,
      "endTime": 35.574288750000015,
      "instrument": 3,
      "program": 3,
      "isDrum": false
    },
    {
      "pitch": 48,
      "velocity": 100,
      "startTime": 35.675640000000016,
      "endTime": 35.776991250000016,
      "instrument": 3,
      "program": 3,
      "isDrum": false
    },
    {
      "pitch": 48,
      "velocity": 100,
      "startTime": 35.87834250000002,
      "endTime": 35.97969375000002,
      "instrument": 3,
      "program": 3,
      "isDrum": false
    },
    {
      "pitch": 48,
      "velocity": 100,
      "startTime": 36.08104500000002,
      "endTime": 36.18239625000002,
      "instrument": 3,
      "program": 3,
      "isDrum": false
    },
    {
      "pitch": 48,
      "velocity": 100,
      "startTime": 36.28374750000002,
      "endTime": 36.38509875000002,
      "instrument": 3,
      "program": 3,
      "isDrum": false
    },
    {
      "pitch": 48,
      "velocity": 100,
      "startTime": 36.48645000000002,
      "endTime": 36.58780125000002,
      "instrument": 3,
      "program": 3,
      "isDrum": false
    },
    {
      "pitch": 48,
      "velocity": 100,
      "startTime": 36.68915250000002,
      "endTime": 36.79050375000002,
      "instrument": 3,
      "program": 3,
      "isDrum": false
    },
    {
      "pitch": 48,
      "velocity": 100,
      "startTime": 36.89185500000002,
      "endTime": 36.99320625000002,
      "instrument": 3,
      "program": 3,
      "isDrum": false
    },
    {
      "pitch": 48,
      "velocity": 100,
      "startTime": 37.09455750000002,
      "endTime": 37.19590875000002,
      "instrument": 3,
      "program": 3,
      "isDrum": false
    },
    {
      "pitch": 45,
      "velocity": 100,
      "startTime": 37.29726000000002,
      "endTime": 37.39861125000002,
      "instrument": 3,
      "program": 3,
      "isDrum": false
    },
    {
      "pitch": 45,
      "velocity": 100,
      "startTime": 37.499962500000024,
      "endTime": 37.601313750000024,
      "instrument": 3,
      "program": 3,
      "isDrum": false
    },
    {
      "pitch": 45,
      "velocity": 100,
      "startTime": 37.702665000000025,
      "endTime": 37.804016250000025,
      "instrument": 3,
      "program": 3,
      "isDrum": false
    },
    {
      "pitch": 45,
      "velocity": 100,
      "startTime": 37.905367500000025,
      "endTime": 38.006718750000026,
      "instrument": 3,
      "program": 3,
      "isDrum": false
    },
    {
      "pitch": 45,
      "velocity": 100,
      "startTime": 38.108070000000026,
      "endTime": 38.20942125000003,
      "instrument": 3,
      "program": 3,
      "isDrum": false
    },
    {
      "pitch": 45,
      "velocity": 100,
      "startTime": 38.31077250000003,
      "endTime": 38.41212375000003,
      "instrument": 3,
      "program": 3,
      "isDrum": false
    },
    {
      "pitch": 45,
      "velocity": 100,
      "startTime": 38.51347500000003,
      "endTime": 38.61482625000003,
      "instrument": 3,
      "program": 3,
      "isDrum": false
    },
    {
      "pitch": 45,
      "velocity": 100,
      "startTime": 38.71617750000003,
      "endTime": 38.81752875000003,
      "instrument": 3,
      "program": 3,
      "isDrum": false
    },
    {
      "pitch": 50,
      "velocity": 100,
      "startTime": 38.91888000000003,
      "endTime": 39.02023125000003,
      "instrument": 3,
      "program": 3,
      "isDrum": false
    },
    {
      "pitch": 50,
      "velocity": 100,
      "startTime": 39.12158250000003,
      "endTime": 39.22293375000003,
      "instrument": 3,
      "program": 3,
      "isDrum": false
    },
    {
      "pitch": 50,
      "velocity": 100,
      "startTime": 39.32428500000003,
      "endTime": 39.42563625000003,
      "instrument": 3,
      "program": 3,
      "isDrum": false
    },
    {
      "pitch": 50,
      "velocity": 100,
      "startTime": 39.52698750000003,
      "endTime": 39.62833875000003,
      "instrument": 3,
      "program": 3,
      "isDrum": false
    },
    {
      "pitch": 50,
      "velocity": 100,
      "startTime": 39.72969000000003,
      "endTime": 39.831041250000034,
      "instrument": 3,
      "program": 3,
      "isDrum": false
    },
    {
      "pitch": 50,
      "velocity": 100,
      "startTime": 39.932392500000034,
      "endTime": 40.033743750000035,
      "instrument": 3,
      "program": 3,
      "isDrum": false
    },
    {
      "pitch": 50,
      "velocity": 100,
      "startTime": 40.135095000000035,
      "endTime": 40.236446250000036,
      "instrument": 3,
      "program": 3,
      "isDrum": false
    },
    {
      "pitch": 50,
      "velocity": 100,
      "startTime": 40.337797500000036,
      "endTime": 40.43914875000004,
      "instrument": 3,
      "program": 3,
      "isDrum": false
    },
    {
      "pitch": 40,
      "velocity": 100,
      "startTime": 40.54050000000004,
      "endTime": 40.64185125000004,
      "instrument": 3,
      "program": 3,
      "isDrum": false
    },
    {
      "pitch": 40,
      "velocity": 100,
      "startTime": 40.74320250000004,
      "endTime": 40.84455375000004,
      "instrument": 3,
      "program": 3,
      "isDrum": false
    },
    {
      "pitch": 40,
      "velocity": 100,
      "startTime": 40.94590500000004,
      "endTime": 41.04725625000004,
      "instrument": 3,
      "program": 3,
      "isDrum": false
    },
    {
      "pitch": 40,
      "velocity": 100,
      "startTime": 41.14860750000004,
      "endTime": 41.24995875000004,
      "instrument": 3,
      "program": 3,
      "isDrum": false
    },
    {
      "pitch": 40,
      "velocity": 100,
      "startTime": 41.35131000000004,
      "endTime": 41.45266125000004,
      "instrument": 3,
      "program": 3,
      "isDrum": false
    },
    {
      "pitch": 40,
      "velocity": 100,
      "startTime": 41.55401250000004,
      "endTime": 41.65536375000004,
      "instrument": 3,
      "program": 3,
      "isDrum": false
    },
    {
      "pitch": 40,
      "velocity": 100,
      "startTime": 41.75671500000004,
      "endTime": 41.85806625000004,
      "instrument": 3,
      "program": 3,
      "isDrum": false
    },
    {
      "pitch": 40,
      "velocity": 100,
      "startTime": 41.95941750000004,
      "endTime": 42.060768750000044,
      "instrument": 3,
      "program": 3,
      "isDrum": false
    },
    {
      "pitch": 43,
      "velocity": 100,
      "startTime": 42.162120000000044,
      "endTime": 42.263471250000045,
      "instrument": 3,
      "program": 3,
      "isDrum": false
    },
    {
      "pitch": 43,
      "velocity": 100,
      "startTime": 42.364822500000045,
      "endTime": 42.466173750000046,
      "instrument": 3,
      "program": 3,
      "isDrum": false
    },
    {
      "pitch": 43,
      "velocity": 100,
      "startTime": 42.567525000000046,
      "endTime": 42.66887625000005,
      "instrument": 3,
      "program": 3,
      "isDrum": false
    },
    {
      "pitch": 43,
      "velocity": 100,
      "startTime": 42.77022750000005,
      "endTime": 42.87157875000005,
      "instrument": 3,
      "program": 3,
      "isDrum": false
    },
    {
      "pitch": 43,
      "velocity": 100,
      "startTime": 42.97293000000005,
      "endTime": 43.07428125000005,
      "instrument": 3,
      "program": 3,
      "isDrum": false
    },
    {
      "pitch": 43,
      "velocity": 100,
      "startTime": 43.17563250000005,
      "endTime": 43.27698375000005,
      "instrument": 3,
      "program": 3,
      "isDrum": false
    },
    {
      "pitch": 43,
      "velocity": 100,
      "startTime": 43.37833500000005,
      "endTime": 43.47968625000005,
      "instrument": 3,
      "program": 3,
      "isDrum": false
    },
    {
      "pitch": 43,
      "velocity": 100,
      "startTime": 43.58103750000005,
      "endTime": 43.68238875000005,
      "instrument": 3,
      "program": 3,
      "isDrum": false
    },
    {
      "pitch": 48,
      "velocity": 100,
      "startTime": 43.78374000000005,
      "endTime": 43.88509125000005,
      "instrument": 3,
      "program": 3,
      "isDrum": false
    },
    {
      "pitch": 48,
      "velocity": 100,
      "startTime": 43.98644250000005,
      "endTime": 44.08779375000005,
      "instrument": 3,
      "program": 3,
      "isDrum": false
    },
    {
      "pitch": 48,
      "velocity": 100,
      "startTime": 44.18914500000005,
      "endTime": 44.290496250000054,
      "instrument": 3,
      "program": 3,
      "isDrum": false
    },
    {
      "pitch": 48,
      "velocity": 100,
      "startTime": 44.391847500000054,
      "endTime": 44.493198750000055,
      "instrument": 3,
      "program": 3,
      "isDrum": false
    },
    {
      "pitch": 48,
      "velocity": 100,
      "startTime": 44.594550000000055,
      "endTime": 44.695901250000055,
      "instrument": 3,
      "program": 3,
      "isDrum": false
    },
    {
      "pitch": 48,
      "velocity": 100,
      "startTime": 44.797252500000056,
      "endTime": 44.898603750000056,
      "instrument": 3,
      "program": 3,
      "isDrum": false
    },
    {
      "pitch": 48,
      "velocity": 100,
      "startTime": 44.99995500000006,
      "endTime": 45.10130625000006,
      "instrument": 3,
      "program": 3,
      "isDrum": false
    },
    {
      "pitch": 48,
      "velocity": 100,
      "startTime": 45.20265750000006,
      "endTime": 45.30400875000006,
      "instrument": 3,
      "program": 3,
      "isDrum": false
    },
    {
      "pitch": 45,
      "velocity": 100,
      "startTime": 45.40536000000006,
      "endTime": 45.50671125000006,
      "instrument": 3,
      "program": 3,
      "isDrum": false
    },
    {
      "pitch": 45,
      "velocity": 100,
      "startTime": 45.60806250000006,
      "endTime": 45.70941375000006,
      "instrument": 3,
      "program": 3,
      "isDrum": false
    },
    {
      "pitch": 45,
      "velocity": 100,
      "startTime": 45.81076500000006,
      "endTime": 45.91211625000006,
      "instrument": 3,
      "program": 3,
      "isDrum": false
    },
    {
      "pitch": 45,
      "velocity": 100,
      "startTime": 46.01346750000006,
      "endTime": 46.11481875000006,
      "instrument": 3,
      "program": 3,
      "isDrum": false
    },
    {
      "pitch": 45,
      "velocity": 100,
      "startTime": 46.21617000000006,
      "endTime": 46.31752125000006,
      "instrument": 3,
      "program": 3,
      "isDrum": false
    },
    {
      "pitch": 45,
      "velocity": 100,
      "startTime": 46.41887250000006,
      "endTime": 46.52022375000006,
      "instrument": 3,
      "program": 3,
      "isDrum": false
    },
    {
      "pitch": 45,
      "velocity": 100,
      "startTime": 46.621575000000064,
      "endTime": 46.722926250000064,
      "instrument": 3,
      "program": 3,
      "isDrum": false
    },
    {
      "pitch": 45,
      "velocity": 100,
      "startTime": 46.824277500000065,
      "endTime": 46.925628750000065,
      "instrument": 3,
      "program": 3,
      "isDrum": false
    },
    {
      "pitch": 50,
      "velocity": 100,
      "startTime": 47.026980000000066,
      "endTime": 47.128331250000066,
      "instrument": 3,
      "program": 3,
      "isDrum": false
    },
    {
      "pitch": 50,
      "velocity": 100,
      "startTime": 47.22968250000007,
      "endTime": 47.33103375000007,
      "instrument": 3,
      "program": 3,
      "isDrum": false
    },
    {
      "pitch": 50,
      "velocity": 100,
      "startTime": 47.43238500000007,
      "endTime": 47.53373625000007,
      "instrument": 3,
      "program": 3,
      "isDrum": false
    },
    {
      "pitch": 50,
      "velocity": 100,
      "startTime": 47.63508750000007,
      "endTime": 47.73643875000007,
      "instrument": 3,
      "program": 3,
      "isDrum": false
    },
    {
      "pitch": 50,
      "velocity": 100,
      "startTime": 47.83779000000007,
      "endTime": 47.93914125000007,
      "instrument": 3,
      "program": 3,
      "isDrum": false
    },
    {
      "pitch": 50,
      "velocity": 100,
      "startTime": 48.04049250000007,
      "endTime": 48.14184375000007,
      "instrument": 3,
      "program": 3,
      "isDrum": false
    },
    {
      "pitch": 50,
      "velocity": 100,
      "startTime": 48.24319500000007,
      "endTime": 48.34454625000007,
      "instrument": 3,
      "program": 3,
      "isDrum": false
    },
    {
      "pitch": 50,
      "velocity": 100,
      "startTime": 48.44589750000007,
      "endTime": 48.54724875000007,
      "instrument": 3,
      "program": 3,
      "isDrum": false
    },
    {
      "pitch": 40,
      "velocity": 100,
      "startTime": 48.64860000000007,
      "endTime": 48.74995125000007,
      "instrument": 3,
      "program": 3,
      "isDrum": false
    },
    {
      "pitch": 40,
      "velocity": 100,
      "startTime": 48.851302500000074,
      "endTime": 48.952653750000074,
      "instrument": 3,
      "program": 3,
      "isDrum": false
    },
    {
      "pitch": 40,
      "velocity": 100,
      "startTime": 49.054005000000075,
      "endTime": 49.155356250000075,
      "instrument": 3,
      "program": 3,
      "isDrum": false
    },
    {
      "pitch": 40,
      "velocity": 100,
      "startTime": 49.256707500000076,
      "endTime": 49.358058750000076,
      "instrument": 3,
      "program": 3,
      "isDrum": false
    },
    {
      "pitch": 40,
      "velocity": 100,
      "startTime": 49.45941000000008,
      "endTime": 49.56076125000008,
      "instrument": 3,
      "program": 3,
      "isDrum": false
    },
    {
      "pitch": 40,
      "velocity": 100,
      "startTime": 49.66211250000008,
      "endTime": 49.76346375000008,
      "instrument": 3,
      "program": 3,
      "isDrum": false
    },
    {
      "pitch": 40,
      "velocity": 100,
      "startTime": 49.86481500000008,
      "endTime": 49.96616625000008,
      "instrument": 3,
      "program": 3,
      "isDrum": false
    },
    {
      "pitch": 40,
      "velocity": 100,
      "startTime": 50.06751750000008,
      "endTime": 50.16886875000008,
      "instrument": 3,
      "program": 3,
      "isDrum": false
    },
    {
      "pitch": 43,
      "velocity": 100,
      "startTime": 50.27022000000008,
      "endTime": 50.37157125000008,
      "instrument": 3,
      "program": 3,
      "isDrum": false
    },
    {
      "pitch": 43,
      "velocity": 100,
      "startTime": 50.47292250000008,
      "endTime": 50.57427375000008,
      "instrument": 3,
      "program": 3,
      "isDrum": false
    },
    {
      "pitch": 43,
      "velocity": 100,
      "startTime": 50.67562500000008,
      "endTime": 50.77697625000008,
      "instrument": 3,
      "program": 3,
      "isDrum": false
    },
    {
      "pitch": 43,
      "velocity": 100,
      "startTime": 50.87832750000008,
      "endTime": 50.97967875000008,
      "instrument": 3,
      "program": 3,
      "isDrum": false
    },
    {
      "pitch": 43,
      "velocity": 100,
      "startTime": 51.081030000000084,
      "endTime": 51.182381250000084,
      "instrument": 3,
      "program": 3,
      "isDrum": false
    },
    {
      "pitch": 43,
      "velocity": 100,
      "startTime": 51.283732500000085,
      "endTime": 51.385083750000085,
      "instrument": 3,
      "program": 3,
      "isDrum": false
    },
    {
      "pitch": 43,
      "velocity": 100,
      "startTime": 51.486435000000085,
      "endTime": 51.587786250000086,
      "instrument": 3,
      "program": 3,
      "isDrum": false
    },
    {
      "pitch": 43,
      "velocity": 100,
      "startTime": 51.689137500000086,
      "endTime": 51.79048875000009,
      "instrument": 3,
      "program": 3,
      "isDrum": false
    },
    {
      "pitch": 48,
      "velocity": 100,
      "startTime": 51.89184000000009,
      "endTime": 51.99319125000009,
      "instrument": 3,
      "program": 3,
      "isDrum": false
    },
    {
      "pitch": 48,
      "velocity": 100,
      "startTime": 52.09454250000009,
      "endTime": 52.19589375000009,
      "instrument": 3,
      "program": 3,
      "isDrum": false
    },
    {
      "pitch": 48,
      "velocity": 100,
      "startTime": 52.29724500000009,
      "endTime": 52.39859625000009,
      "instrument": 3,
      "program": 3,
      "isDrum": false
    },
    {
      "pitch": 48,
      "velocity": 100,
      "startTime": 52.49994750000009,
      "endTime": 52.60129875000009,
      "instrument": 3,
      "program": 3,
      "isDrum": false
    },
    {
      "pitch": 48,
      "velocity": 100,
      "startTime": 52.70265000000009,
      "endTime": 52.80400125000009,
      "instrument": 3,
      "program": 3,
      "isDrum": false
    },
    {
      "pitch": 48,
      "velocity": 100,
      "startTime": 52.90535250000009,
      "endTime": 53.00670375000009,
      "instrument": 3,
      "program": 3,
      "isDrum": false
    },
    {
      "pitch": 48,
      "velocity": 100,
      "startTime": 53.10805500000009,
      "endTime": 53.20940625000009,
      "instrument": 3,
      "program": 3,
      "isDrum": false
    },
    {
      "pitch": 48,
      "velocity": 100,
      "startTime": 53.31075750000009,
      "endTime": 53.412108750000094,
      "instrument": 3,
      "program": 3,
      "isDrum": false
    },
    {
      "pitch": 45,
      "velocity": 100,
      "startTime": 53.513460000000094,
      "endTime": 53.614811250000095,
      "instrument": 3,
      "program": 3,
      "isDrum": false
    },
    {
      "pitch": 45,
      "velocity": 100,
      "startTime": 53.716162500000095,
      "endTime": 53.817513750000096,
      "instrument": 3,
      "program": 3,
      "isDrum": false
    },
    {
      "pitch": 45,
      "velocity": 100,
      "startTime": 53.918865000000096,
      "endTime": 54.0202162500001,
      "instrument": 3,
      "program": 3,
      "isDrum": false
    },
    {
      "pitch": 45,
      "velocity": 100,
      "startTime": 54.1215675000001,
      "endTime": 54.2229187500001,
      "instrument": 3,
      "program": 3,
      "isDrum": false
    },
    {
      "pitch": 45,
      "velocity": 100,
      "startTime": 54.3242700000001,
      "endTime": 54.4256212500001,
      "instrument": 3,
      "program": 3,
      "isDrum": false
    },
    {
      "pitch": 45,
      "velocity": 100,
      "startTime": 54.5269725000001,
      "endTime": 54.6283237500001,
      "instrument": 3,
      "program": 3,
      "isDrum": false
    },
    {
      "pitch": 45,
      "velocity": 100,
      "startTime": 54.7296750000001,
      "endTime": 54.8310262500001,
      "instrument": 3,
      "program": 3,
      "isDrum": false
    },
    {
      "pitch": 45,
      "velocity": 100,
      "startTime": 54.9323775000001,
      "endTime": 55.0337287500001,
      "instrument": 3,
      "program": 3,
      "isDrum": false
    },
    {
      "pitch": 50,
      "velocity": 100,
      "startTime": 55.1350800000001,
      "endTime": 55.2364312500001,
      "instrument": 3,
      "program": 3,
      "isDrum": false
    },
    {
      "pitch": 50,
      "velocity": 100,
      "startTime": 55.3377825000001,
      "endTime": 55.4391337500001,
      "instrument": 3,
      "program": 3,
      "isDrum": false
    },
    {
      "pitch": 50,
      "velocity": 100,
      "startTime": 55.5404850000001,
      "endTime": 55.641836250000104,
      "instrument": 3,
      "program": 3,
      "isDrum": false
    },
    {
      "pitch": 50,
      "velocity": 100,
      "startTime": 55.743187500000104,
      "endTime": 55.844538750000105,
      "instrument": 3,
      "program": 3,
      "isDrum": false
    },
    {
      "pitch": 50,
      "velocity": 100,
      "startTime": 55.945890000000105,
      "endTime": 56.047241250000106,
      "instrument": 3,
      "program": 3,
      "isDrum": false
    },
    {
      "pitch": 50,
      "velocity": 100,
      "startTime": 56.148592500000106,
      "endTime": 56.24994375000011,
      "instrument": 3,
      "program": 3,
      "isDrum": false
    },
    {
      "pitch": 50,
      "velocity": 100,
      "startTime": 56.35129500000011,
      "endTime": 56.45264625000011,
      "instrument": 3,
      "program": 3,
      "isDrum": false
    },
    {
      "pitch": 50,
      "velocity": 100,
      "startTime": 56.55399750000011,
      "endTime": 56.65534875000011,
      "instrument": 3,
      "program": 3,
      "isDrum": false
    },
    {
      "pitch": 40,
      "velocity": 100,
      "startTime": 56.75670000000011,
      "endTime": 56.85805125000011,
      "instrument": 3,
      "program": 3,
      "isDrum": false
    },
    {
      "pitch": 40,
      "velocity": 100,
      "startTime": 56.95940250000011,
      "endTime": 57.06075375000011,
      "instrument": 3,
      "program": 3,
      "isDrum": false
    },
    {
      "pitch": 40,
      "velocity": 100,
      "startTime": 57.16210500000011,
      "endTime": 57.26345625000011,
      "instrument": 3,
      "program": 3,
      "isDrum": false
    },
    {
      "pitch": 40,
      "velocity": 100,
      "startTime": 57.36480750000011,
      "endTime": 57.46615875000011,
      "instrument": 3,
      "program": 3,
      "isDrum": false
    },
    {
      "pitch": 40,
      "velocity": 100,
      "startTime": 57.56751000000011,
      "endTime": 57.66886125000011,
      "instrument": 3,
      "program": 3,
      "isDrum": false
    },
    {
      "pitch": 40,
      "velocity": 100,
      "startTime": 57.77021250000011,
      "endTime": 57.871563750000114,
      "instrument": 3,
      "program": 3,
      "isDrum": false
    },
    {
      "pitch": 40,
      "velocity": 100,
      "startTime": 57.972915000000114,
      "endTime": 58.074266250000115,
      "instrument": 3,
      "program": 3,
      "isDrum": false
    },
    {
      "pitch": 40,
      "velocity": 100,
      "startTime": 58.175617500000115,
      "endTime": 58.276968750000115,
      "instrument": 3,
      "program": 3,
      "isDrum": false
    },
    {
      "pitch": 43,
      "velocity": 100,
      "startTime": 58.378320000000116,
      "endTime": 58.479671250000116,
      "instrument": 3,
      "program": 3,
      "isDrum": false
    },
    {
      "pitch": 43,
      "velocity": 100,
      "startTime": 58.58102250000012,
      "endTime": 58.68237375000012,
      "instrument": 3,
      "program": 3,
      "isDrum": false
    },
    {
      "pitch": 43,
      "velocity": 100,
      "startTime": 58.78372500000012,
      "endTime": 58.88507625000012,
      "instrument": 3,
      "program": 3,
      "isDrum": false
    },
    {
      "pitch": 43,
      "velocity": 100,
      "startTime": 58.98642750000012,
      "endTime": 59.08777875000012,
      "instrument": 3,
      "program": 3,
      "isDrum": false
    },
    {
      "pitch": 43,
      "velocity": 100,
      "startTime": 59.18913000000012,
      "endTime": 59.29048125000012,
      "instrument": 3,
      "program": 3,
      "isDrum": false
    },
    {
      "pitch": 43,
      "velocity": 100,
      "startTime": 59.39183250000012,
      "endTime": 59.49318375000012,
      "instrument": 3,
      "program": 3,
      "isDrum": false
    },
    {
      "pitch": 43,
      "velocity": 100,
      "startTime": 59.59453500000012,
      "endTime": 59.69588625000012,
      "instrument": 3,
      "program": 3,
      "isDrum": false
    },
    {
      "pitch": 43,
      "velocity": 100,
      "startTime": 59.79723750000012,
      "endTime": 59.89858875000012,
      "instrument": 3,
      "program": 3,
      "isDrum": false
    },
    {
      "pitch": 69,
      "velocity": 100,
      "startTime": 16.621605000000002,
      "endTime": 16.722956250000003,
      "instrument": 9,
      "program": 0,
      "isDrum": true
    },
    {
      "pitch": 69,
      "velocity": 100,
      "startTime": 17.432415000000002,
      "endTime": 17.533766250000003,
      "instrument": 9,
      "program": 0,
      "isDrum": true
    },
    {
      "pitch": 69,
      "velocity": 100,
      "startTime": 18.243225000000002,
      "endTime": 18.344576250000003,
      "instrument": 9,
      "program": 0,
      "isDrum": true
    },
    {
      "pitch": 69,
      "velocity": 100,
      "startTime": 19.054035000000002,
      "endTime": 19.155386250000003,
      "instrument": 9,
      "program": 0,
      "isDrum": true
    },
    {
      "pitch": 69,
      "velocity": 100,
      "startTime": 19.864845000000003,
      "endTime": 19.966196250000003,
      "instrument": 9,
      "program": 0,
      "isDrum": true
    },
    {
      "pitch": 69,
      "velocity": 100,
      "startTime": 20.675655000000003,
      "endTime": 20.777006250000003,
      "instrument": 9,
      "program": 0,
      "isDrum": true
    },
    {
      "pitch": 69,
      "velocity": 100,
      "startTime": 21.486465000000003,
      "endTime": 21.587816250000003,
      "instrument": 9,
      "program": 0,
      "isDrum": true
    },
    {
      "pitch": 69,
      "velocity": 100,
      "startTime": 22.297275000000003,
      "endTime": 22.398626250000003,
      "instrument": 9,
      "program": 0,
      "isDrum": true
    },
    {
      "pitch": 69,
      "velocity": 100,
      "startTime": 23.108085000000003,
      "endTime": 23.209436250000003,
      "instrument": 9,
      "program": 0,
      "isDrum": true
    },
    {
      "pitch": 69,
      "velocity": 100,
      "startTime": 23.918895000000003,
      "endTime": 24.020246250000003,
      "instrument": 9,
      "program": 0,
      "isDrum": true
    },
    {
      "pitch": 69,
      "velocity": 100,
      "startTime": 24.729705000000003,
      "endTime": 24.831056250000003,
      "instrument": 9,
      "program": 0,
      "isDrum": true
    },
    {
      "pitch": 69,
      "velocity": 100,
      "startTime": 25.540515000000003,
      "endTime": 25.641866250000003,
      "instrument": 9,
      "program": 0,
      "isDrum": true
    },
    {
      "pitch": 69,
      "velocity": 100,
      "startTime": 26.351325000000003,
      "endTime": 26.452676250000003,
      "instrument": 9,
      "program": 0,
      "isDrum": true
    },
    {
      "pitch": 69,
      "velocity": 100,
      "startTime": 27.162135000000003,
      "endTime": 27.263486250000003,
      "instrument": 9,
      "program": 0,
      "isDrum": true
    },
    {
      "pitch": 69,
      "velocity": 100,
      "startTime": 27.972945000000003,
      "endTime": 28.074296250000003,
      "instrument": 9,
      "program": 0,
      "isDrum": true
    },
    {
      "pitch": 69,
      "velocity": 100,
      "startTime": 28.783755000000003,
      "endTime": 28.885106250000003,
      "instrument": 9,
      "program": 0,
      "isDrum": true
    },
    {
      "pitch": 69,
      "velocity": 100,
      "startTime": 29.594565000000003,
      "endTime": 29.695916250000003,
      "instrument": 9,
      "program": 0,
      "isDrum": true
    },
    {
      "pitch": 69,
      "velocity": 100,
      "startTime": 30.405375000000003,
      "endTime": 30.506726250000003,
      "instrument": 9,
      "program": 0,
      "isDrum": true
    },
    {
      "pitch": 69,
      "velocity": 100,
      "startTime": 31.216185000000003,
      "endTime": 31.317536250000003,
      "instrument": 9,
      "program": 0,
      "isDrum": true
    },
    {
      "pitch": 69,
      "velocity": 100,
      "startTime": 32.02699500000001,
      "endTime": 32.12834625000001,
      "instrument": 9,
      "program": 0,
      "isDrum": true
    },
    {
      "pitch": 69,
      "velocity": 100,
      "startTime": 32.83780500000001,
      "endTime": 32.93915625000001,
      "instrument": 9,
      "program": 0,
      "isDrum": true
    },
    {
      "pitch": 69,
      "velocity": 100,
      "startTime": 33.648615000000014,
      "endTime": 33.749966250000014,
      "instrument": 9,
      "program": 0,
      "isDrum": true
    },
    {
      "pitch": 69,
      "velocity": 100,
      "startTime": 34.45942500000002,
      "endTime": 34.56077625000002,
      "instrument": 9,
      "program": 0,
      "isDrum": true
    },
    {
      "pitch": 69,
      "velocity": 100,
      "startTime": 35.27023500000002,
      "endTime": 35.37158625000002,
      "instrument": 9,
      "program": 0,
      "isDrum": true
    },
    {
      "pitch": 69,
      "velocity": 100,
      "startTime": 36.081045000000024,
      "endTime": 36.182396250000025,
      "instrument": 9,
      "program": 0,
      "isDrum": true
    },
    {
      "pitch": 69,
      "velocity": 100,
      "startTime": 36.89185500000003,
      "endTime": 36.99320625000003,
      "instrument": 9,
      "program": 0,
      "isDrum": true
    },
    {
      "pitch": 69,
      "velocity": 100,
      "startTime": 37.70266500000003,
      "endTime": 37.80401625000003,
      "instrument": 9,
      "program": 0,
      "isDrum": true
    },
    {
      "pitch": 69,
      "velocity": 100,
      "startTime": 38.513475000000035,
      "endTime": 38.614826250000036,
      "instrument": 9,
      "program": 0,
      "isDrum": true
    },
    {
      "pitch": 40,
      "velocity": 100,
      "startTime": 39.32217351562504,
      "endTime": 39.42563625000004,
      "instrument": 9,
      "program": 0,
      "isDrum": true
    },
    {
      "pitch": 69,
      "velocity": 100,
      "startTime": 39.32428500000004,
      "endTime": 39.42563625000004,
      "instrument": 9,
      "program": 0,
      "isDrum": true
    },
    {
      "pitch": 40,
      "velocity": 100,
      "startTime": 39.52698750000004,
      "endTime": 39.62833875000004,
      "instrument": 9,
      "program": 0,
      "isDrum": true
    },
    {
      "pitch": 38,
      "velocity": 100,
      "startTime": 39.93239250000004,
      "endTime": 40.03374375000004,
      "instrument": 9,
      "program": 0,
      "isDrum": true
    },
    {
      "pitch": 38,
      "velocity": 100,
      "startTime": 40.13509500000004,
      "endTime": 40.24489218750004,
      "instrument": 9,
      "program": 0,
      "isDrum": true
    },
    {
      "pitch": 69,
      "velocity": 100,
      "startTime": 40.13509500000004,
      "endTime": 40.23644625000004,
      "instrument": 9,
      "program": 0,
      "isDrum": true
    },
    {
      "pitch": 35,
      "velocity": 100,
      "startTime": 40.540500000000044,
      "endTime": 40.641851250000045,
      "instrument": 9,
      "program": 0,
      "isDrum": true
    },
    {
      "pitch": 49,
      "velocity": 100,
      "startTime": 40.540500000000044,
      "endTime": 40.743202500000045,
      "instrument": 9,
      "program": 0,
      "isDrum": true
    },
    {
      "pitch": 54,
      "velocity": 100,
      "startTime": 40.540500000000044,
      "endTime": 40.641851250000045,
      "instrument": 9,
      "program": 0,
      "isDrum": true
    },
    {
      "pitch": 54,
      "velocity": 100,
      "startTime": 40.743202500000045,
      "endTime": 40.844553750000046,
      "instrument": 9,
      "program": 0,
      "isDrum": true
    },
    {
      "pitch": 38,
      "velocity": 100,
      "startTime": 40.945905000000046,
      "endTime": 41.047256250000046,
      "instrument": 9,
      "program": 0,
      "isDrum": true
    },
    {
      "pitch": 54,
      "velocity": 100,
      "startTime": 40.945905000000046,
      "endTime": 41.047256250000046,
      "instrument": 9,
      "program": 0,
      "isDrum": true
    },
    {
      "pitch": 40,
      "velocity": 100,
      "startTime": 40.954350937500045,
      "endTime": 41.055702187500046,
      "instrument": 9,
      "program": 0,
      "isDrum": true
    },
    {
      "pitch": 54,
      "velocity": 100,
      "startTime": 41.14860750000005,
      "endTime": 41.24995875000005,
      "instrument": 9,
      "program": 0,
      "isDrum": true
    },
    {
      "pitch": 35,
      "velocity": 100,
      "startTime": 41.35131000000005,
      "endTime": 41.45266125000005,
      "instrument": 9,
      "program": 0,
      "isDrum": true
    },
    {
      "pitch": 54,
      "velocity": 100,
      "startTime": 41.35131000000005,
      "endTime": 41.45266125000005,
      "instrument": 9,
      "program": 0,
      "isDrum": true
    },
    {
      "pitch": 35,
      "velocity": 100,
      "startTime": 41.55401250000005,
      "endTime": 41.65536375000005,
      "instrument": 9,
      "program": 0,
      "isDrum": true
    },
    {
      "pitch": 54,
      "velocity": 100,
      "startTime": 41.55401250000005,
      "endTime": 41.65536375000005,
      "instrument": 9,
      "program": 0,
      "isDrum": true
    },
    {
      "pitch": 38,
      "velocity": 100,
      "startTime": 41.75671500000005,
      "endTime": 41.85806625000005,
      "instrument": 9,
      "program": 0,
      "isDrum": true
    },
    {
      "pitch": 54,
      "velocity": 100,
      "startTime": 41.75671500000005,
      "endTime": 41.85806625000005,
      "instrument": 9,
      "program": 0,
      "isDrum": true
    },
    {
      "pitch": 40,
      "velocity": 100,
      "startTime": 41.76516093750005,
      "endTime": 41.86651218750005,
      "instrument": 9,
      "program": 0,
      "isDrum": true
    },
    {
      "pitch": 54,
      "velocity": 100,
      "startTime": 41.95941750000005,
      "endTime": 42.06076875000005,
      "instrument": 9,
      "program": 0,
      "isDrum": true
    },
    {
      "pitch": 35,
      "velocity": 100,
      "startTime": 42.16212000000005,
      "endTime": 42.26347125000005,
      "instrument": 9,
      "program": 0,
      "isDrum": true
    },
    {
      "pitch": 54,
      "velocity": 100,
      "startTime": 42.16212000000005,
      "endTime": 42.26347125000005,
      "instrument": 9,
      "program": 0,
      "isDrum": true
    },
    {
      "pitch": 54,
      "velocity": 100,
      "startTime": 42.36482250000005,
      "endTime": 42.46617375000005,
      "instrument": 9,
      "program": 0,
      "isDrum": true
    },
    {
      "pitch": 38,
      "velocity": 100,
      "startTime": 42.56752500000005,
      "endTime": 42.668876250000054,
      "instrument": 9,
      "program": 0,
      "isDrum": true
    },
    {
      "pitch": 54,
      "velocity": 100,
      "startTime": 42.56752500000005,
      "endTime": 42.668876250000054,
      "instrument": 9,
      "program": 0,
      "isDrum": true
    },
    {
      "pitch": 40,
      "velocity": 100,
      "startTime": 42.57597093750005,
      "endTime": 42.67732218750005,
      "instrument": 9,
      "program": 0,
      "isDrum": true
    },
    {
      "pitch": 54,
      "velocity": 100,
      "startTime": 42.770227500000054,
      "endTime": 42.871578750000054,
      "instrument": 9,
      "program": 0,
      "isDrum": true
    },
    {
      "pitch": 35,
      "velocity": 100,
      "startTime": 42.972930000000055,
      "endTime": 43.074281250000055,
      "instrument": 9,
      "program": 0,
      "isDrum": true
    },
    {
      "pitch": 54,
      "velocity": 100,
      "startTime": 42.972930000000055,
      "endTime": 43.074281250000055,
      "instrument": 9,
      "program": 0,
      "isDrum": true
    },
    {
      "pitch": 35,
      "velocity": 100,
      "startTime": 43.175632500000056,
      "endTime": 43.276983750000056,
      "instrument": 9,
      "program": 0,
      "isDrum": true
    },
    {
      "pitch": 54,
      "velocity": 100,
      "startTime": 43.175632500000056,
      "endTime": 43.276983750000056,
      "instrument": 9,
      "program": 0,
      "isDrum": true
    },
    {
      "pitch": 38,
      "velocity": 100,
      "startTime": 43.37833500000006,
      "endTime": 43.47968625000006,
      "instrument": 9,
      "program": 0,
      "isDrum": true
    },
    {
      "pitch": 54,
      "velocity": 100,
      "startTime": 43.37833500000006,
      "endTime": 43.47968625000006,
      "instrument": 9,
      "program": 0,
      "isDrum": true
    },
    {
      "pitch": 40,
      "velocity": 100,
      "startTime": 43.386780937500056,
      "endTime": 43.48813218750006,
      "instrument": 9,
      "program": 0,
      "isDrum": true
    },
    {
      "pitch": 54,
      "velocity": 100,
      "startTime": 43.58103750000006,
      "endTime": 43.68238875000006,
      "instrument": 9,
      "program": 0,
      "isDrum": true
    },
    {
      "pitch": 35,
      "velocity": 100,
      "startTime": 43.78374000000006,
      "endTime": 43.88509125000006,
      "instrument": 9,
      "program": 0,
      "isDrum": true
    },
    {
      "pitch": 54,
      "velocity": 100,
      "startTime": 43.78374000000006,
      "endTime": 43.88509125000006,
      "instrument": 9,
      "program": 0,
      "isDrum": true
    },
    {
      "pitch": 54,
      "velocity": 100,
      "startTime": 43.98644250000006,
      "endTime": 44.08779375000006,
      "instrument": 9,
      "program": 0,
      "isDrum": true
    },
    {
      "pitch": 38,
      "velocity": 100,
      "startTime": 44.18914500000006,
      "endTime": 44.29049625000006,
      "instrument": 9,
      "program": 0,
      "isDrum": true
    },
    {
      "pitch": 54,
      "velocity": 100,
      "startTime": 44.18914500000006,
      "endTime": 44.29049625000006,
      "instrument": 9,
      "program": 0,
      "isDrum": true
    },
    {
      "pitch": 40,
      "velocity": 100,
      "startTime": 44.19759093750006,
      "endTime": 44.29894218750006,
      "instrument": 9,
      "program": 0,
      "isDrum": true
    },
    {
      "pitch": 54,
      "velocity": 100,
      "startTime": 44.39184750000006,
      "endTime": 44.49319875000006,
      "instrument": 9,
      "program": 0,
      "isDrum": true
    },
    {
      "pitch": 35,
      "velocity": 100,
      "startTime": 44.59455000000006,
      "endTime": 44.69590125000006,
      "instrument": 9,
      "program": 0,
      "isDrum": true
    },
    {
      "pitch": 54,
      "velocity": 100,
      "startTime": 44.59455000000006,
      "endTime": 44.69590125000006,
      "instrument": 9,
      "program": 0,
      "isDrum": true
    },
    {
      "pitch": 35,
      "velocity": 100,
      "startTime": 44.79725250000006,
      "endTime": 44.89860375000006,
      "instrument": 9,
      "program": 0,
      "isDrum": true
    },
    {
      "pitch": 54,
      "velocity": 100,
      "startTime": 44.79725250000006,
      "endTime": 44.89860375000006,
      "instrument": 9,
      "program": 0,
      "isDrum": true
    },
    {
      "pitch": 38,
      "velocity": 100,
      "startTime": 44.999955000000064,
      "endTime": 45.101306250000064,
      "instrument": 9,
      "program": 0,
      "isDrum": true
    },
    {
      "pitch": 54,
      "velocity": 100,
      "startTime": 44.999955000000064,
      "endTime": 45.101306250000064,
      "instrument": 9,
      "program": 0,
      "isDrum": true
    },
    {
      "pitch": 40,
      "velocity": 100,
      "startTime": 45.00840093750006,
      "endTime": 45.109752187500064,
      "instrument": 9,
      "program": 0,
      "isDrum": true
    },
    {
      "pitch": 54,
      "velocity": 100,
      "startTime": 45.202657500000065,
      "endTime": 45.304008750000065,
      "instrument": 9,
      "program": 0,
      "isDrum": true
    },
    {
      "pitch": 35,
      "velocity": 100,
      "startTime": 45.405360000000066,
      "endTime": 45.506711250000066,
      "instrument": 9,
      "program": 0,
      "isDrum": true
    },
    {
      "pitch": 35,
      "velocity": 100,
      "startTime": 45.405360000000066,
      "endTime": 45.506711250000066,
      "instrument": 9,
      "program": 0,
      "isDrum": true
    },
    {
      "pitch": 54,
      "velocity": 100,
      "startTime": 45.405360000000066,
      "endTime": 45.506711250000066,
      "instrument": 9,
      "program": 0,
      "isDrum": true
    },
    {
      "pitch": 54,
      "velocity": 100,
      "startTime": 45.60806250000007,
      "endTime": 45.70941375000007,
      "instrument": 9,
      "program": 0,
      "isDrum": true
    },
    {
      "pitch": 38,
      "velocity": 100,
      "startTime": 45.81076500000007,
      "endTime": 45.91211625000007,
      "instrument": 9,
      "program": 0,
      "isDrum": true
    },
    {
      "pitch": 54,
      "velocity": 100,
      "startTime": 45.81076500000007,
      "endTime": 45.91211625000007,
      "instrument": 9,
      "program": 0,
      "isDrum": true
    },
    {
      "pitch": 40,
      "velocity": 100,
      "startTime": 45.81921093750007,
      "endTime": 45.92056218750007,
      "instrument": 9,
      "program": 0,
      "isDrum": true
    },
    {
      "pitch": 54,
      "velocity": 100,
      "startTime": 46.01346750000007,
      "endTime": 46.11481875000007,
      "instrument": 9,
      "program": 0,
      "isDrum": true
    },
    {
      "pitch": 35,
      "velocity": 100,
      "startTime": 46.21617000000007,
      "endTime": 46.31752125000007,
      "instrument": 9,
      "program": 0,
      "isDrum": true
    },
    {
      "pitch": 35,
      "velocity": 100,
      "startTime": 46.21617000000007,
      "endTime": 46.31752125000007,
      "instrument": 9,
      "program": 0,
      "isDrum": true
    },
    {
      "pitch": 54,
      "velocity": 100,
      "startTime": 46.21617000000007,
      "endTime": 46.31752125000007,
      "instrument": 9,
      "program": 0,
      "isDrum": true
    },
    {
      "pitch": 35,
      "velocity": 100,
      "startTime": 46.41887250000007,
      "endTime": 46.52022375000007,
      "instrument": 9,
      "program": 0,
      "isDrum": true
    },
    {
      "pitch": 54,
      "velocity": 100,
      "startTime": 46.41887250000007,
      "endTime": 46.52022375000007,
      "instrument": 9,
      "program": 0,
      "isDrum": true
    },
    {
      "pitch": 38,
      "velocity": 100,
      "startTime": 46.62157500000007,
      "endTime": 46.72292625000007,
      "instrument": 9,
      "program": 0,
      "isDrum": true
    },
    {
      "pitch": 54,
      "velocity": 100,
      "startTime": 46.62157500000007,
      "endTime": 46.72292625000007,
      "instrument": 9,
      "program": 0,
      "isDrum": true
    },
    {
      "pitch": 40,
      "velocity": 100,
      "startTime": 46.63002093750007,
      "endTime": 46.73137218750007,
      "instrument": 9,
      "program": 0,
      "isDrum": true
    },
    {
      "pitch": 54,
      "velocity": 100,
      "startTime": 46.82427750000007,
      "endTime": 46.92562875000007,
      "instrument": 9,
      "program": 0,
      "isDrum": true
    },
    {
      "pitch": 35,
      "velocity": 100,
      "startTime": 47.02698000000007,
      "endTime": 47.12833125000007,
      "instrument": 9,
      "program": 0,
      "isDrum": true
    },
    {
      "pitch": 35,
      "velocity": 100,
      "startTime": 47.02698000000007,
      "endTime": 47.12833125000007,
      "instrument": 9,
      "program": 0,
      "isDrum": true
    },
    {
      "pitch": 54,
      "velocity": 100,
      "startTime": 47.02698000000007,
      "endTime": 47.12833125000007,
      "instrument": 9,
      "program": 0,
      "isDrum": true
    },
    {
      "pitch": 54,
      "velocity": 100,
      "startTime": 47.229682500000074,
      "endTime": 47.331033750000074,
      "instrument": 9,
      "program": 0,
      "isDrum": true
    },
    {
      "pitch": 38,
      "velocity": 100,
      "startTime": 47.432385000000075,
      "endTime": 47.533736250000075,
      "instrument": 9,
      "program": 0,
      "isDrum": true
    },
    {
      "pitch": 54,
      "velocity": 100,
      "startTime": 47.432385000000075,
      "endTime": 47.533736250000075,
      "instrument": 9,
      "program": 0,
      "isDrum": true
    },
    {
      "pitch": 40,
      "velocity": 100,
      "startTime": 47.440830937500074,
      "endTime": 47.542182187500075,
      "instrument": 9,
      "program": 0,
      "isDrum": true
    },
    {
      "pitch": 54,
      "velocity": 100,
      "startTime": 47.635087500000076,
      "endTime": 47.736438750000076,
      "instrument": 9,
      "program": 0,
      "isDrum": true
    },
    {
      "pitch": 35,
      "velocity": 100,
      "startTime": 47.837790000000076,
      "endTime": 47.93914125000008,
      "instrument": 9,
      "program": 0,
      "isDrum": true
    },
    {
      "pitch": 35,
      "velocity": 100,
      "startTime": 47.837790000000076,
      "endTime": 47.93914125000008,
      "instrument": 9,
      "program": 0,
      "isDrum": true
    },
    {
      "pitch": 54,
      "velocity": 100,
      "startTime": 47.837790000000076,
      "endTime": 47.93914125000008,
      "instrument": 9,
      "program": 0,
      "isDrum": true
    },
    {
      "pitch": 35,
      "velocity": 100,
      "startTime": 48.04049250000008,
      "endTime": 48.14184375000008,
      "instrument": 9,
      "program": 0,
      "isDrum": true
    },
    {
      "pitch": 54,
      "velocity": 100,
      "startTime": 48.04049250000008,
      "endTime": 48.14184375000008,
      "instrument": 9,
      "program": 0,
      "isDrum": true
    },
    {
      "pitch": 38,
      "velocity": 100,
      "startTime": 48.24319500000008,
      "endTime": 48.34454625000008,
      "instrument": 9,
      "program": 0,
      "isDrum": true
    },
    {
      "pitch": 40,
      "velocity": 100,
      "startTime": 48.24319500000008,
      "endTime": 48.34454625000008,
      "instrument": 9,
      "program": 0,
      "isDrum": true
    },
    {
      "pitch": 54,
      "velocity": 100,
      "startTime": 48.24319500000008,
      "endTime": 48.34454625000008,
      "instrument": 9,
      "program": 0,
      "isDrum": true
    },
    {
      "pitch": 54,
      "velocity": 100,
      "startTime": 48.44589750000008,
      "endTime": 48.54724875000008,
      "instrument": 9,
      "program": 0,
      "isDrum": true
    },
    {
      "pitch": 35,
      "velocity": 100,
      "startTime": 48.64860000000008,
      "endTime": 48.74995125000008,
      "instrument": 9,
      "program": 0,
      "isDrum": true
    },
    {
      "pitch": 35,
      "velocity": 100,
      "startTime": 48.64860000000008,
      "endTime": 48.74995125000008,
      "instrument": 9,
      "program": 0,
      "isDrum": true
    },
    {
      "pitch": 49,
      "velocity": 100,
      "startTime": 48.64860000000008,
      "endTime": 48.85130250000008,
      "instrument": 9,
      "program": 0,
      "isDrum": true
    },
    {
      "pitch": 49,
      "velocity": 100,
      "startTime": 48.64860000000008,
      "endTime": 49.05400500000008,
      "instrument": 9,
      "program": 0,
      "isDrum": true
    },
    {
      "pitch": 54,
      "velocity": 100,
      "startTime": 48.64860000000008,
      "endTime": 48.74995125000008,
      "instrument": 9,
      "program": 0,
      "isDrum": true
    },
    {
      "pitch": 54,
      "velocity": 100,
      "startTime": 48.85130250000008,
      "endTime": 48.95265375000008,
      "instrument": 9,
      "program": 0,
      "isDrum": true
    },
    {
      "pitch": 38,
      "velocity": 100,
      "startTime": 49.05400500000008,
      "endTime": 49.15535625000008,
      "instrument": 9,
      "program": 0,
      "isDrum": true
    },
    {
      "pitch": 54,
      "velocity": 100,
      "startTime": 49.05400500000008,
      "endTime": 49.15535625000008,
      "instrument": 9,
      "program": 0,
      "isDrum": true
    },
    {
      "pitch": 40,
      "velocity": 100,
      "startTime": 49.06456242187508,
      "endTime": 49.16591367187508,
      "instrument": 9,
      "program": 0,
      "isDrum": true
    },
    {
      "pitch": 54,
      "velocity": 100,
      "startTime": 49.25670750000008,
      "endTime": 49.35805875000008,
      "instrument": 9,
      "program": 0,
      "isDrum": true
    },
    {
      "pitch": 35,
      "velocity": 100,
      "startTime": 49.459410000000084,
      "endTime": 49.560761250000084,
      "instrument": 9,
      "program": 0,
      "isDrum": true
    },
    {
      "pitch": 35,
      "velocity": 100,
      "startTime": 49.459410000000084,
      "endTime": 49.560761250000084,
      "instrument": 9,
      "program": 0,
      "isDrum": true
    },
    {
      "pitch": 54,
      "velocity": 100,
      "startTime": 49.459410000000084,
      "endTime": 49.560761250000084,
      "instrument": 9,
      "program": 0,
      "isDrum": true
    },
    {
      "pitch": 35,
      "velocity": 100,
      "startTime": 49.662112500000084,
      "endTime": 49.763463750000085,
      "instrument": 9,
      "program": 0,
      "isDrum": true
    },
    {
      "pitch": 54,
      "velocity": 100,
      "startTime": 49.662112500000084,
      "endTime": 49.763463750000085,
      "instrument": 9,
      "program": 0,
      "isDrum": true
    },
    {
      "pitch": 38,
      "velocity": 100,
      "startTime": 49.864815000000085,
      "endTime": 49.966166250000086,
      "instrument": 9,
      "program": 0,
      "isDrum": true
    },
    {
      "pitch": 54,
      "velocity": 100,
      "startTime": 49.864815000000085,
      "endTime": 49.966166250000086,
      "instrument": 9,
      "program": 0,
      "isDrum": true
    },
    {
      "pitch": 40,
      "velocity": 100,
      "startTime": 49.875372421875085,
      "endTime": 49.976723671875085,
      "instrument": 9,
      "program": 0,
      "isDrum": true
    },
    {
      "pitch": 54,
      "velocity": 100,
      "startTime": 50.067517500000086,
      "endTime": 50.16886875000009,
      "instrument": 9,
      "program": 0,
      "isDrum": true
    },
    {
      "pitch": 35,
      "velocity": 100,
      "startTime": 50.27022000000009,
      "endTime": 50.37157125000009,
      "instrument": 9,
      "program": 0,
      "isDrum": true
    },
    {
      "pitch": 35,
      "velocity": 100,
      "startTime": 50.27022000000009,
      "endTime": 50.37157125000009,
      "instrument": 9,
      "program": 0,
      "isDrum": true
    },
    {
      "pitch": 54,
      "velocity": 100,
      "startTime": 50.27022000000009,
      "endTime": 50.37157125000009,
      "instrument": 9,
      "program": 0,
      "isDrum": true
    },
    {
      "pitch": 54,
      "velocity": 100,
      "startTime": 50.47292250000009,
      "endTime": 50.57427375000009,
      "instrument": 9,
      "program": 0,
      "isDrum": true
    },
    {
      "pitch": 38,
      "velocity": 100,
      "startTime": 50.67562500000009,
      "endTime": 50.77697625000009,
      "instrument": 9,
      "program": 0,
      "isDrum": true
    },
    {
      "pitch": 54,
      "velocity": 100,
      "startTime": 50.67562500000009,
      "endTime": 50.77697625000009,
      "instrument": 9,
      "program": 0,
      "isDrum": true
    },
    {
      "pitch": 40,
      "velocity": 100,
      "startTime": 50.68618242187509,
      "endTime": 50.78753367187509,
      "instrument": 9,
      "program": 0,
      "isDrum": true
    },
    {
      "pitch": 54,
      "velocity": 100,
      "startTime": 50.87832750000009,
      "endTime": 50.97967875000009,
      "instrument": 9,
      "program": 0,
      "isDrum": true
    },
    {
      "pitch": 35,
      "velocity": 100,
      "startTime": 51.08103000000009,
      "endTime": 51.18238125000009,
      "instrument": 9,
      "program": 0,
      "isDrum": true
    },
    {
      "pitch": 35,
      "velocity": 100,
      "startTime": 51.08103000000009,
      "endTime": 51.18238125000009,
      "instrument": 9,
      "program": 0,
      "isDrum": true
    },
    {
      "pitch": 54,
      "velocity": 100,
      "startTime": 51.08103000000009,
      "endTime": 51.18238125000009,
      "instrument": 9,
      "program": 0,
      "isDrum": true
    },
    {
      "pitch": 35,
      "velocity": 100,
      "startTime": 51.28373250000009,
      "endTime": 51.38508375000009,
      "instrument": 9,
      "program": 0,
      "isDrum": true
    },
    {
      "pitch": 54,
      "velocity": 100,
      "startTime": 51.28373250000009,
      "endTime": 51.38508375000009,
      "instrument": 9,
      "program": 0,
      "isDrum": true
    },
    {
      "pitch": 38,
      "velocity": 100,
      "startTime": 51.48643500000009,
      "endTime": 51.58778625000009,
      "instrument": 9,
      "program": 0,
      "isDrum": true
    },
    {
      "pitch": 54,
      "velocity": 100,
      "startTime": 51.48643500000009,
      "endTime": 51.58778625000009,
      "instrument": 9,
      "program": 0,
      "isDrum": true
    },
    {
      "pitch": 40,
      "velocity": 100,
      "startTime": 51.49699242187509,
      "endTime": 51.59834367187509,
      "instrument": 9,
      "program": 0,
      "isDrum": true
    },
    {
      "pitch": 54,
      "velocity": 100,
      "startTime": 51.68913750000009,
      "endTime": 51.790488750000094,
      "instrument": 9,
      "program": 0,
      "isDrum": true
    },
    {
      "pitch": 35,
      "velocity": 100,
      "startTime": 51.891840000000094,
      "endTime": 51.993191250000095,
      "instrument": 9,
      "program": 0,
      "isDrum": true
    },
    {
      "pitch": 35,
      "velocity": 100,
      "startTime": 51.891840000000094,
      "endTime": 51.993191250000095,
      "instrument": 9,
      "program": 0,
      "isDrum": true
    },
    {
      "pitch": 54,
      "velocity": 100,
      "startTime": 51.891840000000094,
      "endTime": 51.993191250000095,
      "instrument": 9,
      "program": 0,
      "isDrum": true
    },
    {
      "pitch": 54,
      "velocity": 100,
      "startTime": 52.094542500000095,
      "endTime": 52.195893750000096,
      "instrument": 9,
      "program": 0,
      "isDrum": true
    },
    {
      "pitch": 38,
      "velocity": 100,
      "startTime": 52.297245000000096,
      "endTime": 52.3985962500001,
      "instrument": 9,
      "program": 0,
      "isDrum": true
    },
    {
      "pitch": 54,
      "velocity": 100,
      "startTime": 52.297245000000096,
      "endTime": 52.3985962500001,
      "instrument": 9,
      "program": 0,
      "isDrum": true
    },
    {
      "pitch": 40,
      "velocity": 100,
      "startTime": 52.307802421875095,
      "endTime": 52.409153671875096,
      "instrument": 9,
      "program": 0,
      "isDrum": true
    },
    {
      "pitch": 54,
      "velocity": 100,
      "startTime": 52.4999475000001,
      "endTime": 52.6012987500001,
      "instrument": 9,
      "program": 0,
      "isDrum": true
    },
    {
      "pitch": 35,
      "velocity": 100,
      "startTime": 52.7026500000001,
      "endTime": 52.8040012500001,
      "instrument": 9,
      "program": 0,
      "isDrum": true
    },
    {
      "pitch": 35,
      "velocity": 100,
      "startTime": 52.7026500000001,
      "endTime": 52.8040012500001,
      "instrument": 9,
      "program": 0,
      "isDrum": true
    },
    {
      "pitch": 54,
      "velocity": 100,
      "startTime": 52.7026500000001,
      "endTime": 52.8040012500001,
      "instrument": 9,
      "program": 0,
      "isDrum": true
    },
    {
      "pitch": 35,
      "velocity": 100,
      "startTime": 52.9053525000001,
      "endTime": 53.0067037500001,
      "instrument": 9,
      "program": 0,
      "isDrum": true
    },
    {
      "pitch": 54,
      "velocity": 100,
      "startTime": 52.9053525000001,
      "endTime": 53.0067037500001,
      "instrument": 9,
      "program": 0,
      "isDrum": true
    },
    {
      "pitch": 38,
      "velocity": 100,
      "startTime": 53.1080550000001,
      "endTime": 53.2094062500001,
      "instrument": 9,
      "program": 0,
      "isDrum": true
    },
    {
      "pitch": 54,
      "velocity": 100,
      "startTime": 53.1080550000001,
      "endTime": 53.2094062500001,
      "instrument": 9,
      "program": 0,
      "isDrum": true
    },
    {
      "pitch": 40,
      "velocity": 100,
      "startTime": 53.1186124218751,
      "endTime": 53.2199636718751,
      "instrument": 9,
      "program": 0,
      "isDrum": true
    },
    {
      "pitch": 54,
      "velocity": 100,
      "startTime": 53.3107575000001,
      "endTime": 53.4121087500001,
      "instrument": 9,
      "program": 0,
      "isDrum": true
    },
    {
      "pitch": 35,
      "velocity": 100,
      "startTime": 53.5134600000001,
      "endTime": 53.6148112500001,
      "instrument": 9,
      "program": 0,
      "isDrum": true
    },
    {
      "pitch": 35,
      "velocity": 100,
      "startTime": 53.5134600000001,
      "endTime": 53.6148112500001,
      "instrument": 9,
      "program": 0,
      "isDrum": true
    },
    {
      "pitch": 54,
      "velocity": 100,
      "startTime": 53.5134600000001,
      "endTime": 53.6148112500001,
      "instrument": 9,
      "program": 0,
      "isDrum": true
    },
    {
      "pitch": 54,
      "velocity": 100,
      "startTime": 53.7161625000001,
      "endTime": 53.8175137500001,
      "instrument": 9,
      "program": 0,
      "isDrum": true
    },
    {
      "pitch": 38,
      "velocity": 100,
      "startTime": 53.9188650000001,
      "endTime": 54.020216250000104,
      "instrument": 9,
      "program": 0,
      "isDrum": true
    },
    {
      "pitch": 54,
      "velocity": 100,
      "startTime": 53.9188650000001,
      "endTime": 54.020216250000104,
      "instrument": 9,
      "program": 0,
      "isDrum": true
    },
    {
      "pitch": 40,
      "velocity": 100,
      "startTime": 53.9294224218751,
      "endTime": 54.0307736718751,
      "instrument": 9,
      "program": 0,
      "isDrum": true
    },
    {
      "pitch": 54,
      "velocity": 100,
      "startTime": 54.121567500000104,
      "endTime": 54.222918750000105,
      "instrument": 9,
      "program": 0,
      "isDrum": true
    },
    {
      "pitch": 35,
      "velocity": 100,
      "startTime": 54.324270000000105,
      "endTime": 54.425621250000106,
      "instrument": 9,
      "program": 0,
      "isDrum": true
    },
    {
      "pitch": 35,
      "velocity": 100,
      "startTime": 54.324270000000105,
      "endTime": 54.425621250000106,
      "instrument": 9,
      "program": 0,
      "isDrum": true
    },
    {
      "pitch": 54,
      "velocity": 100,
      "startTime": 54.324270000000105,
      "endTime": 54.425621250000106,
      "instrument": 9,
      "program": 0,
      "isDrum": true
    },
    {
      "pitch": 35,
      "velocity": 100,
      "startTime": 54.526972500000106,
      "endTime": 54.628323750000106,
      "instrument": 9,
      "program": 0,
      "isDrum": true
    },
    {
      "pitch": 54,
      "velocity": 100,
      "startTime": 54.526972500000106,
      "endTime": 54.628323750000106,
      "instrument": 9,
      "program": 0,
      "isDrum": true
    },
    {
      "pitch": 38,
      "velocity": 100,
      "startTime": 54.72967500000011,
      "endTime": 54.83102625000011,
      "instrument": 9,
      "program": 0,
      "isDrum": true
    },
    {
      "pitch": 54,
      "velocity": 100,
      "startTime": 54.72967500000011,
      "endTime": 54.83102625000011,
      "instrument": 9,
      "program": 0,
      "isDrum": true
    },
    {
      "pitch": 40,
      "velocity": 100,
      "startTime": 54.740232421875106,
      "endTime": 54.84158367187511,
      "instrument": 9,
      "program": 0,
      "isDrum": true
    },
    {
      "pitch": 54,
      "velocity": 100,
      "startTime": 54.93237750000011,
      "endTime": 55.03372875000011,
      "instrument": 9,
      "program": 0,
      "isDrum": true
    },
    {
      "pitch": 35,
      "velocity": 100,
      "startTime": 55.13508000000011,
      "endTime": 55.23643125000011,
      "instrument": 9,
      "program": 0,
      "isDrum": true
    },
    {
      "pitch": 35,
      "velocity": 100,
      "startTime": 55.13508000000011,
      "endTime": 55.23643125000011,
      "instrument": 9,
      "program": 0,
      "isDrum": true
    },
    {
      "pitch": 54,
      "velocity": 100,
      "startTime": 55.13508000000011,
      "endTime": 55.23643125000011,
      "instrument": 9,
      "program": 0,
      "isDrum": true
    },
    {
      "pitch": 54,
      "velocity": 100,
      "startTime": 55.33778250000011,
      "endTime": 55.43913375000011,
      "instrument": 9,
      "program": 0,
      "isDrum": true
    },
    {
      "pitch": 38,
      "velocity": 100,
      "startTime": 55.54048500000011,
      "endTime": 55.64183625000011,
      "instrument": 9,
      "program": 0,
      "isDrum": true
    },
    {
      "pitch": 40,
      "velocity": 100,
      "startTime": 55.54048500000011,
      "endTime": 55.64183625000011,
      "instrument": 9,
      "program": 0,
      "isDrum": true
    },
    {
      "pitch": 49,
      "velocity": 100,
      "startTime": 55.54048500000011,
      "endTime": 55.74318750000011,
      "instrument": 9,
      "program": 0,
      "isDrum": true
    },
    {
      "pitch": 54,
      "velocity": 100,
      "startTime": 55.54048500000011,
      "endTime": 55.64183625000011,
      "instrument": 9,
      "program": 0,
      "isDrum": true
    },
    {
      "pitch": 38,
      "velocity": 100,
      "startTime": 55.64183625000011,
      "endTime": 55.74318750000011,
      "instrument": 9,
      "program": 0,
      "isDrum": true
    },
    {
      "pitch": 40,
      "velocity": 100,
      "startTime": 55.64183625000011,
      "endTime": 55.74318750000011,
      "instrument": 9,
      "program": 0,
      "isDrum": true
    },
    {
      "pitch": 35,
      "velocity": 100,
      "startTime": 55.74318750000011,
      "endTime": 55.84453875000011,
      "instrument": 9,
      "program": 0,
      "isDrum": true
    },
    {
      "pitch": 54,
      "velocity": 100,
      "startTime": 55.74318750000011,
      "endTime": 55.84453875000011,
      "instrument": 9,
      "program": 0,
      "isDrum": true
    },
    {
      "pitch": 38,
      "velocity": 100,
      "startTime": 55.84453875000011,
      "endTime": 55.94589000000011,
      "instrument": 9,
      "program": 0,
      "isDrum": true
    },
    {
      "pitch": 40,
      "velocity": 100,
      "startTime": 55.84453875000011,
      "endTime": 55.94589000000011,
      "instrument": 9,
      "program": 0,
      "isDrum": true
    },
    {
      "pitch": 35,
      "velocity": 100,
      "startTime": 55.94589000000011,
      "endTime": 56.04724125000011,
      "instrument": 9,
      "program": 0,
      "isDrum": true
    },
    {
      "pitch": 38,
      "velocity": 100,
      "startTime": 55.94589000000011,
      "endTime": 56.04724125000011,
      "instrument": 9,
      "program": 0,
      "isDrum": true
    },
    {
      "pitch": 40,
      "velocity": 100,
      "startTime": 55.94589000000011,
      "endTime": 56.04724125000011,
      "instrument": 9,
      "program": 0,
      "isDrum": true
    },
    {
      "pitch": 54,
      "velocity": 100,
      "startTime": 55.94589000000011,
      "endTime": 56.04724125000011,
      "instrument": 9,
      "program": 0,
      "isDrum": true
    },
    {
      "pitch": 38,
      "velocity": 100,
      "startTime": 56.04724125000011,
      "endTime": 56.14859250000011,
      "instrument": 9,
      "program": 0,
      "isDrum": true
    },
    {
      "pitch": 40,
      "velocity": 100,
      "startTime": 56.04724125000011,
      "endTime": 56.14859250000011,
      "instrument": 9,
      "program": 0,
      "isDrum": true
    },
    {
      "pitch": 35,
      "velocity": 100,
      "startTime": 56.14859250000011,
      "endTime": 56.249943750000114,
      "instrument": 9,
      "program": 0,
      "isDrum": true
    },
    {
      "pitch": 35,
      "velocity": 100,
      "startTime": 56.14859250000011,
      "endTime": 56.249943750000114,
      "instrument": 9,
      "program": 0,
      "isDrum": true
    },
    {
      "pitch": 54,
      "velocity": 100,
      "startTime": 56.14859250000011,
      "endTime": 56.249943750000114,
      "instrument": 9,
      "program": 0,
      "isDrum": true
    },
    {
      "pitch": 38,
      "velocity": 100,
      "startTime": 56.249943750000114,
      "endTime": 56.351295000000114,
      "instrument": 9,
      "program": 0,
      "isDrum": true
    },
    {
      "pitch": 40,
      "velocity": 100,
      "startTime": 56.249943750000114,
      "endTime": 56.351295000000114,
      "instrument": 9,
      "program": 0,
      "isDrum": true
    },
    {
      "pitch": 54,
      "velocity": 100,
      "startTime": 56.351295000000114,
      "endTime": 56.452646250000114,
      "instrument": 9,
      "program": 0,
      "isDrum": true
    },
    {
      "pitch": 38,
      "velocity": 100,
      "startTime": 56.452646250000114,
      "endTime": 56.553997500000115,
      "instrument": 9,
      "program": 0,
      "isDrum": true
    },
    {
      "pitch": 40,
      "velocity": 100,
      "startTime": 56.452646250000114,
      "endTime": 56.553997500000115,
      "instrument": 9,
      "program": 0,
      "isDrum": true
    },
    {
      "pitch": 35,
      "velocity": 100,
      "startTime": 56.553997500000115,
      "endTime": 56.655348750000115,
      "instrument": 9,
      "program": 0,
      "isDrum": true
    },
    {
      "pitch": 38,
      "velocity": 100,
      "startTime": 56.553997500000115,
      "endTime": 56.655348750000115,
      "instrument": 9,
      "program": 0,
      "isDrum": true
    },
    {
      "pitch": 40,
      "velocity": 100,
      "startTime": 56.553997500000115,
      "endTime": 56.655348750000115,
      "instrument": 9,
      "program": 0,
      "isDrum": true
    },
    {
      "pitch": 54,
      "velocity": 100,
      "startTime": 56.553997500000115,
      "endTime": 56.655348750000115,
      "instrument": 9,
      "program": 0,
      "isDrum": true
    },
    {
      "pitch": 35,
      "velocity": 100,
      "startTime": 56.756700000000116,
      "endTime": 56.858051250000116,
      "instrument": 9,
      "program": 0,
      "isDrum": true
    },
    {
      "pitch": 35,
      "velocity": 100,
      "startTime": 56.756700000000116,
      "endTime": 56.858051250000116,
      "instrument": 9,
      "program": 0,
      "isDrum": true
    },
    {
      "pitch": 49,
      "velocity": 100,
      "startTime": 56.756700000000116,
      "endTime": 56.95940250000012,
      "instrument": 9,
      "program": 0,
      "isDrum": true
    },
    {
      "pitch": 49,
      "velocity": 100,
      "startTime": 56.756700000000116,
      "endTime": 57.06075375000012,
      "instrument": 9,
      "program": 0,
      "isDrum": true
    },
    {
      "pitch": 49,
      "velocity": 100,
      "startTime": 56.756700000000116,
      "endTime": 57.16210500000012,
      "instrument": 9,
      "program": 0,
      "isDrum": true
    },
    {
      "pitch": 54,
      "velocity": 100,
      "startTime": 56.756700000000116,
      "endTime": 56.858051250000116,
      "instrument": 9,
      "program": 0,
      "isDrum": true
    },
    {
      "pitch": 54,
      "velocity": 100,
      "startTime": 56.95940250000012,
      "endTime": 57.06075375000012,
      "instrument": 9,
      "program": 0,
      "isDrum": true
    },
    {
      "pitch": 38,
      "velocity": 100,
      "startTime": 57.16210500000012,
      "endTime": 57.26345625000012,
      "instrument": 9,
      "program": 0,
      "isDrum": true
    },
    {
      "pitch": 54,
      "velocity": 100,
      "startTime": 57.16210500000012,
      "endTime": 57.26345625000012,
      "instrument": 9,
      "program": 0,
      "isDrum": true
    },
    {
      "pitch": 40,
      "velocity": 100,
      "startTime": 57.17266242187512,
      "endTime": 57.27401367187512,
      "instrument": 9,
      "program": 0,
      "isDrum": true
    },
    {
      "pitch": 54,
      "velocity": 100,
      "startTime": 57.36480750000012,
      "endTime": 57.46615875000012,
      "instrument": 9,
      "program": 0,
      "isDrum": true
    },
    {
      "pitch": 35,
      "velocity": 100,
      "startTime": 57.56751000000012,
      "endTime": 57.66886125000012,
      "instrument": 9,
      "program": 0,
      "isDrum": true
    },
    {
      "pitch": 35,
      "velocity": 100,
      "startTime": 57.56751000000012,
      "endTime": 57.66886125000012,
      "instrument": 9,
      "program": 0,
      "isDrum": true
    },
    {
      "pitch": 54,
      "velocity": 100,
      "startTime": 57.56751000000012,
      "endTime": 57.66886125000012,
      "instrument": 9,
      "program": 0,
      "isDrum": true
    },
    {
      "pitch": 35,
      "velocity": 100,
      "startTime": 57.77021250000012,
      "endTime": 57.87156375000012,
      "instrument": 9,
      "program": 0,
      "isDrum": true
    },
    {
      "pitch": 54,
      "velocity": 100,
      "startTime": 57.77021250000012,
      "endTime": 57.87156375000012,
      "instrument": 9,
      "program": 0,
      "isDrum": true
    },
    {
      "pitch": 38,
      "velocity": 100,
      "startTime": 57.97291500000012,
      "endTime": 58.07426625000012,
      "instrument": 9,
      "program": 0,
      "isDrum": true
    },
    {
      "pitch": 54,
      "velocity": 100,
      "startTime": 57.97291500000012,
      "endTime": 58.07426625000012,
      "instrument": 9,
      "program": 0,
      "isDrum": true
    },
    {
      "pitch": 40,
      "velocity": 100,
      "startTime": 57.98136093750012,
      "endTime": 58.08271218750012,
      "instrument": 9,
      "program": 0,
      "isDrum": true
    },
    {
      "pitch": 54,
      "velocity": 100,
      "startTime": 58.17561750000012,
      "endTime": 58.27696875000012,
      "instrument": 9,
      "program": 0,
      "isDrum": true
    },
    {
      "pitch": 35,
      "velocity": 100,
      "startTime": 58.37832000000012,
      "endTime": 58.47967125000012,
      "instrument": 9,
      "program": 0,
      "isDrum": true
    },
    {
      "pitch": 35,
      "velocity": 100,
      "startTime": 58.37832000000012,
      "endTime": 58.47967125000012,
      "instrument": 9,
      "program": 0,
      "isDrum": true
    },
    {
      "pitch": 54,
      "velocity": 100,
      "startTime": 58.37832000000012,
      "endTime": 58.47967125000012,
      "instrument": 9,
      "program": 0,
      "isDrum": true
    },
    {
      "pitch": 54,
      "velocity": 100,
      "startTime": 58.581022500000124,
      "endTime": 58.682373750000124,
      "instrument": 9,
      "program": 0,
      "isDrum": true
    },
    {
      "pitch": 38,
      "velocity": 100,
      "startTime": 58.783725000000125,
      "endTime": 58.885076250000125,
      "instrument": 9,
      "program": 0,
      "isDrum": true
    },
    {
      "pitch": 54,
      "velocity": 100,
      "startTime": 58.783725000000125,
      "endTime": 58.885076250000125,
      "instrument": 9,
      "program": 0,
      "isDrum": true
    },
    {
      "pitch": 40,
      "velocity": 100,
      "startTime": 58.792170937500124,
      "endTime": 58.893522187500125,
      "instrument": 9,
      "program": 0,
      "isDrum": true
    },
    {
      "pitch": 54,
      "velocity": 100,
      "startTime": 58.986427500000126,
      "endTime": 59.087778750000126,
      "instrument": 9,
      "program": 0,
      "isDrum": true
    },
    {
      "pitch": 35,
      "velocity": 100,
      "startTime": 59.18913000000013,
      "endTime": 59.29048125000013,
      "instrument": 9,
      "program": 0,
      "isDrum": true
    },
    {
      "pitch": 35,
      "velocity": 100,
      "startTime": 59.18913000000013,
      "endTime": 59.29048125000013,
      "instrument": 9,
      "program": 0,
      "isDrum": true
    },
    {
      "pitch": 54,
      "velocity": 100,
      "startTime": 59.18913000000013,
      "endTime": 59.29048125000013,
      "instrument": 9,
      "program": 0,
      "isDrum": true
    },
    {
      "pitch": 35,
      "velocity": 100,
      "startTime": 59.39183250000013,
      "endTime": 59.49318375000013,
      "instrument": 9,
      "program": 0,
      "isDrum": true
    },
    {
      "pitch": 54,
      "velocity": 100,
      "startTime": 59.39183250000013,
      "endTime": 59.49318375000013,
      "instrument": 9,
      "program": 0,
      "isDrum": true
    },
    {
      "pitch": 38,
      "velocity": 100,
      "startTime": 59.59453500000013,
      "endTime": 59.69588625000013,
      "instrument": 9,
      "program": 0,
      "isDrum": true
    },
    {
      "pitch": 54,
      "velocity": 100,
      "startTime": 59.59453500000013,
      "endTime": 59.69588625000013,
      "instrument": 9,
      "program": 0,
      "isDrum": true
    },
    {
      "pitch": 40,
      "velocity": 100,
      "startTime": 59.60298093750013,
      "endTime": 59.70433218750013,
      "instrument": 9,
      "program": 0,
      "isDrum": true
    },
    {
      "pitch": 54,
      "velocity": 100,
      "startTime": 59.79723750000013,
      "endTime": 59.89858875000013,
      "instrument": 9,
      "program": 0,
      "isDrum": true
    },
    {
      "pitch": 40,
      "velocity": 100,
      "startTime": 24.527002500000002,
      "endTime": 24.729705000000003,
      "instrument": 12,
      "program": 18,
      "isDrum": false
    },
    {
      "pitch": 43,
      "velocity": 100,
      "startTime": 26.148622500000002,
      "endTime": 26.351325000000003,
      "instrument": 12,
      "program": 18,
      "isDrum": false
    },
    {
      "pitch": 48,
      "velocity": 100,
      "startTime": 27.770242500000002,
      "endTime": 27.972945000000003,
      "instrument": 12,
      "program": 18,
      "isDrum": false
    },
    {
      "pitch": 45,
      "velocity": 100,
      "startTime": 29.391862500000002,
      "endTime": 29.594565000000003,
      "instrument": 12,
      "program": 18,
      "isDrum": false
    },
    {
      "pitch": 50,
      "velocity": 100,
      "startTime": 31.013482500000002,
      "endTime": 31.216185000000003,
      "instrument": 12,
      "program": 18,
      "isDrum": false
    },
    {
      "pitch": 40,
      "velocity": 100,
      "startTime": 32.6351025,
      "endTime": 32.73645375,
      "instrument": 12,
      "program": 18,
      "isDrum": false
    },
    {
      "pitch": 40,
      "velocity": 100,
      "startTime": 32.837805,
      "endTime": 32.93915625,
      "instrument": 12,
      "program": 18,
      "isDrum": false
    },
    {
      "pitch": 40,
      "velocity": 100,
      "startTime": 33.040507500000004,
      "endTime": 33.141858750000004,
      "instrument": 12,
      "program": 18,
      "isDrum": false
    },
    {
      "pitch": 40,
      "velocity": 100,
      "startTime": 33.243210000000005,
      "endTime": 33.344561250000005,
      "instrument": 12,
      "program": 18,
      "isDrum": false
    },
    {
      "pitch": 40,
      "velocity": 100,
      "startTime": 33.445912500000006,
      "endTime": 33.547263750000006,
      "instrument": 12,
      "program": 18,
      "isDrum": false
    },
    {
      "pitch": 40,
      "velocity": 100,
      "startTime": 33.64861500000001,
      "endTime": 33.74996625000001,
      "instrument": 12,
      "program": 18,
      "isDrum": false
    },
    {
      "pitch": 40,
      "velocity": 100,
      "startTime": 33.85131750000001,
      "endTime": 33.95266875000001,
      "instrument": 12,
      "program": 18,
      "isDrum": false
    },
    {
      "pitch": 43,
      "velocity": 100,
      "startTime": 34.25672250000001,
      "endTime": 34.35807375000001,
      "instrument": 12,
      "program": 18,
      "isDrum": false
    },
    {
      "pitch": 43,
      "velocity": 100,
      "startTime": 34.45942500000001,
      "endTime": 34.56077625000001,
      "instrument": 12,
      "program": 18,
      "isDrum": false
    },
    {
      "pitch": 43,
      "velocity": 100,
      "startTime": 34.66212750000001,
      "endTime": 34.76347875000001,
      "instrument": 12,
      "program": 18,
      "isDrum": false
    },
    {
      "pitch": 43,
      "velocity": 100,
      "startTime": 34.86483000000001,
      "endTime": 34.96618125000001,
      "instrument": 12,
      "program": 18,
      "isDrum": false
    },
    {
      "pitch": 43,
      "velocity": 100,
      "startTime": 35.06753250000001,
      "endTime": 35.16888375000001,
      "instrument": 12,
      "program": 18,
      "isDrum": false
    },
    {
      "pitch": 43,
      "velocity": 100,
      "startTime": 35.270235000000014,
      "endTime": 35.371586250000014,
      "instrument": 12,
      "program": 18,
      "isDrum": false
    },
    {
      "pitch": 43,
      "velocity": 100,
      "startTime": 35.472937500000015,
      "endTime": 35.574288750000015,
      "instrument": 12,
      "program": 18,
      "isDrum": false
    },
    {
      "pitch": 48,
      "velocity": 100,
      "startTime": 35.87834250000002,
      "endTime": 35.97969375000002,
      "instrument": 12,
      "program": 18,
      "isDrum": false
    },
    {
      "pitch": 48,
      "velocity": 100,
      "startTime": 36.08104500000002,
      "endTime": 36.18239625000002,
      "instrument": 12,
      "program": 18,
      "isDrum": false
    },
    {
      "pitch": 48,
      "velocity": 100,
      "startTime": 36.28374750000002,
      "endTime": 36.38509875000002,
      "instrument": 12,
      "program": 18,
      "isDrum": false
    },
    {
      "pitch": 48,
      "velocity": 100,
      "startTime": 36.48645000000002,
      "endTime": 36.58780125000002,
      "instrument": 12,
      "program": 18,
      "isDrum": false
    },
    {
      "pitch": 48,
      "velocity": 100,
      "startTime": 36.68915250000002,
      "endTime": 36.79050375000002,
      "instrument": 12,
      "program": 18,
      "isDrum": false
    },
    {
      "pitch": 48,
      "velocity": 100,
      "startTime": 36.89185500000002,
      "endTime": 36.99320625000002,
      "instrument": 12,
      "program": 18,
      "isDrum": false
    },
    {
      "pitch": 48,
      "velocity": 100,
      "startTime": 37.09455750000002,
      "endTime": 37.19590875000002,
      "instrument": 12,
      "program": 18,
      "isDrum": false
    },
    {
      "pitch": 45,
      "velocity": 100,
      "startTime": 37.499962500000024,
      "endTime": 37.601313750000024,
      "instrument": 12,
      "program": 18,
      "isDrum": false
    },
    {
      "pitch": 45,
      "velocity": 100,
      "startTime": 37.702665000000025,
      "endTime": 37.804016250000025,
      "instrument": 12,
      "program": 18,
      "isDrum": false
    },
    {
      "pitch": 45,
      "velocity": 100,
      "startTime": 37.905367500000025,
      "endTime": 38.006718750000026,
      "instrument": 12,
      "program": 18,
      "isDrum": false
    },
    {
      "pitch": 45,
      "velocity": 100,
      "startTime": 38.108070000000026,
      "endTime": 38.20942125000003,
      "instrument": 12,
      "program": 18,
      "isDrum": false
    },
    {
      "pitch": 45,
      "velocity": 100,
      "startTime": 38.31077250000003,
      "endTime": 38.41212375000003,
      "instrument": 12,
      "program": 18,
      "isDrum": false
    },
    {
      "pitch": 45,
      "velocity": 100,
      "startTime": 38.51347500000003,
      "endTime": 38.61482625000003,
      "instrument": 12,
      "program": 18,
      "isDrum": false
    },
    {
      "pitch": 45,
      "velocity": 100,
      "startTime": 38.71617750000003,
      "endTime": 38.81752875000003,
      "instrument": 12,
      "program": 18,
      "isDrum": false
    },
    {
      "pitch": 50,
      "velocity": 100,
      "startTime": 39.12158250000003,
      "endTime": 39.22293375000003,
      "instrument": 12,
      "program": 18,
      "isDrum": false
    },
    {
      "pitch": 50,
      "velocity": 100,
      "startTime": 39.32428500000003,
      "endTime": 39.42563625000003,
      "instrument": 12,
      "program": 18,
      "isDrum": false
    },
    {
      "pitch": 50,
      "velocity": 100,
      "startTime": 39.52698750000003,
      "endTime": 39.62833875000003,
      "instrument": 12,
      "program": 18,
      "isDrum": false
    },
    {
      "pitch": 50,
      "velocity": 100,
      "startTime": 39.72969000000003,
      "endTime": 39.831041250000034,
      "instrument": 12,
      "program": 18,
      "isDrum": false
    },
    {
      "pitch": 50,
      "velocity": 100,
      "startTime": 39.932392500000034,
      "endTime": 40.033743750000035,
      "instrument": 12,
      "program": 18,
      "isDrum": false
    },
    {
      "pitch": 50,
      "velocity": 100,
      "startTime": 40.135095000000035,
      "endTime": 40.236446250000036,
      "instrument": 12,
      "program": 18,
      "isDrum": false
    },
    {
      "pitch": 50,
      "velocity": 100,
      "startTime": 40.337797500000036,
      "endTime": 40.43914875000004,
      "instrument": 12,
      "program": 18,
      "isDrum": false
    },
    {
      "pitch": 40,
      "velocity": 100,
      "startTime": 40.74320250000004,
      "endTime": 40.84455375000004,
      "instrument": 12,
      "program": 18,
      "isDrum": false
    },
    {
      "pitch": 40,
      "velocity": 100,
      "startTime": 40.94590500000004,
      "endTime": 41.04725625000004,
      "instrument": 12,
      "program": 18,
      "isDrum": false
    },
    {
      "pitch": 40,
      "velocity": 100,
      "startTime": 41.14860750000004,
      "endTime": 41.24995875000004,
      "instrument": 12,
      "program": 18,
      "isDrum": false
    },
    {
      "pitch": 40,
      "velocity": 100,
      "startTime": 41.35131000000004,
      "endTime": 41.45266125000004,
      "instrument": 12,
      "program": 18,
      "isDrum": false
    },
    {
      "pitch": 40,
      "velocity": 100,
      "startTime": 41.55401250000004,
      "endTime": 41.65536375000004,
      "instrument": 12,
      "program": 18,
      "isDrum": false
    },
    {
      "pitch": 40,
      "velocity": 100,
      "startTime": 41.75671500000004,
      "endTime": 41.85806625000004,
      "instrument": 12,
      "program": 18,
      "isDrum": false
    },
    {
      "pitch": 40,
      "velocity": 100,
      "startTime": 41.95941750000004,
      "endTime": 42.060768750000044,
      "instrument": 12,
      "program": 18,
      "isDrum": false
    },
    {
      "pitch": 43,
      "velocity": 100,
      "startTime": 42.364822500000045,
      "endTime": 42.466173750000046,
      "instrument": 12,
      "program": 18,
      "isDrum": false
    },
    {
      "pitch": 43,
      "velocity": 100,
      "startTime": 42.567525000000046,
      "endTime": 42.66887625000005,
      "instrument": 12,
      "program": 18,
      "isDrum": false
    },
    {
      "pitch": 43,
      "velocity": 100,
      "startTime": 42.77022750000005,
      "endTime": 42.87157875000005,
      "instrument": 12,
      "program": 18,
      "isDrum": false
    },
    {
      "pitch": 43,
      "velocity": 100,
      "startTime": 42.97293000000005,
      "endTime": 43.07428125000005,
      "instrument": 12,
      "program": 18,
      "isDrum": false
    },
    {
      "pitch": 43,
      "velocity": 100,
      "startTime": 43.17563250000005,
      "endTime": 43.27698375000005,
      "instrument": 12,
      "program": 18,
      "isDrum": false
    },
    {
      "pitch": 43,
      "velocity": 100,
      "startTime": 43.37833500000005,
      "endTime": 43.47968625000005,
      "instrument": 12,
      "program": 18,
      "isDrum": false
    },
    {
      "pitch": 43,
      "velocity": 100,
      "startTime": 43.58103750000005,
      "endTime": 43.68238875000005,
      "instrument": 12,
      "program": 18,
      "isDrum": false
    },
    {
      "pitch": 48,
      "velocity": 100,
      "startTime": 43.98644250000005,
      "endTime": 44.08779375000005,
      "instrument": 12,
      "program": 18,
      "isDrum": false
    },
    {
      "pitch": 48,
      "velocity": 100,
      "startTime": 44.18914500000005,
      "endTime": 44.290496250000054,
      "instrument": 12,
      "program": 18,
      "isDrum": false
    },
    {
      "pitch": 48,
      "velocity": 100,
      "startTime": 44.391847500000054,
      "endTime": 44.493198750000055,
      "instrument": 12,
      "program": 18,
      "isDrum": false
    },
    {
      "pitch": 48,
      "velocity": 100,
      "startTime": 44.594550000000055,
      "endTime": 44.695901250000055,
      "instrument": 12,
      "program": 18,
      "isDrum": false
    },
    {
      "pitch": 48,
      "velocity": 100,
      "startTime": 44.797252500000056,
      "endTime": 44.898603750000056,
      "instrument": 12,
      "program": 18,
      "isDrum": false
    },
    {
      "pitch": 48,
      "velocity": 100,
      "startTime": 44.99995500000006,
      "endTime": 45.10130625000006,
      "instrument": 12,
      "program": 18,
      "isDrum": false
    },
    {
      "pitch": 48,
      "velocity": 100,
      "startTime": 45.20265750000006,
      "endTime": 45.30400875000006,
      "instrument": 12,
      "program": 18,
      "isDrum": false
    },
    {
      "pitch": 45,
      "velocity": 100,
      "startTime": 45.60806250000006,
      "endTime": 45.70941375000006,
      "instrument": 12,
      "program": 18,
      "isDrum": false
    },
    {
      "pitch": 45,
      "velocity": 100,
      "startTime": 45.81076500000006,
      "endTime": 45.91211625000006,
      "instrument": 12,
      "program": 18,
      "isDrum": false
    },
    {
      "pitch": 45,
      "velocity": 100,
      "startTime": 46.01346750000006,
      "endTime": 46.11481875000006,
      "instrument": 12,
      "program": 18,
      "isDrum": false
    },
    {
      "pitch": 45,
      "velocity": 100,
      "startTime": 46.21617000000006,
      "endTime": 46.31752125000006,
      "instrument": 12,
      "program": 18,
      "isDrum": false
    },
    {
      "pitch": 45,
      "velocity": 100,
      "startTime": 46.41887250000006,
      "endTime": 46.52022375000006,
      "instrument": 12,
      "program": 18,
      "isDrum": false
    },
    {
      "pitch": 45,
      "velocity": 100,
      "startTime": 46.621575000000064,
      "endTime": 46.722926250000064,
      "instrument": 12,
      "program": 18,
      "isDrum": false
    },
    {
      "pitch": 45,
      "velocity": 100,
      "startTime": 46.824277500000065,
      "endTime": 46.925628750000065,
      "instrument": 12,
      "program": 18,
      "isDrum": false
    },
    {
      "pitch": 50,
      "velocity": 100,
      "startTime": 47.22968250000007,
      "endTime": 47.33103375000007,
      "instrument": 12,
      "program": 18,
      "isDrum": false
    },
    {
      "pitch": 50,
      "velocity": 100,
      "startTime": 47.43238500000007,
      "endTime": 47.53373625000007,
      "instrument": 12,
      "program": 18,
      "isDrum": false
    },
    {
      "pitch": 50,
      "velocity": 100,
      "startTime": 47.63508750000007,
      "endTime": 47.73643875000007,
      "instrument": 12,
      "program": 18,
      "isDrum": false
    },
    {
      "pitch": 50,
      "velocity": 100,
      "startTime": 47.83779000000007,
      "endTime": 47.93914125000007,
      "instrument": 12,
      "program": 18,
      "isDrum": false
    },
    {
      "pitch": 50,
      "velocity": 100,
      "startTime": 48.04049250000007,
      "endTime": 48.14184375000007,
      "instrument": 12,
      "program": 18,
      "isDrum": false
    },
    {
      "pitch": 50,
      "velocity": 100,
      "startTime": 48.24319500000007,
      "endTime": 48.34454625000007,
      "instrument": 12,
      "program": 18,
      "isDrum": false
    },
    {
      "pitch": 50,
      "velocity": 100,
      "startTime": 48.44589750000007,
      "endTime": 48.54724875000007,
      "instrument": 12,
      "program": 18,
      "isDrum": false
    },
    {
      "pitch": 40,
      "velocity": 100,
      "startTime": 48.64860000000007,
      "endTime": 48.74995125000007,
      "instrument": 12,
      "program": 18,
      "isDrum": false
    },
    {
      "pitch": 40,
      "velocity": 100,
      "startTime": 48.851302500000074,
      "endTime": 48.952653750000074,
      "instrument": 12,
      "program": 18,
      "isDrum": false
    },
    {
      "pitch": 40,
      "velocity": 100,
      "startTime": 49.054005000000075,
      "endTime": 49.155356250000075,
      "instrument": 12,
      "program": 18,
      "isDrum": false
    },
    {
      "pitch": 40,
      "velocity": 100,
      "startTime": 49.256707500000076,
      "endTime": 49.358058750000076,
      "instrument": 12,
      "program": 18,
      "isDrum": false
    },
    {
      "pitch": 40,
      "velocity": 100,
      "startTime": 49.45941000000008,
      "endTime": 49.56076125000008,
      "instrument": 12,
      "program": 18,
      "isDrum": false
    },
    {
      "pitch": 40,
      "velocity": 100,
      "startTime": 49.66211250000008,
      "endTime": 49.76346375000008,
      "instrument": 12,
      "program": 18,
      "isDrum": false
    },
    {
      "pitch": 40,
      "velocity": 100,
      "startTime": 49.86481500000008,
      "endTime": 49.96616625000008,
      "instrument": 12,
      "program": 18,
      "isDrum": false
    },
    {
      "pitch": 40,
      "velocity": 100,
      "startTime": 50.06751750000008,
      "endTime": 50.16886875000008,
      "instrument": 12,
      "program": 18,
      "isDrum": false
    },
    {
      "pitch": 43,
      "velocity": 100,
      "startTime": 50.27022000000008,
      "endTime": 50.37157125000008,
      "instrument": 12,
      "program": 18,
      "isDrum": false
    },
    {
      "pitch": 43,
      "velocity": 100,
      "startTime": 50.47292250000008,
      "endTime": 50.57427375000008,
      "instrument": 12,
      "program": 18,
      "isDrum": false
    },
    {
      "pitch": 43,
      "velocity": 100,
      "startTime": 50.67562500000008,
      "endTime": 50.77697625000008,
      "instrument": 12,
      "program": 18,
      "isDrum": false
    },
    {
      "pitch": 43,
      "velocity": 100,
      "startTime": 50.87832750000008,
      "endTime": 50.97967875000008,
      "instrument": 12,
      "program": 18,
      "isDrum": false
    },
    {
      "pitch": 43,
      "velocity": 100,
      "startTime": 51.081030000000084,
      "endTime": 51.182381250000084,
      "instrument": 12,
      "program": 18,
      "isDrum": false
    },
    {
      "pitch": 43,
      "velocity": 100,
      "startTime": 51.283732500000085,
      "endTime": 51.385083750000085,
      "instrument": 12,
      "program": 18,
      "isDrum": false
    },
    {
      "pitch": 43,
      "velocity": 100,
      "startTime": 51.486435000000085,
      "endTime": 51.587786250000086,
      "instrument": 12,
      "program": 18,
      "isDrum": false
    },
    {
      "pitch": 43,
      "velocity": 100,
      "startTime": 51.689137500000086,
      "endTime": 51.79048875000009,
      "instrument": 12,
      "program": 18,
      "isDrum": false
    },
    {
      "pitch": 48,
      "velocity": 100,
      "startTime": 51.89184000000009,
      "endTime": 51.99319125000009,
      "instrument": 12,
      "program": 18,
      "isDrum": false
    },
    {
      "pitch": 48,
      "velocity": 100,
      "startTime": 52.09454250000009,
      "endTime": 52.19589375000009,
      "instrument": 12,
      "program": 18,
      "isDrum": false
    },
    {
      "pitch": 48,
      "velocity": 100,
      "startTime": 52.29724500000009,
      "endTime": 52.39859625000009,
      "instrument": 12,
      "program": 18,
      "isDrum": false
    },
    {
      "pitch": 48,
      "velocity": 100,
      "startTime": 52.49994750000009,
      "endTime": 52.60129875000009,
      "instrument": 12,
      "program": 18,
      "isDrum": false
    },
    {
      "pitch": 48,
      "velocity": 100,
      "startTime": 52.70265000000009,
      "endTime": 52.80400125000009,
      "instrument": 12,
      "program": 18,
      "isDrum": false
    },
    {
      "pitch": 48,
      "velocity": 100,
      "startTime": 52.90535250000009,
      "endTime": 53.00670375000009,
      "instrument": 12,
      "program": 18,
      "isDrum": false
    },
    {
      "pitch": 48,
      "velocity": 100,
      "startTime": 53.10805500000009,
      "endTime": 53.20940625000009,
      "instrument": 12,
      "program": 18,
      "isDrum": false
    },
    {
      "pitch": 48,
      "velocity": 100,
      "startTime": 53.31075750000009,
      "endTime": 53.412108750000094,
      "instrument": 12,
      "program": 18,
      "isDrum": false
    },
    {
      "pitch": 45,
      "velocity": 100,
      "startTime": 53.513460000000094,
      "endTime": 53.614811250000095,
      "instrument": 12,
      "program": 18,
      "isDrum": false
    },
    {
      "pitch": 45,
      "velocity": 100,
      "startTime": 53.716162500000095,
      "endTime": 53.817513750000096,
      "instrument": 12,
      "program": 18,
      "isDrum": false
    },
    {
      "pitch": 45,
      "velocity": 100,
      "startTime": 53.918865000000096,
      "endTime": 54.0202162500001,
      "instrument": 12,
      "program": 18,
      "isDrum": false
    },
    {
      "pitch": 45,
      "velocity": 100,
      "startTime": 54.1215675000001,
      "endTime": 54.2229187500001,
      "instrument": 12,
      "program": 18,
      "isDrum": false
    },
    {
      "pitch": 45,
      "velocity": 100,
      "startTime": 54.3242700000001,
      "endTime": 54.4256212500001,
      "instrument": 12,
      "program": 18,
      "isDrum": false
    },
    {
      "pitch": 45,
      "velocity": 100,
      "startTime": 54.5269725000001,
      "endTime": 54.6283237500001,
      "instrument": 12,
      "program": 18,
      "isDrum": false
    },
    {
      "pitch": 45,
      "velocity": 100,
      "startTime": 54.7296750000001,
      "endTime": 54.8310262500001,
      "instrument": 12,
      "program": 18,
      "isDrum": false
    },
    {
      "pitch": 45,
      "velocity": 100,
      "startTime": 54.9323775000001,
      "endTime": 55.0337287500001,
      "instrument": 12,
      "program": 18,
      "isDrum": false
    },
    {
      "pitch": 50,
      "velocity": 100,
      "startTime": 55.1350800000001,
      "endTime": 55.2364312500001,
      "instrument": 12,
      "program": 18,
      "isDrum": false
    },
    {
      "pitch": 50,
      "velocity": 100,
      "startTime": 55.3377825000001,
      "endTime": 55.4391337500001,
      "instrument": 12,
      "program": 18,
      "isDrum": false
    },
    {
      "pitch": 50,
      "velocity": 100,
      "startTime": 55.5404850000001,
      "endTime": 55.641836250000104,
      "instrument": 12,
      "program": 18,
      "isDrum": false
    },
    {
      "pitch": 50,
      "velocity": 100,
      "startTime": 55.743187500000104,
      "endTime": 55.844538750000105,
      "instrument": 12,
      "program": 18,
      "isDrum": false
    },
    {
      "pitch": 50,
      "velocity": 100,
      "startTime": 55.945890000000105,
      "endTime": 56.047241250000106,
      "instrument": 12,
      "program": 18,
      "isDrum": false
    },
    {
      "pitch": 50,
      "velocity": 100,
      "startTime": 56.148592500000106,
      "endTime": 56.24994375000011,
      "instrument": 12,
      "program": 18,
      "isDrum": false
    },
    {
      "pitch": 50,
      "velocity": 100,
      "startTime": 56.35129500000011,
      "endTime": 56.45264625000011,
      "instrument": 12,
      "program": 18,
      "isDrum": false
    },
    {
      "pitch": 50,
      "velocity": 100,
      "startTime": 56.55399750000011,
      "endTime": 56.65534875000011,
      "instrument": 12,
      "program": 18,
      "isDrum": false
    },
    {
      "pitch": 40,
      "velocity": 100,
      "startTime": 56.75670000000011,
      "endTime": 56.85805125000011,
      "instrument": 12,
      "program": 18,
      "isDrum": false
    },
    {
      "pitch": 40,
      "velocity": 100,
      "startTime": 56.95940250000011,
      "endTime": 57.06075375000011,
      "instrument": 12,
      "program": 18,
      "isDrum": false
    },
    {
      "pitch": 40,
      "velocity": 100,
      "startTime": 57.16210500000011,
      "endTime": 57.26345625000011,
      "instrument": 12,
      "program": 18,
      "isDrum": false
    },
    {
      "pitch": 40,
      "velocity": 100,
      "startTime": 57.36480750000011,
      "endTime": 57.46615875000011,
      "instrument": 12,
      "program": 18,
      "isDrum": false
    },
    {
      "pitch": 40,
      "velocity": 100,
      "startTime": 57.56751000000011,
      "endTime": 57.66886125000011,
      "instrument": 12,
      "program": 18,
      "isDrum": false
    },
    {
      "pitch": 40,
      "velocity": 100,
      "startTime": 57.77021250000011,
      "endTime": 57.871563750000114,
      "instrument": 12,
      "program": 18,
      "isDrum": false
    },
    {
      "pitch": 40,
      "velocity": 100,
      "startTime": 57.972915000000114,
      "endTime": 58.074266250000115,
      "instrument": 12,
      "program": 18,
      "isDrum": false
    },
    {
      "pitch": 40,
      "velocity": 100,
      "startTime": 58.175617500000115,
      "endTime": 58.276968750000115,
      "instrument": 12,
      "program": 18,
      "isDrum": false
    },
    {
      "pitch": 43,
      "velocity": 100,
      "startTime": 58.378320000000116,
      "endTime": 58.479671250000116,
      "instrument": 12,
      "program": 18,
      "isDrum": false
    },
    {
      "pitch": 43,
      "velocity": 100,
      "startTime": 58.58102250000012,
      "endTime": 58.68237375000012,
      "instrument": 12,
      "program": 18,
      "isDrum": false
    },
    {
      "pitch": 43,
      "velocity": 100,
      "startTime": 58.78372500000012,
      "endTime": 58.88507625000012,
      "instrument": 12,
      "program": 18,
      "isDrum": false
    },
    {
      "pitch": 43,
      "velocity": 100,
      "startTime": 58.98642750000012,
      "endTime": 59.08777875000012,
      "instrument": 12,
      "program": 18,
      "isDrum": false
    },
    {
      "pitch": 43,
      "velocity": 100,
      "startTime": 59.18913000000012,
      "endTime": 59.29048125000012,
      "instrument": 12,
      "program": 18,
      "isDrum": false
    },
    {
      "pitch": 43,
      "velocity": 100,
      "startTime": 59.39183250000012,
      "endTime": 59.49318375000012,
      "instrument": 12,
      "program": 18,
      "isDrum": false
    },
    {
      "pitch": 43,
      "velocity": 100,
      "startTime": 59.59453500000012,
      "endTime": 59.69588625000012,
      "instrument": 12,
      "program": 18,
      "isDrum": false
    },
    {
      "pitch": 43,
      "velocity": 100,
      "startTime": 59.79723750000012,
      "endTime": 59.89858875000012,
      "instrument": 12,
      "program": 18,
      "isDrum": false
    }
  ],
  "totalTime": 60,
  "sourceInfo": {
    "encodingType": "MIDI",
    "parser": "TONEJS_MIDI_CONVERT"
  }
}
