let whipIt = {
  "ticksPerQuarter": 120,
  "timeSignatures": [
    {
      "time": 0,
      "numerator": 4,
      "denominator": 4
    }
  ],
  "tempos": [
    {
      "time": 0,
      "qpm": 165.000165000165
    }
  ],
  "notes": [
    {
      "pitch": 35,
      "velocity": 117,
      "startTime": 0,
      "endTime": 0.0151515,
      "instrument": 0,
      "program": -1,
      "isDrum": true
    },
    {
      "pitch": 42,
      "velocity": 81,
      "startTime": 0.181818,
      "endTime": 0.19696950000000002,
      "instrument": 0,
      "program": -1,
      "isDrum": true
    },
    {
      "pitch": 42,
      "velocity": 69,
      "startTime": 0.27272700000000005,
      "endTime": 0.28787850000000004,
      "instrument": 0,
      "program": -1,
      "isDrum": true
    },
    {
      "pitch": 38,
      "velocity": 123,
      "startTime": 0.36363600000000007,
      "endTime": 0.37878750000000005,
      "instrument": 0,
      "program": -1,
      "isDrum": true
    },
    {
      "pitch": 35,
      "velocity": 94,
      "startTime": 0.36363600000000007,
      "endTime": 0.37878750000000005,
      "instrument": 0,
      "program": -1,
      "isDrum": true
    },
    {
      "pitch": 42,
      "velocity": 123,
      "startTime": 0.36363600000000007,
      "endTime": 0.37878750000000005,
      "instrument": 0,
      "program": -1,
      "isDrum": true
    },
    {
      "pitch": 42,
      "velocity": 92,
      "startTime": 0.5454540000000001,
      "endTime": 0.5606055000000001,
      "instrument": 0,
      "program": -1,
      "isDrum": true
    },
    {
      "pitch": 42,
      "velocity": 84,
      "startTime": 0.6363630000000001,
      "endTime": 0.6515145000000001,
      "instrument": 0,
      "program": -1,
      "isDrum": true
    },
    {
      "pitch": 35,
      "velocity": 113,
      "startTime": 0.7272720000000001,
      "endTime": 0.7424235000000001,
      "instrument": 0,
      "program": -1,
      "isDrum": true
    },
    {
      "pitch": 42,
      "velocity": 123,
      "startTime": 0.7272720000000001,
      "endTime": 0.7424235000000001,
      "instrument": 0,
      "program": -1,
      "isDrum": true
    },
    {
      "pitch": 42,
      "velocity": 92,
      "startTime": 0.9090900000000002,
      "endTime": 0.9242415000000002,
      "instrument": 0,
      "program": -1,
      "isDrum": true
    },
    {
      "pitch": 42,
      "velocity": 68,
      "startTime": 0.9999990000000002,
      "endTime": 1.0151505000000003,
      "instrument": 0,
      "program": -1,
      "isDrum": true
    },
    {
      "pitch": 38,
      "velocity": 123,
      "startTime": 1.0909080000000002,
      "endTime": 1.1060595000000002,
      "instrument": 0,
      "program": -1,
      "isDrum": true
    },
    {
      "pitch": 35,
      "velocity": 104,
      "startTime": 1.0909080000000002,
      "endTime": 1.1060595000000002,
      "instrument": 0,
      "program": -1,
      "isDrum": true
    },
    {
      "pitch": 42,
      "velocity": 123,
      "startTime": 1.0909080000000002,
      "endTime": 1.1060595000000002,
      "instrument": 0,
      "program": -1,
      "isDrum": true
    },
    {
      "pitch": 42,
      "velocity": 79,
      "startTime": 1.2727260000000002,
      "endTime": 1.2878775000000002,
      "instrument": 0,
      "program": -1,
      "isDrum": true
    },
    {
      "pitch": 42,
      "velocity": 62,
      "startTime": 1.3636350000000002,
      "endTime": 1.3787865000000001,
      "instrument": 0,
      "program": -1,
      "isDrum": true
    },
    {
      "pitch": 35,
      "velocity": 117,
      "startTime": 1.454544,
      "endTime": 1.4696955,
      "instrument": 0,
      "program": -1,
      "isDrum": true
    },
    {
      "pitch": 42,
      "velocity": 123,
      "startTime": 1.454544,
      "endTime": 1.4696955,
      "instrument": 0,
      "program": -1,
      "isDrum": true
    },
    {
      "pitch": 42,
      "velocity": 81,
      "startTime": 1.636362,
      "endTime": 1.6515135,
      "instrument": 0,
      "program": -1,
      "isDrum": true
    },
    {
      "pitch": 42,
      "velocity": 69,
      "startTime": 1.727271,
      "endTime": 1.7424225,
      "instrument": 0,
      "program": -1,
      "isDrum": true
    },
    {
      "pitch": 38,
      "velocity": 123,
      "startTime": 1.81818,
      "endTime": 1.8333315,
      "instrument": 0,
      "program": -1,
      "isDrum": true
    },
    {
      "pitch": 35,
      "velocity": 94,
      "startTime": 1.81818,
      "endTime": 1.8333315,
      "instrument": 0,
      "program": -1,
      "isDrum": true
    },
    {
      "pitch": 42,
      "velocity": 123,
      "startTime": 1.81818,
      "endTime": 1.8333315,
      "instrument": 0,
      "program": -1,
      "isDrum": true
    },
    {
      "pitch": 42,
      "velocity": 92,
      "startTime": 1.999998,
      "endTime": 2.0151495,
      "instrument": 0,
      "program": -1,
      "isDrum": true
    },
    {
      "pitch": 42,
      "velocity": 84,
      "startTime": 2.090907,
      "endTime": 2.1060585,
      "instrument": 0,
      "program": -1,
      "isDrum": true
    },
    {
      "pitch": 35,
      "velocity": 113,
      "startTime": 2.181816,
      "endTime": 2.1969675,
      "instrument": 0,
      "program": -1,
      "isDrum": true
    },
    {
      "pitch": 42,
      "velocity": 123,
      "startTime": 2.181816,
      "endTime": 2.1969675,
      "instrument": 0,
      "program": -1,
      "isDrum": true
    },
    {
      "pitch": 42,
      "velocity": 92,
      "startTime": 2.363634,
      "endTime": 2.3787854999999998,
      "instrument": 0,
      "program": -1,
      "isDrum": true
    },
    {
      "pitch": 42,
      "velocity": 68,
      "startTime": 2.4545429999999997,
      "endTime": 2.4696944999999997,
      "instrument": 0,
      "program": -1,
      "isDrum": true
    },
    {
      "pitch": 38,
      "velocity": 123,
      "startTime": 2.5454519999999996,
      "endTime": 2.5606034999999996,
      "instrument": 0,
      "program": -1,
      "isDrum": true
    },
    {
      "pitch": 35,
      "velocity": 104,
      "startTime": 2.5454519999999996,
      "endTime": 2.5606034999999996,
      "instrument": 0,
      "program": -1,
      "isDrum": true
    },
    {
      "pitch": 42,
      "velocity": 123,
      "startTime": 2.5454519999999996,
      "endTime": 2.5606034999999996,
      "instrument": 0,
      "program": -1,
      "isDrum": true
    },
    {
      "pitch": 42,
      "velocity": 79,
      "startTime": 2.7272699999999994,
      "endTime": 2.7424214999999994,
      "instrument": 0,
      "program": -1,
      "isDrum": true
    },
    {
      "pitch": 42,
      "velocity": 62,
      "startTime": 2.8181789999999993,
      "endTime": 2.8333304999999993,
      "instrument": 0,
      "program": -1,
      "isDrum": true
    },
    {
      "pitch": 35,
      "velocity": 117,
      "startTime": 2.9090879999999992,
      "endTime": 2.924239499999999,
      "instrument": 0,
      "program": -1,
      "isDrum": true
    },
    {
      "pitch": 42,
      "velocity": 123,
      "startTime": 2.9090879999999992,
      "endTime": 2.924239499999999,
      "instrument": 0,
      "program": -1,
      "isDrum": true
    },
    {
      "pitch": 42,
      "velocity": 81,
      "startTime": 3.090905999999999,
      "endTime": 3.106057499999999,
      "instrument": 0,
      "program": -1,
      "isDrum": true
    },
    {
      "pitch": 42,
      "velocity": 69,
      "startTime": 3.181814999999999,
      "endTime": 3.196966499999999,
      "instrument": 0,
      "program": -1,
      "isDrum": true
    },
    {
      "pitch": 38,
      "velocity": 123,
      "startTime": 3.272723999999999,
      "endTime": 3.287875499999999,
      "instrument": 0,
      "program": -1,
      "isDrum": true
    },
    {
      "pitch": 35,
      "velocity": 94,
      "startTime": 3.272723999999999,
      "endTime": 3.287875499999999,
      "instrument": 0,
      "program": -1,
      "isDrum": true
    },
    {
      "pitch": 42,
      "velocity": 123,
      "startTime": 3.272723999999999,
      "endTime": 3.287875499999999,
      "instrument": 0,
      "program": -1,
      "isDrum": true
    },
    {
      "pitch": 42,
      "velocity": 92,
      "startTime": 3.4545419999999987,
      "endTime": 3.4696934999999987,
      "instrument": 0,
      "program": -1,
      "isDrum": true
    },
    {
      "pitch": 42,
      "velocity": 84,
      "startTime": 3.5454509999999986,
      "endTime": 3.5606024999999986,
      "instrument": 0,
      "program": -1,
      "isDrum": true
    },
    {
      "pitch": 35,
      "velocity": 113,
      "startTime": 3.6363599999999985,
      "endTime": 3.6515114999999985,
      "instrument": 0,
      "program": -1,
      "isDrum": true
    },
    {
      "pitch": 42,
      "velocity": 123,
      "startTime": 3.6363599999999985,
      "endTime": 3.6515114999999985,
      "instrument": 0,
      "program": -1,
      "isDrum": true
    },
    {
      "pitch": 42,
      "velocity": 92,
      "startTime": 3.8181779999999983,
      "endTime": 3.8333294999999983,
      "instrument": 0,
      "program": -1,
      "isDrum": true
    },
    {
      "pitch": 42,
      "velocity": 68,
      "startTime": 3.909086999999998,
      "endTime": 3.924238499999998,
      "instrument": 0,
      "program": -1,
      "isDrum": true
    },
    {
      "pitch": 38,
      "velocity": 123,
      "startTime": 3.999995999999998,
      "endTime": 4.0151474999999985,
      "instrument": 0,
      "program": -1,
      "isDrum": true
    },
    {
      "pitch": 35,
      "velocity": 104,
      "startTime": 3.999995999999998,
      "endTime": 4.0151474999999985,
      "instrument": 0,
      "program": -1,
      "isDrum": true
    },
    {
      "pitch": 42,
      "velocity": 123,
      "startTime": 3.999995999999998,
      "endTime": 4.0151474999999985,
      "instrument": 0,
      "program": -1,
      "isDrum": true
    },
    {
      "pitch": 42,
      "velocity": 79,
      "startTime": 4.181813999999998,
      "endTime": 4.196965499999998,
      "instrument": 0,
      "program": -1,
      "isDrum": true
    },
    {
      "pitch": 42,
      "velocity": 62,
      "startTime": 4.272722999999998,
      "endTime": 4.287874499999998,
      "instrument": 0,
      "program": -1,
      "isDrum": true
    },
    {
      "pitch": 35,
      "velocity": 117,
      "startTime": 4.363631999999998,
      "endTime": 4.378783499999998,
      "instrument": 0,
      "program": -1,
      "isDrum": true
    },
    {
      "pitch": 42,
      "velocity": 123,
      "startTime": 4.363631999999998,
      "endTime": 4.378783499999998,
      "instrument": 0,
      "program": -1,
      "isDrum": true
    },
    {
      "pitch": 42,
      "velocity": 81,
      "startTime": 4.545449999999998,
      "endTime": 4.560601499999998,
      "instrument": 0,
      "program": -1,
      "isDrum": true
    },
    {
      "pitch": 42,
      "velocity": 69,
      "startTime": 4.636358999999998,
      "endTime": 4.651510499999998,
      "instrument": 0,
      "program": -1,
      "isDrum": true
    },
    {
      "pitch": 38,
      "velocity": 123,
      "startTime": 4.727267999999998,
      "endTime": 4.742419499999998,
      "instrument": 0,
      "program": -1,
      "isDrum": true
    },
    {
      "pitch": 35,
      "velocity": 94,
      "startTime": 4.727267999999998,
      "endTime": 4.742419499999998,
      "instrument": 0,
      "program": -1,
      "isDrum": true
    },
    {
      "pitch": 42,
      "velocity": 123,
      "startTime": 4.727267999999998,
      "endTime": 4.742419499999998,
      "instrument": 0,
      "program": -1,
      "isDrum": true
    },
    {
      "pitch": 42,
      "velocity": 92,
      "startTime": 4.909085999999998,
      "endTime": 4.924237499999998,
      "instrument": 0,
      "program": -1,
      "isDrum": true
    },
    {
      "pitch": 42,
      "velocity": 84,
      "startTime": 4.9999949999999975,
      "endTime": 5.0151464999999975,
      "instrument": 0,
      "program": -1,
      "isDrum": true
    },
    {
      "pitch": 35,
      "velocity": 113,
      "startTime": 5.090903999999997,
      "endTime": 5.106055499999997,
      "instrument": 0,
      "program": -1,
      "isDrum": true
    },
    {
      "pitch": 42,
      "velocity": 123,
      "startTime": 5.090903999999997,
      "endTime": 5.106055499999997,
      "instrument": 0,
      "program": -1,
      "isDrum": true
    },
    {
      "pitch": 42,
      "velocity": 92,
      "startTime": 5.272721999999997,
      "endTime": 5.287873499999997,
      "instrument": 0,
      "program": -1,
      "isDrum": true
    },
    {
      "pitch": 42,
      "velocity": 68,
      "startTime": 5.363630999999997,
      "endTime": 5.378782499999997,
      "instrument": 0,
      "program": -1,
      "isDrum": true
    },
    {
      "pitch": 38,
      "velocity": 123,
      "startTime": 5.454539999999997,
      "endTime": 5.469691499999997,
      "instrument": 0,
      "program": -1,
      "isDrum": true
    },
    {
      "pitch": 35,
      "velocity": 104,
      "startTime": 5.454539999999997,
      "endTime": 5.469691499999997,
      "instrument": 0,
      "program": -1,
      "isDrum": true
    },
    {
      "pitch": 42,
      "velocity": 123,
      "startTime": 5.454539999999997,
      "endTime": 5.469691499999997,
      "instrument": 0,
      "program": -1,
      "isDrum": true
    },
    {
      "pitch": 42,
      "velocity": 79,
      "startTime": 5.636357999999997,
      "endTime": 5.651509499999997,
      "instrument": 0,
      "program": -1,
      "isDrum": true
    },
    {
      "pitch": 42,
      "velocity": 62,
      "startTime": 5.727266999999997,
      "endTime": 5.742418499999997,
      "instrument": 0,
      "program": -1,
      "isDrum": true
    },
    {
      "pitch": 35,
      "velocity": 117,
      "startTime": 5.818175999999997,
      "endTime": 5.833327499999997,
      "instrument": 0,
      "program": -1,
      "isDrum": true
    },
    {
      "pitch": 42,
      "velocity": 123,
      "startTime": 5.818175999999997,
      "endTime": 5.833327499999997,
      "instrument": 0,
      "program": -1,
      "isDrum": true
    },
    {
      "pitch": 42,
      "velocity": 81,
      "startTime": 5.9999939999999965,
      "endTime": 6.0151454999999965,
      "instrument": 0,
      "program": -1,
      "isDrum": true
    },
    {
      "pitch": 42,
      "velocity": 69,
      "startTime": 6.090902999999996,
      "endTime": 6.106054499999996,
      "instrument": 0,
      "program": -1,
      "isDrum": true
    },
    {
      "pitch": 38,
      "velocity": 123,
      "startTime": 6.181811999999996,
      "endTime": 6.196963499999996,
      "instrument": 0,
      "program": -1,
      "isDrum": true
    },
    {
      "pitch": 35,
      "velocity": 94,
      "startTime": 6.181811999999996,
      "endTime": 6.196963499999996,
      "instrument": 0,
      "program": -1,
      "isDrum": true
    },
    {
      "pitch": 42,
      "velocity": 123,
      "startTime": 6.181811999999996,
      "endTime": 6.196963499999996,
      "instrument": 0,
      "program": -1,
      "isDrum": true
    },
    {
      "pitch": 42,
      "velocity": 92,
      "startTime": 6.363629999999996,
      "endTime": 6.378781499999996,
      "instrument": 0,
      "program": -1,
      "isDrum": true
    },
    {
      "pitch": 42,
      "velocity": 84,
      "startTime": 6.454538999999996,
      "endTime": 6.469690499999996,
      "instrument": 0,
      "program": -1,
      "isDrum": true
    },
    {
      "pitch": 35,
      "velocity": 113,
      "startTime": 6.545447999999996,
      "endTime": 6.560599499999996,
      "instrument": 0,
      "program": -1,
      "isDrum": true
    },
    {
      "pitch": 42,
      "velocity": 123,
      "startTime": 6.545447999999996,
      "endTime": 6.560599499999996,
      "instrument": 0,
      "program": -1,
      "isDrum": true
    },
    {
      "pitch": 42,
      "velocity": 92,
      "startTime": 6.727265999999996,
      "endTime": 6.742417499999996,
      "instrument": 0,
      "program": -1,
      "isDrum": true
    },
    {
      "pitch": 42,
      "velocity": 68,
      "startTime": 6.818174999999996,
      "endTime": 6.833326499999996,
      "instrument": 0,
      "program": -1,
      "isDrum": true
    },
    {
      "pitch": 38,
      "velocity": 123,
      "startTime": 6.909083999999996,
      "endTime": 6.9242354999999955,
      "instrument": 0,
      "program": -1,
      "isDrum": true
    },
    {
      "pitch": 35,
      "velocity": 104,
      "startTime": 6.909083999999996,
      "endTime": 6.9242354999999955,
      "instrument": 0,
      "program": -1,
      "isDrum": true
    },
    {
      "pitch": 42,
      "velocity": 123,
      "startTime": 6.909083999999996,
      "endTime": 6.9242354999999955,
      "instrument": 0,
      "program": -1,
      "isDrum": true
    },
    {
      "pitch": 42,
      "velocity": 79,
      "startTime": 7.090901999999995,
      "endTime": 7.106053499999995,
      "instrument": 0,
      "program": -1,
      "isDrum": true
    },
    {
      "pitch": 42,
      "velocity": 62,
      "startTime": 7.181810999999995,
      "endTime": 7.196962499999995,
      "instrument": 0,
      "program": -1,
      "isDrum": true
    },
    {
      "pitch": 35,
      "velocity": 117,
      "startTime": 7.272719999999995,
      "endTime": 7.287871499999995,
      "instrument": 0,
      "program": -1,
      "isDrum": true
    },
    {
      "pitch": 42,
      "velocity": 123,
      "startTime": 7.272719999999995,
      "endTime": 7.287871499999995,
      "instrument": 0,
      "program": -1,
      "isDrum": true
    },
    {
      "pitch": 42,
      "velocity": 81,
      "startTime": 7.454537999999995,
      "endTime": 7.469689499999995,
      "instrument": 0,
      "program": -1,
      "isDrum": true
    },
    {
      "pitch": 42,
      "velocity": 69,
      "startTime": 7.545446999999995,
      "endTime": 7.560598499999995,
      "instrument": 0,
      "program": -1,
      "isDrum": true
    },
    {
      "pitch": 49,
      "velocity": 120,
      "startTime": 7.636355999999995,
      "endTime": 7.999991999999994,
      "instrument": 0,
      "program": -1,
      "isDrum": true
    },
    {
      "pitch": 52,
      "velocity": 120,
      "startTime": 7.636355999999995,
      "endTime": 7.999991999999994,
      "instrument": 0,
      "program": -1,
      "isDrum": true
    },
    {
      "pitch": 38,
      "velocity": 123,
      "startTime": 7.636355999999995,
      "endTime": 7.651507499999995,
      "instrument": 0,
      "program": -1,
      "isDrum": true
    },
    {
      "pitch": 35,
      "velocity": 94,
      "startTime": 7.636355999999995,
      "endTime": 7.651507499999995,
      "instrument": 0,
      "program": -1,
      "isDrum": true
    },
    {
      "pitch": 42,
      "velocity": 123,
      "startTime": 7.636355999999995,
      "endTime": 7.651507499999995,
      "instrument": 0,
      "program": -1,
      "isDrum": true
    },
    {
      "pitch": 42,
      "velocity": 92,
      "startTime": 7.818173999999995,
      "endTime": 7.833325499999995,
      "instrument": 0,
      "program": -1,
      "isDrum": true
    },
    {
      "pitch": 42,
      "velocity": 84,
      "startTime": 7.9090829999999945,
      "endTime": 7.9242344999999945,
      "instrument": 0,
      "program": -1,
      "isDrum": true
    },
    {
      "pitch": 35,
      "velocity": 113,
      "startTime": 7.999991999999994,
      "endTime": 8.015143499999995,
      "instrument": 0,
      "program": -1,
      "isDrum": true
    },
    {
      "pitch": 42,
      "velocity": 123,
      "startTime": 7.999991999999994,
      "endTime": 8.015143499999995,
      "instrument": 0,
      "program": -1,
      "isDrum": true
    },
    {
      "pitch": 42,
      "velocity": 92,
      "startTime": 8.181809999999995,
      "endTime": 8.196961499999995,
      "instrument": 0,
      "program": -1,
      "isDrum": true
    },
    {
      "pitch": 42,
      "velocity": 68,
      "startTime": 8.272718999999995,
      "endTime": 8.287870499999995,
      "instrument": 0,
      "program": -1,
      "isDrum": true
    },
    {
      "pitch": 52,
      "velocity": 120,
      "startTime": 8.363627999999995,
      "endTime": 8.727263999999995,
      "instrument": 0,
      "program": -1,
      "isDrum": true
    },
    {
      "pitch": 49,
      "velocity": 120,
      "startTime": 8.363627999999995,
      "endTime": 8.727263999999995,
      "instrument": 0,
      "program": -1,
      "isDrum": true
    },
    {
      "pitch": 38,
      "velocity": 123,
      "startTime": 8.363627999999995,
      "endTime": 8.378779499999995,
      "instrument": 0,
      "program": -1,
      "isDrum": true
    },
    {
      "pitch": 35,
      "velocity": 104,
      "startTime": 8.363627999999995,
      "endTime": 8.378779499999995,
      "instrument": 0,
      "program": -1,
      "isDrum": true
    },
    {
      "pitch": 42,
      "velocity": 123,
      "startTime": 8.363627999999995,
      "endTime": 8.378779499999995,
      "instrument": 0,
      "program": -1,
      "isDrum": true
    },
    {
      "pitch": 42,
      "velocity": 79,
      "startTime": 8.545445999999995,
      "endTime": 8.560597499999995,
      "instrument": 0,
      "program": -1,
      "isDrum": true
    },
    {
      "pitch": 42,
      "velocity": 62,
      "startTime": 8.636354999999995,
      "endTime": 8.651506499999995,
      "instrument": 0,
      "program": -1,
      "isDrum": true
    },
    {
      "pitch": 35,
      "velocity": 117,
      "startTime": 8.727263999999995,
      "endTime": 8.742415499999995,
      "instrument": 0,
      "program": -1,
      "isDrum": true
    },
    {
      "pitch": 42,
      "velocity": 123,
      "startTime": 8.727263999999995,
      "endTime": 8.742415499999995,
      "instrument": 0,
      "program": -1,
      "isDrum": true
    },
    {
      "pitch": 42,
      "velocity": 81,
      "startTime": 8.909081999999994,
      "endTime": 8.924233499999994,
      "instrument": 0,
      "program": -1,
      "isDrum": true
    },
    {
      "pitch": 42,
      "velocity": 69,
      "startTime": 8.999990999999994,
      "endTime": 9.015142499999994,
      "instrument": 0,
      "program": -1,
      "isDrum": true
    },
    {
      "pitch": 38,
      "velocity": 123,
      "startTime": 9.090899999999994,
      "endTime": 9.106051499999994,
      "instrument": 0,
      "program": -1,
      "isDrum": true
    },
    {
      "pitch": 35,
      "velocity": 94,
      "startTime": 9.090899999999994,
      "endTime": 9.106051499999994,
      "instrument": 0,
      "program": -1,
      "isDrum": true
    },
    {
      "pitch": 42,
      "velocity": 123,
      "startTime": 9.090899999999994,
      "endTime": 9.106051499999994,
      "instrument": 0,
      "program": -1,
      "isDrum": true
    },
    {
      "pitch": 42,
      "velocity": 92,
      "startTime": 9.272717999999994,
      "endTime": 9.287869499999994,
      "instrument": 0,
      "program": -1,
      "isDrum": true
    },
    {
      "pitch": 42,
      "velocity": 84,
      "startTime": 9.363626999999994,
      "endTime": 9.378778499999994,
      "instrument": 0,
      "program": -1,
      "isDrum": true
    },
    {
      "pitch": 35,
      "velocity": 113,
      "startTime": 9.454535999999994,
      "endTime": 9.469687499999994,
      "instrument": 0,
      "program": -1,
      "isDrum": true
    },
    {
      "pitch": 42,
      "velocity": 123,
      "startTime": 9.454535999999994,
      "endTime": 9.469687499999994,
      "instrument": 0,
      "program": -1,
      "isDrum": true
    },
    {
      "pitch": 42,
      "velocity": 92,
      "startTime": 9.636353999999994,
      "endTime": 9.651505499999994,
      "instrument": 0,
      "program": -1,
      "isDrum": true
    },
    {
      "pitch": 42,
      "velocity": 68,
      "startTime": 9.727262999999994,
      "endTime": 9.742414499999994,
      "instrument": 0,
      "program": -1,
      "isDrum": true
    },
    {
      "pitch": 38,
      "velocity": 123,
      "startTime": 9.818171999999993,
      "endTime": 9.833323499999993,
      "instrument": 0,
      "program": -1,
      "isDrum": true
    },
    {
      "pitch": 35,
      "velocity": 104,
      "startTime": 9.818171999999993,
      "endTime": 9.833323499999993,
      "instrument": 0,
      "program": -1,
      "isDrum": true
    },
    {
      "pitch": 42,
      "velocity": 123,
      "startTime": 9.818171999999993,
      "endTime": 9.833323499999993,
      "instrument": 0,
      "program": -1,
      "isDrum": true
    },
    {
      "pitch": 42,
      "velocity": 79,
      "startTime": 9.999989999999993,
      "endTime": 10.015141499999993,
      "instrument": 0,
      "program": -1,
      "isDrum": true
    },
    {
      "pitch": 42,
      "velocity": 62,
      "startTime": 10.090898999999993,
      "endTime": 10.106050499999993,
      "instrument": 0,
      "program": -1,
      "isDrum": true
    },
    {
      "pitch": 35,
      "velocity": 117,
      "startTime": 10.181807999999993,
      "endTime": 10.196959499999993,
      "instrument": 0,
      "program": -1,
      "isDrum": true
    },
    {
      "pitch": 42,
      "velocity": 123,
      "startTime": 10.181807999999993,
      "endTime": 10.196959499999993,
      "instrument": 0,
      "program": -1,
      "isDrum": true
    },
    {
      "pitch": 42,
      "velocity": 81,
      "startTime": 10.363625999999993,
      "endTime": 10.378777499999993,
      "instrument": 0,
      "program": -1,
      "isDrum": true
    },
    {
      "pitch": 42,
      "velocity": 69,
      "startTime": 10.454534999999993,
      "endTime": 10.469686499999993,
      "instrument": 0,
      "program": -1,
      "isDrum": true
    },
    {
      "pitch": 49,
      "velocity": 120,
      "startTime": 10.545443999999993,
      "endTime": 10.909079999999992,
      "instrument": 0,
      "program": -1,
      "isDrum": true
    },
    {
      "pitch": 52,
      "velocity": 120,
      "startTime": 10.545443999999993,
      "endTime": 10.909079999999992,
      "instrument": 0,
      "program": -1,
      "isDrum": true
    },
    {
      "pitch": 38,
      "velocity": 123,
      "startTime": 10.545443999999993,
      "endTime": 10.560595499999993,
      "instrument": 0,
      "program": -1,
      "isDrum": true
    },
    {
      "pitch": 35,
      "velocity": 94,
      "startTime": 10.545443999999993,
      "endTime": 10.560595499999993,
      "instrument": 0,
      "program": -1,
      "isDrum": true
    },
    {
      "pitch": 42,
      "velocity": 123,
      "startTime": 10.545443999999993,
      "endTime": 10.560595499999993,
      "instrument": 0,
      "program": -1,
      "isDrum": true
    },
    {
      "pitch": 42,
      "velocity": 92,
      "startTime": 10.727261999999993,
      "endTime": 10.742413499999993,
      "instrument": 0,
      "program": -1,
      "isDrum": true
    },
    {
      "pitch": 42,
      "velocity": 84,
      "startTime": 10.818170999999992,
      "endTime": 10.833322499999992,
      "instrument": 0,
      "program": -1,
      "isDrum": true
    },
    {
      "pitch": 35,
      "velocity": 113,
      "startTime": 10.909079999999992,
      "endTime": 10.924231499999992,
      "instrument": 0,
      "program": -1,
      "isDrum": true
    },
    {
      "pitch": 42,
      "velocity": 123,
      "startTime": 10.909079999999992,
      "endTime": 10.924231499999992,
      "instrument": 0,
      "program": -1,
      "isDrum": true
    },
    {
      "pitch": 42,
      "velocity": 92,
      "startTime": 11.090897999999992,
      "endTime": 11.106049499999992,
      "instrument": 0,
      "program": -1,
      "isDrum": true
    },
    {
      "pitch": 42,
      "velocity": 68,
      "startTime": 11.181806999999992,
      "endTime": 11.196958499999992,
      "instrument": 0,
      "program": -1,
      "isDrum": true
    },
    {
      "pitch": 52,
      "velocity": 120,
      "startTime": 11.272715999999992,
      "endTime": 11.636351999999992,
      "instrument": 0,
      "program": -1,
      "isDrum": true
    },
    {
      "pitch": 49,
      "velocity": 120,
      "startTime": 11.272715999999992,
      "endTime": 11.636351999999992,
      "instrument": 0,
      "program": -1,
      "isDrum": true
    },
    {
      "pitch": 38,
      "velocity": 123,
      "startTime": 11.272715999999992,
      "endTime": 11.287867499999992,
      "instrument": 0,
      "program": -1,
      "isDrum": true
    },
    {
      "pitch": 35,
      "velocity": 104,
      "startTime": 11.272715999999992,
      "endTime": 11.287867499999992,
      "instrument": 0,
      "program": -1,
      "isDrum": true
    },
    {
      "pitch": 42,
      "velocity": 123,
      "startTime": 11.272715999999992,
      "endTime": 11.287867499999992,
      "instrument": 0,
      "program": -1,
      "isDrum": true
    },
    {
      "pitch": 42,
      "velocity": 79,
      "startTime": 11.454533999999992,
      "endTime": 11.469685499999992,
      "instrument": 0,
      "program": -1,
      "isDrum": true
    },
    {
      "pitch": 42,
      "velocity": 62,
      "startTime": 11.545442999999992,
      "endTime": 11.560594499999992,
      "instrument": 0,
      "program": -1,
      "isDrum": true
    },
    {
      "pitch": 35,
      "velocity": 117,
      "startTime": 11.636351999999992,
      "endTime": 11.651503499999992,
      "instrument": 0,
      "program": -1,
      "isDrum": true
    },
    {
      "pitch": 42,
      "velocity": 123,
      "startTime": 11.636351999999992,
      "endTime": 11.651503499999992,
      "instrument": 0,
      "program": -1,
      "isDrum": true
    },
    {
      "pitch": 42,
      "velocity": 81,
      "startTime": 11.818169999999991,
      "endTime": 11.833321499999991,
      "instrument": 0,
      "program": -1,
      "isDrum": true
    },
    {
      "pitch": 42,
      "velocity": 69,
      "startTime": 11.909078999999991,
      "endTime": 11.924230499999991,
      "instrument": 0,
      "program": -1,
      "isDrum": true
    },
    {
      "pitch": 38,
      "velocity": 123,
      "startTime": 11.999987999999991,
      "endTime": 12.015139499999991,
      "instrument": 0,
      "program": -1,
      "isDrum": true
    },
    {
      "pitch": 35,
      "velocity": 94,
      "startTime": 11.999987999999991,
      "endTime": 12.015139499999991,
      "instrument": 0,
      "program": -1,
      "isDrum": true
    },
    {
      "pitch": 42,
      "velocity": 123,
      "startTime": 11.999987999999991,
      "endTime": 12.015139499999991,
      "instrument": 0,
      "program": -1,
      "isDrum": true
    },
    {
      "pitch": 42,
      "velocity": 92,
      "startTime": 12.181805999999991,
      "endTime": 12.196957499999991,
      "instrument": 0,
      "program": -1,
      "isDrum": true
    },
    {
      "pitch": 42,
      "velocity": 84,
      "startTime": 12.272714999999991,
      "endTime": 12.287866499999991,
      "instrument": 0,
      "program": -1,
      "isDrum": true
    },
    {
      "pitch": 35,
      "velocity": 113,
      "startTime": 12.36362399999999,
      "endTime": 12.37877549999999,
      "instrument": 0,
      "program": -1,
      "isDrum": true
    },
    {
      "pitch": 42,
      "velocity": 123,
      "startTime": 12.36362399999999,
      "endTime": 12.37877549999999,
      "instrument": 0,
      "program": -1,
      "isDrum": true
    },
    {
      "pitch": 42,
      "velocity": 92,
      "startTime": 12.54544199999999,
      "endTime": 12.56059349999999,
      "instrument": 0,
      "program": -1,
      "isDrum": true
    },
    {
      "pitch": 42,
      "velocity": 68,
      "startTime": 12.63635099999999,
      "endTime": 12.65150249999999,
      "instrument": 0,
      "program": -1,
      "isDrum": true
    },
    {
      "pitch": 38,
      "velocity": 123,
      "startTime": 12.72725999999999,
      "endTime": 12.74241149999999,
      "instrument": 0,
      "program": -1,
      "isDrum": true
    },
    {
      "pitch": 35,
      "velocity": 104,
      "startTime": 12.72725999999999,
      "endTime": 12.74241149999999,
      "instrument": 0,
      "program": -1,
      "isDrum": true
    },
    {
      "pitch": 42,
      "velocity": 123,
      "startTime": 12.72725999999999,
      "endTime": 12.74241149999999,
      "instrument": 0,
      "program": -1,
      "isDrum": true
    },
    {
      "pitch": 42,
      "velocity": 79,
      "startTime": 12.90907799999999,
      "endTime": 12.92422949999999,
      "instrument": 0,
      "program": -1,
      "isDrum": true
    },
    {
      "pitch": 42,
      "velocity": 62,
      "startTime": 12.99998699999999,
      "endTime": 13.01513849999999,
      "instrument": 0,
      "program": -1,
      "isDrum": true
    },
    {
      "pitch": 35,
      "velocity": 117,
      "startTime": 13.09089599999999,
      "endTime": 13.10604749999999,
      "instrument": 0,
      "program": -1,
      "isDrum": true
    },
    {
      "pitch": 42,
      "velocity": 123,
      "startTime": 13.09089599999999,
      "endTime": 13.10604749999999,
      "instrument": 0,
      "program": -1,
      "isDrum": true
    },
    {
      "pitch": 42,
      "velocity": 81,
      "startTime": 13.27271399999999,
      "endTime": 13.28786549999999,
      "instrument": 0,
      "program": -1,
      "isDrum": true
    },
    {
      "pitch": 42,
      "velocity": 69,
      "startTime": 13.36362299999999,
      "endTime": 13.37877449999999,
      "instrument": 0,
      "program": -1,
      "isDrum": true
    },
    {
      "pitch": 52,
      "velocity": 120,
      "startTime": 13.45453199999999,
      "endTime": 13.81816799999999,
      "instrument": 0,
      "program": -1,
      "isDrum": true
    },
    {
      "pitch": 49,
      "velocity": 120,
      "startTime": 13.45453199999999,
      "endTime": 13.81816799999999,
      "instrument": 0,
      "program": -1,
      "isDrum": true
    },
    {
      "pitch": 38,
      "velocity": 123,
      "startTime": 13.45453199999999,
      "endTime": 13.46968349999999,
      "instrument": 0,
      "program": -1,
      "isDrum": true
    },
    {
      "pitch": 35,
      "velocity": 94,
      "startTime": 13.45453199999999,
      "endTime": 13.46968349999999,
      "instrument": 0,
      "program": -1,
      "isDrum": true
    },
    {
      "pitch": 42,
      "velocity": 123,
      "startTime": 13.45453199999999,
      "endTime": 13.46968349999999,
      "instrument": 0,
      "program": -1,
      "isDrum": true
    },
    {
      "pitch": 42,
      "velocity": 92,
      "startTime": 13.63634999999999,
      "endTime": 13.65150149999999,
      "instrument": 0,
      "program": -1,
      "isDrum": true
    },
    {
      "pitch": 42,
      "velocity": 84,
      "startTime": 13.72725899999999,
      "endTime": 13.74241049999999,
      "instrument": 0,
      "program": -1,
      "isDrum": true
    },
    {
      "pitch": 35,
      "velocity": 113,
      "startTime": 13.81816799999999,
      "endTime": 13.83331949999999,
      "instrument": 0,
      "program": -1,
      "isDrum": true
    },
    {
      "pitch": 42,
      "velocity": 123,
      "startTime": 13.81816799999999,
      "endTime": 13.83331949999999,
      "instrument": 0,
      "program": -1,
      "isDrum": true
    },
    {
      "pitch": 42,
      "velocity": 92,
      "startTime": 13.99998599999999,
      "endTime": 14.01513749999999,
      "instrument": 0,
      "program": -1,
      "isDrum": true
    },
    {
      "pitch": 42,
      "velocity": 68,
      "startTime": 14.090894999999989,
      "endTime": 14.106046499999989,
      "instrument": 0,
      "program": -1,
      "isDrum": true
    },
    {
      "pitch": 49,
      "velocity": 120,
      "startTime": 14.181803999999989,
      "endTime": 14.545439999999989,
      "instrument": 0,
      "program": -1,
      "isDrum": true
    },
    {
      "pitch": 52,
      "velocity": 120,
      "startTime": 14.181803999999989,
      "endTime": 14.545439999999989,
      "instrument": 0,
      "program": -1,
      "isDrum": true
    },
    {
      "pitch": 38,
      "velocity": 123,
      "startTime": 14.181803999999989,
      "endTime": 14.196955499999989,
      "instrument": 0,
      "program": -1,
      "isDrum": true
    },
    {
      "pitch": 35,
      "velocity": 104,
      "startTime": 14.181803999999989,
      "endTime": 14.196955499999989,
      "instrument": 0,
      "program": -1,
      "isDrum": true
    },
    {
      "pitch": 42,
      "velocity": 123,
      "startTime": 14.181803999999989,
      "endTime": 14.196955499999989,
      "instrument": 0,
      "program": -1,
      "isDrum": true
    },
    {
      "pitch": 42,
      "velocity": 79,
      "startTime": 14.363621999999989,
      "endTime": 14.378773499999989,
      "instrument": 0,
      "program": -1,
      "isDrum": true
    },
    {
      "pitch": 42,
      "velocity": 62,
      "startTime": 14.454530999999989,
      "endTime": 14.469682499999989,
      "instrument": 0,
      "program": -1,
      "isDrum": true
    },
    {
      "pitch": 35,
      "velocity": 117,
      "startTime": 14.545439999999989,
      "endTime": 14.560591499999989,
      "instrument": 0,
      "program": -1,
      "isDrum": true
    },
    {
      "pitch": 42,
      "velocity": 123,
      "startTime": 14.545439999999989,
      "endTime": 14.560591499999989,
      "instrument": 0,
      "program": -1,
      "isDrum": true
    },
    {
      "pitch": 42,
      "velocity": 81,
      "startTime": 14.727257999999988,
      "endTime": 14.742409499999988,
      "instrument": 0,
      "program": -1,
      "isDrum": true
    },
    {
      "pitch": 42,
      "velocity": 69,
      "startTime": 14.818166999999988,
      "endTime": 14.833318499999988,
      "instrument": 0,
      "program": -1,
      "isDrum": true
    },
    {
      "pitch": 38,
      "velocity": 123,
      "startTime": 14.909075999999988,
      "endTime": 14.924227499999988,
      "instrument": 0,
      "program": -1,
      "isDrum": true
    },
    {
      "pitch": 35,
      "velocity": 94,
      "startTime": 14.909075999999988,
      "endTime": 14.924227499999988,
      "instrument": 0,
      "program": -1,
      "isDrum": true
    },
    {
      "pitch": 42,
      "velocity": 123,
      "startTime": 14.909075999999988,
      "endTime": 14.924227499999988,
      "instrument": 0,
      "program": -1,
      "isDrum": true
    },
    {
      "pitch": 42,
      "velocity": 92,
      "startTime": 15.090893999999988,
      "endTime": 15.106045499999988,
      "instrument": 0,
      "program": -1,
      "isDrum": true
    },
    {
      "pitch": 42,
      "velocity": 84,
      "startTime": 15.181802999999988,
      "endTime": 15.196954499999988,
      "instrument": 0,
      "program": -1,
      "isDrum": true
    },
    {
      "pitch": 35,
      "velocity": 113,
      "startTime": 15.272711999999988,
      "endTime": 15.287863499999988,
      "instrument": 0,
      "program": -1,
      "isDrum": true
    },
    {
      "pitch": 42,
      "velocity": 123,
      "startTime": 15.272711999999988,
      "endTime": 15.287863499999988,
      "instrument": 0,
      "program": -1,
      "isDrum": true
    },
    {
      "pitch": 42,
      "velocity": 92,
      "startTime": 15.454529999999988,
      "endTime": 15.469681499999988,
      "instrument": 0,
      "program": -1,
      "isDrum": true
    },
    {
      "pitch": 42,
      "velocity": 68,
      "startTime": 15.545438999999988,
      "endTime": 15.560590499999988,
      "instrument": 0,
      "program": -1,
      "isDrum": true
    },
    {
      "pitch": 38,
      "velocity": 123,
      "startTime": 15.636347999999987,
      "endTime": 15.651499499999987,
      "instrument": 0,
      "program": -1,
      "isDrum": true
    },
    {
      "pitch": 35,
      "velocity": 104,
      "startTime": 15.636347999999987,
      "endTime": 15.651499499999987,
      "instrument": 0,
      "program": -1,
      "isDrum": true
    },
    {
      "pitch": 42,
      "velocity": 123,
      "startTime": 15.636347999999987,
      "endTime": 15.651499499999987,
      "instrument": 0,
      "program": -1,
      "isDrum": true
    },
    {
      "pitch": 42,
      "velocity": 79,
      "startTime": 15.818165999999987,
      "endTime": 15.833317499999987,
      "instrument": 0,
      "program": -1,
      "isDrum": true
    },
    {
      "pitch": 42,
      "velocity": 62,
      "startTime": 15.909074999999987,
      "endTime": 15.924226499999987,
      "instrument": 0,
      "program": -1,
      "isDrum": true
    },
    {
      "pitch": 35,
      "velocity": 117,
      "startTime": 15.999983999999987,
      "endTime": 16.01513549999999,
      "instrument": 0,
      "program": -1,
      "isDrum": true
    },
    {
      "pitch": 42,
      "velocity": 123,
      "startTime": 15.999983999999987,
      "endTime": 16.01513549999999,
      "instrument": 0,
      "program": -1,
      "isDrum": true
    },
    {
      "pitch": 42,
      "velocity": 81,
      "startTime": 16.18180199999999,
      "endTime": 16.196953499999992,
      "instrument": 0,
      "program": -1,
      "isDrum": true
    },
    {
      "pitch": 42,
      "velocity": 69,
      "startTime": 16.272710999999994,
      "endTime": 16.287862499999996,
      "instrument": 0,
      "program": -1,
      "isDrum": true
    },
    {
      "pitch": 38,
      "velocity": 123,
      "startTime": 16.363619999999997,
      "endTime": 16.3787715,
      "instrument": 0,
      "program": -1,
      "isDrum": true
    },
    {
      "pitch": 35,
      "velocity": 94,
      "startTime": 16.363619999999997,
      "endTime": 16.3787715,
      "instrument": 0,
      "program": -1,
      "isDrum": true
    },
    {
      "pitch": 49,
      "velocity": 120,
      "startTime": 16.363619999999997,
      "endTime": 16.727256000000008,
      "instrument": 0,
      "program": -1,
      "isDrum": true
    },
    {
      "pitch": 52,
      "velocity": 120,
      "startTime": 16.363619999999997,
      "endTime": 16.727256000000008,
      "instrument": 0,
      "program": -1,
      "isDrum": true
    },
    {
      "pitch": 42,
      "velocity": 123,
      "startTime": 16.363619999999997,
      "endTime": 16.3787715,
      "instrument": 0,
      "program": -1,
      "isDrum": true
    },
    {
      "pitch": 42,
      "velocity": 92,
      "startTime": 16.545438,
      "endTime": 16.560589500000003,
      "instrument": 0,
      "program": -1,
      "isDrum": true
    },
    {
      "pitch": 42,
      "velocity": 84,
      "startTime": 16.636347000000004,
      "endTime": 16.651498500000006,
      "instrument": 0,
      "program": -1,
      "isDrum": true
    },
    {
      "pitch": 35,
      "velocity": 113,
      "startTime": 16.727256000000008,
      "endTime": 16.74240750000001,
      "instrument": 0,
      "program": -1,
      "isDrum": true
    },
    {
      "pitch": 42,
      "velocity": 123,
      "startTime": 16.727256000000008,
      "endTime": 16.74240750000001,
      "instrument": 0,
      "program": -1,
      "isDrum": true
    },
    {
      "pitch": 42,
      "velocity": 92,
      "startTime": 16.90907400000001,
      "endTime": 16.924225500000013,
      "instrument": 0,
      "program": -1,
      "isDrum": true
    },
    {
      "pitch": 42,
      "velocity": 68,
      "startTime": 16.999983000000014,
      "endTime": 17.015134500000016,
      "instrument": 0,
      "program": -1,
      "isDrum": true
    },
    {
      "pitch": 38,
      "velocity": 123,
      "startTime": 17.090892000000018,
      "endTime": 17.10604350000002,
      "instrument": 0,
      "program": -1,
      "isDrum": true
    },
    {
      "pitch": 35,
      "velocity": 104,
      "startTime": 17.090892000000018,
      "endTime": 17.10604350000002,
      "instrument": 0,
      "program": -1,
      "isDrum": true
    },
    {
      "pitch": 52,
      "velocity": 120,
      "startTime": 17.090892000000018,
      "endTime": 17.45452800000003,
      "instrument": 0,
      "program": -1,
      "isDrum": true
    },
    {
      "pitch": 49,
      "velocity": 120,
      "startTime": 17.090892000000018,
      "endTime": 17.45452800000003,
      "instrument": 0,
      "program": -1,
      "isDrum": true
    },
    {
      "pitch": 42,
      "velocity": 123,
      "startTime": 17.090892000000018,
      "endTime": 17.10604350000002,
      "instrument": 0,
      "program": -1,
      "isDrum": true
    },
    {
      "pitch": 42,
      "velocity": 79,
      "startTime": 17.27271000000002,
      "endTime": 17.287861500000023,
      "instrument": 0,
      "program": -1,
      "isDrum": true
    },
    {
      "pitch": 42,
      "velocity": 62,
      "startTime": 17.363619000000025,
      "endTime": 17.378770500000027,
      "instrument": 0,
      "program": -1,
      "isDrum": true
    },
    {
      "pitch": 35,
      "velocity": 117,
      "startTime": 17.45452800000003,
      "endTime": 17.46967950000003,
      "instrument": 0,
      "program": -1,
      "isDrum": true
    },
    {
      "pitch": 42,
      "velocity": 123,
      "startTime": 17.45452800000003,
      "endTime": 17.46967950000003,
      "instrument": 0,
      "program": -1,
      "isDrum": true
    },
    {
      "pitch": 42,
      "velocity": 81,
      "startTime": 17.63634600000003,
      "endTime": 17.651497500000033,
      "instrument": 0,
      "program": -1,
      "isDrum": true
    },
    {
      "pitch": 42,
      "velocity": 69,
      "startTime": 17.727255000000035,
      "endTime": 17.742406500000037,
      "instrument": 0,
      "program": -1,
      "isDrum": true
    },
    {
      "pitch": 38,
      "velocity": 123,
      "startTime": 17.81816400000004,
      "endTime": 17.83331550000004,
      "instrument": 0,
      "program": -1,
      "isDrum": true
    },
    {
      "pitch": 35,
      "velocity": 94,
      "startTime": 17.81816400000004,
      "endTime": 17.83331550000004,
      "instrument": 0,
      "program": -1,
      "isDrum": true
    },
    {
      "pitch": 42,
      "velocity": 123,
      "startTime": 17.81816400000004,
      "endTime": 17.83331550000004,
      "instrument": 0,
      "program": -1,
      "isDrum": true
    },
    {
      "pitch": 42,
      "velocity": 92,
      "startTime": 17.999982000000042,
      "endTime": 18.015133500000044,
      "instrument": 0,
      "program": -1,
      "isDrum": true
    },
    {
      "pitch": 42,
      "velocity": 84,
      "startTime": 18.090891000000045,
      "endTime": 18.106042500000047,
      "instrument": 0,
      "program": -1,
      "isDrum": true
    },
    {
      "pitch": 35,
      "velocity": 113,
      "startTime": 18.18180000000005,
      "endTime": 18.19695150000005,
      "instrument": 0,
      "program": -1,
      "isDrum": true
    },
    {
      "pitch": 42,
      "velocity": 123,
      "startTime": 18.18180000000005,
      "endTime": 18.19695150000005,
      "instrument": 0,
      "program": -1,
      "isDrum": true
    },
    {
      "pitch": 42,
      "velocity": 92,
      "startTime": 18.363618000000052,
      "endTime": 18.378769500000054,
      "instrument": 0,
      "program": -1,
      "isDrum": true
    },
    {
      "pitch": 42,
      "velocity": 68,
      "startTime": 18.454527000000056,
      "endTime": 18.469678500000057,
      "instrument": 0,
      "program": -1,
      "isDrum": true
    },
    {
      "pitch": 38,
      "velocity": 123,
      "startTime": 18.54543600000006,
      "endTime": 18.56058750000006,
      "instrument": 0,
      "program": -1,
      "isDrum": true
    },
    {
      "pitch": 35,
      "velocity": 104,
      "startTime": 18.54543600000006,
      "endTime": 18.56058750000006,
      "instrument": 0,
      "program": -1,
      "isDrum": true
    },
    {
      "pitch": 42,
      "velocity": 123,
      "startTime": 18.54543600000006,
      "endTime": 18.56058750000006,
      "instrument": 0,
      "program": -1,
      "isDrum": true
    },
    {
      "pitch": 42,
      "velocity": 79,
      "startTime": 18.727254000000062,
      "endTime": 18.742405500000064,
      "instrument": 0,
      "program": -1,
      "isDrum": true
    },
    {
      "pitch": 42,
      "velocity": 62,
      "startTime": 18.818163000000066,
      "endTime": 18.833314500000068,
      "instrument": 0,
      "program": -1,
      "isDrum": true
    },
    {
      "pitch": 35,
      "velocity": 117,
      "startTime": 18.90907200000007,
      "endTime": 18.92422350000007,
      "instrument": 0,
      "program": -1,
      "isDrum": true
    },
    {
      "pitch": 42,
      "velocity": 123,
      "startTime": 18.90907200000007,
      "endTime": 18.92422350000007,
      "instrument": 0,
      "program": -1,
      "isDrum": true
    },
    {
      "pitch": 42,
      "velocity": 81,
      "startTime": 19.090890000000073,
      "endTime": 19.106041500000075,
      "instrument": 0,
      "program": -1,
      "isDrum": true
    },
    {
      "pitch": 42,
      "velocity": 69,
      "startTime": 19.181799000000076,
      "endTime": 19.196950500000078,
      "instrument": 0,
      "program": -1,
      "isDrum": true
    },
    {
      "pitch": 38,
      "velocity": 123,
      "startTime": 19.27270800000008,
      "endTime": 19.28785950000008,
      "instrument": 0,
      "program": -1,
      "isDrum": true
    },
    {
      "pitch": 35,
      "velocity": 94,
      "startTime": 19.27270800000008,
      "endTime": 19.28785950000008,
      "instrument": 0,
      "program": -1,
      "isDrum": true
    },
    {
      "pitch": 42,
      "velocity": 123,
      "startTime": 19.27270800000008,
      "endTime": 19.28785950000008,
      "instrument": 0,
      "program": -1,
      "isDrum": true
    },
    {
      "pitch": 52,
      "velocity": 120,
      "startTime": 19.28785950000008,
      "endTime": 19.65149550000009,
      "instrument": 0,
      "program": -1,
      "isDrum": true
    },
    {
      "pitch": 49,
      "velocity": 120,
      "startTime": 19.293920100000083,
      "endTime": 19.657556100000093,
      "instrument": 0,
      "program": -1,
      "isDrum": true
    },
    {
      "pitch": 42,
      "velocity": 92,
      "startTime": 19.454526000000083,
      "endTime": 19.469677500000085,
      "instrument": 0,
      "program": -1,
      "isDrum": true
    },
    {
      "pitch": 42,
      "velocity": 84,
      "startTime": 19.545435000000086,
      "endTime": 19.56058650000009,
      "instrument": 0,
      "program": -1,
      "isDrum": true
    },
    {
      "pitch": 35,
      "velocity": 113,
      "startTime": 19.63634400000009,
      "endTime": 19.65149550000009,
      "instrument": 0,
      "program": -1,
      "isDrum": true
    },
    {
      "pitch": 42,
      "velocity": 123,
      "startTime": 19.63634400000009,
      "endTime": 19.65149550000009,
      "instrument": 0,
      "program": -1,
      "isDrum": true
    },
    {
      "pitch": 42,
      "velocity": 92,
      "startTime": 19.818162000000093,
      "endTime": 19.833313500000095,
      "instrument": 0,
      "program": -1,
      "isDrum": true
    },
    {
      "pitch": 42,
      "velocity": 68,
      "startTime": 19.909071000000097,
      "endTime": 19.9242225000001,
      "instrument": 0,
      "program": -1,
      "isDrum": true
    },
    {
      "pitch": 38,
      "velocity": 123,
      "startTime": 19.9999800000001,
      "endTime": 20.015131500000102,
      "instrument": 0,
      "program": -1,
      "isDrum": true
    },
    {
      "pitch": 35,
      "velocity": 104,
      "startTime": 19.9999800000001,
      "endTime": 20.015131500000102,
      "instrument": 0,
      "program": -1,
      "isDrum": true
    },
    {
      "pitch": 52,
      "velocity": 120,
      "startTime": 19.9999800000001,
      "endTime": 20.36361600000011,
      "instrument": 0,
      "program": -1,
      "isDrum": true
    },
    {
      "pitch": 49,
      "velocity": 120,
      "startTime": 19.9999800000001,
      "endTime": 20.36361600000011,
      "instrument": 0,
      "program": -1,
      "isDrum": true
    },
    {
      "pitch": 42,
      "velocity": 123,
      "startTime": 19.9999800000001,
      "endTime": 20.015131500000102,
      "instrument": 0,
      "program": -1,
      "isDrum": true
    },
    {
      "pitch": 42,
      "velocity": 79,
      "startTime": 20.181798000000104,
      "endTime": 20.196949500000105,
      "instrument": 0,
      "program": -1,
      "isDrum": true
    },
    {
      "pitch": 42,
      "velocity": 62,
      "startTime": 20.272707000000107,
      "endTime": 20.28785850000011,
      "instrument": 0,
      "program": -1,
      "isDrum": true
    },
    {
      "pitch": 42,
      "velocity": 123,
      "startTime": 20.36361600000011,
      "endTime": 20.378767500000112,
      "instrument": 0,
      "program": -1,
      "isDrum": true
    },
    {
      "pitch": 35,
      "velocity": 117,
      "startTime": 20.36361600000011,
      "endTime": 20.378767500000112,
      "instrument": 0,
      "program": -1,
      "isDrum": true
    },
    {
      "pitch": 42,
      "velocity": 81,
      "startTime": 20.545434000000114,
      "endTime": 20.560585500000116,
      "instrument": 0,
      "program": -1,
      "isDrum": true
    },
    {
      "pitch": 42,
      "velocity": 69,
      "startTime": 20.636343000000117,
      "endTime": 20.65149450000012,
      "instrument": 0,
      "program": -1,
      "isDrum": true
    },
    {
      "pitch": 42,
      "velocity": 123,
      "startTime": 20.72725200000012,
      "endTime": 20.742403500000123,
      "instrument": 0,
      "program": -1,
      "isDrum": true
    },
    {
      "pitch": 38,
      "velocity": 123,
      "startTime": 20.72725200000012,
      "endTime": 20.742403500000123,
      "instrument": 0,
      "program": -1,
      "isDrum": true
    },
    {
      "pitch": 35,
      "velocity": 94,
      "startTime": 20.72725200000012,
      "endTime": 20.742403500000123,
      "instrument": 0,
      "program": -1,
      "isDrum": true
    },
    {
      "pitch": 42,
      "velocity": 92,
      "startTime": 20.909070000000124,
      "endTime": 20.924221500000126,
      "instrument": 0,
      "program": -1,
      "isDrum": true
    },
    {
      "pitch": 42,
      "velocity": 84,
      "startTime": 20.999979000000128,
      "endTime": 21.01513050000013,
      "instrument": 0,
      "program": -1,
      "isDrum": true
    },
    {
      "pitch": 42,
      "velocity": 123,
      "startTime": 21.09088800000013,
      "endTime": 21.106039500000133,
      "instrument": 0,
      "program": -1,
      "isDrum": true
    },
    {
      "pitch": 35,
      "velocity": 113,
      "startTime": 21.09088800000013,
      "endTime": 21.106039500000133,
      "instrument": 0,
      "program": -1,
      "isDrum": true
    },
    {
      "pitch": 42,
      "velocity": 92,
      "startTime": 21.272706000000134,
      "endTime": 21.287857500000136,
      "instrument": 0,
      "program": -1,
      "isDrum": true
    },
    {
      "pitch": 42,
      "velocity": 68,
      "startTime": 21.363615000000138,
      "endTime": 21.37876650000014,
      "instrument": 0,
      "program": -1,
      "isDrum": true
    },
    {
      "pitch": 42,
      "velocity": 123,
      "startTime": 21.45452400000014,
      "endTime": 21.469675500000143,
      "instrument": 0,
      "program": -1,
      "isDrum": true
    },
    {
      "pitch": 38,
      "velocity": 123,
      "startTime": 21.45452400000014,
      "endTime": 21.469675500000143,
      "instrument": 0,
      "program": -1,
      "isDrum": true
    },
    {
      "pitch": 35,
      "velocity": 104,
      "startTime": 21.45452400000014,
      "endTime": 21.469675500000143,
      "instrument": 0,
      "program": -1,
      "isDrum": true
    },
    {
      "pitch": 42,
      "velocity": 79,
      "startTime": 21.636342000000145,
      "endTime": 21.651493500000146,
      "instrument": 0,
      "program": -1,
      "isDrum": true
    },
    {
      "pitch": 42,
      "velocity": 62,
      "startTime": 21.727251000000148,
      "endTime": 21.74240250000015,
      "instrument": 0,
      "program": -1,
      "isDrum": true
    },
    {
      "pitch": 35,
      "velocity": 117,
      "startTime": 21.81816000000015,
      "endTime": 21.833311500000153,
      "instrument": 0,
      "program": -1,
      "isDrum": true
    },
    {
      "pitch": 42,
      "velocity": 123,
      "startTime": 21.81816000000015,
      "endTime": 21.833311500000153,
      "instrument": 0,
      "program": -1,
      "isDrum": true
    },
    {
      "pitch": 42,
      "velocity": 81,
      "startTime": 21.999978000000155,
      "endTime": 22.015129500000157,
      "instrument": 0,
      "program": -1,
      "isDrum": true
    },
    {
      "pitch": 42,
      "velocity": 69,
      "startTime": 22.09088700000016,
      "endTime": 22.10603850000016,
      "instrument": 0,
      "program": -1,
      "isDrum": true
    },
    {
      "pitch": 38,
      "velocity": 123,
      "startTime": 22.181796000000162,
      "endTime": 22.196947500000164,
      "instrument": 0,
      "program": -1,
      "isDrum": true
    },
    {
      "pitch": 35,
      "velocity": 94,
      "startTime": 22.181796000000162,
      "endTime": 22.196947500000164,
      "instrument": 0,
      "program": -1,
      "isDrum": true
    },
    {
      "pitch": 42,
      "velocity": 123,
      "startTime": 22.181796000000162,
      "endTime": 22.196947500000164,
      "instrument": 0,
      "program": -1,
      "isDrum": true
    },
    {
      "pitch": 42,
      "velocity": 92,
      "startTime": 22.363614000000165,
      "endTime": 22.378765500000167,
      "instrument": 0,
      "program": -1,
      "isDrum": true
    },
    {
      "pitch": 42,
      "velocity": 84,
      "startTime": 22.45452300000017,
      "endTime": 22.46967450000017,
      "instrument": 0,
      "program": -1,
      "isDrum": true
    },
    {
      "pitch": 35,
      "velocity": 113,
      "startTime": 22.545432000000172,
      "endTime": 22.560583500000174,
      "instrument": 0,
      "program": -1,
      "isDrum": true
    },
    {
      "pitch": 42,
      "velocity": 123,
      "startTime": 22.545432000000172,
      "endTime": 22.560583500000174,
      "instrument": 0,
      "program": -1,
      "isDrum": true
    },
    {
      "pitch": 42,
      "velocity": 92,
      "startTime": 22.727250000000176,
      "endTime": 22.742401500000177,
      "instrument": 0,
      "program": -1,
      "isDrum": true
    },
    {
      "pitch": 42,
      "velocity": 68,
      "startTime": 22.81815900000018,
      "endTime": 22.83331050000018,
      "instrument": 0,
      "program": -1,
      "isDrum": true
    },
    {
      "pitch": 38,
      "velocity": 123,
      "startTime": 22.909068000000183,
      "endTime": 22.924219500000184,
      "instrument": 0,
      "program": -1,
      "isDrum": true
    },
    {
      "pitch": 35,
      "velocity": 104,
      "startTime": 22.909068000000183,
      "endTime": 22.924219500000184,
      "instrument": 0,
      "program": -1,
      "isDrum": true
    },
    {
      "pitch": 42,
      "velocity": 123,
      "startTime": 22.909068000000183,
      "endTime": 22.924219500000184,
      "instrument": 0,
      "program": -1,
      "isDrum": true
    },
    {
      "pitch": 42,
      "velocity": 79,
      "startTime": 23.090886000000186,
      "endTime": 23.106037500000188,
      "instrument": 0,
      "program": -1,
      "isDrum": true
    },
    {
      "pitch": 42,
      "velocity": 62,
      "startTime": 23.18179500000019,
      "endTime": 23.19694650000019,
      "instrument": 0,
      "program": -1,
      "isDrum": true
    },
    {
      "pitch": 42,
      "velocity": 123,
      "startTime": 23.272704000000193,
      "endTime": 23.287855500000195,
      "instrument": 0,
      "program": -1,
      "isDrum": true
    },
    {
      "pitch": 35,
      "velocity": 117,
      "startTime": 23.272704000000193,
      "endTime": 23.287855500000195,
      "instrument": 0,
      "program": -1,
      "isDrum": true
    },
    {
      "pitch": 42,
      "velocity": 81,
      "startTime": 23.454522000000196,
      "endTime": 23.469673500000198,
      "instrument": 0,
      "program": -1,
      "isDrum": true
    },
    {
      "pitch": 42,
      "velocity": 69,
      "startTime": 23.5454310000002,
      "endTime": 23.5605825000002,
      "instrument": 0,
      "program": -1,
      "isDrum": true
    },
    {
      "pitch": 42,
      "velocity": 123,
      "startTime": 23.636340000000203,
      "endTime": 23.651491500000205,
      "instrument": 0,
      "program": -1,
      "isDrum": true
    },
    {
      "pitch": 38,
      "velocity": 123,
      "startTime": 23.636340000000203,
      "endTime": 23.651491500000205,
      "instrument": 0,
      "program": -1,
      "isDrum": true
    },
    {
      "pitch": 35,
      "velocity": 94,
      "startTime": 23.636340000000203,
      "endTime": 23.651491500000205,
      "instrument": 0,
      "program": -1,
      "isDrum": true
    },
    {
      "pitch": 42,
      "velocity": 92,
      "startTime": 23.818158000000206,
      "endTime": 23.833309500000208,
      "instrument": 0,
      "program": -1,
      "isDrum": true
    },
    {
      "pitch": 42,
      "velocity": 84,
      "startTime": 23.90906700000021,
      "endTime": 23.92421850000021,
      "instrument": 0,
      "program": -1,
      "isDrum": true
    },
    {
      "pitch": 42,
      "velocity": 123,
      "startTime": 23.999976000000213,
      "endTime": 24.015127500000215,
      "instrument": 0,
      "program": -1,
      "isDrum": true
    },
    {
      "pitch": 35,
      "velocity": 113,
      "startTime": 23.999976000000213,
      "endTime": 24.015127500000215,
      "instrument": 0,
      "program": -1,
      "isDrum": true
    },
    {
      "pitch": 42,
      "velocity": 92,
      "startTime": 24.181794000000217,
      "endTime": 24.19694550000022,
      "instrument": 0,
      "program": -1,
      "isDrum": true
    },
    {
      "pitch": 42,
      "velocity": 68,
      "startTime": 24.27270300000022,
      "endTime": 24.287854500000222,
      "instrument": 0,
      "program": -1,
      "isDrum": true
    },
    {
      "pitch": 42,
      "velocity": 123,
      "startTime": 24.363612000000224,
      "endTime": 24.378763500000225,
      "instrument": 0,
      "program": -1,
      "isDrum": true
    },
    {
      "pitch": 38,
      "velocity": 123,
      "startTime": 24.363612000000224,
      "endTime": 24.378763500000225,
      "instrument": 0,
      "program": -1,
      "isDrum": true
    },
    {
      "pitch": 35,
      "velocity": 104,
      "startTime": 24.363612000000224,
      "endTime": 24.378763500000225,
      "instrument": 0,
      "program": -1,
      "isDrum": true
    },
    {
      "pitch": 42,
      "velocity": 79,
      "startTime": 24.545430000000227,
      "endTime": 24.56058150000023,
      "instrument": 0,
      "program": -1,
      "isDrum": true
    },
    {
      "pitch": 42,
      "velocity": 62,
      "startTime": 24.63633900000023,
      "endTime": 24.651490500000232,
      "instrument": 0,
      "program": -1,
      "isDrum": true
    },
    {
      "pitch": 42,
      "velocity": 123,
      "startTime": 24.727248000000234,
      "endTime": 24.742399500000236,
      "instrument": 0,
      "program": -1,
      "isDrum": true
    },
    {
      "pitch": 35,
      "velocity": 117,
      "startTime": 24.727248000000234,
      "endTime": 24.742399500000236,
      "instrument": 0,
      "program": -1,
      "isDrum": true
    },
    {
      "pitch": 42,
      "velocity": 81,
      "startTime": 24.909066000000237,
      "endTime": 24.92421750000024,
      "instrument": 0,
      "program": -1,
      "isDrum": true
    },
    {
      "pitch": 42,
      "velocity": 69,
      "startTime": 24.99997500000024,
      "endTime": 25.015126500000243,
      "instrument": 0,
      "program": -1,
      "isDrum": true
    },
    {
      "pitch": 42,
      "velocity": 123,
      "startTime": 25.090884000000244,
      "endTime": 25.106035500000246,
      "instrument": 0,
      "program": -1,
      "isDrum": true
    },
    {
      "pitch": 38,
      "velocity": 123,
      "startTime": 25.090884000000244,
      "endTime": 25.106035500000246,
      "instrument": 0,
      "program": -1,
      "isDrum": true
    },
    {
      "pitch": 35,
      "velocity": 94,
      "startTime": 25.090884000000244,
      "endTime": 25.106035500000246,
      "instrument": 0,
      "program": -1,
      "isDrum": true
    },
    {
      "pitch": 49,
      "velocity": 120,
      "startTime": 25.090884000000244,
      "endTime": 25.454520000000254,
      "instrument": 0,
      "program": -1,
      "isDrum": true
    },
    {
      "pitch": 52,
      "velocity": 120,
      "startTime": 25.090884000000244,
      "endTime": 25.454520000000254,
      "instrument": 0,
      "program": -1,
      "isDrum": true
    },
    {
      "pitch": 42,
      "velocity": 92,
      "startTime": 25.272702000000248,
      "endTime": 25.28785350000025,
      "instrument": 0,
      "program": -1,
      "isDrum": true
    },
    {
      "pitch": 42,
      "velocity": 84,
      "startTime": 25.36361100000025,
      "endTime": 25.378762500000253,
      "instrument": 0,
      "program": -1,
      "isDrum": true
    },
    {
      "pitch": 42,
      "velocity": 123,
      "startTime": 25.454520000000254,
      "endTime": 25.469671500000256,
      "instrument": 0,
      "program": -1,
      "isDrum": true
    },
    {
      "pitch": 35,
      "velocity": 113,
      "startTime": 25.454520000000254,
      "endTime": 25.469671500000256,
      "instrument": 0,
      "program": -1,
      "isDrum": true
    },
    {
      "pitch": 42,
      "velocity": 92,
      "startTime": 25.636338000000258,
      "endTime": 25.65148950000026,
      "instrument": 0,
      "program": -1,
      "isDrum": true
    },
    {
      "pitch": 42,
      "velocity": 68,
      "startTime": 25.72724700000026,
      "endTime": 25.742398500000263,
      "instrument": 0,
      "program": -1,
      "isDrum": true
    },
    {
      "pitch": 42,
      "velocity": 123,
      "startTime": 25.818156000000265,
      "endTime": 25.833307500000267,
      "instrument": 0,
      "program": -1,
      "isDrum": true
    },
    {
      "pitch": 38,
      "velocity": 123,
      "startTime": 25.818156000000265,
      "endTime": 25.833307500000267,
      "instrument": 0,
      "program": -1,
      "isDrum": true
    },
    {
      "pitch": 35,
      "velocity": 104,
      "startTime": 25.818156000000265,
      "endTime": 25.833307500000267,
      "instrument": 0,
      "program": -1,
      "isDrum": true
    },
    {
      "pitch": 52,
      "velocity": 120,
      "startTime": 25.818156000000265,
      "endTime": 26.181792000000275,
      "instrument": 0,
      "program": -1,
      "isDrum": true
    },
    {
      "pitch": 49,
      "velocity": 120,
      "startTime": 25.818156000000265,
      "endTime": 26.181792000000275,
      "instrument": 0,
      "program": -1,
      "isDrum": true
    },
    {
      "pitch": 42,
      "velocity": 79,
      "startTime": 25.999974000000268,
      "endTime": 26.01512550000027,
      "instrument": 0,
      "program": -1,
      "isDrum": true
    },
    {
      "pitch": 42,
      "velocity": 62,
      "startTime": 26.09088300000027,
      "endTime": 26.106034500000273,
      "instrument": 0,
      "program": -1,
      "isDrum": true
    },
    {
      "pitch": 42,
      "velocity": 123,
      "startTime": 26.181792000000275,
      "endTime": 26.196943500000277,
      "instrument": 0,
      "program": -1,
      "isDrum": true
    },
    {
      "pitch": 35,
      "velocity": 117,
      "startTime": 26.181792000000275,
      "endTime": 26.196943500000277,
      "instrument": 0,
      "program": -1,
      "isDrum": true
    },
    {
      "pitch": 42,
      "velocity": 81,
      "startTime": 26.36361000000028,
      "endTime": 26.37876150000028,
      "instrument": 0,
      "program": -1,
      "isDrum": true
    },
    {
      "pitch": 42,
      "velocity": 69,
      "startTime": 26.454519000000282,
      "endTime": 26.469670500000284,
      "instrument": 0,
      "program": -1,
      "isDrum": true
    },
    {
      "pitch": 42,
      "velocity": 123,
      "startTime": 26.545428000000285,
      "endTime": 26.560579500000287,
      "instrument": 0,
      "program": -1,
      "isDrum": true
    },
    {
      "pitch": 38,
      "velocity": 123,
      "startTime": 26.545428000000285,
      "endTime": 26.560579500000287,
      "instrument": 0,
      "program": -1,
      "isDrum": true
    },
    {
      "pitch": 35,
      "velocity": 94,
      "startTime": 26.545428000000285,
      "endTime": 26.560579500000287,
      "instrument": 0,
      "program": -1,
      "isDrum": true
    },
    {
      "pitch": 42,
      "velocity": 92,
      "startTime": 26.72724600000029,
      "endTime": 26.74239750000029,
      "instrument": 0,
      "program": -1,
      "isDrum": true
    },
    {
      "pitch": 42,
      "velocity": 84,
      "startTime": 26.818155000000292,
      "endTime": 26.833306500000294,
      "instrument": 0,
      "program": -1,
      "isDrum": true
    },
    {
      "pitch": 42,
      "velocity": 123,
      "startTime": 26.909064000000296,
      "endTime": 26.924215500000297,
      "instrument": 0,
      "program": -1,
      "isDrum": true
    },
    {
      "pitch": 35,
      "velocity": 113,
      "startTime": 26.909064000000296,
      "endTime": 26.924215500000297,
      "instrument": 0,
      "program": -1,
      "isDrum": true
    },
    {
      "pitch": 42,
      "velocity": 92,
      "startTime": 27.0908820000003,
      "endTime": 27.1060335000003,
      "instrument": 0,
      "program": -1,
      "isDrum": true
    },
    {
      "pitch": 42,
      "velocity": 68,
      "startTime": 27.181791000000302,
      "endTime": 27.196942500000304,
      "instrument": 0,
      "program": -1,
      "isDrum": true
    },
    {
      "pitch": 42,
      "velocity": 123,
      "startTime": 27.272700000000306,
      "endTime": 27.287851500000308,
      "instrument": 0,
      "program": -1,
      "isDrum": true
    },
    {
      "pitch": 38,
      "velocity": 123,
      "startTime": 27.272700000000306,
      "endTime": 27.287851500000308,
      "instrument": 0,
      "program": -1,
      "isDrum": true
    },
    {
      "pitch": 35,
      "velocity": 104,
      "startTime": 27.272700000000306,
      "endTime": 27.287851500000308,
      "instrument": 0,
      "program": -1,
      "isDrum": true
    },
    {
      "pitch": 42,
      "velocity": 79,
      "startTime": 27.45451800000031,
      "endTime": 27.46966950000031,
      "instrument": 0,
      "program": -1,
      "isDrum": true
    },
    {
      "pitch": 42,
      "velocity": 62,
      "startTime": 27.545427000000313,
      "endTime": 27.560578500000315,
      "instrument": 0,
      "program": -1,
      "isDrum": true
    },
    {
      "pitch": 42,
      "velocity": 123,
      "startTime": 27.636336000000316,
      "endTime": 27.651487500000318,
      "instrument": 0,
      "program": -1,
      "isDrum": true
    },
    {
      "pitch": 35,
      "velocity": 117,
      "startTime": 27.636336000000316,
      "endTime": 27.651487500000318,
      "instrument": 0,
      "program": -1,
      "isDrum": true
    },
    {
      "pitch": 42,
      "velocity": 81,
      "startTime": 27.81815400000032,
      "endTime": 27.83330550000032,
      "instrument": 0,
      "program": -1,
      "isDrum": true
    },
    {
      "pitch": 42,
      "velocity": 69,
      "startTime": 27.909063000000323,
      "endTime": 27.924214500000325,
      "instrument": 0,
      "program": -1,
      "isDrum": true
    },
    {
      "pitch": 42,
      "velocity": 123,
      "startTime": 27.999972000000326,
      "endTime": 28.01512350000033,
      "instrument": 0,
      "program": -1,
      "isDrum": true
    },
    {
      "pitch": 38,
      "velocity": 123,
      "startTime": 27.999972000000326,
      "endTime": 28.01512350000033,
      "instrument": 0,
      "program": -1,
      "isDrum": true
    },
    {
      "pitch": 35,
      "velocity": 94,
      "startTime": 27.999972000000326,
      "endTime": 28.01512350000033,
      "instrument": 0,
      "program": -1,
      "isDrum": true
    },
    {
      "pitch": 42,
      "velocity": 92,
      "startTime": 28.18179000000033,
      "endTime": 28.19694150000033,
      "instrument": 0,
      "program": -1,
      "isDrum": true
    },
    {
      "pitch": 42,
      "velocity": 84,
      "startTime": 28.272699000000333,
      "endTime": 28.287850500000335,
      "instrument": 0,
      "program": -1,
      "isDrum": true
    },
    {
      "pitch": 42,
      "velocity": 123,
      "startTime": 28.363608000000337,
      "endTime": 28.37875950000034,
      "instrument": 0,
      "program": -1,
      "isDrum": true
    },
    {
      "pitch": 35,
      "velocity": 113,
      "startTime": 28.363608000000337,
      "endTime": 28.37875950000034,
      "instrument": 0,
      "program": -1,
      "isDrum": true
    },
    {
      "pitch": 42,
      "velocity": 92,
      "startTime": 28.54542600000034,
      "endTime": 28.560577500000342,
      "instrument": 0,
      "program": -1,
      "isDrum": true
    },
    {
      "pitch": 42,
      "velocity": 68,
      "startTime": 28.636335000000344,
      "endTime": 28.651486500000345,
      "instrument": 0,
      "program": -1,
      "isDrum": true
    },
    {
      "pitch": 42,
      "velocity": 123,
      "startTime": 28.727244000000347,
      "endTime": 28.74239550000035,
      "instrument": 0,
      "program": -1,
      "isDrum": true
    },
    {
      "pitch": 38,
      "velocity": 123,
      "startTime": 28.727244000000347,
      "endTime": 28.74239550000035,
      "instrument": 0,
      "program": -1,
      "isDrum": true
    },
    {
      "pitch": 35,
      "velocity": 104,
      "startTime": 28.727244000000347,
      "endTime": 28.74239550000035,
      "instrument": 0,
      "program": -1,
      "isDrum": true
    },
    {
      "pitch": 42,
      "velocity": 79,
      "startTime": 28.90906200000035,
      "endTime": 28.924213500000352,
      "instrument": 0,
      "program": -1,
      "isDrum": true
    },
    {
      "pitch": 42,
      "velocity": 62,
      "startTime": 28.999971000000354,
      "endTime": 29.015122500000356,
      "instrument": 0,
      "program": -1,
      "isDrum": true
    },
    {
      "pitch": 42,
      "velocity": 123,
      "startTime": 29.090880000000357,
      "endTime": 29.10603150000036,
      "instrument": 0,
      "program": -1,
      "isDrum": true
    },
    {
      "pitch": 35,
      "velocity": 117,
      "startTime": 29.090880000000357,
      "endTime": 29.10603150000036,
      "instrument": 0,
      "program": -1,
      "isDrum": true
    },
    {
      "pitch": 49,
      "velocity": 120,
      "startTime": 29.090880000000357,
      "endTime": 29.454516000000368,
      "instrument": 0,
      "program": -1,
      "isDrum": true
    },
    {
      "pitch": 42,
      "velocity": 81,
      "startTime": 29.27269800000036,
      "endTime": 29.287849500000362,
      "instrument": 0,
      "program": -1,
      "isDrum": true
    },
    {
      "pitch": 42,
      "velocity": 69,
      "startTime": 29.363607000000364,
      "endTime": 29.378758500000366,
      "instrument": 0,
      "program": -1,
      "isDrum": true
    },
    {
      "pitch": 42,
      "velocity": 123,
      "startTime": 29.454516000000368,
      "endTime": 29.46966750000037,
      "instrument": 0,
      "program": -1,
      "isDrum": true
    },
    {
      "pitch": 38,
      "velocity": 123,
      "startTime": 29.454516000000368,
      "endTime": 29.46966750000037,
      "instrument": 0,
      "program": -1,
      "isDrum": true
    },
    {
      "pitch": 35,
      "velocity": 94,
      "startTime": 29.454516000000368,
      "endTime": 29.46966750000037,
      "instrument": 0,
      "program": -1,
      "isDrum": true
    },
    {
      "pitch": 42,
      "velocity": 92,
      "startTime": 29.63633400000037,
      "endTime": 29.651485500000373,
      "instrument": 0,
      "program": -1,
      "isDrum": true
    },
    {
      "pitch": 42,
      "velocity": 84,
      "startTime": 29.727243000000374,
      "endTime": 29.742394500000376,
      "instrument": 0,
      "program": -1,
      "isDrum": true
    },
    {
      "pitch": 42,
      "velocity": 123,
      "startTime": 29.818152000000378,
      "endTime": 29.83330350000038,
      "instrument": 0,
      "program": -1,
      "isDrum": true
    },
    {
      "pitch": 35,
      "velocity": 113,
      "startTime": 29.818152000000378,
      "endTime": 29.83330350000038,
      "instrument": 0,
      "program": -1,
      "isDrum": true
    },
    {
      "pitch": 42,
      "velocity": 92,
      "startTime": 29.99997000000038,
      "endTime": 30.015121500000383,
      "instrument": 0,
      "program": -1,
      "isDrum": true
    },
    {
      "pitch": 42,
      "velocity": 68,
      "startTime": 30.090879000000385,
      "endTime": 30.106030500000386,
      "instrument": 0,
      "program": -1,
      "isDrum": true
    },
    {
      "pitch": 42,
      "velocity": 123,
      "startTime": 30.181788000000388,
      "endTime": 30.19693950000039,
      "instrument": 0,
      "program": -1,
      "isDrum": true
    },
    {
      "pitch": 38,
      "velocity": 123,
      "startTime": 30.181788000000388,
      "endTime": 30.19693950000039,
      "instrument": 0,
      "program": -1,
      "isDrum": true
    },
    {
      "pitch": 35,
      "velocity": 104,
      "startTime": 30.181788000000388,
      "endTime": 30.19693950000039,
      "instrument": 0,
      "program": -1,
      "isDrum": true
    },
    {
      "pitch": 42,
      "velocity": 79,
      "startTime": 30.36360600000039,
      "endTime": 30.378757500000393,
      "instrument": 0,
      "program": -1,
      "isDrum": true
    },
    {
      "pitch": 42,
      "velocity": 62,
      "startTime": 30.454515000000395,
      "endTime": 30.469666500000397,
      "instrument": 0,
      "program": -1,
      "isDrum": true
    },
    {
      "pitch": 42,
      "velocity": 123,
      "startTime": 30.5454240000004,
      "endTime": 30.5605755000004,
      "instrument": 0,
      "program": -1,
      "isDrum": true
    },
    {
      "pitch": 35,
      "velocity": 117,
      "startTime": 30.5454240000004,
      "endTime": 30.5605755000004,
      "instrument": 0,
      "program": -1,
      "isDrum": true
    },
    {
      "pitch": 42,
      "velocity": 81,
      "startTime": 30.727242000000402,
      "endTime": 30.742393500000404,
      "instrument": 0,
      "program": -1,
      "isDrum": true
    },
    {
      "pitch": 42,
      "velocity": 69,
      "startTime": 30.818151000000405,
      "endTime": 30.833302500000407,
      "instrument": 0,
      "program": -1,
      "isDrum": true
    },
    {
      "pitch": 42,
      "velocity": 123,
      "startTime": 30.90906000000041,
      "endTime": 30.92421150000041,
      "instrument": 0,
      "program": -1,
      "isDrum": true
    },
    {
      "pitch": 38,
      "velocity": 123,
      "startTime": 30.90906000000041,
      "endTime": 30.92421150000041,
      "instrument": 0,
      "program": -1,
      "isDrum": true
    },
    {
      "pitch": 35,
      "velocity": 94,
      "startTime": 30.90906000000041,
      "endTime": 30.92421150000041,
      "instrument": 0,
      "program": -1,
      "isDrum": true
    },
    {
      "pitch": 42,
      "velocity": 92,
      "startTime": 31.090878000000412,
      "endTime": 31.106029500000414,
      "instrument": 0,
      "program": -1,
      "isDrum": true
    },
    {
      "pitch": 42,
      "velocity": 84,
      "startTime": 31.181787000000416,
      "endTime": 31.196938500000417,
      "instrument": 0,
      "program": -1,
      "isDrum": true
    },
    {
      "pitch": 42,
      "velocity": 123,
      "startTime": 31.27269600000042,
      "endTime": 31.28784750000042,
      "instrument": 0,
      "program": -1,
      "isDrum": true
    },
    {
      "pitch": 35,
      "velocity": 113,
      "startTime": 31.27269600000042,
      "endTime": 31.28784750000042,
      "instrument": 0,
      "program": -1,
      "isDrum": true
    },
    {
      "pitch": 42,
      "velocity": 92,
      "startTime": 31.454514000000422,
      "endTime": 31.469665500000424,
      "instrument": 0,
      "program": -1,
      "isDrum": true
    },
    {
      "pitch": 42,
      "velocity": 68,
      "startTime": 31.545423000000426,
      "endTime": 31.560574500000428,
      "instrument": 0,
      "program": -1,
      "isDrum": true
    },
    {
      "pitch": 42,
      "velocity": 123,
      "startTime": 31.63633200000043,
      "endTime": 31.65148350000043,
      "instrument": 0,
      "program": -1,
      "isDrum": true
    },
    {
      "pitch": 38,
      "velocity": 123,
      "startTime": 31.63633200000043,
      "endTime": 31.65148350000043,
      "instrument": 0,
      "program": -1,
      "isDrum": true
    },
    {
      "pitch": 35,
      "velocity": 104,
      "startTime": 31.63633200000043,
      "endTime": 31.65148350000043,
      "instrument": 0,
      "program": -1,
      "isDrum": true
    },
    {
      "pitch": 42,
      "velocity": 79,
      "startTime": 31.818150000000433,
      "endTime": 31.833301500000434,
      "instrument": 0,
      "program": -1,
      "isDrum": true
    },
    {
      "pitch": 42,
      "velocity": 62,
      "startTime": 31.909059000000436,
      "endTime": 31.924210500000438,
      "instrument": 0,
      "program": -1,
      "isDrum": true
    },
    {
      "pitch": 42,
      "velocity": 123,
      "startTime": 31.99996800000044,
      "endTime": 32.01511950000044,
      "instrument": 0,
      "program": -1,
      "isDrum": true
    },
    {
      "pitch": 35,
      "velocity": 117,
      "startTime": 31.99996800000044,
      "endTime": 32.01511950000044,
      "instrument": 0,
      "program": -1,
      "isDrum": true
    },
    {
      "pitch": 49,
      "velocity": 120,
      "startTime": 31.99996800000044,
      "endTime": 32.36360400000044,
      "instrument": 0,
      "program": -1,
      "isDrum": true
    },
    {
      "pitch": 42,
      "velocity": 81,
      "startTime": 32.181786000000436,
      "endTime": 32.19693750000044,
      "instrument": 0,
      "program": -1,
      "isDrum": true
    },
    {
      "pitch": 42,
      "velocity": 69,
      "startTime": 32.27269500000044,
      "endTime": 32.28784650000044,
      "instrument": 0,
      "program": -1,
      "isDrum": true
    },
    {
      "pitch": 42,
      "velocity": 123,
      "startTime": 32.36360400000044,
      "endTime": 32.378755500000445,
      "instrument": 0,
      "program": -1,
      "isDrum": true
    },
    {
      "pitch": 38,
      "velocity": 123,
      "startTime": 32.36360400000044,
      "endTime": 32.378755500000445,
      "instrument": 0,
      "program": -1,
      "isDrum": true
    },
    {
      "pitch": 35,
      "velocity": 94,
      "startTime": 32.36360400000044,
      "endTime": 32.378755500000445,
      "instrument": 0,
      "program": -1,
      "isDrum": true
    },
    {
      "pitch": 42,
      "velocity": 92,
      "startTime": 32.54542200000044,
      "endTime": 32.560573500000444,
      "instrument": 0,
      "program": -1,
      "isDrum": true
    },
    {
      "pitch": 42,
      "velocity": 84,
      "startTime": 32.636331000000446,
      "endTime": 32.65148250000045,
      "instrument": 0,
      "program": -1,
      "isDrum": true
    },
    {
      "pitch": 42,
      "velocity": 123,
      "startTime": 32.72724000000045,
      "endTime": 32.74239150000045,
      "instrument": 0,
      "program": -1,
      "isDrum": true
    },
    {
      "pitch": 35,
      "velocity": 113,
      "startTime": 32.72724000000045,
      "endTime": 32.74239150000045,
      "instrument": 0,
      "program": -1,
      "isDrum": true
    },
    {
      "pitch": 42,
      "velocity": 92,
      "startTime": 32.90905800000045,
      "endTime": 32.92420950000045,
      "instrument": 0,
      "program": -1,
      "isDrum": true
    },
    {
      "pitch": 42,
      "velocity": 68,
      "startTime": 32.99996700000045,
      "endTime": 33.015118500000455,
      "instrument": 0,
      "program": -1,
      "isDrum": true
    },
    {
      "pitch": 42,
      "velocity": 123,
      "startTime": 33.090876000000456,
      "endTime": 33.10602750000046,
      "instrument": 0,
      "program": -1,
      "isDrum": true
    },
    {
      "pitch": 38,
      "velocity": 123,
      "startTime": 33.090876000000456,
      "endTime": 33.10602750000046,
      "instrument": 0,
      "program": -1,
      "isDrum": true
    },
    {
      "pitch": 35,
      "velocity": 104,
      "startTime": 33.090876000000456,
      "endTime": 33.10602750000046,
      "instrument": 0,
      "program": -1,
      "isDrum": true
    },
    {
      "pitch": 42,
      "velocity": 79,
      "startTime": 33.272694000000456,
      "endTime": 33.28784550000046,
      "instrument": 0,
      "program": -1,
      "isDrum": true
    },
    {
      "pitch": 42,
      "velocity": 62,
      "startTime": 33.36360300000046,
      "endTime": 33.37875450000046,
      "instrument": 0,
      "program": -1,
      "isDrum": true
    },
    {
      "pitch": 42,
      "velocity": 123,
      "startTime": 33.45451200000046,
      "endTime": 33.469663500000465,
      "instrument": 0,
      "program": -1,
      "isDrum": true
    },
    {
      "pitch": 35,
      "velocity": 117,
      "startTime": 33.45451200000046,
      "endTime": 33.469663500000465,
      "instrument": 0,
      "program": -1,
      "isDrum": true
    },
    {
      "pitch": 42,
      "velocity": 81,
      "startTime": 33.63633000000046,
      "endTime": 33.651481500000465,
      "instrument": 0,
      "program": -1,
      "isDrum": true
    },
    {
      "pitch": 42,
      "velocity": 69,
      "startTime": 33.727239000000466,
      "endTime": 33.74239050000047,
      "instrument": 0,
      "program": -1,
      "isDrum": true
    },
    {
      "pitch": 42,
      "velocity": 123,
      "startTime": 33.81814800000047,
      "endTime": 33.83329950000047,
      "instrument": 0,
      "program": -1,
      "isDrum": true
    },
    {
      "pitch": 38,
      "velocity": 123,
      "startTime": 33.81814800000047,
      "endTime": 33.83329950000047,
      "instrument": 0,
      "program": -1,
      "isDrum": true
    },
    {
      "pitch": 35,
      "velocity": 94,
      "startTime": 33.81814800000047,
      "endTime": 33.83329950000047,
      "instrument": 0,
      "program": -1,
      "isDrum": true
    },
    {
      "pitch": 42,
      "velocity": 92,
      "startTime": 33.99996600000047,
      "endTime": 34.01511750000047,
      "instrument": 0,
      "program": -1,
      "isDrum": true
    },
    {
      "pitch": 42,
      "velocity": 84,
      "startTime": 34.09087500000047,
      "endTime": 34.106026500000475,
      "instrument": 0,
      "program": -1,
      "isDrum": true
    },
    {
      "pitch": 42,
      "velocity": 123,
      "startTime": 34.18178400000048,
      "endTime": 34.19693550000048,
      "instrument": 0,
      "program": -1,
      "isDrum": true
    },
    {
      "pitch": 35,
      "velocity": 113,
      "startTime": 34.18178400000048,
      "endTime": 34.19693550000048,
      "instrument": 0,
      "program": -1,
      "isDrum": true
    },
    {
      "pitch": 42,
      "velocity": 92,
      "startTime": 34.363602000000476,
      "endTime": 34.37875350000048,
      "instrument": 0,
      "program": -1,
      "isDrum": true
    },
    {
      "pitch": 42,
      "velocity": 68,
      "startTime": 34.45451100000048,
      "endTime": 34.46966250000048,
      "instrument": 0,
      "program": -1,
      "isDrum": true
    },
    {
      "pitch": 42,
      "velocity": 123,
      "startTime": 34.54542000000048,
      "endTime": 34.560571500000485,
      "instrument": 0,
      "program": -1,
      "isDrum": true
    },
    {
      "pitch": 38,
      "velocity": 123,
      "startTime": 34.54542000000048,
      "endTime": 34.560571500000485,
      "instrument": 0,
      "program": -1,
      "isDrum": true
    },
    {
      "pitch": 35,
      "velocity": 104,
      "startTime": 34.54542000000048,
      "endTime": 34.560571500000485,
      "instrument": 0,
      "program": -1,
      "isDrum": true
    },
    {
      "pitch": 42,
      "velocity": 79,
      "startTime": 34.72723800000048,
      "endTime": 34.742389500000485,
      "instrument": 0,
      "program": -1,
      "isDrum": true
    },
    {
      "pitch": 42,
      "velocity": 62,
      "startTime": 34.81814700000049,
      "endTime": 34.83329850000049,
      "instrument": 0,
      "program": -1,
      "isDrum": true
    },
    {
      "pitch": 42,
      "velocity": 123,
      "startTime": 34.90905600000049,
      "endTime": 34.92420750000049,
      "instrument": 0,
      "program": -1,
      "isDrum": true
    },
    {
      "pitch": 35,
      "velocity": 117,
      "startTime": 34.90905600000049,
      "endTime": 34.92420750000049,
      "instrument": 0,
      "program": -1,
      "isDrum": true
    },
    {
      "pitch": 49,
      "velocity": 120,
      "startTime": 34.90905600000049,
      "endTime": 35.2726920000005,
      "instrument": 0,
      "program": -1,
      "isDrum": true
    },
    {
      "pitch": 42,
      "velocity": 81,
      "startTime": 35.09087400000049,
      "endTime": 35.10602550000049,
      "instrument": 0,
      "program": -1,
      "isDrum": true
    },
    {
      "pitch": 42,
      "velocity": 69,
      "startTime": 35.18178300000049,
      "endTime": 35.196934500000495,
      "instrument": 0,
      "program": -1,
      "isDrum": true
    },
    {
      "pitch": 42,
      "velocity": 123,
      "startTime": 35.2726920000005,
      "endTime": 35.2878435000005,
      "instrument": 0,
      "program": -1,
      "isDrum": true
    },
    {
      "pitch": 38,
      "velocity": 123,
      "startTime": 35.2726920000005,
      "endTime": 35.2878435000005,
      "instrument": 0,
      "program": -1,
      "isDrum": true
    },
    {
      "pitch": 35,
      "velocity": 94,
      "startTime": 35.2726920000005,
      "endTime": 35.2878435000005,
      "instrument": 0,
      "program": -1,
      "isDrum": true
    },
    {
      "pitch": 42,
      "velocity": 92,
      "startTime": 35.4545100000005,
      "endTime": 35.4696615000005,
      "instrument": 0,
      "program": -1,
      "isDrum": true
    },
    {
      "pitch": 42,
      "velocity": 84,
      "startTime": 35.5454190000005,
      "endTime": 35.5605705000005,
      "instrument": 0,
      "program": -1,
      "isDrum": true
    },
    {
      "pitch": 42,
      "velocity": 123,
      "startTime": 35.6363280000005,
      "endTime": 35.651479500000505,
      "instrument": 0,
      "program": -1,
      "isDrum": true
    },
    {
      "pitch": 35,
      "velocity": 113,
      "startTime": 35.6363280000005,
      "endTime": 35.651479500000505,
      "instrument": 0,
      "program": -1,
      "isDrum": true
    },
    {
      "pitch": 42,
      "velocity": 92,
      "startTime": 35.8181460000005,
      "endTime": 35.833297500000505,
      "instrument": 0,
      "program": -1,
      "isDrum": true
    },
    {
      "pitch": 42,
      "velocity": 68,
      "startTime": 35.90905500000051,
      "endTime": 35.92420650000051,
      "instrument": 0,
      "program": -1,
      "isDrum": true
    },
    {
      "pitch": 42,
      "velocity": 123,
      "startTime": 35.99996400000051,
      "endTime": 36.01511550000051,
      "instrument": 0,
      "program": -1,
      "isDrum": true
    },
    {
      "pitch": 38,
      "velocity": 123,
      "startTime": 35.99996400000051,
      "endTime": 36.01511550000051,
      "instrument": 0,
      "program": -1,
      "isDrum": true
    },
    {
      "pitch": 35,
      "velocity": 104,
      "startTime": 35.99996400000051,
      "endTime": 36.01511550000051,
      "instrument": 0,
      "program": -1,
      "isDrum": true
    },
    {
      "pitch": 42,
      "velocity": 79,
      "startTime": 36.18178200000051,
      "endTime": 36.19693350000051,
      "instrument": 0,
      "program": -1,
      "isDrum": true
    },
    {
      "pitch": 42,
      "velocity": 62,
      "startTime": 36.27269100000051,
      "endTime": 36.287842500000515,
      "instrument": 0,
      "program": -1,
      "isDrum": true
    },
    {
      "pitch": 42,
      "velocity": 123,
      "startTime": 36.36360000000052,
      "endTime": 36.37875150000052,
      "instrument": 0,
      "program": -1,
      "isDrum": true
    },
    {
      "pitch": 35,
      "velocity": 117,
      "startTime": 36.36360000000052,
      "endTime": 36.37875150000052,
      "instrument": 0,
      "program": -1,
      "isDrum": true
    },
    {
      "pitch": 42,
      "velocity": 81,
      "startTime": 36.54541800000052,
      "endTime": 36.56056950000052,
      "instrument": 0,
      "program": -1,
      "isDrum": true
    },
    {
      "pitch": 42,
      "velocity": 69,
      "startTime": 36.63632700000052,
      "endTime": 36.65147850000052,
      "instrument": 0,
      "program": -1,
      "isDrum": true
    },
    {
      "pitch": 42,
      "velocity": 123,
      "startTime": 36.727236000000524,
      "endTime": 36.742387500000525,
      "instrument": 0,
      "program": -1,
      "isDrum": true
    },
    {
      "pitch": 38,
      "velocity": 123,
      "startTime": 36.727236000000524,
      "endTime": 36.742387500000525,
      "instrument": 0,
      "program": -1,
      "isDrum": true
    },
    {
      "pitch": 35,
      "velocity": 94,
      "startTime": 36.727236000000524,
      "endTime": 36.742387500000525,
      "instrument": 0,
      "program": -1,
      "isDrum": true
    },
    {
      "pitch": 42,
      "velocity": 92,
      "startTime": 36.90905400000052,
      "endTime": 36.924205500000525,
      "instrument": 0,
      "program": -1,
      "isDrum": true
    },
    {
      "pitch": 42,
      "velocity": 84,
      "startTime": 36.99996300000053,
      "endTime": 37.01511450000053,
      "instrument": 0,
      "program": -1,
      "isDrum": true
    },
    {
      "pitch": 42,
      "velocity": 123,
      "startTime": 37.09087200000053,
      "endTime": 37.10602350000053,
      "instrument": 0,
      "program": -1,
      "isDrum": true
    },
    {
      "pitch": 35,
      "velocity": 113,
      "startTime": 37.09087200000053,
      "endTime": 37.10602350000053,
      "instrument": 0,
      "program": -1,
      "isDrum": true
    },
    {
      "pitch": 42,
      "velocity": 92,
      "startTime": 37.27269000000053,
      "endTime": 37.28784150000053,
      "instrument": 0,
      "program": -1,
      "isDrum": true
    },
    {
      "pitch": 42,
      "velocity": 68,
      "startTime": 37.363599000000534,
      "endTime": 37.378750500000535,
      "instrument": 0,
      "program": -1,
      "isDrum": true
    },
    {
      "pitch": 42,
      "velocity": 123,
      "startTime": 37.45450800000054,
      "endTime": 37.46965950000054,
      "instrument": 0,
      "program": -1,
      "isDrum": true
    },
    {
      "pitch": 38,
      "velocity": 123,
      "startTime": 37.45450800000054,
      "endTime": 37.46965950000054,
      "instrument": 0,
      "program": -1,
      "isDrum": true
    },
    {
      "pitch": 35,
      "velocity": 104,
      "startTime": 37.45450800000054,
      "endTime": 37.46965950000054,
      "instrument": 0,
      "program": -1,
      "isDrum": true
    },
    {
      "pitch": 42,
      "velocity": 79,
      "startTime": 37.63632600000054,
      "endTime": 37.65147750000054,
      "instrument": 0,
      "program": -1,
      "isDrum": true
    },
    {
      "pitch": 42,
      "velocity": 62,
      "startTime": 37.72723500000054,
      "endTime": 37.74238650000054,
      "instrument": 0,
      "program": -1,
      "isDrum": true
    },
    {
      "pitch": 42,
      "velocity": 123,
      "startTime": 37.818144000000544,
      "endTime": 37.833295500000546,
      "instrument": 0,
      "program": -1,
      "isDrum": true
    },
    {
      "pitch": 35,
      "velocity": 117,
      "startTime": 37.818144000000544,
      "endTime": 37.833295500000546,
      "instrument": 0,
      "program": -1,
      "isDrum": true
    },
    {
      "pitch": 49,
      "velocity": 120,
      "startTime": 37.818144000000544,
      "endTime": 38.18178000000055,
      "instrument": 0,
      "program": -1,
      "isDrum": true
    },
    {
      "pitch": 42,
      "velocity": 81,
      "startTime": 37.999962000000544,
      "endTime": 38.015113500000545,
      "instrument": 0,
      "program": -1,
      "isDrum": true
    },
    {
      "pitch": 42,
      "velocity": 69,
      "startTime": 38.09087100000055,
      "endTime": 38.10602250000055,
      "instrument": 0,
      "program": -1,
      "isDrum": true
    },
    {
      "pitch": 42,
      "velocity": 123,
      "startTime": 38.18178000000055,
      "endTime": 38.19693150000055,
      "instrument": 0,
      "program": -1,
      "isDrum": true
    },
    {
      "pitch": 38,
      "velocity": 123,
      "startTime": 38.18178000000055,
      "endTime": 38.19693150000055,
      "instrument": 0,
      "program": -1,
      "isDrum": true
    },
    {
      "pitch": 35,
      "velocity": 94,
      "startTime": 38.18178000000055,
      "endTime": 38.19693150000055,
      "instrument": 0,
      "program": -1,
      "isDrum": true
    },
    {
      "pitch": 42,
      "velocity": 92,
      "startTime": 38.36359800000055,
      "endTime": 38.37874950000055,
      "instrument": 0,
      "program": -1,
      "isDrum": true
    },
    {
      "pitch": 42,
      "velocity": 84,
      "startTime": 38.454507000000554,
      "endTime": 38.469658500000556,
      "instrument": 0,
      "program": -1,
      "isDrum": true
    },
    {
      "pitch": 42,
      "velocity": 123,
      "startTime": 38.54541600000056,
      "endTime": 38.56056750000056,
      "instrument": 0,
      "program": -1,
      "isDrum": true
    },
    {
      "pitch": 35,
      "velocity": 113,
      "startTime": 38.54541600000056,
      "endTime": 38.56056750000056,
      "instrument": 0,
      "program": -1,
      "isDrum": true
    },
    {
      "pitch": 42,
      "velocity": 92,
      "startTime": 38.72723400000056,
      "endTime": 38.74238550000056,
      "instrument": 0,
      "program": -1,
      "isDrum": true
    },
    {
      "pitch": 42,
      "velocity": 68,
      "startTime": 38.81814300000056,
      "endTime": 38.83329450000056,
      "instrument": 0,
      "program": -1,
      "isDrum": true
    },
    {
      "pitch": 42,
      "velocity": 123,
      "startTime": 38.909052000000564,
      "endTime": 38.924203500000566,
      "instrument": 0,
      "program": -1,
      "isDrum": true
    },
    {
      "pitch": 38,
      "velocity": 123,
      "startTime": 38.909052000000564,
      "endTime": 38.924203500000566,
      "instrument": 0,
      "program": -1,
      "isDrum": true
    },
    {
      "pitch": 35,
      "velocity": 104,
      "startTime": 38.909052000000564,
      "endTime": 38.924203500000566,
      "instrument": 0,
      "program": -1,
      "isDrum": true
    },
    {
      "pitch": 42,
      "velocity": 79,
      "startTime": 39.090870000000564,
      "endTime": 39.106021500000566,
      "instrument": 0,
      "program": -1,
      "isDrum": true
    },
    {
      "pitch": 42,
      "velocity": 62,
      "startTime": 39.18177900000057,
      "endTime": 39.19693050000057,
      "instrument": 0,
      "program": -1,
      "isDrum": true
    },
    {
      "pitch": 42,
      "velocity": 123,
      "startTime": 39.27268800000057,
      "endTime": 39.28783950000057,
      "instrument": 0,
      "program": -1,
      "isDrum": true
    },
    {
      "pitch": 35,
      "velocity": 117,
      "startTime": 39.27268800000057,
      "endTime": 39.28783950000057,
      "instrument": 0,
      "program": -1,
      "isDrum": true
    },
    {
      "pitch": 42,
      "velocity": 81,
      "startTime": 39.45450600000057,
      "endTime": 39.46965750000057,
      "instrument": 0,
      "program": -1,
      "isDrum": true
    },
    {
      "pitch": 42,
      "velocity": 69,
      "startTime": 39.545415000000574,
      "endTime": 39.560566500000576,
      "instrument": 0,
      "program": -1,
      "isDrum": true
    },
    {
      "pitch": 42,
      "velocity": 123,
      "startTime": 39.63632400000058,
      "endTime": 39.65147550000058,
      "instrument": 0,
      "program": -1,
      "isDrum": true
    },
    {
      "pitch": 38,
      "velocity": 123,
      "startTime": 39.63632400000058,
      "endTime": 39.65147550000058,
      "instrument": 0,
      "program": -1,
      "isDrum": true
    },
    {
      "pitch": 35,
      "velocity": 94,
      "startTime": 39.63632400000058,
      "endTime": 39.65147550000058,
      "instrument": 0,
      "program": -1,
      "isDrum": true
    },
    {
      "pitch": 42,
      "velocity": 92,
      "startTime": 39.81814200000058,
      "endTime": 39.83329350000058,
      "instrument": 0,
      "program": -1,
      "isDrum": true
    },
    {
      "pitch": 42,
      "velocity": 84,
      "startTime": 39.90905100000058,
      "endTime": 39.92420250000058,
      "instrument": 0,
      "program": -1,
      "isDrum": true
    },
    {
      "pitch": 42,
      "velocity": 123,
      "startTime": 39.999960000000584,
      "endTime": 40.015111500000586,
      "instrument": 0,
      "program": -1,
      "isDrum": true
    },
    {
      "pitch": 35,
      "velocity": 113,
      "startTime": 39.999960000000584,
      "endTime": 40.015111500000586,
      "instrument": 0,
      "program": -1,
      "isDrum": true
    },
    {
      "pitch": 42,
      "velocity": 92,
      "startTime": 40.181778000000584,
      "endTime": 40.196929500000586,
      "instrument": 0,
      "program": -1,
      "isDrum": true
    },
    {
      "pitch": 42,
      "velocity": 68,
      "startTime": 40.27268700000059,
      "endTime": 40.28783850000059,
      "instrument": 0,
      "program": -1,
      "isDrum": true
    },
    {
      "pitch": 42,
      "velocity": 123,
      "startTime": 40.36359600000059,
      "endTime": 40.37874750000059,
      "instrument": 0,
      "program": -1,
      "isDrum": true
    },
    {
      "pitch": 38,
      "velocity": 123,
      "startTime": 40.36359600000059,
      "endTime": 40.37874750000059,
      "instrument": 0,
      "program": -1,
      "isDrum": true
    },
    {
      "pitch": 35,
      "velocity": 104,
      "startTime": 40.36359600000059,
      "endTime": 40.37874750000059,
      "instrument": 0,
      "program": -1,
      "isDrum": true
    },
    {
      "pitch": 42,
      "velocity": 79,
      "startTime": 40.54541400000059,
      "endTime": 40.56056550000059,
      "instrument": 0,
      "program": -1,
      "isDrum": true
    },
    {
      "pitch": 42,
      "velocity": 62,
      "startTime": 40.636323000000594,
      "endTime": 40.651474500000596,
      "instrument": 0,
      "program": -1,
      "isDrum": true
    },
    {
      "pitch": 42,
      "velocity": 123,
      "startTime": 40.7272320000006,
      "endTime": 40.7423835000006,
      "instrument": 0,
      "program": -1,
      "isDrum": true
    },
    {
      "pitch": 35,
      "velocity": 117,
      "startTime": 40.7272320000006,
      "endTime": 40.7423835000006,
      "instrument": 0,
      "program": -1,
      "isDrum": true
    },
    {
      "pitch": 49,
      "velocity": 120,
      "startTime": 40.7272320000006,
      "endTime": 41.090868000000604,
      "instrument": 0,
      "program": -1,
      "isDrum": true
    },
    {
      "pitch": 42,
      "velocity": 81,
      "startTime": 40.9090500000006,
      "endTime": 40.9242015000006,
      "instrument": 0,
      "program": -1,
      "isDrum": true
    },
    {
      "pitch": 42,
      "velocity": 69,
      "startTime": 40.9999590000006,
      "endTime": 41.0151105000006,
      "instrument": 0,
      "program": -1,
      "isDrum": true
    },
    {
      "pitch": 42,
      "velocity": 123,
      "startTime": 41.090868000000604,
      "endTime": 41.106019500000606,
      "instrument": 0,
      "program": -1,
      "isDrum": true
    },
    {
      "pitch": 38,
      "velocity": 123,
      "startTime": 41.090868000000604,
      "endTime": 41.106019500000606,
      "instrument": 0,
      "program": -1,
      "isDrum": true
    },
    {
      "pitch": 35,
      "velocity": 94,
      "startTime": 41.090868000000604,
      "endTime": 41.106019500000606,
      "instrument": 0,
      "program": -1,
      "isDrum": true
    },
    {
      "pitch": 42,
      "velocity": 92,
      "startTime": 41.272686000000604,
      "endTime": 41.287837500000606,
      "instrument": 0,
      "program": -1,
      "isDrum": true
    },
    {
      "pitch": 42,
      "velocity": 84,
      "startTime": 41.36359500000061,
      "endTime": 41.37874650000061,
      "instrument": 0,
      "program": -1,
      "isDrum": true
    },
    {
      "pitch": 42,
      "velocity": 123,
      "startTime": 41.45450400000061,
      "endTime": 41.46965550000061,
      "instrument": 0,
      "program": -1,
      "isDrum": true
    },
    {
      "pitch": 35,
      "velocity": 113,
      "startTime": 41.45450400000061,
      "endTime": 41.46965550000061,
      "instrument": 0,
      "program": -1,
      "isDrum": true
    },
    {
      "pitch": 42,
      "velocity": 92,
      "startTime": 41.63632200000061,
      "endTime": 41.65147350000061,
      "instrument": 0,
      "program": -1,
      "isDrum": true
    },
    {
      "pitch": 42,
      "velocity": 68,
      "startTime": 41.727231000000614,
      "endTime": 41.742382500000616,
      "instrument": 0,
      "program": -1,
      "isDrum": true
    },
    {
      "pitch": 42,
      "velocity": 123,
      "startTime": 41.81814000000062,
      "endTime": 41.83329150000062,
      "instrument": 0,
      "program": -1,
      "isDrum": true
    },
    {
      "pitch": 38,
      "velocity": 123,
      "startTime": 41.81814000000062,
      "endTime": 41.83329150000062,
      "instrument": 0,
      "program": -1,
      "isDrum": true
    },
    {
      "pitch": 35,
      "velocity": 104,
      "startTime": 41.81814000000062,
      "endTime": 41.83329150000062,
      "instrument": 0,
      "program": -1,
      "isDrum": true
    },
    {
      "pitch": 42,
      "velocity": 79,
      "startTime": 41.99995800000062,
      "endTime": 42.01510950000062,
      "instrument": 0,
      "program": -1,
      "isDrum": true
    },
    {
      "pitch": 42,
      "velocity": 62,
      "startTime": 42.09086700000062,
      "endTime": 42.10601850000062,
      "instrument": 0,
      "program": -1,
      "isDrum": true
    },
    {
      "pitch": 42,
      "velocity": 123,
      "startTime": 42.181776000000625,
      "endTime": 42.196927500000626,
      "instrument": 0,
      "program": -1,
      "isDrum": true
    },
    {
      "pitch": 35,
      "velocity": 117,
      "startTime": 42.181776000000625,
      "endTime": 42.196927500000626,
      "instrument": 0,
      "program": -1,
      "isDrum": true
    },
    {
      "pitch": 42,
      "velocity": 81,
      "startTime": 42.363594000000624,
      "endTime": 42.378745500000626,
      "instrument": 0,
      "program": -1,
      "isDrum": true
    },
    {
      "pitch": 42,
      "velocity": 69,
      "startTime": 42.45450300000063,
      "endTime": 42.46965450000063,
      "instrument": 0,
      "program": -1,
      "isDrum": true
    },
    {
      "pitch": 42,
      "velocity": 123,
      "startTime": 42.54541200000063,
      "endTime": 42.56056350000063,
      "instrument": 0,
      "program": -1,
      "isDrum": true
    },
    {
      "pitch": 38,
      "velocity": 123,
      "startTime": 42.54541200000063,
      "endTime": 42.56056350000063,
      "instrument": 0,
      "program": -1,
      "isDrum": true
    },
    {
      "pitch": 35,
      "velocity": 94,
      "startTime": 42.54541200000063,
      "endTime": 42.56056350000063,
      "instrument": 0,
      "program": -1,
      "isDrum": true
    },
    {
      "pitch": 42,
      "velocity": 92,
      "startTime": 42.72723000000063,
      "endTime": 42.74238150000063,
      "instrument": 0,
      "program": -1,
      "isDrum": true
    },
    {
      "pitch": 42,
      "velocity": 84,
      "startTime": 42.818139000000635,
      "endTime": 42.833290500000636,
      "instrument": 0,
      "program": -1,
      "isDrum": true
    },
    {
      "pitch": 42,
      "velocity": 123,
      "startTime": 42.90904800000064,
      "endTime": 42.92419950000064,
      "instrument": 0,
      "program": -1,
      "isDrum": true
    },
    {
      "pitch": 35,
      "velocity": 113,
      "startTime": 42.90904800000064,
      "endTime": 42.92419950000064,
      "instrument": 0,
      "program": -1,
      "isDrum": true
    },
    {
      "pitch": 42,
      "velocity": 92,
      "startTime": 43.09086600000064,
      "endTime": 43.10601750000064,
      "instrument": 0,
      "program": -1,
      "isDrum": true
    },
    {
      "pitch": 42,
      "velocity": 68,
      "startTime": 43.18177500000064,
      "endTime": 43.19692650000064,
      "instrument": 0,
      "program": -1,
      "isDrum": true
    },
    {
      "pitch": 42,
      "velocity": 123,
      "startTime": 43.272684000000645,
      "endTime": 43.28783550000065,
      "instrument": 0,
      "program": -1,
      "isDrum": true
    },
    {
      "pitch": 38,
      "velocity": 123,
      "startTime": 43.272684000000645,
      "endTime": 43.28783550000065,
      "instrument": 0,
      "program": -1,
      "isDrum": true
    },
    {
      "pitch": 35,
      "velocity": 104,
      "startTime": 43.272684000000645,
      "endTime": 43.28783550000065,
      "instrument": 0,
      "program": -1,
      "isDrum": true
    },
    {
      "pitch": 42,
      "velocity": 79,
      "startTime": 43.454502000000645,
      "endTime": 43.469653500000646,
      "instrument": 0,
      "program": -1,
      "isDrum": true
    },
    {
      "pitch": 38,
      "velocity": 123,
      "startTime": 43.454502000000645,
      "endTime": 43.469653500000646,
      "instrument": 0,
      "program": -1,
      "isDrum": true
    },
    {
      "pitch": 42,
      "velocity": 62,
      "startTime": 43.54541100000065,
      "endTime": 43.56056250000065,
      "instrument": 0,
      "program": -1,
      "isDrum": true
    },
    {
      "pitch": 38,
      "velocity": 123,
      "startTime": 43.54541100000065,
      "endTime": 43.56056250000065,
      "instrument": 0,
      "program": -1,
      "isDrum": true
    },
    {
      "pitch": 42,
      "velocity": 123,
      "startTime": 43.63632000000065,
      "endTime": 43.65147150000065,
      "instrument": 0,
      "program": -1,
      "isDrum": true
    },
    {
      "pitch": 35,
      "velocity": 117,
      "startTime": 43.63632000000065,
      "endTime": 43.65147150000065,
      "instrument": 0,
      "program": -1,
      "isDrum": true
    },
    {
      "pitch": 49,
      "velocity": 120,
      "startTime": 43.63632000000065,
      "endTime": 43.99995600000066,
      "instrument": 0,
      "program": -1,
      "isDrum": true
    },
    {
      "pitch": 42,
      "velocity": 81,
      "startTime": 43.81813800000065,
      "endTime": 43.83328950000065,
      "instrument": 0,
      "program": -1,
      "isDrum": true
    },
    {
      "pitch": 42,
      "velocity": 69,
      "startTime": 43.909047000000655,
      "endTime": 43.92419850000066,
      "instrument": 0,
      "program": -1,
      "isDrum": true
    },
    {
      "pitch": 42,
      "velocity": 123,
      "startTime": 43.99995600000066,
      "endTime": 44.01510750000066,
      "instrument": 0,
      "program": -1,
      "isDrum": true
    },
    {
      "pitch": 38,
      "velocity": 123,
      "startTime": 43.99995600000066,
      "endTime": 44.01510750000066,
      "instrument": 0,
      "program": -1,
      "isDrum": true
    },
    {
      "pitch": 35,
      "velocity": 94,
      "startTime": 43.99995600000066,
      "endTime": 44.01510750000066,
      "instrument": 0,
      "program": -1,
      "isDrum": true
    },
    {
      "pitch": 42,
      "velocity": 92,
      "startTime": 44.18177400000066,
      "endTime": 44.19692550000066,
      "instrument": 0,
      "program": -1,
      "isDrum": true
    },
    {
      "pitch": 42,
      "velocity": 84,
      "startTime": 44.27268300000066,
      "endTime": 44.28783450000066,
      "instrument": 0,
      "program": -1,
      "isDrum": true
    },
    {
      "pitch": 42,
      "velocity": 123,
      "startTime": 44.363592000000665,
      "endTime": 44.37874350000067,
      "instrument": 0,
      "program": -1,
      "isDrum": true
    },
    {
      "pitch": 35,
      "velocity": 113,
      "startTime": 44.363592000000665,
      "endTime": 44.37874350000067,
      "instrument": 0,
      "program": -1,
      "isDrum": true
    },
    {
      "pitch": 42,
      "velocity": 92,
      "startTime": 44.545410000000665,
      "endTime": 44.56056150000067,
      "instrument": 0,
      "program": -1,
      "isDrum": true
    },
    {
      "pitch": 42,
      "velocity": 68,
      "startTime": 44.63631900000067,
      "endTime": 44.65147050000067,
      "instrument": 0,
      "program": -1,
      "isDrum": true
    },
    {
      "pitch": 42,
      "velocity": 123,
      "startTime": 44.72722800000067,
      "endTime": 44.74237950000067,
      "instrument": 0,
      "program": -1,
      "isDrum": true
    },
    {
      "pitch": 38,
      "velocity": 123,
      "startTime": 44.72722800000067,
      "endTime": 44.74237950000067,
      "instrument": 0,
      "program": -1,
      "isDrum": true
    },
    {
      "pitch": 35,
      "velocity": 104,
      "startTime": 44.72722800000067,
      "endTime": 44.74237950000067,
      "instrument": 0,
      "program": -1,
      "isDrum": true
    },
    {
      "pitch": 42,
      "velocity": 79,
      "startTime": 44.90904600000067,
      "endTime": 44.92419750000067,
      "instrument": 0,
      "program": -1,
      "isDrum": true
    },
    {
      "pitch": 42,
      "velocity": 62,
      "startTime": 44.999955000000675,
      "endTime": 45.01510650000068,
      "instrument": 0,
      "program": -1,
      "isDrum": true
    },
    {
      "pitch": 42,
      "velocity": 123,
      "startTime": 45.09086400000068,
      "endTime": 45.10601550000068,
      "instrument": 0,
      "program": -1,
      "isDrum": true
    },
    {
      "pitch": 35,
      "velocity": 117,
      "startTime": 45.09086400000068,
      "endTime": 45.10601550000068,
      "instrument": 0,
      "program": -1,
      "isDrum": true
    },
    {
      "pitch": 42,
      "velocity": 81,
      "startTime": 45.27268200000068,
      "endTime": 45.28783350000068,
      "instrument": 0,
      "program": -1,
      "isDrum": true
    },
    {
      "pitch": 42,
      "velocity": 69,
      "startTime": 45.36359100000068,
      "endTime": 45.37874250000068,
      "instrument": 0,
      "program": -1,
      "isDrum": true
    },
    {
      "pitch": 42,
      "velocity": 123,
      "startTime": 45.454500000000685,
      "endTime": 45.46965150000069,
      "instrument": 0,
      "program": -1,
      "isDrum": true
    },
    {
      "pitch": 38,
      "velocity": 123,
      "startTime": 45.454500000000685,
      "endTime": 45.46965150000069,
      "instrument": 0,
      "program": -1,
      "isDrum": true
    },
    {
      "pitch": 35,
      "velocity": 94,
      "startTime": 45.454500000000685,
      "endTime": 45.46965150000069,
      "instrument": 0,
      "program": -1,
      "isDrum": true
    },
    {
      "pitch": 42,
      "velocity": 92,
      "startTime": 45.636318000000685,
      "endTime": 45.65146950000069,
      "instrument": 0,
      "program": -1,
      "isDrum": true
    },
    {
      "pitch": 42,
      "velocity": 84,
      "startTime": 45.72722700000069,
      "endTime": 45.74237850000069,
      "instrument": 0,
      "program": -1,
      "isDrum": true
    },
    {
      "pitch": 42,
      "velocity": 123,
      "startTime": 45.81813600000069,
      "endTime": 45.833287500000694,
      "instrument": 0,
      "program": -1,
      "isDrum": true
    },
    {
      "pitch": 35,
      "velocity": 113,
      "startTime": 45.81813600000069,
      "endTime": 45.833287500000694,
      "instrument": 0,
      "program": -1,
      "isDrum": true
    },
    {
      "pitch": 42,
      "velocity": 92,
      "startTime": 45.99995400000069,
      "endTime": 46.01510550000069,
      "instrument": 0,
      "program": -1,
      "isDrum": true
    },
    {
      "pitch": 42,
      "velocity": 68,
      "startTime": 46.090863000000695,
      "endTime": 46.1060145000007,
      "instrument": 0,
      "program": -1,
      "isDrum": true
    },
    {
      "pitch": 42,
      "velocity": 123,
      "startTime": 46.1817720000007,
      "endTime": 46.1969235000007,
      "instrument": 0,
      "program": -1,
      "isDrum": true
    },
    {
      "pitch": 38,
      "velocity": 123,
      "startTime": 46.1817720000007,
      "endTime": 46.1969235000007,
      "instrument": 0,
      "program": -1,
      "isDrum": true
    },
    {
      "pitch": 35,
      "velocity": 104,
      "startTime": 46.1817720000007,
      "endTime": 46.1969235000007,
      "instrument": 0,
      "program": -1,
      "isDrum": true
    },
    {
      "pitch": 42,
      "velocity": 79,
      "startTime": 46.3635900000007,
      "endTime": 46.3787415000007,
      "instrument": 0,
      "program": -1,
      "isDrum": true
    },
    {
      "pitch": 42,
      "velocity": 62,
      "startTime": 46.4544990000007,
      "endTime": 46.469650500000704,
      "instrument": 0,
      "program": -1,
      "isDrum": true
    },
    {
      "pitch": 42,
      "velocity": 123,
      "startTime": 46.545408000000705,
      "endTime": 46.56055950000071,
      "instrument": 0,
      "program": -1,
      "isDrum": true
    },
    {
      "pitch": 35,
      "velocity": 117,
      "startTime": 46.545408000000705,
      "endTime": 46.56055950000071,
      "instrument": 0,
      "program": -1,
      "isDrum": true
    },
    {
      "pitch": 49,
      "velocity": 120,
      "startTime": 46.545408000000705,
      "endTime": 46.90904400000071,
      "instrument": 0,
      "program": -1,
      "isDrum": true
    },
    {
      "pitch": 42,
      "velocity": 81,
      "startTime": 46.727226000000705,
      "endTime": 46.74237750000071,
      "instrument": 0,
      "program": -1,
      "isDrum": true
    },
    {
      "pitch": 42,
      "velocity": 69,
      "startTime": 46.81813500000071,
      "endTime": 46.83328650000071,
      "instrument": 0,
      "program": -1,
      "isDrum": true
    },
    {
      "pitch": 42,
      "velocity": 123,
      "startTime": 46.90904400000071,
      "endTime": 46.924195500000714,
      "instrument": 0,
      "program": -1,
      "isDrum": true
    },
    {
      "pitch": 38,
      "velocity": 123,
      "startTime": 46.90904400000071,
      "endTime": 46.924195500000714,
      "instrument": 0,
      "program": -1,
      "isDrum": true
    },
    {
      "pitch": 35,
      "velocity": 94,
      "startTime": 46.90904400000071,
      "endTime": 46.924195500000714,
      "instrument": 0,
      "program": -1,
      "isDrum": true
    },
    {
      "pitch": 42,
      "velocity": 92,
      "startTime": 47.09086200000071,
      "endTime": 47.106013500000714,
      "instrument": 0,
      "program": -1,
      "isDrum": true
    },
    {
      "pitch": 42,
      "velocity": 84,
      "startTime": 47.181771000000715,
      "endTime": 47.19692250000072,
      "instrument": 0,
      "program": -1,
      "isDrum": true
    },
    {
      "pitch": 42,
      "velocity": 123,
      "startTime": 47.27268000000072,
      "endTime": 47.28783150000072,
      "instrument": 0,
      "program": -1,
      "isDrum": true
    },
    {
      "pitch": 35,
      "velocity": 113,
      "startTime": 47.27268000000072,
      "endTime": 47.28783150000072,
      "instrument": 0,
      "program": -1,
      "isDrum": true
    },
    {
      "pitch": 42,
      "velocity": 92,
      "startTime": 47.45449800000072,
      "endTime": 47.46964950000072,
      "instrument": 0,
      "program": -1,
      "isDrum": true
    },
    {
      "pitch": 42,
      "velocity": 68,
      "startTime": 47.54540700000072,
      "endTime": 47.560558500000724,
      "instrument": 0,
      "program": -1,
      "isDrum": true
    },
    {
      "pitch": 42,
      "velocity": 123,
      "startTime": 47.636316000000726,
      "endTime": 47.65146750000073,
      "instrument": 0,
      "program": -1,
      "isDrum": true
    },
    {
      "pitch": 38,
      "velocity": 123,
      "startTime": 47.636316000000726,
      "endTime": 47.65146750000073,
      "instrument": 0,
      "program": -1,
      "isDrum": true
    },
    {
      "pitch": 35,
      "velocity": 104,
      "startTime": 47.636316000000726,
      "endTime": 47.65146750000073,
      "instrument": 0,
      "program": -1,
      "isDrum": true
    },
    {
      "pitch": 42,
      "velocity": 79,
      "startTime": 47.818134000000725,
      "endTime": 47.83328550000073,
      "instrument": 0,
      "program": -1,
      "isDrum": true
    },
    {
      "pitch": 42,
      "velocity": 62,
      "startTime": 47.90904300000073,
      "endTime": 47.92419450000073,
      "instrument": 0,
      "program": -1,
      "isDrum": true
    },
    {
      "pitch": 42,
      "velocity": 123,
      "startTime": 47.99995200000073,
      "endTime": 48.015103500000734,
      "instrument": 0,
      "program": -1,
      "isDrum": true
    },
    {
      "pitch": 35,
      "velocity": 117,
      "startTime": 47.99995200000073,
      "endTime": 48.015103500000734,
      "instrument": 0,
      "program": -1,
      "isDrum": true
    },
    {
      "pitch": 42,
      "velocity": 81,
      "startTime": 48.18177000000073,
      "endTime": 48.196921500000734,
      "instrument": 0,
      "program": -1,
      "isDrum": true
    },
    {
      "pitch": 42,
      "velocity": 69,
      "startTime": 48.272679000000736,
      "endTime": 48.28783050000074,
      "instrument": 0,
      "program": -1,
      "isDrum": true
    },
    {
      "pitch": 42,
      "velocity": 123,
      "startTime": 48.36358800000074,
      "endTime": 48.37873950000074,
      "instrument": 0,
      "program": -1,
      "isDrum": true
    },
    {
      "pitch": 38,
      "velocity": 123,
      "startTime": 48.36358800000074,
      "endTime": 48.37873950000074,
      "instrument": 0,
      "program": -1,
      "isDrum": true
    },
    {
      "pitch": 35,
      "velocity": 94,
      "startTime": 48.36358800000074,
      "endTime": 48.37873950000074,
      "instrument": 0,
      "program": -1,
      "isDrum": true
    },
    {
      "pitch": 42,
      "velocity": 92,
      "startTime": 48.54540600000074,
      "endTime": 48.56055750000074,
      "instrument": 0,
      "program": -1,
      "isDrum": true
    },
    {
      "pitch": 42,
      "velocity": 84,
      "startTime": 48.63631500000074,
      "endTime": 48.651466500000744,
      "instrument": 0,
      "program": -1,
      "isDrum": true
    },
    {
      "pitch": 42,
      "velocity": 123,
      "startTime": 48.727224000000746,
      "endTime": 48.74237550000075,
      "instrument": 0,
      "program": -1,
      "isDrum": true
    },
    {
      "pitch": 35,
      "velocity": 113,
      "startTime": 48.727224000000746,
      "endTime": 48.74237550000075,
      "instrument": 0,
      "program": -1,
      "isDrum": true
    },
    {
      "pitch": 42,
      "velocity": 92,
      "startTime": 48.909042000000746,
      "endTime": 48.92419350000075,
      "instrument": 0,
      "program": -1,
      "isDrum": true
    },
    {
      "pitch": 42,
      "velocity": 68,
      "startTime": 48.99995100000075,
      "endTime": 49.01510250000075,
      "instrument": 0,
      "program": -1,
      "isDrum": true
    },
    {
      "pitch": 42,
      "velocity": 123,
      "startTime": 49.09086000000075,
      "endTime": 49.106011500000754,
      "instrument": 0,
      "program": -1,
      "isDrum": true
    },
    {
      "pitch": 38,
      "velocity": 123,
      "startTime": 49.09086000000075,
      "endTime": 49.106011500000754,
      "instrument": 0,
      "program": -1,
      "isDrum": true
    },
    {
      "pitch": 35,
      "velocity": 104,
      "startTime": 49.09086000000075,
      "endTime": 49.106011500000754,
      "instrument": 0,
      "program": -1,
      "isDrum": true
    },
    {
      "pitch": 49,
      "velocity": 120,
      "startTime": 49.09086000000075,
      "endTime": 49.45449600000076,
      "instrument": 0,
      "program": -1,
      "isDrum": true
    },
    {
      "pitch": 42,
      "velocity": 79,
      "startTime": 49.27267800000075,
      "endTime": 49.287829500000754,
      "instrument": 0,
      "program": -1,
      "isDrum": true
    },
    {
      "pitch": 42,
      "velocity": 62,
      "startTime": 49.363587000000756,
      "endTime": 49.37873850000076,
      "instrument": 0,
      "program": -1,
      "isDrum": true
    },
    {
      "pitch": 49,
      "velocity": 120,
      "startTime": 49.45449600000076,
      "endTime": 49.818132000000766,
      "instrument": 0,
      "program": -1,
      "isDrum": true
    },
    {
      "pitch": 42,
      "velocity": 123,
      "startTime": 49.45449600000076,
      "endTime": 49.46964750000076,
      "instrument": 0,
      "program": -1,
      "isDrum": true
    },
    {
      "pitch": 35,
      "velocity": 117,
      "startTime": 49.45449600000076,
      "endTime": 49.46964750000076,
      "instrument": 0,
      "program": -1,
      "isDrum": true
    },
    {
      "pitch": 52,
      "velocity": 120,
      "startTime": 49.45449600000076,
      "endTime": 49.818132000000766,
      "instrument": 0,
      "program": -1,
      "isDrum": true
    },
    {
      "pitch": 42,
      "velocity": 81,
      "startTime": 49.63631400000076,
      "endTime": 49.65146550000076,
      "instrument": 0,
      "program": -1,
      "isDrum": true
    },
    {
      "pitch": 42,
      "velocity": 69,
      "startTime": 49.72722300000076,
      "endTime": 49.742374500000764,
      "instrument": 0,
      "program": -1,
      "isDrum": true
    },
    {
      "pitch": 42,
      "velocity": 123,
      "startTime": 49.818132000000766,
      "endTime": 49.83328350000077,
      "instrument": 0,
      "program": -1,
      "isDrum": true
    },
    {
      "pitch": 38,
      "velocity": 123,
      "startTime": 49.818132000000766,
      "endTime": 49.83328350000077,
      "instrument": 0,
      "program": -1,
      "isDrum": true
    },
    {
      "pitch": 35,
      "velocity": 94,
      "startTime": 49.818132000000766,
      "endTime": 49.83328350000077,
      "instrument": 0,
      "program": -1,
      "isDrum": true
    },
    {
      "pitch": 42,
      "velocity": 92,
      "startTime": 49.999950000000766,
      "endTime": 50.01510150000077,
      "instrument": 0,
      "program": -1,
      "isDrum": true
    },
    {
      "pitch": 42,
      "velocity": 84,
      "startTime": 50.09085900000077,
      "endTime": 50.10601050000077,
      "instrument": 0,
      "program": -1,
      "isDrum": true
    },
    {
      "pitch": 42,
      "velocity": 123,
      "startTime": 50.18176800000077,
      "endTime": 50.196919500000774,
      "instrument": 0,
      "program": -1,
      "isDrum": true
    },
    {
      "pitch": 35,
      "velocity": 113,
      "startTime": 50.18176800000077,
      "endTime": 50.196919500000774,
      "instrument": 0,
      "program": -1,
      "isDrum": true
    },
    {
      "pitch": 42,
      "velocity": 92,
      "startTime": 50.36358600000077,
      "endTime": 50.378737500000774,
      "instrument": 0,
      "program": -1,
      "isDrum": true
    },
    {
      "pitch": 42,
      "velocity": 68,
      "startTime": 50.454495000000776,
      "endTime": 50.46964650000078,
      "instrument": 0,
      "program": -1,
      "isDrum": true
    },
    {
      "pitch": 42,
      "velocity": 123,
      "startTime": 50.54540400000078,
      "endTime": 50.56055550000078,
      "instrument": 0,
      "program": -1,
      "isDrum": true
    },
    {
      "pitch": 38,
      "velocity": 123,
      "startTime": 50.54540400000078,
      "endTime": 50.56055550000078,
      "instrument": 0,
      "program": -1,
      "isDrum": true
    },
    {
      "pitch": 35,
      "velocity": 104,
      "startTime": 50.54540400000078,
      "endTime": 50.56055550000078,
      "instrument": 0,
      "program": -1,
      "isDrum": true
    },
    {
      "pitch": 42,
      "velocity": 79,
      "startTime": 50.72722200000078,
      "endTime": 50.74237350000078,
      "instrument": 0,
      "program": -1,
      "isDrum": true
    },
    {
      "pitch": 42,
      "velocity": 62,
      "startTime": 50.81813100000078,
      "endTime": 50.833282500000784,
      "instrument": 0,
      "program": -1,
      "isDrum": true
    },
    {
      "pitch": 42,
      "velocity": 123,
      "startTime": 50.909040000000786,
      "endTime": 50.92419150000079,
      "instrument": 0,
      "program": -1,
      "isDrum": true
    },
    {
      "pitch": 35,
      "velocity": 117,
      "startTime": 50.909040000000786,
      "endTime": 50.92419150000079,
      "instrument": 0,
      "program": -1,
      "isDrum": true
    },
    {
      "pitch": 42,
      "velocity": 81,
      "startTime": 51.090858000000786,
      "endTime": 51.10600950000079,
      "instrument": 0,
      "program": -1,
      "isDrum": true
    },
    {
      "pitch": 42,
      "velocity": 69,
      "startTime": 51.18176700000079,
      "endTime": 51.19691850000079,
      "instrument": 0,
      "program": -1,
      "isDrum": true
    },
    {
      "pitch": 42,
      "velocity": 123,
      "startTime": 51.27267600000079,
      "endTime": 51.287827500000795,
      "instrument": 0,
      "program": -1,
      "isDrum": true
    },
    {
      "pitch": 38,
      "velocity": 123,
      "startTime": 51.27267600000079,
      "endTime": 51.287827500000795,
      "instrument": 0,
      "program": -1,
      "isDrum": true
    },
    {
      "pitch": 35,
      "velocity": 94,
      "startTime": 51.27267600000079,
      "endTime": 51.287827500000795,
      "instrument": 0,
      "program": -1,
      "isDrum": true
    },
    {
      "pitch": 42,
      "velocity": 92,
      "startTime": 51.45449400000079,
      "endTime": 51.469645500000794,
      "instrument": 0,
      "program": -1,
      "isDrum": true
    },
    {
      "pitch": 42,
      "velocity": 84,
      "startTime": 51.545403000000796,
      "endTime": 51.5605545000008,
      "instrument": 0,
      "program": -1,
      "isDrum": true
    },
    {
      "pitch": 42,
      "velocity": 123,
      "startTime": 51.6363120000008,
      "endTime": 51.6514635000008,
      "instrument": 0,
      "program": -1,
      "isDrum": true
    },
    {
      "pitch": 35,
      "velocity": 113,
      "startTime": 51.6363120000008,
      "endTime": 51.6514635000008,
      "instrument": 0,
      "program": -1,
      "isDrum": true
    },
    {
      "pitch": 42,
      "velocity": 92,
      "startTime": 51.8181300000008,
      "endTime": 51.8332815000008,
      "instrument": 0,
      "program": -1,
      "isDrum": true
    },
    {
      "pitch": 42,
      "velocity": 68,
      "startTime": 51.9090390000008,
      "endTime": 51.924190500000805,
      "instrument": 0,
      "program": -1,
      "isDrum": true
    },
    {
      "pitch": 42,
      "velocity": 123,
      "startTime": 51.999948000000806,
      "endTime": 52.01509950000081,
      "instrument": 0,
      "program": -1,
      "isDrum": true
    },
    {
      "pitch": 38,
      "velocity": 123,
      "startTime": 51.999948000000806,
      "endTime": 52.01509950000081,
      "instrument": 0,
      "program": -1,
      "isDrum": true
    },
    {
      "pitch": 35,
      "velocity": 104,
      "startTime": 51.999948000000806,
      "endTime": 52.01509950000081,
      "instrument": 0,
      "program": -1,
      "isDrum": true
    },
    {
      "pitch": 42,
      "velocity": 79,
      "startTime": 52.181766000000806,
      "endTime": 52.19691750000081,
      "instrument": 0,
      "program": -1,
      "isDrum": true
    },
    {
      "pitch": 42,
      "velocity": 62,
      "startTime": 52.27267500000081,
      "endTime": 52.28782650000081,
      "instrument": 0,
      "program": -1,
      "isDrum": true
    },
    {
      "pitch": 42,
      "velocity": 123,
      "startTime": 52.36358400000081,
      "endTime": 52.378735500000815,
      "instrument": 0,
      "program": -1,
      "isDrum": true
    },
    {
      "pitch": 35,
      "velocity": 117,
      "startTime": 52.36358400000081,
      "endTime": 52.378735500000815,
      "instrument": 0,
      "program": -1,
      "isDrum": true
    },
    {
      "pitch": 49,
      "velocity": 120,
      "startTime": 52.36358400000081,
      "endTime": 52.72722000000082,
      "instrument": 0,
      "program": -1,
      "isDrum": true
    },
    {
      "pitch": 42,
      "velocity": 81,
      "startTime": 52.54540200000081,
      "endTime": 52.560553500000815,
      "instrument": 0,
      "program": -1,
      "isDrum": true
    },
    {
      "pitch": 42,
      "velocity": 69,
      "startTime": 52.636311000000816,
      "endTime": 52.65146250000082,
      "instrument": 0,
      "program": -1,
      "isDrum": true
    },
    {
      "pitch": 42,
      "velocity": 123,
      "startTime": 52.72722000000082,
      "endTime": 52.74237150000082,
      "instrument": 0,
      "program": -1,
      "isDrum": true
    },
    {
      "pitch": 38,
      "velocity": 123,
      "startTime": 52.72722000000082,
      "endTime": 52.74237150000082,
      "instrument": 0,
      "program": -1,
      "isDrum": true
    },
    {
      "pitch": 35,
      "velocity": 94,
      "startTime": 52.72722000000082,
      "endTime": 52.74237150000082,
      "instrument": 0,
      "program": -1,
      "isDrum": true
    },
    {
      "pitch": 42,
      "velocity": 92,
      "startTime": 52.90903800000082,
      "endTime": 52.92418950000082,
      "instrument": 0,
      "program": -1,
      "isDrum": true
    },
    {
      "pitch": 42,
      "velocity": 84,
      "startTime": 52.99994700000082,
      "endTime": 53.015098500000825,
      "instrument": 0,
      "program": -1,
      "isDrum": true
    },
    {
      "pitch": 42,
      "velocity": 123,
      "startTime": 53.09085600000083,
      "endTime": 53.10600750000083,
      "instrument": 0,
      "program": -1,
      "isDrum": true
    },
    {
      "pitch": 35,
      "velocity": 113,
      "startTime": 53.09085600000083,
      "endTime": 53.10600750000083,
      "instrument": 0,
      "program": -1,
      "isDrum": true
    },
    {
      "pitch": 42,
      "velocity": 92,
      "startTime": 53.272674000000826,
      "endTime": 53.28782550000083,
      "instrument": 0,
      "program": -1,
      "isDrum": true
    },
    {
      "pitch": 42,
      "velocity": 68,
      "startTime": 53.36358300000083,
      "endTime": 53.37873450000083,
      "instrument": 0,
      "program": -1,
      "isDrum": true
    },
    {
      "pitch": 42,
      "velocity": 123,
      "startTime": 53.45449200000083,
      "endTime": 53.469643500000835,
      "instrument": 0,
      "program": -1,
      "isDrum": true
    },
    {
      "pitch": 38,
      "velocity": 123,
      "startTime": 53.45449200000083,
      "endTime": 53.469643500000835,
      "instrument": 0,
      "program": -1,
      "isDrum": true
    },
    {
      "pitch": 35,
      "velocity": 104,
      "startTime": 53.45449200000083,
      "endTime": 53.469643500000835,
      "instrument": 0,
      "program": -1,
      "isDrum": true
    },
    {
      "pitch": 42,
      "velocity": 79,
      "startTime": 53.63631000000083,
      "endTime": 53.651461500000835,
      "instrument": 0,
      "program": -1,
      "isDrum": true
    },
    {
      "pitch": 42,
      "velocity": 62,
      "startTime": 53.72721900000084,
      "endTime": 53.74237050000084,
      "instrument": 0,
      "program": -1,
      "isDrum": true
    },
    {
      "pitch": 42,
      "velocity": 123,
      "startTime": 53.81812800000084,
      "endTime": 53.83327950000084,
      "instrument": 0,
      "program": -1,
      "isDrum": true
    },
    {
      "pitch": 35,
      "velocity": 117,
      "startTime": 53.81812800000084,
      "endTime": 53.83327950000084,
      "instrument": 0,
      "program": -1,
      "isDrum": true
    },
    {
      "pitch": 42,
      "velocity": 81,
      "startTime": 53.99994600000084,
      "endTime": 54.01509750000084,
      "instrument": 0,
      "program": -1,
      "isDrum": true
    },
    {
      "pitch": 42,
      "velocity": 69,
      "startTime": 54.09085500000084,
      "endTime": 54.106006500000845,
      "instrument": 0,
      "program": -1,
      "isDrum": true
    },
    {
      "pitch": 42,
      "velocity": 123,
      "startTime": 54.18176400000085,
      "endTime": 54.19691550000085,
      "instrument": 0,
      "program": -1,
      "isDrum": true
    },
    {
      "pitch": 38,
      "velocity": 123,
      "startTime": 54.18176400000085,
      "endTime": 54.19691550000085,
      "instrument": 0,
      "program": -1,
      "isDrum": true
    },
    {
      "pitch": 35,
      "velocity": 94,
      "startTime": 54.18176400000085,
      "endTime": 54.19691550000085,
      "instrument": 0,
      "program": -1,
      "isDrum": true
    },
    {
      "pitch": 42,
      "velocity": 92,
      "startTime": 54.36358200000085,
      "endTime": 54.37873350000085,
      "instrument": 0,
      "program": -1,
      "isDrum": true
    },
    {
      "pitch": 42,
      "velocity": 84,
      "startTime": 54.45449100000085,
      "endTime": 54.46964250000085,
      "instrument": 0,
      "program": -1,
      "isDrum": true
    },
    {
      "pitch": 42,
      "velocity": 123,
      "startTime": 54.54540000000085,
      "endTime": 54.560551500000855,
      "instrument": 0,
      "program": -1,
      "isDrum": true
    },
    {
      "pitch": 35,
      "velocity": 113,
      "startTime": 54.54540000000085,
      "endTime": 54.560551500000855,
      "instrument": 0,
      "program": -1,
      "isDrum": true
    },
    {
      "pitch": 42,
      "velocity": 92,
      "startTime": 54.72721800000085,
      "endTime": 54.742369500000855,
      "instrument": 0,
      "program": -1,
      "isDrum": true
    },
    {
      "pitch": 42,
      "velocity": 68,
      "startTime": 54.81812700000086,
      "endTime": 54.83327850000086,
      "instrument": 0,
      "program": -1,
      "isDrum": true
    },
    {
      "pitch": 42,
      "velocity": 123,
      "startTime": 54.90903600000086,
      "endTime": 54.92418750000086,
      "instrument": 0,
      "program": -1,
      "isDrum": true
    },
    {
      "pitch": 49,
      "velocity": 120,
      "startTime": 54.90903600000086,
      "endTime": 55.27267200000087,
      "instrument": 0,
      "program": -1,
      "isDrum": true
    },
    {
      "pitch": 38,
      "velocity": 123,
      "startTime": 54.90903600000086,
      "endTime": 54.92418750000086,
      "instrument": 0,
      "program": -1,
      "isDrum": true
    },
    {
      "pitch": 35,
      "velocity": 104,
      "startTime": 54.90903600000086,
      "endTime": 54.92418750000086,
      "instrument": 0,
      "program": -1,
      "isDrum": true
    },
    {
      "pitch": 42,
      "velocity": 79,
      "startTime": 55.09085400000086,
      "endTime": 55.10600550000086,
      "instrument": 0,
      "program": -1,
      "isDrum": true
    },
    {
      "pitch": 42,
      "velocity": 62,
      "startTime": 55.18176300000086,
      "endTime": 55.196914500000865,
      "instrument": 0,
      "program": -1,
      "isDrum": true
    },
    {
      "pitch": 42,
      "velocity": 123,
      "startTime": 55.27267200000087,
      "endTime": 55.28782350000087,
      "instrument": 0,
      "program": -1,
      "isDrum": true
    },
    {
      "pitch": 35,
      "velocity": 117,
      "startTime": 55.27267200000087,
      "endTime": 55.28782350000087,
      "instrument": 0,
      "program": -1,
      "isDrum": true
    },
    {
      "pitch": 49,
      "velocity": 120,
      "startTime": 55.27267200000087,
      "endTime": 55.636308000000874,
      "instrument": 0,
      "program": -1,
      "isDrum": true
    },
    {
      "pitch": 52,
      "velocity": 120,
      "startTime": 55.27267200000087,
      "endTime": 55.636308000000874,
      "instrument": 0,
      "program": -1,
      "isDrum": true
    },
    {
      "pitch": 42,
      "velocity": 81,
      "startTime": 55.45449000000087,
      "endTime": 55.46964150000087,
      "instrument": 0,
      "program": -1,
      "isDrum": true
    },
    {
      "pitch": 42,
      "velocity": 69,
      "startTime": 55.54539900000087,
      "endTime": 55.56055050000087,
      "instrument": 0,
      "program": -1,
      "isDrum": true
    },
    {
      "pitch": 42,
      "velocity": 123,
      "startTime": 55.636308000000874,
      "endTime": 55.651459500000875,
      "instrument": 0,
      "program": -1,
      "isDrum": true
    },
    {
      "pitch": 38,
      "velocity": 123,
      "startTime": 55.636308000000874,
      "endTime": 55.651459500000875,
      "instrument": 0,
      "program": -1,
      "isDrum": true
    },
    {
      "pitch": 35,
      "velocity": 94,
      "startTime": 55.636308000000874,
      "endTime": 55.651459500000875,
      "instrument": 0,
      "program": -1,
      "isDrum": true
    },
    {
      "pitch": 42,
      "velocity": 92,
      "startTime": 55.81812600000087,
      "endTime": 55.833277500000875,
      "instrument": 0,
      "program": -1,
      "isDrum": true
    },
    {
      "pitch": 42,
      "velocity": 84,
      "startTime": 55.90903500000088,
      "endTime": 55.92418650000088,
      "instrument": 0,
      "program": -1,
      "isDrum": true
    },
    {
      "pitch": 42,
      "velocity": 123,
      "startTime": 55.99994400000088,
      "endTime": 56.01509550000088,
      "instrument": 0,
      "program": -1,
      "isDrum": true
    },
    {
      "pitch": 35,
      "velocity": 113,
      "startTime": 55.99994400000088,
      "endTime": 56.01509550000088,
      "instrument": 0,
      "program": -1,
      "isDrum": true
    },
    {
      "pitch": 42,
      "velocity": 92,
      "startTime": 56.18176200000088,
      "endTime": 56.19691350000088,
      "instrument": 0,
      "program": -1,
      "isDrum": true
    },
    {
      "pitch": 42,
      "velocity": 68,
      "startTime": 56.272671000000884,
      "endTime": 56.287822500000885,
      "instrument": 0,
      "program": -1,
      "isDrum": true
    },
    {
      "pitch": 42,
      "velocity": 123,
      "startTime": 56.36358000000089,
      "endTime": 56.37873150000089,
      "instrument": 0,
      "program": -1,
      "isDrum": true
    },
    {
      "pitch": 38,
      "velocity": 123,
      "startTime": 56.36358000000089,
      "endTime": 56.37873150000089,
      "instrument": 0,
      "program": -1,
      "isDrum": true
    },
    {
      "pitch": 35,
      "velocity": 104,
      "startTime": 56.36358000000089,
      "endTime": 56.37873150000089,
      "instrument": 0,
      "program": -1,
      "isDrum": true
    },
    {
      "pitch": 42,
      "velocity": 79,
      "startTime": 56.54539800000089,
      "endTime": 56.56054950000089,
      "instrument": 0,
      "program": -1,
      "isDrum": true
    },
    {
      "pitch": 42,
      "velocity": 62,
      "startTime": 56.63630700000089,
      "endTime": 56.65145850000089,
      "instrument": 0,
      "program": -1,
      "isDrum": true
    },
    {
      "pitch": 42,
      "velocity": 123,
      "startTime": 56.727216000000894,
      "endTime": 56.742367500000896,
      "instrument": 0,
      "program": -1,
      "isDrum": true
    },
    {
      "pitch": 35,
      "velocity": 117,
      "startTime": 56.727216000000894,
      "endTime": 56.742367500000896,
      "instrument": 0,
      "program": -1,
      "isDrum": true
    },
    {
      "pitch": 42,
      "velocity": 81,
      "startTime": 56.909034000000894,
      "endTime": 56.924185500000895,
      "instrument": 0,
      "program": -1,
      "isDrum": true
    },
    {
      "pitch": 42,
      "velocity": 69,
      "startTime": 56.9999430000009,
      "endTime": 57.0150945000009,
      "instrument": 0,
      "program": -1,
      "isDrum": true
    },
    {
      "pitch": 42,
      "velocity": 123,
      "startTime": 57.0908520000009,
      "endTime": 57.1060035000009,
      "instrument": 0,
      "program": -1,
      "isDrum": true
    },
    {
      "pitch": 38,
      "velocity": 123,
      "startTime": 57.0908520000009,
      "endTime": 57.1060035000009,
      "instrument": 0,
      "program": -1,
      "isDrum": true
    },
    {
      "pitch": 35,
      "velocity": 94,
      "startTime": 57.0908520000009,
      "endTime": 57.1060035000009,
      "instrument": 0,
      "program": -1,
      "isDrum": true
    },
    {
      "pitch": 42,
      "velocity": 92,
      "startTime": 57.2726700000009,
      "endTime": 57.2878215000009,
      "instrument": 0,
      "program": -1,
      "isDrum": true
    },
    {
      "pitch": 42,
      "velocity": 84,
      "startTime": 57.363579000000904,
      "endTime": 57.378730500000906,
      "instrument": 0,
      "program": -1,
      "isDrum": true
    },
    {
      "pitch": 42,
      "velocity": 123,
      "startTime": 57.45448800000091,
      "endTime": 57.46963950000091,
      "instrument": 0,
      "program": -1,
      "isDrum": true
    },
    {
      "pitch": 35,
      "velocity": 113,
      "startTime": 57.45448800000091,
      "endTime": 57.46963950000091,
      "instrument": 0,
      "program": -1,
      "isDrum": true
    },
    {
      "pitch": 38,
      "velocity": 123,
      "startTime": 57.63630600000091,
      "endTime": 57.65145750000091,
      "instrument": 0,
      "program": -1,
      "isDrum": true
    },
    {
      "pitch": 42,
      "velocity": 92,
      "startTime": 57.63630600000091,
      "endTime": 57.65145750000091,
      "instrument": 0,
      "program": -1,
      "isDrum": true
    },
    {
      "pitch": 38,
      "velocity": 123,
      "startTime": 57.72721500000091,
      "endTime": 57.74236650000091,
      "instrument": 0,
      "program": -1,
      "isDrum": true
    },
    {
      "pitch": 42,
      "velocity": 68,
      "startTime": 57.72721500000091,
      "endTime": 57.74236650000091,
      "instrument": 0,
      "program": -1,
      "isDrum": true
    },
    {
      "pitch": 42,
      "velocity": 123,
      "startTime": 57.818124000000914,
      "endTime": 57.833275500000916,
      "instrument": 0,
      "program": -1,
      "isDrum": true
    },
    {
      "pitch": 38,
      "velocity": 123,
      "startTime": 57.818124000000914,
      "endTime": 57.833275500000916,
      "instrument": 0,
      "program": -1,
      "isDrum": true
    },
    {
      "pitch": 35,
      "velocity": 104,
      "startTime": 57.818124000000914,
      "endTime": 57.833275500000916,
      "instrument": 0,
      "program": -1,
      "isDrum": true
    },
    {
      "pitch": 38,
      "velocity": 123,
      "startTime": 57.999942000000914,
      "endTime": 58.015093500000916,
      "instrument": 0,
      "program": -1,
      "isDrum": true
    },
    {
      "pitch": 42,
      "velocity": 79,
      "startTime": 57.999942000000914,
      "endTime": 58.015093500000916,
      "instrument": 0,
      "program": -1,
      "isDrum": true
    },
    {
      "pitch": 42,
      "velocity": 62,
      "startTime": 58.09085100000092,
      "endTime": 58.10600250000092,
      "instrument": 0,
      "program": -1,
      "isDrum": true
    },
    {
      "pitch": 42,
      "velocity": 123,
      "startTime": 58.18176000000092,
      "endTime": 58.19691150000092,
      "instrument": 0,
      "program": -1,
      "isDrum": true
    },
    {
      "pitch": 35,
      "velocity": 117,
      "startTime": 58.18176000000092,
      "endTime": 58.19691150000092,
      "instrument": 0,
      "program": -1,
      "isDrum": true
    },
    {
      "pitch": 49,
      "velocity": 120,
      "startTime": 58.18176000000092,
      "endTime": 58.54539600000093,
      "instrument": 0,
      "program": -1,
      "isDrum": true
    },
    {
      "pitch": 42,
      "velocity": 81,
      "startTime": 58.36357800000092,
      "endTime": 58.37872950000092,
      "instrument": 0,
      "program": -1,
      "isDrum": true
    },
    {
      "pitch": 42,
      "velocity": 69,
      "startTime": 58.454487000000924,
      "endTime": 58.469638500000926,
      "instrument": 0,
      "program": -1,
      "isDrum": true
    },
    {
      "pitch": 42,
      "velocity": 123,
      "startTime": 58.54539600000093,
      "endTime": 58.56054750000093,
      "instrument": 0,
      "program": -1,
      "isDrum": true
    },
    {
      "pitch": 38,
      "velocity": 123,
      "startTime": 58.54539600000093,
      "endTime": 58.56054750000093,
      "instrument": 0,
      "program": -1,
      "isDrum": true
    },
    {
      "pitch": 35,
      "velocity": 94,
      "startTime": 58.54539600000093,
      "endTime": 58.56054750000093,
      "instrument": 0,
      "program": -1,
      "isDrum": true
    },
    {
      "pitch": 42,
      "velocity": 92,
      "startTime": 58.72721400000093,
      "endTime": 58.74236550000093,
      "instrument": 0,
      "program": -1,
      "isDrum": true
    },
    {
      "pitch": 42,
      "velocity": 84,
      "startTime": 58.81812300000093,
      "endTime": 58.83327450000093,
      "instrument": 0,
      "program": -1,
      "isDrum": true
    },
    {
      "pitch": 42,
      "velocity": 123,
      "startTime": 58.909032000000934,
      "endTime": 58.924183500000936,
      "instrument": 0,
      "program": -1,
      "isDrum": true
    },
    {
      "pitch": 35,
      "velocity": 113,
      "startTime": 58.909032000000934,
      "endTime": 58.924183500000936,
      "instrument": 0,
      "program": -1,
      "isDrum": true
    },
    {
      "pitch": 42,
      "velocity": 92,
      "startTime": 59.090850000000934,
      "endTime": 59.106001500000936,
      "instrument": 0,
      "program": -1,
      "isDrum": true
    },
    {
      "pitch": 42,
      "velocity": 68,
      "startTime": 59.18175900000094,
      "endTime": 59.19691050000094,
      "instrument": 0,
      "program": -1,
      "isDrum": true
    },
    {
      "pitch": 42,
      "velocity": 123,
      "startTime": 59.27266800000094,
      "endTime": 59.28781950000094,
      "instrument": 0,
      "program": -1,
      "isDrum": true
    },
    {
      "pitch": 38,
      "velocity": 123,
      "startTime": 59.27266800000094,
      "endTime": 59.28781950000094,
      "instrument": 0,
      "program": -1,
      "isDrum": true
    },
    {
      "pitch": 35,
      "velocity": 104,
      "startTime": 59.27266800000094,
      "endTime": 59.28781950000094,
      "instrument": 0,
      "program": -1,
      "isDrum": true
    },
    {
      "pitch": 42,
      "velocity": 79,
      "startTime": 59.45448600000094,
      "endTime": 59.46963750000094,
      "instrument": 0,
      "program": -1,
      "isDrum": true
    },
    {
      "pitch": 42,
      "velocity": 62,
      "startTime": 59.545395000000944,
      "endTime": 59.560546500000946,
      "instrument": 0,
      "program": -1,
      "isDrum": true
    },
    {
      "pitch": 42,
      "velocity": 123,
      "startTime": 59.63630400000095,
      "endTime": 59.65145550000095,
      "instrument": 0,
      "program": -1,
      "isDrum": true
    },
    {
      "pitch": 35,
      "velocity": 117,
      "startTime": 59.63630400000095,
      "endTime": 59.65145550000095,
      "instrument": 0,
      "program": -1,
      "isDrum": true
    },
    {
      "pitch": 42,
      "velocity": 81,
      "startTime": 59.81812200000095,
      "endTime": 59.83327350000095,
      "instrument": 0,
      "program": -1,
      "isDrum": true
    },
    {
      "pitch": 42,
      "velocity": 69,
      "startTime": 59.90903100000095,
      "endTime": 59.92418250000095,
      "instrument": 0,
      "program": -1,
      "isDrum": true
    },
    {
      "pitch": 40,
      "velocity": 110,
      "startTime": 5.818176,
      "endTime": 5.9545395,
      "instrument": 1,
      "program": -1,
      "isDrum": false
    },
    {
      "pitch": 40,
      "velocity": 110,
      "startTime": 5.999994,
      "endTime": 6.1363575,
      "instrument": 1,
      "program": -1,
      "isDrum": false
    },
    {
      "pitch": 44,
      "velocity": 94,
      "startTime": 6.1909029,
      "endTime": 6.3302967,
      "instrument": 1,
      "program": -1,
      "isDrum": false
    },
    {
      "pitch": 47,
      "velocity": 83,
      "startTime": 6.3363572999999995,
      "endTime": 6.4939329,
      "instrument": 1,
      "program": -1,
      "isDrum": false
    },
    {
      "pitch": 50,
      "velocity": 100,
      "startTime": 6.5605994999999995,
      "endTime": 6.7090841999999995,
      "instrument": 1,
      "program": -1,
      "isDrum": false
    },
    {
      "pitch": 50,
      "velocity": 110,
      "startTime": 7.27272,
      "endTime": 7.666658999999999,
      "instrument": 1,
      "program": -1,
      "isDrum": false
    },
    {
      "pitch": 45,
      "velocity": 110,
      "startTime": 7.999991999999999,
      "endTime": 8.393930999999998,
      "instrument": 1,
      "program": -1,
      "isDrum": false
    },
    {
      "pitch": 40,
      "velocity": 110,
      "startTime": 8.727263999999998,
      "endTime": 8.863627499999998,
      "instrument": 1,
      "program": -1,
      "isDrum": false
    },
    {
      "pitch": 40,
      "velocity": 110,
      "startTime": 8.909081999999998,
      "endTime": 9.045445499999998,
      "instrument": 1,
      "program": -1,
      "isDrum": false
    },
    {
      "pitch": 44,
      "velocity": 97,
      "startTime": 9.063627299999998,
      "endTime": 9.218172599999999,
      "instrument": 1,
      "program": -1,
      "isDrum": false
    },
    {
      "pitch": 47,
      "velocity": 85,
      "startTime": 9.233324099999999,
      "endTime": 9.3787785,
      "instrument": 1,
      "program": -1,
      "isDrum": false
    },
    {
      "pitch": 50,
      "velocity": 109,
      "startTime": 9.4424148,
      "endTime": 9.575747999999999,
      "instrument": 1,
      "program": -1,
      "isDrum": false
    },
    {
      "pitch": 50,
      "velocity": 114,
      "startTime": 10.181807999999998,
      "endTime": 10.599989399999998,
      "instrument": 1,
      "program": -1,
      "isDrum": false
    },
    {
      "pitch": 45,
      "velocity": 110,
      "startTime": 10.909079999999998,
      "endTime": 11.354534099999999,
      "instrument": 1,
      "program": -1,
      "isDrum": false
    },
    {
      "pitch": 40,
      "velocity": 110,
      "startTime": 11.636351999999999,
      "endTime": 11.772715499999999,
      "instrument": 1,
      "program": -1,
      "isDrum": false
    },
    {
      "pitch": 40,
      "velocity": 110,
      "startTime": 11.818169999999999,
      "endTime": 11.954533499999998,
      "instrument": 1,
      "program": -1,
      "isDrum": false
    },
    {
      "pitch": 44,
      "velocity": 92,
      "startTime": 11.996957699999998,
      "endTime": 12.172715099999998,
      "instrument": 1,
      "program": -1,
      "isDrum": false
    },
    {
      "pitch": 47,
      "velocity": 92,
      "startTime": 12.151502999999998,
      "endTime": 12.327260399999998,
      "instrument": 1,
      "program": -1,
      "isDrum": false
    },
    {
      "pitch": 50,
      "velocity": 109,
      "startTime": 12.378775499999998,
      "endTime": 12.499987499999998,
      "instrument": 1,
      "program": -1,
      "isDrum": false
    },
    {
      "pitch": 50,
      "velocity": 110,
      "startTime": 13.115138399999998,
      "endTime": 13.521198599999998,
      "instrument": 1,
      "program": -1,
      "isDrum": false
    },
    {
      "pitch": 45,
      "velocity": 110,
      "startTime": 13.818167999999998,
      "endTime": 14.212106999999998,
      "instrument": 1,
      "program": -1,
      "isDrum": false
    },
    {
      "pitch": 40,
      "velocity": 110,
      "startTime": 14.545439999999997,
      "endTime": 14.681803499999997,
      "instrument": 1,
      "program": -1,
      "isDrum": false
    },
    {
      "pitch": 40,
      "velocity": 110,
      "startTime": 14.727257999999997,
      "endTime": 14.863621499999997,
      "instrument": 1,
      "program": -1,
      "isDrum": false
    },
    {
      "pitch": 44,
      "velocity": 92,
      "startTime": 14.906045699999996,
      "endTime": 15.081803099999997,
      "instrument": 1,
      "program": -1,
      "isDrum": false
    },
    {
      "pitch": 47,
      "velocity": 92,
      "startTime": 15.060590999999997,
      "endTime": 15.236348399999997,
      "instrument": 1,
      "program": -1,
      "isDrum": false
    },
    {
      "pitch": 50,
      "velocity": 109,
      "startTime": 15.287863499999997,
      "endTime": 15.409075499999997,
      "instrument": 1,
      "program": -1,
      "isDrum": false
    },
    {
      "pitch": 50,
      "velocity": 110,
      "startTime": 16.024226399999996,
      "endTime": 16.430286599999995,
      "instrument": 1,
      "program": -1,
      "isDrum": false
    },
    {
      "pitch": 45,
      "velocity": 110,
      "startTime": 16.727255999999993,
      "endTime": 17.121194999999993,
      "instrument": 1,
      "program": -1,
      "isDrum": false
    },
    {
      "pitch": 40,
      "velocity": 110,
      "startTime": 17.454527999999993,
      "endTime": 17.590891499999994,
      "instrument": 1,
      "program": -1,
      "isDrum": false
    },
    {
      "pitch": 40,
      "velocity": 110,
      "startTime": 17.636345999999996,
      "endTime": 17.772709499999998,
      "instrument": 1,
      "program": -1,
      "isDrum": false
    },
    {
      "pitch": 44,
      "velocity": 110,
      "startTime": 17.818164,
      "endTime": 17.9545275,
      "instrument": 1,
      "program": -1,
      "isDrum": false
    },
    {
      "pitch": 47,
      "velocity": 110,
      "startTime": 17.999982000000003,
      "endTime": 18.136345500000004,
      "instrument": 1,
      "program": -1,
      "isDrum": false
    },
    {
      "pitch": 50,
      "velocity": 109,
      "startTime": 18.196951500000004,
      "endTime": 18.378769500000004,
      "instrument": 1,
      "program": -1,
      "isDrum": false
    },
    {
      "pitch": 45,
      "velocity": 110,
      "startTime": 19.636344000000005,
      "endTime": 19.772707500000006,
      "instrument": 1,
      "program": -1,
      "isDrum": false
    },
    {
      "pitch": 45,
      "velocity": 110,
      "startTime": 19.818162000000008,
      "endTime": 19.95452550000001,
      "instrument": 1,
      "program": -1,
      "isDrum": false
    },
    {
      "pitch": 43,
      "velocity": 110,
      "startTime": 19.99998000000001,
      "endTime": 20.136343500000013,
      "instrument": 1,
      "program": -1,
      "isDrum": false
    },
    {
      "pitch": 42,
      "velocity": 110,
      "startTime": 20.181798000000015,
      "endTime": 20.318161500000016,
      "instrument": 1,
      "program": -1,
      "isDrum": false
    },
    {
      "pitch": 40,
      "velocity": 110,
      "startTime": 20.363616000000018,
      "endTime": 20.49997950000002,
      "instrument": 1,
      "program": -1,
      "isDrum": false
    },
    {
      "pitch": 40,
      "velocity": 110,
      "startTime": 20.54543400000002,
      "endTime": 20.681797500000023,
      "instrument": 1,
      "program": -1,
      "isDrum": false
    },
    {
      "pitch": 44,
      "velocity": 110,
      "startTime": 20.727252000000025,
      "endTime": 20.863615500000027,
      "instrument": 1,
      "program": -1,
      "isDrum": false
    },
    {
      "pitch": 47,
      "velocity": 110,
      "startTime": 20.90907000000003,
      "endTime": 21.04543350000003,
      "instrument": 1,
      "program": -1,
      "isDrum": false
    },
    {
      "pitch": 50,
      "velocity": 109,
      "startTime": 21.10603950000003,
      "endTime": 21.28785750000003,
      "instrument": 1,
      "program": -1,
      "isDrum": false
    },
    {
      "pitch": 45,
      "velocity": 110,
      "startTime": 22.54543200000003,
      "endTime": 22.68179550000003,
      "instrument": 1,
      "program": -1,
      "isDrum": false
    },
    {
      "pitch": 45,
      "velocity": 110,
      "startTime": 22.727250000000033,
      "endTime": 22.863613500000035,
      "instrument": 1,
      "program": -1,
      "isDrum": false
    },
    {
      "pitch": 43,
      "velocity": 110,
      "startTime": 22.909068000000037,
      "endTime": 23.04543150000004,
      "instrument": 1,
      "program": -1,
      "isDrum": false
    },
    {
      "pitch": 42,
      "velocity": 110,
      "startTime": 23.09088600000004,
      "endTime": 23.227249500000042,
      "instrument": 1,
      "program": -1,
      "isDrum": false
    },
    {
      "pitch": 40,
      "velocity": 110,
      "startTime": 23.272704000000044,
      "endTime": 23.409067500000045,
      "instrument": 1,
      "program": -1,
      "isDrum": false
    },
    {
      "pitch": 40,
      "velocity": 110,
      "startTime": 23.454522000000047,
      "endTime": 23.59088550000005,
      "instrument": 1,
      "program": -1,
      "isDrum": false
    },
    {
      "pitch": 44,
      "velocity": 110,
      "startTime": 23.63634000000005,
      "endTime": 23.772703500000052,
      "instrument": 1,
      "program": -1,
      "isDrum": false
    },
    {
      "pitch": 47,
      "velocity": 110,
      "startTime": 23.818158000000054,
      "endTime": 23.954521500000055,
      "instrument": 1,
      "program": -1,
      "isDrum": false
    },
    {
      "pitch": 50,
      "velocity": 109,
      "startTime": 24.015127500000055,
      "endTime": 24.196945500000055,
      "instrument": 1,
      "program": -1,
      "isDrum": false
    },
    {
      "pitch": 45,
      "velocity": 110,
      "startTime": 25.454520000000056,
      "endTime": 25.590883500000057,
      "instrument": 1,
      "program": -1,
      "isDrum": false
    },
    {
      "pitch": 45,
      "velocity": 110,
      "startTime": 25.63633800000006,
      "endTime": 25.77270150000006,
      "instrument": 1,
      "program": -1,
      "isDrum": false
    },
    {
      "pitch": 43,
      "velocity": 110,
      "startTime": 25.818156000000062,
      "endTime": 25.954519500000064,
      "instrument": 1,
      "program": -1,
      "isDrum": false
    },
    {
      "pitch": 42,
      "velocity": 110,
      "startTime": 25.999974000000066,
      "endTime": 26.136337500000067,
      "instrument": 1,
      "program": -1,
      "isDrum": false
    },
    {
      "pitch": 40,
      "velocity": 110,
      "startTime": 26.18179200000007,
      "endTime": 26.31815550000007,
      "instrument": 1,
      "program": -1,
      "isDrum": false
    },
    {
      "pitch": 40,
      "velocity": 110,
      "startTime": 26.363610000000072,
      "endTime": 26.499973500000074,
      "instrument": 1,
      "program": -1,
      "isDrum": false
    },
    {
      "pitch": 44,
      "velocity": 110,
      "startTime": 26.545428000000076,
      "endTime": 26.681791500000077,
      "instrument": 1,
      "program": -1,
      "isDrum": false
    },
    {
      "pitch": 47,
      "velocity": 110,
      "startTime": 26.72724600000008,
      "endTime": 26.86360950000008,
      "instrument": 1,
      "program": -1,
      "isDrum": false
    },
    {
      "pitch": 50,
      "velocity": 109,
      "startTime": 26.92421550000008,
      "endTime": 27.10603350000008,
      "instrument": 1,
      "program": -1,
      "isDrum": false
    },
    {
      "pitch": 45,
      "velocity": 110,
      "startTime": 28.36360800000008,
      "endTime": 28.499971500000083,
      "instrument": 1,
      "program": -1,
      "isDrum": false
    },
    {
      "pitch": 45,
      "velocity": 110,
      "startTime": 28.545426000000084,
      "endTime": 28.681789500000086,
      "instrument": 1,
      "program": -1,
      "isDrum": false
    },
    {
      "pitch": 43,
      "velocity": 110,
      "startTime": 28.727244000000088,
      "endTime": 28.86360750000009,
      "instrument": 1,
      "program": -1,
      "isDrum": false
    },
    {
      "pitch": 42,
      "velocity": 110,
      "startTime": 28.90906200000009,
      "endTime": 29.045425500000093,
      "instrument": 1,
      "program": -1,
      "isDrum": false
    },
    {
      "pitch": 40,
      "velocity": 110,
      "startTime": 29.090880000000094,
      "endTime": 29.227243500000096,
      "instrument": 1,
      "program": -1,
      "isDrum": false
    },
    {
      "pitch": 40,
      "velocity": 110,
      "startTime": 29.272698000000098,
      "endTime": 29.4090615000001,
      "instrument": 1,
      "program": -1,
      "isDrum": false
    },
    {
      "pitch": 44,
      "velocity": 110,
      "startTime": 29.4545160000001,
      "endTime": 29.590879500000103,
      "instrument": 1,
      "program": -1,
      "isDrum": false
    },
    {
      "pitch": 47,
      "velocity": 110,
      "startTime": 29.636334000000105,
      "endTime": 29.772697500000106,
      "instrument": 1,
      "program": -1,
      "isDrum": false
    },
    {
      "pitch": 50,
      "velocity": 109,
      "startTime": 29.833303500000106,
      "endTime": 30.015121500000106,
      "instrument": 1,
      "program": -1,
      "isDrum": false
    },
    {
      "pitch": 66,
      "velocity": 110,
      "startTime": 30.363606000000107,
      "endTime": 30.59087850000011,
      "instrument": 1,
      "program": -1,
      "isDrum": false
    },
    {
      "pitch": 66,
      "velocity": 110,
      "startTime": 30.72724200000011,
      "endTime": 30.90906000000011,
      "instrument": 1,
      "program": -1,
      "isDrum": false
    },
    {
      "pitch": 64,
      "velocity": 110,
      "startTime": 30.90906000000011,
      "endTime": 31.045423500000112,
      "instrument": 1,
      "program": -1,
      "isDrum": false
    },
    {
      "pitch": 62,
      "velocity": 110,
      "startTime": 31.090878000000114,
      "endTime": 31.227241500000115,
      "instrument": 1,
      "program": -1,
      "isDrum": false
    },
    {
      "pitch": 61,
      "velocity": 110,
      "startTime": 31.272696000000117,
      "endTime": 31.40905950000012,
      "instrument": 1,
      "program": -1,
      "isDrum": false
    },
    {
      "pitch": 45,
      "velocity": 110,
      "startTime": 31.272696000000117,
      "endTime": 31.40905950000012,
      "instrument": 1,
      "program": -1,
      "isDrum": false
    },
    {
      "pitch": 61,
      "velocity": 110,
      "startTime": 31.45451400000012,
      "endTime": 31.590877500000122,
      "instrument": 1,
      "program": -1,
      "isDrum": false
    },
    {
      "pitch": 45,
      "velocity": 110,
      "startTime": 31.45451400000012,
      "endTime": 31.590877500000122,
      "instrument": 1,
      "program": -1,
      "isDrum": false
    },
    {
      "pitch": 43,
      "velocity": 110,
      "startTime": 31.636332000000124,
      "endTime": 31.772695500000125,
      "instrument": 1,
      "program": -1,
      "isDrum": false
    },
    {
      "pitch": 59,
      "velocity": 110,
      "startTime": 31.636332000000124,
      "endTime": 31.772695500000125,
      "instrument": 1,
      "program": -1,
      "isDrum": false
    },
    {
      "pitch": 42,
      "velocity": 110,
      "startTime": 31.818150000000127,
      "endTime": 31.95451350000013,
      "instrument": 1,
      "program": -1,
      "isDrum": false
    },
    {
      "pitch": 57,
      "velocity": 110,
      "startTime": 31.818150000000127,
      "endTime": 31.95451350000013,
      "instrument": 1,
      "program": -1,
      "isDrum": false
    },
    {
      "pitch": 40,
      "velocity": 110,
      "startTime": 31.99996800000013,
      "endTime": 32.13633150000013,
      "instrument": 1,
      "program": -1,
      "isDrum": false
    },
    {
      "pitch": 40,
      "velocity": 110,
      "startTime": 32.18178600000013,
      "endTime": 32.31814950000013,
      "instrument": 1,
      "program": -1,
      "isDrum": false
    },
    {
      "pitch": 44,
      "velocity": 110,
      "startTime": 32.36360400000013,
      "endTime": 32.49996750000013,
      "instrument": 1,
      "program": -1,
      "isDrum": false
    },
    {
      "pitch": 47,
      "velocity": 110,
      "startTime": 32.54542200000013,
      "endTime": 32.68178550000013,
      "instrument": 1,
      "program": -1,
      "isDrum": false
    },
    {
      "pitch": 50,
      "velocity": 109,
      "startTime": 32.74239150000013,
      "endTime": 32.92420950000013,
      "instrument": 1,
      "program": -1,
      "isDrum": false
    },
    {
      "pitch": 66,
      "velocity": 110,
      "startTime": 33.27269400000013,
      "endTime": 33.49996650000013,
      "instrument": 1,
      "program": -1,
      "isDrum": false
    },
    {
      "pitch": 66,
      "velocity": 110,
      "startTime": 33.63633000000013,
      "endTime": 33.81814800000013,
      "instrument": 1,
      "program": -1,
      "isDrum": false
    },
    {
      "pitch": 64,
      "velocity": 110,
      "startTime": 33.81814800000013,
      "endTime": 33.95451150000013,
      "instrument": 1,
      "program": -1,
      "isDrum": false
    },
    {
      "pitch": 62,
      "velocity": 110,
      "startTime": 33.99996600000013,
      "endTime": 34.13632950000013,
      "instrument": 1,
      "program": -1,
      "isDrum": false
    },
    {
      "pitch": 61,
      "velocity": 110,
      "startTime": 34.18178400000013,
      "endTime": 34.31814750000013,
      "instrument": 1,
      "program": -1,
      "isDrum": false
    },
    {
      "pitch": 45,
      "velocity": 110,
      "startTime": 34.18178400000013,
      "endTime": 34.31814750000013,
      "instrument": 1,
      "program": -1,
      "isDrum": false
    },
    {
      "pitch": 61,
      "velocity": 110,
      "startTime": 34.36360200000013,
      "endTime": 34.49996550000013,
      "instrument": 1,
      "program": -1,
      "isDrum": false
    },
    {
      "pitch": 45,
      "velocity": 110,
      "startTime": 34.36360200000013,
      "endTime": 34.49996550000013,
      "instrument": 1,
      "program": -1,
      "isDrum": false
    },
    {
      "pitch": 43,
      "velocity": 110,
      "startTime": 34.54542000000013,
      "endTime": 34.68178350000013,
      "instrument": 1,
      "program": -1,
      "isDrum": false
    },
    {
      "pitch": 59,
      "velocity": 110,
      "startTime": 34.54542000000013,
      "endTime": 34.68178350000013,
      "instrument": 1,
      "program": -1,
      "isDrum": false
    },
    {
      "pitch": 42,
      "velocity": 110,
      "startTime": 34.72723800000013,
      "endTime": 34.86360150000013,
      "instrument": 1,
      "program": -1,
      "isDrum": false
    },
    {
      "pitch": 57,
      "velocity": 110,
      "startTime": 34.72723800000013,
      "endTime": 34.86360150000013,
      "instrument": 1,
      "program": -1,
      "isDrum": false
    },
    {
      "pitch": 40,
      "velocity": 110,
      "startTime": 34.90905600000013,
      "endTime": 35.04541950000013,
      "instrument": 1,
      "program": -1,
      "isDrum": false
    },
    {
      "pitch": 40,
      "velocity": 110,
      "startTime": 35.09087400000013,
      "endTime": 35.22723750000013,
      "instrument": 1,
      "program": -1,
      "isDrum": false
    },
    {
      "pitch": 44,
      "velocity": 110,
      "startTime": 35.27269200000013,
      "endTime": 35.40905550000013,
      "instrument": 1,
      "program": -1,
      "isDrum": false
    },
    {
      "pitch": 47,
      "velocity": 110,
      "startTime": 35.45451000000013,
      "endTime": 35.59087350000013,
      "instrument": 1,
      "program": -1,
      "isDrum": false
    },
    {
      "pitch": 50,
      "velocity": 109,
      "startTime": 35.65147950000013,
      "endTime": 35.83329750000013,
      "instrument": 1,
      "program": -1,
      "isDrum": false
    },
    {
      "pitch": 66,
      "velocity": 110,
      "startTime": 36.181782000000126,
      "endTime": 36.409054500000124,
      "instrument": 1,
      "program": -1,
      "isDrum": false
    },
    {
      "pitch": 66,
      "velocity": 110,
      "startTime": 36.545418000000126,
      "endTime": 36.727236000000126,
      "instrument": 1,
      "program": -1,
      "isDrum": false
    },
    {
      "pitch": 64,
      "velocity": 110,
      "startTime": 36.727236000000126,
      "endTime": 36.86359950000013,
      "instrument": 1,
      "program": -1,
      "isDrum": false
    },
    {
      "pitch": 62,
      "velocity": 110,
      "startTime": 36.909054000000125,
      "endTime": 37.04541750000013,
      "instrument": 1,
      "program": -1,
      "isDrum": false
    },
    {
      "pitch": 61,
      "velocity": 110,
      "startTime": 37.090872000000125,
      "endTime": 37.22723550000013,
      "instrument": 1,
      "program": -1,
      "isDrum": false
    },
    {
      "pitch": 45,
      "velocity": 110,
      "startTime": 37.090872000000125,
      "endTime": 37.22723550000013,
      "instrument": 1,
      "program": -1,
      "isDrum": false
    },
    {
      "pitch": 61,
      "velocity": 110,
      "startTime": 37.272690000000125,
      "endTime": 37.40905350000013,
      "instrument": 1,
      "program": -1,
      "isDrum": false
    },
    {
      "pitch": 45,
      "velocity": 110,
      "startTime": 37.272690000000125,
      "endTime": 37.40905350000013,
      "instrument": 1,
      "program": -1,
      "isDrum": false
    },
    {
      "pitch": 43,
      "velocity": 110,
      "startTime": 37.454508000000125,
      "endTime": 37.59087150000013,
      "instrument": 1,
      "program": -1,
      "isDrum": false
    },
    {
      "pitch": 59,
      "velocity": 110,
      "startTime": 37.454508000000125,
      "endTime": 37.59087150000013,
      "instrument": 1,
      "program": -1,
      "isDrum": false
    },
    {
      "pitch": 42,
      "velocity": 110,
      "startTime": 37.636326000000125,
      "endTime": 37.772689500000126,
      "instrument": 1,
      "program": -1,
      "isDrum": false
    },
    {
      "pitch": 57,
      "velocity": 110,
      "startTime": 37.636326000000125,
      "endTime": 37.772689500000126,
      "instrument": 1,
      "program": -1,
      "isDrum": false
    },
    {
      "pitch": 40,
      "velocity": 110,
      "startTime": 37.818144000000125,
      "endTime": 37.954507500000126,
      "instrument": 1,
      "program": -1,
      "isDrum": false
    },
    {
      "pitch": 40,
      "velocity": 110,
      "startTime": 37.999962000000124,
      "endTime": 38.136325500000126,
      "instrument": 1,
      "program": -1,
      "isDrum": false
    },
    {
      "pitch": 44,
      "velocity": 110,
      "startTime": 38.181780000000124,
      "endTime": 38.318143500000126,
      "instrument": 1,
      "program": -1,
      "isDrum": false
    },
    {
      "pitch": 47,
      "velocity": 110,
      "startTime": 38.363598000000124,
      "endTime": 38.499961500000126,
      "instrument": 1,
      "program": -1,
      "isDrum": false
    },
    {
      "pitch": 50,
      "velocity": 109,
      "startTime": 38.560567500000126,
      "endTime": 38.742385500000125,
      "instrument": 1,
      "program": -1,
      "isDrum": false
    },
    {
      "pitch": 66,
      "velocity": 110,
      "startTime": 39.09087000000012,
      "endTime": 39.31814250000012,
      "instrument": 1,
      "program": -1,
      "isDrum": false
    },
    {
      "pitch": 66,
      "velocity": 110,
      "startTime": 39.45450600000012,
      "endTime": 39.63632400000012,
      "instrument": 1,
      "program": -1,
      "isDrum": false
    },
    {
      "pitch": 64,
      "velocity": 110,
      "startTime": 39.63632400000012,
      "endTime": 39.772687500000124,
      "instrument": 1,
      "program": -1,
      "isDrum": false
    },
    {
      "pitch": 62,
      "velocity": 110,
      "startTime": 39.81814200000012,
      "endTime": 39.954505500000124,
      "instrument": 1,
      "program": -1,
      "isDrum": false
    },
    {
      "pitch": 61,
      "velocity": 110,
      "startTime": 39.99996000000012,
      "endTime": 40.136323500000124,
      "instrument": 1,
      "program": -1,
      "isDrum": false
    },
    {
      "pitch": 45,
      "velocity": 110,
      "startTime": 39.99996000000012,
      "endTime": 40.136323500000124,
      "instrument": 1,
      "program": -1,
      "isDrum": false
    },
    {
      "pitch": 61,
      "velocity": 110,
      "startTime": 40.18177800000012,
      "endTime": 40.318141500000124,
      "instrument": 1,
      "program": -1,
      "isDrum": false
    },
    {
      "pitch": 45,
      "velocity": 110,
      "startTime": 40.18177800000012,
      "endTime": 40.318141500000124,
      "instrument": 1,
      "program": -1,
      "isDrum": false
    },
    {
      "pitch": 43,
      "velocity": 110,
      "startTime": 40.36359600000012,
      "endTime": 40.499959500000124,
      "instrument": 1,
      "program": -1,
      "isDrum": false
    },
    {
      "pitch": 59,
      "velocity": 110,
      "startTime": 40.36359600000012,
      "endTime": 40.499959500000124,
      "instrument": 1,
      "program": -1,
      "isDrum": false
    },
    {
      "pitch": 42,
      "velocity": 110,
      "startTime": 40.54541400000012,
      "endTime": 40.68177750000012,
      "instrument": 1,
      "program": -1,
      "isDrum": false
    },
    {
      "pitch": 57,
      "velocity": 110,
      "startTime": 40.54541400000012,
      "endTime": 40.68177750000012,
      "instrument": 1,
      "program": -1,
      "isDrum": false
    },
    {
      "pitch": 40,
      "velocity": 110,
      "startTime": 40.72723200000012,
      "endTime": 40.86359550000012,
      "instrument": 1,
      "program": -1,
      "isDrum": false
    },
    {
      "pitch": 40,
      "velocity": 110,
      "startTime": 40.90905000000012,
      "endTime": 41.04541350000012,
      "instrument": 1,
      "program": -1,
      "isDrum": false
    },
    {
      "pitch": 44,
      "velocity": 110,
      "startTime": 41.09086800000012,
      "endTime": 41.22723150000012,
      "instrument": 1,
      "program": -1,
      "isDrum": false
    },
    {
      "pitch": 47,
      "velocity": 110,
      "startTime": 41.27268600000012,
      "endTime": 41.40904950000012,
      "instrument": 1,
      "program": -1,
      "isDrum": false
    },
    {
      "pitch": 50,
      "velocity": 109,
      "startTime": 41.46965550000012,
      "endTime": 41.65147350000012,
      "instrument": 1,
      "program": -1,
      "isDrum": false
    },
    {
      "pitch": 66,
      "velocity": 110,
      "startTime": 41.99995800000012,
      "endTime": 42.22723050000012,
      "instrument": 1,
      "program": -1,
      "isDrum": false
    },
    {
      "pitch": 66,
      "velocity": 110,
      "startTime": 42.36359400000012,
      "endTime": 42.54541200000012,
      "instrument": 1,
      "program": -1,
      "isDrum": false
    },
    {
      "pitch": 64,
      "velocity": 110,
      "startTime": 42.54541200000012,
      "endTime": 42.68177550000012,
      "instrument": 1,
      "program": -1,
      "isDrum": false
    },
    {
      "pitch": 62,
      "velocity": 110,
      "startTime": 42.72723000000012,
      "endTime": 42.86359350000012,
      "instrument": 1,
      "program": -1,
      "isDrum": false
    },
    {
      "pitch": 61,
      "velocity": 110,
      "startTime": 42.90904800000012,
      "endTime": 43.04541150000012,
      "instrument": 1,
      "program": -1,
      "isDrum": false
    },
    {
      "pitch": 45,
      "velocity": 110,
      "startTime": 42.90904800000012,
      "endTime": 43.04541150000012,
      "instrument": 1,
      "program": -1,
      "isDrum": false
    },
    {
      "pitch": 61,
      "velocity": 110,
      "startTime": 43.09086600000012,
      "endTime": 43.22722950000012,
      "instrument": 1,
      "program": -1,
      "isDrum": false
    },
    {
      "pitch": 45,
      "velocity": 110,
      "startTime": 43.09086600000012,
      "endTime": 43.22722950000012,
      "instrument": 1,
      "program": -1,
      "isDrum": false
    },
    {
      "pitch": 43,
      "velocity": 110,
      "startTime": 43.27268400000012,
      "endTime": 43.40904750000012,
      "instrument": 1,
      "program": -1,
      "isDrum": false
    },
    {
      "pitch": 59,
      "velocity": 110,
      "startTime": 43.27268400000012,
      "endTime": 43.40904750000012,
      "instrument": 1,
      "program": -1,
      "isDrum": false
    },
    {
      "pitch": 42,
      "velocity": 110,
      "startTime": 43.45450200000012,
      "endTime": 43.59086550000012,
      "instrument": 1,
      "program": -1,
      "isDrum": false
    },
    {
      "pitch": 57,
      "velocity": 110,
      "startTime": 43.45450200000012,
      "endTime": 43.59086550000012,
      "instrument": 1,
      "program": -1,
      "isDrum": false
    },
    {
      "pitch": 48,
      "velocity": 110,
      "startTime": 43.63632000000012,
      "endTime": 43.77268350000012,
      "instrument": 1,
      "program": -1,
      "isDrum": false
    },
    {
      "pitch": 43,
      "velocity": 110,
      "startTime": 43.81813800000012,
      "endTime": 43.95450150000012,
      "instrument": 1,
      "program": -1,
      "isDrum": false
    },
    {
      "pitch": 36,
      "velocity": 110,
      "startTime": 43.99995600000012,
      "endTime": 44.13631950000012,
      "instrument": 1,
      "program": -1,
      "isDrum": false
    },
    {
      "pitch": 55,
      "velocity": 110,
      "startTime": 45.09086400000012,
      "endTime": 45.22722750000012,
      "instrument": 1,
      "program": -1,
      "isDrum": false
    },
    {
      "pitch": 50,
      "velocity": 110,
      "startTime": 45.27268200000012,
      "endTime": 45.40904550000012,
      "instrument": 1,
      "program": -1,
      "isDrum": false
    },
    {
      "pitch": 43,
      "velocity": 110,
      "startTime": 45.45450000000012,
      "endTime": 45.59086350000012,
      "instrument": 1,
      "program": -1,
      "isDrum": false
    },
    {
      "pitch": 50,
      "velocity": 110,
      "startTime": 46.545408000000116,
      "endTime": 46.68177150000012,
      "instrument": 1,
      "program": -1,
      "isDrum": false
    },
    {
      "pitch": 45,
      "velocity": 110,
      "startTime": 46.727226000000115,
      "endTime": 46.86358950000012,
      "instrument": 1,
      "program": -1,
      "isDrum": false
    },
    {
      "pitch": 38,
      "velocity": 110,
      "startTime": 46.909044000000115,
      "endTime": 47.04540750000012,
      "instrument": 1,
      "program": -1,
      "isDrum": false
    },
    {
      "pitch": 48,
      "velocity": 110,
      "startTime": 47.999952000000114,
      "endTime": 48.136315500000116,
      "instrument": 1,
      "program": -1,
      "isDrum": false
    },
    {
      "pitch": 43,
      "velocity": 110,
      "startTime": 48.181770000000114,
      "endTime": 48.318133500000116,
      "instrument": 1,
      "program": -1,
      "isDrum": false
    },
    {
      "pitch": 36,
      "velocity": 110,
      "startTime": 48.363588000000114,
      "endTime": 48.499951500000115,
      "instrument": 1,
      "program": -1,
      "isDrum": false
    },
    {
      "pitch": 48,
      "velocity": 110,
      "startTime": 49.45449600000011,
      "endTime": 49.590859500000114,
      "instrument": 1,
      "program": -1,
      "isDrum": false
    },
    {
      "pitch": 43,
      "velocity": 110,
      "startTime": 49.63631400000011,
      "endTime": 49.772677500000114,
      "instrument": 1,
      "program": -1,
      "isDrum": false
    },
    {
      "pitch": 36,
      "velocity": 110,
      "startTime": 49.81813200000011,
      "endTime": 49.954495500000114,
      "instrument": 1,
      "program": -1,
      "isDrum": false
    },
    {
      "pitch": 55,
      "velocity": 110,
      "startTime": 50.90904000000011,
      "endTime": 51.04540350000011,
      "instrument": 1,
      "program": -1,
      "isDrum": false
    },
    {
      "pitch": 50,
      "velocity": 110,
      "startTime": 51.09085800000011,
      "endTime": 51.22722150000011,
      "instrument": 1,
      "program": -1,
      "isDrum": false
    },
    {
      "pitch": 43,
      "velocity": 110,
      "startTime": 51.27267600000011,
      "endTime": 51.40903950000011,
      "instrument": 1,
      "program": -1,
      "isDrum": false
    },
    {
      "pitch": 50,
      "velocity": 110,
      "startTime": 52.36358400000011,
      "endTime": 52.49994750000011,
      "instrument": 1,
      "program": -1,
      "isDrum": false
    },
    {
      "pitch": 45,
      "velocity": 110,
      "startTime": 52.54540200000011,
      "endTime": 52.68176550000011,
      "instrument": 1,
      "program": -1,
      "isDrum": false
    },
    {
      "pitch": 38,
      "velocity": 110,
      "startTime": 52.72722000000011,
      "endTime": 52.86358350000011,
      "instrument": 1,
      "program": -1,
      "isDrum": false
    },
    {
      "pitch": 48,
      "velocity": 110,
      "startTime": 53.81812800000011,
      "endTime": 53.95449150000011,
      "instrument": 1,
      "program": -1,
      "isDrum": false
    },
    {
      "pitch": 43,
      "velocity": 110,
      "startTime": 53.99994600000011,
      "endTime": 54.13630950000011,
      "instrument": 1,
      "program": -1,
      "isDrum": false
    },
    {
      "pitch": 36,
      "velocity": 110,
      "startTime": 54.18176400000011,
      "endTime": 54.31812750000011,
      "instrument": 1,
      "program": -1,
      "isDrum": false
    },
    {
      "pitch": 48,
      "velocity": 110,
      "startTime": 55.27267200000011,
      "endTime": 55.40903550000011,
      "instrument": 1,
      "program": -1,
      "isDrum": false
    },
    {
      "pitch": 43,
      "velocity": 110,
      "startTime": 55.454490000000106,
      "endTime": 55.59085350000011,
      "instrument": 1,
      "program": -1,
      "isDrum": false
    },
    {
      "pitch": 36,
      "velocity": 110,
      "startTime": 55.636308000000106,
      "endTime": 55.77267150000011,
      "instrument": 1,
      "program": -1,
      "isDrum": false
    },
    {
      "pitch": 48,
      "velocity": 110,
      "startTime": 56.727216000000105,
      "endTime": 56.86357950000011,
      "instrument": 1,
      "program": -1,
      "isDrum": false
    },
    {
      "pitch": 43,
      "velocity": 110,
      "startTime": 56.909034000000105,
      "endTime": 57.04539750000011,
      "instrument": 1,
      "program": -1,
      "isDrum": false
    },
    {
      "pitch": 36,
      "velocity": 110,
      "startTime": 57.090852000000105,
      "endTime": 57.227215500000106,
      "instrument": 1,
      "program": -1,
      "isDrum": false
    },
    {
      "pitch": 40,
      "velocity": 110,
      "startTime": 58.181760000000104,
      "endTime": 58.318123500000105,
      "instrument": 1,
      "program": -1,
      "isDrum": false
    },
    {
      "pitch": 40,
      "velocity": 110,
      "startTime": 58.3635780000001,
      "endTime": 58.499941500000105,
      "instrument": 1,
      "program": -1,
      "isDrum": false
    },
    {
      "pitch": 44,
      "velocity": 110,
      "startTime": 58.5453960000001,
      "endTime": 58.681759500000105,
      "instrument": 1,
      "program": -1,
      "isDrum": false
    },
    {
      "pitch": 47,
      "velocity": 110,
      "startTime": 58.7272140000001,
      "endTime": 58.863577500000105,
      "instrument": 1,
      "program": -1,
      "isDrum": false
    },
    {
      "pitch": 50,
      "velocity": 109,
      "startTime": 58.924183500000105,
      "endTime": 59.106001500000104,
      "instrument": 1,
      "program": -1,
      "isDrum": false
    },
    {
      "pitch": 66,
      "velocity": 110,
      "startTime": 59.4544860000001,
      "endTime": 59.6817585000001,
      "instrument": 1,
      "program": -1,
      "isDrum": false
    },
    {
      "pitch": 66,
      "velocity": 110,
      "startTime": 59.8181220000001,
      "endTime": 59.9999400000001,
      "instrument": 1,
      "program": -1,
      "isDrum": false
    },
    {
      "pitch": 86,
      "velocity": 51,
      "startTime": 7.2727200000000005,
      "endTime": 7.5909015,
      "instrument": 2,
      "program": -1,
      "isDrum": false
    },
    {
      "pitch": 74,
      "velocity": 49,
      "startTime": 7.2727200000000005,
      "endTime": 7.6151439000000005,
      "instrument": 2,
      "program": -1,
      "isDrum": false
    },
    {
      "pitch": 81,
      "velocity": 62,
      "startTime": 7.999992000000001,
      "endTime": 8.330294700000001,
      "instrument": 2,
      "program": -1,
      "isDrum": false
    },
    {
      "pitch": 69,
      "velocity": 60,
      "startTime": 7.999992000000001,
      "endTime": 8.384840100000002,
      "instrument": 2,
      "program": -1,
      "isDrum": false
    },
    {
      "pitch": 76,
      "velocity": 60,
      "startTime": 8.727264000000002,
      "endTime": 9.112112100000001,
      "instrument": 2,
      "program": -1,
      "isDrum": false
    },
    {
      "pitch": 64,
      "velocity": 60,
      "startTime": 8.727264000000002,
      "endTime": 9.112112100000001,
      "instrument": 2,
      "program": -1,
      "isDrum": false
    },
    {
      "pitch": 86,
      "velocity": 51,
      "startTime": 10.181808,
      "endTime": 10.4999895,
      "instrument": 2,
      "program": -1,
      "isDrum": false
    },
    {
      "pitch": 74,
      "velocity": 49,
      "startTime": 10.181808,
      "endTime": 10.5242319,
      "instrument": 2,
      "program": -1,
      "isDrum": false
    },
    {
      "pitch": 81,
      "velocity": 62,
      "startTime": 10.90908,
      "endTime": 11.2393827,
      "instrument": 2,
      "program": -1,
      "isDrum": false
    },
    {
      "pitch": 69,
      "velocity": 60,
      "startTime": 10.90908,
      "endTime": 11.2939281,
      "instrument": 2,
      "program": -1,
      "isDrum": false
    },
    {
      "pitch": 76,
      "velocity": 60,
      "startTime": 11.636352,
      "endTime": 12.0212001,
      "instrument": 2,
      "program": -1,
      "isDrum": false
    },
    {
      "pitch": 64,
      "velocity": 60,
      "startTime": 11.636352,
      "endTime": 12.0212001,
      "instrument": 2,
      "program": -1,
      "isDrum": false
    },
    {
      "pitch": 86,
      "velocity": 51,
      "startTime": 13.090896,
      "endTime": 13.4090775,
      "instrument": 2,
      "program": -1,
      "isDrum": false
    },
    {
      "pitch": 74,
      "velocity": 49,
      "startTime": 13.090896,
      "endTime": 13.4333199,
      "instrument": 2,
      "program": -1,
      "isDrum": false
    },
    {
      "pitch": 81,
      "velocity": 62,
      "startTime": 13.818168,
      "endTime": 14.1484707,
      "instrument": 2,
      "program": -1,
      "isDrum": false
    },
    {
      "pitch": 69,
      "velocity": 60,
      "startTime": 13.818168,
      "endTime": 14.203016100000001,
      "instrument": 2,
      "program": -1,
      "isDrum": false
    },
    {
      "pitch": 76,
      "velocity": 60,
      "startTime": 14.545440000000001,
      "endTime": 14.9302881,
      "instrument": 2,
      "program": -1,
      "isDrum": false
    },
    {
      "pitch": 64,
      "velocity": 60,
      "startTime": 14.545440000000001,
      "endTime": 14.9302881,
      "instrument": 2,
      "program": -1,
      "isDrum": false
    },
    {
      "pitch": 86,
      "velocity": 51,
      "startTime": 15.999984000000001,
      "endTime": 16.318165500000003,
      "instrument": 2,
      "program": -1,
      "isDrum": false
    },
    {
      "pitch": 74,
      "velocity": 49,
      "startTime": 15.999984000000001,
      "endTime": 16.3424079,
      "instrument": 2,
      "program": -1,
      "isDrum": false
    },
    {
      "pitch": 81,
      "velocity": 62,
      "startTime": 16.727256,
      "endTime": 17.0575587,
      "instrument": 2,
      "program": -1,
      "isDrum": false
    },
    {
      "pitch": 69,
      "velocity": 60,
      "startTime": 16.727256,
      "endTime": 17.1121041,
      "instrument": 2,
      "program": -1,
      "isDrum": false
    },
    {
      "pitch": 76,
      "velocity": 60,
      "startTime": 17.454528,
      "endTime": 17.8393761,
      "instrument": 2,
      "program": -1,
      "isDrum": false
    },
    {
      "pitch": 64,
      "velocity": 60,
      "startTime": 17.454528,
      "endTime": 17.8393761,
      "instrument": 2,
      "program": -1,
      "isDrum": false
    },
    {
      "pitch": 86,
      "velocity": 51,
      "startTime": 18.909072,
      "endTime": 19.2272535,
      "instrument": 2,
      "program": -1,
      "isDrum": false
    },
    {
      "pitch": 74,
      "velocity": 49,
      "startTime": 18.909072,
      "endTime": 19.2514959,
      "instrument": 2,
      "program": -1,
      "isDrum": false
    },
    {
      "pitch": 81,
      "velocity": 62,
      "startTime": 19.636343999999998,
      "endTime": 19.9666467,
      "instrument": 2,
      "program": -1,
      "isDrum": false
    },
    {
      "pitch": 69,
      "velocity": 60,
      "startTime": 19.636343999999998,
      "endTime": 20.021192099999997,
      "instrument": 2,
      "program": -1,
      "isDrum": false
    },
    {
      "pitch": 76,
      "velocity": 60,
      "startTime": 20.363615999999997,
      "endTime": 20.748464099999996,
      "instrument": 2,
      "program": -1,
      "isDrum": false
    },
    {
      "pitch": 64,
      "velocity": 60,
      "startTime": 20.363615999999997,
      "endTime": 20.748464099999996,
      "instrument": 2,
      "program": -1,
      "isDrum": false
    },
    {
      "pitch": 86,
      "velocity": 51,
      "startTime": 21.818159999999995,
      "endTime": 22.136341499999997,
      "instrument": 2,
      "program": -1,
      "isDrum": false
    },
    {
      "pitch": 74,
      "velocity": 49,
      "startTime": 21.818159999999995,
      "endTime": 22.160583899999995,
      "instrument": 2,
      "program": -1,
      "isDrum": false
    },
    {
      "pitch": 81,
      "velocity": 62,
      "startTime": 22.545431999999995,
      "endTime": 22.875734699999995,
      "instrument": 2,
      "program": -1,
      "isDrum": false
    },
    {
      "pitch": 69,
      "velocity": 60,
      "startTime": 22.545431999999995,
      "endTime": 22.930280099999994,
      "instrument": 2,
      "program": -1,
      "isDrum": false
    },
    {
      "pitch": 76,
      "velocity": 60,
      "startTime": 23.272703999999994,
      "endTime": 23.657552099999993,
      "instrument": 2,
      "program": -1,
      "isDrum": false
    },
    {
      "pitch": 64,
      "velocity": 60,
      "startTime": 23.272703999999994,
      "endTime": 23.657552099999993,
      "instrument": 2,
      "program": -1,
      "isDrum": false
    },
    {
      "pitch": 86,
      "velocity": 51,
      "startTime": 24.727247999999992,
      "endTime": 25.045429499999994,
      "instrument": 2,
      "program": -1,
      "isDrum": false
    },
    {
      "pitch": 74,
      "velocity": 49,
      "startTime": 24.727247999999992,
      "endTime": 25.069671899999992,
      "instrument": 2,
      "program": -1,
      "isDrum": false
    },
    {
      "pitch": 81,
      "velocity": 62,
      "startTime": 25.45451999999999,
      "endTime": 25.784822699999992,
      "instrument": 2,
      "program": -1,
      "isDrum": false
    },
    {
      "pitch": 69,
      "velocity": 60,
      "startTime": 25.45451999999999,
      "endTime": 25.83936809999999,
      "instrument": 2,
      "program": -1,
      "isDrum": false
    },
    {
      "pitch": 76,
      "velocity": 60,
      "startTime": 26.18179199999999,
      "endTime": 26.56664009999999,
      "instrument": 2,
      "program": -1,
      "isDrum": false
    },
    {
      "pitch": 64,
      "velocity": 60,
      "startTime": 26.18179199999999,
      "endTime": 26.56664009999999,
      "instrument": 2,
      "program": -1,
      "isDrum": false
    },
    {
      "pitch": 86,
      "velocity": 51,
      "startTime": 27.63633599999999,
      "endTime": 27.95451749999999,
      "instrument": 2,
      "program": -1,
      "isDrum": false
    },
    {
      "pitch": 74,
      "velocity": 49,
      "startTime": 27.63633599999999,
      "endTime": 27.97875989999999,
      "instrument": 2,
      "program": -1,
      "isDrum": false
    },
    {
      "pitch": 81,
      "velocity": 62,
      "startTime": 28.36360799999999,
      "endTime": 28.69391069999999,
      "instrument": 2,
      "program": -1,
      "isDrum": false
    },
    {
      "pitch": 69,
      "velocity": 60,
      "startTime": 28.36360799999999,
      "endTime": 28.748456099999988,
      "instrument": 2,
      "program": -1,
      "isDrum": false
    },
    {
      "pitch": 76,
      "velocity": 60,
      "startTime": 29.090879999999988,
      "endTime": 29.475728099999987,
      "instrument": 2,
      "program": -1,
      "isDrum": false
    },
    {
      "pitch": 64,
      "velocity": 60,
      "startTime": 29.090879999999988,
      "endTime": 29.475728099999987,
      "instrument": 2,
      "program": -1,
      "isDrum": false
    },
    {
      "pitch": 86,
      "velocity": 51,
      "startTime": 30.545423999999986,
      "endTime": 30.863605499999988,
      "instrument": 2,
      "program": -1,
      "isDrum": false
    },
    {
      "pitch": 74,
      "velocity": 49,
      "startTime": 30.545423999999986,
      "endTime": 30.887847899999986,
      "instrument": 2,
      "program": -1,
      "isDrum": false
    },
    {
      "pitch": 81,
      "velocity": 62,
      "startTime": 31.272695999999986,
      "endTime": 31.602998699999986,
      "instrument": 2,
      "program": -1,
      "isDrum": false
    },
    {
      "pitch": 69,
      "velocity": 60,
      "startTime": 31.272695999999986,
      "endTime": 31.657544099999985,
      "instrument": 2,
      "program": -1,
      "isDrum": false
    },
    {
      "pitch": 76,
      "velocity": 60,
      "startTime": 31.999967999999985,
      "endTime": 32.38481609999999,
      "instrument": 2,
      "program": -1,
      "isDrum": false
    },
    {
      "pitch": 64,
      "velocity": 60,
      "startTime": 31.999967999999985,
      "endTime": 32.38481609999999,
      "instrument": 2,
      "program": -1,
      "isDrum": false
    },
    {
      "pitch": 86,
      "velocity": 51,
      "startTime": 33.45451199999999,
      "endTime": 33.77269349999999,
      "instrument": 2,
      "program": -1,
      "isDrum": false
    },
    {
      "pitch": 74,
      "velocity": 49,
      "startTime": 33.45451199999999,
      "endTime": 33.79693589999999,
      "instrument": 2,
      "program": -1,
      "isDrum": false
    },
    {
      "pitch": 81,
      "velocity": 62,
      "startTime": 34.181783999999986,
      "endTime": 34.51208669999998,
      "instrument": 2,
      "program": -1,
      "isDrum": false
    },
    {
      "pitch": 69,
      "velocity": 60,
      "startTime": 34.181783999999986,
      "endTime": 34.566632099999985,
      "instrument": 2,
      "program": -1,
      "isDrum": false
    },
    {
      "pitch": 76,
      "velocity": 60,
      "startTime": 34.909055999999985,
      "endTime": 35.293904099999985,
      "instrument": 2,
      "program": -1,
      "isDrum": false
    },
    {
      "pitch": 64,
      "velocity": 60,
      "startTime": 34.909055999999985,
      "endTime": 35.293904099999985,
      "instrument": 2,
      "program": -1,
      "isDrum": false
    },
    {
      "pitch": 86,
      "velocity": 51,
      "startTime": 36.363599999999984,
      "endTime": 36.681781499999985,
      "instrument": 2,
      "program": -1,
      "isDrum": false
    },
    {
      "pitch": 74,
      "velocity": 49,
      "startTime": 36.363599999999984,
      "endTime": 36.706023899999984,
      "instrument": 2,
      "program": -1,
      "isDrum": false
    },
    {
      "pitch": 81,
      "velocity": 62,
      "startTime": 37.09087199999998,
      "endTime": 37.42117469999998,
      "instrument": 2,
      "program": -1,
      "isDrum": false
    },
    {
      "pitch": 69,
      "velocity": 60,
      "startTime": 37.09087199999998,
      "endTime": 37.47572009999998,
      "instrument": 2,
      "program": -1,
      "isDrum": false
    },
    {
      "pitch": 76,
      "velocity": 60,
      "startTime": 37.81814399999998,
      "endTime": 38.20299209999998,
      "instrument": 2,
      "program": -1,
      "isDrum": false
    },
    {
      "pitch": 64,
      "velocity": 60,
      "startTime": 37.81814399999998,
      "endTime": 38.20299209999998,
      "instrument": 2,
      "program": -1,
      "isDrum": false
    },
    {
      "pitch": 86,
      "velocity": 51,
      "startTime": 39.27268799999998,
      "endTime": 39.59086949999998,
      "instrument": 2,
      "program": -1,
      "isDrum": false
    },
    {
      "pitch": 74,
      "velocity": 49,
      "startTime": 39.27268799999998,
      "endTime": 39.61511189999998,
      "instrument": 2,
      "program": -1,
      "isDrum": false
    },
    {
      "pitch": 81,
      "velocity": 62,
      "startTime": 39.99995999999998,
      "endTime": 40.33026269999998,
      "instrument": 2,
      "program": -1,
      "isDrum": false
    },
    {
      "pitch": 69,
      "velocity": 60,
      "startTime": 39.99995999999998,
      "endTime": 40.38480809999998,
      "instrument": 2,
      "program": -1,
      "isDrum": false
    },
    {
      "pitch": 76,
      "velocity": 60,
      "startTime": 40.72723199999998,
      "endTime": 41.11208009999998,
      "instrument": 2,
      "program": -1,
      "isDrum": false
    },
    {
      "pitch": 64,
      "velocity": 60,
      "startTime": 40.72723199999998,
      "endTime": 41.11208009999998,
      "instrument": 2,
      "program": -1,
      "isDrum": false
    },
    {
      "pitch": 86,
      "velocity": 51,
      "startTime": 59.63630399999998,
      "endTime": 59.95448549999998,
      "instrument": 2,
      "program": -1,
      "isDrum": false
    },
    {
      "pitch": 74,
      "velocity": 49,
      "startTime": 59.63630399999998,
      "endTime": 59.97872789999998,
      "instrument": 2,
      "program": -1,
      "isDrum": false
    },
    {
      "pitch": 52,
      "velocity": 65,
      "startTime": 18.6939207,
      "endTime": 18.8424054,
      "instrument": 3,
      "program": -1,
      "isDrum": false
    },
    {
      "pitch": 76,
      "velocity": 76,
      "startTime": 18.9333144,
      "endTime": 19.1393748,
      "instrument": 3,
      "program": -1,
      "isDrum": false
    },
    {
      "pitch": 76,
      "velocity": 78,
      "startTime": 19.293920099999998,
      "endTime": 19.527253199999997,
      "instrument": 3,
      "program": -1,
      "isDrum": false
    },
    {
      "pitch": 76,
      "velocity": 90,
      "startTime": 19.687859099999997,
      "endTime": 20.1908889,
      "instrument": 3,
      "program": -1,
      "isDrum": false
    },
    {
      "pitch": 74,
      "velocity": 80,
      "startTime": 21.636342000000003,
      "endTime": 21.818160000000002,
      "instrument": 3,
      "program": -1,
      "isDrum": false
    },
    {
      "pitch": 74,
      "velocity": 80,
      "startTime": 21.999978000000002,
      "endTime": 22.090887000000002,
      "instrument": 3,
      "program": -1,
      "isDrum": false
    },
    {
      "pitch": 74,
      "velocity": 80,
      "startTime": 22.181796000000002,
      "endTime": 22.272705000000002,
      "instrument": 3,
      "program": -1,
      "isDrum": false
    },
    {
      "pitch": 74,
      "velocity": 80,
      "startTime": 22.363614000000002,
      "endTime": 22.454523000000002,
      "instrument": 3,
      "program": -1,
      "isDrum": false
    },
    {
      "pitch": 76,
      "velocity": 73,
      "startTime": 22.563613800000002,
      "endTime": 22.903007400000003,
      "instrument": 3,
      "program": -1,
      "isDrum": false
    },
    {
      "pitch": 74,
      "velocity": 86,
      "startTime": 24.590884500000005,
      "endTime": 24.809066100000006,
      "instrument": 3,
      "program": -1,
      "isDrum": false
    },
    {
      "pitch": 74,
      "velocity": 81,
      "startTime": 24.909066000000006,
      "endTime": 25.012096200000006,
      "instrument": 3,
      "program": -1,
      "isDrum": false
    },
    {
      "pitch": 74,
      "velocity": 84,
      "startTime": 25.087853700000007,
      "endTime": 25.19391420000001,
      "instrument": 3,
      "program": -1,
      "isDrum": false
    },
    {
      "pitch": 76,
      "velocity": 94,
      "startTime": 25.27573230000001,
      "endTime": 25.74542880000001,
      "instrument": 3,
      "program": -1,
      "isDrum": false
    },
    {
      "pitch": 74,
      "velocity": 96,
      "startTime": 27.49088160000001,
      "endTime": 27.65754810000001,
      "instrument": 3,
      "program": -1,
      "isDrum": false
    },
    {
      "pitch": 74,
      "velocity": 89,
      "startTime": 27.81815400000001,
      "endTime": 27.95148720000001,
      "instrument": 3,
      "program": -1,
      "isDrum": false
    },
    {
      "pitch": 76,
      "velocity": 101,
      "startTime": 27.99997200000001,
      "endTime": 28.17572940000001,
      "instrument": 3,
      "program": -1,
      "isDrum": false
    },
    {
      "pitch": 74,
      "velocity": 104,
      "startTime": 28.178759700000008,
      "endTime": 28.303002000000006,
      "instrument": 3,
      "program": -1,
      "isDrum": false
    },
    {
      "pitch": 76,
      "velocity": 110,
      "startTime": 28.363608000000006,
      "endTime": 28.575729000000006,
      "instrument": 3,
      "program": -1,
      "isDrum": false
    },
    {
      "pitch": 71,
      "velocity": 100,
      "startTime": 31.636332000000007,
      "endTime": 31.818150000000006,
      "instrument": 3,
      "program": -1,
      "isDrum": false
    },
    {
      "pitch": 70,
      "velocity": 100,
      "startTime": 31.818150000000006,
      "endTime": 31.999968000000006,
      "instrument": 3,
      "program": -1,
      "isDrum": false
    },
    {
      "pitch": 71,
      "velocity": 100,
      "startTime": 31.999968000000006,
      "endTime": 32.18178600000001,
      "instrument": 3,
      "program": -1,
      "isDrum": false
    },
    {
      "pitch": 70,
      "velocity": 100,
      "startTime": 32.18178600000001,
      "endTime": 32.36360400000001,
      "instrument": 3,
      "program": -1,
      "isDrum": false
    },
    {
      "pitch": 71,
      "velocity": 100,
      "startTime": 32.36360400000001,
      "endTime": 32.54542200000001,
      "instrument": 3,
      "program": -1,
      "isDrum": false
    },
    {
      "pitch": 70,
      "velocity": 100,
      "startTime": 32.54542200000001,
      "endTime": 32.72724000000001,
      "instrument": 3,
      "program": -1,
      "isDrum": false
    },
    {
      "pitch": 71,
      "velocity": 100,
      "startTime": 32.73330060000001,
      "endTime": 32.960573100000005,
      "instrument": 3,
      "program": -1,
      "isDrum": false
    },
    {
      "pitch": 74,
      "velocity": 100,
      "startTime": 33.2878455,
      "endTime": 33.487845300000004,
      "instrument": 3,
      "program": -1,
      "isDrum": false
    },
    {
      "pitch": 74,
      "velocity": 96,
      "startTime": 33.63633,
      "endTime": 33.748451100000004,
      "instrument": 3,
      "program": -1,
      "isDrum": false
    },
    {
      "pitch": 73,
      "velocity": 82,
      "startTime": 33.8151177,
      "endTime": 33.9726933,
      "instrument": 3,
      "program": -1,
      "isDrum": false
    },
    {
      "pitch": 74,
      "velocity": 100,
      "startTime": 34.006026600000006,
      "endTime": 34.12117800000001,
      "instrument": 3,
      "program": -1,
      "isDrum": false
    },
    {
      "pitch": 71,
      "velocity": 92,
      "startTime": 34.35754140000001,
      "endTime": 34.43329890000001,
      "instrument": 3,
      "program": -1,
      "isDrum": false
    },
    {
      "pitch": 71,
      "velocity": 97,
      "startTime": 34.53026850000001,
      "endTime": 34.64845020000001,
      "instrument": 3,
      "program": -1,
      "isDrum": false
    },
    {
      "pitch": 70,
      "velocity": 92,
      "startTime": 34.71511680000001,
      "endTime": 34.81511670000001,
      "instrument": 3,
      "program": -1,
      "isDrum": false
    },
    {
      "pitch": 71,
      "velocity": 97,
      "startTime": 34.887843900000014,
      "endTime": 35.07875280000001,
      "instrument": 3,
      "program": -1,
      "isDrum": false
    },
    {
      "pitch": 70,
      "velocity": 77,
      "startTime": 35.07269220000001,
      "endTime": 35.21208600000001,
      "instrument": 3,
      "program": -1,
      "isDrum": false
    },
    {
      "pitch": 71,
      "velocity": 99,
      "startTime": 35.25451020000001,
      "endTime": 35.43632820000001,
      "instrument": 3,
      "program": -1,
      "isDrum": false
    },
    {
      "pitch": 70,
      "velocity": 84,
      "startTime": 35.44238880000001,
      "endTime": 35.58481290000001,
      "instrument": 3,
      "program": -1,
      "isDrum": false
    },
    {
      "pitch": 71,
      "velocity": 104,
      "startTime": 35.63329770000001,
      "endTime": 35.78481270000001,
      "instrument": 3,
      "program": -1,
      "isDrum": false
    },
    {
      "pitch": 78,
      "velocity": 101,
      "startTime": 36.18784260000001,
      "endTime": 36.37269090000001,
      "instrument": 3,
      "program": -1,
      "isDrum": false
    },
    {
      "pitch": 78,
      "velocity": 92,
      "startTime": 36.53632710000001,
      "endTime": 36.65450880000001,
      "instrument": 3,
      "program": -1,
      "isDrum": false
    },
    {
      "pitch": 76,
      "velocity": 101,
      "startTime": 36.72117540000001,
      "endTime": 36.806023800000006,
      "instrument": 3,
      "program": -1,
      "isDrum": false
    },
    {
      "pitch": 74,
      "velocity": 100,
      "startTime": 36.9151146,
      "endTime": 37.090872000000005,
      "instrument": 3,
      "program": -1,
      "isDrum": false
    },
    {
      "pitch": 71,
      "velocity": 110,
      "startTime": 37.448447400000006,
      "endTime": 37.62420480000001,
      "instrument": 3,
      "program": -1,
      "isDrum": false
    },
    {
      "pitch": 70,
      "velocity": 81,
      "startTime": 37.60905330000001,
      "endTime": 37.78784100000001,
      "instrument": 3,
      "program": -1,
      "isDrum": false
    },
    {
      "pitch": 71,
      "velocity": 104,
      "startTime": 37.81814400000001,
      "endTime": 38.01511350000001,
      "instrument": 3,
      "program": -1,
      "isDrum": false
    },
    {
      "pitch": 70,
      "velocity": 96,
      "startTime": 37.99693170000001,
      "endTime": 38.16359820000001,
      "instrument": 3,
      "program": -1,
      "isDrum": false
    },
    {
      "pitch": 71,
      "velocity": 104,
      "startTime": 38.19390120000001,
      "endTime": 38.38481010000002,
      "instrument": 3,
      "program": -1,
      "isDrum": false
    },
    {
      "pitch": 70,
      "velocity": 100,
      "startTime": 38.369658600000015,
      "endTime": 38.515113000000014,
      "instrument": 3,
      "program": -1,
      "isDrum": false
    },
    {
      "pitch": 71,
      "velocity": 107,
      "startTime": 38.54541600000002,
      "endTime": 38.75753700000002,
      "instrument": 3,
      "program": -1,
      "isDrum": false
    },
    {
      "pitch": 74,
      "velocity": 114,
      "startTime": 39.10602150000002,
      "endTime": 39.28480920000002,
      "instrument": 3,
      "program": -1,
      "isDrum": false
    },
    {
      "pitch": 74,
      "velocity": 100,
      "startTime": 39.44541510000002,
      "endTime": 39.55450590000002,
      "instrument": 3,
      "program": -1,
      "isDrum": false
    },
    {
      "pitch": 73,
      "velocity": 83,
      "startTime": 39.64541490000002,
      "endTime": 39.76056630000002,
      "instrument": 3,
      "program": -1,
      "isDrum": false
    },
    {
      "pitch": 74,
      "velocity": 104,
      "startTime": 39.81814200000002,
      "endTime": 39.94541460000002,
      "instrument": 3,
      "program": -1,
      "isDrum": false
    },
    {
      "pitch": 71,
      "velocity": 107,
      "startTime": 40.18177800000002,
      "endTime": 40.26056580000002,
      "instrument": 3,
      "program": -1,
      "isDrum": false
    },
    {
      "pitch": 71,
      "velocity": 99,
      "startTime": 40.36662630000002,
      "endTime": 40.499959500000024,
      "instrument": 3,
      "program": -1,
      "isDrum": false
    },
    {
      "pitch": 70,
      "velocity": 92,
      "startTime": 40.53026250000003,
      "endTime": 40.68177750000003,
      "instrument": 3,
      "program": -1,
      "isDrum": false
    },
    {
      "pitch": 71,
      "velocity": 110,
      "startTime": 40.71814110000003,
      "endTime": 40.93026210000003,
      "instrument": 3,
      "program": -1,
      "isDrum": false
    },
    {
      "pitch": 70,
      "velocity": 92,
      "startTime": 40.90905000000003,
      "endTime": 41.057534700000026,
      "instrument": 3,
      "program": -1,
      "isDrum": false
    },
    {
      "pitch": 71,
      "velocity": 107,
      "startTime": 41.084807400000024,
      "endTime": 41.26965570000002,
      "instrument": 3,
      "program": -1,
      "isDrum": false
    },
    {
      "pitch": 70,
      "velocity": 92,
      "startTime": 41.266625400000024,
      "endTime": 41.41814040000002,
      "instrument": 3,
      "program": -1,
      "isDrum": false
    },
    {
      "pitch": 71,
      "velocity": 104,
      "startTime": 41.44541310000002,
      "endTime": 41.58480690000002,
      "instrument": 3,
      "program": -1,
      "isDrum": false
    },
    {
      "pitch": 78,
      "velocity": 104,
      "startTime": 41.98783680000002,
      "endTime": 42.178745700000015,
      "instrument": 3,
      "program": -1,
      "isDrum": false
    },
    {
      "pitch": 78,
      "velocity": 110,
      "startTime": 42.36359400000001,
      "endTime": 42.499957500000015,
      "instrument": 3,
      "program": -1,
      "isDrum": false
    },
    {
      "pitch": 76,
      "velocity": 110,
      "startTime": 42.54541200000001,
      "endTime": 42.681775500000015,
      "instrument": 3,
      "program": -1,
      "isDrum": false
    },
    {
      "pitch": 74,
      "velocity": 110,
      "startTime": 42.72723000000001,
      "endTime": 42.863593500000015,
      "instrument": 3,
      "program": -1,
      "isDrum": false
    },
    {
      "pitch": 60,
      "velocity": 62,
      "startTime": 44.18177400000001,
      "endTime": 44.31207690000001,
      "instrument": 3,
      "program": -1,
      "isDrum": false
    },
    {
      "pitch": 72,
      "velocity": 79,
      "startTime": 44.38480410000001,
      "endTime": 44.52116760000001,
      "instrument": 3,
      "program": -1,
      "isDrum": false
    },
    {
      "pitch": 60,
      "velocity": 81,
      "startTime": 44.551470600000016,
      "endTime": 44.63025840000002,
      "instrument": 3,
      "program": -1,
      "isDrum": false
    },
    {
      "pitch": 74,
      "velocity": 109,
      "startTime": 45.83934810000002,
      "endTime": 46.024196400000015,
      "instrument": 3,
      "program": -1,
      "isDrum": false
    },
    {
      "pitch": 62,
      "velocity": 68,
      "startTime": 46.00904490000001,
      "endTime": 46.13934780000002,
      "instrument": 3,
      "program": -1,
      "isDrum": false
    },
    {
      "pitch": 74,
      "velocity": 114,
      "startTime": 46.206014400000015,
      "endTime": 46.37268090000001,
      "instrument": 3,
      "program": -1,
      "isDrum": false
    },
    {
      "pitch": 62,
      "velocity": 79,
      "startTime": 47.112074100000015,
      "endTime": 47.272680000000015,
      "instrument": 3,
      "program": -1,
      "isDrum": false
    },
    {
      "pitch": 74,
      "velocity": 109,
      "startTime": 47.30601330000002,
      "endTime": 47.46358890000002,
      "instrument": 3,
      "program": -1,
      "isDrum": false
    },
    {
      "pitch": 62,
      "velocity": 64,
      "startTime": 47.46055860000002,
      "endTime": 47.55752820000002,
      "instrument": 3,
      "program": -1,
      "isDrum": false
    },
    {
      "pitch": 74,
      "velocity": 92,
      "startTime": 47.65752810000002,
      "endTime": 47.72722500000002,
      "instrument": 3,
      "program": -1,
      "isDrum": false
    },
    {
      "pitch": 74,
      "velocity": 119,
      "startTime": 47.82722490000002,
      "endTime": 47.896921800000015,
      "instrument": 3,
      "program": -1,
      "isDrum": false
    },
    {
      "pitch": 72,
      "velocity": 114,
      "startTime": 48.787830000000014,
      "endTime": 48.97873890000001,
      "instrument": 3,
      "program": -1,
      "isDrum": false
    },
    {
      "pitch": 72,
      "velocity": 96,
      "startTime": 49.12722360000001,
      "endTime": 49.32419310000001,
      "instrument": 3,
      "program": -1,
      "isDrum": false
    },
    {
      "pitch": 60,
      "velocity": 47,
      "startTime": 49.99995000000001,
      "endTime": 50.16358620000001,
      "instrument": 3,
      "program": -1,
      "isDrum": false
    },
    {
      "pitch": 72,
      "velocity": 96,
      "startTime": 50.215101300000015,
      "endTime": 50.36964660000002,
      "instrument": 3,
      "program": -1,
      "isDrum": false
    },
    {
      "pitch": 72,
      "velocity": 104,
      "startTime": 50.596919100000015,
      "endTime": 50.78479770000001,
      "instrument": 3,
      "program": -1,
      "isDrum": false
    },
    {
      "pitch": 74,
      "velocity": 114,
      "startTime": 51.684796800000015,
      "endTime": 51.842372400000016,
      "instrument": 3,
      "program": -1,
      "isDrum": false
    },
    {
      "pitch": 62,
      "velocity": 77,
      "startTime": 51.83631180000002,
      "endTime": 51.963584400000016,
      "instrument": 3,
      "program": -1,
      "isDrum": false
    },
    {
      "pitch": 74,
      "velocity": 104,
      "startTime": 52.030251000000014,
      "endTime": 52.190856900000014,
      "instrument": 3,
      "program": -1,
      "isDrum": false
    },
    {
      "pitch": 62,
      "velocity": 79,
      "startTime": 52.94237130000001,
      "endTime": 53.078734800000014,
      "instrument": 3,
      "program": -1,
      "isDrum": false
    },
    {
      "pitch": 74,
      "velocity": 100,
      "startTime": 53.13024990000002,
      "endTime": 53.29085580000002,
      "instrument": 3,
      "program": -1,
      "isDrum": false
    },
    {
      "pitch": 62,
      "velocity": 66,
      "startTime": 53.293886100000016,
      "endTime": 53.40903750000002,
      "instrument": 3,
      "program": -1,
      "isDrum": false
    },
    {
      "pitch": 74,
      "velocity": 92,
      "startTime": 53.46964350000002,
      "endTime": 53.54540100000002,
      "instrument": 3,
      "program": -1,
      "isDrum": false
    },
    {
      "pitch": 74,
      "velocity": 104,
      "startTime": 53.65449180000002,
      "endTime": 53.76964320000002,
      "instrument": 3,
      "program": -1,
      "isDrum": false
    },
    {
      "pitch": 72,
      "velocity": 96,
      "startTime": 54.53024850000002,
      "endTime": 54.706005900000015,
      "instrument": 3,
      "program": -1,
      "isDrum": false
    },
    {
      "pitch": 60,
      "velocity": 62,
      "startTime": 54.69994530000002,
      "endTime": 54.82115730000002,
      "instrument": 3,
      "program": -1,
      "isDrum": false
    },
    {
      "pitch": 72,
      "velocity": 100,
      "startTime": 54.906005700000016,
      "endTime": 55.072672200000014,
      "instrument": 3,
      "program": -1,
      "isDrum": false
    },
    {
      "pitch": 60,
      "velocity": 73,
      "startTime": 55.86358050000001,
      "endTime": 55.957519800000014,
      "instrument": 3,
      "program": -1,
      "isDrum": false
    },
    {
      "pitch": 72,
      "velocity": 92,
      "startTime": 56.033277300000016,
      "endTime": 56.14842870000002,
      "instrument": 3,
      "program": -1,
      "isDrum": false
    },
    {
      "pitch": 60,
      "velocity": 63,
      "startTime": 56.24236800000002,
      "endTime": 56.34236790000002,
      "instrument": 3,
      "program": -1,
      "isDrum": false
    },
    {
      "pitch": 60,
      "velocity": 114,
      "startTime": 57.30600330000002,
      "endTime": 57.439336500000024,
      "instrument": 3,
      "program": -1,
      "isDrum": false
    },
    {
      "pitch": 72,
      "velocity": 114,
      "startTime": 57.478730400000025,
      "endTime": 57.56357880000002,
      "instrument": 3,
      "program": -1,
      "isDrum": false
    },
    {
      "pitch": 72,
      "velocity": 114,
      "startTime": 57.64539690000002,
      "endTime": 57.79085130000002,
      "instrument": 3,
      "program": -1,
      "isDrum": false
    },
    {
      "pitch": 60,
      "velocity": 109,
      "startTime": 57.83630580000002,
      "endTime": 58.09691160000002,
      "instrument": 3,
      "program": -1,
      "isDrum": false
    },
    {
      "pitch": 86,
      "velocity": 51,
      "startTime": 7.2727200000000005,
      "endTime": 7.5909015,
      "instrument": 4,
      "program": -1,
      "isDrum": false
    },
    {
      "pitch": 74,
      "velocity": 49,
      "startTime": 7.2727200000000005,
      "endTime": 7.6151439000000005,
      "instrument": 4,
      "program": -1,
      "isDrum": false
    },
    {
      "pitch": 81,
      "velocity": 62,
      "startTime": 7.999992000000001,
      "endTime": 8.330294700000001,
      "instrument": 4,
      "program": -1,
      "isDrum": false
    },
    {
      "pitch": 69,
      "velocity": 60,
      "startTime": 7.999992000000001,
      "endTime": 8.384840100000002,
      "instrument": 4,
      "program": -1,
      "isDrum": false
    },
    {
      "pitch": 76,
      "velocity": 60,
      "startTime": 8.727264000000002,
      "endTime": 9.112112100000001,
      "instrument": 4,
      "program": -1,
      "isDrum": false
    },
    {
      "pitch": 64,
      "velocity": 60,
      "startTime": 8.727264000000002,
      "endTime": 9.112112100000001,
      "instrument": 4,
      "program": -1,
      "isDrum": false
    },
    {
      "pitch": 86,
      "velocity": 51,
      "startTime": 10.181808,
      "endTime": 10.4999895,
      "instrument": 4,
      "program": -1,
      "isDrum": false
    },
    {
      "pitch": 74,
      "velocity": 49,
      "startTime": 10.181808,
      "endTime": 10.5242319,
      "instrument": 4,
      "program": -1,
      "isDrum": false
    },
    {
      "pitch": 81,
      "velocity": 62,
      "startTime": 10.90908,
      "endTime": 11.2393827,
      "instrument": 4,
      "program": -1,
      "isDrum": false
    },
    {
      "pitch": 69,
      "velocity": 60,
      "startTime": 10.90908,
      "endTime": 11.2939281,
      "instrument": 4,
      "program": -1,
      "isDrum": false
    },
    {
      "pitch": 76,
      "velocity": 60,
      "startTime": 11.636352,
      "endTime": 12.0212001,
      "instrument": 4,
      "program": -1,
      "isDrum": false
    },
    {
      "pitch": 64,
      "velocity": 60,
      "startTime": 11.636352,
      "endTime": 12.0212001,
      "instrument": 4,
      "program": -1,
      "isDrum": false
    },
    {
      "pitch": 86,
      "velocity": 51,
      "startTime": 13.090896,
      "endTime": 13.4090775,
      "instrument": 4,
      "program": -1,
      "isDrum": false
    },
    {
      "pitch": 74,
      "velocity": 49,
      "startTime": 13.090896,
      "endTime": 13.4333199,
      "instrument": 4,
      "program": -1,
      "isDrum": false
    },
    {
      "pitch": 81,
      "velocity": 62,
      "startTime": 13.818168,
      "endTime": 14.1484707,
      "instrument": 4,
      "program": -1,
      "isDrum": false
    },
    {
      "pitch": 69,
      "velocity": 60,
      "startTime": 13.818168,
      "endTime": 14.203016100000001,
      "instrument": 4,
      "program": -1,
      "isDrum": false
    },
    {
      "pitch": 76,
      "velocity": 60,
      "startTime": 14.545440000000001,
      "endTime": 14.9302881,
      "instrument": 4,
      "program": -1,
      "isDrum": false
    },
    {
      "pitch": 64,
      "velocity": 60,
      "startTime": 14.545440000000001,
      "endTime": 14.9302881,
      "instrument": 4,
      "program": -1,
      "isDrum": false
    },
    {
      "pitch": 86,
      "velocity": 51,
      "startTime": 15.999984000000001,
      "endTime": 16.318165500000003,
      "instrument": 4,
      "program": -1,
      "isDrum": false
    },
    {
      "pitch": 74,
      "velocity": 49,
      "startTime": 15.999984000000001,
      "endTime": 16.3424079,
      "instrument": 4,
      "program": -1,
      "isDrum": false
    },
    {
      "pitch": 81,
      "velocity": 62,
      "startTime": 16.727256,
      "endTime": 17.0575587,
      "instrument": 4,
      "program": -1,
      "isDrum": false
    },
    {
      "pitch": 69,
      "velocity": 60,
      "startTime": 16.727256,
      "endTime": 17.1121041,
      "instrument": 4,
      "program": -1,
      "isDrum": false
    },
    {
      "pitch": 76,
      "velocity": 60,
      "startTime": 17.454528,
      "endTime": 17.8393761,
      "instrument": 4,
      "program": -1,
      "isDrum": false
    },
    {
      "pitch": 64,
      "velocity": 60,
      "startTime": 17.454528,
      "endTime": 17.8393761,
      "instrument": 4,
      "program": -1,
      "isDrum": false
    },
    {
      "pitch": 86,
      "velocity": 51,
      "startTime": 18.909072,
      "endTime": 19.2272535,
      "instrument": 4,
      "program": -1,
      "isDrum": false
    },
    {
      "pitch": 74,
      "velocity": 49,
      "startTime": 18.909072,
      "endTime": 19.2514959,
      "instrument": 4,
      "program": -1,
      "isDrum": false
    },
    {
      "pitch": 81,
      "velocity": 62,
      "startTime": 19.636343999999998,
      "endTime": 19.9666467,
      "instrument": 4,
      "program": -1,
      "isDrum": false
    },
    {
      "pitch": 69,
      "velocity": 60,
      "startTime": 19.636343999999998,
      "endTime": 20.021192099999997,
      "instrument": 4,
      "program": -1,
      "isDrum": false
    },
    {
      "pitch": 76,
      "velocity": 60,
      "startTime": 20.363615999999997,
      "endTime": 20.748464099999996,
      "instrument": 4,
      "program": -1,
      "isDrum": false
    },
    {
      "pitch": 64,
      "velocity": 60,
      "startTime": 20.363615999999997,
      "endTime": 20.748464099999996,
      "instrument": 4,
      "program": -1,
      "isDrum": false
    },
    {
      "pitch": 86,
      "velocity": 51,
      "startTime": 21.818159999999995,
      "endTime": 22.136341499999997,
      "instrument": 4,
      "program": -1,
      "isDrum": false
    },
    {
      "pitch": 74,
      "velocity": 49,
      "startTime": 21.818159999999995,
      "endTime": 22.160583899999995,
      "instrument": 4,
      "program": -1,
      "isDrum": false
    },
    {
      "pitch": 81,
      "velocity": 62,
      "startTime": 22.545431999999995,
      "endTime": 22.875734699999995,
      "instrument": 4,
      "program": -1,
      "isDrum": false
    },
    {
      "pitch": 69,
      "velocity": 60,
      "startTime": 22.545431999999995,
      "endTime": 22.930280099999994,
      "instrument": 4,
      "program": -1,
      "isDrum": false
    },
    {
      "pitch": 76,
      "velocity": 60,
      "startTime": 23.272703999999994,
      "endTime": 23.657552099999993,
      "instrument": 4,
      "program": -1,
      "isDrum": false
    },
    {
      "pitch": 64,
      "velocity": 60,
      "startTime": 23.272703999999994,
      "endTime": 23.657552099999993,
      "instrument": 4,
      "program": -1,
      "isDrum": false
    },
    {
      "pitch": 86,
      "velocity": 51,
      "startTime": 24.727247999999992,
      "endTime": 25.045429499999994,
      "instrument": 4,
      "program": -1,
      "isDrum": false
    },
    {
      "pitch": 74,
      "velocity": 49,
      "startTime": 24.727247999999992,
      "endTime": 25.069671899999992,
      "instrument": 4,
      "program": -1,
      "isDrum": false
    },
    {
      "pitch": 81,
      "velocity": 62,
      "startTime": 25.45451999999999,
      "endTime": 25.784822699999992,
      "instrument": 4,
      "program": -1,
      "isDrum": false
    },
    {
      "pitch": 69,
      "velocity": 60,
      "startTime": 25.45451999999999,
      "endTime": 25.83936809999999,
      "instrument": 4,
      "program": -1,
      "isDrum": false
    },
    {
      "pitch": 76,
      "velocity": 60,
      "startTime": 26.18179199999999,
      "endTime": 26.56664009999999,
      "instrument": 4,
      "program": -1,
      "isDrum": false
    },
    {
      "pitch": 64,
      "velocity": 60,
      "startTime": 26.18179199999999,
      "endTime": 26.56664009999999,
      "instrument": 4,
      "program": -1,
      "isDrum": false
    },
    {
      "pitch": 86,
      "velocity": 51,
      "startTime": 27.63633599999999,
      "endTime": 27.95451749999999,
      "instrument": 4,
      "program": -1,
      "isDrum": false
    },
    {
      "pitch": 74,
      "velocity": 49,
      "startTime": 27.63633599999999,
      "endTime": 27.97875989999999,
      "instrument": 4,
      "program": -1,
      "isDrum": false
    },
    {
      "pitch": 81,
      "velocity": 62,
      "startTime": 28.36360799999999,
      "endTime": 28.69391069999999,
      "instrument": 4,
      "program": -1,
      "isDrum": false
    },
    {
      "pitch": 69,
      "velocity": 60,
      "startTime": 28.36360799999999,
      "endTime": 28.748456099999988,
      "instrument": 4,
      "program": -1,
      "isDrum": false
    },
    {
      "pitch": 76,
      "velocity": 60,
      "startTime": 29.090879999999988,
      "endTime": 29.475728099999987,
      "instrument": 4,
      "program": -1,
      "isDrum": false
    },
    {
      "pitch": 64,
      "velocity": 60,
      "startTime": 29.090879999999988,
      "endTime": 29.475728099999987,
      "instrument": 4,
      "program": -1,
      "isDrum": false
    },
    {
      "pitch": 86,
      "velocity": 51,
      "startTime": 30.545423999999986,
      "endTime": 30.863605499999988,
      "instrument": 4,
      "program": -1,
      "isDrum": false
    },
    {
      "pitch": 74,
      "velocity": 49,
      "startTime": 30.545423999999986,
      "endTime": 30.887847899999986,
      "instrument": 4,
      "program": -1,
      "isDrum": false
    },
    {
      "pitch": 81,
      "velocity": 62,
      "startTime": 31.272695999999986,
      "endTime": 31.602998699999986,
      "instrument": 4,
      "program": -1,
      "isDrum": false
    },
    {
      "pitch": 69,
      "velocity": 60,
      "startTime": 31.272695999999986,
      "endTime": 31.657544099999985,
      "instrument": 4,
      "program": -1,
      "isDrum": false
    },
    {
      "pitch": 76,
      "velocity": 60,
      "startTime": 31.999967999999985,
      "endTime": 32.38481609999999,
      "instrument": 4,
      "program": -1,
      "isDrum": false
    },
    {
      "pitch": 64,
      "velocity": 60,
      "startTime": 31.999967999999985,
      "endTime": 32.38481609999999,
      "instrument": 4,
      "program": -1,
      "isDrum": false
    },
    {
      "pitch": 86,
      "velocity": 51,
      "startTime": 33.45451199999999,
      "endTime": 33.77269349999999,
      "instrument": 4,
      "program": -1,
      "isDrum": false
    },
    {
      "pitch": 74,
      "velocity": 49,
      "startTime": 33.45451199999999,
      "endTime": 33.79693589999999,
      "instrument": 4,
      "program": -1,
      "isDrum": false
    },
    {
      "pitch": 81,
      "velocity": 62,
      "startTime": 34.181783999999986,
      "endTime": 34.51208669999998,
      "instrument": 4,
      "program": -1,
      "isDrum": false
    },
    {
      "pitch": 69,
      "velocity": 60,
      "startTime": 34.181783999999986,
      "endTime": 34.566632099999985,
      "instrument": 4,
      "program": -1,
      "isDrum": false
    },
    {
      "pitch": 76,
      "velocity": 60,
      "startTime": 34.909055999999985,
      "endTime": 35.293904099999985,
      "instrument": 4,
      "program": -1,
      "isDrum": false
    },
    {
      "pitch": 64,
      "velocity": 60,
      "startTime": 34.909055999999985,
      "endTime": 35.293904099999985,
      "instrument": 4,
      "program": -1,
      "isDrum": false
    },
    {
      "pitch": 86,
      "velocity": 51,
      "startTime": 36.363599999999984,
      "endTime": 36.681781499999985,
      "instrument": 4,
      "program": -1,
      "isDrum": false
    },
    {
      "pitch": 74,
      "velocity": 49,
      "startTime": 36.363599999999984,
      "endTime": 36.706023899999984,
      "instrument": 4,
      "program": -1,
      "isDrum": false
    },
    {
      "pitch": 81,
      "velocity": 62,
      "startTime": 37.09087199999998,
      "endTime": 37.42117469999998,
      "instrument": 4,
      "program": -1,
      "isDrum": false
    },
    {
      "pitch": 69,
      "velocity": 60,
      "startTime": 37.09087199999998,
      "endTime": 37.47572009999998,
      "instrument": 4,
      "program": -1,
      "isDrum": false
    },
    {
      "pitch": 76,
      "velocity": 60,
      "startTime": 37.81814399999998,
      "endTime": 38.20299209999998,
      "instrument": 4,
      "program": -1,
      "isDrum": false
    },
    {
      "pitch": 64,
      "velocity": 60,
      "startTime": 37.81814399999998,
      "endTime": 38.20299209999998,
      "instrument": 4,
      "program": -1,
      "isDrum": false
    },
    {
      "pitch": 86,
      "velocity": 51,
      "startTime": 39.27268799999998,
      "endTime": 39.59086949999998,
      "instrument": 4,
      "program": -1,
      "isDrum": false
    },
    {
      "pitch": 74,
      "velocity": 49,
      "startTime": 39.27268799999998,
      "endTime": 39.61511189999998,
      "instrument": 4,
      "program": -1,
      "isDrum": false
    },
    {
      "pitch": 81,
      "velocity": 62,
      "startTime": 39.99995999999998,
      "endTime": 40.33026269999998,
      "instrument": 4,
      "program": -1,
      "isDrum": false
    },
    {
      "pitch": 69,
      "velocity": 60,
      "startTime": 39.99995999999998,
      "endTime": 40.38480809999998,
      "instrument": 4,
      "program": -1,
      "isDrum": false
    },
    {
      "pitch": 76,
      "velocity": 60,
      "startTime": 40.72723199999998,
      "endTime": 41.11208009999998,
      "instrument": 4,
      "program": -1,
      "isDrum": false
    },
    {
      "pitch": 64,
      "velocity": 60,
      "startTime": 40.72723199999998,
      "endTime": 41.11208009999998,
      "instrument": 4,
      "program": -1,
      "isDrum": false
    },
    {
      "pitch": 84,
      "velocity": 50,
      "startTime": 43.63631999999998,
      "endTime": 43.999955999999976,
      "instrument": 4,
      "program": -1,
      "isDrum": false
    },
    {
      "pitch": 87,
      "velocity": 50,
      "startTime": 43.63631999999998,
      "endTime": 43.999955999999976,
      "instrument": 4,
      "program": -1,
      "isDrum": false
    },
    {
      "pitch": 88,
      "velocity": 50,
      "startTime": 43.999955999999976,
      "endTime": 44.363591999999976,
      "instrument": 4,
      "program": -1,
      "isDrum": false
    },
    {
      "pitch": 84,
      "velocity": 50,
      "startTime": 43.999955999999976,
      "endTime": 44.363591999999976,
      "instrument": 4,
      "program": -1,
      "isDrum": false
    },
    {
      "pitch": 87,
      "velocity": 50,
      "startTime": 44.363591999999976,
      "endTime": 44.727227999999975,
      "instrument": 4,
      "program": -1,
      "isDrum": false
    },
    {
      "pitch": 84,
      "velocity": 50,
      "startTime": 44.363591999999976,
      "endTime": 44.727227999999975,
      "instrument": 4,
      "program": -1,
      "isDrum": false
    },
    {
      "pitch": 88,
      "velocity": 50,
      "startTime": 44.727227999999975,
      "endTime": 45.090863999999975,
      "instrument": 4,
      "program": -1,
      "isDrum": false
    },
    {
      "pitch": 84,
      "velocity": 50,
      "startTime": 44.727227999999975,
      "endTime": 45.090863999999975,
      "instrument": 4,
      "program": -1,
      "isDrum": false
    },
    {
      "pitch": 84,
      "velocity": 50,
      "startTime": 45.090863999999975,
      "endTime": 45.454499999999975,
      "instrument": 4,
      "program": -1,
      "isDrum": false
    },
    {
      "pitch": 87,
      "velocity": 50,
      "startTime": 45.090863999999975,
      "endTime": 45.454499999999975,
      "instrument": 4,
      "program": -1,
      "isDrum": false
    },
    {
      "pitch": 88,
      "velocity": 50,
      "startTime": 45.454499999999975,
      "endTime": 45.818135999999974,
      "instrument": 4,
      "program": -1,
      "isDrum": false
    },
    {
      "pitch": 84,
      "velocity": 50,
      "startTime": 45.454499999999975,
      "endTime": 45.818135999999974,
      "instrument": 4,
      "program": -1,
      "isDrum": false
    },
    {
      "pitch": 87,
      "velocity": 50,
      "startTime": 45.818135999999974,
      "endTime": 46.181771999999974,
      "instrument": 4,
      "program": -1,
      "isDrum": false
    },
    {
      "pitch": 84,
      "velocity": 50,
      "startTime": 45.818135999999974,
      "endTime": 46.181771999999974,
      "instrument": 4,
      "program": -1,
      "isDrum": false
    },
    {
      "pitch": 88,
      "velocity": 50,
      "startTime": 46.181771999999974,
      "endTime": 46.54540799999997,
      "instrument": 4,
      "program": -1,
      "isDrum": false
    },
    {
      "pitch": 84,
      "velocity": 50,
      "startTime": 46.181771999999974,
      "endTime": 46.54540799999997,
      "instrument": 4,
      "program": -1,
      "isDrum": false
    },
    {
      "pitch": 84,
      "velocity": 50,
      "startTime": 46.54540799999997,
      "endTime": 46.90904399999997,
      "instrument": 4,
      "program": -1,
      "isDrum": false
    },
    {
      "pitch": 87,
      "velocity": 50,
      "startTime": 46.54540799999997,
      "endTime": 46.90904399999997,
      "instrument": 4,
      "program": -1,
      "isDrum": false
    },
    {
      "pitch": 88,
      "velocity": 50,
      "startTime": 46.90904399999997,
      "endTime": 47.27267999999997,
      "instrument": 4,
      "program": -1,
      "isDrum": false
    },
    {
      "pitch": 84,
      "velocity": 50,
      "startTime": 46.90904399999997,
      "endTime": 47.27267999999997,
      "instrument": 4,
      "program": -1,
      "isDrum": false
    },
    {
      "pitch": 87,
      "velocity": 50,
      "startTime": 47.27267999999997,
      "endTime": 47.63631599999997,
      "instrument": 4,
      "program": -1,
      "isDrum": false
    },
    {
      "pitch": 84,
      "velocity": 50,
      "startTime": 47.27267999999997,
      "endTime": 47.63631599999997,
      "instrument": 4,
      "program": -1,
      "isDrum": false
    },
    {
      "pitch": 88,
      "velocity": 50,
      "startTime": 47.63631599999997,
      "endTime": 47.99995199999997,
      "instrument": 4,
      "program": -1,
      "isDrum": false
    },
    {
      "pitch": 84,
      "velocity": 50,
      "startTime": 47.63631599999997,
      "endTime": 47.99995199999997,
      "instrument": 4,
      "program": -1,
      "isDrum": false
    },
    {
      "pitch": 84,
      "velocity": 50,
      "startTime": 47.99995199999997,
      "endTime": 48.36358799999997,
      "instrument": 4,
      "program": -1,
      "isDrum": false
    },
    {
      "pitch": 87,
      "velocity": 50,
      "startTime": 47.99995199999997,
      "endTime": 48.36358799999997,
      "instrument": 4,
      "program": -1,
      "isDrum": false
    },
    {
      "pitch": 88,
      "velocity": 50,
      "startTime": 48.36358799999997,
      "endTime": 48.72722399999997,
      "instrument": 4,
      "program": -1,
      "isDrum": false
    },
    {
      "pitch": 84,
      "velocity": 50,
      "startTime": 48.36358799999997,
      "endTime": 48.72722399999997,
      "instrument": 4,
      "program": -1,
      "isDrum": false
    },
    {
      "pitch": 87,
      "velocity": 50,
      "startTime": 48.72722399999997,
      "endTime": 49.09085999999997,
      "instrument": 4,
      "program": -1,
      "isDrum": false
    },
    {
      "pitch": 84,
      "velocity": 50,
      "startTime": 48.72722399999997,
      "endTime": 49.09085999999997,
      "instrument": 4,
      "program": -1,
      "isDrum": false
    },
    {
      "pitch": 88,
      "velocity": 50,
      "startTime": 49.09085999999997,
      "endTime": 49.45449599999997,
      "instrument": 4,
      "program": -1,
      "isDrum": false
    },
    {
      "pitch": 84,
      "velocity": 50,
      "startTime": 49.09085999999997,
      "endTime": 49.45449599999997,
      "instrument": 4,
      "program": -1,
      "isDrum": false
    },
    {
      "pitch": 84,
      "velocity": 50,
      "startTime": 49.45449599999997,
      "endTime": 49.81813199999997,
      "instrument": 4,
      "program": -1,
      "isDrum": false
    },
    {
      "pitch": 87,
      "velocity": 50,
      "startTime": 49.45449599999997,
      "endTime": 49.81813199999997,
      "instrument": 4,
      "program": -1,
      "isDrum": false
    },
    {
      "pitch": 88,
      "velocity": 50,
      "startTime": 49.81813199999997,
      "endTime": 50.18176799999997,
      "instrument": 4,
      "program": -1,
      "isDrum": false
    },
    {
      "pitch": 84,
      "velocity": 50,
      "startTime": 49.81813199999997,
      "endTime": 50.18176799999997,
      "instrument": 4,
      "program": -1,
      "isDrum": false
    },
    {
      "pitch": 87,
      "velocity": 50,
      "startTime": 50.18176799999997,
      "endTime": 50.54540399999997,
      "instrument": 4,
      "program": -1,
      "isDrum": false
    },
    {
      "pitch": 84,
      "velocity": 50,
      "startTime": 50.18176799999997,
      "endTime": 50.54540399999997,
      "instrument": 4,
      "program": -1,
      "isDrum": false
    },
    {
      "pitch": 88,
      "velocity": 50,
      "startTime": 50.54540399999997,
      "endTime": 50.90903999999997,
      "instrument": 4,
      "program": -1,
      "isDrum": false
    },
    {
      "pitch": 84,
      "velocity": 50,
      "startTime": 50.54540399999997,
      "endTime": 50.90903999999997,
      "instrument": 4,
      "program": -1,
      "isDrum": false
    },
    {
      "pitch": 84,
      "velocity": 50,
      "startTime": 50.90903999999997,
      "endTime": 51.27267599999997,
      "instrument": 4,
      "program": -1,
      "isDrum": false
    },
    {
      "pitch": 87,
      "velocity": 50,
      "startTime": 50.90903999999997,
      "endTime": 51.27267599999997,
      "instrument": 4,
      "program": -1,
      "isDrum": false
    },
    {
      "pitch": 88,
      "velocity": 50,
      "startTime": 51.27267599999997,
      "endTime": 51.63631199999997,
      "instrument": 4,
      "program": -1,
      "isDrum": false
    },
    {
      "pitch": 84,
      "velocity": 50,
      "startTime": 51.27267599999997,
      "endTime": 51.63631199999997,
      "instrument": 4,
      "program": -1,
      "isDrum": false
    },
    {
      "pitch": 87,
      "velocity": 50,
      "startTime": 51.63631199999997,
      "endTime": 51.99994799999997,
      "instrument": 4,
      "program": -1,
      "isDrum": false
    },
    {
      "pitch": 84,
      "velocity": 50,
      "startTime": 51.63631199999997,
      "endTime": 51.99994799999997,
      "instrument": 4,
      "program": -1,
      "isDrum": false
    },
    {
      "pitch": 88,
      "velocity": 50,
      "startTime": 51.99994799999997,
      "endTime": 52.36358399999997,
      "instrument": 4,
      "program": -1,
      "isDrum": false
    },
    {
      "pitch": 84,
      "velocity": 50,
      "startTime": 51.99994799999997,
      "endTime": 52.36358399999997,
      "instrument": 4,
      "program": -1,
      "isDrum": false
    },
    {
      "pitch": 84,
      "velocity": 50,
      "startTime": 52.36358399999997,
      "endTime": 52.72721999999997,
      "instrument": 4,
      "program": -1,
      "isDrum": false
    },
    {
      "pitch": 87,
      "velocity": 50,
      "startTime": 52.36358399999997,
      "endTime": 52.72721999999997,
      "instrument": 4,
      "program": -1,
      "isDrum": false
    },
    {
      "pitch": 88,
      "velocity": 50,
      "startTime": 52.72721999999997,
      "endTime": 53.09085599999997,
      "instrument": 4,
      "program": -1,
      "isDrum": false
    },
    {
      "pitch": 84,
      "velocity": 50,
      "startTime": 52.72721999999997,
      "endTime": 53.09085599999997,
      "instrument": 4,
      "program": -1,
      "isDrum": false
    },
    {
      "pitch": 87,
      "velocity": 50,
      "startTime": 53.09085599999997,
      "endTime": 53.454491999999966,
      "instrument": 4,
      "program": -1,
      "isDrum": false
    },
    {
      "pitch": 84,
      "velocity": 50,
      "startTime": 53.09085599999997,
      "endTime": 53.454491999999966,
      "instrument": 4,
      "program": -1,
      "isDrum": false
    },
    {
      "pitch": 88,
      "velocity": 50,
      "startTime": 53.454491999999966,
      "endTime": 53.818127999999966,
      "instrument": 4,
      "program": -1,
      "isDrum": false
    },
    {
      "pitch": 84,
      "velocity": 50,
      "startTime": 53.454491999999966,
      "endTime": 53.818127999999966,
      "instrument": 4,
      "program": -1,
      "isDrum": false
    },
    {
      "pitch": 84,
      "velocity": 50,
      "startTime": 53.818127999999966,
      "endTime": 54.181763999999966,
      "instrument": 4,
      "program": -1,
      "isDrum": false
    },
    {
      "pitch": 87,
      "velocity": 50,
      "startTime": 53.818127999999966,
      "endTime": 54.181763999999966,
      "instrument": 4,
      "program": -1,
      "isDrum": false
    },
    {
      "pitch": 88,
      "velocity": 50,
      "startTime": 54.181763999999966,
      "endTime": 54.545399999999965,
      "instrument": 4,
      "program": -1,
      "isDrum": false
    },
    {
      "pitch": 84,
      "velocity": 50,
      "startTime": 54.181763999999966,
      "endTime": 54.545399999999965,
      "instrument": 4,
      "program": -1,
      "isDrum": false
    },
    {
      "pitch": 87,
      "velocity": 50,
      "startTime": 54.545399999999965,
      "endTime": 54.909035999999965,
      "instrument": 4,
      "program": -1,
      "isDrum": false
    },
    {
      "pitch": 84,
      "velocity": 50,
      "startTime": 54.545399999999965,
      "endTime": 54.909035999999965,
      "instrument": 4,
      "program": -1,
      "isDrum": false
    },
    {
      "pitch": 88,
      "velocity": 50,
      "startTime": 54.909035999999965,
      "endTime": 55.272671999999964,
      "instrument": 4,
      "program": -1,
      "isDrum": false
    },
    {
      "pitch": 84,
      "velocity": 50,
      "startTime": 54.909035999999965,
      "endTime": 55.272671999999964,
      "instrument": 4,
      "program": -1,
      "isDrum": false
    },
    {
      "pitch": 84,
      "velocity": 50,
      "startTime": 55.272671999999964,
      "endTime": 55.636307999999964,
      "instrument": 4,
      "program": -1,
      "isDrum": false
    },
    {
      "pitch": 87,
      "velocity": 50,
      "startTime": 55.272671999999964,
      "endTime": 55.636307999999964,
      "instrument": 4,
      "program": -1,
      "isDrum": false
    },
    {
      "pitch": 88,
      "velocity": 50,
      "startTime": 55.636307999999964,
      "endTime": 55.999943999999964,
      "instrument": 4,
      "program": -1,
      "isDrum": false
    },
    {
      "pitch": 84,
      "velocity": 50,
      "startTime": 55.636307999999964,
      "endTime": 55.999943999999964,
      "instrument": 4,
      "program": -1,
      "isDrum": false
    },
    {
      "pitch": 87,
      "velocity": 50,
      "startTime": 55.999943999999964,
      "endTime": 56.36357999999996,
      "instrument": 4,
      "program": -1,
      "isDrum": false
    },
    {
      "pitch": 84,
      "velocity": 50,
      "startTime": 55.999943999999964,
      "endTime": 56.36357999999996,
      "instrument": 4,
      "program": -1,
      "isDrum": false
    },
    {
      "pitch": 88,
      "velocity": 50,
      "startTime": 56.36357999999996,
      "endTime": 56.72721599999996,
      "instrument": 4,
      "program": -1,
      "isDrum": false
    },
    {
      "pitch": 84,
      "velocity": 50,
      "startTime": 56.36357999999996,
      "endTime": 56.72721599999996,
      "instrument": 4,
      "program": -1,
      "isDrum": false
    },
    {
      "pitch": 84,
      "velocity": 50,
      "startTime": 56.72721599999996,
      "endTime": 57.09085199999996,
      "instrument": 4,
      "program": -1,
      "isDrum": false
    },
    {
      "pitch": 87,
      "velocity": 50,
      "startTime": 56.72721599999996,
      "endTime": 57.09085199999996,
      "instrument": 4,
      "program": -1,
      "isDrum": false
    },
    {
      "pitch": 88,
      "velocity": 50,
      "startTime": 57.09085199999996,
      "endTime": 57.45448799999996,
      "instrument": 4,
      "program": -1,
      "isDrum": false
    },
    {
      "pitch": 84,
      "velocity": 50,
      "startTime": 57.09085199999996,
      "endTime": 57.45448799999996,
      "instrument": 4,
      "program": -1,
      "isDrum": false
    },
    {
      "pitch": 87,
      "velocity": 50,
      "startTime": 57.45448799999996,
      "endTime": 57.81812399999996,
      "instrument": 4,
      "program": -1,
      "isDrum": false
    },
    {
      "pitch": 84,
      "velocity": 50,
      "startTime": 57.45448799999996,
      "endTime": 57.81812399999996,
      "instrument": 4,
      "program": -1,
      "isDrum": false
    },
    {
      "pitch": 88,
      "velocity": 50,
      "startTime": 57.81812399999996,
      "endTime": 58.18175999999996,
      "instrument": 4,
      "program": -1,
      "isDrum": false
    },
    {
      "pitch": 84,
      "velocity": 50,
      "startTime": 57.81812399999996,
      "endTime": 58.18175999999996,
      "instrument": 4,
      "program": -1,
      "isDrum": false
    },
    {
      "pitch": 86,
      "velocity": 51,
      "startTime": 59.63630399999996,
      "endTime": 59.95448549999996,
      "instrument": 4,
      "program": -1,
      "isDrum": false
    },
    {
      "pitch": 74,
      "velocity": 49,
      "startTime": 59.63630399999996,
      "endTime": 59.97872789999996,
      "instrument": 4,
      "program": -1,
      "isDrum": false
    }
  ],
  "totalTime": 60,
  "sourceInfo": {
    "encodingType": "MIDI",
    "parser": "TONEJS_MIDI_CONVERT"
  }
}
